<svg width="169" height="172" viewBox="0 0 169 172" fill="none" xmlns="http://www.w3.org/2000/svg">
<g opacity="0.6" clip-path="url(#clip0_114_17165)">
<path d="M10.5 3.375V4.5C10.5 5.53594 8.14922 6.375 5.25 6.375C2.35078 6.375 0 5.53594 0 4.5V3.375C0 2.33906 2.35078 1.5 5.25 1.5C8.14922 1.5 10.5 2.33906 10.5 3.375ZM9.21563 6.53203C9.70312 6.35859 10.1508 6.13594 10.5 5.86172V8.25C10.5 9.28594 8.14922 10.125 5.25 10.125C2.35078 10.125 0 9.28594 0 8.25V5.86172C0.349219 6.13828 0.796875 6.35859 1.28437 6.53203C2.33672 6.90703 3.73828 7.125 5.25 7.125C6.76172 7.125 8.16328 6.90703 9.21563 6.53203ZM0 9.61172C0.349219 9.88828 0.796875 10.1086 1.28437 10.282C2.33672 10.657 3.73828 10.875 5.25 10.875C6.76172 10.875 8.16328 10.657 9.21563 10.282C9.70312 10.1086 10.1508 9.88594 10.5 9.61172V11.625C10.5 12.6609 8.14922 13.5 5.25 13.5C2.35078 13.5 0 12.6609 0 11.625V9.61172Z" fill="white"/>
</g>
<path d="M24.5707 5.14453C24.5276 4.74136 24.346 4.42744 24.0259 4.20277C23.7089 3.9781 23.2965 3.86577 22.7887 3.86577C22.4317 3.86577 22.1255 3.91963 21.87 4.02734C21.6146 4.13506 21.4192 4.28125 21.2837 4.46591C21.1483 4.65057 21.0791 4.86139 21.076 5.09837C21.076 5.29534 21.1206 5.46615 21.2099 5.6108C21.3022 5.75544 21.4268 5.87855 21.5838 5.98011C21.7408 6.0786 21.9147 6.16169 22.1055 6.2294C22.2963 6.29711 22.4886 6.35405 22.6825 6.40021L23.5689 6.6218C23.9259 6.7049 24.2691 6.81723 24.5984 6.95881C24.9308 7.10038 25.2277 7.27888 25.4893 7.49432C25.754 7.70975 25.9633 7.96982 26.1172 8.2745C26.2711 8.57919 26.348 8.9362 26.348 9.34553C26.348 9.8995 26.2064 10.3873 25.9233 10.8089C25.6402 11.2275 25.2308 11.5553 24.6953 11.7923C24.1629 12.0262 23.5181 12.1431 22.761 12.1431C22.0254 12.1431 21.3868 12.0292 20.8452 11.8015C20.3066 11.5737 19.8849 11.2414 19.5803 10.8043C19.2786 10.3673 19.1155 9.83487 19.0909 9.20703H20.7759C20.8005 9.53634 20.9021 9.81025 21.0806 10.0288C21.2591 10.2473 21.4915 10.4104 21.7777 10.5181C22.067 10.6258 22.3902 10.6797 22.7472 10.6797C23.1196 10.6797 23.4458 10.6243 23.7259 10.5135C24.009 10.3996 24.2306 10.2427 24.3906 10.0426C24.5507 9.83949 24.6322 9.60251 24.6353 9.33168C24.6322 9.08546 24.5599 8.88234 24.4183 8.7223C24.2768 8.55919 24.0782 8.42377 23.8228 8.31605C23.5704 8.20526 23.275 8.10677 22.9364 8.0206L21.8608 7.74361C21.0821 7.54356 20.4666 7.24041 20.0142 6.83416C19.5649 6.42483 19.3402 5.88163 19.3402 5.20454C19.3402 4.64749 19.491 4.15968 19.7926 3.74112C20.0973 3.32256 20.5112 2.99787 21.0344 2.76704C21.5576 2.53314 22.1501 2.41619 22.8118 2.41619C23.4827 2.41619 24.0705 2.53314 24.5753 2.76704C25.0831 2.99787 25.4817 3.31948 25.771 3.73189C26.0603 4.14122 26.2095 4.6121 26.2188 5.14453H24.5707ZM29.7322 7.84517V12H28.061V4.90909H29.6583V6.11399H29.7414C29.9046 5.71697 30.1646 5.40151 30.5216 5.16761C30.8817 4.93371 31.3264 4.81676 31.8558 4.81676C32.3451 4.81676 32.7714 4.9214 33.1346 5.13068C33.5008 5.33996 33.7839 5.64311 33.984 6.04013C34.1871 6.43714 34.2871 6.9188 34.2841 7.48508V12H32.6129V7.74361C32.6129 7.26965 32.4898 6.89879 32.2436 6.63104C32.0004 6.36328 31.6634 6.2294 31.2326 6.2294C30.9402 6.2294 30.6801 6.29403 30.4524 6.4233C30.2277 6.54948 30.0507 6.7326 29.9215 6.97266C29.7953 7.21271 29.7322 7.50355 29.7322 7.84517ZM38.2834 12.1431C37.8341 12.1431 37.4294 12.0631 37.0693 11.9031C36.7123 11.7399 36.4291 11.4999 36.2198 11.1829C36.0136 10.8659 35.9105 10.475 35.9105 10.0103C35.9105 9.6102 35.9844 9.27936 36.1321 9.01776C36.2799 8.75616 36.4814 8.54688 36.7369 8.38991C36.9923 8.23295 37.2801 8.11446 37.6002 8.03445C37.9233 7.95135 38.2572 7.89134 38.6019 7.8544C39.0174 7.81132 39.3544 7.77285 39.613 7.73899C39.8715 7.70206 40.0592 7.64666 40.1762 7.5728C40.2962 7.49586 40.3562 7.37737 40.3562 7.21733V7.18963C40.3562 6.84186 40.2531 6.57256 40.0469 6.38175C39.8407 6.19093 39.5437 6.09553 39.1559 6.09553C38.7466 6.09553 38.4219 6.18478 38.1818 6.36328C37.9449 6.54178 37.7848 6.7526 37.7017 6.99574L36.1414 6.77415C36.2645 6.34328 36.4676 5.98319 36.7507 5.69389C37.0339 5.40151 37.3801 5.183 37.7894 5.03835C38.1988 4.89062 38.6512 4.81676 39.1467 4.81676C39.4883 4.81676 39.8284 4.85677 40.1669 4.93679C40.5055 5.01681 40.8148 5.14915 41.0948 5.33381C41.3749 5.51539 41.5996 5.76314 41.7688 6.07706C41.9412 6.39098 42.0274 6.78338 42.0274 7.25426V12H40.4208V11.0259H40.3654C40.2639 11.2229 40.1208 11.4076 39.9361 11.5799C39.7545 11.7492 39.5252 11.8861 39.2482 11.9908C38.9743 12.0923 38.6527 12.1431 38.2834 12.1431ZM38.7174 10.9151C39.0528 10.9151 39.3437 10.849 39.5899 10.7166C39.8361 10.5812 40.0254 10.4027 40.1577 10.1811C40.2931 9.95952 40.3608 9.71792 40.3608 9.45632V8.62074C40.3085 8.66383 40.2192 8.70384 40.0931 8.74077C39.97 8.7777 39.8315 8.81001 39.6776 8.83771C39.5237 8.86541 39.3714 8.89003 39.2206 8.91158C39.0697 8.93312 38.9389 8.95159 38.8282 8.96697C38.5789 9.00083 38.3557 9.05623 38.1588 9.13317C37.9618 9.21011 37.8064 9.31783 37.6925 9.45632C37.5786 9.59174 37.5217 9.76716 37.5217 9.9826C37.5217 10.2904 37.634 10.5227 37.8587 10.6797C38.0834 10.8366 38.3696 10.9151 38.7174 10.9151ZM43.9678 14.6591V4.90909H45.6112V6.08168H45.7082C45.7944 5.90933 45.9159 5.72621 46.0729 5.53232C46.2298 5.33535 46.4422 5.16761 46.71 5.02912C46.9777 4.88755 47.3193 4.81676 47.7348 4.81676C48.2826 4.81676 48.7766 4.95679 49.2167 5.23686C49.6599 5.51385 50.0107 5.92472 50.2693 6.46946C50.5309 7.01113 50.6617 7.6759 50.6617 8.46378C50.6617 9.24242 50.5339 9.90412 50.2785 10.4489C50.023 10.9936 49.6753 11.4091 49.2352 11.6953C48.7951 11.9815 48.2965 12.1246 47.7394 12.1246C47.3332 12.1246 46.9962 12.0569 46.7284 11.9215C46.4607 11.7861 46.2452 11.623 46.0821 11.4322C45.9221 11.2383 45.7974 11.0552 45.7082 10.8828H45.6389V14.6591H43.9678ZM45.6066 8.45455C45.6066 8.91312 45.6712 9.31475 45.8005 9.65945C45.9328 10.0041 46.1221 10.2734 46.3683 10.4673C46.6176 10.6581 46.9192 10.7536 47.2732 10.7536C47.6425 10.7536 47.9518 10.6551 48.2011 10.4581C48.4504 10.258 48.6381 9.98568 48.7643 9.64098C48.8935 9.29321 48.9582 8.89773 48.9582 8.45455C48.9582 8.01444 48.8951 7.62358 48.7689 7.28196C48.6427 6.94034 48.455 6.67259 48.2057 6.47869C47.9564 6.2848 47.6456 6.18785 47.2732 6.18785C46.9162 6.18785 46.613 6.28172 46.3637 6.46946C46.1144 6.6572 45.9252 6.92034 45.7959 7.25888C45.6697 7.59742 45.6066 7.99598 45.6066 8.45455ZM57.9572 6.78338L56.4337 6.94957C56.3906 6.79569 56.3152 6.65104 56.2075 6.51562C56.1029 6.38021 55.9613 6.27095 55.7828 6.18785C55.6043 6.10476 55.3858 6.06321 55.1273 6.06321C54.7795 6.06321 54.4871 6.13861 54.2501 6.28942C54.0162 6.44022 53.9008 6.63565 53.9039 6.87571C53.9008 7.08191 53.9762 7.24964 54.1301 7.37891C54.2871 7.50817 54.5456 7.61435 54.9057 7.69744L56.1152 7.95597C56.7861 8.10062 57.2847 8.3299 57.6109 8.64382C57.9402 8.95774 58.1064 9.36861 58.1095 9.87642C58.1064 10.3227 57.9756 10.7166 57.7171 11.0582C57.4617 11.3968 57.1062 11.6615 56.6507 11.8523C56.1952 12.0431 55.672 12.1385 55.0811 12.1385C54.2132 12.1385 53.5146 11.9569 52.9852 11.5938C52.4559 11.2275 52.1404 10.7182 52.0388 10.0657L53.6685 9.90874C53.7423 10.2288 53.8993 10.4704 54.1393 10.6335C54.3794 10.7966 54.6918 10.8782 55.0765 10.8782C55.4735 10.8782 55.792 10.7966 56.0321 10.6335C56.2752 10.4704 56.3968 10.2688 56.3968 10.0288C56.3968 9.82564 56.3183 9.65791 56.1614 9.52557C56.0075 9.39323 55.7674 9.29167 55.4412 9.22088L54.2317 8.96697C53.5515 8.8254 53.0483 8.58688 52.7221 8.25142C52.3959 7.91288 52.2343 7.48509 52.2374 6.96804C52.2343 6.53101 52.3528 6.15246 52.5928 5.83239C52.836 5.50923 53.173 5.25994 53.6038 5.08452C54.0378 4.90601 54.5379 4.81676 55.1042 4.81676C55.9352 4.81676 56.5892 4.99373 57.0662 5.34766C57.5463 5.70159 57.8433 6.18016 57.9572 6.78338ZM61.4187 7.84517V12H59.7475V2.54545H61.3818V6.11399H61.4649C61.6311 5.7139 61.888 5.39844 62.2358 5.16761C62.5867 4.93371 63.0329 4.81676 63.5746 4.81676C64.067 4.81676 64.4963 4.91986 64.8626 5.12606C65.2288 5.33227 65.512 5.63388 65.712 6.03089C65.9151 6.42791 66.0167 6.91264 66.0167 7.48508V12H64.3455V7.74361C64.3455 7.26657 64.2224 6.89571 63.9762 6.63104C63.7331 6.36328 63.3915 6.2294 62.9514 6.2294C62.6559 6.2294 62.3912 6.29403 62.1573 6.4233C61.9265 6.54948 61.7449 6.7326 61.6126 6.97266C61.4833 7.21271 61.4187 7.50355 61.4187 7.84517ZM71.0732 12.1385C70.3808 12.1385 69.7806 11.9862 69.2728 11.6815C68.765 11.3768 68.3711 10.9505 68.091 10.4027C67.814 9.85488 67.6755 9.21473 67.6755 8.48224C67.6755 7.74976 67.814 7.10807 68.091 6.55717C68.3711 6.00627 68.765 5.57848 69.2728 5.27379C69.7806 4.96911 70.3808 4.81676 71.0732 4.81676C71.7657 4.81676 72.3658 4.96911 72.8737 5.27379C73.3815 5.57848 73.7739 6.00627 74.0509 6.55717C74.3309 7.10807 74.471 7.74976 74.471 8.48224C74.471 9.21473 74.3309 9.85488 74.0509 10.4027C73.7739 10.9505 73.3815 11.3768 72.8737 11.6815C72.3658 11.9862 71.7657 12.1385 71.0732 12.1385ZM71.0825 10.7997C71.4579 10.7997 71.7719 10.6966 72.0242 10.4904C72.2766 10.2811 72.4643 10.0011 72.5874 9.65021C72.7136 9.29936 72.7767 8.9085 72.7767 8.47763C72.7767 8.04368 72.7136 7.65128 72.5874 7.30043C72.4643 6.9465 72.2766 6.66489 72.0242 6.45561C71.7719 6.24633 71.4579 6.14169 71.0825 6.14169C70.6978 6.14169 70.3777 6.24633 70.1222 6.45561C69.8699 6.66489 69.6806 6.9465 69.5544 7.30043C69.4313 7.65128 69.3697 8.04368 69.3697 8.47763C69.3697 8.9085 69.4313 9.29936 69.5544 9.65021C69.6806 10.0011 69.8699 10.2811 70.1222 10.4904C70.3777 10.6966 70.6978 10.7997 71.0825 10.7997ZM79.6902 4.90909V6.2017H75.6139V4.90909H79.6902ZM76.6202 3.21023H78.2914V9.86719C78.2914 10.0919 78.3253 10.2642 78.393 10.3842C78.4638 10.5012 78.5561 10.5812 78.67 10.6243C78.7838 10.6674 78.91 10.6889 79.0485 10.6889C79.1532 10.6889 79.2486 10.6812 79.3347 10.6658C79.424 10.6504 79.4917 10.6366 79.5379 10.6243L79.8195 11.9308C79.7302 11.9615 79.6025 11.9954 79.4363 12.0323C79.2732 12.0692 79.0731 12.0908 78.8362 12.0969C78.4176 12.1093 78.0406 12.0462 77.7051 11.9077C77.3697 11.7661 77.1034 11.5476 76.9065 11.2521C76.7126 10.9567 76.6172 10.5874 76.6202 10.1442V3.21023Z" fill="white" fill-opacity="0.6"/>
<path d="M160.25 13.3334C159.883 13.3334 159.57 13.2029 159.308 12.9417C159.047 12.6806 158.917 12.3667 158.917 12.0001C158.917 11.6334 159.047 11.3195 159.308 11.0584C159.57 10.7973 159.883 10.6667 160.25 10.6667C160.617 10.6667 160.931 10.7973 161.192 11.0584C161.453 11.3195 161.583 11.6334 161.583 12.0001C161.583 12.3667 161.453 12.6806 161.192 12.9417C160.931 13.2029 160.617 13.3334 160.25 13.3334ZM160.25 9.33342C159.883 9.33342 159.57 9.20286 159.308 8.94175C159.047 8.68064 158.917 8.36675 158.917 8.00008C158.917 7.63341 159.047 7.31953 159.308 7.05841C159.57 6.7973 159.883 6.66675 160.25 6.66675C160.617 6.66675 160.931 6.7973 161.192 7.05841C161.453 7.31953 161.583 7.63341 161.583 8.00008C161.583 8.36675 161.453 8.68064 161.192 8.94175C160.931 9.20286 160.617 9.33342 160.25 9.33342ZM160.25 5.33341C159.883 5.33341 159.57 5.20286 159.308 4.94175C159.047 4.68064 158.917 4.36675 158.917 4.00008C158.917 3.63341 159.047 3.31953 159.308 3.05841C159.57 2.7973 159.883 2.66675 160.25 2.66675C160.617 2.66675 160.931 2.7973 161.192 3.05841C161.453 3.31953 161.583 3.63341 161.583 4.00008C161.583 4.36675 161.453 4.68064 161.192 4.94175C160.931 5.20286 160.617 5.33341 160.25 5.33341Z" fill="white" fill-opacity="0.6"/>
<rect x="0.5" y="28.5" width="167.25" height="143" rx="7.5" stroke="white" stroke-opacity="0.1"/>
<path d="M12.9219 46H8.71777V45.2383L10.3682 43.5977C10.6383 43.3307 10.8581 43.0996 11.0273 42.9043C11.1966 42.709 11.3285 42.5316 11.4229 42.3721C11.5173 42.2093 11.5807 42.0563 11.6133 41.9131C11.6458 41.7699 11.6621 41.6152 11.6621 41.4492C11.6621 41.293 11.641 41.1449 11.5986 41.0049C11.5563 40.8617 11.4912 40.7363 11.4033 40.6289C11.3154 40.5215 11.2015 40.4368 11.0615 40.375C10.9215 40.3132 10.7539 40.2822 10.5586 40.2822C10.2884 40.2822 10.0426 40.3424 9.82129 40.4629C9.59993 40.5833 9.39648 40.7396 9.21094 40.9316L8.74219 40.3701C8.98307 40.1162 9.25977 39.9128 9.57227 39.7598C9.88802 39.6068 10.2542 39.5303 10.6709 39.5303C10.9541 39.5303 11.2113 39.5726 11.4424 39.6572C11.6768 39.7419 11.8786 39.8639 12.0479 40.0234C12.2171 40.1829 12.3473 40.3783 12.4385 40.6094C12.5329 40.8405 12.5801 41.1009 12.5801 41.3906C12.5801 41.6348 12.5475 41.861 12.4824 42.0693C12.4173 42.2777 12.318 42.486 12.1846 42.6943C12.0544 42.8994 11.8883 43.1126 11.6865 43.334C11.488 43.5553 11.252 43.7979 10.9785 44.0615L9.82129 45.1895H12.9219V46ZM18.5664 42.8115C18.5664 43.2998 18.5176 43.7458 18.4199 44.1494C18.3223 44.5498 18.1742 44.8949 17.9756 45.1846C17.777 45.471 17.5296 45.694 17.2334 45.8535C16.9404 46.0098 16.5954 46.0879 16.1982 46.0879C15.8564 46.0879 15.5456 46.0244 15.2656 45.8975C14.9857 45.7673 14.7464 45.5687 14.5479 45.3018C14.3493 45.0348 14.1963 44.6947 14.0889 44.2812C13.9814 43.8678 13.9277 43.3779 13.9277 42.8115C13.9277 42.3232 13.9766 41.8773 14.0742 41.4736C14.1751 41.07 14.3232 40.7249 14.5186 40.4385C14.7171 40.1488 14.9645 39.9258 15.2607 39.7695C15.557 39.61 15.902 39.5303 16.2959 39.5303C16.6377 39.5303 16.9486 39.5954 17.2285 39.7256C17.5085 39.8525 17.7477 40.0511 17.9463 40.3213C18.1449 40.5882 18.2979 40.9284 18.4053 41.3418C18.5127 41.7552 18.5664 42.2451 18.5664 42.8115ZM17.707 42.8408C17.707 42.7301 17.7021 42.6211 17.6924 42.5137C17.6859 42.403 17.6777 42.2956 17.668 42.1914L14.9678 44.1982C15.0166 44.3675 15.0785 44.5238 15.1533 44.667C15.2282 44.8102 15.3177 44.9339 15.4219 45.0381C15.5293 45.139 15.6497 45.2188 15.7832 45.2773C15.9199 45.3327 16.0745 45.3604 16.2471 45.3604C16.4684 45.3604 16.6686 45.3066 16.8477 45.1992C17.0299 45.0918 17.1846 44.9323 17.3115 44.7207C17.4385 44.5091 17.5361 44.2471 17.6045 43.9346C17.6729 43.6188 17.707 43.2542 17.707 42.8408ZM14.7871 42.7822C14.7871 42.8831 14.7871 42.984 14.7871 43.085C14.7904 43.1859 14.7969 43.2835 14.8066 43.3779L17.5068 41.3809C17.458 41.2148 17.3962 41.0635 17.3213 40.9268C17.2464 40.79 17.1569 40.6729 17.0527 40.5752C16.9486 40.4743 16.8298 40.3962 16.6963 40.3408C16.5628 40.2855 16.4131 40.2578 16.2471 40.2578C16.0257 40.2578 15.8239 40.3115 15.6416 40.4189C15.4626 40.5264 15.3096 40.6875 15.1826 40.9023C15.0557 41.1139 14.958 41.3776 14.8896 41.6934C14.8213 42.0059 14.7871 42.3688 14.7871 42.7822ZM23.918 46H19.7139V45.2383L21.3643 43.5977C21.6344 43.3307 21.8542 43.0996 22.0234 42.9043C22.1927 42.709 22.3245 42.5316 22.4189 42.3721C22.5133 42.2093 22.5768 42.0563 22.6094 41.9131C22.6419 41.7699 22.6582 41.6152 22.6582 41.4492C22.6582 41.293 22.637 41.1449 22.5947 41.0049C22.5524 40.8617 22.4873 40.7363 22.3994 40.6289C22.3115 40.5215 22.1976 40.4368 22.0576 40.375C21.9176 40.3132 21.75 40.2822 21.5547 40.2822C21.2845 40.2822 21.0387 40.3424 20.8174 40.4629C20.596 40.5833 20.3926 40.7396 20.207 40.9316L19.7383 40.3701C19.9792 40.1162 20.2559 39.9128 20.5684 39.7598C20.8841 39.6068 21.2503 39.5303 21.667 39.5303C21.9502 39.5303 22.2074 39.5726 22.4385 39.6572C22.6729 39.7419 22.8747 39.8639 23.0439 40.0234C23.2132 40.1829 23.3434 40.3783 23.4346 40.6094C23.529 40.8405 23.5762 41.1009 23.5762 41.3906C23.5762 41.6348 23.5436 41.861 23.4785 42.0693C23.4134 42.2777 23.3141 42.486 23.1807 42.6943C23.0505 42.8994 22.8844 43.1126 22.6826 43.334C22.484 43.5553 22.248 43.7979 21.9746 44.0615L20.8174 45.1895H23.918V46ZM29.2549 43.959C29.2549 44.2747 29.1865 44.5628 29.0498 44.8232C28.9131 45.0837 28.7243 45.3083 28.4834 45.4971C28.2458 45.6826 27.9642 45.8275 27.6387 45.9316C27.3132 46.0358 26.9616 46.0879 26.584 46.0879C26.4896 46.0879 26.387 46.0846 26.2764 46.0781C26.1689 46.0749 26.0615 46.0684 25.9541 46.0586C25.8467 46.0521 25.7409 46.0439 25.6367 46.0342C25.5358 46.0244 25.4447 46.013 25.3633 46V45.2285C25.5391 45.2708 25.7393 45.3018 25.9639 45.3213C26.1917 45.3408 26.4212 45.3506 26.6523 45.3506C26.9128 45.3506 27.1471 45.3197 27.3555 45.2578C27.5638 45.196 27.7412 45.1081 27.8877 44.9941C28.0342 44.877 28.1465 44.737 28.2246 44.5742C28.3027 44.4082 28.3418 44.2227 28.3418 44.0176C28.3418 43.6204 28.1986 43.3324 27.9121 43.1533C27.6289 42.971 27.2204 42.8799 26.6865 42.8799H25.4756V39.6182H28.9131V40.3604H26.2764V42.1523H26.833C27.139 42.1523 27.4368 42.18 27.7266 42.2354C28.0163 42.2907 28.2734 42.3883 28.498 42.5283C28.7259 42.665 28.9082 42.8506 29.0449 43.085C29.1849 43.3161 29.2549 43.6074 29.2549 43.959ZM34.2012 43.7393H31.2812V42.9385H34.2012V43.7393ZM40.5586 42.8115C40.5586 43.2998 40.5098 43.7458 40.4121 44.1494C40.3145 44.5498 40.1663 44.8949 39.9678 45.1846C39.7692 45.471 39.5218 45.694 39.2256 45.8535C38.9326 46.0098 38.5876 46.0879 38.1904 46.0879C37.8486 46.0879 37.5378 46.0244 37.2578 45.8975C36.9779 45.7673 36.7386 45.5687 36.54 45.3018C36.3415 45.0348 36.1885 44.6947 36.0811 44.2812C35.9736 43.8678 35.9199 43.3779 35.9199 42.8115C35.9199 42.3232 35.9688 41.8773 36.0664 41.4736C36.1673 41.07 36.3154 40.7249 36.5107 40.4385C36.7093 40.1488 36.9567 39.9258 37.2529 39.7695C37.5492 39.61 37.8942 39.5303 38.2881 39.5303C38.6299 39.5303 38.9408 39.5954 39.2207 39.7256C39.5007 39.8525 39.7399 40.0511 39.9385 40.3213C40.137 40.5882 40.29 40.9284 40.3975 41.3418C40.5049 41.7552 40.5586 42.2451 40.5586 42.8115ZM39.6992 42.8408C39.6992 42.7301 39.6943 42.6211 39.6846 42.5137C39.6781 42.403 39.6699 42.2956 39.6602 42.1914L36.96 44.1982C37.0088 44.3675 37.0706 44.5238 37.1455 44.667C37.2204 44.8102 37.3099 44.9339 37.4141 45.0381C37.5215 45.139 37.6419 45.2188 37.7754 45.2773C37.9121 45.3327 38.0667 45.3604 38.2393 45.3604C38.4606 45.3604 38.6608 45.3066 38.8398 45.1992C39.0221 45.0918 39.1768 44.9323 39.3037 44.7207C39.4307 44.5091 39.5283 44.2471 39.5967 43.9346C39.665 43.6188 39.6992 43.2542 39.6992 42.8408ZM36.7793 42.7822C36.7793 42.8831 36.7793 42.984 36.7793 43.085C36.7826 43.1859 36.7891 43.2835 36.7988 43.3779L39.499 41.3809C39.4502 41.2148 39.3883 41.0635 39.3135 40.9268C39.2386 40.79 39.1491 40.6729 39.0449 40.5752C38.9408 40.4743 38.8219 40.3962 38.6885 40.3408C38.555 40.2855 38.4053 40.2578 38.2393 40.2578C38.0179 40.2578 37.8161 40.3115 37.6338 40.4189C37.4548 40.5264 37.3018 40.6875 37.1748 40.9023C37.0479 41.1139 36.9502 41.3776 36.8818 41.6934C36.8135 42.0059 36.7793 42.3688 36.7793 42.7822ZM46.2275 44.5889H45.1387V46H44.2695V44.5889H41.1982V43.8418L43.918 39.6182H45.1387V43.8418H46.2275V44.5889ZM44.2695 40.4385L42.0479 43.8418H44.2695V40.4385ZM50.6953 43.7393H47.7754V42.9385H50.6953V43.7393ZM56.8525 46H52.8438V45.209H54.4844V40.5508L52.9561 41.3809L52.6436 40.6582L54.6748 39.5889H55.4268V45.209H56.8525V46ZM62.4824 43.9785C62.4824 44.2715 62.4287 44.5465 62.3213 44.8037C62.2171 45.0609 62.0674 45.2855 61.8721 45.4775C61.6768 45.6663 61.4408 45.8161 61.1641 45.9268C60.8906 46.0342 60.5863 46.0879 60.251 46.0879C59.8994 46.0879 59.5885 46.0326 59.3184 45.9219C59.0482 45.8079 58.8219 45.6354 58.6396 45.4043C58.4574 45.1699 58.319 44.8753 58.2246 44.5205C58.1302 44.1657 58.083 43.7458 58.083 43.2607C58.083 42.9352 58.1042 42.6195 58.1465 42.3135C58.1888 42.0075 58.2588 41.7194 58.3564 41.4492C58.4541 41.179 58.5843 40.9316 58.7471 40.707C58.9098 40.4824 59.1117 40.2904 59.3525 40.1309C59.5967 39.9681 59.8831 39.8428 60.2119 39.7549C60.5407 39.6637 60.9215 39.6182 61.3545 39.6182H61.9844V40.3604H61.3008C60.9199 40.3604 60.5895 40.4059 60.3096 40.4971C60.0296 40.5882 59.7952 40.7168 59.6064 40.8828C59.4176 41.0488 59.2728 41.249 59.1719 41.4834C59.071 41.7178 59.0075 41.9798 58.9814 42.2695L58.9619 42.4697C59.167 42.3493 59.403 42.2533 59.6699 42.1816C59.9401 42.1068 60.2314 42.0693 60.5439 42.0693C60.8662 42.0693 61.1478 42.1165 61.3887 42.2109C61.6328 42.3053 61.8346 42.4372 61.9941 42.6064C62.1569 42.7725 62.279 42.9727 62.3604 43.207C62.4417 43.4414 62.4824 43.6986 62.4824 43.9785ZM61.5938 44.0322C61.5938 43.8369 61.5693 43.6611 61.5205 43.5049C61.4749 43.3454 61.4017 43.2119 61.3008 43.1045C61.1999 42.9938 61.0713 42.9092 60.915 42.8506C60.762 42.7887 60.5781 42.7578 60.3633 42.7578C60.2396 42.7578 60.1143 42.7692 59.9873 42.792C59.8604 42.8148 59.735 42.8473 59.6113 42.8896C59.4909 42.9287 59.3753 42.9743 59.2646 43.0264C59.154 43.0785 59.0531 43.1338 58.9619 43.1924C58.9619 43.6123 58.9912 43.9639 59.0498 44.2471C59.1084 44.527 59.1947 44.7516 59.3086 44.9209C59.4258 45.0902 59.569 45.2106 59.7383 45.2822C59.9076 45.3538 60.1029 45.3896 60.3242 45.3896C60.5098 45.3896 60.679 45.3604 60.832 45.3018C60.9883 45.2399 61.1217 45.1504 61.2324 45.0332C61.3464 44.916 61.4342 44.7744 61.4961 44.6084C61.5612 44.4391 61.5938 44.2471 61.5938 44.0322Z" fill="white" fill-opacity="0.4"/>
<path d="M121.318 42.8115C121.318 43.2998 121.27 43.7458 121.172 44.1494C121.074 44.5498 120.926 44.8949 120.728 45.1846C120.529 45.471 120.282 45.694 119.985 45.8535C119.692 46.0098 119.347 46.0879 118.95 46.0879C118.608 46.0879 118.298 46.0244 118.018 45.8975C117.738 45.7673 117.498 45.5687 117.3 45.3018C117.101 45.0348 116.948 44.6947 116.841 44.2812C116.733 43.8678 116.68 43.3779 116.68 42.8115C116.68 42.3232 116.729 41.8773 116.826 41.4736C116.927 41.07 117.075 40.7249 117.271 40.4385C117.469 40.1488 117.716 39.9258 118.013 39.7695C118.309 39.61 118.654 39.5303 119.048 39.5303C119.39 39.5303 119.701 39.5954 119.98 39.7256C120.26 39.8525 120.5 40.0511 120.698 40.3213C120.897 40.5882 121.05 40.9284 121.157 41.3418C121.265 41.7552 121.318 42.2451 121.318 42.8115ZM120.459 42.8408C120.459 42.7301 120.454 42.6211 120.444 42.5137C120.438 42.403 120.43 42.2956 120.42 42.1914L117.72 44.1982C117.769 44.3675 117.83 44.5238 117.905 44.667C117.98 44.8102 118.07 44.9339 118.174 45.0381C118.281 45.139 118.402 45.2188 118.535 45.2773C118.672 45.3327 118.826 45.3604 118.999 45.3604C119.22 45.3604 119.421 45.3066 119.6 45.1992C119.782 45.0918 119.937 44.9323 120.063 44.7207C120.19 44.5091 120.288 44.2471 120.356 43.9346C120.425 43.6188 120.459 43.2542 120.459 42.8408ZM117.539 42.7822C117.539 42.8831 117.539 42.984 117.539 43.085C117.542 43.1859 117.549 43.2835 117.559 43.3779L120.259 41.3809C120.21 41.2148 120.148 41.0635 120.073 40.9268C119.998 40.79 119.909 40.6729 119.805 40.5752C119.701 40.4743 119.582 40.3962 119.448 40.3408C119.315 40.2855 119.165 40.2578 118.999 40.2578C118.778 40.2578 118.576 40.3115 118.394 40.4189C118.215 40.5264 118.062 40.6875 117.935 40.9023C117.808 41.1139 117.71 41.3776 117.642 41.6934C117.573 42.0059 117.539 42.3688 117.539 42.7822ZM126.67 46H122.466V45.2383L124.116 43.5977C124.386 43.3307 124.606 43.0996 124.775 42.9043C124.945 42.709 125.076 42.5316 125.171 42.3721C125.265 42.2093 125.329 42.0563 125.361 41.9131C125.394 41.7699 125.41 41.6152 125.41 41.4492C125.41 41.293 125.389 41.1449 125.347 41.0049C125.304 40.8617 125.239 40.7363 125.151 40.6289C125.063 40.5215 124.95 40.4368 124.81 40.375C124.67 40.3132 124.502 40.2822 124.307 40.2822C124.036 40.2822 123.791 40.3424 123.569 40.4629C123.348 40.5833 123.145 40.7396 122.959 40.9316L122.49 40.3701C122.731 40.1162 123.008 39.9128 123.32 39.7598C123.636 39.6068 124.002 39.5303 124.419 39.5303C124.702 39.5303 124.959 39.5726 125.19 39.6572C125.425 39.7419 125.627 39.8639 125.796 40.0234C125.965 40.1829 126.095 40.3783 126.187 40.6094C126.281 40.8405 126.328 41.1009 126.328 41.3906C126.328 41.6348 126.296 41.861 126.23 42.0693C126.165 42.2777 126.066 42.486 125.933 42.6943C125.802 42.8994 125.636 43.1126 125.435 43.334C125.236 43.5553 125 43.7979 124.727 44.0615L123.569 45.1895H126.67V46ZM129.995 41.0098C130.096 41.0098 130.192 41.0309 130.283 41.0732C130.374 41.1123 130.454 41.166 130.522 41.2344C130.591 41.3027 130.645 41.3825 130.684 41.4736C130.726 41.5648 130.747 41.6608 130.747 41.7617C130.747 41.8659 130.726 41.9635 130.684 42.0547C130.645 42.1426 130.591 42.2207 130.522 42.2891C130.454 42.3574 130.374 42.4111 130.283 42.4502C130.192 42.4893 130.096 42.5088 129.995 42.5088C129.891 42.5088 129.793 42.4893 129.702 42.4502C129.614 42.4111 129.536 42.3574 129.468 42.2891C129.399 42.2207 129.346 42.1426 129.307 42.0547C129.268 41.9635 129.248 41.8659 129.248 41.7617C129.248 41.6608 129.268 41.5648 129.307 41.4736C129.346 41.3825 129.399 41.3027 129.468 41.2344C129.536 41.166 129.614 41.1123 129.702 41.0732C129.793 41.0309 129.891 41.0098 129.995 41.0098ZM129.995 44.5889C130.096 44.5889 130.192 44.61 130.283 44.6523C130.374 44.6914 130.454 44.7451 130.522 44.8135C130.591 44.8818 130.645 44.9616 130.684 45.0527C130.726 45.1439 130.747 45.2399 130.747 45.3408C130.747 45.445 130.726 45.5426 130.684 45.6338C130.645 45.7217 130.591 45.7998 130.522 45.8682C130.454 45.9365 130.374 45.9902 130.283 46.0293C130.192 46.0684 130.096 46.0879 129.995 46.0879C129.891 46.0879 129.793 46.0684 129.702 46.0293C129.614 45.9902 129.536 45.9365 129.468 45.8682C129.399 45.7998 129.346 45.7217 129.307 45.6338C129.268 45.5426 129.248 45.445 129.248 45.3408C129.248 45.2399 129.268 45.1439 129.307 45.0527C129.346 44.9616 129.399 44.8818 129.468 44.8135C129.536 44.7451 129.614 44.6914 129.702 44.6523C129.793 44.61 129.891 44.5889 129.995 44.5889ZM137.812 42.8115C137.812 43.2998 137.764 43.7458 137.666 44.1494C137.568 44.5498 137.42 44.8949 137.222 45.1846C137.023 45.471 136.776 45.694 136.479 45.8535C136.187 46.0098 135.841 46.0879 135.444 46.0879C135.103 46.0879 134.792 46.0244 134.512 45.8975C134.232 45.7673 133.993 45.5687 133.794 45.3018C133.595 45.0348 133.442 44.6947 133.335 44.2812C133.228 43.8678 133.174 43.3779 133.174 42.8115C133.174 42.3232 133.223 41.8773 133.32 41.4736C133.421 41.07 133.569 40.7249 133.765 40.4385C133.963 40.1488 134.211 39.9258 134.507 39.7695C134.803 39.61 135.148 39.5303 135.542 39.5303C135.884 39.5303 136.195 39.5954 136.475 39.7256C136.755 39.8525 136.994 40.0511 137.192 40.3213C137.391 40.5882 137.544 40.9284 137.651 41.3418C137.759 41.7552 137.812 42.2451 137.812 42.8115ZM136.953 42.8408C136.953 42.7301 136.948 42.6211 136.938 42.5137C136.932 42.403 136.924 42.2956 136.914 42.1914L134.214 44.1982C134.263 44.3675 134.325 44.5238 134.399 44.667C134.474 44.8102 134.564 44.9339 134.668 45.0381C134.775 45.139 134.896 45.2188 135.029 45.2773C135.166 45.3327 135.321 45.3604 135.493 45.3604C135.715 45.3604 135.915 45.3066 136.094 45.1992C136.276 45.0918 136.431 44.9323 136.558 44.7207C136.685 44.5091 136.782 44.2471 136.851 43.9346C136.919 43.6188 136.953 43.2542 136.953 42.8408ZM134.033 42.7822C134.033 42.8831 134.033 42.984 134.033 43.085C134.036 43.1859 134.043 43.2835 134.053 43.3779L136.753 41.3809C136.704 41.2148 136.642 41.0635 136.567 40.9268C136.493 40.79 136.403 40.6729 136.299 40.5752C136.195 40.4743 136.076 40.3962 135.942 40.3408C135.809 40.2855 135.659 40.2578 135.493 40.2578C135.272 40.2578 135.07 40.3115 134.888 40.4189C134.709 40.5264 134.556 40.6875 134.429 40.9023C134.302 41.1139 134.204 41.3776 134.136 41.6934C134.067 42.0059 134.033 42.3688 134.033 42.7822ZM143.311 42.8115C143.311 43.2998 143.262 43.7458 143.164 44.1494C143.066 44.5498 142.918 44.8949 142.72 45.1846C142.521 45.471 142.274 45.694 141.978 45.8535C141.685 46.0098 141.34 46.0879 140.942 46.0879C140.601 46.0879 140.29 46.0244 140.01 45.8975C139.73 45.7673 139.491 45.5687 139.292 45.3018C139.093 45.0348 138.94 44.6947 138.833 44.2812C138.726 43.8678 138.672 43.3779 138.672 42.8115C138.672 42.3232 138.721 41.8773 138.818 41.4736C138.919 41.07 139.067 40.7249 139.263 40.4385C139.461 40.1488 139.709 39.9258 140.005 39.7695C140.301 39.61 140.646 39.5303 141.04 39.5303C141.382 39.5303 141.693 39.5954 141.973 39.7256C142.253 39.8525 142.492 40.0511 142.69 40.3213C142.889 40.5882 143.042 40.9284 143.149 41.3418C143.257 41.7552 143.311 42.2451 143.311 42.8115ZM142.451 42.8408C142.451 42.7301 142.446 42.6211 142.437 42.5137C142.43 42.403 142.422 42.2956 142.412 42.1914L139.712 44.1982C139.761 44.3675 139.823 44.5238 139.897 44.667C139.972 44.8102 140.062 44.9339 140.166 45.0381C140.273 45.139 140.394 45.2188 140.527 45.2773C140.664 45.3327 140.819 45.3604 140.991 45.3604C141.213 45.3604 141.413 45.3066 141.592 45.1992C141.774 45.0918 141.929 44.9323 142.056 44.7207C142.183 44.5091 142.28 44.2471 142.349 43.9346C142.417 43.6188 142.451 43.2542 142.451 42.8408ZM139.531 42.7822C139.531 42.8831 139.531 42.984 139.531 43.085C139.535 43.1859 139.541 43.2835 139.551 43.3779L142.251 41.3809C142.202 41.2148 142.14 41.0635 142.065 40.9268C141.991 40.79 141.901 40.6729 141.797 40.5752C141.693 40.4743 141.574 40.3962 141.44 40.3408C141.307 40.2855 141.157 40.2578 140.991 40.2578C140.77 40.2578 140.568 40.3115 140.386 40.4189C140.207 40.5264 140.054 40.6875 139.927 40.9023C139.8 41.1139 139.702 41.3776 139.634 41.6934C139.565 42.0059 139.531 42.3688 139.531 42.7822ZM146.489 41.0098C146.59 41.0098 146.686 41.0309 146.777 41.0732C146.868 41.1123 146.948 41.166 147.017 41.2344C147.085 41.3027 147.139 41.3825 147.178 41.4736C147.22 41.5648 147.241 41.6608 147.241 41.7617C147.241 41.8659 147.22 41.9635 147.178 42.0547C147.139 42.1426 147.085 42.2207 147.017 42.2891C146.948 42.3574 146.868 42.4111 146.777 42.4502C146.686 42.4893 146.59 42.5088 146.489 42.5088C146.385 42.5088 146.287 42.4893 146.196 42.4502C146.108 42.4111 146.03 42.3574 145.962 42.2891C145.894 42.2207 145.84 42.1426 145.801 42.0547C145.762 41.9635 145.742 41.8659 145.742 41.7617C145.742 41.6608 145.762 41.5648 145.801 41.4736C145.84 41.3825 145.894 41.3027 145.962 41.2344C146.03 41.166 146.108 41.1123 146.196 41.0732C146.287 41.0309 146.385 41.0098 146.489 41.0098ZM146.489 44.5889C146.59 44.5889 146.686 44.61 146.777 44.6523C146.868 44.6914 146.948 44.7451 147.017 44.8135C147.085 44.8818 147.139 44.9616 147.178 45.0527C147.22 45.1439 147.241 45.2399 147.241 45.3408C147.241 45.445 147.22 45.5426 147.178 45.6338C147.139 45.7217 147.085 45.7998 147.017 45.8682C146.948 45.9365 146.868 45.9902 146.777 46.0293C146.686 46.0684 146.59 46.0879 146.489 46.0879C146.385 46.0879 146.287 46.0684 146.196 46.0293C146.108 45.9902 146.03 45.9365 145.962 45.8682C145.894 45.7998 145.84 45.7217 145.801 45.6338C145.762 45.5426 145.742 45.445 145.742 45.3408C145.742 45.2399 145.762 45.1439 145.801 45.0527C145.84 44.9616 145.894 44.8818 145.962 44.8135C146.03 44.7451 146.108 44.6914 146.196 44.6523C146.287 44.61 146.385 44.5889 146.489 44.5889ZM154.038 44.0615C154.038 44.3415 153.981 44.6051 153.867 44.8525C153.753 45.0967 153.582 45.3115 153.354 45.4971C153.127 45.6794 152.84 45.8242 152.495 45.9316C152.15 46.0358 151.748 46.0879 151.289 46.0879C151.035 46.0879 150.807 46.0798 150.605 46.0635C150.404 46.0472 150.215 46.026 150.039 46V45.2383C150.241 45.2741 150.454 45.3018 150.679 45.3213C150.903 45.3408 151.133 45.3506 151.367 45.3506C151.686 45.3506 151.958 45.3229 152.183 45.2676C152.41 45.209 152.596 45.126 152.739 45.0186C152.882 44.9111 152.987 44.7809 153.052 44.6279C153.117 44.4749 153.149 44.3024 153.149 44.1104C153.149 43.9346 153.11 43.7816 153.032 43.6514C152.954 43.5212 152.843 43.4121 152.7 43.3242C152.56 43.2363 152.391 43.1712 152.192 43.1289C151.997 43.0833 151.782 43.0605 151.548 43.0605H150.82V42.3623H151.558C151.75 42.3623 151.924 42.3379 152.08 42.2891C152.24 42.237 152.375 42.1637 152.485 42.0693C152.599 41.9749 152.686 41.8594 152.744 41.7227C152.806 41.5827 152.837 41.4248 152.837 41.249C152.837 40.9072 152.733 40.6582 152.524 40.502C152.316 40.3457 152.01 40.2676 151.606 40.2676C151.392 40.2676 151.17 40.2887 150.942 40.3311C150.715 40.3734 150.47 40.4368 150.21 40.5215V39.7793C150.321 39.7402 150.438 39.7061 150.562 39.6768C150.688 39.6442 150.814 39.6182 150.938 39.5986C151.064 39.5758 151.19 39.5596 151.313 39.5498C151.437 39.5368 151.556 39.5303 151.67 39.5303C152.008 39.5303 152.306 39.5677 152.563 39.6426C152.821 39.7142 153.035 39.8184 153.208 39.9551C153.381 40.0918 153.511 40.2578 153.599 40.4531C153.687 40.6484 153.73 40.8682 153.73 41.1123C153.73 41.4769 153.636 41.7829 153.447 42.0303C153.262 42.2777 153.006 42.4746 152.681 42.6211C152.847 42.6471 153.009 42.6992 153.169 42.7773C153.332 42.8555 153.477 42.9564 153.604 43.0801C153.734 43.2005 153.838 43.3438 153.916 43.5098C153.997 43.6758 154.038 43.8597 154.038 44.0615ZM159.624 42.4502C159.624 43.0719 159.549 43.6074 159.399 44.0566C159.25 44.5026 159.028 44.8704 158.735 45.1602C158.442 45.4466 158.079 45.6582 157.646 45.7949C157.214 45.9316 156.714 46 156.147 46H155.615V45.2578H156.206C156.626 45.2578 156.989 45.2155 157.295 45.1309C157.601 45.0462 157.855 44.9225 158.057 44.7598C158.262 44.5938 158.418 44.3936 158.525 44.1592C158.633 43.9215 158.7 43.6514 158.726 43.3486L158.745 43.1484C158.54 43.2689 158.304 43.3665 158.037 43.4414C157.77 43.513 157.48 43.5488 157.168 43.5488C156.846 43.5488 156.562 43.5016 156.318 43.4072C156.074 43.3128 155.871 43.181 155.708 43.0117C155.549 42.8424 155.428 42.6423 155.347 42.4111C155.265 42.1768 155.225 41.9229 155.225 41.6494C155.225 41.3532 155.278 41.0765 155.386 40.8193C155.493 40.5622 155.643 40.3392 155.835 40.1504C156.03 39.9583 156.263 39.807 156.533 39.6963C156.803 39.5856 157.101 39.5303 157.427 39.5303C157.743 39.5303 158.034 39.5824 158.301 39.6865C158.571 39.7907 158.804 39.96 158.999 40.1943C159.194 40.4255 159.347 40.7266 159.458 41.0977C159.569 41.4688 159.624 41.9196 159.624 42.4502ZM157.388 40.2285C157.205 40.2285 157.036 40.2594 156.88 40.3213C156.727 40.3799 156.593 40.4678 156.479 40.585C156.369 40.6989 156.281 40.8405 156.216 41.0098C156.151 41.179 156.118 41.3727 156.118 41.5908C156.118 41.7894 156.141 41.9668 156.187 42.123C156.235 42.2793 156.309 42.4128 156.406 42.5234C156.507 42.6309 156.636 42.7139 156.792 42.7725C156.948 42.8311 157.134 42.8604 157.349 42.8604C157.469 42.8604 157.593 42.849 157.72 42.8262C157.85 42.8034 157.975 42.7725 158.096 42.7334C158.219 42.6943 158.337 42.6488 158.447 42.5967C158.558 42.5446 158.657 42.4893 158.745 42.4307C158.745 42.0107 158.714 41.6608 158.652 41.3809C158.59 41.0977 158.501 40.8714 158.384 40.7021C158.267 40.5296 158.123 40.4076 157.954 40.3359C157.788 40.2643 157.599 40.2285 157.388 40.2285Z" fill="white" fill-opacity="0.4"/>
<path d="M12.3652 73V69.1211C12.3652 68.4688 12.123 68.1426 11.6387 68.1426C11.3965 68.1426 11.1641 68.2402 10.9414 68.4355C10.7227 68.6309 10.4902 68.8965 10.2441 69.2324V73H8.81445V67.0469H10.0508L10.0859 67.9258C10.207 67.7734 10.332 67.6348 10.4609 67.5098C10.5938 67.3848 10.7363 67.2793 10.8887 67.1934C11.041 67.1035 11.2051 67.0352 11.3809 66.9883C11.5566 66.9414 11.7539 66.918 11.9727 66.918C12.2773 66.918 12.543 66.9688 12.7695 67.0703C12.9961 67.168 13.1855 67.3086 13.3379 67.4922C13.4902 67.6719 13.6035 67.8906 13.6777 68.1484C13.7559 68.4023 13.7949 68.6875 13.7949 69.0039V73H12.3652ZM18.916 65.418C18.916 65.5469 18.8926 65.668 18.8457 65.7812C18.7988 65.8945 18.7324 65.9941 18.6465 66.0801C18.5645 66.1621 18.4668 66.2285 18.3535 66.2793C18.2402 66.3262 18.1172 66.3496 17.9844 66.3496C17.8516 66.3496 17.7266 66.3262 17.6094 66.2793C17.4961 66.2285 17.3965 66.1621 17.3105 66.0801C17.2285 65.9941 17.1641 65.8945 17.1172 65.7812C17.0703 65.668 17.0469 65.5469 17.0469 65.418C17.0469 65.2891 17.0703 65.168 17.1172 65.0547C17.1641 64.9414 17.2285 64.8418 17.3105 64.7559C17.3965 64.6699 17.4961 64.6035 17.6094 64.5566C17.7266 64.5059 17.8516 64.4805 17.9844 64.4805C18.1172 64.4805 18.2402 64.5059 18.3535 64.5566C18.4668 64.6035 18.5645 64.6699 18.6465 64.7559C18.7324 64.8418 18.7988 64.9414 18.8457 65.0547C18.8926 65.168 18.916 65.2891 18.916 65.418ZM17.334 68.1602H15.6523V67.0469H18.7988V71.8867H20.5156V73H15.4473V71.8867H17.334V68.1602ZM23.9316 65.834H22.25V64.7207H25.3965V71.8867H27.1133V73H22.0449V71.8867H23.9316V65.834ZM30.5293 65.834H28.8477V64.7207H31.9941V71.8867H33.7109V73H28.6426V71.8867H30.5293V65.834ZM38.709 65.418C38.709 65.5469 38.6855 65.668 38.6387 65.7812C38.5918 65.8945 38.5254 65.9941 38.4395 66.0801C38.3574 66.1621 38.2598 66.2285 38.1465 66.2793C38.0332 66.3262 37.9102 66.3496 37.7773 66.3496C37.6445 66.3496 37.5195 66.3262 37.4023 66.2793C37.2891 66.2285 37.1895 66.1621 37.1035 66.0801C37.0215 65.9941 36.957 65.8945 36.9102 65.7812C36.8633 65.668 36.8398 65.5469 36.8398 65.418C36.8398 65.2891 36.8633 65.168 36.9102 65.0547C36.957 64.9414 37.0215 64.8418 37.1035 64.7559C37.1895 64.6699 37.2891 64.6035 37.4023 64.5566C37.5195 64.5059 37.6445 64.4805 37.7773 64.4805C37.9102 64.4805 38.0332 64.5059 38.1465 64.5566C38.2598 64.6035 38.3574 64.6699 38.4395 64.7559C38.5254 64.8418 38.5918 64.9414 38.6387 65.0547C38.6855 65.168 38.709 65.2891 38.709 65.418ZM37.127 68.1602H35.4453V67.0469H38.5918V71.8867H40.3086V73H35.2402V71.8867H37.127V68.1602ZM47.1641 69.9766C47.1641 70.4453 47.0977 70.875 46.9648 71.2656C46.832 71.6523 46.6406 71.9844 46.3906 72.2617C46.1406 72.5391 45.834 72.7539 45.4707 72.9062C45.1074 73.0586 44.6934 73.1348 44.2285 73.1348C43.7871 73.1348 43.3926 73.0703 43.0449 72.9414C42.6973 72.8125 42.4023 72.6211 42.1602 72.3672C41.918 72.1094 41.7324 71.7891 41.6035 71.4062C41.4746 71.0195 41.4102 70.5703 41.4102 70.0586C41.4102 69.5859 41.4766 69.1562 41.6094 68.7695C41.7461 68.3828 41.9395 68.0527 42.1895 67.7793C42.4434 67.5059 42.752 67.2949 43.1152 67.1465C43.4785 66.9941 43.8887 66.918 44.3457 66.918C44.791 66.918 45.1875 66.9844 45.5352 67.1172C45.8828 67.2461 46.1777 67.4395 46.4199 67.6973C46.6621 67.9551 46.8457 68.2754 46.9707 68.6582C47.0996 69.0371 47.1641 69.4766 47.1641 69.9766ZM45.6758 70.0117C45.6758 69.3945 45.5586 68.9316 45.3242 68.623C45.0938 68.3105 44.752 68.1543 44.2988 68.1543C44.0488 68.1543 43.8359 68.2031 43.6602 68.3008C43.4844 68.3984 43.3398 68.5332 43.2266 68.7051C43.1133 68.873 43.0293 69.0703 42.9746 69.2969C42.9238 69.5234 42.8984 69.7656 42.8984 70.0234C42.8984 70.6445 43.0234 71.1133 43.2734 71.4297C43.5234 71.7422 43.8652 71.8984 44.2988 71.8984C44.5371 71.8984 44.7441 71.8516 44.9199 71.7578C45.0957 71.6602 45.2383 71.5273 45.3477 71.3594C45.457 71.1875 45.5391 70.9863 45.5938 70.7559C45.6484 70.5254 45.6758 70.2773 45.6758 70.0117ZM51.9512 73V69.1211C51.9512 68.4688 51.709 68.1426 51.2246 68.1426C50.9824 68.1426 50.75 68.2402 50.5273 68.4355C50.3086 68.6309 50.0762 68.8965 49.8301 69.2324V73H48.4004V67.0469H49.6367L49.6719 67.9258C49.793 67.7734 49.918 67.6348 50.0469 67.5098C50.1797 67.3848 50.3223 67.2793 50.4746 67.1934C50.627 67.1035 50.791 67.0352 50.9668 66.9883C51.1426 66.9414 51.3398 66.918 51.5586 66.918C51.8633 66.918 52.1289 66.9688 52.3555 67.0703C52.582 67.168 52.7715 67.3086 52.9238 67.4922C53.0762 67.6719 53.1895 67.8906 53.2637 68.1484C53.3418 68.4023 53.3809 68.6875 53.3809 69.0039V73H51.9512ZM54.1836 75.4023V74.2715H60.7812V75.4023H54.1836ZM66.9512 69.918C66.9512 70.4648 66.873 70.9375 66.7168 71.3359C66.5645 71.7344 66.3496 72.0664 66.0723 72.332C65.7988 72.5938 65.4746 72.7891 65.0996 72.918C64.7246 73.043 64.3164 73.1055 63.875 73.1055C63.7266 73.1055 63.5781 73.0957 63.4297 73.0762C63.2812 73.0566 63.1465 73.0312 63.0254 73V75.3262H61.5957V67.0469H62.832L62.8672 67.9258C62.9883 67.7734 63.1133 67.6348 63.2422 67.5098C63.375 67.3848 63.5176 67.2793 63.6699 67.1934C63.8223 67.1035 63.9863 67.0352 64.1621 66.9883C64.3379 66.9414 64.5352 66.918 64.7539 66.918C65.1055 66.918 65.418 66.9883 65.6914 67.1289C65.9648 67.2695 66.1934 67.4707 66.377 67.7324C66.5645 67.9902 66.707 68.3047 66.8047 68.6758C66.9023 69.043 66.9512 69.457 66.9512 69.918ZM65.4512 69.9766C65.4512 69.6484 65.4277 69.3691 65.3809 69.1387C65.334 68.9082 65.2656 68.7188 65.1758 68.5703C65.0898 68.4219 64.9824 68.3145 64.8535 68.248C64.7285 68.1777 64.584 68.1426 64.4199 68.1426C64.1777 68.1426 63.9453 68.2402 63.7227 68.4355C63.5039 68.6309 63.2715 68.8965 63.0254 69.2324V71.834C63.1387 71.877 63.2773 71.9121 63.4414 71.9395C63.6094 71.9668 63.7793 71.9805 63.9512 71.9805C64.1777 71.9805 64.3828 71.9336 64.5664 71.8398C64.7539 71.7461 64.9121 71.6133 65.041 71.4414C65.1738 71.2695 65.2754 71.0605 65.3457 70.8145C65.416 70.5645 65.4512 70.2852 65.4512 69.9766ZM72.0254 69.3613C72.0332 69.1387 72.0215 68.9492 71.9902 68.793C71.9629 68.6367 71.916 68.5078 71.8496 68.4062C71.7871 68.3047 71.709 68.2305 71.6152 68.1836C71.5215 68.1367 71.4141 68.1133 71.293 68.1133C71.082 68.1133 70.8633 68.2012 70.6367 68.377C70.4141 68.5488 70.168 68.834 69.8984 69.2324V73H68.4336V67.0469H69.7285L69.7812 67.9141C69.8789 67.7617 69.9883 67.625 70.1094 67.5039C70.2344 67.3828 70.3711 67.2793 70.5195 67.1934C70.6719 67.1035 70.8398 67.0352 71.0234 66.9883C71.207 66.9414 71.4082 66.918 71.627 66.918C71.9277 66.918 72.1934 66.9707 72.4238 67.0762C72.6582 67.1777 72.8535 67.3301 73.0098 67.5332C73.1699 67.7363 73.2871 67.9922 73.3613 68.3008C73.4395 68.6055 73.4727 68.959 73.4609 69.3613H72.0254ZM76.209 67.0469V70.9258C76.209 71.25 76.2695 71.4961 76.3906 71.6641C76.5117 71.8281 76.6953 71.9102 76.9414 71.9102C77.1797 71.9102 77.4082 71.8125 77.627 71.6172C77.8496 71.418 78.084 71.1504 78.3301 70.8145V67.0469H79.7598V73H78.5234L78.4883 72.1211C78.3633 72.2734 78.2363 72.4121 78.1074 72.5371C77.9785 72.6621 77.8379 72.7695 77.6855 72.8594C77.5371 72.9453 77.373 73.0117 77.1934 73.0586C77.0176 73.1094 76.8223 73.1348 76.6074 73.1348C76.3027 73.1348 76.0352 73.0859 75.8047 72.9883C75.5781 72.8867 75.3887 72.7441 75.2363 72.5605C75.084 72.377 74.9688 72.1582 74.8906 71.9043C74.8164 71.6465 74.7793 71.3594 74.7793 71.043V67.0469H76.209ZM84.9395 73V69.1211C84.9395 68.4688 84.6973 68.1426 84.2129 68.1426C83.9707 68.1426 83.7383 68.2402 83.5156 68.4355C83.2969 68.6309 83.0645 68.8965 82.8184 69.2324V73H81.3887V67.0469H82.625L82.6602 67.9258C82.7812 67.7734 82.9062 67.6348 83.0352 67.5098C83.168 67.3848 83.3105 67.2793 83.4629 67.1934C83.6152 67.1035 83.7793 67.0352 83.9551 66.9883C84.1309 66.9414 84.3281 66.918 84.5469 66.918C84.8516 66.918 85.1172 66.9688 85.3438 67.0703C85.5703 67.168 85.7598 67.3086 85.9121 67.4922C86.0645 67.6719 86.1777 67.8906 86.252 68.1484C86.3301 68.4023 86.3691 68.6875 86.3691 69.0039V73H84.9395ZM93.1719 69.5664C93.1719 69.6641 93.168 69.791 93.1602 69.9473C93.1562 70.1035 93.1484 70.25 93.1367 70.3867H89.2227C89.2227 70.6484 89.2617 70.8789 89.3398 71.0781C89.4219 71.2773 89.5352 71.4453 89.6797 71.582C89.8281 71.7148 90.0039 71.8164 90.207 71.8867C90.4141 71.957 90.6426 71.9922 90.8926 71.9922C91.1816 71.9922 91.4902 71.9707 91.8184 71.9277C92.1504 71.8809 92.4941 71.8066 92.8496 71.7051V72.8418C92.6973 72.8848 92.5312 72.9238 92.3516 72.959C92.1719 72.9941 91.9883 73.0254 91.8008 73.0527C91.6133 73.0801 91.4238 73.0996 91.2324 73.1113C91.041 73.127 90.8555 73.1348 90.6758 73.1348C90.2227 73.1348 89.8164 73.0703 89.457 72.9414C89.0977 72.8125 88.793 72.623 88.543 72.373C88.293 72.1191 88.1016 71.8066 87.9688 71.4355C87.8359 71.0645 87.7695 70.6348 87.7695 70.1465C87.7695 69.6621 87.8359 69.2227 87.9688 68.8281C88.1016 68.4297 88.2891 68.0898 88.5312 67.8086C88.7734 67.5234 89.0664 67.3047 89.4102 67.1523C89.7578 66.9961 90.1445 66.918 90.5703 66.918C90.9922 66.918 91.3652 66.9844 91.6895 67.1172C92.0137 67.2461 92.2852 67.4277 92.5039 67.6621C92.7227 67.8965 92.8887 68.1758 93.002 68.5C93.1152 68.8242 93.1719 69.1797 93.1719 69.5664ZM91.7188 69.3613C91.7227 69.127 91.6934 68.9238 91.6309 68.752C91.5684 68.5762 91.4824 68.4316 91.373 68.3184C91.2676 68.2051 91.1426 68.1211 90.998 68.0664C90.8574 68.0117 90.7051 67.9844 90.541 67.9844C90.1816 67.9844 89.8867 68.1055 89.6562 68.3477C89.4258 68.5859 89.2891 68.9238 89.2461 69.3613H91.7188ZM98.3281 73L98.293 72.1211C98.168 72.2734 98.0391 72.4121 97.9062 72.5371C97.7734 72.6621 97.6309 72.7695 97.4785 72.8594C97.3262 72.9453 97.1621 73.0117 96.9863 73.0586C96.8145 73.1094 96.623 73.1348 96.4121 73.1348C96.0605 73.1348 95.748 73.0645 95.4746 72.9238C95.2012 72.7832 94.9707 72.584 94.7832 72.3262C94.5996 72.0645 94.459 71.748 94.3613 71.377C94.2637 71.0059 94.2148 70.5918 94.2148 70.1348C94.2148 69.5879 94.291 69.1152 94.4434 68.7168C94.5996 68.3145 94.8145 67.9824 95.0879 67.7207C95.3613 67.4551 95.6855 67.2598 96.0605 67.1348C96.4355 67.0059 96.8438 66.9414 97.2852 66.9414C97.4336 66.9414 97.582 66.9512 97.7305 66.9707C97.8828 66.9902 98.0176 67.0156 98.1348 67.0469V64.7207H99.5645V73H98.3281ZM95.7148 70.0703C95.7148 70.3984 95.7363 70.6797 95.7793 70.9141C95.8262 71.1445 95.8926 71.334 95.9785 71.4824C96.0684 71.6309 96.1777 71.7402 96.3066 71.8105C96.4355 71.877 96.582 71.9102 96.7461 71.9102C96.9883 71.9102 97.2188 71.8125 97.4375 71.6172C97.6562 71.4219 97.8887 71.1543 98.1348 70.8145V68.2129C98.0215 68.1699 97.8809 68.1348 97.7129 68.1074C97.5488 68.0801 97.3828 68.0664 97.2148 68.0664C96.9844 68.0664 96.7773 68.1133 96.5938 68.207C96.4102 68.3008 96.252 68.4336 96.1191 68.6055C95.9902 68.7773 95.8906 68.9883 95.8203 69.2383C95.75 69.4844 95.7148 69.7617 95.7148 70.0703ZM100.367 75.4023V74.2715H106.965V75.4023H100.367ZM112.859 70.5508C112.859 70.9609 112.773 71.3262 112.602 71.6465C112.43 71.9629 112.191 72.2305 111.887 72.4492C111.582 72.668 111.223 72.834 110.809 72.9473C110.395 73.0605 109.945 73.1172 109.461 73.1172C109.34 73.1172 109.211 73.1133 109.074 73.1055C108.938 73.0977 108.799 73.0879 108.658 73.0762C108.518 73.0645 108.381 73.0488 108.248 73.0293C108.115 73.0137 107.992 72.9961 107.879 72.9766V71.7285C108.102 71.7832 108.357 71.8281 108.646 71.8633C108.936 71.8945 109.23 71.9102 109.531 71.9102C110.117 71.9102 110.562 71.7988 110.867 71.5762C111.176 71.3496 111.33 71.0371 111.33 70.6387C111.33 70.2246 111.188 69.918 110.902 69.7188C110.617 69.5156 110.156 69.4141 109.52 69.4141H108.02V65.3418H112.438V66.6895H109.355V68.248H109.906C110.297 68.248 110.67 68.2832 111.025 68.3535C111.381 68.4238 111.693 68.5469 111.963 68.7227C112.236 68.8945 112.453 69.1289 112.613 69.4258C112.777 69.7227 112.859 70.0977 112.859 70.5508ZM119.709 70.5742C119.709 70.9609 119.639 71.3125 119.498 71.6289C119.357 71.9414 119.162 72.2109 118.912 72.4375C118.666 72.6602 118.371 72.832 118.027 72.9531C117.684 73.0742 117.307 73.1348 116.896 73.1348C116.002 73.1348 115.318 72.8535 114.846 72.291C114.373 71.7285 114.137 70.8691 114.137 69.7129C114.137 69.291 114.162 68.8906 114.213 68.5117C114.264 68.1289 114.348 67.7773 114.465 67.457C114.586 67.1328 114.746 66.8398 114.945 66.5781C115.148 66.3164 115.4 66.0957 115.701 65.916C116.002 65.7324 116.357 65.5918 116.768 65.4941C117.178 65.3926 117.654 65.3418 118.197 65.3418H119.07V66.5547H118.051C117.629 66.5547 117.275 66.5977 116.99 66.6836C116.705 66.7695 116.473 66.8926 116.293 67.0527C116.113 67.2129 115.979 67.4082 115.889 67.6387C115.799 67.8691 115.74 68.1289 115.713 68.418L115.701 68.5586C115.904 68.4609 116.135 68.3809 116.393 68.3184C116.654 68.2559 116.928 68.2246 117.213 68.2246C117.627 68.2246 117.99 68.2793 118.303 68.3887C118.615 68.4941 118.875 68.6484 119.082 68.8516C119.293 69.0547 119.449 69.3008 119.551 69.5898C119.656 69.8789 119.709 70.207 119.709 70.5742ZM118.221 70.6387C118.221 70.459 118.197 70.2949 118.15 70.1465C118.104 69.9941 118.029 69.8652 117.928 69.7598C117.83 69.6504 117.703 69.5664 117.547 69.5078C117.395 69.4453 117.211 69.4141 116.996 69.4141C116.871 69.4141 116.746 69.4258 116.621 69.4492C116.5 69.4688 116.381 69.4961 116.264 69.5312C116.15 69.5664 116.041 69.6055 115.936 69.6484C115.834 69.6914 115.742 69.7363 115.66 69.7832C115.66 70.1777 115.688 70.5117 115.742 70.7852C115.797 71.0547 115.879 71.2754 115.988 71.4473C116.102 71.6191 116.24 71.7441 116.404 71.8223C116.572 71.8965 116.766 71.9336 116.984 71.9336C117.172 71.9336 117.342 71.9023 117.494 71.8398C117.646 71.7773 117.775 71.6895 117.881 71.5762C117.99 71.459 118.074 71.3223 118.133 71.166C118.191 71.0059 118.221 70.8301 118.221 70.6387ZM120.916 73V71.9453L122.727 70.1348C123.066 69.7949 123.338 69.502 123.541 69.2559C123.748 69.0098 123.906 68.791 124.016 68.5996C124.129 68.4043 124.203 68.2246 124.238 68.0605C124.273 67.8965 124.291 67.7266 124.291 67.5508C124.291 67.4062 124.268 67.2695 124.221 67.1406C124.174 67.0078 124.105 66.8945 124.016 66.8008C123.926 66.7031 123.812 66.627 123.676 66.5723C123.539 66.5137 123.383 66.4844 123.207 66.4844C122.906 66.4844 122.627 66.5508 122.369 66.6836C122.111 66.8125 121.867 66.9863 121.637 67.2051L120.881 66.2324C121.213 65.9238 121.586 65.6777 122 65.4941C122.418 65.3066 122.869 65.2129 123.354 65.2129C123.729 65.2129 124.068 65.2617 124.373 65.3594C124.678 65.4531 124.938 65.5938 125.152 65.7812C125.371 65.9688 125.539 66.2031 125.656 66.4844C125.777 66.7656 125.838 67.0898 125.838 67.457C125.838 67.7617 125.797 68.0469 125.715 68.3125C125.633 68.5742 125.514 68.8301 125.357 69.0801C125.201 69.3301 125.008 69.5801 124.777 69.8301C124.551 70.0801 124.291 70.3438 123.998 70.6211L122.885 71.6816H126.113V73H120.916ZM132.746 68.7168C132.746 69.3184 132.695 69.8438 132.594 70.293C132.492 70.7383 132.348 71.1191 132.16 71.4355C131.977 71.752 131.756 72.0117 131.498 72.2148C131.24 72.418 130.953 72.5781 130.637 72.6953C130.324 72.8125 129.988 72.8926 129.629 72.9355C129.273 72.9785 128.904 73 128.521 73H127.637V71.7754H128.68C129.137 71.7754 129.518 71.7363 129.822 71.6582C130.131 71.5762 130.379 71.459 130.566 71.3066C130.758 71.1504 130.898 70.957 130.988 70.7266C131.082 70.4961 131.145 70.2305 131.176 69.9297L131.188 69.7832C130.98 69.8809 130.744 69.9609 130.479 70.0234C130.213 70.0859 129.945 70.1172 129.676 70.1172C129.305 70.1172 128.967 70.0742 128.662 69.9883C128.357 69.9023 128.094 69.7656 127.871 69.5781C127.652 69.3906 127.482 69.1484 127.361 68.8516C127.24 68.5508 127.18 68.1895 127.18 67.7676C127.18 67.3848 127.248 67.0371 127.385 66.7246C127.525 66.4082 127.719 66.1387 127.965 65.916C128.215 65.6934 128.51 65.5215 128.85 65.4004C129.193 65.2754 129.568 65.2129 129.975 65.2129C130.373 65.2129 130.74 65.2695 131.076 65.3828C131.416 65.4961 131.709 65.6895 131.955 65.9629C132.205 66.2324 132.398 66.5918 132.535 67.041C132.676 67.4902 132.746 68.0488 132.746 68.7168ZM129.904 66.4141C129.717 66.4141 129.547 66.4453 129.395 66.5078C129.242 66.5703 129.111 66.6582 129.002 66.7715C128.896 66.8848 128.814 67.0215 128.756 67.1816C128.697 67.3379 128.668 67.5137 128.668 67.709C128.668 68.123 128.777 68.4316 128.996 68.6348C129.215 68.834 129.518 68.9336 129.904 68.9336C130.01 68.9336 130.121 68.9238 130.238 68.9043C130.359 68.8848 130.479 68.8574 130.596 68.8223C130.717 68.7871 130.83 68.748 130.936 68.7051C131.045 68.6582 131.141 68.6094 131.223 68.5586C131.223 68.2109 131.199 67.9043 131.152 67.6387C131.109 67.373 131.035 67.1504 130.93 66.9707C130.828 66.7871 130.693 66.6484 130.525 66.5547C130.357 66.4609 130.15 66.4141 129.904 66.4141ZM138.541 71.4414V73H137.146V71.4414H133.584V70.2168L136.572 65.3418H138.541V70.1816H139.701V71.4414H138.541ZM137.164 66.7246L134.984 70.1816H137.164V66.7246ZM145.93 70.6621C145.93 71.041 145.859 71.3828 145.719 71.6875C145.578 71.9883 145.361 72.2461 145.068 72.4609C144.779 72.6719 144.414 72.834 143.973 72.9473C143.531 73.0605 143.012 73.1172 142.414 73.1172C142.281 73.1172 142.141 73.1133 141.992 73.1055C141.848 73.1016 141.703 73.0938 141.559 73.082C141.414 73.0742 141.273 73.0625 141.137 73.0469C141 73.0352 140.877 73.0195 140.768 73V71.7578C141.014 71.8047 141.289 71.8438 141.594 71.875C141.902 71.9023 142.223 71.916 142.555 71.916C142.879 71.916 143.158 71.8887 143.393 71.834C143.627 71.7793 143.82 71.7012 143.973 71.5996C144.125 71.4941 144.236 71.3652 144.307 71.2129C144.381 71.0605 144.418 70.8887 144.418 70.6973C144.418 70.5293 144.381 70.377 144.307 70.2402C144.232 70.1035 144.119 69.9883 143.967 69.8945C143.814 69.7969 143.619 69.7227 143.381 69.6719C143.146 69.6172 142.867 69.5898 142.543 69.5898H141.693V68.5H142.473C142.777 68.5 143.029 68.4707 143.229 68.4121C143.432 68.3496 143.592 68.2676 143.709 68.166C143.83 68.0645 143.916 67.9453 143.967 67.8086C144.018 67.668 144.043 67.5215 144.043 67.3691C144.043 67.0566 143.941 66.8203 143.738 66.6602C143.535 66.4961 143.221 66.4141 142.795 66.4141C142.49 66.4141 142.189 66.4434 141.893 66.502C141.596 66.5605 141.289 66.6387 140.973 66.7363V65.5352C141.148 65.4766 141.316 65.4277 141.477 65.3887C141.637 65.3496 141.797 65.3164 141.957 65.2891C142.117 65.2617 142.279 65.2422 142.443 65.2305C142.607 65.2188 142.777 65.2129 142.953 65.2129C143.375 65.2129 143.744 65.2578 144.061 65.3477C144.381 65.4375 144.648 65.5664 144.863 65.7344C145.082 65.8984 145.246 66.0996 145.355 66.3379C145.465 66.5762 145.52 66.8418 145.52 67.1348C145.52 67.5996 145.412 67.9766 145.197 68.2656C144.986 68.5508 144.689 68.7695 144.307 68.9219C144.553 68.9609 144.775 69.0293 144.975 69.127C145.174 69.2207 145.344 69.3438 145.484 69.4961C145.629 69.6445 145.738 69.8164 145.812 70.0117C145.891 70.207 145.93 70.4238 145.93 70.6621ZM151.121 68.9453C151.312 69.0508 151.494 69.168 151.666 69.2969C151.842 69.4219 151.994 69.5684 152.123 69.7363C152.256 69.9004 152.359 70.0879 152.434 70.2988C152.512 70.5059 152.551 70.7422 152.551 71.0078C152.551 71.3555 152.48 71.6621 152.34 71.9277C152.199 72.1934 152.004 72.416 151.754 72.5957C151.508 72.7754 151.217 72.9102 150.881 73C150.549 73.0898 150.189 73.1348 149.803 73.1348C149.373 73.1348 148.992 73.0898 148.66 73C148.332 72.9062 148.055 72.7754 147.828 72.6074C147.605 72.4395 147.436 72.2363 147.318 71.998C147.205 71.7598 147.148 71.4941 147.148 71.2012C147.148 70.9395 147.186 70.707 147.26 70.5039C147.338 70.2969 147.443 70.1094 147.576 69.9414C147.709 69.7734 147.861 69.623 148.033 69.4902C148.209 69.3574 148.395 69.2344 148.59 69.1211C148.414 69.0195 148.248 68.9082 148.092 68.7871C147.939 68.666 147.805 68.5293 147.688 68.377C147.57 68.2246 147.477 68.0547 147.406 67.8672C147.34 67.6797 147.307 67.4668 147.307 67.2285C147.307 66.9512 147.359 66.6914 147.465 66.4492C147.574 66.2031 147.734 65.9883 147.945 65.8047C148.16 65.6211 148.428 65.4766 148.748 65.3711C149.072 65.2656 149.451 65.2129 149.885 65.2129C150.283 65.2129 150.639 65.2559 150.951 65.3418C151.264 65.4238 151.525 65.543 151.736 65.6992C151.951 65.8555 152.113 66.043 152.223 66.2617C152.336 66.4766 152.393 66.7148 152.393 66.9766C152.393 67.2188 152.359 67.4375 152.293 67.6328C152.227 67.8281 152.137 68.0059 152.023 68.166C151.91 68.3223 151.775 68.4648 151.619 68.5938C151.463 68.7188 151.297 68.8359 151.121 68.9453ZM149.996 68.3945C150.137 68.3164 150.268 68.2344 150.389 68.1484C150.514 68.0586 150.621 67.9609 150.711 67.8555C150.801 67.75 150.873 67.6348 150.928 67.5098C150.982 67.3848 151.01 67.2461 151.01 67.0938C151.01 66.8398 150.91 66.6465 150.711 66.5137C150.512 66.3809 150.225 66.3145 149.85 66.3145C149.482 66.3145 149.199 66.3828 149 66.5195C148.801 66.6562 148.701 66.8613 148.701 67.1348C148.701 67.2832 148.734 67.416 148.801 67.5332C148.867 67.6504 148.959 67.7598 149.076 67.8613C149.193 67.959 149.33 68.0508 149.486 68.1367C149.646 68.2227 149.816 68.3086 149.996 68.3945ZM149.697 69.6895C149.545 69.7715 149.4 69.8594 149.264 69.9531C149.131 70.0469 149.014 70.1504 148.912 70.2637C148.814 70.377 148.736 70.502 148.678 70.6387C148.619 70.7715 148.59 70.9219 148.59 71.0898C148.59 71.3867 148.705 71.6133 148.936 71.7695C149.166 71.9258 149.471 72.0039 149.85 72.0039C150.021 72.0039 150.184 71.9863 150.336 71.9512C150.488 71.916 150.621 71.8613 150.734 71.7871C150.852 71.7129 150.943 71.6191 151.01 71.5059C151.076 71.3887 151.109 71.25 151.109 71.0898C151.109 70.9258 151.072 70.7793 150.998 70.6504C150.924 70.5176 150.822 70.3965 150.693 70.2871C150.564 70.1777 150.414 70.0742 150.242 69.9766C150.07 69.8789 149.889 69.7832 149.697 69.6895ZM156.014 73H154.396L157.443 66.7246H153.77V65.3418H159.09V66.5898L156.014 73ZM11.2637 85.8379C11.4277 85.8379 11.5801 85.8691 11.7207 85.9316C11.8613 85.9902 11.9824 86.0723 12.084 86.1777C12.1895 86.2793 12.2715 86.4004 12.3301 86.541C12.3887 86.6816 12.418 86.832 12.418 86.9922C12.418 87.1484 12.3887 87.2969 12.3301 87.4375C12.2715 87.5742 12.1895 87.6953 12.084 87.8008C11.9824 87.9023 11.8613 87.9824 11.7207 88.041C11.5801 88.1035 11.4277 88.1348 11.2637 88.1348C11.1074 88.1348 10.9609 88.1035 10.8242 88.041C10.6875 87.9824 10.5684 87.9023 10.4668 87.8008C10.3652 87.6953 10.2852 87.5742 10.2266 87.4375C10.168 87.2969 10.1387 87.1484 10.1387 86.9922C10.1387 86.832 10.168 86.6816 10.2266 86.541C10.2852 86.4004 10.3652 86.2793 10.4668 86.1777C10.5684 86.0723 10.6875 85.9902 10.8242 85.9316C10.9609 85.8691 11.1074 85.8379 11.2637 85.8379ZM20.3223 87.9414C20.0645 88 19.8047 88.0469 19.543 88.082C19.2812 88.1172 19.0332 88.1348 18.7988 88.1348C18.4082 88.1348 18.0703 88.0938 17.7852 88.0117C17.5039 87.9297 17.2695 87.8047 17.082 87.6367C16.8984 87.4688 16.7617 87.2559 16.6719 86.998C16.5859 86.7363 16.543 86.4258 16.543 86.0664V83.1602H14.9434V82.0469H16.543V80.5234L18.0078 80.1426V82.0469H20.3223V83.1602H18.0078V85.9609C18.0078 86.3008 18.0859 86.5586 18.2422 86.7344C18.3984 86.9062 18.6602 86.9922 19.0273 86.9922C19.2617 86.9922 19.4902 86.9727 19.7129 86.9336C19.9355 86.8945 20.1387 86.8496 20.3223 86.7988V87.9414ZM25.7422 88L25.707 87.2207C25.582 87.3535 25.4512 87.4766 25.3145 87.5898C25.1777 87.6992 25.0273 87.7949 24.8633 87.877C24.6992 87.959 24.5195 88.0215 24.3242 88.0645C24.1328 88.1113 23.9219 88.1348 23.6914 88.1348C23.3867 88.1348 23.1191 88.0898 22.8887 88C22.6582 87.9102 22.4648 87.7852 22.3086 87.625C22.1523 87.4648 22.0332 87.2715 21.9512 87.0449C21.873 86.8184 21.834 86.5684 21.834 86.2949C21.834 86.0137 21.8926 85.7539 22.0098 85.5156C22.1309 85.2773 22.3125 85.0723 22.5547 84.9004C22.8008 84.7285 23.1055 84.5938 23.4688 84.4961C23.8359 84.3984 24.2656 84.3496 24.7578 84.3496H25.5371V83.9922C25.5371 83.8398 25.5156 83.7031 25.4727 83.582C25.4297 83.457 25.3594 83.3516 25.2617 83.2656C25.168 83.1797 25.0449 83.1133 24.8926 83.0664C24.7402 83.0195 24.5527 82.9961 24.3301 82.9961C23.9785 82.9961 23.6309 83.0371 23.2871 83.1191C22.9473 83.1973 22.6172 83.3086 22.2969 83.4531V82.3105C22.582 82.1973 22.9102 82.1035 23.2812 82.0293C23.6562 81.9551 24.0449 81.918 24.4473 81.918C24.8887 81.918 25.2676 81.9609 25.584 82.0469C25.9004 82.1289 26.1602 82.2539 26.3633 82.4219C26.5703 82.5898 26.7227 82.8008 26.8203 83.0547C26.918 83.3047 26.9668 83.5977 26.9668 83.9336V88H25.7422ZM25.5371 85.3691H24.6641C24.4219 85.3691 24.2168 85.3926 24.0488 85.4395C23.8809 85.4863 23.7441 85.5508 23.6387 85.6328C23.5332 85.7148 23.4551 85.8105 23.4043 85.9199C23.3574 86.0254 23.334 86.1387 23.334 86.2598C23.334 86.502 23.4121 86.6875 23.5684 86.8164C23.7246 86.9414 23.9375 87.0039 24.207 87.0039C24.4062 87.0039 24.6133 86.9316 24.8281 86.7871C25.043 86.6426 25.2793 86.4355 25.5371 86.166V85.3691ZM32.4395 84.3613C32.4473 84.1387 32.4355 83.9492 32.4043 83.793C32.377 83.6367 32.3301 83.5078 32.2637 83.4062C32.2012 83.3047 32.123 83.2305 32.0293 83.1836C31.9355 83.1367 31.8281 83.1133 31.707 83.1133C31.4961 83.1133 31.2773 83.2012 31.0508 83.377C30.8281 83.5488 30.582 83.834 30.3125 84.2324V88H28.8477V82.0469H30.1426L30.1953 82.9141C30.293 82.7617 30.4023 82.625 30.5234 82.5039C30.6484 82.3828 30.7852 82.2793 30.9336 82.1934C31.0859 82.1035 31.2539 82.0352 31.4375 81.9883C31.6211 81.9414 31.8223 81.918 32.041 81.918C32.3418 81.918 32.6074 81.9707 32.8379 82.0762C33.0723 82.1777 33.2676 82.3301 33.4238 82.5332C33.584 82.7363 33.7012 82.9922 33.7754 83.3008C33.8535 83.6055 33.8867 83.959 33.875 84.3613H32.4395ZM37.6543 85.8379C37.8184 85.8379 37.9707 85.8691 38.1113 85.9316C38.252 85.9902 38.373 86.0723 38.4746 86.1777C38.5801 86.2793 38.6621 86.4004 38.7207 86.541C38.7793 86.6816 38.8086 86.832 38.8086 86.9922C38.8086 87.1484 38.7793 87.2969 38.7207 87.4375C38.6621 87.5742 38.5801 87.6953 38.4746 87.8008C38.373 87.9023 38.252 87.9824 38.1113 88.041C37.9707 88.1035 37.8184 88.1348 37.6543 88.1348C37.498 88.1348 37.3516 88.1035 37.2148 88.041C37.0781 87.9824 36.959 87.9023 36.8574 87.8008C36.7559 87.6953 36.6758 87.5742 36.6172 87.4375C36.5586 87.2969 36.5293 87.1484 36.5293 86.9922C36.5293 86.832 36.5586 86.6816 36.6172 86.541C36.6758 86.4004 36.7559 86.2793 36.8574 86.1777C36.959 86.0723 37.0781 85.9902 37.2148 85.9316C37.3516 85.8691 37.498 85.8379 37.6543 85.8379ZM43.7246 80.834H42.043V79.7207H45.1895V86.8867H46.9062V88H41.8379V86.8867H43.7246V80.834ZM48.4648 88V87.0039L51.377 83.2715H48.5352V82.0469H53.2637V83.0547L50.416 86.7402H53.3105V88H48.4648ZM59.3691 86.4414V88H57.9746V86.4414H54.4121V85.2168L57.4004 80.3418H59.3691V85.1816H60.5293V86.4414H59.3691ZM57.9922 81.7246L55.8125 85.1816H57.9922V81.7246Z" fill="white" fill-opacity="0.6"/>
<path d="M11.833 113V110.222H9.66504V113H8.46387V106.618H9.66504V109.182H11.833V106.618H13.0342V113H11.833ZM14.3965 113V106.618H18.2393V107.634H15.6172V109.221H18.1172V110.212H15.6172V111.984H18.2393V113H14.3965ZM19.7285 107.6V106.618H23.7617V107.6H22.3555V112.009H23.7617V113H19.7285V112.009H21.1348V107.6H19.7285ZM27.2725 110.3V109.309H29.543V112.712C29.25 112.849 28.944 112.95 28.625 113.015C28.306 113.08 27.9593 113.112 27.585 113.112C27.1423 113.112 26.7435 113.044 26.3887 112.907C26.0371 112.771 25.7376 112.567 25.4902 112.297C25.2428 112.027 25.0524 111.691 24.9189 111.291C24.7887 110.891 24.7236 110.427 24.7236 109.899C24.7236 109.369 24.792 108.894 24.9287 108.474C25.0687 108.054 25.2705 107.699 25.5342 107.409C25.8011 107.116 26.1266 106.893 26.5107 106.74C26.8981 106.587 27.3392 106.511 27.834 106.511C28.127 106.511 28.4118 106.537 28.6885 106.589C28.9684 106.638 29.2467 106.704 29.5234 106.789V107.976C29.2826 107.862 29.0156 107.769 28.7227 107.697C28.4329 107.622 28.14 107.585 27.8438 107.585C27.5443 107.585 27.279 107.637 27.0479 107.741C26.82 107.845 26.6279 107.993 26.4717 108.186C26.3187 108.378 26.2015 108.614 26.1201 108.894C26.042 109.174 26.0029 109.489 26.0029 109.841C26.0029 110.179 26.0339 110.485 26.0957 110.759C26.1576 111.029 26.2568 111.26 26.3936 111.452C26.5335 111.641 26.7126 111.786 26.9307 111.887C27.1488 111.988 27.4141 112.038 27.7266 112.038C27.8014 112.038 27.8665 112.036 27.9219 112.033C27.9772 112.027 28.0293 112.019 28.0781 112.009C28.127 111.999 28.1725 111.988 28.2148 111.975C28.2604 111.962 28.3076 111.947 28.3564 111.931V110.3H27.2725ZM33.8252 113V110.222H31.6572V113H30.4561V106.618H31.6572V109.182H33.8252V106.618H35.0264V113H33.8252ZM38.8545 107.619V113H37.624V107.619H35.876V106.618H40.6025V107.619H38.8545Z" fill="white" fill-opacity="0.3"/>
<path d="M13.2368 124.755C13.2368 125.102 13.1616 125.419 13.0112 125.706C12.8608 125.992 12.6532 126.239 12.3882 126.447C12.1268 126.651 11.8171 126.81 11.459 126.925C11.1009 127.039 10.7142 127.097 10.2988 127.097C10.195 127.097 10.0822 127.093 9.96045 127.086C9.84229 127.082 9.72412 127.075 9.60596 127.064C9.48779 127.057 9.37142 127.048 9.25684 127.038C9.14583 127.027 9.04557 127.014 8.95605 127V126.151C9.14941 126.198 9.36963 126.232 9.6167 126.253C9.86735 126.275 10.1198 126.286 10.374 126.286C10.6605 126.286 10.9183 126.252 11.1475 126.184C11.3766 126.116 11.5718 126.019 11.7329 125.894C11.894 125.765 12.0176 125.611 12.1035 125.432C12.1895 125.249 12.2324 125.045 12.2324 124.819C12.2324 124.382 12.0749 124.066 11.7598 123.869C11.4482 123.668 10.9989 123.568 10.4116 123.568H9.07959V119.98H12.8608V120.796H9.96045V122.768H10.5728C10.9093 122.768 11.237 122.798 11.5557 122.859C11.8743 122.92 12.1572 123.027 12.4043 123.181C12.6549 123.332 12.8555 123.536 13.0059 123.793C13.1598 124.048 13.2368 124.368 13.2368 124.755ZM19.5479 124.776C19.5479 125.099 19.4888 125.401 19.3706 125.684C19.256 125.967 19.0913 126.214 18.8765 126.425C18.6616 126.633 18.402 126.798 18.0977 126.919C17.7969 127.038 17.4621 127.097 17.0933 127.097C16.7065 127.097 16.3646 127.036 16.0674 126.914C15.7702 126.789 15.5213 126.599 15.3208 126.345C15.1203 126.087 14.9681 125.763 14.8643 125.373C14.7604 124.982 14.7085 124.52 14.7085 123.987C14.7085 123.629 14.7318 123.281 14.7783 122.945C14.8249 122.608 14.9019 122.291 15.0093 121.994C15.1167 121.697 15.2599 121.425 15.439 121.178C15.618 120.931 15.84 120.719 16.105 120.544C16.3735 120.365 16.6886 120.227 17.0503 120.13C17.4119 120.03 17.8309 119.98 18.3071 119.98H19V120.796H18.248C17.8291 120.796 17.4657 120.847 17.1577 120.947C16.8498 121.047 16.592 121.188 16.3843 121.371C16.1766 121.554 16.0173 121.774 15.9062 122.032C15.7952 122.29 15.7254 122.578 15.6968 122.896L15.6753 123.117C15.9009 122.984 16.1605 122.879 16.4541 122.8C16.7513 122.717 17.0718 122.676 17.4155 122.676C17.77 122.676 18.0798 122.728 18.3447 122.832C18.6133 122.936 18.8353 123.081 19.0107 123.267C19.1898 123.45 19.3241 123.67 19.4136 123.928C19.5031 124.186 19.5479 124.468 19.5479 124.776ZM18.5703 124.835C18.5703 124.621 18.5435 124.427 18.4897 124.255C18.4396 124.08 18.359 123.933 18.248 123.815C18.137 123.693 17.9956 123.6 17.8237 123.536C17.6554 123.468 17.4531 123.434 17.2168 123.434C17.0807 123.434 16.9429 123.446 16.8032 123.471C16.6636 123.496 16.5257 123.532 16.3896 123.579C16.2572 123.622 16.13 123.672 16.0083 123.729C15.8866 123.786 15.7756 123.847 15.6753 123.912C15.6753 124.374 15.7075 124.76 15.772 125.072C15.8364 125.38 15.9313 125.627 16.0566 125.813C16.1855 125.999 16.3431 126.132 16.5293 126.21C16.7155 126.289 16.9303 126.329 17.1738 126.329C17.3779 126.329 17.5641 126.296 17.7324 126.232C17.9043 126.164 18.0511 126.065 18.1729 125.937C18.2982 125.808 18.3949 125.652 18.4629 125.469C18.5345 125.283 18.5703 125.072 18.5703 124.835ZM25.5098 127H20.8853V126.162L22.7007 124.357C22.9979 124.064 23.2396 123.81 23.4258 123.595C23.612 123.38 23.757 123.185 23.8608 123.009C23.9647 122.83 24.0345 122.662 24.0703 122.504C24.1061 122.347 24.124 122.177 24.124 121.994C24.124 121.822 24.1007 121.659 24.0542 121.505C24.0076 121.348 23.936 121.21 23.8394 121.092C23.7427 120.974 23.6174 120.881 23.4634 120.812C23.3094 120.744 23.125 120.71 22.9102 120.71C22.613 120.71 22.3426 120.777 22.0991 120.909C21.8556 121.042 21.6318 121.214 21.4277 121.425L20.9121 120.807C21.1771 120.528 21.4814 120.304 21.8252 120.136C22.1725 119.967 22.5754 119.883 23.0337 119.883C23.3452 119.883 23.6281 119.93 23.8823 120.023C24.1401 120.116 24.3621 120.25 24.5483 120.426C24.7345 120.601 24.8778 120.816 24.978 121.07C25.0819 121.325 25.1338 121.611 25.1338 121.93C25.1338 122.198 25.098 122.447 25.0264 122.676C24.9548 122.905 24.8455 123.135 24.6987 123.364C24.5555 123.589 24.3729 123.824 24.1509 124.067C23.9325 124.311 23.6729 124.578 23.3721 124.868L22.0991 126.108H25.5098V127ZM31.52 123.095C31.52 123.779 31.4377 124.368 31.2729 124.862C31.1082 125.353 30.8647 125.757 30.5425 126.076C30.2202 126.391 29.821 126.624 29.3447 126.774C28.8685 126.925 28.3188 127 27.6958 127H27.1104V126.184H27.7603C28.2222 126.184 28.6214 126.137 28.958 126.044C29.2946 125.951 29.5739 125.815 29.7959 125.636C30.0215 125.453 30.1934 125.233 30.3115 124.975C30.4297 124.714 30.5031 124.417 30.5317 124.083L30.5532 123.863C30.3276 123.996 30.068 124.103 29.7744 124.186C29.4808 124.264 29.1621 124.304 28.8184 124.304C28.4639 124.304 28.1523 124.252 27.8838 124.148C27.6152 124.044 27.3914 123.899 27.2124 123.713C27.0369 123.527 26.9045 123.306 26.8149 123.052C26.7254 122.794 26.6807 122.515 26.6807 122.214C26.6807 121.889 26.7397 121.584 26.8579 121.301C26.9761 121.018 27.1408 120.773 27.3521 120.565C27.5669 120.354 27.8229 120.188 28.1201 120.066C28.4173 119.944 28.745 119.883 29.103 119.883C29.4504 119.883 29.7708 119.941 30.0645 120.055C30.3617 120.17 30.6177 120.356 30.8325 120.614C31.0474 120.868 31.2157 121.199 31.3374 121.607C31.4591 122.016 31.52 122.512 31.52 123.095ZM29.0601 120.651C28.8595 120.651 28.6733 120.685 28.5015 120.753C28.3332 120.818 28.1864 120.915 28.061 121.043C27.9393 121.169 27.8426 121.325 27.771 121.511C27.6994 121.697 27.6636 121.91 27.6636 122.15C27.6636 122.368 27.6886 122.563 27.7388 122.735C27.7925 122.907 27.873 123.054 27.9805 123.176C28.0915 123.294 28.2329 123.385 28.4048 123.45C28.5767 123.514 28.7808 123.546 29.0171 123.546C29.1496 123.546 29.2856 123.534 29.4253 123.509C29.5685 123.484 29.7064 123.45 29.8389 123.407C29.9749 123.364 30.1038 123.314 30.2256 123.256C30.3473 123.199 30.4565 123.138 30.5532 123.074C30.5532 122.612 30.5192 122.227 30.4512 121.919C30.3831 121.607 30.2847 121.359 30.1558 121.172C30.0269 120.983 29.8693 120.848 29.6831 120.77C29.5005 120.691 29.2928 120.651 29.0601 120.651ZM37.9546 125.448H36.7568V127H35.8008V125.448H32.4224V124.626L35.4141 119.98H36.7568V124.626H37.9546V125.448ZM35.8008 120.882L33.3569 124.626H35.8008V120.882ZM43.519 124.868C43.519 125.176 43.4564 125.466 43.3311 125.738C43.2057 126.006 43.0177 126.243 42.7671 126.447C42.5164 126.647 42.2013 126.807 41.8218 126.925C41.4422 127.039 41 127.097 40.4951 127.097C40.2158 127.097 39.9652 127.088 39.7432 127.07C39.5212 127.052 39.3135 127.029 39.1201 127V126.162C39.3421 126.201 39.5767 126.232 39.8237 126.253C40.0708 126.275 40.3232 126.286 40.5811 126.286C40.932 126.286 41.231 126.255 41.478 126.194C41.7287 126.13 41.9328 126.039 42.0903 125.92C42.2479 125.802 42.3625 125.659 42.4341 125.491C42.5057 125.322 42.5415 125.133 42.5415 124.921C42.5415 124.728 42.4985 124.56 42.4126 124.417C42.3267 124.273 42.2049 124.153 42.0474 124.057C41.8934 123.96 41.7072 123.888 41.4888 123.842C41.2739 123.792 41.0376 123.767 40.7798 123.767H39.9795V122.999H40.7905C41.0018 122.999 41.1934 122.972 41.3652 122.918C41.5407 122.861 41.6893 122.78 41.811 122.676C41.9364 122.572 42.0312 122.445 42.0957 122.295C42.1637 122.141 42.1978 121.967 42.1978 121.774C42.1978 121.398 42.0832 121.124 41.854 120.952C41.6248 120.78 41.2882 120.694 40.8442 120.694C40.6079 120.694 40.3644 120.718 40.1138 120.764C39.8631 120.811 39.5946 120.881 39.3081 120.974V120.157C39.4299 120.114 39.5588 120.077 39.6948 120.044C39.8345 120.009 39.9723 119.98 40.1084 119.958C40.248 119.933 40.3859 119.916 40.522 119.905C40.658 119.89 40.7887 119.883 40.9141 119.883C41.2865 119.883 41.6141 119.924 41.897 120.007C42.1799 120.086 42.4162 120.2 42.606 120.351C42.7957 120.501 42.939 120.684 43.0356 120.898C43.1323 121.113 43.1807 121.355 43.1807 121.624C43.1807 122.025 43.0768 122.361 42.8691 122.633C42.665 122.905 42.384 123.122 42.0259 123.283C42.2085 123.312 42.3875 123.369 42.563 123.455C42.742 123.541 42.9014 123.652 43.041 123.788C43.1842 123.921 43.2988 124.078 43.3848 124.261C43.4743 124.443 43.519 124.646 43.519 124.868ZM49.7012 125.238C49.7012 125.535 49.6403 125.8 49.5186 126.033C49.3968 126.262 49.2267 126.456 49.0083 126.613C48.7899 126.771 48.5321 126.891 48.2349 126.973C47.9377 127.056 47.6154 127.097 47.2681 127.097C46.8849 127.097 46.5465 127.054 46.2529 126.968C45.9629 126.882 45.7194 126.762 45.5225 126.608C45.3255 126.454 45.1769 126.271 45.0767 126.06C44.9764 125.849 44.9263 125.616 44.9263 125.362C44.9263 124.932 45.0462 124.562 45.2861 124.25C45.526 123.938 45.8966 123.656 46.3979 123.401C45.9396 123.169 45.6048 122.911 45.3936 122.628C45.1823 122.341 45.0767 122.014 45.0767 121.645C45.0767 121.419 45.1232 121.201 45.2163 120.99C45.3094 120.778 45.4491 120.59 45.6353 120.426C45.825 120.261 46.0614 120.13 46.3442 120.034C46.6271 119.933 46.9601 119.883 47.3433 119.883C47.7049 119.883 48.0218 119.923 48.2939 120.001C48.5697 120.077 48.8006 120.186 48.9868 120.329C49.173 120.472 49.3127 120.646 49.4058 120.85C49.4989 121.054 49.5454 121.282 49.5454 121.532C49.5454 121.94 49.4308 122.288 49.2017 122.574C48.9761 122.861 48.6538 123.111 48.2349 123.326C48.4425 123.43 48.6359 123.545 48.8149 123.67C48.994 123.795 49.1497 123.935 49.2822 124.089C49.4147 124.243 49.5168 124.415 49.5884 124.604C49.6636 124.794 49.7012 125.006 49.7012 125.238ZM48.5894 121.607C48.5894 121.289 48.4766 121.052 48.251 120.898C48.029 120.741 47.7157 120.662 47.311 120.662C46.91 120.662 46.5967 120.739 46.3711 120.893C46.1491 121.047 46.0381 121.278 46.0381 121.586C46.0381 121.726 46.0649 121.854 46.1187 121.973C46.1724 122.091 46.2547 122.202 46.3657 122.306C46.4803 122.41 46.6217 122.512 46.79 122.612C46.9583 122.712 47.1589 122.814 47.3916 122.918C47.7962 122.728 48.097 122.531 48.2939 122.327C48.4909 122.119 48.5894 121.88 48.5894 121.607ZM48.686 125.308C48.686 125.176 48.6646 125.047 48.6216 124.921C48.5786 124.796 48.5016 124.673 48.3906 124.551C48.2796 124.429 48.131 124.307 47.9448 124.186C47.7586 124.064 47.5223 123.938 47.2358 123.81C46.9924 123.928 46.7865 124.046 46.6182 124.164C46.4535 124.279 46.3192 124.397 46.2153 124.519C46.1151 124.637 46.0435 124.76 46.0005 124.889C45.9575 125.018 45.936 125.154 45.936 125.297C45.936 125.458 45.9701 125.602 46.0381 125.727C46.1097 125.849 46.2064 125.953 46.3281 126.039C46.4499 126.125 46.5949 126.189 46.7632 126.232C46.9315 126.275 47.1141 126.296 47.311 126.296C47.5008 126.296 47.6799 126.277 47.8481 126.237C48.0164 126.198 48.1615 126.139 48.2832 126.06C48.4085 125.978 48.507 125.876 48.5786 125.754C48.6502 125.629 48.686 125.48 48.686 125.308ZM55.7114 120.85L52.7681 127H51.6992L54.7554 120.85H50.9634V119.98H55.7114V120.85Z" fill="white" fill-opacity="0.6"/>
<path d="M103.98 111.071C103.98 111.42 103.915 111.722 103.785 111.979C103.658 112.237 103.479 112.45 103.248 112.619C103.017 112.785 102.742 112.909 102.423 112.99C102.104 113.072 101.756 113.112 101.378 113.112C101.043 113.112 100.719 113.093 100.406 113.054C100.094 113.015 99.7845 112.95 99.4785 112.858V111.672C99.6283 111.724 99.7845 111.773 99.9473 111.818C100.11 111.864 100.273 111.905 100.436 111.94C100.602 111.973 100.766 111.999 100.929 112.019C101.091 112.038 101.249 112.048 101.402 112.048C101.63 112.048 101.824 112.028 101.983 111.989C102.143 111.95 102.273 111.896 102.374 111.828C102.475 111.76 102.548 111.678 102.594 111.584C102.639 111.49 102.662 111.385 102.662 111.271C102.662 111.115 102.617 110.985 102.525 110.881C102.438 110.773 102.32 110.679 102.174 110.598C102.027 110.516 101.86 110.443 101.671 110.378C101.485 110.313 101.295 110.243 101.1 110.168C100.908 110.093 100.717 110.008 100.528 109.914C100.343 109.82 100.177 109.702 100.03 109.562C99.8838 109.423 99.765 109.257 99.6738 109.064C99.5859 108.869 99.542 108.635 99.542 108.361C99.542 108.111 99.5876 107.873 99.6787 107.648C99.7699 107.424 99.9131 107.229 100.108 107.062C100.304 106.893 100.554 106.76 100.86 106.662C101.166 106.561 101.536 106.511 101.969 106.511C102.096 106.511 102.228 106.517 102.364 106.53C102.504 106.54 102.641 106.555 102.774 106.574C102.911 106.59 103.041 106.612 103.165 106.638C103.292 106.66 103.408 106.685 103.512 106.711V107.81C103.408 107.771 103.294 107.735 103.17 107.702C103.046 107.67 102.918 107.642 102.784 107.619C102.654 107.593 102.522 107.574 102.389 107.561C102.255 107.548 102.128 107.541 102.008 107.541C101.796 107.541 101.617 107.559 101.471 107.595C101.324 107.627 101.204 107.674 101.109 107.736C101.015 107.795 100.947 107.868 100.904 107.956C100.862 108.044 100.841 108.142 100.841 108.249C100.841 108.382 100.885 108.498 100.973 108.596C101.064 108.69 101.183 108.776 101.329 108.854C101.479 108.929 101.646 109.001 101.832 109.069C102.021 109.134 102.213 109.206 102.408 109.284C102.607 109.359 102.799 109.445 102.984 109.543C103.173 109.641 103.341 109.759 103.487 109.899C103.637 110.039 103.756 110.205 103.844 110.397C103.935 110.586 103.98 110.811 103.98 111.071ZM105.23 107.6V106.618H109.264V107.6H107.857V112.009H109.264V113H105.23V112.009H106.637V107.6H105.23ZM110.504 113V112.092L113.424 107.707H110.597V106.618H114.947V107.595L112.008 111.911H114.986V113H110.504ZM116.393 113V106.618H120.235V107.634H117.613V109.221H120.113V110.212H117.613V111.984H120.235V113H116.393Z" fill="white" fill-opacity="0.3"/>
<path d="M104.414 127H99.7896V126.162L101.605 124.357C101.902 124.064 102.144 123.81 102.33 123.595C102.516 123.38 102.661 123.185 102.765 123.009C102.869 122.83 102.939 122.662 102.975 122.504C103.01 122.347 103.028 122.177 103.028 121.994C103.028 121.822 103.005 121.659 102.958 121.505C102.912 121.348 102.84 121.21 102.744 121.092C102.647 120.974 102.522 120.881 102.368 120.812C102.214 120.744 102.029 120.71 101.814 120.71C101.517 120.71 101.247 120.777 101.003 120.909C100.76 121.042 100.536 121.214 100.332 121.425L99.8164 120.807C100.081 120.528 100.386 120.304 100.729 120.136C101.077 119.967 101.48 119.883 101.938 119.883C102.25 119.883 102.532 119.93 102.787 120.023C103.044 120.116 103.266 120.25 103.453 120.426C103.639 120.601 103.782 120.816 103.882 121.07C103.986 121.325 104.038 121.611 104.038 121.93C104.038 122.198 104.002 122.447 103.931 122.676C103.859 122.905 103.75 123.135 103.603 123.364C103.46 123.589 103.277 123.824 103.055 124.067C102.837 124.311 102.577 124.578 102.276 124.868L101.003 126.108H104.414V127ZM108.029 125.308C108.151 125.308 108.265 125.331 108.373 125.378C108.484 125.424 108.578 125.489 108.657 125.571C108.74 125.654 108.804 125.75 108.851 125.861C108.897 125.969 108.92 126.085 108.92 126.21C108.92 126.332 108.897 126.447 108.851 126.554C108.804 126.662 108.74 126.757 108.657 126.839C108.578 126.918 108.484 126.98 108.373 127.027C108.265 127.073 108.151 127.097 108.029 127.097C107.903 127.097 107.787 127.073 107.68 127.027C107.572 126.98 107.477 126.918 107.395 126.839C107.316 126.757 107.254 126.662 107.207 126.554C107.16 126.447 107.137 126.332 107.137 126.21C107.137 126.085 107.16 125.969 107.207 125.861C107.254 125.75 107.316 125.654 107.395 125.571C107.477 125.489 107.572 125.424 107.68 125.378C107.787 125.331 107.903 125.308 108.029 125.308ZM116.596 124.776C116.596 125.099 116.537 125.401 116.418 125.684C116.304 125.967 116.139 126.214 115.924 126.425C115.709 126.633 115.45 126.798 115.146 126.919C114.845 127.038 114.51 127.097 114.141 127.097C113.754 127.097 113.412 127.036 113.115 126.914C112.818 126.789 112.569 126.599 112.369 126.345C112.168 126.087 112.016 125.763 111.912 125.373C111.808 124.982 111.756 124.52 111.756 123.987C111.756 123.629 111.78 123.281 111.826 122.945C111.873 122.608 111.95 122.291 112.057 121.994C112.165 121.697 112.308 121.425 112.487 121.178C112.666 120.931 112.888 120.719 113.153 120.544C113.421 120.365 113.736 120.227 114.098 120.13C114.46 120.03 114.879 119.98 115.355 119.98H116.048V120.796H115.296C114.877 120.796 114.514 120.847 114.206 120.947C113.898 121.047 113.64 121.188 113.432 121.371C113.224 121.554 113.065 121.774 112.954 122.032C112.843 122.29 112.773 122.578 112.745 122.896L112.723 123.117C112.949 122.984 113.208 122.879 113.502 122.8C113.799 122.717 114.12 122.676 114.463 122.676C114.818 122.676 115.128 122.728 115.393 122.832C115.661 122.936 115.883 123.081 116.059 123.267C116.238 123.45 116.372 123.67 116.461 123.928C116.551 124.186 116.596 124.468 116.596 124.776ZM115.618 124.835C115.618 124.621 115.591 124.427 115.538 124.255C115.487 124.08 115.407 123.933 115.296 123.815C115.185 123.693 115.043 123.6 114.872 123.536C114.703 123.468 114.501 123.434 114.265 123.434C114.129 123.434 113.991 123.446 113.851 123.471C113.711 123.496 113.574 123.532 113.438 123.579C113.305 123.622 113.178 123.672 113.056 123.729C112.934 123.786 112.823 123.847 112.723 123.912C112.723 124.374 112.755 124.76 112.82 125.072C112.884 125.38 112.979 125.627 113.104 125.813C113.233 125.999 113.391 126.132 113.577 126.21C113.763 126.289 113.978 126.329 114.222 126.329C114.426 126.329 114.612 126.296 114.78 126.232C114.952 126.164 115.099 126.065 115.221 125.937C115.346 125.808 115.443 125.652 115.511 125.469C115.582 125.283 115.618 125.072 115.618 124.835ZM122.38 124.755C122.38 125.102 122.305 125.419 122.155 125.706C122.004 125.992 121.797 126.239 121.532 126.447C121.27 126.651 120.961 126.81 120.603 126.925C120.244 127.039 119.858 127.097 119.442 127.097C119.339 127.097 119.226 127.093 119.104 127.086C118.986 127.082 118.868 127.075 118.75 127.064C118.631 127.057 118.515 127.048 118.4 127.038C118.289 127.027 118.189 127.014 118.1 127V126.151C118.293 126.198 118.513 126.232 118.76 126.253C119.011 126.275 119.263 126.286 119.518 126.286C119.804 126.286 120.062 126.252 120.291 126.184C120.52 126.116 120.715 126.019 120.876 125.894C121.038 125.765 121.161 125.611 121.247 125.432C121.333 125.249 121.376 125.045 121.376 124.819C121.376 124.382 121.218 124.066 120.903 123.869C120.592 123.668 120.142 123.568 119.555 123.568H118.223V119.98H122.004V120.796H119.104V122.768H119.716C120.053 122.768 120.381 122.798 120.699 122.859C121.018 122.92 121.301 123.027 121.548 123.181C121.799 123.332 121.999 123.536 122.149 123.793C122.303 124.048 122.38 124.368 122.38 124.755ZM134.643 121.183C134.381 121.043 134.113 120.936 133.837 120.861C133.561 120.782 133.26 120.743 132.935 120.743C132.562 120.743 132.231 120.809 131.941 120.941C131.651 121.074 131.406 121.262 131.205 121.505C131.008 121.745 130.856 122.035 130.749 122.375C130.645 122.716 130.593 123.092 130.593 123.503C130.593 123.933 130.636 124.318 130.722 124.658C130.808 124.998 130.942 125.287 131.125 125.523C131.307 125.759 131.54 125.94 131.823 126.065C132.109 126.191 132.451 126.253 132.849 126.253C132.917 126.253 132.99 126.25 133.069 126.243C133.148 126.236 133.226 126.227 133.305 126.216C133.384 126.201 133.459 126.185 133.531 126.167C133.606 126.15 133.672 126.13 133.729 126.108V123.874H132.295V123.084H134.675V126.672C134.528 126.74 134.372 126.801 134.208 126.855C134.046 126.909 133.88 126.953 133.708 126.989C133.54 127.025 133.371 127.052 133.203 127.07C133.035 127.088 132.872 127.097 132.714 127.097C132.235 127.097 131.801 127.021 131.415 126.871C131.031 126.721 130.704 126.499 130.432 126.205C130.163 125.908 129.955 125.539 129.809 125.099C129.665 124.658 129.594 124.148 129.594 123.568C129.594 122.991 129.674 122.476 129.835 122.021C129.997 121.563 130.222 121.176 130.512 120.861C130.806 120.542 131.157 120.3 131.565 120.136C131.977 119.967 132.43 119.883 132.924 119.883C133.239 119.883 133.538 119.912 133.821 119.969C134.107 120.023 134.381 120.111 134.643 120.232V121.183ZM140.744 124.9C140.744 125.236 140.678 125.535 140.545 125.797C140.417 126.055 140.23 126.273 139.987 126.452C139.747 126.631 139.455 126.767 139.111 126.86C138.771 126.953 138.392 127 137.973 127H136.136V119.98H138.145C139.709 119.98 140.492 120.549 140.492 121.688C140.492 122.068 140.4 122.393 140.218 122.666C140.039 122.938 139.745 123.14 139.337 123.272C139.527 123.308 139.706 123.369 139.874 123.455C140.046 123.541 140.196 123.652 140.325 123.788C140.454 123.924 140.556 124.085 140.631 124.271C140.707 124.458 140.744 124.667 140.744 124.9ZM139.498 121.817C139.498 121.674 139.477 121.539 139.434 121.414C139.391 121.285 139.315 121.176 139.208 121.086C139.101 120.993 138.956 120.92 138.773 120.866C138.59 120.812 138.359 120.786 138.08 120.786H137.092V122.982H138.048C138.266 122.982 138.463 122.959 138.639 122.913C138.818 122.866 138.97 122.794 139.095 122.698C139.224 122.601 139.323 122.481 139.391 122.338C139.462 122.191 139.498 122.017 139.498 121.817ZM139.729 124.932C139.729 124.753 139.691 124.592 139.616 124.449C139.541 124.306 139.432 124.186 139.289 124.089C139.145 123.989 138.97 123.912 138.762 123.858C138.558 123.804 138.327 123.777 138.069 123.777H137.092V126.194H138.102C138.649 126.194 139.058 126.092 139.326 125.888C139.595 125.684 139.729 125.365 139.729 124.932Z" fill="white" fill-opacity="0.6"/>
<mask id="path-13-inside-1_114_17165" fill="white">
<path d="M0 140H168.25V172H0V140Z"/>
</mask>
<path d="M0 141H168.25V139H0V141Z" fill="white" fill-opacity="0.1" mask="url(#path-13-inside-1_114_17165)"/>
<path d="M50.6251 158.667L47.2917 155.333L48.2251 154.367L49.9584 156.1V150.667H51.2917V156.1L53.0251 154.367L53.9584 155.333L50.6251 158.667ZM46.6251 161.333C46.2584 161.333 45.9445 161.203 45.6834 160.942C45.4223 160.681 45.2917 160.367 45.2917 160V158H46.6251V160H54.6251V158H55.9584V160C55.9584 160.367 55.8279 160.681 55.5667 160.942C55.3056 161.203 54.9917 161.333 54.6251 161.333H46.6251Z" fill="white" fill-opacity="0.6"/>
<path d="M68.9121 156.074C68.9121 156.668 68.8379 157.207 68.6895 157.691C68.5449 158.176 68.3164 158.59 68.0039 158.934C67.6953 159.273 67.2988 159.537 66.8145 159.725C66.3301 159.908 65.75 160 65.0742 160H63.1289V152.342H65.3965C65.9824 152.342 66.4941 152.416 66.9316 152.564C67.373 152.709 67.7402 152.934 68.0332 153.238C68.3262 153.543 68.5449 153.93 68.6895 154.398C68.8379 154.867 68.9121 155.426 68.9121 156.074ZM67.3652 156.168C67.3652 155.754 67.332 155.385 67.2656 155.061C67.1992 154.736 67.0859 154.463 66.9258 154.24C66.7695 154.014 66.5586 153.842 66.293 153.725C66.0273 153.607 65.6973 153.549 65.3027 153.549H64.5703V158.793H65.2031C65.9102 158.793 66.4473 158.582 66.8145 158.16C67.1816 157.738 67.3652 157.074 67.3652 156.168ZM76.4435 156.139C76.4435 156.834 76.3615 157.434 76.1974 157.938C76.0373 158.441 75.8146 158.855 75.5295 159.18C75.2482 159.504 74.9162 159.744 74.5334 159.9C74.1545 160.057 73.7482 160.135 73.3146 160.135C72.3068 160.135 71.549 159.801 71.0412 159.133C70.5334 158.461 70.2795 157.486 70.2795 156.209C70.2795 155.514 70.3595 154.914 70.5197 154.41C70.6838 153.906 70.9064 153.492 71.1877 153.168C71.4728 152.844 71.8048 152.604 72.1838 152.447C72.5666 152.291 72.9748 152.213 73.4084 152.213C74.4162 152.213 75.174 152.547 75.6818 153.215C76.1896 153.883 76.4435 154.857 76.4435 156.139ZM74.9201 156.209C74.9201 155.303 74.799 154.627 74.5568 154.182C74.3146 153.736 73.9162 153.514 73.3615 153.514C73.0841 153.514 72.8478 153.572 72.6525 153.689C72.4572 153.803 72.2951 153.971 72.1662 154.193C72.0412 154.416 71.9494 154.691 71.8908 155.02C71.8322 155.344 71.8029 155.717 71.8029 156.139C71.8029 157.045 71.924 157.721 72.1662 158.166C72.4123 158.611 72.8107 158.834 73.3615 158.834C73.6388 158.834 73.8752 158.777 74.0705 158.664C74.2697 158.547 74.4318 158.377 74.5568 158.154C74.6818 157.932 74.7736 157.658 74.8322 157.334C74.8908 157.006 74.9201 156.631 74.9201 156.209ZM83.4769 160H81.7835L81.0277 157.639L80.7523 156.678L80.4886 157.662L79.7445 160H78.1214L77.6937 152.342H78.9652L79.1468 157.252L79.1937 158.594L79.5394 157.398L80.3831 154.674H81.2913L82.182 157.562L82.4691 158.582L82.4925 157.387L82.6859 152.342H83.9105L83.4769 160ZM89.2739 160L87.2231 155.43L86.8013 154.445V157.621V160H85.4888V152.342H87.2583L89.3501 156.941L89.7192 157.838V154.457V152.342H91.0317V160H89.2739ZM93.5299 160V152.342H94.9948V158.764H98.2291V160H93.5299ZM106.194 156.139C106.194 156.834 106.112 157.434 105.948 157.938C105.788 158.441 105.565 158.855 105.28 159.18C104.999 159.504 104.667 159.744 104.284 159.9C103.905 160.057 103.499 160.135 103.065 160.135C102.057 160.135 101.3 159.801 100.792 159.133C100.284 158.461 100.03 157.486 100.03 156.209C100.03 155.514 100.11 154.914 100.27 154.41C100.434 153.906 100.657 153.492 100.938 153.168C101.223 152.844 101.555 152.604 101.934 152.447C102.317 152.291 102.725 152.213 103.159 152.213C104.167 152.213 104.925 152.547 105.432 153.215C105.94 153.883 106.194 154.857 106.194 156.139ZM104.671 156.209C104.671 155.303 104.55 154.627 104.307 154.182C104.065 153.736 103.667 153.514 103.112 153.514C102.835 153.514 102.598 153.572 102.403 153.689C102.208 153.803 102.046 153.971 101.917 154.193C101.792 154.416 101.7 154.691 101.641 155.02C101.583 155.344 101.554 155.717 101.554 156.139C101.554 157.045 101.675 157.721 101.917 158.166C102.163 158.611 102.561 158.834 103.112 158.834C103.389 158.834 103.626 158.777 103.821 158.664C104.02 158.547 104.182 158.377 104.307 158.154C104.432 157.932 104.524 157.658 104.583 157.334C104.641 157.006 104.671 156.631 104.671 156.209ZM112.231 160L111.81 158.488H109.138L108.704 160H107.274L109.542 152.342H111.558L113.825 160H112.231ZM110.491 153.748L109.483 157.311H111.487L110.491 153.748ZM120.976 156.074C120.976 156.668 120.901 157.207 120.753 157.691C120.609 158.176 120.38 158.59 120.068 158.934C119.759 159.273 119.362 159.537 118.878 159.725C118.394 159.908 117.814 160 117.138 160H115.193V152.342H117.46C118.046 152.342 118.558 152.416 118.995 152.564C119.437 152.709 119.804 152.934 120.097 153.238C120.39 153.543 120.609 153.93 120.753 154.398C120.901 154.867 120.976 155.426 120.976 156.074ZM119.429 156.168C119.429 155.754 119.396 155.385 119.329 155.061C119.263 154.736 119.15 154.463 118.989 154.24C118.833 154.014 118.622 153.842 118.357 153.725C118.091 153.607 117.761 153.549 117.366 153.549H116.634V158.793H117.267C117.974 158.793 118.511 158.582 118.878 158.16C119.245 157.738 119.429 157.074 119.429 156.168Z" fill="white" fill-opacity="0.6"/>
<defs>
<clipPath id="clip0_114_17165">
<rect width="10.5" height="12" fill="white" transform="translate(0 1.5)"/>
</clipPath>
</defs>
</svg>
