<svg width="109" height="67" viewBox="0 0 109 67" fill="none" xmlns="http://www.w3.org/2000/svg">
<g clip-path="url(#clip0_114_17085)">
<path d="M103.392 29.5645L107.75 32.091L83.6324 46.0696C82.6169 48.8774 80.6109 51.5596 78.2947 52.9057C75.9785 54.2468 73.9625 53.9002 72.957 52.2628L48.8347 66.2414L1.25049 38.6659L7.42363 35.0846" stroke="white" stroke-linecap="round" stroke-linejoin="round"/>
<path d="M51.8113 55.126L8.51929 30.0317" stroke="white" stroke-linecap="round" stroke-linejoin="round"/>
<path d="M102.322 25.8477C98.1998 26.7367 87.4443 29.7806 79.3702 38.4299C78.6348 39.2135 77.8494 39.8464 77.064 40.3035C76.2836 40.7555 75.4982 41.0368 74.7628 41.0971C66.6887 41.8053 55.9332 51.2382 51.8111 55.1259L50.1053 63.0169C50.1053 63.0169 64.5676 48.2245 74.7628 47.3305C76.2286 47.1999 77.9044 46.2304 79.3702 44.6583C89.5654 33.7336 104.028 31.7596 104.028 31.7596L102.322 25.8426L59.0248 0.753418C54.9027 1.64247 44.1522 4.6813 36.0781 13.3357C35.3378 14.1193 34.5574 14.7572 33.772 15.2092C32.9866 15.6663 32.2062 15.9426 31.4708 16.0028C23.3917 16.7111 12.6412 26.139 8.5191 30.0317L7.42855 35.0847H7.42354L6.81323 37.9226L50.1103 63.0169" stroke="white" stroke-linecap="round" stroke-linejoin="round"/>
<path d="M33.772 15.2092L77.064 40.3035V46.5" stroke="white" stroke-linecap="round" stroke-linejoin="round"/>
<path d="M34.0525 40L35.7845 39" stroke="white" stroke-opacity="0.3" stroke-width="2" stroke-linecap="round"/>
<path d="M44.4448 46L46.1769 45" stroke="white" stroke-opacity="0.3" stroke-width="2" stroke-linecap="round"/>
<path d="M49.6409 43L51.3729 42" stroke="white" stroke-opacity="0.3" stroke-width="2" stroke-linecap="round"/>
<path d="M51.373 38L49.641 39" stroke="white" stroke-opacity="0.3" stroke-width="2" stroke-linecap="round"/>
<path d="M46.1768 41L40.9806 44" stroke="white" stroke-opacity="0.3" stroke-width="2" stroke-linecap="round"/>
<path d="M55.137 35.8269L57.9349 34.2115" stroke="white" stroke-opacity="0.3" stroke-width="2" stroke-linecap="round"/>
<path d="M54.8372 40L60.0333 37" stroke="white" stroke-opacity="0.3" stroke-width="2" stroke-linecap="round"/>
<path d="M53.105 45L47.9088 48" stroke="white" stroke-opacity="0.3" stroke-width="2" stroke-linecap="round"/>
<path d="M56.8689 42.8269L65.2486 37.9889" stroke="white" stroke-opacity="0.3" stroke-width="2" stroke-linecap="round"/>
<path d="M37.5166 42L40.9807 40" stroke="white" stroke-opacity="0.3" stroke-width="2" stroke-linecap="round"/>
<path d="M49.6409 35L54.837 32" stroke="white" stroke-opacity="0.3" stroke-width="2" stroke-linecap="round"/>
<path d="M44.4448 38L46.1769 37" stroke="white" stroke-opacity="0.3" stroke-width="2" stroke-linecap="round"/>
<path d="M45.311 33.5L39.2489 37" stroke="white" stroke-opacity="0.3" stroke-width="2" stroke-linecap="round"/>
<g opacity="0.3">
<rect x="1.73205" width="20" height="15" rx="2" transform="matrix(0.866025 -0.5 0.866025 0.5 15.2321 30.866)" stroke="white" stroke-width="2"/>
<circle cx="2" cy="2" r="1" transform="matrix(0.866025 -0.5 0.866025 0.5 29.7224 25.5)" stroke="white" stroke-width="2"/>
<path d="M26.2207 35.5217C25.2983 33.5544 26.8605 30.1519 33.6384 30.2391C40.4162 30.3262 40.6671 25.8478 41.0185 23.9783" stroke="white" stroke-width="2"/>
</g>
<path d="M54.0398 20.894L55.6474 19.9659" stroke="white" stroke-opacity="0.3" stroke-width="2" stroke-linecap="round"/>
<path d="M64.4321 26.894L66.0398 25.9659" stroke="white" stroke-opacity="0.3" stroke-width="2" stroke-linecap="round"/>
<path d="M69.2549 24.1096L70.8625 23.1815" stroke="white" stroke-opacity="0.3" stroke-width="2" stroke-linecap="round"/>
<path d="M85.8289 22.5408L84.2212 23.4689" stroke="white" stroke-opacity="0.3" stroke-width="2" stroke-linecap="round"/>
<path d="M81.0061 25.325L76.987 27.6454" stroke="white" stroke-opacity="0.3" stroke-width="2" stroke-linecap="round"/>
<path d="M74.8245 32.894L76.4321 31.9659" stroke="white" stroke-opacity="0.3" stroke-width="2" stroke-linecap="round"/>
<path d="M70.614 19.325L69.0064 20.2531" stroke="white" stroke-opacity="0.3" stroke-width="2" stroke-linecap="round"/>
<path d="M65.7908 22.1096L60.9679 24.8941" stroke="white" stroke-opacity="0.3" stroke-width="2" stroke-linecap="round"/>
<path d="M74.1074 17.3081L76.7044 15.8088" stroke="white" stroke-opacity="0.3" stroke-width="2" stroke-linecap="round"/>
<path d="M74.0781 21.325L78.901 18.5405" stroke="white" stroke-opacity="0.3" stroke-width="2" stroke-linecap="round"/>
<path d="M72.719 26.1096L67.8961 28.8941" stroke="white" stroke-opacity="0.3" stroke-width="2" stroke-linecap="round"/>
<path d="M76.2126 24.0928L81.221 21.2012" stroke="white" stroke-opacity="0.3" stroke-width="2" stroke-linecap="round"/>
<path d="M73.772 29.5017L71.3605 30.894" stroke="white" stroke-opacity="0.3" stroke-width="2" stroke-linecap="round"/>
<path d="M57.5039 22.894L60.7192 21.0377" stroke="white" stroke-opacity="0.3" stroke-width="2" stroke-linecap="round"/>
<path d="M68.7571 16.397L73.58 13.6125" stroke="white" stroke-opacity="0.3" stroke-width="2" stroke-linecap="round"/>
<path d="M63.9346 19.1814L65.5422 18.2532" stroke="white" stroke-opacity="0.3" stroke-width="2" stroke-linecap="round"/>
<path d="M69.3123 12.0764L67.7046 13.0046" stroke="white" stroke-opacity="0.3" stroke-width="2" stroke-linecap="round"/>
<path d="M64.4895 14.8611L58.8628 18.1097" stroke="white" stroke-opacity="0.3" stroke-width="2" stroke-linecap="round"/>
<path d="M50.5757 18.894L57.81 14.7173" stroke="white" stroke-opacity="0.3" stroke-width="2" stroke-linecap="round"/>
<path d="M61.0254 12.8611L62.633 11.9329" stroke="white" stroke-opacity="0.3" stroke-width="2" stroke-linecap="round"/>
<path d="M52.4895 9.78931L48.4704 12.1097" stroke="white" stroke-opacity="0.3" stroke-width="2" stroke-linecap="round"/>
<path d="M55.7048 7.93311L58.9201 6.07678" stroke="white" stroke-opacity="0.3" stroke-width="2" stroke-linecap="round"/>
<path d="M45.2551 13.9661L43.6475 14.8942" stroke="white" stroke-opacity="0.3" stroke-width="2" stroke-linecap="round"/>
<path d="M47.1116 16.894L51.1306 14.5736" stroke="white" stroke-opacity="0.3" stroke-width="2" stroke-linecap="round"/>
<path d="M59.1689 9.93311L62.3842 8.07678" stroke="white" stroke-opacity="0.3" stroke-width="2" stroke-linecap="round"/>
<path d="M54.3459 12.7173L55.9536 11.7891" stroke="white" stroke-opacity="0.3" stroke-width="2" stroke-linecap="round"/>
</g>
<defs>
<clipPath id="clip0_114_17085">
<rect width="108" height="67" fill="white" transform="translate(0.5)"/>
</clipPath>
</defs>
</svg>
