<svg width="114" height="72" viewBox="0 0 114 72" fill="none" xmlns="http://www.w3.org/2000/svg">
<g clip-path="url(#clip0_114_17038)">
<path d="M30.88 29.8999L30.19 30.2999C29.4 30.7599 29 31.3499 29 31.9499M83.01 31.9499C83.01 31.3499 82.61 30.7499 81.82 30.2999L81.13 29.8999M83.01 31.9499C83.01 32.5499 82.61 33.1499 81.82 33.5999L58.88 46.8099C57.3 47.7199 54.73 47.7199 53.14 46.8099L30.2 33.5999C29.41 33.1399 29.01 32.5499 29.01 31.9499V35.8999C29.03 36.4799 29.43 37.0599 30.2 37.4999L53.14 50.7099C54.73 51.6199 57.3 51.6199 58.88 50.7099L81.82 37.4999C82.61 37.0499 83.01 36.4499 83.01 35.8499V31.9499Z" stroke="white"/>
<path d="M30.88 21.8999L30.19 22.2999C29.4 22.7599 29 23.3499 29 23.9499M83.01 23.9499C83.01 23.3499 82.61 22.7499 81.82 22.2999L81.13 21.8999M83.01 23.9499C83.01 24.5499 82.61 25.1499 81.82 25.5999L58.88 38.8099C57.3 39.7199 54.73 39.7199 53.14 38.8099L30.2 25.5999C29.41 25.1399 29.01 24.5499 29.01 23.9499V27.8999C29.03 28.4799 29.43 29.0599 30.2 29.4999L53.14 42.7099C54.73 43.6199 57.3 43.6199 58.88 42.7099L81.82 29.4999C82.61 29.0499 83.01 28.4499 83.01 27.8499V23.9499Z" stroke="white"/>
<path d="M83.01 15.95C83.01 15.35 82.61 14.75 81.82 14.3L58.87 1.07996C57.29 0.169961 54.72 0.169961 53.13 1.07996L30.19 14.29C29.4 14.75 29 15.34 29 15.94M83.01 15.95C83.01 16.55 82.61 17.15 81.82 17.6L58.88 30.81C57.3 31.72 54.73 31.72 53.14 30.81L30.2 17.6C29.41 17.14 29.01 16.55 29.01 15.95V19.9C29.03 20.48 29.43 21.06 30.2 21.5L53.14 34.71C54.73 35.62 57.3 35.62 58.88 34.71L81.82 21.5C82.61 21.05 83.01 20.45 83.01 19.85V15.95Z" stroke="white"/>
<path d="M71.01 13.84C71.01 13.52 70.79 13.19 70.35 12.94L57.6 5.77002C56.72 5.27002 55.29 5.27002 54.41 5.77002L41.66 12.94C41.22 13.19 41 13.51 41 13.84C41 14.17 41.22 14.49 41.66 14.74L54.41 21.91C55.29 22.41 56.72 22.41 57.6 21.91L70.35 14.74C70.79 14.49 71.01 14.16 71.01 13.84ZM71.01 13.84V16.96C71.01 17.28 70.79 17.61 70.35 17.86L57.6 25.03C56.72 25.53 55.29 25.53 54.41 25.03L41.66 17.86C41.23 17.62 41.01 17.3 41 16.99V13.85" stroke="white" stroke-opacity="0.4" stroke-dasharray="2.4 2.4"/>
<path d="M83.0504 23.8799L98.6804 32.8999C101.07 34.2799 101.07 36.5199 98.6804 37.8999L61.3404 59.4599C58.9504 60.8399 55.0704 60.8399 52.6804 59.4599L15.3404 37.8999C12.9504 36.5199 12.9504 34.2799 15.3404 32.8999L29.0104 25.0099" stroke="white"/>
<path d="M83.0096 19.23L111.72 35.81C114.11 37.19 114.11 39.43 111.72 40.81L61.3396 69.9C58.9496 71.28 55.0696 71.28 52.6796 69.9L2.28957 40.81C-0.10043 39.43 -0.10043 37.19 2.28957 35.81L29.0896 20.34" stroke="white" stroke-opacity="0.4" stroke-dasharray="2.4 2.4"/>
<path d="M100.46 35.1599L100.4 38.4999C100.4 39.4399 99.86 40.2799 98.71 40.9399L61.33 62.4699C58.94 63.8499 55.07 63.8499 52.68 62.4699L15.66 41.1399C14.28 40.3399 13.5 39.2599 13.5 38.1299L13.54 35.4699" stroke="white"/>
</g>
<defs>
<clipPath id="clip0_114_17038">
<rect width="114" height="72" fill="white"/>
</clipPath>
</defs>
</svg>
