<svg xmlns="http://www.w3.org/2000/svg" xmlns:xlink="http://www.w3.org/1999/xlink" width="50" height="50" viewBox="0 0 50 51"><defs><clipPath id="g"><path d="M0 0h50v50.27H0Zm0 0"/></clipPath><clipPath id="b"><path d="M0 0h50v51H0z"/></clipPath><clipPath id="k"><path d="M0 0h50v50.27H0Zm0 0"/></clipPath><clipPath id="c"><path d="M0 0h50v51H0z"/></clipPath><clipPath id="e"><path d="M0 0h50v51H0z"/></clipPath><linearGradient id="h" x1="24.995" x2="24.995" y1=".277" y2="50.267" gradientUnits="userSpaceOnUse"><stop offset="0" style="stop-color:#fff;stop-opacity:1"/><stop offset="1" style="stop-color:#07f;stop-opacity:1"/></linearGradient><linearGradient id="d" x1="24.883" x2="19.694" y1="29.474" y2="27.359" gradientUnits="userSpaceOnUse"><stop offset="0" style="stop-color:#fff;stop-opacity:1"/><stop offset="1" style="stop-color:#07f;stop-opacity:1"/></linearGradient><linearGradient id="f" x1="32.924" x2="26.058" y1="15.379" y2="12.58" gradientUnits="userSpaceOnUse"><stop offset="0" style="stop-color:#fff;stop-opacity:1"/><stop offset="1" style="stop-color:#07f;stop-opacity:1"/></linearGradient><mask id="j"><g filter="url(#a)"><path d="M0 0h50v51H0z" style="fill:#000;fill-opacity:.501961;stroke:none"/></g></mask><mask id="m"><g filter="url(#a)"><path d="M0 0h50v51H0z" style="fill:#000;fill-opacity:.25098;stroke:none"/></g></mask><mask id="o"><g filter="url(#a)"><path d="M0 0h50v51H0z" style="fill:#000;fill-opacity:.25098;stroke:none"/></g></mask><g id="i" clip-path="url(#b)"><path d="M25.008 50.02c13.812 0 25.012-11.2 25.012-25.012S38.82 0 25.008 0 0 11.195 0 25.008 11.195 50.02 25.008 50.02m0 0" style="stroke:none;fill-rule:nonzero;fill:#07f;fill-opacity:1"/></g><g id="l" clip-path="url(#c)"><path d="m17.285 30.145 1.59-3.852 7.266-.059-.04 3.93Zm0 0" style="stroke:none;fill-rule:nonzero;fill:url(#d)"/></g><g id="n" clip-path="url(#e)"><path d="m25.145 10.824 2.203-5.48 5.77 14.468-3.72 1.938Zm0 0" style="stroke:none;fill-rule:nonzero;fill:url(#f)"/></g><filter id="a" width="100%" height="100%" x="0%" y="0%" filterUnits="objectBoundingBox"><feColorMatrix in="SourceGraphic" values="0 0 0 0 1 0 0 0 0 1 0 0 0 0 1 0 0 0 1 0"/></filter></defs><g clip-path="url(#g)"><path d="M24.992 50.27c13.801 0 24.988-11.188 24.988-24.989C49.98 11.477 38.793.29 24.992.29 11.188.29 0 11.477 0 25.281 0 39.082 11.188 50.27 24.992 50.27m0 0" style="stroke:none;fill-rule:nonzero;fill:url(#h)"/><use xlink:href="#i" mask="url(#j)"/></g><path d="M36.238 38.844h4.465L31.2 15.059c0-.02-.02-.036-.02-.055l-3.831-9.64v-.02h-4.47l-13.585 33.5h4.465l3.547-8.703h9.218c1.07 0 1.954-.88 1.954-1.914a1.965 1.965 0 0 0-1.954-1.957h-7.628l6.265-15.465" style="stroke:none;fill-rule:nonzero;fill:#fff;fill-opacity:1"/><g clip-path="url(#k)"><use xlink:href="#l" mask="url(#m)"/><use xlink:href="#n" mask="url(#o)"/></g></svg>