<svg xmlns="http://www.w3.org/2000/svg" width="512" height="512"><path d="m255.25-.375 3.067.002C274.849-.333 290.774.583 307 4l3.125.65C357.185 14.752 399.268 37.92 434 71l1.815 1.728c8.343 8.003 15.988 16.222 22.874 25.513a366 366 0 0 0 4.045 5.302c33.088 43.278 49.75 97.586 49.641 151.707l-.002 3.067c-.04 16.532-.956 32.457-4.373 48.683l-.65 3.125C499.435 346.998 483.369 382.35 460 412l-2.367 3.008c-12.955 16.093-27.233 31.4-43.89 43.698a343 343 0 0 0-5.282 4.024c-43.273 33.094-97.592 49.755-151.711 49.645l-3.067-.002c-16.532-.04-32.457-.956-48.683-4.373l-3.125-.65C165.002 499.435 129.65 483.369 100 460l-3.008-2.367C81.355 445.045 66.144 431.043 54 415l-1.258-1.633c-22.902-29.79-39.423-64.253-47.554-100.992l-.554-2.483C.96 292.129-.556 274.488-.437 256.375l.009-3.021C-.355 236.949.61 221.099 4 205l.65-3.125C12.565 165.002 28.631 129.65 52 100l2.367-3.008C67.322 80.9 81.6 65.592 98.257 53.294a343 343 0 0 0 5.282-4.024C146.812 16.176 201.131-.485 255.25-.375"/><path fill="#0579F6" d="M209.153 95.212c5.263 2.245 8.902 6.72 12.222 11.226 3.038 4.08 6.352 6.769 10.438 9.75 3.018 2.5 5.075 5.474 7.375 8.625 1.92 2.317 3.885 3.916 6.312 5.687 4.087 2.983 6.723 6.25 9.688 10.313 1.92 2.317 3.885 3.916 6.312 5.687 4.087 2.983 6.723 6.25 9.688 10.313 1.92 2.317 3.885 3.916 6.312 5.687 4.087 2.983 6.723 6.25 9.688 10.313 1.92 2.317 3.885 3.916 6.312 5.687 4.092 2.99 6.816 6.273 9.793 10.344 2.548 3.218 5.503 5.606 8.707 8.156-.582 3.527-1.806 5.173-4.326 7.667l-2.124 2.122-2.304 2.258-2.35 2.337c-2.479 2.462-4.969 4.914-7.458 7.366l-5.045 5.004Q282.208 229.888 276 236c-4.266-2.04-6.734-4.586-10-8 1.44-3.362 3.248-5.592 6-8h2l1-4h2l1-3h2l.688-1.75c1.65-2.83 3.745-4.233 6.312-6.25l2.188-2.75L291 200h2c-2.637-5.163-6.57-8.872-10.62-12.927l-2.347-2.372q-3.836-3.869-7.685-7.724l-5.34-5.367q-5.592-5.616-11.194-11.222-6.478-6.487-12.926-13c-4.14-4.18-8.292-8.344-12.45-12.503a1603 1603 0 0 1-5.291-5.328c-2.454-2.48-4.923-4.945-7.397-7.406l-2.209-2.254-2.043-2.014-1.765-1.77c-1.67-1.314-1.67-1.314-3.729-.991-2.36 1.034-3.739 2.23-5.567 4.046l-2.086 2.052-2.257 2.266-2.4 2.375a2342 2342 0 0 0-7.839 7.815l-5.438 5.415a6261 6261 0 0 0-11.38 11.372q-6.578 6.583-13.187 13.133a3925 3925 0 0 0-12.674 12.637 1708 1708 0 0 1-5.403 5.374 1342 1342 0 0 0-7.514 7.52c-.755.74-1.51 1.482-2.287 2.246-.675.686-1.35 1.371-2.044 2.078l-1.797 1.795c-1.332 1.687-1.332 1.687-1.012 3.754 1.038 2.356 2.234 3.728 4.056 5.55l2.056 2.077 2.27 2.247 2.38 2.39a2507 2507 0 0 0 7.83 7.81l5.422 5.424q5.685 5.685 11.385 11.356 6.588 6.559 13.157 13.139 6.32 6.326 12.653 12.641a5021 5021 0 0 1 5.385 5.382q3.757 3.755 7.527 7.498l2.257 2.266 2.074 2.052 1.798 1.791c1.696 1.604 1.696 1.604 4.631 2.377l1-3h2l1-3h2l.813-1.937C218 273 218 273 221 272v-2c4.302-4.767 4.302-4.767 8-6l1-3c1.876-1.845 3.927-3.368 6-5 4.292 1.65 6.88 4.738 10 8-1.39 3.137-3.01 5.255-5.44 7.667l-2.123 2.122-2.289 2.258-2.345 2.337a3618 3618 0 0 1-7.428 7.366q-2.517 2.501-5.031 5.004Q215.179 296.884 209 303l-3.373-2.879-1.897-1.619a90 90 0 0 1-5.355-5.064l-1.602-1.63L195 290a4513 4513 0 0 0-5-5l-86-86c4.885-5.876 10.133-11.3 15.522-16.715l2.85-2.875q4.642-4.679 9.292-9.347l3.211-3.228q6.673-6.705 13.352-13.403a8541 8541 0 0 0 19.09-19.196q6.714-6.771 13.454-13.519a2128 2128 0 0 0 8.025-8.073q3.755-3.798 7.54-7.564a622 622 0 0 0 4.077-4.126l2.464-2.439 2.133-2.143C207 95 207 95 209.153 95.212"/><path fill="#F66107" d="M303 95c3.491 1.285 5.717 3.47 8.315 6.075l2.592 2.583 2.819 2.84q1.492 1.494 2.987 2.987 4.049 4.05 8.087 8.113 4.227 4.242 8.46 8.476 8.012 8.022 16.012 16.054 9.11 9.142 18.232 18.275A56179 56179 0 0 1 408 198c-4.916 5.927-10.224 11.359-15.677 16.79l-2.9 2.9a7894 7894 0 0 1-7.82 7.809q-4.098 4.09-8.192 8.184a32477 32477 0 0 1-15.49 15.469 47350 47350 0 0 0-17.645 17.623A104241 104241 0 0 1 304 303c-5.927-4.916-11.359-10.224-16.79-15.677l-2.9-2.9a7894 7894 0 0 1-7.809-7.82q-4.09-4.098-8.184-8.192a32477 32477 0 0 1-15.469-15.49 47350 47350 0 0 0-17.623-17.645A104241 104241 0 0 1 199 199c6.238-7.365 6.238-7.365 9.527-10.64l1.88-1.88 1.96-1.945 2.06-2.055q3.221-3.212 6.448-6.417l4.398-4.385Q230.633 166.336 236 161c4.266 2.04 6.734 4.586 10 8-1.59 4.008-4.418 6.591-7.48 9.5l-3.276 3.188q-2.58 2.497-5.175 4.976a643 643 0 0 0-4.987 4.836l-1.587 1.49c-1.621 1.54-1.621 1.54-3.495 4.01.314 3.391 1.7 5.074 4.061 7.429l1.98 1.996 2.185 2.158 2.291 2.297a2424 2424 0 0 0 7.538 7.503l5.22 5.215q5.475 5.465 10.96 10.92 7.04 6.998 14.06 14.015 5.392 5.385 10.79 10.763l5.183 5.17q3.62 3.609 7.247 7.21l2.173 2.17 1.997 1.98 1.73 1.72c1.73 1.661 1.73 1.661 4.585 3.454v2c3.77-1.256 5.262-3.133 8-6 59-59 59-59 61.7-61.664 2.389-2.348 2.389-2.348 4.613-5.211 3.125-3.847 6.901-6.95 10.687-10.125-.585-3.445-1.722-5.101-4.168-7.563l-2.052-2.086-2.266-2.257-2.375-2.4a2406 2406 0 0 0-7.815-7.839l-5.415-5.438a6261 6261 0 0 0-11.372-11.38q-6.583-6.578-13.133-13.187a3925 3925 0 0 0-12.637-12.674 1708 1708 0 0 1-5.374-5.403 1342 1342 0 0 0-7.52-7.514c-.74-.755-1.482-1.51-2.246-2.287-.686-.675-1.371-1.35-2.078-2.044l-1.795-1.797c-1.695-1.345-1.695-1.345-3.804-.965-3.219 1.376-5.408 3.929-7.81 6.4l-1.664 1.678a1224 1224 0 0 0-5.226 5.319l-3.559 3.6Q280.335 136.57 276 141c-4.266-2.04-6.734-4.586-10-8 1.357-3.03 2.879-5.127 5.225-7.468l1.982-1.99 2.137-2.116 2.196-2.195q2.297-2.292 4.6-4.577 3.532-3.509 7.051-7.031l4.465-4.447 2.137-2.134 1.982-1.963 1.745-1.733C301 96 301 96 303 95"/><path fill="#F7F7F7" d="M124.21 350.914c5.114 5.961 6.377 12.761 6.33 20.39.01.846.023 1.692.035 2.564.035 2.669.044 5.338.05 8.007q.023 4.035.072 8.072.03 2.499.027 4.998c.035 3.871.078 5.758 2.276 9.055 3.506.51 5.39.357 8.465-1.441 13.87-10.97 13.87-10.97 24.535-24.559l-1.788-.798c-2.308-1.254-3.78-2.554-5.603-4.432l-1.888-1.924-1.971-2.034c-4.543-4.62-9.082-9.13-14.031-13.32-3.061-2.657-6-5.484-8.719-8.492v-1c15.538-2.087 15.538-2.087 21.226 1.342 3.953 3.291 7.289 7.098 10.45 11.146 1.441 1.778 1.441 1.778 4.324 3.512v2l1.75.813c2.284 1.205 4.204 2.618 6.25 4.187 6.498-5.677 12.674-11.58 18.708-17.745 5.102-5.183 5.102-5.183 8.171-5.369l2.254.016 2.441.01 2.551.026 2.574.013q3.15.02 6.301.049c-6.965 8.471-14.734 16.183-23.074 23.297-3.47 3.068-6.691 6.39-9.926 9.703l2.25 2.188C191 384 191 384 192.813 386.375c1.832 2.2 3.532 3.84 5.699 5.672 5.059 4.382 9.768 9.086 14.488 13.828l2.637 2.625 2.488 2.492 2.258 2.261C222 415 222 415 222 416c-15.72 1.374-15.72 1.374-20.918-1.758-2.209-2.307-4.14-4.709-6.082-7.242a94 94 0 0 0-3.937-3.437c-4.957-4.246-9.493-8.909-14.063-13.563-3.809 1.3-6.116 2.768-8.89 5.668l-2.153 2.209-2.207 2.31c-16.836 17.552-16.836 17.552-28.125 18.188-5.644-.152-10.057-2.044-14.234-5.836-2.782-3.078-3.391-4.288-3.391-8.539l-1.844 1.32C104.082 413.523 89.767 419.494 75 418c-5.9-1.89-10.724-4.587-14-10-1.98-5.938-2.045-12.649.5-18.375 9.75-10.237 21.772-12.94 35.25-15.812l3.574-.788c5.543-1.206 11.044-2.342 16.676-3.025-1.618-5.701-1.618-5.701-5.437-9.937-8.384-3.476-18.9-3.348-27.438-.438-4.452 1.854-8.354 4.277-12.25 7.105C70 368 70 368 67 369a984 984 0 0 1-3-4.875l-1.687-2.742C61 359 61 359 61 357c17.206-13.512 44.419-19.28 63.21-6.086"/><path fill="#F8F8F8" d="M279.004 352.246c7.259 6.378 12.357 14.448 13.34 24.149.296 11.377-1.864 20.819-9.344 29.605-9.648 9.352-20.996 12.494-34.172 12.328C236.882 417.304 227.7 412.095 220 403c-6.243-9.72-7.061-19.689-6-31 .876-3.378 2.14-6.063 4-9l1.75-3.125c14.372-18.364 40.344-21.473 59.254-7.629"/><path fill="#F4F4F4" d="M439.07 352.309c8.026 7.034 12.54 17.214 13.93 27.691v6h-64c3.509 9.356 6.556 12.621 15 17 9.491 3.164 20.643 1.642 29.46-2.621L436 399l2.29-1.223A127 127 0 0 0 443 395a181 181 0 0 1 3.063 3.25l1.722 1.828C449 402 449 402 448.953 404.016c-2.493 5.19-8.986 8.162-14.074 10.289-14.04 4.802-27.448 5.367-41.067-.993-9.459-5.05-15.613-11.9-18.812-22.312-1.539-11.011-.755-21.856 5.688-31.125 6.76-8.34 13.838-12.967 24.25-15.625 12.43-1.015 23.783.495 34.132 8.059"/><path fill="#F8F8F8" d="M357.25 348.813c5.568 4.428 9.007 9.275 10.75 16.187.385 3.986.35 7.936.293 11.938l-.013 3.395c-.017 3.556-.054 7.111-.092 10.667q-.024 3.63-.042 7.262c-.032 5.913-.084 11.825-.146 17.738h-14l-.044-4.112c-.058-5.052-.136-10.104-.218-15.157q-.051-3.274-.084-6.55c-.034-3.145-.086-6.29-.142-9.435l-.02-2.94c-.146-6.784-1.023-11.78-5.43-17.181-3.662-2.886-7.275-2.97-11.91-2.91-7.593 1.006-13.94 6.543-18.746 12.144-5.507 7.956-4.403 17.48-4.344 26.766q-.02 2.822-.048 5.645A952 952 0 0 0 313 416h-14v-70h14l1 12 1.938-2.625c10.842-12.961 27.07-14.505 41.312-6.562"/><path fill="#030303" d="M265.5 359.563c6.716 3.756 9.976 8.158 12.5 15.437 1.167 8.953-1.086 15.317-5.75 22.813-6.242 6.068-13.752 7.5-22.18 7.398-6.633-.456-11.675-2.9-16.527-7.43-5.029-5.805-6.282-12.238-5.984-19.785 1.02-6.93 3.927-12.173 9.441-16.496 8.815-6.113 18.827-6.421 28.5-1.937"/><path fill="#060606" d="M117 382c.49 3.45.64 6.563 0 10-2.162 2.845-4.885 4.32-8 6l-2.957 1.625C97.16 404.273 89.146 407.235 79 406c-3.187-1.562-3.187-1.562-5-4-.687-3.437-.687-3.437 0-7 6.743-7.417 16.764-8.782 26.188-10.687l3.232-.682c4.611-.949 8.855-1.766 13.58-1.631"/><path fill="#040404" d="M424 358.688c3.65 1.891 6.323 4.163 9 7.312l1.813 2.063C436 370 436 370 436 374h-47c2.46-7.382 4.887-11.064 11.5-14.875 7.535-3.47 15.81-3.56 23.5-.437"/><path fill="#ED600D" d="M329 258c0 3 0 3-1.375 4.688C326 264 326 264 324 264l-.805 1.766c-1.228 2.296-2.598 4.038-4.32 5.984l-1.633 1.86L316 275l1-1c2.063.438 2.063.438 4 1 .934 3.01 1.044 3.867 0 7l-.246 2.355c-1.046 3.668-3.072 5.352-5.817 7.957l-2.785 2.676L310 297c-2.016-1.797-2.016-1.797-4-4 .25-3.25.25-3.25 1-6h4v-2l2-1 1-3 2-1c-1.765-1.217-1.765-1.217-4-2-2.817.829-3.756 1.585-5.25 4.125L306 284c-2.187.313-2.187.313-5 0-2.812-2.312-2.812-2.312-5-5v-3a159 159 0 0 1 6 5v2c3.77-1.256 5.262-3.133 8-6z"/><path fill="#F3620B" d="M236 161c4.45 2.225 6.6 4.446 10 8-1.536 3.68-3.782 5.988-6.625 8.75l-2.477 2.422L235 182l-5-10c-2.318-.23-2.318-.23-4.437 2.313L223 177l-3 3-2-1z"/><path fill="#FB6002" d="M283.262 118.195A80 80 0 0 1 290 120v4l-2.437 1.438c-2.818 1.327-2.818 1.327-3.375 4.25L284 132h-4l-1 3h-3l-1-3-3 3-2-1c-.366-4.517-.366-4.517 1.375-6.812C273 126 273 126 275 126l.75-1.75c3.554-6.396 3.554-6.396 7.512-6.055"/><path fill="#047AF9" d="M189 272c5.625-.25 5.625-.25 9 2 .813 3 .813 3 1 6l-2 2 1 2c-1.375 1.5-1.375 1.5-3 3h-2l1-4-3.25-.125C187 282 187 282 184.563 279.063 183 276 183 276 183 274h5zm-16-16c5.625-.25 5.625-.25 9 2 .813 3 .813 3 1 6l-2 2 1 2c-1.375 1.5-1.375 1.5-3 3h-2l1-4-3.25-.125C171 266 171 266 168.563 263.063 167 260 167 260 167 258h5zm-16-16c5.625-.25 5.625-.25 9 2 .813 3 .813 3 1 6l-2 2 1 2c-1.375 1.5-1.375 1.5-3 3h-2l1-4-3.25-.125C155 250 155 250 152.563 247.063 151 244 151 244 151 242h5zm-16-16c5.625-.25 5.625-.25 9 2 .813 3 .813 3 1 6l-2 2 1 2c-1.375 1.5-1.375 1.5-3 3h-2l1-4-3.25-.125C139 234 139 234 136.563 231.063 135 228 135 228 135 226h5z"/><path fill="#FB5F03" d="m377 174 1 4 1.875-1.5C382 175 382 175 384 175c.688 1.813.688 1.813 1 4-1.437 1.75-1.437 1.75-3 3 3.075-.776 3.075-.776 5-3 0 4.68-.996 5.621-4 9-3.52-.652-6.147-1.823-9-4-1.312-3.187-1.312-3.187-2-6zm-16-16 1 4 1.875-1.5C366 159 366 159 368 159c.688 1.813.688 1.813 1 4-1.437 1.75-1.437 1.75-3 3 3.075-.776 3.075-.776 5-3 0 4.68-.996 5.621-4 9-3.52-.652-6.147-1.823-9-4-1.312-3.187-1.312-3.187-2-6zm-16-16 1 4 1.875-1.5C350 143 350 143 352 143c.688 1.813.688 1.813 1 4-1.437 1.75-1.437 1.75-3 3 3.075-.776 3.075-.776 5-3 0 4.68-.996 5.621-4 9-3.52-.652-6.147-1.823-9-4-1.312-3.187-1.312-3.187-2-6zm-16-16 1 4 1.875-1.5C334 127 334 127 336 127c.688 1.813.688 1.813 1 4-1.437 1.75-1.437 1.75-3 3 3.075-.776 3.075-.776 5-3 0 4.68-.996 5.621-4 9-3.52-.652-6.147-1.823-9-4-1.312-3.187-1.312-3.187-2-6z"/><path fill="#FB6003" d="m313 110 1 4 1.875-1.5C318 111 318 111 320 111c.688 1.813.688 1.813 1 4-1.437 1.75-1.437 1.75-3 3 3.075-.776 3.075-.776 5-3 0 4.68-.996 5.621-4 9-3.526-.653-6.23-1.691-9-4-.5-3.5-.5-3.5 0-7 1.5-1.937 1.5-1.937 3-3"/><path fill="#E56516" d="M281 116c0 3.505-.492 3.928-2.75 6.438l-1.645 1.859C275 126 275 126 272.562 128.187L271 130c.136 2.219.136 2.219 1 4l3-3 1 4 3-1 1-2 4 1-8 8c-4.45-2.225-6.6-4.446-10-8 1.321-2.932 2.746-4.987 5.04-7.234l1.757-1.739 1.828-1.777 1.852-1.824q2.255-2.219 4.523-4.426"/><path fill="#FA6104" d="M389 198h3c.75 1.688.75 1.688 1 4-1.937 2.75-1.937 2.75-4 5l4 3c-1.37 3.161-1.99 3.993-5 6a93 93 0 0 0-1 4l-2 1c-.95-3.695-.95-6.305 0-10h-2c-.75-1.75-.75-1.75-1-4 1.813-2.25 1.813-2.25 4-4h2z"/><path fill="#001032" d="m239 272 1 4-3 1c-1.587 1.6-1.587 1.6-3.062 3.5-2.739 3.4-2.739 3.4-4.938 4.5l-1.312 2.375c-1.688 2.625-1.688 2.625-4 4-2.619 1.583-3.807 2.843-5.688 5.188-2.388 2.932-4.248 4.444-8 5.437 5.527-6.74 11.694-12.807 17.875-18.937l3.242-3.229q3.938-3.92 7.883-7.834"/><path fill="#000814" d="m285 204 3 1-1.39 1.137c-3.657 3.05-6.69 6.078-9.61 9.863l-2 1-1 3-2.437.813c-2.836.997-2.836.997-4.063 4.062-.837 3.12-.837 3.12.875 5.5L270 232l-5-1v-8h3v-3c2.375-2.687 2.375-2.687 5-5h2l.75-2.312c1.371-2.949 2.485-4.046 5.25-5.688h2v-2z"/><path fill="#011231" d="M151 170c0 3.473-.642 5.808-2 9-2.59 1.838-3.785 2-7 2l-2 10-3-1v-2l-5 2c5.826-7.158 12.438-13.526 19-20"/><path fill="#ED630D" d="M361 226c0 3 0 3-1.375 4.688C358 232 358 232 356 232l-1 3 2 1v-2h2l2-4 4 2-3 1c-.733 2.015-.733 2.015-1 4h-2v2l-3.812-.187c-3.358-.05-3.358-.05-6.188 1.687l-1 1.5-2-1z"/><path fill="#04020A" d="M242 147c4.526 3.678 8.394 7.41 12 12l-6-1v2h2v2l-4-1v-3h-2c-1.802-3.83-2.196-6.781-2-11"/><path fill="#190702" d="M302 114c4.317.474 6.336 3.034 9.25 6.063l2.703 2.785L316 125c-2 1-2 1-5.125.063L308 124l-3 4v-4h-2v-2h2v-4h-6z"/><path fill="#0F66C1" d="m236 256 2 1c-2.465 2.535-4.847 4.886-7.687 7-2.597 2.246-3.128 3.841-4.313 7-2.56 3.071-4.19 4.11-8 5l-2 3-3-1 3-1 1-2c1-2 1-2 4-3v-2c4.302-4.767 4.302-4.767 8-6l1-3c1.876-1.845 3.927-3.368 6-5"/><path fill="#E56619" d="M223 188h3c-.367 3.303-1.131 4.125-3.625 6.5L220 197c.145 4.052 2.77 6.075 5.563 8.75l2.503 2.422L230 210c-3 2-3 2-5 2v-4c-1.493-1.533-1.493-1.533-3.437-2.812-3.124-2.463-3.504-2.945-4.5-7.063L217 195l3-2 1.5-2.625z"/><path fill="#06010B" d="M274 179c4.526 3.678 8.394 7.41 12 12l-10-1c-1.802-3.83-2.196-6.781-2-11m-16-16c4.526 3.678 8.394 7.41 12 12l-10-1c-1.802-3.83-2.196-6.781-2-11m-32-32c4.526 3.678 8.394 7.41 12 12l-10-1c-1.802-3.83-2.196-6.781-2-11"/><path fill="#200A02" d="m309 274 3 1a244 244 0 0 1-2.75 3.438l-1.547 1.933c-1.939 1.855-3.03 2.448-5.703 2.629-2.512-2.161-4.51-4.02-6-7l8-1v4h2v-2c1.5-1.625 1.5-1.625 3-3"/><path fill="#0D72DF" d="M287 191c3.798.543 5.693 1.951 8 5 .625 2.875.625 2.875 0 6-1.676 2.428-3.446 4.495-6 6-2.203-.34-2.203-.34-4-1a418 418 0 0 1 2.875-3.5l1.617-1.969L291 200h2c-1.838-3.151-3.76-6.12-6-9"/><path fill="#01081B" d="M252 263h2c-.557 3.23-1.332 5.024-4 7h-4v2h-6l6-8 5 2z"/><path fill="#011231" d="M167 154c0 3.473-.642 5.808-2 9-2.59 1.838-3.785 2-7 2l-1 4-5 1c4.698-5.661 9.747-10.852 15-16m16-16c0 3.473-.642 5.808-2 9-2.59 1.838-3.785 2-7 2l-1 4-5 1c4.698-5.661 9.747-10.852 15-16m16-16c0 3.473-.642 5.808-2 9-2.59 1.838-3.785 2-7 2l-1 4-5 1c4.698-5.661 9.747-10.852 15-16"/><path fill="#E9630D" d="M330 269h7a85 85 0 0 1-13 13l-1-3 2.375-2.187c2.47-2.646 3.558-4.417 4.625-7.813m16-16h7a85 85 0 0 1-13 13l-1-3 2.375-2.187c2.47-2.646 3.558-4.417 4.625-7.813m16-16h7a85 85 0 0 1-13 13l-1-3 2.375-2.187c2.47-2.646 3.558-4.417 4.625-7.813"/><path fill="#020D1F" d="M210 115c4.526 3.678 8.394 7.41 12 12l-2.375-.5c-2.507-.562-2.507-.562-4.625-.5l-3-1v-2l-1-3c-1-3-1-3-1-5"/><path fill="#0A74E6" d="M133 169c2 3 2 3 2 5h-2l1 4-6-1-1 4-3-3zm16-16c2 3 2 3 2 5h-2l1 4-6-1-1 4-3-3zm16-16c2 3 2 3 2 5h-2l1 4-6-1-1 4-3-3z"/><path fill="#0E76EC" d="M222 121c1.5 1.313 1.5 1.313 3 3v3l1.875.625c2.972 1.923 3.255 4.04 4.125 7.375-4.174-3.5-8.315-6.98-12-11v-2z"/><path fill="#0A74E6" d="M181 121c2 3 2 3 2 5h-2l1 4-6-1-1 4-3-3zm16-16c2 3 2 3 2 5h-2l1 4-6-1-1 4-3-3z"/><path fill="#0D77E1" d="M237 257c3.817 1.555 6.192 4.036 9 7-1.75 3.875-1.75 3.875-4 5l-.516-1.68c-1.392-4.571-1.392-4.571-4.672-7.82L235 259z"/><path fill="#310D00" d="M284 264c4.75.75 4.75.75 7 3l2.688 2.375L296 272c-.355 2.164-.355 2.164-1 4a2544 2544 0 0 1-5.5-5.437l-1.59-1.565A242 242 0 0 1 284 265zm-16-16c4.75.75 4.75.75 7 3l2.688 2.375L280 256c-.355 2.164-.355 2.164-1 4a2544 2544 0 0 1-5.5-5.437l-1.59-1.565A242 242 0 0 1 268 249zm-32-32c4.75.75 4.75.75 7 3l2.688 2.375L248 224c-.355 2.164-.355 2.164-1 4a2544 2544 0 0 1-5.5-5.437l-1.59-1.565A242 242 0 0 1 236 217z"/><path fill="#0E6DD3" d="M207 95c3.392.593 5.21 1.767 7.75 4.063l1.86 1.66L218 102l-1 2-4-1v-3l-9-1z"/><path fill="#000E27" d="m225 263 4 1c-4.625 4.875-4.625 4.875-8 6v2a159 159 0 0 1-6 5c.125-2.187.125-2.187 1-5a119 119 0 0 1 6-5c1.813-2.162 1.813-2.162 3-4"/><path fill="#F0630F" d="M290 121h3c-.573 3.597-1.897 5.253-4.5 7.75l-1.906 1.86C285 132 285 132 284 132c-.365-4.497-.365-4.497 1.313-6.812C287 124 287 124 290 124z"/><path fill="#260600" d="m273 121 3 1-11 11-1-3c1.363-2.008 1.363-2.008 3.313-4.125l1.925-2.133C271 122 271 122 273 121"/><path fill="#0F74E6" d="M212 112v2h2c2.042 2.905 3 4.401 3 8l-1.39-1.566-1.86-1.996-1.828-2.004c-1.798-1.67-1.798-1.67-3.969-1.274-2.21.88-2.21.88-4.953 2.84v-5c6.75-1 6.75-1 9-1"/><path fill="#1E0404" d="M407 199c1 4 1 4 0 6l3 1v2c-9 0-9 0-11-1z"/><path fill="#280700" d="m225 169 3 1-11 11-1-3c1.11-1.824 1.11-1.824 2.75-3.687l1.61-1.887C222 171 222 171 225 171z"/><path fill="#001032" d="m303 208 1 4-3 1c-1.482 1.57-1.482 1.57-2.875 3.438-2.44 2.976-4.308 4.552-8.125 5.562a186 186 0 0 1 13-14"/><path fill="#2A0D01" d="M238 179c.281 2.293.281 2.293 0 5-1.969 1.8-1.969 1.8-4.5 3.313l-2.531 1.55L229 190l-2-1q2.465-2.505 4.938-5l2.777-2.812C237 179 237 179 238 179"/><path fill="#021028" d="m207 114 3 1-2 1a109 109 0 0 0-1 7l-3 1v-3l-4 1 2.938-3.437 1.652-1.934A50 50 0 0 1 207 114"/><path fill="#001844" d="m273 218 1 2-2.375.625c-2.875 1.188-2.875 1.188-4.125 4.25-.837 3.12-.837 3.12.875 5.5L270 232l-5-1v-8h3v-3z"/><path fill="#280700" d="m289 105 3 1-10 10-1-3c1.145-1.79 1.145-1.79 2.813-3.625l1.644-1.852C287 106 287 106 289 105"/><path fill="#00143D" d="M190 265c2.313-.312 2.313-.312 5 0 1.688 2.438 1.688 2.438 3 5l2 1-1 4a1766 1766 0 0 1-4.5-4.437l-2.531-2.497C190 266 190 266 190 265m-16-16c2.313-.312 2.313-.312 5 0 1.688 2.438 1.688 2.438 3 5l2 1-1 4a1766 1766 0 0 1-4.5-4.437l-2.531-2.497C174 250 174 250 174 249m-16-16c2.313-.312 2.313-.312 5 0 1.688 2.438 1.688 2.438 3 5l2 1-1 4a1766 1766 0 0 1-4.5-4.437l-2.531-2.497C158 234 158 234 158 233m-16-16c2.313-.312 2.313-.312 5 0 1.688 2.438 1.688 2.438 3 5l2 1-1 4a1766 1766 0 0 1-4.5-4.437l-2.531-2.497C142 218 142 218 142 217"/><path fill="#001639" d="M126 201h6l1 6h3l-1 4a1766 1766 0 0 1-4.5-4.437l-2.531-2.497C126 202 126 202 126 201"/><path fill="#D06725" d="M236 161c4.292 1.65 6.88 4.738 10 8l-1 3-1.875-2.375c-2.024-2.593-2.024-2.593-4.125-4.625-2.473.344-2.473.344-5 1h-3z"/><path fill="#390C00" d="m319 265 3 1-9 9-1-4c1.313-1.75 1.313-1.75 3-3h2v-2zm16-16 3 1-9 9-1-4c1.313-1.75 1.313-1.75 3-3h2v-2zm16-16 3 1-9 9-1-4c1.313-1.75 1.313-1.75 3-3h2v-2z"/><path fill="#010D2A" d="M289 222c0 3.867-1.42 6.509-3 10h-6q1.404-1.659 2.813-3.312l1.582-1.864A88 88 0 0 1 289 222"/><path fill="#390C00" d="m367 217 3 1-9 9-1-4c1.313-1.75 1.313-1.75 3-3h2v-2z"/><path fill="#1E0303" d="M199 199q1.693 1.4 3.375 2.813l1.898 1.582C206 205 206 205 208 208l-2.312-.562c-2.778-.666-2.778-.666-5.688.562l.063-2.812c.095-3.21.095-3.21-1.063-6.188"/><path fill="#360E00" d="m254 234 6 1v4l4 1-1 4a1766 1766 0 0 1-4.5-4.437l-2.531-2.497C254 235 254 235 254 234"/><path fill="#EA620D" d="M395 207c.715 1.766.715 1.766 1 4-1.434 1.922-1.434 1.922-3.437 3.75l-1.997 1.86L389 218l-2-3a141 141 0 0 1 5-5h2z"/><path fill="#146CD3" d="M287 191c2.682.383 4.098 1.072 6.313 2.688C295 196 295 196 294.75 199.25L294 202l-4-1 3-1c-1.838-3.151-3.76-6.12-6-9"/><path fill="#270600" d="m209 185 3 1-8 8-2-3q1.641-1.547 3.313-3.062l1.863-1.723z"/><path fill="#06010A" d="M208 115h2l.621 1.68.816 2.195.81 2.18c.732 1.981.732 1.981 1.753 3.945l-4-1v-2l-3-1a100 100 0 0 1 0-5z"/><path fill="#000615" d="M264 225h1v6l2.938.375L271 232l1 2h-10z"/><path fill="#350C02" d="M266 133q1.659 1.404 3.313 2.813l1.863 1.582A88 88 0 0 1 276 142l-3 1v-2l-2.937-.812L267 139c-1-3-1-3-1-6"/><path fill="#E06316" d="M303 95c3.875 1.75 3.875 1.75 5 4h-3v3l-3-1v-2l-4 1z"/><path fill="#166ED0" d="M271 221c0 3.106-.54 4.353-2 7h2l1 5-6-5c1.293-2.884 2.66-4.872 5-7"/><path fill="#E06616" d="m201 196 1 2c2.017 1.134 2.017 1.134 4 2v5l-7-6z"/><path fill="#1F0201" d="M387 177c2.938.75 2.938.75 6 2 .875 2.125.875 2.125 1 4h3l1 5c-4.136-3.381-7.813-6.666-11-11m-16-16c2.938.75 2.938.75 6 2 .875 2.125.875 2.125 1 4h3l1 5c-4.136-3.381-7.813-6.666-11-11m-16-16c2.938.75 2.938.75 6 2 .875 2.125.875 2.125 1 4h3l1 5c-4.136-3.381-7.813-6.666-11-11"/><path fill="#00102F" d="M259 138h3c-.613 2.962-1.254 4.38-3 7l-5-5 2-1 3 1z"/><path fill="#1F0201" d="M339 129c2.938.75 2.938.75 6 2 .875 2.125.875 2.125 1 4h3l1 5c-4.136-3.381-7.813-6.666-11-11m-16-16c2.938.75 2.938.75 6 2 .875 2.125.875 2.125 1 4h3l1 5c-4.136-3.381-7.813-6.666-11-11m-16-16c2.938.75 2.938.75 6 2 .875 2.125.875 2.125 1 4h3l1 5c-4.136-3.381-7.813-6.666-11-11"/><path fill="#200501" d="m326 280 2 4-4 1 1 3h-6l2.938-3.437 1.652-1.934A50 50 0 0 1 326 280"/><path fill="#0A78EA" d="M236 267h2l2 5-4 3v-3h-2z"/><path fill="#200501" d="m342 264 2 4-4 1 1 3h-6l2.938-3.437 1.652-1.934A50 50 0 0 1 342 264m16-16 2 4-4 1 1 3h-6l2.938-3.437 1.652-1.934A50 50 0 0 1 358 248m16-16 2 4-4 1 1 3h-6l2.938-3.437 1.652-1.934A50 50 0 0 1 374 232m16-16 2 4-4 1 1 3h-6l2.938-3.437 1.652-1.934A50 50 0 0 1 390 216"/><path fill="#DC6018" d="m388 198 1 3-2.437 2.25c-2.333 2.503-3.198 3.468-3.563 6.75l-5-1 2.188-2.125c2.81-2.803 5.307-5.798 7.812-8.875"/><path fill="#340D00" d="M224 204c2.717.367 4.61.727 6.875 2.313L232 208c-.43 2.105-.43 2.105-1 4q-1.755-1.715-3.5-3.437l-1.969-1.934C224 205 224 205 224 204"/><path fill="#001B3E" d="M131 190c1.245 2.49.777 3.41 0 6l-1.875.25c-2.31.563-2.31.563-3.375 2.813L125 201c-.715-1.766-.715-1.766-1-4 1.434-1.922 1.434-1.922 3.438-3.75l1.996-1.86z"/><path fill="#06020A" d="m236 185 2 1v2l-6 1v3h-3v-3c5.273-3.223 5.273-3.223 7-4"/><path fill="#0E6DD3" d="M109 193c1.033 2.788 1.045 3.868.063 6.75L108 202l-4-4z"/><path fill="#2F0E02" d="M372 182q1.723 1.432 3.438 2.875l1.933 1.617C379 188 379 188 380 190a129 129 0 0 1-7-2l-2-4z"/><path fill="#0F75EC" d="m271 175 8 2v6a707 707 0 0 1-3.437-2.875l-1.934-1.617C272 177 272 177 271 175"/><path fill="#2F0E02" d="M356 166q1.723 1.432 3.438 2.875l1.933 1.617C363 172 363 172 364 174a129 129 0 0 1-7-2l-2-4z"/><path fill="#0F75EC" d="m255 159 8 2v6a707 707 0 0 1-3.437-2.875l-1.934-1.617C256 161 256 161 255 159"/><path fill="#2F0E02" d="M340 150q1.724 1.432 3.438 2.875l1.933 1.617C347 156 347 156 348 158a129 129 0 0 1-7-2l-2-4zm-16-16q1.723 1.432 3.438 2.875l1.933 1.617C331 140 331 140 332 142a129 129 0 0 1-7-2l-2-4z"/><path fill="#105DB7" d="m283 208 1 2 2 1-1.75.188c-2.503.682-2.503.682-4.25 3.312-2 2.5-2 2.5-4.25 3.313L274 218l1-2h2l1-3h2l.938-1.937C282 209 282 209 283 208"/><path fill="#001230" d="m285 204 3 1-1.46 1.242-1.915 1.633-1.898 1.617A76 76 0 0 0 279 213l1-5 3-1v-2z"/><path fill="#420E00" d="M222 194c1.245 2.49.777 3.41 0 6h2l-1 4c-2.062-1.75-2.062-1.75-4-4 .178-3.018.837-3.837 3-6"/><path fill="#021638" d="M300 185c4.75.75 4.75.75 7 3l-1 3h2l-1 2c-2.648-2.578-4.944-4.916-7-8"/><path fill="#E06010" d="m384 175 7 6h-5q-2.008.47-4 1l1-3h2z"/><path fill="#021638" d="M284 169c4.75.75 4.75.75 7 3l-1 3h2l-1 2c-2.648-2.578-4.944-4.916-7-8"/><path fill="#E06010" d="m368 159 7 6h-5q-2.008.47-4 1l1-3h2z"/><path fill="#021638" d="M268 153c4.75.75 4.75.75 7 3l-1 3h2l-1 2c-2.648-2.578-4.944-4.916-7-8"/><path fill="#E06010" d="m352 143 7 6h-5q-2.008.47-4 1l1-3h2zm-16-16 7 6h-5q-2.008.47-4 1l1-3h2z"/><path fill="#021638" d="M236 121c4.75.75 4.75.75 7 3l-1 3h2l-1 2c-2.648-2.578-4.944-4.916-7-8"/><path fill="#E06010" d="m320 111 7 6h-5q-2.008.47-4 1l1-3h2z"/><path fill="#021638" d="M220 105c4.75.75 4.75.75 7 3l-1 3h2l-1 2c-2.648-2.578-4.944-4.916-7-8"/><path fill="#200100" d="m256 256 6 5c-2.67 1.335-5.073 1-8 1 .506-2.169 1-4 2-6"/><path fill="#010B20" d="M140 185v6l-3-1v-2l-5 2c2.275-3.358 3.697-5 8-5"/><path fill="#0D6CD1" d="m290 176 8 6-1 2-4-1v-3h-5l2-1zm-16-16 8 6-1 2-4-1v-3h-5l2-1zm-16-16 8 6-1 2-4-1v-3h-5l2-1zm-16-16 8 6-1 2-4-1v-3h-5l2-1zm-16-16 8 6-1 2-4-1v-3h-5l2-1z"/><path fill="#00112B" d="M200 295q1.724 1.432 3.438 2.875l1.933 1.617C207 301 207 301 208 303l-4 1v-3l-3-1z"/><path fill="#00112C" d="M184 279q1.724 1.432 3.438 2.875l1.933 1.617C191 285 191 285 192 287l-4 1v-3l-3-1z"/><path fill="#010312" d="M308 272h3v2c-2 2-2 2-5 3v2h-2v-4h3z"/><path fill="#00112C" d="M168 263q1.724 1.432 3.438 2.875l1.933 1.617C175 269 175 269 176 271l-4 1v-3l-3-1zm-16-16q1.724 1.432 3.438 2.875l1.933 1.617C159 253 159 253 160 255l-4 1v-3l-3-1zm-16-16q1.724 1.432 3.438 2.875l1.933 1.617C143 237 143 237 144 239l-4 1v-3l-3-1zm-16-16q1.724 1.432 3.438 2.875l1.933 1.617C127 221 127 221 128 223l-4 1v-3l-3-1z"/><path fill="#021127" d="m274 179 6 5-3 2-3-1zm-16-16 6 5-3 2-3-1zm-16-16 6 5-3 2-3-1zm-16-16 6 5-3 2-3-1z"/><path fill="#340F01" d="M308 118q1.723 1.432 3.438 2.875l1.933 1.617C315 124 315 124 316 126l-5-1v-3h-4z"/><path fill="#EDEDED" d="M189 357c0 3 0 3-2.312 5.563C184 365 184 365 181 367c1.65-4.292 4.738-6.88 8-10"/><path fill="#D95D10" d="M392 183q1.723 1.432 3.438 2.875l1.933 1.617C399 189 399 189 400 191l-3 1c-3.092-2.53-3.91-5.225-5-9m-16-16q1.723 1.432 3.438 2.875l1.933 1.617C383 173 383 173 384 175l-3 1c-3.092-2.53-3.91-5.225-5-9m-16-16q1.723 1.432 3.438 2.875l1.933 1.617C367 157 367 157 368 159l-3 1c-3.092-2.53-3.91-5.225-5-9m-16-16q1.723 1.432 3.438 2.875l1.933 1.617C351 141 351 141 352 143l-3 1c-3.092-2.53-3.91-5.225-5-9m-16-16q1.723 1.432 3.438 2.875l1.933 1.617C335 125 335 125 336 127l-3 1c-3.092-2.53-3.91-5.225-5-9m-16-16q1.723 1.432 3.438 2.875l1.933 1.617C319 109 319 109 320 111l-3 1c-3.092-2.53-3.91-5.225-5-9"/><path fill="#270600" d="m318 288 2 4-1.812.313c-2.47.776-3.51 1.758-5.188 3.687l-2-1z"/><path fill="#000A20" d="M225 286h3c-1.049 2.622-1.65 3.794-4.125 5.25L222 292c.573-2.867.861-3.861 3-6"/><path fill="#086ACD" d="m188 282 6 1 1 6c-4-1.333-4.838-3.496-7-7"/><path fill="#0A77E6" d="M227 275h3v2l4 1-4 3c-1.5-1.312-1.5-1.312-3-3z"/><path fill="#270600" d="m334 272 2 4-1.812.313c-2.47.776-3.51 1.758-5.188 3.687l-2-1z"/><path fill="#086ACD" d="m172 266 6 1 1 6c-4-1.333-4.838-3.496-7-7"/><path fill="#270600" d="m350 256 2 4-1.812.313c-2.47.776-3.51 1.758-5.188 3.687l-2-1z"/><path fill="#210903" d="m325 258 3 1-5 5-.375-1.937L322 260l-2-1h3l1 1z"/><path fill="#086ACD" d="m156 250 6 1 1 6c-4-1.333-4.838-3.496-7-7"/><path fill="#270600" d="m366 240 2 4-1.812.313c-2.47.776-3.51 1.758-5.188 3.687l-2-1z"/><path fill="#210903" d="m341 242 3 1-5 5-.375-1.937L338 244l-2-1h3l1 1z"/><path fill="#001235" d="m279 232 1 2c-.937 2.125-.937 2.125-2 4h-5l-1-4 1.813.688L276 235c1.772-1.354 1.772-1.354 3-3"/><path fill="#086ACD" d="m140 234 6 1 1 6c-4-1.333-4.838-3.496-7-7"/><path fill="#270600" d="m382 224 2 4-1.812.313c-2.47.776-3.51 1.758-5.188 3.687l-2-1z"/><path fill="#210903" d="m357 226 3 1-5 5-.375-1.937L354 228l-2-1h3l1 1z"/><path fill="#086ACD" d="m124 218 6 1 1 6c-4-1.333-4.838-3.496-7-7"/><path fill="#0A77E6" d="M291 211h3v2l4 1-4 3c-1.5-1.312-1.5-1.312-3-3z"/><path fill="#270600" d="m398 208 2 4-1.812.313c-2.47.776-3.51 1.758-5.188 3.687l-2-1z"/><path fill="#210903" d="m373 210 3 1-5 5-.375-1.937L370 212l-2-1h3l1 1z"/><path fill="#DB6217" d="m405 196 3 3-7 6v-3h2l1-3z"/><path fill="#170602" d="M195 193h4v2l3 1-4 3v-3l-3-1z"/><path fill="#1272E9" d="M122 190h2l-1 3 4 2-4 3-3-6z"/><path fill="#2D0500" d="M236 160h4v2l4 1-1 4a858 858 0 0 1-3.5-2.937l-1.969-1.653L236 161z"/><path fill="#0F0F0F" d="m153 346 4 3 2-1 1 3-3 2-5-6z"/><path fill="#00183D" d="M204 279h9l-3 4c-1.875-.312-1.875-.312-4-1z"/><path fill="#1171D8" d="m275 231 4 2-3 3-4-2z"/><path fill="#010D21" d="m113 208 5 5h-2v2l-3-1z"/><path fill="#1473DC" d="M124 200q1.724 1.432 3.438 2.875l1.933 1.617C131 206 131 206 132 208l-4-1v-2h-3z"/><path fill="#01142F" d="m280 185 6 5c-3 1-3 1-5.187.063L279 189zm-16-16 6 5c-3 1-3 1-5.187.063L263 173z"/><path fill="#441001" d="m244 167 4 1c-.35 3.242-.562 4.615-3.062 6.813L243 176l-2-1 2.063-1.75L245 171c-.136-2.219-.136-2.219-1-4"/><path fill="#01142F" d="m248 153 6 5c-3 1-3 1-5.187.063L247 157zm-16-16 6 5c-3 1-3 1-5.187.063L231 141z"/><path fill="#380F00" d="m298 118 1 2c-2.478 3.452-3.796 5.232-8 6l2.938-3.437 1.652-1.934A50 50 0 0 1 298 118"/><path fill="#250500" d="m310 296 2 4-1.75.375c-2.62.65-2.62.65-6.25 2.625z"/><path fill="#1171CD" d="m204 298 1.875.563c2.167.674 2.167.674 4.125-.563l2 2-4 3z"/><path fill="#0978E4" d="m222 282 6 1-4 4-2-2z"/><path fill="#001649" d="M288 193c2.5 1.813 2.5 1.813 5 4v3l-3 1v-5h-2z"/><path fill="#001126" d="m104 194 4 1-3 4 1 2h-3z"/><path fill="#0A6BD7" d="m129 173 2 3-3 2-1 3-3-3zm16-16 2 3-3 2-1 3-3-3zm16-16 2 3-3 2-1 3-3-3z"/><path fill="#EA601D" d="m280 132 4 1-7 6v-3h2z"/><path fill="#0A6BD7" d="m177 125 2 3-3 2-1 3-3-3zm16-16 2 3-3 2-1 3-3-3z"/><path fill="#070507" d="m308 300 3 1 1 3h-7z"/><path fill="#0A79E0" d="m218 286 4 1v3l-3 2z"/><path fill="#176EDB" d="m242 263 4 1c-1.75 3.875-1.75 3.875-4 5z"/><path fill="#0A78E2" d="m286 218 6 1-4 4-2-2z"/><path fill="#011733" d="m210 115 6 5c-3 2-3 2-5 2z"/></svg>