<svg xmlns="http://www.w3.org/2000/svg" width="50" height="50" fill="none"><g clip-path="url(#a)"><path fill="#4520E6" d="M24.954 50c13.807 0 25-11.193 25-25s-11.193-25-25-25-25 11.193-25 25 11.193 25 25 25"/><path fill="#fff" fill-rule="evenodd" d="M33.719 30.518c0 2.577-2.057 4.674-4.586 4.674H20.34l9.138-9.312c2.365.183 4.24 2.181 4.24 4.638m-14.542-5.22V14.53H29.42q.263 0 .518.028zm16.614-6.011a6.52 6.52 0 0 0-2.697-5.282L37.5 9.583l-2.636.015-3.5 3.513a6.4 6.4 0 0 0-2.061-.337h-12.05v17.13l14.508-14.56a4.66 4.66 0 0 1 2.177 3.943c0 2.565-2.08 4.652-4.635 4.652h-.384l-16.141 16.2h2.62l3.165-3.176h10.74c3.577 0 6.488-2.921 6.488-6.512a6.51 6.51 0 0 0-3.158-5.578 6.52 6.52 0 0 0 3.158-5.586" clip-rule="evenodd"/></g><defs><clipPath id="a"><path fill="#fff" d="M0 0h50v50H0z"/></clipPath></defs></svg>