<svg xmlns="http://www.w3.org/2000/svg" width="1706.667" height="1706.667" version="1.0" viewBox="0 0 1280 1280"><path d="M260 427.2c-9.6.7-18.2 3.5-28.6 9.3-8.6 4.8-23.7 19.6-28.7 28.2-13.8 23.8-14.1 53.7-.7 87.5 4.3 10.9 12.3 26.4 17.1 33.5l3 4.3-2.1 8c-2.8 11.3-7.4 19.6-21.2 37.8-13.4 17.7-21.3 32.3-25 46.2-2 7.6-2.3 10.8-2.3 29.5 0 18.4.3 22.1 2.2 29.7 6.3 24.9 18.8 45.2 36.7 59.6 13.8 11.1 29 18.7 47.7 23.7 18 4.8 25.7 5.7 57.9 6.2l30.5.6 5.8 5.3c6.4 5.7 18.2 12.3 26.2 14.5 3.6 1 11.4 1.4 28 1.4 22.3 0 23.2-.1 30.2-2.6 8.2-3 19.7-10.3 24.1-15.3l2.9-3.4 31.4-.5c35.3-.6 45-1.8 64.6-8.1 45-14.6 72.8-47.3 79.4-93.4 1.4-10.3.6-35.2-1.4-44.2-3.8-16.7-10.2-28.7-26.4-50.3-12.6-16.6-17.6-25.7-20.3-36.5l-2-8.1 2.9-4.3c9.4-13.9 19.4-36.8 23.7-54.1 5.7-23.1 4.2-43.2-4.7-61.5-9.5-19.7-28.3-35.4-49-41.2-15.7-4.3-35.2-2.1-54.1 6-9.8 4.2-28.4 16.2-36.9 23.8l-5.5 5-9.6-2.3c-29.3-7.1-71.2-7.1-100.3-.1l-10 2.4-4.1-3.8c-10.4-9.6-28-20.9-40.7-26.1-14.1-5.8-26.3-7.9-40.7-6.7m508 1.5c0 1.6.7 6.8 1.6 11.7 4.8 27.8 19.1 50.4 38.6 61.4l4.8 2.7v51.1l-3.2 1.6c-11.4 5.4-24 19-30.8 33.2-8.5 17.7-11.5 32.7-10.7 54.1.6 17 2.6 26.6 8.6 40.5 6.9 16 17.7 29.1 29.9 36l6.1 3.5.1 25.7V776l-3.2 1.3c-10.4 4.4-23.5 18.4-30.8 32.7-5.2 10.2-11 32-11 41.2v2.9l15.3-.3 15.2-.3.5-12.5c.5-9.7 1.1-13.5 2.7-17.1 2-4.5 8.7-12.9 10.3-12.9.4 0 1 2.8 1.4 6.2 1.2 12.1 8.2 19.3 18.7 19.3s17.3-7.2 18.6-19.5c.3-3.3.9-6 1.3-6 1.5 0 7.7 7.7 10 12.5 2.1 4.2 2.5 7 3 17.5l.5 12.5 15.3.3 15.2.3v-2.9c0-9.5-5.5-30.4-10.7-40.7-6.8-13.4-17.6-25.5-28.1-31.5l-6.1-3.5v-51l6.2-3.5c7.4-4.2 16.8-13.3 22.2-21.5 5.2-7.9 11.1-21.7 13.6-31.9 2.9-11.5 3.7-35 1.5-47.2-5.1-29.5-21.4-54.8-40.8-63.5l-2.8-1.2v-25.6l.1-25.6 6.1-3.5c20-11.4 35.5-38.9 38.4-67.8l.7-7.3-15.4.3-15.4.3-.5 12.5c-.5 10.5-.9 13.3-3 17.5-2.3 4.8-8.5 12.5-10 12.5-.4 0-1-2.8-1.4-6.2-1.1-11.1-7.2-18.1-16.9-19.4-10.3-1.4-18.9 6.8-20.2 19.2-.4 3.5-1.1 6.4-1.5 6.4-1.6 0-8.3-8.4-10.3-12.9-1.6-3.6-2.2-7.4-2.7-17.1l-.5-12.5-15.2-.3-15.3-.3zM861.8 603l2.7 5.5V640c0 30.1-.1 31.7-2.1 36.1-2.1 4.5-8.9 12.9-10.4 12.9-.4 0-1-2.8-1.4-6.2-1.2-12.1-8.1-19.1-18.6-19.1-10.4 0-17.3 6.9-18.5 18.9-.4 3.5-1.1 6.4-1.5 6.4-1.5 0-7.7-7.7-10.1-12.5-2.4-5-2.4-5.1-2.4-36.5 0-30.1.1-31.7 2.1-36.1 2.1-4.5 8.9-12.9 10.4-12.9.4 0 1 2.6 1.4 5.7 1.6 14.1 10.7 21.9 22.3 19.2 9-2 14-8.4 15-19.4l.6-6.6 3.9 3.8c2.1 2.1 5.1 6.3 6.6 9.3M1027 434.8v8.9l-4.2 1.9c-2.4 1-4.5 2.1-4.8 2.4s-2.1 1.7-4 3.1c-14.6 10.9-26 31.2-31.2 55.4-2.1 10-1.6 36.3 1 47.2 5.9 25.4 20.2 47.3 37 56.1l6.2 3.3v53.7l-4.2 2.2c-25.1 13-41.8 46.4-41.8 83 .1 22.5 7.4 46.8 18.7 62.1 5.6 7.5 14.9 15.9 21.6 19.4l5.7 3V854h37v-17.5l6.2-3.4c3.4-1.9 9.1-6.2 12.5-9.6 3.5-3.4 6.7-5.9 7.1-5.6q.6.45 0-.3c-.4-.5 1.1-3.5 3.3-6.7 4.8-7.1 10.3-19.6 12.8-29.4 11.5-43.6-4.5-93.7-35.2-110.9l-6.7-3.8v-53.6l6.6-3.7c6.2-3.5 15.2-11.6 20.2-18.3 6.8-9.2 13.7-25.6 16.6-39.8 8.8-42.1-8.5-89.6-38.1-105.2l-5.3-2.7V426h-37zm3.2 62c5.7 8.6 17.9 10.7 25.6 4.5 5.2-4.3 7.3-8.2 8.1-16l.7-6.8 4.6 4.7c2.9 2.9 5.4 6.7 6.7 10.4 2.1 5.5 2.2 7.1 1.9 36.3l-.3 30.6-2.7 5c-1.4 2.7-4.5 6.8-6.7 9l-4.1 3.9V573c0-7.4-3.5-14.7-8.6-18.3-5.2-3.6-13.7-3.8-19.5-.5-2.2 1.2-3.9 2.6-3.9 3 0 .5-.6.6-1.2.2-.7-.4-1-.4-.6 0 .4.5-.2 2.4-1.2 4.4-1 2.1-2.1 6.3-2.5 9.4-.3 3.2-1 5.8-1.4 5.8-.9 0-5.2-4.6-7.8-8.5-4.8-7-5.4-12.3-5.1-42.7.3-28.1.3-28.3 2.9-33.8 1.4-3 4.6-7.4 7-9.8l4.4-4.3.5 7.4c.5 5.8 1.2 8.4 3.2 11.5m.2 220.2c5.6 8.5 17.3 10.5 25.7 4.4 4.7-3.4 9.4-13.1 8.4-17.3-.6-2.2-.5-2.3 1.2-1 6.8 5.3 10.8 12.4 12.3 21.5 1.3 7.5 1.2 43.6 0 53.1-.5 4-1.9 9.1-3 11.3-2.2 4.4-8.7 12-10.1 12-.5 0-.9-2.9-.9-6.4 0-14.6-6.9-22.6-19.3-22.6-4.4 0-6.2.6-9.5 3-6 4.3-7.6 8-8.2 18.3l-.5 8.8-4.4-4.3c-2.4-2.4-5.6-6.8-7-9.8l-2.6-5.5v-61l3.3-6.7c1.8-3.6 4.9-8.1 7-9.9l3.7-3.3.6 5.7c.4 3.7 1.6 7.1 3.3 9.7"/></svg>