<svg xmlns="http://www.w3.org/2000/svg" width="50" height="50" fill="none"><g clip-path="url(#a)"><path fill="#FF005C" d="M24.953.08c-1.876 0-3.752.19-5.628.662v31.004c0 .661-.563 1.134-1.126 1.134h-2.252a.844.844 0 0 1-.844-.851V2.065C6.191 5.846 0 14.731 0 24.94c0 13.8 11.163 24.954 25.047 24.954S50 38.74 50 25.034 38.743.08 24.953.08m-.469 35.257c0 .567-.469 1.04-1.032 1.04h-2.251a1.045 1.045 0 0 1-1.032-1.04V19.552c0-.567.469-1.04 1.032-1.04h2.251c.563 0 1.032.473 1.032 1.04zm5.066 1.513c0 .567-.47 1.04-1.032 1.04h-2.251a1.045 1.045 0 0 1-1.032-1.04V18.04c0-.567.469-1.04 1.032-1.04h2.25c.564 0 1.033.473 1.033 1.04zm5.065-2.836c0 .567-.469 1.04-1.032 1.04h-2.25a1.045 1.045 0 0 1-1.033-1.04v-12.95c0-.567.47-1.04 1.032-1.04h2.252c.562 0 1.031.473 1.031 1.04z"/><path fill="url(#b)" fill-opacity=".4" d="M24.953.08c-1.876 0-3.752.19-5.628.662v31.004c0 .661-.563 1.134-1.126 1.134h-2.252a.844.844 0 0 1-.844-.851V2.065C6.191 5.846 0 14.731 0 24.94c0 13.8 11.163 24.954 25.047 24.954S50 38.74 50 25.034 38.743.08 24.953.08m-.469 35.257c0 .567-.469 1.04-1.032 1.04h-2.251a1.045 1.045 0 0 1-1.032-1.04V19.552c0-.567.469-1.04 1.032-1.04h2.251c.563 0 1.032.473 1.032 1.04zm5.066 1.513c0 .567-.47 1.04-1.032 1.04h-2.251a1.045 1.045 0 0 1-1.032-1.04V18.04c0-.567.469-1.04 1.032-1.04h2.25c.564 0 1.033.473 1.033 1.04zm5.065-2.836c0 .567-.469 1.04-1.032 1.04h-2.25a1.045 1.045 0 0 1-1.033-1.04v-12.95c0-.567.47-1.04 1.032-1.04h2.252c.562 0 1.031.473 1.031 1.04z"/></g><defs><linearGradient id="b" x1="25" x2="25" y1=".08" y2="49.894" gradientUnits="userSpaceOnUse"><stop stop-color="#00E0FF"/><stop offset="1" stop-color="#00E0FF" stop-opacity="0"/></linearGradient><clipPath id="a"><path fill="#fff" d="M0 0h50v50H0z"/></clipPath></defs></svg>