<svg xmlns="http://www.w3.org/2000/svg" width="50" height="50" fill="none"><g clip-path="url(#a)"><path fill="#7B2BF9" d="M25 50c13.807 0 25-11.193 25-25S38.807 0 25 0 0 11.193 0 25s11.193 25 25 25"/><path fill="#fff" d="M42.97 21.18c-.72-3.45-2.43-6.61-4.98-9.16A18.24 18.24 0 0 0 25 6.64c-4.91 0-9.52 1.9-12.99 5.37-.85.85-1.59 1.76-2.24 2.72-.19.26-.37.53-.52.82-1.7 2.83-2.61 6.06-2.61 9.45 0 4.91 1.91 9.52 5.38 12.99s8.08 5.38 12.99 5.38 9.52-1.91 12.99-5.38c1.63-1.63 2.93-3.53 3.84-5.58.11-.22.2-.46.29-.7.83-2.1 1.26-4.37 1.26-6.7 0-1.23-.12-2.4-.36-3.58-.01-.06-.05-.21-.06-.25m-6.37-8.39c.1.1.21.2.32.31a16.8 16.8 0 0 1 3.71 5.58c.08.2-.09.43-.32.39-.48-.09-1.03-.12-1.63-.11a.85.85 0 0 1-.86-.69c-.33-1.84-.81-3.53-1.41-5.01-.03-.08-.07-.16-.1-.26-.08-.19.15-.36.29-.21m1.75 10.77c0-.19.24-.28.36-.12l.4.58c.17.26.33.52.47.78.09.16.07.36-.05.5-.19.21-.41.44-.64.67l-.26.26c-.11.1-.3.02-.29-.12.01-.28.02-.55.02-.84.01-.59.01-1.15-.01-1.71M15.22 11.28A16.72 16.72 0 0 1 25 8.16c.94 0 1.87.08 2.78.22.24.04.33.35.13.5-.88.69-1.69 1.71-2.42 3.03-.17.33-.55.48-.91.38-2.4-.67-4.76-.99-6.94-.92-.81.03-1.56.11-2.28.24-.2.05-.3-.21-.14-.33m-2.4 25.17c-.36-.66.1-2.21 2.43-4.57a.58.58 0 0 0-.05-.86c-.09-.07-.18-.14-.28-.22a.594.594 0 0 0-.78.04l-.09.09c-1.16 1.19-1.98 2.3-2.43 3.3a.39.39 0 0 1-.69.05c-1.81-2.72-2.78-5.92-2.78-9.27 0-1.19.12-2.38.37-3.52.04-.17.28-.18.34-.01.35 1.15.92 2.35 1.7 3.55 1.06 1.62 2.45 3.18 4.11 4.62.56.49 1.16.96 1.79 1.42 1.27.93 2.63 1.78 4.09 2.53.64.34 1.28.65 1.92.95.36.16.77.17 1.13.03.31-.12.61-.24.92-.37.34-.14.52-.5.43-.86-.01-.04-.02-.08-.02-.1-.51-2.13-.79-4.54-.83-7.05v-1.19c0-.59.02-.86.04-1.29.15-3.04.67-5.89 1.49-8.3a.43.43 0 0 0-.27-.54c-.21-.07-.43-.14-.65-.21a.43.43 0 0 0-.53.27c-.89 2.61-1.44 5.7-1.58 8.97-.02.42-.24.8-.6 1.01a49 49 0 0 0-5.26 3.59.86.86 0 0 1-1.09-.02c-1.54-1.34-2.84-2.79-3.82-4.3-1.93-2.96-2.39-5.74-1.29-7.85l.01-.01c.14-.23.29-.46.44-.68 1.26-1.66 3.6-2.63 6.71-2.74.19-.01.4-.01.59-.01 1.91 0 3.95.32 6.03.92.04.01.34.1.4.12.53.17 1.43.48 1.55.52.05.02.33.13.37.14 1.02.4 2.03.85 3.03 1.37 1.94 1.01 3.71 2.19 5.27 3.49-2.95.67-6.38 1.98-9.83 3.73-.16.08-.27.24-.28.42-.01.21-.03.64-.04.99-.01.21.22.36.41.26 3.42-1.8 6.83-3.13 9.76-3.85.55-.13.9-.65.83-1.21-.05-.39-.11-.78-.18-1.15-.08-.47-.35-.9-.72-1.18-1.37-1.04-2.88-2-4.5-2.85-1.09-.57-2.19-1.06-3.31-1.49a.413.413 0 0 1-.21-.59c1.14-2.04 2.5-3.18 3.83-3.18h.04c1.56.03 3.11 1.65 4.27 4.46.58 1.42 1.03 3.06 1.35 4.84.09.5.16 1.01.22 1.53.03.27.08.68.11.86a38.3 38.3 0 0 1 .02 6.87c-2.09 1.68-4.67 3.37-7.51 4.87-.77.4-1.54.79-2.3 1.15-.16.08-.82.37-.86.39-.72.33-1.43.62-2.14.9-.04.02-.84.32-.89.34-.06.02-.47.17-.52.19-1.53.54-3 .95-4.34 1.21-3.39.65-4.98.15-5.33-.52m4.61-6.54a44 44 0 0 1 5.13-3.56c.04 2.44.31 4.79.79 6.9-.7-.31-1.41-.63-2.11-1a29.4 29.4 0 0 1-3.81-2.34m9.74 11.8c-.71.09-1.44.14-2.17.14-3.28 0-6.41-.93-9.09-2.66-.18-.12-.1-.41.11-.42.04 0 .09 0 .12-.01.68-.04 1.43-.14 2.24-.3 1.72-.34 3.64-.9 5.65-1.67.18-.07.38.02.46.2.78 1.9 1.73 3.33 2.82 4.24.19.16.1.45-.14.48m7.13-4.5c-1.2 2.37-2.68 3.69-4.12 3.66-1.56-.03-3.11-1.65-4.27-4.46-.07-.17.01-.38.18-.46.01-.01.02-.01.04-.02.07-.03.16-.04.24-.02 2.15.6 4.28.92 6.27.92.21 0 .43 0 .64-.01.24-.01.49-.02.73-.04.23 0 .39.23.29.43m.52-2.04c-.5.07-1.03.12-1.58.14-1.35.05-2.78-.07-4.24-.34-.18-.03-.21-.28-.05-.36.32-.16.64-.33.96-.5 2.24-1.19 4.34-2.49 6.17-3.82.13-.1.33.02.3.18-.26 1.53-.6 2.97-1.05 4.27-.09.24-.28.4-.51.43m2.49 1.34c-.12.13-.26.27-.39.4-.22.22-.47.45-.7.66-.15.13-.38-.03-.3-.21.02-.05.05-.1.07-.16.1-.22.19-.45.3-.68.02-.05.07-.09.12-.11.23-.06.47-.13.69-.2.2-.06.34.17.21.3m3.38-5.34c-.07.17-.13.34-.21.51-.02.03-.12.24-.13.27-.56 1.03-1.48 1.84-2.68 2.41a.359.359 0 0 1-.5-.42c.42-1.48.72-3.08.93-4.77.04-.32.19-.6.43-.81.51-.44.99-.89 1.43-1.33.21-.21.58-.12.67.17.43 1.45.46 2.8.06 3.97m.34-7.89c-.12.22-.45.23-.59.02-.02-.03-.04-.07-.06-.1-.5-.78-1.08-1.53-1.72-2.27-.16-.18-.03-.46.21-.47h.01c1.51 0 2.3.38 2.54.83.19.38.13 1.05-.39 1.99m.82 2.22c0 .11-.16.14-.2.04-.02-.04-.04-.09-.06-.13a.25.25 0 0 1 .03-.26c.01-.01.03-.04.06-.08.07-.09.18-.08.18.02-.01.14-.01.27-.01.41"/></g><defs><clipPath id="a"><path fill="#fff" d="M0 0h50v50H0z"/></clipPath></defs></svg>