<?xml version="1.0" encoding="UTF-8"?>
<svg xmlns="http://www.w3.org/2000/svg" version="1.1" xmlns:xlink="http://www.w3.org/1999/xlink" viewBox="0 0 703 196">
  <defs>
    <style>
      .cls-1 {
        fill: url(#linear-gradient-2);
      }

      .cls-2 {
        fill: #fff;
      }

      .cls-3 {
        fill: url(#linear-gradient-3);
      }

      .cls-4 {
        fill: url(#linear-gradient);
      }
    </style>
    <linearGradient id="linear-gradient" x1="94.7" y1="17" x2="94.7" y2="173" gradientUnits="userSpaceOnUse">
      <stop offset="0" stop-color="#009aff"/>
      <stop offset=".5" stop-color="#046cfe"/>
      <stop offset="1" stop-color="#c804dd"/>
    </linearGradient>
    <linearGradient id="linear-gradient-2" x1="51.9" y1="17" x2="51.9" y2="173" xlink:href="#linear-gradient"/>
    <linearGradient id="linear-gradient-3" x1="137.5" y1="17" x2="137.5" y2="173" xlink:href="#linear-gradient"/>
  </defs>
  <!-- Generator: Adobe Illustrator 28.6.0, SVG Export Plug-In . SVG Version: 1.2.0 Build 709)  -->
  <g>
    <g id="Layer_1">
      <path class="cls-2" d="M366.1,66.9c-4.7,0-9.2,1.3-13.1,3.9-1.9,1.3-3.7,2.7-5.1,4.4-1.5-1.7-3.2-3.2-5.1-4.4-4-2.6-8.4-3.9-13.2-3.9s-12.4,2.4-17.1,7.1c-4.7,4.7-7.1,10.4-7.1,17.1v36.2h12v-36.2c0-3.4,1.2-6.3,3.6-8.7,2.4-2.4,5.3-3.6,8.7-3.6s6.3,1.2,8.7,3.6c2.4,2.4,3.6,5.3,3.6,8.7v36.2h12v-36.2c0-3.4,1.2-6.3,3.6-8.7,2.4-2.4,5.3-3.6,8.7-3.6s6.3,1.2,8.7,3.6c2.4,2.4,3.6,5.3,3.6,8.7v36.2h12v-36.2c0-6.7-2.4-12.4-7.1-17.1-4.7-4.7-10.5-7.1-17.1-7.1Z"/>
      <path class="cls-2" d="M551,68.8h-12v58.5h12v-58.5Z"/>
      <path class="cls-2" d="M588.1,66.9c-7.5,0-14,2.7-19.3,8-5.3,5.3-8,11.8-8,19.3v33.2h12v-33.2c0-4.3,1.5-7.8,4.5-10.9,3-3,6.6-4.5,10.9-4.5s3.2.3,4.7.8l5.3,1.7v-12.7l-3-.8c-2.3-.6-4.6-.9-7-.9Z"/>
      <path class="cls-2" d="M618.3,68.8h-12v58.5h12v-58.5Z"/>
      <path class="cls-2" d="M656.7,78.8c5.4,0,9.8,1.8,13.7,5.6,3.8,3.8,5.7,8.3,5.7,13.6s-1.8,9.8-5.7,13.6c-3.8,3.8-8.3,5.6-13.7,5.6s-9.8-1.8-13.7-5.6c-3.8-3.8-5.7-8.3-5.7-13.6s1.8-9.8,5.7-13.6c3.8-3.8,8.3-5.6,13.7-5.6ZM678.8,76.1c-6.1-6.1-13.5-9.2-22.1-9.2s-16,3.1-22.1,9.2c-6.1,6.1-9.1,13.5-9.1,22s3.1,16,9.1,22.1c6.1,6.1,13.5,9.1,22.1,9.1s10.8-1.4,15.6-4.2c1.3-.8,2.5-1.6,3.7-2.5v4.8h12v-29.2c0-8.6-3.1-16-9.2-22Z"/>
      <path class="cls-2" d="M528.6,118.1c0,4-3.3,7.3-7.3,7.3s-7.3-3.3-7.3-7.3,3.3-7.3,7.3-7.3,7.3,3.3,7.3,7.3Z"/>
      <path class="cls-2" d="M298.9,98.1c0-17.2-14-31.2-31.3-31.2s-24,7.8-28.8,19h14c3.5-4.2,8.8-6.9,14.7-6.9s15.2,5.2,18,12.4h-48.5c-.5,2.2-.8,4.5-.8,6.8,0,17.2,14,31.2,31.3,31.2s23.1-7.2,28.2-17.6h-14.7c-3.5,3.4-8.2,5.6-13.5,5.6-8.7,0-16-5.8-18.4-13.7h49.2c.3-1.8.5-3.6.5-5.5Z"/>
      <path class="cls-2" d="M530.8,98.1c0-17.2-14-31.2-31.3-31.2s-24,7.8-28.8,19h14c3.5-4.2,8.8-6.9,14.7-6.9s15.2,5.2,18,12.4h-48.5c-.5,2.2-.8,4.5-.8,6.8,0,17.2,14,31.2,31.3,31.2s5.4-.4,7.9-1v-12.8c-2.4,1.1-5.1,1.7-7.9,1.7-8.7,0-16-5.8-18.4-13.7h49.2c.3-1.8.5-3.6.5-5.5Z"/>
      <path class="cls-2" d="M452.6,76.1c-6.1-6.1-13.5-9.1-22.1-9.1s-16,3.1-22.1,9.1c-6.1,6.1-9.2,13.5-9.2,22.1v48h12v-23.5s0,0,0,0v-24.3c0,0,0-.1,0-.2s0-.1,0-.2h0s0,0,0,0c0-5.3,1.9-9.7,5.6-13.4,3.8-3.8,8.3-5.7,13.7-5.7s9.8,1.9,13.6,5.7c3.8,3.8,5.7,8.3,5.7,13.6s-1.9,9.8-5.7,13.6c-3.8,3.8-8.3,5.6-13.6,5.6s-9.8-1.8-13.7-5.6c-.6-.6-1.2-1.3-1.7-2v15.5c4.7,2.7,9.9,4.1,15.4,4.1,8.6,0,16-3.1,22.1-9.2,6.1-6,9.2-13.5,9.2-22s-3.1-16-9.2-22.1Z"/>
      <g>
        <path class="cls-4" d="M65.9,85.9h14c3.5-4.3,8.8-7.1,14.8-7.1s15.2,5.2,18,12.5h-30.6s-17.9,0-17.9,0c-.5,2.2-.7,4.4-.7,6.7,0,17.3,14,31.3,31.2,31.3s23.2-7.4,28.2-18h-14.5c-3.5,3.6-8.4,5.9-13.8,5.9-8.7,0-16.1-5.9-18.4-13.9h36.8s0,0,0,0h12.4c.3-1.7.5-3.5.5-5.3,0-17.3-14-31.3-31.2-31.3s-24,7.9-28.8,19.1h0Z"/>
        <path class="cls-1" d="M15.1,98c0,42,32.5,76.5,73.6,79.6v-36.5c-21.1-2.9-37.3-21.1-37.3-43.1s16.3-40.1,37.3-43.1V18.4C47.6,21.5,15.1,56,15.1,98h0ZM27.2,98c0-31.1,21-57.3,49.5-65.3v12.8c-21.7,7.5-37.3,28.2-37.3,52.5s15.6,45,37.3,52.5v12.7c-28.5-7.9-49.5-34.2-49.5-65.3h0Z"/>
        <path class="cls-3" d="M100.7,55c21.1,2.9,37.3,21.1,37.3,43.1s-16.3,40.1-37.3,43.1v36.5c41.1-3.1,73.6-37.6,73.6-79.6S141.8,21.5,100.7,18.4v36.6h0ZM112.7,150.6c21.7-7.5,37.4-28.2,37.4-52.5s-15.7-45-37.4-52.5v-12.8c28.5,7.9,49.5,34.2,49.5,65.3s-21,57.4-49.5,65.3v-12.7h0Z"/>
      </g>
    </g>
  </g>
</svg>