<svg xmlns="http://www.w3.org/2000/svg" width="1281" height="1281"><svg xmlns="http://www.w3.org/2000/svg" width="1281" height="1281" fill="none" viewBox="0 0 1281 1281"><g clip-path="url(#clip0_1023_37093)"><path fill="#121935" d="M640.5.488c-353.44 0-640 286.56-640 640s286.56 640.002 640 640.002 640-286.562 640-640.002-286.56-640-640-640"/><path fill="#7F9FC2" d="M515.932 412.911c5.48 0 9.923-4.442 9.923-9.922s-4.443-9.923-9.923-9.923-9.922 4.443-9.922 9.923 4.442 9.922 9.922 9.922m117.211 0c5.48 0 9.923-4.442 9.923-9.922s-4.443-9.923-9.923-9.923-9.922 4.443-9.922 9.923 4.442 9.922 9.922 9.922"/><path stroke="#7F9FC2" stroke-miterlimit="10" stroke-width="3.227" d="M515.934 402.992h117.209"/><path fill="#7F9FC2" d="M785.079 229.966c5.48 0 9.922-4.442 9.922-9.922s-4.442-9.923-9.922-9.923-9.923 4.443-9.923 9.923 4.443 9.922 9.923 9.922m160.623 0c5.48 0 9.922-4.442 9.922-9.922s-4.442-9.923-9.922-9.923-9.923 4.443-9.923 9.923 4.443 9.922 9.923 9.922"/><path stroke="#7F9FC2" stroke-miterlimit="10" stroke-width="3.227" d="m785.08 220.047 38.016 38.45h82.356l40.248-38.45"/><path fill="#7F9FC2" d="M253.608 807.333c5.48 0 9.923-4.442 9.923-9.922s-4.443-9.923-9.923-9.923-9.922 4.443-9.922 9.923 4.442 9.922 9.922 9.922m160.619 0c5.48 0 9.923-4.442 9.923-9.922s-4.443-9.923-9.923-9.923-9.922 4.443-9.922 9.923 4.442 9.922 9.922 9.922"/><path stroke="#7F9FC2" stroke-miterlimit="10" stroke-width="3.227" d="m253.607 797.41 38.016 38.45h82.357l40.248-38.45"/><path fill="#7F9FC2" d="M812.989 182.212c5.48 0 9.922-4.442 9.922-9.922s-4.442-9.923-9.922-9.923-9.923 4.443-9.923 9.923 4.443 9.922 9.923 9.922m69.455 0c5.48 0 9.922-4.442 9.922-9.922s-4.442-9.923-9.922-9.923-9.923 4.443-9.923 9.923 4.443 9.922 9.923 9.922"/><path stroke="#7F9FC2" stroke-miterlimit="10" stroke-width="3.227" d="M812.986 172.285h69.458"/><path fill="#7F9FC2" d="M805.068 184.342c5.215-1.684 8.077-7.277 6.392-12.492s-7.278-8.077-12.492-6.392-8.077 7.277-6.392 12.492 7.277 8.077 12.492 6.392m46.311 54.309c5.214-1.685 8.076-7.278 6.392-12.493s-7.278-8.076-12.493-6.392-8.076 7.278-6.392 12.493c1.685 5.214 7.278 8.076 12.493 6.392"/><path stroke="#7F9FC2" stroke-miterlimit="10" stroke-width="3.227" d="m804.002 184.91 44.31 44.31"/><path fill="#7F9FC2" d="M836.711 808.459c5.214-1.684 8.076-7.277 6.392-12.492s-7.278-8.077-12.493-6.392-8.076 7.277-6.392 12.492 7.278 8.077 12.493 6.392m24.308 24.317c5.215-1.685 8.077-7.278 6.392-12.493s-7.277-8.076-12.492-6.392-8.077 7.278-6.392 12.493c1.684 5.214 7.277 8.076 12.492 6.392"/><path stroke="#7F9FC2" stroke-miterlimit="10" stroke-width="3.227" d="m833.637 799.023 24.31 24.311"/><path fill="#7F9FC2" d="M687.38 1181.92c5.215-1.68 8.077-7.27 6.393-12.49-1.685-5.21-7.278-8.07-12.493-6.39s-8.076 7.28-6.392 12.49c1.685 5.22 7.278 8.08 12.492 6.39"/><path stroke="#7F9FC2" stroke-miterlimit="10" stroke-width="3.227" d="m641.389 1129.56 42.914 42.92"/><path fill="#7F9FC2" d="M763.995 479.888c5.48 0 9.922-4.442 9.922-9.923s-4.442-9.922-9.922-9.922-9.923 4.442-9.923 9.922 4.443 9.923 9.923 9.923m117.213 0c5.48 0 9.922-4.442 9.922-9.923s-4.442-9.922-9.922-9.922-9.923 4.442-9.923 9.922 4.443 9.923 9.923 9.923"/><path stroke="#7F9FC2" stroke-miterlimit="10" stroke-width="3.227" d="M763.996 469.965h117.21"/><path fill="#7F9FC2" d="M144.806 590.053c3.254-4.408 2.319-10.621-2.09-13.875-4.409-3.255-10.621-2.319-13.876 2.089-3.254 4.409-2.319 10.621 2.09 13.876s10.621 2.319 13.876-2.09m102.697 84.739c3.254-4.409 2.319-10.621-2.09-13.876s-10.621-2.319-13.875 2.09c-3.255 4.408-2.32 10.621 2.089 13.875 4.409 3.255 10.621 2.319 13.876-2.089"/><path stroke="#7F9FC2" stroke-miterlimit="10" stroke-width="3.227" d="m154.834 584.203 84.713 84.713"/><path fill="#7F9FC2" d="M963.221 799.892c5.48 0 9.923-4.443 9.923-9.923s-4.443-9.922-9.923-9.922-9.922 4.442-9.922 9.922 4.442 9.923 9.922 9.923m177.209 0c5.48 0 9.92-4.443 9.92-9.923s-4.44-9.922-9.92-9.922-9.92 4.442-9.92 9.922 4.44 9.923 9.92 9.923"/><path stroke="#7F9FC2" stroke-miterlimit="10" stroke-width="3.227" d="M963.221 789.973h137.209"/><path fill="#7F9FC2" d="M933.995 937.568c5.48 0 9.922-4.443 9.922-9.923s-4.442-9.922-9.922-9.922-9.923 4.442-9.923 9.922 4.443 9.923 9.923 9.923m157.445 0c5.48 0 9.92-4.443 9.92-9.923s-4.44-9.922-9.92-9.922-9.92 4.442-9.92 9.922 4.44 9.923 9.92 9.923"/><path stroke="#7F9FC2" stroke-miterlimit="10" stroke-width="3.227" d="M933.996 927.645h107.444"/><path fill="#7F9FC2" d="M471.282 913.997c5.48 0 9.922-4.442 9.922-9.922s-4.442-9.923-9.922-9.923-9.923 4.443-9.923 9.923 4.443 9.922 9.923 9.922m117.211 0c5.48 0 9.922-4.442 9.922-9.922s-4.442-9.923-9.922-9.923-9.923 4.443-9.923 9.923 4.443 9.922 9.923 9.922"/><path stroke="#7F9FC2" stroke-miterlimit="10" stroke-width="3.227" d="M471.281 904.078h117.21"/><path fill="#7F9FC2" d="M439.657 992.142c5.48 0 9.922-4.443 9.922-9.923s-4.442-9.922-9.922-9.922-9.923 4.442-9.923 9.922 4.443 9.923 9.923 9.923m179.223 0c5.48 0 9.922-4.443 9.922-9.923s-4.442-9.922-9.922-9.922-9.923 4.442-9.923 9.922 4.442 9.923 9.923 9.923"/><path stroke="#7F9FC2" stroke-miterlimit="10" stroke-width="3.227" d="M439.654 982.215h179.225"/><path fill="#7F9FC2" d="M1048.48 635.548c5.48 0 9.92-4.442 9.92-9.922s-4.44-9.923-9.92-9.923-9.93 4.443-9.93 9.923 4.45 9.922 9.93 9.922"/><path stroke="#7F9FC2" stroke-miterlimit="10" stroke-width="3.227" d="M1048.48 625.625h112.16"/><path fill="#7F9FC2" d="M1092.68 608.88c5.48 0 9.92-4.442 9.92-9.922s-4.44-9.923-9.92-9.923-9.93 4.443-9.93 9.923 4.45 9.922 9.93 9.922m71.93 0c5.48 0 9.93-4.442 9.93-9.922s-4.45-9.923-9.93-9.923-9.92 4.443-9.92 9.923 4.44 9.922 9.92 9.922"/><path stroke="#7F9FC2" stroke-miterlimit="10" stroke-width="3.227" d="M1092.68 598.957h71.94"/><path fill="#7F9FC2" d="M306.942 810.154c5.48 0 9.923-4.443 9.923-9.923s-4.443-9.922-9.923-9.922-9.922 4.442-9.922 9.922 4.442 9.923 9.922 9.923m53.951 0c5.48 0 9.923-4.443 9.923-9.923s-4.443-9.922-9.923-9.922-9.922 4.442-9.922 9.922 4.442 9.923 9.922 9.923"/><path stroke="#7F9FC2" stroke-miterlimit="10" stroke-width="3.227" d="M306.939 800.23h53.954"/><path fill="#7F9FC2" d="M1036.44 577.876c5.48 0 9.92-4.442 9.92-9.922s-4.44-9.923-9.92-9.923-9.92 4.443-9.92 9.923 4.44 9.922 9.92 9.922m107.09 0c5.48 0 9.92-4.442 9.92-9.922s-4.44-9.923-9.92-9.923-9.92 4.443-9.92 9.923 4.44 9.922 9.92 9.922"/><path stroke="#7F9FC2" stroke-miterlimit="10" stroke-width="3.227" d="M1036.44 567.949h85.58"/><path fill="#7F9FC2" d="M939.499 376.325c5.48 0 9.922-4.442 9.922-9.922s-4.442-9.923-9.922-9.923-9.923 4.443-9.923 9.923 4.443 9.922 9.923 9.922"/><path stroke="#7F9FC2" stroke-miterlimit="10" stroke-width="3.227" d="M939.5 366.402h191.63"/><path fill="#7F9FC2" d="M919.036 830.279c5.48 0 9.922-4.443 9.922-9.923s-4.442-9.922-9.922-9.922-9.923 4.442-9.923 9.922 4.443 9.923 9.923 9.923"/><path stroke="#7F9FC2" stroke-miterlimit="10" stroke-width="3.227" d="M919.035 820.355h253.025"/><path fill="#7F9FC2" d="M982.137 336.63c5.48 0 9.923-4.442 9.923-9.922s-4.443-9.923-9.923-9.923-9.922 4.443-9.922 9.923 4.442 9.922 9.922 9.922"/><path stroke="#7F9FC2" stroke-miterlimit="10" stroke-width="3.227" d="M982.137 326.711H1085.7"/><path fill="#7F9FC2" d="M1053.23 766.4c5.48 0 9.93-4.443 9.93-9.923s-4.45-9.922-9.93-9.922-9.92 4.442-9.92 9.922 4.44 9.923 9.92 9.923"/><path stroke="#7F9FC2" stroke-miterlimit="10" stroke-width="3.227" d="M1053.24 756.48h80.62"/><path fill="#7F9FC2" d="M306.942 878.654c5.48 0 9.923-4.443 9.923-9.923s-4.443-9.922-9.923-9.922-9.922 4.442-9.922 9.922 4.442 9.923 9.922 9.923"/><path stroke="#7F9FC2" stroke-miterlimit="10" stroke-width="3.227" d="M306.94 868.727H125.234"/><path fill="#7F9FC2" d="M1037.85 696.947c5.48 0 9.92-4.443 9.92-9.923s-4.44-9.922-9.92-9.922-9.92 4.442-9.92 9.922 4.44 9.923 9.92 9.923"/><path stroke="#7F9FC2" stroke-miterlimit="10" stroke-width="3.227" d="M1037.85 687.027h88.68"/><path fill="#7F9FC2" d="M1083.38 665.935c5.48 0 9.93-4.443 9.93-9.923s-4.45-9.922-9.93-9.922-9.92 4.442-9.92 9.922 4.44 9.923 9.92 9.923"/><path stroke="#7F9FC2" stroke-miterlimit="10" stroke-width="3.227" d="M1083.38 656.015h95.69l38.27-39.07"/><path fill="#7F9FC2" d="M220.321 756.228c5.48 0 9.922-4.443 9.922-9.923s-4.442-9.922-9.922-9.922-9.923 4.442-9.923 9.922 4.443 9.923 9.923 9.923"/><path stroke="#7F9FC2" stroke-miterlimit="10" stroke-width="3.227" d="m220.32 746.311-67.597-67.659-56 .558"/><path fill="#7F9FC2" d="M199.233 680.572c5.48 0 9.923-4.443 9.923-9.923s-4.443-9.922-9.923-9.922-9.922 4.442-9.922 9.922 4.442 9.923 9.922 9.923"/><path stroke="#7F9FC2" stroke-miterlimit="10" stroke-width="3.227" d="m199.234 670.653-52.713-53.395-49.798.558"/><path fill="#7F9FC2" d="M200.475 593.755c5.48 0 9.923-4.442 9.923-9.922s-4.443-9.923-9.923-9.923-9.922 4.443-9.922 9.923 4.442 9.922 9.922 9.922"/><path stroke="#7F9FC2" stroke-miterlimit="10" stroke-width="3.227" d="m200.475 583.827-39.069-39.132-61.582.558"/><path fill="#7F9FC2" d="M244.508 591.892c5.48 0 9.923-4.443 9.923-9.923s-4.443-9.922-9.923-9.922-9.922 4.442-9.922 9.922 4.442 9.923 9.922 9.923"/><path stroke="#7F9FC2" stroke-miterlimit="10" stroke-width="3.227" d="m244.506 581.969-63.876-63.938-72.124.558"/><path fill="#7F9FC2" d="M239.546 534.837c5.48 0 9.922-4.442 9.922-9.922s-4.442-9.923-9.922-9.923-9.923 4.443-9.923 9.923 4.442 9.922 9.923 9.922"/><path stroke="#7F9FC2" stroke-miterlimit="10" stroke-width="3.227" d="m239.545 524.909-36.59-36.651-90.728.558"/><path fill="#7F9FC2" d="M153.331 799.642c5.48 0 9.922-4.443 9.922-9.923s-4.442-9.922-9.922-9.922-9.923 4.442-9.923 9.922 4.443 9.923 9.923 9.923"/><path stroke="#7F9FC2" stroke-miterlimit="10" stroke-width="3.227" d="m153.328 789.719-48.372-48.434-19.411.558"/><path fill="#7F9FC2" d="M158.723 845.782c5.48 0 9.923-4.442 9.923-9.922s-4.443-9.922-9.923-9.922-9.922 4.442-9.922 9.922 4.442 9.922 9.922 9.922"/><path stroke="#7F9FC2" stroke-miterlimit="10" stroke-width="3.227" d="m158.725 835.858-68.217-68.217"/><path fill="#7F9FC2" d="M217.825 814.532c5.48 0 9.922-4.442 9.922-9.922s-4.442-9.922-9.922-9.922-9.923 4.442-9.923 9.922 4.443 9.922 9.923 9.922"/><path stroke="#7F9FC2" stroke-miterlimit="10" stroke-width="3.227" d="m217.825 804.605-95.504-95.566-42.356.558"/><path fill="#7F9FC2" d="M1079.23 547.49c5.48 0 9.92-4.443 9.92-9.923s-4.44-9.922-9.92-9.922-9.93 4.442-9.93 9.922 4.45 9.923 9.93 9.923"/><path stroke="#7F9FC2" stroke-miterlimit="10" stroke-width="3.227" d="M1079.23 537.566h88.68"/><path fill="#7F9FC2" d="M1079.03 731.052c5.48 0 9.93-4.442 9.93-9.922s-4.45-9.923-9.93-9.923-9.92 4.442-9.92 9.923 4.44 9.922 9.92 9.922"/><path stroke="#7F9FC2" stroke-miterlimit="10" stroke-width="3.227" d="M1079.04 721.125h117.2"/><path fill="#7F9FC2" d="M981.126 899.115c5.48 0 9.922-4.443 9.922-9.923s-4.442-9.922-9.922-9.922-9.923 4.442-9.923 9.922 4.443 9.923 9.923 9.923"/><path stroke="#7F9FC2" stroke-miterlimit="10" stroke-width="3.227" d="M981.129 889.195h172.401"/><path fill="#7F9FC2" d="M980.43 1015.7c5.48 0 9.923-4.44 9.923-9.92s-4.443-9.921-9.923-9.921-9.922 4.441-9.922 9.921 4.442 9.92 9.922 9.92"/><path stroke="#7F9FC2" stroke-miterlimit="10" stroke-width="3.227" d="M980.43 1005.78h87.44"/><path fill="#7F9FC2" d="M730.663 1105.07c5.48 0 9.922-4.44 9.922-9.92s-4.442-9.93-9.922-9.93-9.923 4.45-9.923 9.93 4.443 9.92 9.923 9.92"/><path stroke="#7F9FC2" stroke-miterlimit="10" stroke-width="3.227" d="M730.662 1095.15h166.202"/><path fill="#7F9FC2" d="M217.637 342.22c5.48 0 9.923-4.442 9.923-9.923s-4.443-9.922-9.923-9.922-9.922 4.442-9.922 9.922 4.442 9.923 9.922 9.923m110.389 0c5.48 0 9.923-4.442 9.923-9.923s-4.443-9.922-9.923-9.922-9.922 4.442-9.922 9.922 4.442 9.923 9.922 9.923"/><path stroke="#7F9FC2" stroke-miterlimit="10" stroke-width="3.227" d="M217.637 332.293h110.387"/><path fill="#7F9FC2" d="M337.948 222.525c5.48 0 9.922-4.443 9.922-9.923s-4.442-9.922-9.922-9.922-9.923 4.442-9.923 9.922 4.443 9.923 9.923 9.923"/><path stroke="#7F9FC2" stroke-miterlimit="10" stroke-width="3.227" d="M272.832 212.602h65.116m-22.325-32.868h47.132l57.674-57.054"/><path fill="#7F9FC2" d="M301.358 455.087c5.48 0 9.923-4.442 9.923-9.922s-4.443-9.923-9.923-9.923-9.922 4.443-9.922 9.923 4.442 9.922 9.922 9.922m191.631 0c5.48 0 9.922-4.442 9.922-9.922s-4.442-9.923-9.922-9.923-9.923 4.443-9.923 9.923 4.443 9.922 9.923 9.922"/><path stroke="#7F9FC2" stroke-miterlimit="10" stroke-width="3.227" d="M301.359 445.164h191.629"/><path fill="#7F9FC2" d="M612.059 865.009c5.48 0 9.923-4.442 9.923-9.922s-4.443-9.923-9.923-9.923-9.922 4.443-9.922 9.923 4.442 9.922 9.922 9.922m191.627 0c5.48 0 9.923-4.442 9.923-9.922s-4.443-9.923-9.923-9.923-9.922 4.443-9.922 9.923 4.442 9.922 9.922 9.922"/><path stroke="#7F9FC2" stroke-miterlimit="10" stroke-width="3.227" d="M612.055 855.09h191.628"/><path fill="#7F9FC2" d="M408.026 1133.54c5.48 0 9.923-4.45 9.923-9.93s-4.443-9.92-9.923-9.92-9.922 4.44-9.922 9.92 4.442 9.93 9.922 9.93"/><path stroke="#7F9FC2" stroke-miterlimit="10" stroke-width="3.227" d="M408.025 1123.61h166.202"/><path fill="#7F9FC2" d="M774.616 1060.08c5.48 0 9.922-4.45 9.922-9.93s-4.442-9.92-9.922-9.92-9.923 4.44-9.923 9.92 4.443 9.93 9.923 9.93m181.629 4c5.48 0 9.922-4.45 9.922-9.93s-4.442-9.92-9.922-9.92-9.923 4.44-9.923 9.92 4.443 9.93 9.923 9.93"/><path stroke="#7F9FC2" stroke-miterlimit="10" stroke-width="3.227" d="M774.615 1050.16h191.628"/><path fill="#7F9FC2" d="M694.536 376.325c5.48 0 9.922-4.442 9.922-9.922s-4.442-9.923-9.922-9.923-9.923 4.443-9.923 9.923 4.443 9.922 9.923 9.922"/><path stroke="#7F9FC2" stroke-miterlimit="10" stroke-width="3.227" d="M694.537 366.402H269.886l-86.202 84.962h-52.713"/><path fill="#7F9FC2" d="M429.264 947.49c5.48 0 9.923-4.443 9.923-9.923s-4.443-9.922-9.923-9.922-9.922 4.442-9.922 9.922 4.442 9.923 9.922 9.923"/><path stroke="#7F9FC2" stroke-miterlimit="10" stroke-width="3.227" d="M429.266 937.567h424.651l86.202-84.962h220.151"/><path fill="#7F9FC2" d="M555.626 455.079c5.48 0 9.922-4.442 9.922-9.922s-4.442-9.923-9.922-9.923-9.923 4.443-9.923 9.923 4.443 9.922 9.923 9.922m128.369-23.562c5.48 0 9.922-4.443 9.922-9.923s-4.442-9.922-9.922-9.922-9.923 4.442-9.923 9.922 4.443 9.923 9.923 9.923"/><path stroke="#7F9FC2" stroke-miterlimit="10" stroke-width="3.227" d="M555.625 445.164h105.426l22.946-23.566"/><path fill="#7F9FC2" d="M561.202 865.009c5.48 0 9.922-4.442 9.922-9.922s-4.442-9.923-9.922-9.923-9.923 4.443-9.923 9.923 4.443 9.922 9.923 9.922m-138.371 23.563c5.48 0 9.922-4.443 9.922-9.923s-4.442-9.922-9.922-9.922-9.923 4.442-9.923 9.922 4.443 9.923 9.923 9.923"/><path stroke="#7F9FC2" stroke-miterlimit="10" stroke-width="3.227" d="M551.202 855.09H445.776l-22.946 23.566"/><path fill="#7F9FC2" d="M634.383 1186.25c5.48 0 9.923-4.45 9.923-9.93s-4.443-9.92-9.923-9.92-9.922 4.44-9.922 9.92 4.442 9.93 9.922 9.93"/><path stroke="#7F9FC2" stroke-miterlimit="10" stroke-width="3.227" d="M404.926 1152.76h206.512l22.945 23.57"/><path fill="#7F9FC2" d="M861.979 1143.46c5.48 0 9.923-4.44 9.923-9.92s-4.443-9.93-9.923-9.93-9.922 4.45-9.922 9.93 4.442 9.92 9.922 9.92m-128.373 23.56c5.48 0 9.923-4.44 9.923-9.92s-4.443-9.92-9.923-9.92-9.922 4.44-9.922 9.92 4.442 9.92 9.922 9.92"/><path stroke="#7F9FC2" stroke-miterlimit="10" stroke-width="3.227" d="M861.98 1133.54H756.553l-22.946 23.56"/><path fill="#7F9FC2" d="M688.856 1138.63c5.48 0 9.923-4.44 9.923-9.92s-4.443-9.92-9.923-9.92-9.922 4.44-9.922 9.92 4.442 9.92 9.922 9.92"/><path stroke="#7F9FC2" stroke-miterlimit="10" stroke-width="3.227" d="m688.856 1128.71-45.349-45.35H337.15l-28.295 28.3"/><path fill="#7F9FC2" d="M902.057 1015.09c5.48 0 9.923-4.45 9.923-9.93 0-5.475-4.443-9.918-9.923-9.918s-9.922 4.443-9.922 9.918c0 5.48 4.442 9.93 9.922 9.93m-211.859 57.05c5.48 0 9.922-4.44 9.922-9.92s-4.442-9.92-9.922-9.92-9.923 4.44-9.923 9.92 4.443 9.92 9.923 9.92"/><path stroke="#7F9FC2" stroke-miterlimit="10" stroke-width="3.227" d="M902.058 1005.16H747.252l-57.055 57.05"/><path fill="#7F9FC2" d="M598.417 1027.49c5.48 0 9.922-4.45 9.922-9.93s-4.442-9.92-9.922-9.92-9.923 4.44-9.923 9.92 4.443 9.93 9.923 9.93"/><path stroke="#7F9FC2" stroke-miterlimit="10" stroke-width="3.227" d="M598.416 1017.56H294.539l-37.209 37.83"/><path fill="#7F9FC2" d="M368.337 992.142c5.48 0 9.922-4.443 9.922-9.923s-4.442-9.922-9.922-9.922-9.923 4.442-9.923 9.922 4.443 9.923 9.923 9.923m-112.87 26.668c5.48 0 9.923-4.44 9.923-9.92s-4.443-9.925-9.923-9.925-9.922 4.445-9.922 9.925 4.442 9.92 9.922 9.92"/><path stroke="#7F9FC2" stroke-miterlimit="10" stroke-width="3.227" d="M368.335 982.215h-86.822l-26.046 26.665"/><path fill="#7F9FC2" d="M638.721 267.177c5.48 0 9.923-4.442 9.923-9.922s-4.443-9.923-9.923-9.923-9.922 4.442-9.922 9.923 4.442 9.922 9.922 9.922m-89.92-32.875c5.48 0 9.923-4.442 9.923-9.922s-4.443-9.923-9.923-9.923-9.922 4.442-9.922 9.923 4.442 9.922 9.922 9.922"/><path stroke="#7F9FC2" stroke-miterlimit="10" stroke-width="3.227" d="M638.723 257.251h-57.674l-32.248-32.868"/><path fill="#7F9FC2" d="M247.407 304.388c5.48 0 9.922-4.442 9.922-9.923s-4.442-9.922-9.922-9.922-9.923 4.442-9.923 9.922 4.443 9.923 9.923 9.923m171.781 41.551c5.48 0 9.923-4.443 9.923-9.923s-4.443-9.922-9.923-9.922-9.922 4.442-9.922 9.922 4.442 9.923 9.922 9.923"/><path stroke="#7F9FC2" stroke-miterlimit="10" stroke-width="3.227" d="M247.406 294.465h130.853l40.93 41.55"/><path fill="#7F9FC2" d="M430.893 206.4c5.48 0 9.923-4.443 9.923-9.923s-4.443-9.922-9.923-9.922-9.922 4.442-9.922 9.922 4.442 9.923 9.922 9.923m258.065 66.359c5.48 0 9.922-4.442 9.922-9.922s-4.442-9.923-9.922-9.923-9.923 4.443-9.923 9.923 4.443 9.922 9.923 9.922"/><path stroke="#7F9FC2" stroke-miterlimit="10" stroke-width="3.227" d="M440.893 196.48h182.325l65.737 66.357"/><path fill="#7F9FC2" d="M837.794 303.763c5.48 0 9.922-4.442 9.922-9.923s-4.442-9.922-9.922-9.922-9.923 4.442-9.923 9.922 4.443 9.923 9.923 9.923m-359.071-56.434c5.48 0 9.923-4.442 9.923-9.922s-4.443-9.923-9.923-9.923-9.922 4.443-9.922 9.923 4.442 9.922 9.922 9.922"/><path stroke="#7F9FC2" stroke-miterlimit="10" stroke-width="3.227" d="M837.793 293.837H535.157l-56.434-56.435"/><path stroke="#7F9FC2" stroke-miterlimit="10" stroke-width="3.227" d="M1012.06 214.047h-25.428L873.764 325.675H505.391l-93.643-93.644H247.406m850.854 735.297H715.004l-86.202 86.202H319.965l-32.248 30.39"/><path fill="#7F9FC2" d="M483.063 174.775c5.48 0 9.923-4.443 9.923-9.923s-4.443-9.922-9.923-9.922-9.922 4.442-9.922 9.922 4.442 9.923 9.922 9.923m209.313 51.617c5.48 0 9.922-4.443 9.922-9.923s-4.442-9.922-9.922-9.922-9.923 4.442-9.923 9.922 4.443 9.923 9.923 9.923"/><path stroke="#7F9FC2" stroke-miterlimit="10" stroke-width="3.227" d="M492.064 166.855h151.318l48.993 49.613"/><path fill="#7F9FC2" d="M460.741 143.767c5.48 0 9.922-4.443 9.922-9.923s-4.442-9.922-9.922-9.922-9.923 4.442-9.923 9.922 4.443 9.923 9.923 9.923m287.129 96.121c5.48 0 9.922-4.442 9.922-9.923s-4.442-9.922-9.922-9.922-9.923 4.442-9.923 9.922 4.443 9.923 9.923 9.923"/><path stroke="#7F9FC2" stroke-miterlimit="10" stroke-width="3.227" d="M460.736 133.84h191.628l95.504 96.124"/><path fill="#7F9FC2" d="M594.073 113.376c5.48 0 9.922-4.442 9.922-9.922s-4.442-9.923-9.922-9.923-9.923 4.443-9.923 9.923 4.443 9.922 9.923 9.922m158.295 87.836c5.48 0 9.922-4.442 9.922-9.922s-4.442-9.923-9.922-9.923-9.923 4.443-9.923 9.923 4.443 9.922 9.923 9.922"/><path stroke="#7F9FC2" stroke-miterlimit="10" stroke-width="3.227" d="M614.072 122.449h70.078l68.217 68.838"/><path fill="#7F9FC2" d="M732.368 127.021c5.48 0 9.922-4.443 9.922-9.923s-4.442-9.922-9.922-9.922-9.923 4.442-9.923 9.922 4.443 9.923 9.923 9.923"/><path stroke="#7F9FC2" stroke-miterlimit="10" stroke-width="3.227" d="m695.158 79.27 37.21 37.829"/><path fill="#7F9FC2" d="M784.77 146.931c5.48 0 9.923-4.443 9.923-9.923s-4.443-9.922-9.923-9.922-9.922 4.442-9.922 9.922 4.442 9.923 9.922 9.923"/><path stroke="#7F9FC2" stroke-miterlimit="10" stroke-width="3.227" d="m893.607 137.504-108.837-.496"/><path fill="#7F9FC2" d="M275.934 275.857c5.48 0 9.923-4.443 9.923-9.923s-4.443-9.922-9.923-9.922-9.922 4.442-9.922 9.922 4.442 9.923 9.922 9.923m187.287 69.465c5.48 0 9.923-4.443 9.923-9.923s-4.443-9.922-9.923-9.922-9.922 4.442-9.922 9.922 4.442 9.923 9.922 9.923"/><path stroke="#7F9FC2" stroke-miterlimit="10" stroke-width="3.227" d="M275.936 265.938h118.449l68.838 69.457"/><path fill="#7F9FC2" d="M892.989 376.325c5.48 0 9.922-4.442 9.922-9.922s-4.442-9.923-9.922-9.923-9.923 4.443-9.923 9.923 4.443 9.922 9.923 9.922m-169.301 23.563c5.48 0 9.923-4.442 9.923-9.923s-4.443-9.922-9.923-9.922-9.922 4.442-9.922 9.922 4.442 9.923 9.922 9.923"/><path stroke="#7F9FC2" stroke-miterlimit="10" stroke-width="3.227" d="M892.986 366.402H746.629l-22.945 23.566"/><path fill="#7F9FC2" d="M202.756 949.345a9.92 9.92 0 0 0 9.923-9.923c0-5.48-4.442-9.922-9.923-9.922s-9.922 4.442-9.922 9.922 4.442 9.923 9.922 9.923m196.508-32.168c5.48 0 9.923-4.442 9.923-9.922s-4.443-9.923-9.923-9.923-9.922 4.442-9.922 9.923 4.442 9.922 9.922 9.922"/><path stroke="#7F9FC2" stroke-miterlimit="10" stroke-width="3.227" d="M202.754 939.428h164.961l31.551-32.17"/><path fill="#7F9FC2" d="M466.942 412.911c5.48 0 9.923-4.442 9.923-9.922s-4.443-9.923-9.923-9.923-9.922 4.443-9.922 9.923 4.442 9.922 9.922 9.922m-240.621 56.434c5.48 0 9.922-4.442 9.922-9.923s-4.442-9.922-9.922-9.922-9.923 4.442-9.923 9.922 4.443 9.923 9.923 9.923"/><path stroke="#7F9FC2" stroke-miterlimit="10" stroke-width="3.227" d="M466.941 402.992H282.134l-55.814 56.434"/><path fill="#7F9FC2" d="M573.608 809.564c5.48 0 9.923-4.443 9.923-9.923s-4.443-9.922-9.923-9.922-9.922 4.442-9.922 9.922 4.442 9.923 9.922 9.923"/><path stroke="#7F9FC2" stroke-miterlimit="10" stroke-width="3.227" d="M573.609 799.645h-119.69L343.531 908.792H146.508"/><path fill="#7F9FC2" d="M636.862 913.997c5.48 0 9.922-4.442 9.922-9.922s-4.442-9.923-9.922-9.923-9.923 4.443-9.923 9.923 4.443 9.922 9.923 9.922m240.619-56.433c5.48 0 9.923-4.443 9.923-9.923s-4.443-9.922-9.923-9.922-9.922 4.442-9.922 9.922 4.442 9.923 9.922 9.923"/><path stroke="#7F9FC2" stroke-miterlimit="10" stroke-width="3.227" d="M636.863 904.075H821.67l55.814-56.434"/><path fill="#7F9FC2" d="M613.297 486.091c5.481 0 9.923-4.442 9.923-9.922s-4.442-9.923-9.923-9.923-9.922 4.443-9.922 9.923 4.442 9.922 9.922 9.922M290.34 505.318c5.481 0 9.923-4.443 9.923-9.923s-4.442-9.922-9.923-9.922-9.922 4.442-9.922 9.922 4.442 9.923 9.922 9.923"/><path stroke="#7F9FC2" stroke-miterlimit="10" stroke-width="3.227" d="M613.298 476.168h-305.35l-18.604 19.225"/><path fill="#7F9FC2" d="M488.645 833.759c5.48 0 9.923-4.442 9.923-9.922s-4.443-9.923-9.923-9.923-9.922 4.443-9.922 9.923 4.442 9.922 9.922 9.922m299.535-24.195c5.48 0 9.923-4.443 9.923-9.923s-4.443-9.922-9.923-9.922-9.922 4.442-9.922 9.922 4.442 9.923 9.922 9.923"/><path stroke="#7F9FC2" stroke-miterlimit="10" stroke-width="3.227" d="M488.645 823.831h275.349l24.186-24.186"/><path fill="#7F9FC2" d="M798.106 445.165c5.48 0 9.923-4.442 9.923-9.922s-4.443-9.923-9.923-9.923-9.922 4.443-9.922 9.923 4.442 9.922 9.922 9.922m357.524 56.742c5.48 0 9.92-4.442 9.92-9.922s-4.44-9.923-9.92-9.923-9.93 4.443-9.93 9.923 4.45 9.922 9.93 9.922"/><path stroke="#7F9FC2" stroke-miterlimit="10" stroke-width="3.227" d="M798.104 435.242H1099.5l56.12 56.744"/><path fill="#7F9FC2" d="M964.229 479.13c5.48 0 9.923-4.442 9.923-9.922s-4.443-9.923-9.923-9.923-9.922 4.443-9.922 9.923 4.442 9.922 9.922 9.922m104.501 25.742c5.48 0 9.92-4.442 9.92-9.922s-4.44-9.923-9.92-9.923-9.93 4.443-9.93 9.923 4.45 9.922 9.93 9.922"/><path stroke="#7F9FC2" stroke-miterlimit="10" stroke-width="3.227" d="M964.23 469.207h78.76l25.74 25.736"/><path fill="#7F9FC2" d="M682.755 486.095c5.48 0 9.922-4.442 9.922-9.923s-4.442-9.922-9.922-9.922-9.923 4.442-9.923 9.922a9.92 9.92 0 0 0 9.923 9.923"/><path stroke="#7F9FC2" stroke-miterlimit="10" stroke-width="3.227" d="m682.754 476.175 76.899-78.14h368.377l30.69 29.458"/><path fill="#7F9FC2" d="M945.081 326.095c5.48 0 9.922-4.442 9.922-9.923s-4.442-9.922-9.922-9.922-9.923 4.442-9.923 9.922 4.443 9.923 9.923 9.923"/><path stroke="#7F9FC2" stroke-miterlimit="10" stroke-width="3.227" d="M1066.63 276.48h-81.858l-39.69 39.69"/><path stroke="#121935" stroke-width="152.739" d="M76.87 640.488c0-311.262 252.368-563.63 563.63-563.63s563.63 252.368 563.63 563.63S951.762 1204.12 640.5 1204.12 76.87 951.75 76.87 640.488Z"/><path fill="#7F9FC2" d="M640.5 11.155c42.72 0 85.387 4.32 126.827 12.8a626 626 0 0 1 118.133 36.64c37.28 15.787 73.28 35.307 106.88 58.027 33.33 22.506 64.64 48.373 93.17 76.853a633.5 633.5 0 0 1 76.86 93.173c22.72 33.654 42.24 69.6 58.02 106.88a625 625 0 0 1 36.64 118.134c8.48 41.44 12.8 84.16 12.8 126.826 0 42.667-4.32 85.387-12.8 126.827a625 625 0 0 1-36.64 118.133c-15.78 37.28-35.3 73.28-58.02 106.88-22.51 33.332-48.38 64.642-76.86 93.172-28.48 28.48-59.84 54.35-93.17 76.85-33.653 22.72-69.6 42.25-106.88 58.03a625 625 0 0 1-118.133 36.64c-41.44 8.48-84.16 12.8-126.827 12.8s-85.387-4.32-126.827-12.8a625 625 0 0 1-118.133-36.64 629 629 0 0 1-106.88-58.03c-33.333-22.5-64.64-48.37-93.173-76.85a633.3 633.3 0 0 1-76.854-93.172c-22.72-33.653-42.24-69.6-58.026-106.88a626 626 0 0 1-36.64-118.133c-8.48-41.44-12.8-84.16-12.8-126.827 0-42.666 4.32-85.386 12.8-126.826a626 626 0 0 1 36.64-118.134c15.786-37.28 35.306-73.28 58.026-106.88 22.507-33.333 48.374-64.64 76.854-93.173a633 633 0 0 1 93.173-76.853c33.653-22.72 69.6-42.24 106.88-58.027a626 626 0 0 1 118.133-36.64c41.44-8.48 84.107-12.8 126.827-12.8m0-10.667c-353.44 0-640 286.56-640 640s286.56 640.002 640 640.002 640-286.562 640-640.002-286.56-640-640-640"/><path fill="#7F9FC2" d="M640.499 106.619c36.214 0 72.427 3.627 107.627 10.827 34.293 6.986 68 17.493 100.213 31.093 31.627 13.387 62.134 29.92 90.667 49.227 28.267 19.093 54.88 41.013 79.044 65.173 24.16 24.16 46.08 50.72 65.17 79.04 19.31 28.533 35.84 59.04 49.23 90.667 13.6 32.213 24.1 65.92 31.09 100.213 7.2 35.147 10.83 71.36 10.83 107.627s-3.63 72.426-10.83 107.626c-6.99 34.294-17.49 68-31.09 100.214-13.39 31.626-29.92 62.133-49.23 90.666-19.09 28.267-41.01 54.88-65.17 79.038-24.164 24.16-50.724 46.08-79.044 65.18a532.4 532.4 0 0 1-90.667 49.22c-32.213 13.6-65.92 24.11-100.213 31.1-35.147 7.2-71.36 10.82-107.627 10.82s-72.426-3.62-107.626-10.82a534.6 534.6 0 0 1-100.214-31.1 532.5 532.5 0 0 1-90.666-49.22c-28.267-19.1-54.88-41.02-79.04-65.18-24.16-24.158-46.08-50.718-65.174-79.038-19.306-28.533-35.84-59.04-49.226-90.666-13.6-32.214-24.107-65.92-31.094-100.214-7.2-35.146-10.826-71.36-10.826-107.626s3.626-72.427 10.826-107.627c6.987-34.293 17.494-68 31.094-100.213 13.386-31.627 29.92-62.134 49.226-90.667 19.094-28.267 41.014-54.88 65.174-79.04s50.72-46.08 79.04-65.173c28.533-19.307 59.04-35.84 90.666-49.227 32.214-13.6 65.92-24.107 100.214-31.093 35.2-7.2 71.413-10.827 107.626-10.827m0-7.467c-298.986 0-541.333 242.347-541.333 541.334s242.347 541.334 541.333 541.334c298.987 0 541.331-242.348 541.331-541.334 0-298.987-242.344-541.334-541.331-541.334"/><path fill="#7F9FC2" d="M640.5 159.955c32.587 0 65.173 3.307 96.853 9.76 30.827 6.293 61.174 15.733 90.187 28 28.48 12.053 55.947 26.933 81.6 44.32 25.44 17.173 49.387 36.96 71.147 58.667 21.763 21.76 41.493 45.653 58.663 71.146 17.34 25.707 32.27 53.174 44.32 81.6 12.27 29.014 21.71 59.36 28 90.187a485.8 485.8 0 0 1 9.76 96.853c0 32.587-3.3 65.174-9.76 96.854-6.29 30.826-15.73 61.173-28 90.186-12.05 28.48-26.93 55.947-44.32 81.6-17.17 25.44-36.96 49.387-58.663 71.147-21.76 21.755-45.654 41.495-71.147 58.665-25.707 17.33-53.173 32.27-81.6 44.32-29.013 12.27-59.36 21.71-90.187 28a486.5 486.5 0 0 1-96.853 9.76c-32.587 0-65.173-3.31-96.853-9.76-30.827-6.29-61.174-15.73-90.187-28-28.48-12.05-55.947-26.93-81.6-44.32-25.44-17.17-49.387-36.96-71.147-58.665-21.76-21.76-41.493-45.653-58.666-71.147-17.334-25.706-32.267-53.173-44.32-81.6-12.267-29.013-21.707-59.36-28-90.186a486.2 486.2 0 0 1-9.76-96.854c0-32.586 3.306-65.173 9.76-96.853 6.293-30.827 15.733-61.173 28-90.187 12.053-28.48 26.933-55.946 44.32-81.6 17.173-25.44 36.96-49.386 58.666-71.146 21.76-21.76 45.654-41.494 71.147-58.667 25.707-17.333 53.173-32.267 81.6-44.32 29.013-12.267 59.36-21.707 90.187-28a486.3 486.3 0 0 1 96.853-9.76m0-7.467c-269.493 0-488 218.507-488 488 0 269.494 218.507 488.002 488 488.002s488-218.508 488-488.002c0-269.493-218.507-488-488-488"/><path stroke="#fff" stroke-linecap="round" stroke-miterlimit="10" stroke-width="23.47" d="m798.474 153.876-51.466-13.814m172.05 71.253-46.187-26.667m147.789 113.387-37.707-37.707m113.387 147.781-26.66-46.187m71.25 172.06-13.82-51.466m24.32 184.642v-53.334m-24.32 184.643L1140.93 747m-71.25 172.046 26.66-46.187M982.953 1020.65l37.707-37.705M872.871 1096.33l46.187-26.67m-172.05 71.25 51.466-13.81m-184.642 24.32h53.333m-184.64-24.32 51.467 13.81m-172.051-71.25 46.187 26.67M260.34 982.945l37.707 37.705M184.66 872.859l26.667 46.187M140.07 747l13.814 51.467m-24.318-184.643v53.334m24.318-184.642-13.814 51.466m71.257-172.06-26.667 46.187m113.387-147.781-37.707 37.707m147.788-113.387-46.187 26.667m172.051-71.253-51.467 13.814m184.64-24.321h-53.333"/><path fill="#fff" d="m530.207 1241.68 7.247-49.08 8.952 1.33 16.786 34.05.373.06 4.583-30.91 10.391 1.55-7.247 49.07-9.112-1.33-16.626-34-.426-.05-4.583 30.85zm-52.062-37.57c1.279-5.27 3.357-9.48 6.288-12.68 2.878-3.2 6.288-5.33 10.178-6.45s7.94-1.12 12.203-.1c4.263 1.06 7.887 2.98 10.817 5.75s4.903 6.24 5.969 10.44c1.065 4.16.959 8.9-.32 14.13-1.279 5.27-3.357 9.48-6.235 12.68-2.877 3.2-6.288 5.33-10.124 6.45-3.89 1.12-7.94 1.12-12.257.05-4.263-1.07-7.833-2.93-10.764-5.76-2.93-2.77-4.955-6.23-6.021-10.44-1.119-4.1-1.013-8.79.266-14.07m10.338 2.56c-.852 3.41-1.012 6.39-.586 9.01.426 2.61 1.439 4.69 2.984 6.34s3.517 2.77 6.022 3.41c2.451.58 4.742.53 6.874-.22 2.131-.74 3.996-2.18 5.595-4.26s2.771-4.85 3.623-8.26 1.013-6.39.587-9c-.427-2.62-1.439-4.69-2.984-6.35-1.546-1.65-3.517-2.77-6.022-3.41-2.451-.58-4.743-.53-6.874.22-2.132.74-3.997 2.18-5.595 4.26-1.546 2.13-2.771 4.85-3.624 8.26m-28.99-34.9 16.626 5.75-16.306 46.84-16.732-5.81c-4.69-1.65-8.42-3.99-11.191-7.03s-4.423-6.66-5.062-10.77c-.639-4.15-.107-8.63 1.599-13.48 1.705-4.9 4.05-8.74 7.14-11.61 3.038-2.88 6.608-4.64 10.711-5.33 4.05-.7 8.419-.22 13.215 1.44m3.73 10.81-6.287-2.18c-2.931-1.01-5.596-1.33-7.94-1.01-2.345.37-4.423 1.43-6.235 3.3-1.758 1.86-3.304 4.53-4.476 7.99-1.226 3.47-1.705 6.45-1.439 9.01.267 2.56 1.172 4.69 2.824 6.45 1.652 1.75 3.944 3.09 6.874 4.1l6.288 2.18zm-34.474-22.11-20.143 45.35-30.534-13.59 3.517-7.89 20.942 9.33 4.796-10.82-19.397-8.63 3.517-7.89 19.397 8.64 4.796-10.82-21.049-9.38 3.517-7.89zm-38.796-17.53-23.66 43.59-17.212-9.33c-3.304-1.81-5.808-3.89-7.514-6.34-1.705-2.45-2.557-5.06-2.664-7.89-.053-2.82.693-5.64 2.238-8.52s3.57-5.06 5.915-6.45c2.398-1.38 5.062-2.02 7.993-1.81 2.984.16 6.128 1.17 9.485 2.98l11.511 6.24-3.997 7.4-10.018-5.43c-1.759-.96-3.357-1.49-4.796-1.65s-2.664.1-3.783.74-2.025 1.71-2.825 3.15c-.799 1.44-1.172 2.82-1.119 4.1.054 1.28.48 2.56 1.386 3.68.906 1.17 2.238 2.24 3.996 3.19l6.235 3.36 19.557-36.07zm-34.264 7.03-.054-25.74 10.178 5.55-.16 25.57zm-47.371-14.23c-.906 1.76-1.066 3.47-.427 5.17.64 1.71 2.025 3.25 4.103 4.64 1.439.96 2.771 1.54 3.997 1.76 1.226.21 2.345.21 3.357-.16a5.1 5.1 0 0 0 2.345-1.87c.533-.75.799-1.49.799-2.24 0-.8-.16-1.54-.48-2.34-.373-.8-.799-1.6-1.438-2.4a21 21 0 0 0-2.078-2.4l-3.144-3.3c-1.546-1.6-2.878-3.2-3.944-4.9-1.065-1.66-1.865-3.36-2.291-5.07-.48-1.7-.586-3.41-.32-5.17.267-1.75.959-3.46 2.078-5.22 1.652-2.56 3.73-4.31 6.235-5.33 2.505-1.01 5.276-1.28 8.313-.69 3.091.53 6.288 1.92 9.645 4.16 3.357 2.18 5.915 4.58 7.727 7.24 1.811 2.67 2.771 5.44 2.824 8.37s-.853 5.92-2.718 8.95l-8.472-5.54c.799-1.44 1.172-2.88 1.065-4.26-.106-1.39-.586-2.72-1.492-3.95-.906-1.22-2.078-2.34-3.623-3.35-1.492-.96-2.931-1.6-4.317-1.87-1.385-.26-2.611-.26-3.73.11s-1.971 1.06-2.664 2.08c-.586.96-.853 1.92-.693 2.87.107 1.02.586 2.08 1.332 3.2s1.759 2.4 3.038 3.73l3.783 4.11c2.931 3.14 4.849 6.28 5.702 9.43q1.278 4.71-1.759 9.27c-1.652 2.5-3.73 4.26-6.341 5.27-2.611 1.02-5.435 1.23-8.473.75-3.037-.48-6.128-1.76-9.165-3.73-3.091-2.02-5.435-4.32-7.034-6.87-1.599-2.56-2.451-5.23-2.505-7.94-.053-2.72.693-5.33 2.292-7.84zm-41.087-58.02c1.493 1.27 2.505 2.82 3.144 4.58.587 1.76.747 3.57.427 5.43-.32 1.87-1.119 3.52-2.398 5.01-1.279 1.5-2.824 2.56-4.583 3.15-1.758.58-3.57.74-5.435.42s-3.517-1.12-5.009-2.39c-1.492-1.28-2.558-2.83-3.144-4.59a11.04 11.04 0 0 1-.427-5.43c.32-1.87 1.119-3.52 2.398-5.01s2.825-2.51 4.583-3.15c1.759-.58 3.57-.74 5.435-.42 1.866.32 3.517 1.12 5.009 2.4m-95.811-46.53 37.088-32.928 6.022 6.768-9.006 36.87.266.27 23.34-20.73 6.981 7.84-37.088 32.93-6.128-6.88 9.112-36.71-.266-.32-23.34 20.73zm-15.774-62.184c4.37-3.197 8.686-5.115 12.949-5.702s8.26-.053 11.937 1.599 6.821 4.263 9.432 7.78c2.611 3.57 4.156 7.354 4.582 11.35q.72 5.995-2.078 11.83c-1.865 3.89-4.956 7.407-9.325 10.607-4.37 3.19-8.686 5.11-12.949 5.7s-8.26.11-11.936-1.55c-3.677-1.65-6.821-4.26-9.432-7.78-2.612-3.513-4.104-7.296-4.583-11.293q-.72-5.995 2.078-11.83c1.812-3.943 4.956-7.513 9.325-10.711m6.288 8.58c-2.824 2.078-4.902 4.263-6.234 6.501s-1.919 4.529-1.812 6.767.906 4.423 2.451 6.448c1.492 2.025 3.304 3.468 5.435 4.268 2.132.79 4.477.9 7.034.31 2.558-.58 5.223-1.914 8.047-3.992s4.902-4.263 6.235-6.501c1.332-2.238 1.918-4.529 1.811-6.767s-.906-4.423-2.451-6.448c-1.492-2.025-3.304-3.464-5.435-4.263q-3.198-1.2-7.034-.32c-2.558.586-5.222 1.918-8.047 3.997m.108-45.398 9.059 15.08-42.524 25.525-9.112-15.187c-2.558-4.263-3.943-8.473-4.103-12.576q-.24-6.155 3.037-11.51c2.185-3.571 5.489-6.661 9.859-9.326 4.423-2.664 8.739-4.103 12.949-4.369 4.209-.267 8.046.693 11.616 2.771 3.517 2.078 6.608 5.275 9.219 9.592m-4.05 10.71-3.41-5.701c-1.599-2.665-3.411-4.636-5.436-5.862s-4.316-1.759-6.874-1.439c-2.557.267-5.435 1.386-8.579 3.251s-5.435 3.89-6.874 6.021c-1.439 2.132-2.078 4.37-1.918 6.768s1.012 4.902 2.611 7.567l3.463 5.755zm-12.363-39.061-44.495 21.901-14.761-30.001 7.78-3.837 10.125 20.569 10.604-5.222-9.379-19.024 7.78-3.836 9.379 19.023 10.604-5.222-10.178-20.675 7.78-3.837zm-18.491-38.315-46.094 18.331-7.247-18.225c-1.385-3.463-1.971-6.714-1.705-9.645.266-2.984 1.279-5.542 2.984-7.726q2.638-3.277 7.194-5.116c3.037-1.226 5.968-1.599 8.686-1.172 2.718.426 5.169 1.705 7.353 3.73s3.944 4.796 5.383 8.366l4.849 12.203-7.834 3.091-4.21-10.605c-.745-1.865-1.598-3.303-2.61-4.316-1.013-1.012-2.132-1.652-3.41-1.865-1.28-.213-2.665 0-4.157.586-1.546.586-2.718 1.439-3.517 2.451-.8 1.013-1.226 2.292-1.28 3.731-.052 1.438.267 3.143 1.013 5.009l2.611 6.554 38.154-15.134zm-30.907-16.573 16.413-19.769 4.263 10.764-16.519 19.556zM69 807.652c-1.811.746-3.037 1.971-3.623 3.73-.586 1.705-.533 3.783.213 6.181.48 1.652 1.173 2.931 1.972 3.944.8 1.012 1.705 1.652 2.664 2.025s1.972.373 2.984.053a4.1 4.1 0 0 0 2.079-1.226c.532-.586.906-1.279 1.119-2.131.266-.853.373-1.759.426-2.771a21.6 21.6 0 0 0-.053-3.198l-.267-4.582a35 35 0 0 1 .107-6.288c.266-1.972.746-3.73 1.492-5.382a12.5 12.5 0 0 1 3.09-4.157c1.333-1.172 2.985-2.078 4.956-2.664 2.931-.853 5.649-.906 8.207-.107q3.836 1.2 6.874 4.796c2.025 2.398 3.57 5.489 4.796 9.379q1.758 5.756 1.279 10.551c-.32 3.197-1.386 5.915-3.198 8.206q-2.718 3.438-7.833 5.116l-2.984-9.699c1.545-.586 2.718-1.438 3.57-2.611.8-1.119 1.28-2.451 1.386-3.996.106-1.546-.107-3.144-.64-4.903-.533-1.705-1.225-3.09-2.078-4.209s-1.865-1.866-2.93-2.292c-1.067-.426-2.186-.479-3.358-.106q-1.599.478-2.398 1.758c-.533.853-.853 1.972-1.012 3.304s-.16 2.931-.054 4.796l.267 5.542c.266 4.316-.32 7.94-1.652 10.87-1.386 2.931-3.784 4.956-7.3 6.022-2.878.906-5.596.906-8.26 0-2.611-.906-4.956-2.505-6.98-4.849-2.026-2.345-3.571-5.276-4.637-8.739-1.066-3.517-1.439-6.768-1.012-9.805.426-2.984 1.438-5.542 3.144-7.674 1.705-2.131 3.943-3.623 6.767-4.529zm5.757-70.819c.32 1.919.16 3.784-.532 5.542s-1.759 3.251-3.198 4.423c-1.439 1.226-3.09 1.972-5.062 2.291-1.919.32-3.784.16-5.542-.532s-3.197-1.759-4.423-3.198-1.972-3.09-2.291-5.062c-.32-1.918-.16-3.784.533-5.542.692-1.759 1.758-3.197 3.144-4.423 1.438-1.226 3.09-1.972 5.062-2.291 1.918-.32 3.783-.16 5.542.533 1.758.692 3.25 1.758 4.423 3.144 1.225 1.438 2.025 3.144 2.344 5.115m-43.589-97.25 49.61-1.438.267 9.058-30.587 22.488v.373l31.227-.906.32 10.498-49.611 1.438-.267-9.218 30.534-22.328v-.426l-31.173.906zm27.764-57.763c5.382.32 9.911 1.652 13.588 3.943s6.395 5.223 8.153 8.846q2.637 5.436 2.238 11.99c-.266 4.423-1.545 8.259-3.73 11.67-2.238 3.357-5.275 5.968-9.219 7.727-3.89 1.811-8.58 2.504-13.961 2.184s-9.912-1.652-13.589-3.89c-3.676-2.291-6.394-5.222-8.153-8.845-1.758-3.624-2.504-7.621-2.238-12.043.267-4.37 1.492-8.26 3.73-11.617s5.276-5.968 9.166-7.78c3.943-1.812 8.633-2.558 14.015-2.185m-.64 10.604c-3.517-.213-6.5.107-8.952 1.013s-4.37 2.238-5.755 4.05c-1.386 1.811-2.132 3.996-2.292 6.501-.16 2.504.32 4.796 1.44 6.714 1.118 1.972 2.877 3.517 5.168 4.743 2.291 1.225 5.275 1.918 8.74 2.131 3.516.213 6.5-.107 8.952-1.012 2.45-.906 4.37-2.238 5.755-4.05s2.131-3.997 2.291-6.501-.32-4.796-1.439-6.715c-1.119-1.971-2.824-3.517-5.169-4.742s-5.275-1.919-8.739-2.132m29.148-34.745-2.718 17.372-49.025-7.674 2.771-17.531c.8-4.956 2.398-9.006 4.903-12.257s5.755-5.541 9.698-6.874 8.473-1.598 13.588-.852c5.116.799 9.326 2.451 12.683 4.956 3.357 2.504 5.755 5.701 7.14 9.591q2.16 5.755.96 13.269m-9.965 5.595 1.012-6.554c.48-3.038.32-5.755-.426-7.993-.746-2.292-2.238-4.104-4.37-5.542-2.131-1.439-5.009-2.398-8.686-2.984-3.623-.587-6.66-.48-9.112.213-2.45.692-4.423 2.025-5.808 3.943-1.439 1.918-2.345 4.423-2.824 7.46l-1.013 6.608zm15.613-37.888-48.172-11.723 7.887-32.452 8.419 2.025-5.435 22.274 11.51 2.824 5.009-20.622 8.42 2.025-5.01 20.622 11.51 2.825 5.436-22.381 8.419 2.025zm10.392-41.242-47.16-15.56 6.128-18.597c1.173-3.57 2.825-6.395 4.903-8.473 2.078-2.131 4.53-3.463 7.247-3.996 2.77-.587 5.648-.32 8.792.692s5.596 2.611 7.407 4.69c1.812 2.078 2.878 4.582 3.251 7.567.373 2.93-.053 6.234-1.279 9.858l-4.103 12.469-7.993-2.664 3.57-10.818c.64-1.918.906-3.57.8-5.009-.107-1.438-.587-2.611-1.44-3.57-.852-.959-2.024-1.705-3.57-2.238s-2.984-.64-4.263-.373c-1.279.266-2.398.959-3.357 2.025q-1.438 1.599-2.398 4.476l-2.238 6.714 38.953 12.843zm-13.109-32.505 25.312-4.636-3.624 10.977-25.205 4.37zm5.649-49.134c-1.866-.586-3.624-.426-5.17.533-1.545.906-2.824 2.558-3.836 4.902-.693 1.599-1.013 2.984-1.013 4.263s.213 2.345.746 3.251 1.28 1.545 2.292 1.971c.799.373 1.598.48 2.344.374.746-.107 1.492-.427 2.238-.906s1.44-1.119 2.132-1.865 1.332-1.546 2.025-2.452l2.717-3.677a33 33 0 0 1 4.104-4.742c1.438-1.332 2.984-2.398 4.582-3.144a12.9 12.9 0 0 1 5.063-1.226c1.758-.053 3.57.32 5.488 1.119 2.771 1.173 4.903 2.931 6.342 5.222 1.438 2.292 2.184 4.956 2.184 8.1 0 3.091-.799 6.555-2.344 10.231-1.546 3.677-3.464 6.661-5.755 8.9-2.292 2.238-4.85 3.676-7.727 4.263q-4.317.88-9.272-1.12l3.943-9.325c1.599.533 3.038.64 4.37.267a7.8 7.8 0 0 0 3.623-2.185c1.066-1.119 1.972-2.505 2.665-4.157.692-1.652 1.065-3.144 1.119-4.582.053-1.439-.213-2.611-.8-3.677-.586-1.066-1.385-1.759-2.504-2.238-1.013-.427-2.025-.48-2.984-.213-.959.319-1.919.959-2.878 1.865-.959.905-2.025 2.184-3.144 3.676l-3.357 4.423c-2.558 3.464-5.329 5.862-8.26 7.247-2.93 1.386-6.074 1.386-9.485-.106-2.77-1.172-4.902-2.931-6.288-5.276-1.438-2.344-2.184-5.115-2.238-8.206s.64-6.341 2.025-9.645c1.439-3.41 3.25-6.128 5.489-8.153s4.69-3.357 7.354-3.89 5.382-.266 8.1.853zm49.77-50.731c-1.013 1.705-2.292 2.984-3.943 3.89s-3.411 1.385-5.276 1.385-3.677-.479-5.329-1.492c-1.705-1.012-2.984-2.344-3.89-3.943-.906-1.652-1.332-3.41-1.385-5.275 0-1.865.479-3.677 1.492-5.329 1.012-1.705 2.345-2.984 3.943-3.89 1.652-.906 3.411-1.332 5.276-1.386 1.865 0 3.676.48 5.328 1.492 1.706 1.013 2.985 2.292 3.89 3.944s1.386 3.41 1.386 5.275-.48 3.624-1.492 5.329m28.934-102.52 38.953 30.694-5.595 7.14-37.888-2.345-.213.267 24.512 19.343-6.501 8.26-38.953-30.694 5.702-7.247 37.781 2.505.266-.32-24.512-19.29zm58.457-26.489c3.943 3.73 6.554 7.62 7.886 11.723 1.333 4.103 1.546 8.1.533 12.043-.959 3.943-2.984 7.46-5.968 10.658-3.037 3.197-6.501 5.382-10.338 6.554-3.89 1.172-7.886 1.172-12.043.053s-8.206-3.57-12.096-7.3c-3.943-3.73-6.555-7.62-7.887-11.723s-1.545-8.1-.586-11.99 2.984-7.46 6.022-10.658c3.037-3.197 6.447-5.328 10.337-6.501 3.89-1.172 7.887-1.172 12.043-.053 4.104 1.012 8.153 3.464 12.097 7.194m-7.354 7.727q-3.837-3.597-7.513-4.956c-2.452-.906-4.796-1.119-6.981-.586q-3.278.8-5.915 3.517c-1.759 1.811-2.824 3.89-3.197 6.074-.427 2.239-.107 4.53.959 6.981 1.012 2.398 2.824 4.849 5.329 7.247q3.836 3.597 7.513 4.956c2.451.906 4.796 1.119 6.981.586q3.277-.8 5.915-3.517c1.758-1.812 2.824-3.89 3.197-6.075.426-2.238.107-4.529-.959-6.98-1.013-2.452-2.771-4.849-5.329-7.247m44.71-7.938-13.269 11.563-32.612-37.355 13.375-11.67c3.784-3.304 7.621-5.382 11.67-6.234 3.997-.853 7.994-.587 11.884.959 3.89 1.492 7.566 4.21 10.924 8.1 3.41 3.89 5.595 7.886 6.554 11.936.959 4.103.746 8.046-.693 11.936s-4.05 7.461-7.833 10.765m-11.244-2.079 5.009-4.369q3.518-3.038 4.796-6.395c.853-2.238.959-4.583.213-7.034s-2.291-5.062-4.742-7.886c-2.398-2.771-4.796-4.69-7.141-5.702-2.344-1.013-4.689-1.279-6.981-.746-2.291.586-4.636 1.865-6.98 3.89l-5.009 4.423zm36.288-19.021-29.415-39.912 26.91-19.823 5.116 6.98-18.438 13.589 7.034 9.538 17.052-12.576 5.116 6.981-17.052 12.576 7.034 9.538 18.544-13.694 5.116 6.98zm34.424-25.048-26.218-42.098 16.626-10.337c3.197-1.972 6.235-3.091 9.219-3.358s5.648.267 8.153 1.599c2.451 1.332 4.582 3.357 6.288 6.181 1.758 2.771 2.611 5.596 2.664 8.313.053 2.771-.746 5.382-2.345 7.887-1.598 2.504-4.05 4.743-7.3 6.767l-11.137 6.928-4.476-7.141 9.698-6.021c1.705-1.066 2.984-2.185 3.783-3.357.853-1.173 1.226-2.398 1.226-3.677s-.48-2.611-1.332-3.997q-1.279-2.078-3.038-3.037c-1.172-.64-2.451-.799-3.89-.64-1.438.214-3.037.853-4.742 1.919l-6.022 3.73 21.688 34.85zm10.817-33.305 22.381 12.629-9.805 6.128-22.168-12.789zm35.756-34.155c-1.066-1.652-2.505-2.611-4.317-2.931q-2.717-.4-6.074 1.279c-1.546.799-2.718 1.652-3.517 2.611-.853.959-1.333 1.972-1.493 2.984a4.88 4.88 0 0 0 .48 2.984c.373.8.906 1.386 1.545 1.812.693.426 1.439.64 2.292.746.852.107 1.812.053 2.824-.053 1.012-.107 2.025-.32 3.144-.586l4.476-1.119a29.3 29.3 0 0 1 6.182-1.013c1.971-.106 3.836.054 5.541.48s3.251 1.225 4.636 2.291 2.558 2.558 3.517 4.37c1.386 2.717 1.919 5.382 1.546 8.046-.32 2.665-1.492 5.222-3.517 7.62-1.972 2.398-4.796 4.53-8.366 6.342-3.571 1.811-6.928 2.877-10.125 3.144-3.197.266-6.075-.32-8.633-1.706s-4.742-3.676-6.447-6.767l9.005-4.636q1.28 2.158 3.197 3.037 1.919.88 4.157.64c1.492-.16 3.091-.64 4.689-1.492 1.599-.8 2.824-1.759 3.784-2.825.959-1.065 1.492-2.184 1.758-3.303.213-1.173.053-2.239-.479-3.304-.533-1.013-1.226-1.652-2.132-2.025s-2.078-.533-3.41-.427-2.931.373-4.743.8l-5.435 1.279c-4.21 1.012-7.834 1.119-10.978.266-3.144-.799-5.542-2.877-7.193-6.128-1.386-2.664-1.865-5.382-1.439-8.1s1.598-5.328 3.57-7.726 4.53-4.477 7.727-6.129c3.25-1.705 6.448-2.61 9.432-2.717 3.037-.16 5.755.426 8.099 1.705 2.398 1.279 4.263 3.251 5.702 5.862zm70.714-6.985c-1.866.64-3.677.8-5.542.427s-3.517-1.119-4.956-2.345c-1.439-1.172-2.505-2.718-3.144-4.53-.64-1.864-.799-3.676-.426-5.541.373-1.812 1.119-3.464 2.344-4.903 1.173-1.439 2.718-2.504 4.53-3.144 1.865-.64 3.677-.8 5.542-.426 1.811.373 3.463 1.119 4.902 2.345 1.439 1.172 2.505 2.717 3.144 4.582s.799 3.677.426 5.542a10.95 10.95 0 0 1-2.344 4.956c-1.066 1.279-2.611 2.345-4.476 3.037M535.27 41.8l10.178 48.546-8.846 1.865-27.55-26.111-.373.053 6.395 30.534-10.285 2.132-10.178-48.546 9.006-1.865 27.337 26.111.426-.106-6.395-30.534zm61.813 17.217c.586 5.382.107 10.072-1.492 14.068s-4.05 7.194-7.3 9.592-7.088 3.837-11.404 4.316c-4.37.48-8.419-.053-12.15-1.652s-6.767-4.156-9.218-7.726c-2.451-3.517-3.997-7.993-4.583-13.375-.586-5.383-.107-10.072 1.492-14.068s3.997-7.194 7.3-9.592c3.251-2.398 7.088-3.837 11.457-4.317s8.366.054 12.097 1.652q5.595 2.398 9.272 7.674c2.398 3.623 3.943 8.046 4.529 13.428m-10.551 1.226q-.559-5.196-2.558-8.633c-1.332-2.291-2.984-3.943-5.009-4.956-2.025-1.012-4.263-1.385-6.821-1.119-2.504.267-4.636 1.173-6.394 2.612-1.759 1.438-2.984 3.41-3.73 5.915s-.959 5.488-.533 9.005q.56 5.196 2.558 8.633c1.332 2.291 2.984 3.943 5.009 4.956 2.025 1.012 4.263 1.385 6.821 1.118 2.504-.266 4.636-1.172 6.394-2.61 1.759-1.44 2.984-3.411 3.73-5.915.746-2.558.959-5.542.533-9.006m39.325 22.646-17.585.373-1.012-49.611 17.745-.373q7.514-.16 12.948 2.718 5.436 2.877 8.473 8.313c2.025 3.676 3.091 8.046 3.197 13.215.107 5.169-.799 9.645-2.664 13.375s-4.583 6.661-8.153 8.74c-3.57 2.077-7.886 3.143-12.949 3.25m-7.247-8.846 6.661-.16c3.091-.053 5.702-.693 7.78-1.812 2.078-1.172 3.677-2.877 4.689-5.275 1.013-2.345 1.492-5.382 1.439-9.059s-.693-6.661-1.812-8.952-2.771-3.997-4.902-5.01c-2.132-1.065-4.743-1.545-7.833-1.491l-6.661.16zm40.021 8.684 3.037-49.504 33.358 2.025-.533 8.632-22.913-1.385-.693 11.776 21.155 1.28-.533 8.632-21.155-1.28-.746 11.83 22.967 1.386-.533 8.633zm42.471 2.928 6.874-49.132 19.396 2.718c3.731.533 6.768 1.599 9.219 3.304s4.21 3.837 5.222 6.448c1.066 2.61 1.333 5.542.906 8.792-.479 3.25-1.545 5.968-3.304 8.1s-3.996 3.677-6.874 4.53c-2.824.852-6.128 1.065-9.911.532l-13.002-1.812 1.172-8.366 11.297 1.599c1.972.266 3.677.213 5.062-.107s2.505-1.012 3.304-2.025 1.332-2.29 1.545-3.943c.214-1.652.107-3.037-.373-4.263-.479-1.226-1.332-2.185-2.611-2.984-1.225-.746-2.877-1.279-4.849-1.599l-6.981-.959-5.701 40.659zm29.681-18.651 9.059 24.086-11.457-1.599-8.793-24.032zm49.343-3.247c.213-1.971-.267-3.623-1.439-5.009-1.172-1.385-3.037-2.344-5.489-2.877-1.652-.373-3.144-.48-4.369-.267-1.279.213-2.292.64-3.091 1.333-.799.692-1.279 1.545-1.545 2.61-.213.853-.213 1.653.053 2.399a5.4 5.4 0 0 0 1.279 2.025c.586.639 1.332 1.225 2.185 1.758a27 27 0 0 0 2.771 1.545l4.103 2.025a32.6 32.6 0 0 1 5.382 3.197 18.5 18.5 0 0 1 3.943 3.944c1.013 1.439 1.759 3.037 2.078 4.742.373 1.706.32 3.57-.106 5.596-.693 2.984-2.025 5.328-3.997 7.193-1.971 1.812-4.476 3.038-7.567 3.57-3.037.587-6.554.427-10.497-.479-3.89-.852-7.194-2.238-9.805-4.103s-4.476-4.103-5.542-6.82-1.279-5.81-.586-9.326l9.911 2.238c-.266 1.652-.106 3.09.48 4.37.586 1.278 1.492 2.344 2.771 3.197 1.279.852 2.771 1.492 4.529 1.865s3.304.48 4.689.266 2.558-.692 3.464-1.438q1.359-1.12 1.759-2.878a4.2 4.2 0 0 0-.32-2.93c-.48-.907-1.279-1.706-2.345-2.505q-1.678-1.2-4.156-2.398l-4.956-2.505c-3.837-1.918-6.714-4.21-8.632-6.82-1.866-2.665-2.452-5.756-1.599-9.326.639-2.93 2.025-5.329 4.05-7.14q3.117-2.718 7.673-3.677c3.038-.587 6.341-.533 9.858.266 3.571.8 6.608 2.131 9.006 3.943q3.597 2.718 5.116 6.555c1.012 2.504 1.225 5.222.586 8.153zm58.777 39.965c-1.812-.692-3.358-1.758-4.53-3.197s-1.972-3.09-2.291-4.956c-.32-1.865-.16-3.676.479-5.541.693-1.866 1.759-3.358 3.198-4.53 1.438-1.172 3.09-1.918 4.955-2.291 1.865-.32 3.677-.16 5.542.48 1.865.692 3.357 1.758 4.53 3.197 1.172 1.438 1.918 3.09 2.291 4.955.32 1.865.16 3.677-.48 5.542-.692 1.812-1.758 3.357-3.197 4.53-1.439 1.172-3.09 1.971-4.956 2.291a9.87 9.87 0 0 1-5.541-.48m106.042 10.284-23.34 43.802-7.993-4.263-4.37-37.727-.32-.16-14.654 27.549-9.272-4.955 23.34-43.803 8.1 4.317 4.209 37.621.374.213 14.654-27.55zm36.394 52.864c-2.984 4.53-6.341 7.78-10.178 9.858-3.783 2.025-7.726 2.931-11.723 2.665q-6.075-.4-11.51-3.997c-3.677-2.451-6.448-5.435-8.26-9.059s-2.557-7.566-2.131-11.829c.373-4.264 2.078-8.686 5.062-13.163 2.984-4.529 6.341-7.78 10.125-9.858 3.783-2.025 7.673-2.931 11.723-2.664 3.997.266 7.887 1.598 11.564 4.05 3.676 2.398 6.394 5.435 8.206 9.005s2.558 7.567 2.185 11.83c-.427 4.263-2.079 8.686-5.063 13.162m-8.899-5.861c1.919-2.931 3.144-5.702 3.571-8.26.479-2.558.213-4.902-.64-6.981s-2.398-3.836-4.529-5.222q-3.198-2.078-6.555-2.078c-2.238 0-4.476.693-6.661 2.131-2.185 1.439-4.263 3.624-6.181 6.555s-3.144 5.702-3.57 8.259c-.48 2.558-.214 4.903.639 6.981.906 2.078 2.398 3.837 4.53 5.222q3.197 2.078 6.554 2.078c2.238 0 4.476-.692 6.661-2.131 2.238-1.439 4.263-3.624 6.181-6.554m15.669 42.632-13.695-10.978 31.016-38.686 13.85 11.083c3.89 3.144 6.61 6.555 8.21 10.391 1.6 3.784 1.97 7.727 1.17 11.83-.8 4.104-2.82 8.153-6.02 12.203-3.25 4.05-6.77 6.874-10.6 8.58-3.84 1.705-7.78 2.184-11.89 1.438-4.101-.799-8.098-2.717-12.041-5.861m.107-11.457 5.222 4.156c2.398 1.919 4.796 3.144 7.142 3.624 2.34.479 4.69.106 6.98-1.013 2.29-1.172 4.58-3.144 6.93-6.074 2.29-2.878 3.73-5.542 4.37-7.994.64-2.504.42-4.795-.54-6.98s-2.66-4.263-5.06-6.182l-5.22-4.156zm25.094 32.342 34.11-36.022 24.24 22.967-5.97 6.288-16.62-15.773-8.15 8.579 15.4 14.601-5.97 6.288-15.4-14.601-8.16 8.579 16.74 15.827-5.97 6.288zm30.7 29.518 36.82-33.251 13.11 14.547q3.75 4.157 4.95 8.473c.8 2.878.75 5.649-.1 8.313-.86 2.664-2.51 5.116-4.96 7.301-2.45 2.184-5.01 3.57-7.73 4.103-2.71.533-5.43.213-8.15-.96-2.72-1.172-5.38-3.143-7.94-5.968l-8.79-9.751 6.23-5.649 7.62 8.473c1.33 1.492 2.67 2.558 3.95 3.144 1.27.639 2.55.799 3.83.533 1.28-.267 2.51-.906 3.68-2.025 1.23-1.119 2.02-2.292 2.45-3.517s.37-2.558-.11-3.943-1.33-2.825-2.71-4.317l-4.75-5.275-30.48 27.496zm34.74 4.743-8.47 24.299-7.78-8.579 8.68-24.086zm39.91 29.2c1.44-1.332 2.13-2.931 2.08-4.743s-.8-3.73-2.34-5.755c-1.07-1.385-2.13-2.345-3.2-2.984-1.12-.64-2.18-.959-3.2-.959-1.06 0-1.97.373-2.82 1.012-.75.533-1.23 1.119-1.49 1.865a5.8 5.8 0 0 0-.32 2.398c.05.853.26 1.759.53 2.771.32.959.69 1.972 1.17 2.984l1.87 4.21c.9 2.025 1.6 3.997 2.07 5.915.48 1.918.64 3.783.48 5.542s-.58 3.41-1.43 5.009c-.8 1.545-2.03 2.984-3.68 4.263-2.4 1.812-4.96 2.824-7.67 2.931-2.67.16-5.39-.586-8.1-2.078-2.72-1.493-5.28-3.89-7.73-7.088s-4.05-6.341-4.9-9.432c-.86-3.09-.8-6.021.1-8.845.91-2.771 2.77-5.276 5.55-7.514l6.18 8.047c-1.23 1.119-2.08 2.344-2.4 3.676-.37 1.333-.32 2.771.11 4.21.42 1.492 1.17 2.931 2.29 4.37 1.06 1.385 2.23 2.504 3.41 3.197 1.17.693 2.39 1.119 3.57 1.119 1.17 0 2.24-.32 3.19-1.066.91-.693 1.44-1.492 1.66-2.504.21-.959.16-2.132-.22-3.464-.32-1.332-.9-2.824-1.65-4.529l-2.18-5.116c-1.76-3.943-2.51-7.514-2.24-10.764.26-3.251 1.81-5.968 4.74-8.206 2.4-1.866 4.96-2.771 7.73-2.878 2.77-.053 5.54.639 8.26 2.131 2.71 1.493 5.17 3.677 7.4 6.555 2.24 2.931 3.68 5.862 4.37 8.792.7 2.931.59 5.702-.26 8.313-.86 2.558-2.45 4.796-4.75 6.608zm19.45 68.318c-.96-1.705-1.44-3.463-1.44-5.382q0-2.797 1.44-5.275c.91-1.652 2.24-2.931 3.95-3.944 1.7-.959 3.51-1.438 5.38-1.438 1.86.053 3.62.479 5.27 1.438 1.66.906 2.93 2.238 3.95 3.944.96 1.705 1.44 3.517 1.44 5.382-.06 1.865-.48 3.623-1.44 5.275-.91 1.652-2.24 2.931-3.95 3.944-1.7.959-3.46 1.438-5.38 1.438-1.86 0-3.62-.479-5.27-1.385-1.66-.959-2.99-2.238-3.95-3.997m74.82 75.832-45.94 18.704-3.41-8.367 20.79-31.759-.16-.32-28.94 11.777-3.94-9.698 45.93-18.704 3.47 8.526-20.84 31.599.16.426 28.88-11.723zm-5.92 63.941c-5.17 1.546-9.85 1.919-14.12 1.013-4.21-.853-7.78-2.718-10.71-5.489s-5.01-6.288-6.29-10.444c-1.28-4.21-1.44-8.313-.53-12.256.91-3.944 2.88-7.407 5.92-10.445 3.03-3.037 7.14-5.328 12.3-6.874 5.17-1.545 9.86-1.918 14.13-1.066q6.315 1.28 10.71 5.436c2.93 2.771 5.01 6.288 6.29 10.497 1.27 4.21 1.43 8.26.53 12.203-.91 3.944-2.88 7.407-5.92 10.498-3.03 3.091-7.14 5.382-12.31 6.927m-3.03-10.178c3.35-1.012 6.02-2.344 8.04-4.049 2.03-1.706 3.31-3.624 4-5.809.64-2.185.59-4.476-.11-6.874-.74-2.451-1.97-4.369-3.67-5.808-1.76-1.439-3.89-2.345-6.51-2.611-2.61-.32-5.59.053-8.95 1.065-3.35 1.013-6.02 2.345-8.04 4.05-2.03 1.705-3.36 3.624-4 5.809s-.59 4.476.11 6.874c.74 2.451 1.97 4.369 3.67 5.808 1.76 1.439 3.89 2.345 6.5 2.611 2.61.32 5.6-.053 8.96-1.066m-15.35 42.738-3.46-17.265 48.65-9.752 3.46 17.372c.96 4.902.85 9.272-.37 13.215-1.23 3.944-3.47 7.194-6.72 9.858-3.25 2.612-7.4 4.477-12.41 5.489-5.06 1.013-9.59.959-13.64-.213s-7.36-3.357-10.02-6.501c-2.67-3.251-4.48-7.301-5.49-12.203m7.41-8.739 1.33 6.554c.59 3.038 1.65 5.489 3.14 7.354s3.52 3.091 6.02 3.677c2.51.586 5.55.533 9.17-.213 3.57-.746 6.45-1.812 8.47-3.358 2.08-1.492 3.41-3.41 4.11-5.701.64-2.292.69-4.956.05-7.993l-1.33-6.555zm-1.5 40.924 49.29-5.702 3.84 33.198-8.58 1.013-2.61-22.807-11.72 1.332 2.45 21.102-8.58 1.012-2.45-21.102-11.78 1.386 2.67 22.86-8.58 1.013zm4.59 42.313 49.55-1.812.75 19.557c.16 3.73-.43 6.981-1.65 9.645-1.23 2.718-3.04 4.796-5.44 6.288-2.39 1.492-5.22 2.291-8.47 2.398-3.3.106-6.13-.48-8.58-1.812-2.4-1.332-4.32-3.304-5.65-5.968s-2.13-5.862-2.24-9.699l-.48-13.108 8.42-.32.43 11.403c.05 2.025.43 3.677 1.01 4.956.59 1.279 1.44 2.238 2.56 2.878 1.12.639 2.51.906 4.1.852 1.66-.053 3.04-.426 4.11-1.119 1.12-.692 1.92-1.705 2.45-3.09.53-1.386.8-3.038.69-5.063l-.27-7.087-40.97 1.492zm23.5 25.951-22.12 13.162-.42-11.563 22.11-12.896zm11.93 48.01c1.97-.106 3.52-.852 4.64-2.291s1.76-3.41 1.86-5.915c.06-1.705-.1-3.144-.53-4.369-.42-1.173-1.06-2.132-1.86-2.771a4.85 4.85 0 0 0-2.83-1.066c-.9-.053-1.65.106-2.34.479-.7.373-1.28.906-1.76 1.652-.53.693-.96 1.546-1.33 2.452-.38.959-.75 1.918-1.02 3.037l-1.27 4.423a35 35 0 0 1-2.19 5.861c-.91 1.759-1.92 3.304-3.2 4.583-1.22 1.279-2.66 2.238-4.31 2.931-1.65.639-3.47.959-5.54.906-3.04-.16-5.65-1.013-7.78-2.664-2.14-1.652-3.79-3.89-4.85-6.821-1.12-2.931-1.55-6.395-1.39-10.445.16-3.996.96-7.46 2.29-10.337 1.33-2.931 3.25-5.116 5.76-6.661 2.5-1.546 5.49-2.292 9.06-2.238l-.43 10.124c-1.65.053-3.09.48-4.21 1.279s-2.03 1.918-2.66 3.304c-.64 1.385-.96 2.984-1.07 4.796-.05 1.758.11 3.304.59 4.689.48 1.332 1.11 2.398 2.02 3.144s1.92 1.172 3.14 1.226c1.12.053 2.08-.213 2.83-.853.8-.639 1.49-1.545 2.08-2.771.58-1.226 1.12-2.718 1.65-4.529l1.6-5.329c1.17-4.157 2.93-7.354 5.17-9.698 2.29-2.345 5.22-3.411 8.9-3.251 2.98.107 5.59 1.012 7.78 2.771 2.18 1.705 3.83 3.997 4.95 6.927 1.12 2.878 1.65 6.128 1.49 9.752-.16 3.677-.9 6.874-2.29 9.539-1.38 2.717-3.2 4.742-5.54 6.181-2.29 1.439-4.96 2.131-7.89 2.025zM1205.63 742c.32-1.918 1.12-3.623 2.34-5.009 1.23-1.439 2.72-2.451 4.48-3.144 1.76-.692 3.57-.852 5.54-.479 1.92.319 3.62 1.119 5.01 2.344 1.44 1.226 2.45 2.718 3.14 4.476.7 1.759.86 3.624.48 5.542-.32 1.919-1.12 3.624-2.34 5.009-1.23 1.439-2.72 2.452-4.48 3.144s-3.57.853-5.54.48c-1.92-.32-3.62-1.119-5.01-2.345-1.44-1.225-2.45-2.717-3.14-4.476-.64-1.758-.8-3.623-.48-5.542m8.79 106.206-47.21-15.134 2.77-8.632 36.34-11.031.11-.32-29.74-9.538 3.2-9.965 47.21 15.134-2.82 8.739-36.24 10.87-.1.427 29.68 9.538zm-45.56 45.184c-4.96-2.132-8.79-4.903-11.51-8.26-2.66-3.357-4.26-7.087-4.69-11.084s.16-8.046 1.92-12.043c1.76-4.049 4.21-7.3 7.41-9.751 3.19-2.452 6.98-3.837 11.24-4.21s8.9.48 13.85 2.611c4.96 2.132 8.8 4.903 11.51 8.26 2.67 3.357 4.27 7.034 4.69 11.03.48 3.997-.21 8.047-1.91 12.097-1.71 3.996-4.21 7.247-7.41 9.698s-6.98 3.837-11.25 4.263c-4.26.426-8.89-.48-13.85-2.611m4.21-9.752c3.2 1.386 6.13 2.078 8.74 2.078s4.9-.639 6.77-1.865c1.86-1.225 3.3-3.037 4.31-5.382 1.02-2.344 1.28-4.582.91-6.821s-1.49-4.316-3.31-6.181c-1.81-1.918-4.31-3.57-7.51-4.902-3.2-1.386-6.13-2.079-8.74-2.079s-4.9.64-6.77 1.865c-1.86 1.226-3.3 3.038-4.31 5.383-1.01 2.344-1.28 4.582-.91 6.82.38 2.238 1.49 4.317 3.31 6.182 1.75 1.865 4.26 3.517 7.51 4.902m-39.17 22.917 8.42-15.453 43.59 23.713-8.47 15.56c-2.4 4.369-5.33 7.673-8.74 9.911-3.46 2.238-7.3 3.304-11.46 3.251-4.15-.054-8.52-1.333-13.05-3.784s-7.99-5.435-10.29-8.952c-2.34-3.464-3.51-7.301-3.51-11.404-.11-4.103 1.12-8.419 3.51-12.842m11.3-1.918-3.2 5.861c-1.49 2.718-2.23 5.276-2.29 7.674-.05 2.398.7 4.636 2.24 6.661 1.55 2.078 3.94 3.996 7.19 5.755 3.2 1.758 6.13 2.717 8.69 2.877s4.8-.426 6.82-1.758c1.97-1.332 3.73-3.357 5.17-6.075l3.2-5.862zm-27.44 30.425 41.45 27.23-18.33 27.923-7.24-4.742 12.57-19.184-9.86-6.501-11.67 17.745-7.24-4.743 11.67-17.745-9.92-6.501-12.62 19.237-7.25-4.742zm-22.22 70.448-25.42-4.1 7.08-9.169 25.21 4.317zm-1.39-35.01 39.22 30.37-11.99 15.46c-2.29 2.98-4.8 5.06-7.46 6.34s-5.44 1.7-8.21 1.33-5.43-1.6-8.04-3.57c-2.61-2.02-4.43-4.32-5.39-6.87-1.01-2.56-1.17-5.33-.53-8.21s2.13-5.862 4.48-8.846l8.04-10.337 6.67 5.168-6.99 9.005c-1.22 1.6-2.02 3.09-2.39 4.42-.38 1.39-.32 2.67.16 3.84s1.33 2.29 2.61 3.3c1.28 1.02 2.61 1.6 3.89 1.76s2.56-.1 3.89-.8c1.28-.69 2.56-1.81 3.78-3.41l4.32-5.59-32.4-25.154zm-20.25 79.45c1.6 1.17 3.25 1.6 5.06 1.23 1.81-.38 3.52-1.44 5.22-3.31 1.18-1.28 1.98-2.5 2.4-3.67.43-1.18.59-2.3.38-3.31-.22-1.01-.7-1.92-1.5-2.61-.64-.64-1.33-1.01-2.07-1.17-.75-.16-1.55-.11-2.4.11-.86.21-1.71.53-2.61 1.01-.91.48-1.82 1.01-2.72 1.65l-3.78 2.56a31.7 31.7 0 0 1-5.44 3.09c-1.81.8-3.62 1.28-5.38 1.44s-3.47 0-5.17-.54c-1.71-.53-3.3-1.49-4.8-2.87-2.23-2.08-3.67-4.43-4.26-7.04s-.37-5.38.64-8.36c1.01-2.93 2.93-5.92 5.65-8.9 2.72-2.93 5.49-5.12 8.42-6.45 2.93-1.39 5.81-1.81 8.68-1.44 2.88.43 5.71 1.76 8.37 4.16l-6.82 7.51c-1.28-1.01-2.67-1.6-4.05-1.76-1.39-.1-2.77.16-4.16.85-1.38.7-2.66 1.71-3.89 3.04-1.17 1.33-2.02 2.61-2.56 3.95-.53 1.33-.63 2.55-.47 3.73.21 1.17.74 2.13 1.59 2.93.8.74 1.76 1.12 2.72 1.17 1.01.05 2.13-.21 3.36-.8 1.22-.59 2.61-1.39 4.15-2.4l4.64-3.09c3.57-2.4 6.98-3.78 10.23-4.1s6.18.74 8.9 3.25c2.24 2.02 3.62 4.37 4.21 7.09.59 2.71.37 5.54-.64 8.47s-2.72 5.75-5.11 8.42c-2.51 2.72-5.12 4.69-7.89 5.86s-5.54 1.6-8.21 1.23c-2.71-.38-5.17-1.55-7.35-3.52zm-63.89 31.18c1.49-1.28 3.14-2.03 5.01-2.35q2.79-.48 5.43.48c1.76.64 3.31 1.65 4.53 3.14 1.28 1.5 2.08 3.2 2.35 5.01.32 1.87.16 3.68-.48 5.44s-1.65 3.3-3.15 4.53c-1.49 1.28-3.19 2.08-5.01 2.34q-2.79.48-5.43-.48c-1.76-.58-3.3-1.65-4.58-3.19-1.28-1.5-2.03-3.15-2.35-5.01-.32-1.87-.16-3.68.48-5.44.64-1.65 1.71-3.2 3.2-4.47m-61.334 87.12-26.537-41.88 7.673-4.85 34.957 14.81.32-.21-16.733-26.38 8.846-5.6 26.537 41.89-7.78 4.9-34.797-14.92-.373.21 16.679 26.38zm-63.947 5.54c-2.451-4.8-3.624-9.38-3.517-13.7.106-4.31 1.279-8.15 3.463-11.51 2.239-3.35 5.276-6.07 9.166-8.04 3.943-2.03 7.887-2.88 11.936-2.72 4.05.21 7.834 1.54 11.351 4 3.517 2.45 6.501 6.07 8.952 10.87 2.451 4.79 3.624 9.38 3.57 13.69-.106 4.32-1.225 8.15-3.463 11.51s-5.276 6.08-9.219 8.05c-3.89 1.97-7.887 2.88-11.883 2.72-4.05-.16-7.834-1.5-11.351-3.95-3.57-2.5-6.554-6.13-9.005-10.92m9.485-4.85c1.599 3.14 3.41 5.54 5.435 7.19 2.025 1.66 4.157 2.61 6.395 2.88s4.476-.21 6.767-1.33c2.238-1.17 3.944-2.72 5.063-4.69q1.678-2.955 1.438-6.87c-.159-2.62-1.065-5.49-2.611-8.64-1.598-3.14-3.41-5.54-5.435-7.19q-3.037-2.475-6.395-2.88c-2.238-.27-4.476.21-6.767 1.33-2.238 1.18-3.943 2.72-5.062 4.69s-1.599 4.27-1.439 6.88c.16 2.66 1.012 5.49 2.611 8.63m-44.761-7.45 16.359-6.51 18.278 46.1-16.466 6.55c-4.636 1.87-9.006 2.51-13.056 1.97-4.05-.53-7.727-2.13-10.87-4.84-3.198-2.72-5.702-6.51-7.621-11.25-1.918-4.79-2.611-9.27-2.184-13.48.426-4.16 1.971-7.83 4.636-11.03s6.234-5.65 10.924-7.51m9.911 5.75-6.181 2.45c-2.878 1.12-5.116 2.61-6.661 4.42-1.546 1.82-2.398 4-2.558 6.56s.479 5.54 1.812 9c1.332 3.41 2.93 5.97 4.796 7.78 1.865 1.76 3.943 2.78 6.341 2.99 2.398.27 5.009-.21 7.886-1.33l6.235-2.45zm-40.551 5.81 14.388 47.48-31.973 9.69-2.504-8.26 21.954-6.66-3.41-11.29-20.303 6.13-2.504-8.26 20.302-6.13-3.41-11.35-22.061 6.66-2.505-8.26zm-62.187 39.75-16.839-19.45 11.297-2.45 16.573 19.5zm21.368-27.76 10.551 48.49-19.13 4.16c-3.677.8-6.927.85-9.805.1-2.877-.74-5.275-2.13-7.14-4.21-1.866-2.07-3.198-4.74-3.89-7.94-.693-3.19-.587-6.12.266-8.73.906-2.62 2.505-4.85 4.849-6.61 2.345-1.81 5.382-3.09 9.112-3.95l12.789-2.77 1.812 8.26-11.137 2.45c-1.972.43-3.517 1.07-4.689 1.87s-1.972 1.81-2.398 3.04c-.427 1.22-.427 2.61-.107 4.21.373 1.59.959 2.87 1.865 3.83s2.025 1.6 3.464 1.87c1.439.26 3.144.21 5.116-.22l6.927-1.49-8.739-40.07zm-66.556 47.9c.426 1.92 1.492 3.31 3.091 4.16 1.598.85 3.623 1.17 6.128.8 1.705-.21 3.09-.64 4.209-1.28s1.919-1.39 2.398-2.29c.48-.91.693-1.92.533-2.93-.106-.91-.373-1.65-.852-2.24-.48-.59-1.12-1.07-1.919-1.49-.799-.38-1.652-.69-2.664-.91a29 29 0 0 0-3.144-.48l-4.583-.48c-2.185-.21-4.263-.58-6.181-1.12-1.919-.58-3.571-1.33-5.063-2.34s-2.664-2.24-3.623-3.73-1.546-3.25-1.865-5.28c-.373-3.03.053-5.7 1.225-8.1 1.226-2.39 3.144-4.42 5.862-5.96 2.664-1.6 6.022-2.67 10.018-3.2 3.943-.53 7.514-.37 10.604.42 3.091.8 5.649 2.35 7.567 4.48 1.972 2.19 3.197 5.01 3.784 8.53l-10.072 1.33c-.319-1.65-1.012-2.93-1.971-3.94a8.2 8.2 0 0 0-3.731-2.03c-1.492-.37-3.144-.43-4.902-.16-1.759.21-3.251.69-4.476 1.39-1.226.69-2.132 1.54-2.771 2.55a5.13 5.13 0 0 0-.64 3.31c.16 1.12.587 1.97 1.333 2.66.746.64 1.758 1.17 3.09 1.55 1.332.37 2.878.64 4.743.85l5.542.64c4.263.48 7.78 1.6 10.444 3.41s4.263 4.53 4.743 8.21c.426 2.98-.053 5.7-1.332 8.1-1.333 2.45-3.304 4.47-5.915 6.07s-5.755 2.67-9.379 3.15c-3.623.47-6.927.26-9.805-.59-2.877-.91-5.275-2.35-7.087-4.37-1.812-2.03-2.931-4.48-3.411-7.41zm-68.848-17.05c1.972-.06 3.731.42 5.382 1.33 1.652.96 2.931 2.18 3.944 3.78s1.492 3.36 1.545 5.33-.426 3.78-1.332 5.38c-.959 1.6-2.185 2.93-3.784 3.89-1.598 1.02-3.357 1.5-5.328 1.55a10.3 10.3 0 0 1-5.382-1.33c-1.599-.96-2.931-2.19-3.89-3.79-1.013-1.6-1.492-3.35-1.546-5.33-.053-1.97.427-3.73 1.333-5.38.959-1.65 2.184-2.93 3.783-3.94 1.545-.96 3.304-1.49 5.275-1.49"/><g clip-path="url(#clip1_1023_37093)"><path fill="#7F9FC2" fill-rule="evenodd" d="M406.672 534.474h-.33v-.11h-.22v-.11h-.22v-.11h-.22v-.11h-.22v-.11h-.22v-.111h-.221v-.22h-.22v-.11h-.22v-.11h-.22v-.11h-.22v-.11h-.22v-.11h-.22v-.11h-.22v-.11h-.221v-.11h-.33v-.11h-.22v-.11h-.22v-.11h-.22v-.11h-.22v-.11h-.22v-.111h-.22v-.11h-.221v-.11h-.22v-.11h-.22v-.11h-.22v-.11h-.22v-.11h-.22v-.11h-.22v-.11h-.22v-.11h-.331v-.22h-.22v-.11h-.22v-.11h-.22v-.11h-.22v-.11h-.22v-.11h-.22v-.111h-.22v-.11h-.221v-.11h-.22v-.11h-.22v-.11h-.22v-.11h-.22v-.11h-.22v-.11h-.22v-.11h-.33v-.11h-.221v-.11h-.22v-.11h-.22v-.11h-.22v-.11h-.22v-.11h-22.893v117.984l-29.936-112.151h-.22v-.11h-.33v-.11h-.22l-.11-.11h-.221v-.11h-.33v-.11h-.33v-.111h-.22l-.11-.22h-.22v-.11h-.33v-.11h-.22l-.111-.11h-.22v-.11h-.33v-.11h-.22l-.11-.11h-.22v-.11h-.33v-.11h-.22l-.111-.11h-.22v-.11h-.33v-.11h-.33v-.11h-.22l-.11-.11h-.22v-.111h-.33v-.11h-.221l-.11-.11h-.22v-.11h-.33v-.11h-.22l-.11-.11h-.22v-.11h-.33v-.11h-.221l-.11-.11h-.22v-.11h-.33v-.22h-.33v-.11h-.22l-.11-.11h-.22v-.11h-.331v-.11h-.22l-.11-.11h-.22v-.111h-.33v-.11h-.22l-.11-.11h-.22v-.11h-.331v-.11h-.22l-.11-.11h-.22v-.11h-.33v-.11h-.33v-.11h-.22l-.11-.11h-.22v-.11h-.331v-.11h-.22l-.11-.11h-.22v-.11h-.33v-.11h-29.056v225.843h22.892v-.11h.331v-.11h.22v-.11h.33v-.11h.33v-.11h.33v-.11h.22v-.11h.331v-.11h.33v-.111h.33v-.11h.22v-.11h.33v-.11h.33v-.11h.331v-.11h.22v-.11h.33v-.11h.33v-.11h.33v-.11h.22v-.22h.331v-.11h.33v-.11h.33v-.11h.22v-.11h.33v-.11h.33v-.111h.331v-.11h.22v-.11h.33v-.11h.33v-.11h.33v-.11h.22v-.11h.331v-.11h.33v-.11h.33v-.11h.22v-.11h.33v-.11h.33v-.11h.331v-.11h.22v-.11h.33v-.11h.33v-.111h.33v-.11h.22v-.22h.331v-.11h.33v-.11h.33v-.11h.22v-.11h.33v-.11h.33v-.11h.331v-.11h.22v-.11h.33V637.16l31.477 117.324h27.185v-.11h.22v-.11h.22v-.11h.22v-.11h.22v-.11h.221v-.11h.33v-.11h.22v-.11h.22v-.111h.22v-.11h.22v-.11h.22v-.11h.22v-.11h.221v-.11h.22v-.11h.22v-.11h.22v-.11h.22v-.11h.22v-.22h.22v-.11h.22v-.11h.331v-.11h.22v-.11h.22v-.11h.22v-.111h.22v-.11h.22v-.11h.22v-.11h.22v-.11h.221v-.11h.22v-.11h.22v-.11h.22v-.11h.22v-.11h.22v-.11h.22v-.11h.33v-.11h.221v-.11h.22v-.11h.22v-.11h.22v-.111h.22v-.11h.22v-.22h.22v-.11h.22v-.11h.221v-.11h.22v-.11h.22v-.11h.22v-.11h.22v-.11h.22v-.11h.33zm101.475 4.956-.111-.11-.11-.11-.11-.11-.11-.11-.11-.11-.11-.11-.11-.11-.11-.11-.11-.11-.11-.11-.11-.11-.11-.11-.11-.111-.11-.11-.11-.11-.11-.11-.11-.11-.111-.11-.11-.11-.11-.11-.11-.11-.11-.11-.11-.11-.11-.11-.11-.11-.11-.11-.11-.11-.11-.11-.11-.11-.11-.111-.11-.11-.11-.11-.11-.11-.111-.11-.11-.11-.11-.11-.11-.11-.11-.11-.11-.11-.11-.11-.11-.11-.11-.11-.11-.11-.11-.11-.11-.11-.11-.11-.11-.111-.11-.11-.11-.11-.11-.11c-9.135-5.613-18.491-9.025-28.726-9.025h-6.934c-24.874 0-45.125 20.251-45.125 45.125v143.078c0 24.874 20.251 45.125 45.125 45.125h6.934a45.2 45.2 0 0 0 27.075-9.025l.11-.11.11-.11.11-.11.11-.11.11-.11.11-.11.11-.111.11-.11.11-.11.11-.11.11-.11.11-.11.11-.11.11-.11.111-.11.11-.11.11-.11.11-.11.11-.11.11-.11.11-.11.11-.11.11-.11.11-.111.11-.11.11-.11.11-.11.11-.11.11-.11.11-.11.11-.11.111-.11.11-.11.11-.11.11-.11.11-.11.11-.11.11-.11.11-.11.11-.111.11-.11.11-.11.11-.11.11-.11.11-.11.11-.11.11-.11.111-.11.11-.11.11-.11c10.455-7.814 17.169-20.251 17.169-34.339V573.769c1.651-14.088-5.063-26.524-15.518-34.339m-25.644 189.744h-6.604c-11.006 0-19.811-8.915-19.811-19.811V573.769c0-11.006 8.915-19.811 19.811-19.811h6.604c1.981 0 3.852.33 5.613.771 4.072 3.852 6.713 9.245 6.713 15.298v143.078c0 6.053-2.641 11.446-6.713 15.299-1.761.55-3.632.77-5.613.77m273.94 3.738h-.11v-.88h-.11v-.771h-.11v-.77h-.11v-.881h-.11v-.77h-.11v-.66h-.11v-.771h-.11v-.88h-.111v-.771h-.11v-.77h-.11v-.881h-.11v-.77h-.11v-.66h-55.14v-74.951h43.144v-21.462h-43.144v-65.816h52.829v-.44h.11v-.881h.11v-.99h.11v-.991h.11v-.99h.11v-.991h.11v-1.1h.11v-.771h.11v-.99h.111v-1.101h.11v-.991h.11v-21.571h-84.637v225.843h87.168zm197.888-105.543h-24.653c-4.843 0-8.034-.77-9.465-2.201-1.211-1.431-1.871-4.513-1.871-9.025v-54.81c0-2.751.22-4.953.66-6.493h13.758c4.622 0 7.484.66 8.584 2.091 1.431 1.1 2.092 4.072 2.092 8.584v29.276h40.612v-37.53q0-28.726-28.726-28.726h-31.917c-6.054 0-11.116.991-15.299 2.862-.11 0-.11.11-.22.11s-.11.11-.22.11-.11.11-.22.11-.11.11-.22.11-.11.11-.22.11-.11.11-.221.11c-.11 0-.11.11-.22.11s-.11.11-.22.11-.11.11-.22.11-.11.11-.22.11-.11.11-.22.11-.11.11-.22.11-.11.111-.22.111-.11.11-.22.11-.111.11-.221.11-.11.11-.22.11-.11.11-.22.11-.11.11-.22.11-.11.11-.22.11c-1.651.22-1.761.22-1.761.22-.11 0-.11.11-.22.11s-.11.11-.22.11-.11.11-.22.11-.11.11-.221.11c-.11 0-.11.11-.22.11s-.11.11-.22.11-.11.11-.22.11-.11.11-.22.11-.11.111-.22.111c-.11.11-.22.11-.33.11s-.11.11-.22.11-.11.11-.22.11c-.111 0-.111.11-.221.11s-.11.11-.22.11-.11.11-.22.11-.11.11-.22.11-.11.11-.22.11-.11.11-.22.11-.11.11-.22.11-.11.11-.22.11c-.111 0-.111.11-.221.11s-.11.11-.22.11-.11.11-.22.11-.11.11-.22.11-.11.11-.22.11-.11.111-.22.111-.11.11-.22.11-.11.11-.22.11-.11.11-.221.11c-.11 0-.11.11-.22.11-8.584 3.852-12.877 12.106-12.877 24.543v59.543c0 18.16 9.025 27.185 27.185 27.185h26.965c1.761.33 3.082.88 3.852 1.65 1.431 1.101 2.091 4.073 2.091 8.585v58.552c0 4.623-.66 7.594-2.091 8.915-1.431 1.101-4.292 1.761-8.585 1.761h-13.427c-.33-1.651-.55-3.852-.55-6.494v-30.816h-1.101.77-34.558v33.018c0 12.546 4.292 20.691 12.877 24.543.11 0 .11.11.22.11s.11.11.22.11.11.11.22.11.11.11.22.11.11.11.22.11.11.11.22.11.11.11.22.11c.111 0 .111.111.221.111s.11.11.22.11.11.11.22.11.11.11.22.11.11.11.22.11.11.11.22.11.11.11.22.11.11.11.22.11.11.11.221.11c.11 0 .11.11.22.11s.11.11.22.11.11.11.22.11.11.11.22.11.11.11.22.11.11.11.22.11.11.11.22.11.11.111.22.111c.111 0 .111.11.221.11s.11.11.22.11.11.11.22.11.11.11.22.11.11.11.22.11.11.11.22.11.11.11.22.11.11.11.22.11c.111 0 .111.11.221.11s.11.11.22.11.11.11.22.11.11.11.22.11.11.11.22.11.11.11.22.11.11.11.22.11.11.11.22.11.111.111.221.111.11.11.22.11.11.11.22.11.11.11.22.11.11.11.22.11.11.11.22.11.11.11.22.11.11.11.22.11.11.11.22.11c.111 0 .111.11.221.11 4.182 1.871 9.245 2.862 15.298 2.862h31.587q28.726 0 28.726-28.726v-69.778c.33-20.912-9.135-30.487-28.286-30.487m-84.746 4.072v-74.18q0-28.726-28.725-28.726h-65.706v.11h-.11v.11h-.11v.11h-.11v.11h-.22v.11h-.111v.221h-.11v.11h-.11v.11h-.11v.11h-.11v.11h-.11v.11h-.11v.11h-.33v.11h-.11v.11h-.11v.11h-.11v.11h-.11v.11h-.11v.11h-.11v.11h-.111v.11h-.33v.11h-.11v.111h-.11v.11h-.11v.11h-.11v.22h-.11v.11h-.11v.11h-.11v.11h-.33v.11h-.11v.11h-.11v.11h-.11v.11h-.111v.11h-.11v.11h-.11v.11h-.11v.11h-.33v.111h-.11v.11h-.11v.11h-.11v.11h-.11v.11h-.11v.11h-.11v.11h-.11v.11h-.33v.11h-.111v.11h-.11v.11h-.11v.11h-.11v.11h-.11v.11h-.11v.11h-.11v214.177h.11v.11h.11v.11h.11v.111h.11v.11h.11v.11h.11v.11h.111v.11h.11v.11h.11v.11h.11v.11h.11v.11h.11v.11h.11v.11h.11v.11h.11v.11h.11v.11h.11v.11h.11v.11h.11v.111h.11v.11h.11v.11h.11v.11h.11v.11h.111v.11h.11v.11h.11v.11h.11v.11h.11v.11h.11v.11h.11v.11h.11v.11h.11v.11h.11v.11h.11v.11h.11v.11h.11v.111h.11v.11h.11v.11h.11v.11h.11v.11h.111v.11h.11v.11h.11v.11h.11v.11h.11v.11h.11v.11h.11v.11h.11v.11h.11v.11h.11v.11h.11v.11h24.654v-94.431h12.436l31.037 88.598h.221v.11h.22v.11h.22v.11h.22v.11h.22v.111h.22v.11h.22v.11h.22v.11h.22v.11h.221v.11h.22v.11h.22v.11h.22v.11h.22v.11h.22v.11h.22v.11h.22v.11h.221v.11h.22v.11h.22v.11h.22v.111h.22v.11h.22v.11h.22v.11h.22v.11h.221v.11h.22v.11h.22v.11h.22v.11h.22v.11h.22v.11h.22v.11h.22v.11h.22v.11h.221v.11h.22v.11h.22v.11h.22v.111h.22v.11h.22v.11h.22v.11h.22v.11h.221v.11h.22v.11h.22v.11h.22v.11h.22v.11h.22v.11h.22v.11h.22v.11h.221v.11h26.854l-34.118-94.761c16.068-1.101 23.552-10.566 23.552-27.736m-69.778 7.264v-83.976h23.773c4.623 0 7.484.661 8.585 2.092 1.431 1.1 2.091 4.072 2.091 8.584v62.735c0 4.622-.66 7.594-2.091 8.914-.77.771-2.531 1.321-5.063 1.541h-27.295zm-206.252-111.6h-48.096V755.92h48.096c35.66 0 51.949-21.571 51.949-56.57V584.007c0-35.33-16.399-56.902-51.949-56.902m3.192 196.678h-20.031v-164.43h19.811c13.427 0 21.241 6.604 23.773 18.93.11 1.431.11 2.862.11 4.403V700.34c0 1.541 0 2.972-.11 4.403-2.642 12.436-10.346 19.04-23.553 19.04" clip-rule="evenodd"/><path fill="#fff" fill-rule="evenodd" d="M954.331 627.369h-24.653c-4.843 0-8.034-.77-9.465-2.201-1.211-1.431-1.871-4.513-1.871-9.025v-54.81c0-4.843.66-7.924 1.871-9.025 1.431-1.431 4.622-2.201 9.465-2.201h16.619c4.843 0 7.814.77 9.025 2.201 1.431 1.211 2.201 4.182 2.201 9.025v30.817h25.094v-34.889q0-28.726-28.726-28.726h-31.917q-28.726 0-28.726 28.726v62.844q0 28.726 28.726 28.726h24.653c4.623 0 7.594.77 9.025 2.201 1.431 1.211 2.201 4.182 2.201 9.025v61.744c0 4.842-.77 8.034-2.201 9.465-1.431 1.211-4.512 1.871-9.025 1.871h-16.399c-4.842 0-8.034-.66-9.465-1.871-1.211-1.431-1.761-4.623-1.761-9.465v-30.817h-25.094v34.889q0 28.725 28.726 28.726h31.587q28.726 0 28.726-28.726v-69.778c0-19.151-9.465-28.726-28.616-28.726m-84.745 4.072v-74.18q0-28.726-28.726-28.726h-65.706v225.954h24.654v-94.432h21.461l33.019 94.432h26.854l-34.118-94.762c15.078-1.651 22.562-11.116 22.562-28.286m-24.764-4.072c0 4.843-.77 8.035-2.201 9.465-1.211 1.211-4.182 1.761-9.025 1.761h-33.788v-88.598h33.788c4.843 0 7.925.77 9.025 2.201 1.431 1.211 2.201 4.182 2.201 9.025zm-150.453 20.357h48.647v-21.462h-48.647v-76.272h59.543v-21.351h-84.637v225.843h87.168v-21.352h-62.074zm-322.256 49.747-45.014-168.832h-29.056v225.843h22.892V579.488l46.886 174.996h27.185V528.641h-22.893zm221.442-170.368h-48.096V755.92h48.096c35.66 0 51.949-21.571 51.949-56.57V584.007c0-35.33-16.399-56.902-51.949-56.902M620.3 700.45c0 20.912-8.805 32.358-27.185 32.358h-22.232v-182.48h21.902c18.6 0 27.405 11.446 27.405 32.358V700.45zM473.918 524.902h-6.934c-24.874 0-45.125 20.251-45.125 45.125v143.078c0 24.874 20.251 45.125 45.125 45.125h6.934c24.873 0 45.124-20.251 45.124-45.125V570.027c0-24.874-20.141-45.125-45.124-45.125m20.911 188.203c0 11.556-9.355 20.912-20.911 20.912h-6.934c-11.556 0-20.911-9.356-20.911-20.912V570.027c0-11.556 9.355-20.911 20.911-20.911h6.934c11.556 0 20.911 9.355 20.911 20.911z" clip-rule="evenodd"/></g></g><defs><clipPath id="SvgjsClipPath1001"><path fill="#fff" d="M.5.488h1280v1280H.5z"/></clipPath><clipPath id="SvgjsClipPath1000"><path fill="#fff" d="M298.047 524.898h684.904v233.327H298.047z"/></clipPath></defs></svg><style>@media (prefers-color-scheme:light){:root{filter:none}}</style></svg>