<svg width="200.000000pt" height="200.000000pt" viewBox="0 0 200.000000 200.000000" xmlns="http://www.w3.org/2000/svg">
  <g transform="translate(0.000000,200.000000) scale(0.100000,-0.100000)" fill="#00f58c" stroke="none">
    <path d="M870 1991 l-85 -7 -34 -17 c-19 -9 -44 -17 -57 -17 -12 0 -39 -8 -61
-19 -160 -77 -197 -97 -227 -121 -23 -19 -196 -192 -216 -216 -8 -10 -20 -28
-26 -39 -31 -57 -57 -101 -65 -109 -5 -6 -9 -18 -9 -28 0 -9 -9 -33 -20 -53
-11 -20 -20 -43 -20 -53 0 -9 -10 -42 -21 -72 l-21 -55 -1 -180 0 -180 14 -40
c7 -22 17 -44 21 -49 4 -6 8 -22 8 -38 0 -15 9 -43 20 -63 11 -20 20 -44 20
-53 0 -10 4 -22 9 -28 8 -8 34 -52 65 -109 6 -11 18 -29 26 -39 18 -22 191
-195 216 -216 29 -24 66 -43 227 -121 22 -11 49 -19 61 -19 13 0 38 -8 57 -17
l33 -17 109 -7 108 -8 113 8 112 8 32 17 c17 9 40 16 51 16 10 0 36 8 58 19
160 77 197 97 227 121 22 18 195 191 216 216 8 10 20 28 26 39 31 57 57 101
65 109 5 6 9 18 9 28 0 9 9 33 20 53 11 20 20 43 20 53 0 9 10 42 21 72 l21
55 0 185 -1 185 -20 55 c-12 30 -21 62 -21 70 0 9 -9 35 -20 58 -11 22 -20 47
-20 55 0 7 -4 17 -9 23 -8 8 -34 52 -65 109 -6 11 -18 29 -26 39 -21 25 -194
198 -216 216 -27 22 -69 45 -154 85 -41 20 -83 40 -92 45 -10 6 -28 10 -40 10
-13 0 -36 7 -53 16 l-30 16 -105 9 c-115 9 -125 9 -250 0z m384 -523 c-55 -62
-455 -458 -473 -468 -12 -6 -30 -8 -40 -5 -19 6 -71 76 -71 96 0 6 -9 28 -19
48 -23 42 -56 116 -65 149 -4 12 -11 22 -16 22 -5 0 -11 13 -15 29 -3 16 -15
39 -26 52 -23 27 -24 56 -2 81 l16 18 365 0 365 0 -19 -22z m325 5 c-38 -46
-448 -448 -474 -464 l-30 -19 -82 0 c-46 0 -83 2 -83 4 0 8 443 450 474 474
l30 22 89 0 89 0 -13 -17z m-577 -576 c-21 -25 -483 -487 -488 -487 -2 0 -4
107 -4 238 l0 239 23 11 22 11 229 0 228 1 -10 -13z" />
  </g>
  <g transform="translate(0.000000,200.000000) scale(0.100000,-0.100000)" fill="#fefefe" stroke="none">
    <path d="M0 1579 l0 -420 9 6 c6 3 13 27 16 53 7 54 66 222 77 222 5 0 8 6 8
13 0 8 9 24 20 37 11 13 20 28 20 35 0 7 9 20 20 30 11 10 20 24 20 32 0 7 6
16 14 19 8 3 20 19 26 35 7 16 17 29 22 29 13 0 78 65 78 77 0 6 11 15 25 21
14 7 31 16 38 22 57 46 76 60 85 60 6 0 17 6 24 13 17 16 117 67 132 67 6 0
29 9 51 20 22 11 49 20 61 20 36 0 84 12 84 21 l0 9 -415 0 -415 0 0 -421z" />
    <path d="M1170 1991 c0 -10 49 -21 100 -21 l37 0 23 -20 c13 -11 28 -20 35
-20 13 0 113 -50 156 -78 50 -33 84 -57 89 -63 3 -3 19 -14 37 -23 18 -9 38
-28 45 -43 l13 -28 22 -3 21 -3 13 -30 c6 -17 17 -36 23 -42 11 -11 29 -37 68
-96 10 -14 23 -37 30 -51 7 -14 16 -27 19 -30 4 -3 15 -29 24 -57 10 -29 21
-53 26 -53 8 0 12 -20 24 -112 4 -27 10 -48 16 -48 l9 0 0 415 0 415 -415 0
-415 0 0 -9z" />
    <path d="M1986 831 c-4 -5 -9 -31 -12 -58 -4 -26 -15 -70 -26 -98 -30 -75 -71
-158 -85 -173 -7 -7 -13 -18 -13 -24 0 -9 -14 -28 -60 -85 -6 -7 -15 -24 -22
-38 -6 -14 -17 -25 -25 -25 l-13 0 0 -20 0 -20 -16 0 c-17 0 -44 -23 -44 -39
0 -5 -9 -13 -20 -16 -11 -3 -26 -12 -32 -18 -12 -12 -37 -29 -97 -69 -14 -10
-37 -23 -51 -30 -14 -7 -27 -15 -30 -18 -5 -6 -20 -12 -125 -51 -27 -10 -71
-21 -97 -24 -27 -4 -48 -10 -48 -16 l0 -9 415 0 415 0 0 420 c0 231 -2 420 -4
420 -3 0 -7 -4 -10 -9z" />
    <path d="M0 415 l0 -415 415 0 415 0 0 9 c0 9 -48 21 -88 21 -13 0 -46 10 -71
21 -126 59 -157 74 -169 86 -7 7 -18 13 -24 13 -9 0 -22 9 -84 59 -6 5 -24 16
-40 24 -16 8 -39 29 -52 46 -12 17 -29 31 -36 31 -7 0 -21 18 -31 39 -10 22
-24 42 -31 45 -8 3 -14 12 -14 19 0 8 -9 22 -20 32 -11 10 -20 24 -20 31 0 7
-6 19 -13 26 -33 34 -103 209 -112 281 -4 26 -10 47 -16 47 l-9 0 0 -415z" />
  </g>
  <g transform="translate(0.000000,200.000000) scale(0.100000,-0.100000)" fill="#000000" stroke="none">
    <path d="M532 1464 l-14 -15 7 -37 c7 -37 44 -114 58 -120 4 -2 7 -12 7 -23 0
-11 7 -22 15 -25 l15 -6 0 -27 c0 -14 7 -35 15 -45 8 -11 15 -27 15 -36 0 -9
9 -27 20 -40 11 -13 20 -31 20 -40 l0 -18 34 -6 c19 -4 36 -11 38 -17 l4 -11
28 8 29 7 4 17 c3 10 13 20 24 23 l19 5 0 21 0 21 20 0 20 0 0 24 0 24 20 -5
20 -5 0 21 0 21 20 0 20 0 0 20 0 20 20 0 20 0 0 20 0 20 20 0 20 0 0 14 c0 7
9 16 20 19 l20 5 0 21 0 21 20 0 20 0 0 24 0 24 20 -5 20 -5 0 21 0 21 20 0
20 0 0 15 c0 8 7 15 15 15 8 0 15 7 15 15 l0 15 -357 0 -358 -1 -13 -15z" />
    <path d="M1381 1464 c-18 -8 -35 -24 -38 -34 -3 -11 -12 -20 -19 -20 -8 0 -14
-7 -14 -15 0 -8 -6 -15 -13 -15 -15 0 -67 -54 -67 -69 0 -5 -9 -11 -21 -14
-11 -3 -23 -15 -26 -26 -3 -12 -10 -21 -15 -21 -14 0 -98 -85 -98 -99 0 -6 -5
-11 -11 -11 -17 0 -119 -106 -119 -123 l0 -17 49 0 c69 0 141 11 141 22 0 5
10 22 22 38 l22 30 22 0 22 0 7 28 c7 31 67 92 90 92 l15 0 6 25 6 25 24 0 24
0 0 19 c0 22 41 71 59 71 6 0 11 4 11 8 0 16 36 51 63 61 l27 11 0 25 0 25
-67 -1 -68 -1 -34 -14z" />
    <path d="M533 895 l-13 -14 0 -216 0 -215 25 0 25 0 0 14 c0 20 84 106 103
106 l15 0 6 25 6 25 20 0 20 0 0 15 c0 8 10 20 22 26 30 16 48 35 48 50 0 14
55 69 70 69 5 0 10 7 10 15 l0 15 19 0 20 0 6 21 c4 11 18 25 31 31 27 13 31
33 8 42 -9 3 -109 6 -222 6 l-207 -1 -12 -14z" />
  </g>
  <g transform="translate(0.000000,200.000000) scale(0.100000,-0.100000)" fill="#f6fefc" stroke="none">
    <path d="M600 1990 c20 -13 33 -13 25 0 -3 6 -14 10 -23 10 l-17 0 15 -10z" />
    <path d="M738 1993 c7 -3 16 -2 19 1 4 3 -2 6 -13 5 l-19 -1 13 -5z" />
    <path d="M776 1985 l-6 -16 17 3 c18 3 21 20 5 26 -5 1 -12 -4 -16 -13z" />
    <path d="M1197 1994 c-9 -10 2 -24 18 -24 l14 0 -5 15 c-6 16 -17 19 -27 9z" />
    <path d="M1238 1993 c6 -2 18 -2 25 0 6 3 1 5 -13 5 -14 0 -19 -2 -12 -5z" />
    <path d="M1375 1990 c-3 -5 1 -10 9 -10 8 0 18 5 21 10 3 6 -1 10 -9 10 -8 0
-18 -4 -21 -10z" />
    <path d="M1275 1979 c-4 -6 -5 -12 -4 -14 7 -6 81 -35 91 -35 5 0 6 5 3 10 -3
6 1 10 9 10 l15 0 -5 -14 -5 -14 53 -26 c102 -52 161 -87 178 -106 10 -11 21
-20 26 -20 5 0 15 -9 22 -20 7 -11 19 -20 28 -20 l16 0 -4 13 c-3 6 -21 21
-41 32 l-37 20 4 12 5 12 -15 -6 -14 -5 7 17 6 18 -21 -5 -21 -6 -12 14 c-6 8
-18 14 -25 14 -7 0 -21 12 -30 26 l-17 25 -19 -4 c-10 -3 -18 -1 -18 5 0 5 -3
7 -8 4 -4 -2 -16 2 -27 10 -10 8 -13 14 -7 14 7 0 12 5 12 11 l0 11 -40 -4
c-22 -2 -40 -1 -40 3 0 5 -45 29 -55 29 -2 0 -7 -5 -10 -11z" />
    <path d="M683 1967 c-2 -4 -12 -5 -21 -3 -10 3 -24 1 -32 -5 l-15 -10 24 6 24
7 -7 -11 c-4 -6 -3 -11 2 -11 19 0 72 22 72 30 0 11 -40 8 -47 -3z" />
    <path d="M580 1950 c0 -5 5 -10 12 -10 6 0 3 -6 -7 -14 -11 -8 -23 -12 -27
-10 -5 3 -8 1 -8 -4 l0 -10 -22 5 c-13 3 -20 2 -16 -2 8 -9 -29 -45 -45 -45
-6 0 -19 -8 -30 -17 l-20 -18 5 15 c2 8 14 19 26 25 22 10 30 25 13 25 -14 0
-86 -73 -84 -85 2 -6 -24 -24 -57 -40 -32 -17 -59 -36 -60 -42 0 -7 -4 -13 -8
-13 -4 0 -14 -17 -22 -37 -8 -21 -16 -41 -18 -45 -2 -5 1 -8 7 -8 6 0 11 6 11
14 0 8 7 17 16 20 l16 6 -6 16 -6 15 12 -7 11 -7 -6 16 -6 16 15 12 c9 7 25
14 36 14 12 1 26 9 33 18 7 10 15 17 19 17 4 0 15 7 23 16 l16 16 -14 10 -14
10 17 -6 18 -5 42 22 c24 12 45 25 48 29 3 4 26 16 50 27 25 11 51 24 58 29
l13 9 -7 16 c-7 18 -34 24 -34 7z" />
    <path d="M400 1890 c0 -5 5 -10 11 -10 5 0 7 5 4 10 -3 6 -8 10 -11 10 -2 0
-4 -4 -4 -10z" />
    <path d="M1580 1890 c0 -5 5 -10 10 -10 6 0 10 5 10 10 0 6 -4 10 -10 10 -5 0
-10 -4 -10 -10z" />
    <path d="M1530 1883 c0 -5 11 -13 24 -19 l25 -11 -12 18 c-12 19 -37 26 -37
12z" />
    <path d="M1660 1811 c0 -5 5 -13 10 -16 6 -3 10 -2 10 4 0 5 -4 13 -10 16 -5
3 -10 2 -10 -4z" />
    <path d="M320 1800 c0 -7 3 -10 7 -7 3 4 3 10 0 14 -4 3 -7 0 -7 -7z" />
    <path d="M1720 1730 c0 -5 5 -10 10 -10 6 0 10 5 10 10 0 6 -4 10 -10 10 -5 0
-10 -4 -10 -10z" />
    <path d="M1733 1694 l-6 -17 21 -18 c12 -9 22 -20 22 -24 0 -3 7 -14 16 -22
l16 -16 10 14 10 14 -6 -17 -5 -17 29 -53 c16 -29 41 -77 56 -106 l26 -53 14
5 14 5 0 -15 c0 -8 -4 -12 -10 -9 -14 9 -12 -4 8 -52 9 -24 21 -43 26 -43 l9
0 -7 33 c-4 17 -10 33 -14 35 -4 1 -6 20 -4 42 l4 40 -10 0 c-6 0 -12 -6 -15
-12 l-5 -13 -7 28 c-4 15 -11 27 -15 27 -5 0 -6 10 -3 23 3 12 2 19 -2 15 -8
-8 -45 33 -45 50 0 5 -6 15 -14 22 -8 6 -12 18 -9 26 3 8 0 21 -7 29 l-11 14
-16 -6 -16 -6 6 17 7 17 -9 -5 c-5 -3 -14 8 -21 24 -16 38 -28 46 -37 24z" />
    <path d="M1790 1670 c0 -5 7 -10 16 -10 l15 0 -6 10 c-3 6 -10 10 -16 10 -5 0
-9 -4 -9 -10z" />
    <path d="M177 1612 l-19 -4 5 -19 5 -18 -14 -12 c-8 -6 -14 -17 -14 -24 0 -18
-36 -56 -45 -47 -4 4 -5 -3 -2 -15 3 -13 2 -23 -3 -23 -4 0 -11 -12 -15 -27
l-6 -27 -9 14 c-5 8 -11 12 -14 9 -3 -2 -7 -27 -10 -54 -3 -28 -5 -50 -6 -50
-1 0 -3 -10 -6 -22 -7 -41 13 -24 31 25 19 53 75 174 84 182 3 3 13 19 21 35
8 17 20 38 28 47 18 21 13 35 -11 30z m-120 -239 c-4 -3 -7 0 -7 7 0 7 3 10 7
7 3 -4 3 -10 0 -14z" />
    <path d="M110 1590 c0 -7 3 -10 7 -7 3 4 3 10 0 14 -4 3 -7 0 -7 -7z" />
    <path d="M1880 1590 c0 -5 5 -10 10 -10 6 0 10 5 10 10 0 6 -4 10 -10 10 -5 0
-10 -4 -10 -10z" />
    <path d="M128 1566 c-10 -7 -18 -18 -18 -25 0 -19 15 -12 27 14 6 14 10 25 10
25 -1 0 -10 -7 -19 -14z" />
    <path d="M1870 1545 c0 -8 5 -15 10 -15 6 0 10 7 10 15 0 8 -4 15 -10 15 -5 0
-10 -7 -10 -15z" />
    <path d="M0 1396 c0 -8 5 -18 10 -21 6 -3 10 1 10 9 0 8 -4 18 -10 21 -5 3
-10 -1 -10 -9z" />
    <path d="M1987 1404 c-4 -4 -7 -14 -7 -23 l0 -15 11 11 c6 6 10 16 7 23 -2 6
-7 8 -11 4z" />
    <path d="M1992 1260 c0 -14 2 -19 5 -12 2 6 2 18 0 25 -3 6 -5 1 -5 -13z" />
    <path d="M1 1254 l1 -19 5 13 c3 7 2 16 -1 19 -3 4 -6 -2 -5 -13z" />
    <path d="M15 1222 c-12 -8 -16 -62 -5 -62 7 0 23 60 17 66 -1 2 -7 0 -12 -4z" />
    <path d="M1972 1214 c3 -17 21 -21 26 -6 1 5 -4 12 -13 16 l-16 6 3 -16z" />
    <path d="M5 800 l-8 -12 14 -9 14 -8 4 10 c2 6 -1 15 -7 21 l-10 10 -7 -12z" />
    <path d="M1974 796 c-8 -22 -2 -27 16 -16 l15 9 -12 12 -12 12 -7 -17z" />
    <path d="M1 744 l1 -19 5 13 c3 7 2 16 -1 19 -3 4 -6 -2 -5 -13z" />
    <path d="M1992 740 c0 -14 2 -19 5 -12 2 6 2 18 0 25 -3 6 -5 1 -5 -13z" />
    <path d="M23 710 c2 -11 6 -22 9 -26 4 -3 4 -12 1 -19 -2 -8 0 -22 7 -32 l11
-18 -7 25 -6 25 16 -20 c20 -26 20 -11 0 42 -17 44 -36 59 -31 23z" />
    <path d="M1946 687 c-20 -53 -20 -68 1 -42 l16 20 -7 -18 c-3 -10 -6 -23 -6
-28 0 -4 -6 -6 -14 -3 l-14 5 -27 -58 c-15 -32 -30 -60 -34 -63 -3 -3 -16 -24
-28 -48 l-22 -42 5 -18 6 -17 -10 14 -10 14 -16 -16 c-9 -8 -16 -20 -16 -25 0
-6 -7 -13 -16 -16 l-16 -6 6 -17 c4 -10 4 -14 0 -11 -8 9 -44 -9 -44 -21 0 -5
9 -11 19 -14 l19 -5 23 43 c13 24 27 41 31 39 4 -3 5 3 1 12 l-6 17 16 -6 16
-6 11 14 c7 8 10 21 7 29 -3 8 1 20 9 26 8 7 14 18 14 25 0 18 36 56 45 47 4
-4 5 3 2 16 -3 12 -1 22 4 22 5 0 8 3 7 8 0 4 2 15 7 25 l8 19 8 -13 c4 -8 10
-11 13 -9 2 3 7 30 9 60 3 30 8 63 12 73 l7 17 -10 0 c-5 0 -17 -19 -26 -43z" />
    <path d="M7 624 c-4 -4 -7 -14 -7 -23 l0 -15 11 11 c6 6 10 16 7 23 -2 6 -7 8
-11 4z" />
    <path d="M1980 616 c0 -8 5 -18 10 -21 6 -3 10 1 10 9 0 8 -4 18 -10 21 -5 3
-10 -1 -10 -9z" />
    <path d="M53 613 c-15 -6 -17 -33 -3 -33 6 0 10 5 10 12 0 6 6 3 14 -7 8 -11
12 -23 10 -27 -3 -5 -1 -8 4 -8 l10 0 -5 -22 c-3 -13 -2 -20 2 -16 9 9 45 -29
45 -47 0 -6 5 -16 12 -23 7 -7 13 -22 13 -34 l0 -21 18 -3 17 -2 0 13 c0 8 -4
17 -10 20 -5 3 -17 23 -27 43 -9 20 -20 39 -24 42 -3 3 -18 31 -33 63 -15 31
-31 57 -34 56 -4 0 -13 -3 -19 -6z" />
    <path d="M110 461 c0 -6 5 -13 10 -16 l10 -6 0 15 c0 9 -4 16 -10 16 -5 0 -10
-4 -10 -9z" />
    <path d="M1864 446 l-11 -25 18 12 c11 7 19 17 19 24 0 21 -14 15 -26 -11z" />
    <path d="M105 410 c-3 -5 -1 -10 4 -10 6 0 11 5 11 10 0 6 -2 10 -4 10 -3 0
-8 -4 -11 -10z" />
    <path d="M1880 410 c0 -5 5 -10 10 -10 6 0 10 5 10 10 0 6 -4 10 -10 10 -5 0
-10 -4 -10 -10z" />
    <path d="M210 375 c0 -2 8 -20 17 -40 9 -19 22 -35 29 -35 7 0 25 -16 39 -35
15 -19 35 -37 46 -40 11 -4 17 -11 14 -16 l-6 -9 17 7 17 6 -6 -16 -6 -16 15
6 14 5 -7 -17 -6 -18 21 5 21 6 12 -14 c6 -8 17 -14 25 -14 7 0 25 -11 39 -26
14 -14 30 -22 35 -19 6 3 10 1 10 -5 0 -6 3 -9 8 -6 4 2 16 -2 27 -10 10 -8
13 -14 7 -14 -7 0 -12 -4 -12 -10 0 -17 27 -11 34 7 l7 16 -13 9 c-7 5 -33 18
-58 29 -24 11 -47 24 -50 28 -3 4 -22 15 -43 25 -20 9 -48 28 -62 41 -13 14
-26 25 -29 25 -8 0 -136 132 -136 141 0 5 -4 9 -10 9 -5 0 -10 -2 -10 -5z" />
    <path d="M1790 330 c0 -5 4 -10 9 -10 6 0 13 5 16 10 l6 10 -15 0 c-9 0 -16
-4 -16 -10z" />
    <path d="M255 260 c3 -5 8 -10 11 -10 3 0 2 5 -1 10 -3 6 -8 10 -11 10 -3 0
-2 -4 1 -10z" />
    <path d="M1695 260 c3 -5 8 -10 11 -10 3 0 2 5 -1 10 -3 6 -8 10 -11 10 -3 0
-2 -4 1 -10z" />
    <path d="M1654 245 c-4 -8 -10 -15 -16 -15 -5 0 -19 -10 -32 -23 -22 -22 -24
-47 -4 -47 l10 0 -6 16 -6 16 14 -5 15 -6 -5 13 -5 13 30 13 c17 7 31 19 31
26 0 19 -19 18 -26 -1z" />
    <path d="M320 201 c0 -6 5 -13 10 -16 l10 -6 0 15 c0 9 -4 16 -10 16 -5 0 -10
-4 -10 -9z" />
    <path d="M1667 203 c-4 -3 -7 -11 -7 -17 l0 -10 12 12 c6 6 9 14 7 17 -3 3 -9
2 -12 -2z" />
    <path d="M1515 150 c-16 -11 -54 -31 -83 -46 l-53 -26 5 -15 6 -15 -26 6 -25
7 -35 -13 c-34 -12 -40 -28 -14 -36 7 -3 10 0 7 5 -3 5 7 14 24 20 16 6 29 8
29 4 0 -4 16 -5 35 -3 35 4 46 16 23 25 l-13 5 28 7 c15 4 27 11 27 17 l0 9
23 -7 c12 -3 19 -3 15 1 -8 8 33 45 50 45 5 0 15 7 22 15 l12 15 -13 -1 c-8 0
-27 -9 -44 -19z" />
    <path d="M429 131 c22 -22 41 -28 41 -12 0 5 -8 11 -17 15 -10 3 -24 9 -32 12
-7 4 -4 -3 8 -15z" />
    <path d="M1553 136 c-25 -12 -30 -26 -10 -26 7 0 18 9 25 20 7 11 11 19 10 19
-2 -1 -13 -6 -25 -13z" />
    <path d="M400 109 c0 -5 5 -7 10 -4 6 3 10 8 10 11 0 2 -4 4 -10 4 -5 0 -10
-5 -10 -11z" />
    <path d="M1580 110 c0 -5 5 -10 10 -10 6 0 10 5 10 10 0 6 -4 10 -10 10 -5 0
-10 -4 -10 -10z" />
    <path d="M634 61 c4 -5 0 -12 -6 -15 l-13 -5 20 1 c11 1 33 -4 48 -10 33 -14
47 -15 47 -4 0 7 -77 42 -93 42 -5 0 -6 -4 -3 -9z" />
    <path d="M776 15 c4 -9 11 -14 16 -13 15 5 11 23 -6 26 l-16 3 6 -16z" />
    <path d="M1197 24 c-8 -8 1 -24 13 -24 4 0 10 7 14 15 l5 15 -13 0 c-7 0 -16
-3 -19 -6z" />
    <path d="M600 10 l-15 -10 17 0 c9 0 20 5 23 10 8 13 -5 13 -25 0z" />
    <path d="M1375 10 c3 -5 14 -10 23 -10 l17 0 -15 10 c-20 13 -33 13 -25 0z" />
    <path d="M728 3 c6 -2 18 -2 25 0 6 3 1 5 -13 5 -14 0 -19 -2 -12 -5z" />
    <path d="M1238 3 c6 -2 18 -2 25 0 6 3 1 5 -13 5 -14 0 -19 -2 -12 -5z" />
  </g>
  <g transform="translate(0.000000,200.000000) scale(0.100000,-0.100000)" fill="#060001" stroke="none">
    <path d="M527 1473 c-4 -3 -7 -13 -7 -21 0 -9 3 -12 7 -9 3 4 12 2 19 -4 l12
-10 6 10 c4 5 2 12 -4 16 -6 4 -8 11 -5 16 7 10 -18 13 -28 2z" />
    <path d="M1388 1473 c-31 -8 -19 -21 18 -20 20 1 32 3 25 5 -6 2 -9 8 -5 13 5
9 -8 10 -38 2z" />
    <path d="M1536 1465 c4 -8 12 -15 20 -15 8 0 14 7 14 15 l0 15 -20 0 -19 0 5
-15z" />
    <path d="M1215 1450 c3 -5 8 -10 11 -10 2 0 4 5 4 10 0 6 -5 10 -11 10 -5 0
-7 -4 -4 -10z" />
    <path d="M1145 1430 c-4 -6 -11 -8 -16 -5 l-9 6 0 -26 c0 -14 4 -24 8 -21 4 2
8 -4 8 -14 l0 -18 -27 3 -27 4 -22 -24 -22 -23 11 -20 11 -20 -34 4 -33 4 -18
-20 -18 -20 12 -28 c7 -15 10 -24 6 -20 -4 4 -17 3 -28 -3 l-19 -11 6 11 7 11
-15 0 c-8 0 -18 -5 -21 -10 -4 -6 -11 -8 -16 -5 l-9 6 0 -26 c0 -14 4 -24 8
-21 4 2 8 -4 8 -14 l0 -18 -26 3 -25 3 -24 -19 -23 -19 6 -15 5 -15 -20 -10
-19 -11 -35 7 -35 6 0 -15 0 -16 34 -7 34 -6 29 14 28 13 1 25 c0 14 3 30 7
36 l6 11 30 -5 29 -4 7 21 c3 12 13 21 22 21 l15 0 -6 16 -6 15 10 -6 c6 -3
10 -1 10 4 0 6 6 11 14 11 8 0 18 9 21 20 3 11 13 20 22 20 l15 0 -6 16 -6 15
10 -6 c6 -3 10 -1 10 4 0 6 7 11 15 11 16 0 31 42 21 59 -9 14 15 26 46 22
l26 -2 7 20 c3 12 13 21 22 21 l15 0 -6 16 -6 15 10 -6 c6 -3 10 -1 10 4 0 6
7 11 15 11 8 0 15 4 15 8 0 17 -13 21 -33 11 l-19 -11 6 11 7 11 -15 0 c-8 0
-18 -5 -21 -10z m15 -14 c0 -3 -5 -8 -12 -12 l-11 -7 7 11 c7 12 16 16 16 8z
m-140 -156 c0 -5 -5 -10 -11 -10 -7 0 -18 -8 -26 -17 l-14 -18 10 22 c9 18 19
26 39 32 1 1 2 -3 2 -9z m-100 -84 c0 -3 -5 -8 -12 -12 l-11 -7 7 11 c7 12 16
16 16 8z m-100 -140 c0 -3 -5 -8 -12 -12 l-11 -7 7 11 c7 12 16 16 16 8z m-30
-10 c0 -3 -5 -8 -12 -12 l-11 -7 7 11 c7 12 16 16 16 8z" />
    <path d="M1451 1424 l-13 -16 10 -10 c12 -12 5 -38 -11 -38 -5 0 -24 -15 -40
-32 -17 -18 -27 -27 -23 -20 l7 12 -10 0 c-5 0 -11 -10 -13 -22 l-3 -23 -27 3
-28 3 0 -10 c0 -6 7 -11 16 -11 l15 0 -6 -20 c-3 -11 -3 -20 1 -20 4 0 52 45
107 100 l100 101 -11 11 -12 12 -20 -24 c-11 -13 -23 -20 -28 -15 -4 4 -1 10
6 12 13 5 17 23 5 23 -5 -1 -14 -8 -22 -16z" />
    <path d="M1312 1405 c-13 -13 -21 -29 -17 -35 10 -17 25 -11 25 10 l0 20 21 0
21 0 -4 12 c-7 21 -22 18 -46 -7z" />
    <path d="M1340 1370 c0 -5 5 -10 10 -10 6 0 10 5 10 10 0 6 -4 10 -10 10 -5 0
-10 -4 -10 -10z" />
    <path d="M580 1350 c0 -7 3 -10 7 -7 3 4 3 10 0 14 -4 3 -7 0 -7 -7z" />
    <path d="M1380 1350 c0 -5 5 -10 10 -10 6 0 10 5 10 10 0 6 -4 10 -10 10 -5 0
-10 -4 -10 -10z" />
    <path d="M620 1330 c0 -7 3 -10 7 -7 3 4 3 10 0 14 -4 3 -7 0 -7 -7z" />
    <path d="M1226 1320 c-10 -10 -15 -23 -11 -29 10 -18 25 -12 25 9 0 11 5 20
10 20 6 0 10 5 10 10 0 15 -13 11 -34 -10z" />
    <path d="M570 1321 c0 -5 4 -21 10 -35 l9 -26 15 6 14 5 -16 30 c-17 28 -32
38 -32 20z" />
    <path d="M1076 1321 c-3 -5 1 -11 9 -14 l14 -6 -6 15 c-6 16 -10 17 -17 5z" />
    <path d="M1260 1290 c0 -5 5 -10 10 -10 6 0 10 5 10 10 0 6 -4 10 -10 10 -5 0
-10 -4 -10 -10z" />
    <path d="M1157 1249 c-10 -11 -15 -24 -11 -27 4 -4 9 -1 11 6 3 6 14 12 25 12
l20 0 -4 12 c-7 20 -23 19 -41 -3z" />
    <path d="M1275 1250 l-6 -10 28 0 28 0 -15 10 c-19 12 -27 12 -35 0z" />
    <path d="M610 1230 l0 -22 13 5 c6 2 12 10 12 17 0 7 -6 15 -12 18 l-13 4 0
-22z" />
    <path d="M1180 1210 c0 -5 5 -10 10 -10 6 0 10 5 10 10 0 6 -4 10 -10 10 -5 0
-10 -4 -10 -10z" />
    <path d="M1256 1189 l-29 -30 -8 13 c-4 7 -11 9 -15 5 -4 -3 -1 -14 6 -22 l13
-16 -21 -19 c-12 -11 -25 -20 -30 -20 -4 0 -18 -13 -30 -30 -22 -29 -28 -50
-15 -50 12 0 82 77 76 84 -4 3 -1 6 6 6 16 0 101 82 101 98 0 20 -23 12 -54
-19z" />
    <path d="M647 1185 l-7 -16 11 6 10 7 -7 -26 -6 -26 15 6 c9 3 13 12 11 19 -3
7 0 16 7 21 l12 7 14 -18 13 -19 0 13 c0 7 -7 20 -16 28 l-16 16 -9 -14 -9
-14 -9 13 -8 14 -6 -17z" />
    <path d="M1220 1190 c0 -5 5 -10 10 -10 6 0 10 5 10 10 0 6 -4 10 -10 10 -5 0
-10 -4 -10 -10z" />
    <path d="M1066 1160 c-10 -10 -15 -23 -11 -29 10 -18 25 -12 25 9 0 11 5 20
10 20 6 0 10 5 10 10 0 15 -13 11 -34 -10z" />
    <path d="M675 1130 l-19 -21 16 -15 15 -15 12 14 11 14 -8 22 -8 22 -19 -21z" />
    <path d="M1100 1130 c0 -5 5 -10 10 -10 6 0 10 5 10 10 0 6 -4 10 -10 10 -5 0
-10 -4 -10 -10z" />
    <path d="M1140 1110 c0 -5 5 -10 10 -10 6 0 10 5 10 10 0 6 -4 10 -10 10 -5 0
-10 -4 -10 -10z" />
    <path d="M997 1089 c-10 -11 -16 -23 -14 -26 6 -6 47 28 47 39 0 14 -15 8 -33
-13z" />
    <path d="M836 1081 c-3 -5 1 -11 9 -14 l14 -6 -6 15 c-6 16 -10 17 -17 5z" />
    <path d="M1120 1069 c0 -5 5 -7 10 -4 6 3 10 8 10 11 0 2 -4 4 -10 4 -5 0 -10
-5 -10 -11z" />
    <path d="M1020 1050 c0 -5 5 -10 10 -10 6 0 10 5 10 10 0 6 -4 10 -10 10 -5 0
-10 -4 -10 -10z" />
    <path d="M1053 1020 l1 -20 23 0 23 0 0 15 0 14 -15 -5 -15 -6 0 11 c0 6 -4
11 -9 11 -6 0 -9 -9 -8 -20z" />
    <path d="M930 1015 c0 -8 7 -15 15 -15 l14 0 -5 15 c-4 8 -10 15 -15 15 -5 0
-9 -7 -9 -15z" />
    <path d="M527 903 c-4 -3 -7 -12 -7 -19 l0 -13 14 5 c8 3 17 12 20 20 l5 14
-13 0 c-7 0 -16 -3 -19 -7z" />
    <path d="M956 896 l6 -14 -20 -20 c-11 -11 -23 -17 -27 -14 -3 4 -3 -1 1 -11
3 -9 9 -17 13 -17 12 0 41 40 41 56 l0 15 10 -6 10 -6 0 15 0 16 -20 0 -19 0
5 -14z" />
    <path d="M900 876 c0 -8 -6 -16 -12 -19 l-13 -4 8 -9 8 -8 7 10 c4 6 15 13 25
17 10 4 15 11 12 17 -9 15 -35 12 -35 -4z" />
    <path d="M880 806 c0 -19 -25 -27 -39 -13 l-11 11 -7 -9 c-5 -4 -2 -10 5 -12
6 -3 9 -9 6 -15 l-6 -10 -9 13 c-4 7 -11 10 -15 6 -4 -3 -1 -13 6 -22 l12 -15
-11 0 c-6 0 -11 -9 -11 -20 0 -11 3 -20 6 -20 12 0 104 95 104 108 0 6 -7 12
-15 12 -8 0 -15 -6 -15 -14z" />
    <path d="M740 710 c0 -5 5 -10 10 -10 6 0 10 5 10 10 0 6 -4 10 -10 10 -5 0
-10 -4 -10 -10z" />
    <path d="M725 664 l6 -36 -30 7 -31 7 -16 -17 c-9 -9 -13 -19 -9 -23 4 -4 10
-1 12 6 3 6 12 12 20 12 l15 0 -11 -14 -12 -14 11 -7 10 -6 45 45 c25 24 45
47 45 49 0 3 -7 8 -16 11 l-15 6 5 -9 c3 -5 0 -11 -8 -14 l-14 -6 5 20 5 19
-12 0 -12 0 7 -36z" />
    <path d="M630 560 l-14 -19 -13 11 c-7 6 -17 7 -21 3 -4 -4 -1 -10 6 -12 l12
-5 -20 -28 c-20 -28 -26 -50 -14 -50 12 0 104 95 104 108 0 19 -24 14 -40 -8z" />
    <path d="M560 530 c0 -5 5 -10 10 -10 6 0 10 5 10 10 0 6 -4 10 -10 10 -5 0
-10 -4 -10 -10z" />
    <path d="M520 450 l0 -20 15 0 c8 0 15 6 15 14 0 8 -7 16 -15 20 l-15 5 0 -19z" />
  </g>
  <g transform="translate(0.000000,200.000000) scale(0.100000,-0.100000)" fill="#13ec91" stroke="none">
    <path d="M920 1990 c0 -5 9 -10 19 -10 11 0 23 5 26 10 l6 10 -25 0 c-14 0
-26 -4 -26 -10z" />
    <path d="M1035 1990 c3 -5 15 -10 26 -10 10 0 19 5 19 10 0 6 -12 10 -26 10
l-25 0 6 -10z" />
    <path d="M748 1973 c-27 -9 -48 -20 -48 -24 0 -12 37 -11 45 0 3 5 19 12 35
16 30 7 52 26 28 24 -7 0 -34 -7 -60 -16z" />
    <path d="M1189 1976 c8 -9 19 -15 25 -15 6 1 24 -3 39 -9 33 -14 47 -15 47 -4
0 9 -45 28 -90 37 l-35 8 14 -17z" />
    <path d="M600 1923 c-30 -15 -56 -30 -58 -35 -2 -4 -10 -8 -18 -8 -8 0 -14 -5
-14 -11 0 -6 3 -9 8 -7 35 17 83 39 114 52 39 17 58 36 36 36 -7 -1 -38 -13
-68 -27z" />
    <path d="M1330 1935 c7 -8 16 -15 21 -15 7 0 91 -37 132 -58 4 -2 7 1 7 7 0 6
-6 11 -14 11 -8 0 -16 4 -18 8 -4 10 -112 62 -129 62 l-11 0 12 -15z" />
    <path d="M453 1845 c-9 -24 0 -25 27 -5 l25 20 -23 0 -23 0 -6 -15z" />
    <path d="M1520 1840 c27 -20 36 -19 27 5 l-6 15 -23 0 -23 0 25 -20z" />
    <path d="M400 1800 c0 -5 5 -10 10 -10 6 0 10 5 10 10 0 6 -4 10 -10 10 -5 0
-10 -4 -10 -10z" />
    <path d="M1580 1800 c0 -5 5 -10 10 -10 6 0 10 5 10 10 0 6 -4 10 -10 10 -5 0
-10 -4 -10 -10z" />
    <path d="M350 1760 c-8 -11 -20 -20 -26 -20 -7 0 -33 -23 -58 -52 -41 -46 -54
-68 -42 -68 5 0 156 151 156 156 0 11 -17 2 -30 -16z" />
    <path d="M1620 1777 c0 -2 34 -39 76 -81 42 -43 79 -75 82 -71 4 4 -3 15 -15
25 -13 10 -23 22 -23 27 0 13 -76 83 -90 83 -5 0 -10 5 -10 10 0 6 -4 10 -10
10 -5 0 -10 -2 -10 -3z" />
    <path d="M190 1590 c0 -5 5 -10 10 -10 6 0 10 5 10 10 0 6 -4 10 -10 10 -5 0
-10 -4 -10 -10z" />
    <path d="M1790 1590 c0 -5 5 -10 10 -10 6 0 10 5 10 10 0 6 -4 10 -10 10 -5 0
-10 -4 -10 -10z" />
    <path d="M144 1535 c-3 -8 -4 -20 -2 -26 l4 -12 17 27 17 26 -15 0 c-9 0 -18
-7 -21 -15z" />
    <path d="M1837 1524 l17 -27 4 12 c6 19 -6 41 -23 41 l-15 0 17 -26z" />
    <path d="M515 1480 c-10 -11 -15 -23 -12 -27 8 -7 47 25 47 39 0 14 -16 9 -35
-12z" />
    <path d="M1264 1485 c-9 -22 1 -29 15 -11 l12 14 -11 7 c-5 3 -13 -1 -16 -10z" />
    <path d="M1374 1478 c-31 -24 -474 -466 -474 -474 0 -2 4 -4 10 -4 13 0 440
427 440 440 0 5 6 10 13 10 13 1 57 34 57 44 0 12 -17 6 -46 -16z" />
    <path d="M120 1479 c0 -6 -7 -17 -15 -25 -8 -9 -15 -21 -15 -27 1 -7 12 2 25
18 27 32 31 45 15 45 -5 0 -10 -5 -10 -11z" />
    <path d="M1580 1480 c0 -14 -40 -54 -63 -63 -9 -3 -17 -13 -17 -22 0 -8 -7
-15 -15 -15 -8 0 -15 -8 -15 -17 l0 -17 32 30 c51 46 98 97 98 106 0 4 -4 8
-10 8 -5 0 -10 -5 -10 -10z" />
    <path d="M1860 1483 c0 -13 49 -69 50 -56 0 6 -7 18 -15 27 -8 8 -15 19 -15
25 0 6 -4 11 -10 11 -5 0 -10 -3 -10 -7z" />
    <path d="M1230 1440 c0 -5 5 -10 10 -10 6 0 10 5 10 10 0 6 -4 10 -10 10 -5 0
-10 -4 -10 -10z" />
    <path d="M500 1416 c0 -8 7 -22 15 -30 9 -8 21 -30 27 -48 6 -18 20 -41 30
-52 l18 -20 0 17 c0 9 -4 17 -8 17 -5 0 -15 18 -22 40 -7 22 -16 40 -21 40 -4
0 -10 11 -13 25 -7 27 -26 35 -26 11z" />
    <path d="M66 1376 c-18 -38 -21 -60 -7 -51 11 6 41 63 41 77 0 20 -19 5 -34
-26z" />
    <path d="M1171 1385 c-13 -14 -21 -28 -18 -32 7 -6 57 37 57 50 0 14 -15 7
-39 -18z" />
    <path d="M1900 1406 c0 -2 7 -20 15 -39 15 -37 35 -57 35 -37 0 19 -31 80 -41
80 -5 0 -9 -2 -9 -4z" />
    <path d="M1423 1320 c-3 -10 -14 -22 -24 -25 -10 -4 -19 -11 -19 -16 0 -13
-41 -53 -63 -62 -9 -3 -17 -13 -17 -22 0 -8 -7 -15 -16 -15 -9 0 -18 -9 -21
-19 -3 -11 -13 -21 -24 -24 -10 -3 -19 -12 -19 -20 0 -8 -9 -17 -20 -20 -11
-3 -20 -12 -20 -21 0 -9 -7 -16 -15 -16 -8 0 -15 -4 -15 -10 0 -5 -18 -20 -40
-32 -36 -21 -51 -38 -32 -38 21 0 82 53 225 194 86 86 157 158 157 161 0 3 -7
5 -16 5 -9 0 -18 -9 -21 -20z" />
    <path d="M1091 1305 c-13 -14 -21 -28 -18 -32 7 -6 57 37 57 50 0 14 -15 7
-39 -18z" />
    <path d="M25 1244 c-9 -30 -15 -58 -11 -61 3 -3 9 3 12 13 4 10 13 34 20 53
16 39 17 51 5 51 -4 0 -16 -25 -26 -56z" />
    <path d="M1940 1294 c0 -15 34 -105 41 -110 13 -8 11 7 -8 65 -9 28 -20 51
-25 51 -4 0 -8 -3 -8 -6z" />
    <path d="M1011 1225 c-13 -14 -21 -28 -18 -32 7 -6 57 37 57 50 0 14 -15 7
-39 -18z" />
    <path d="M590 1235 c0 -3 4 -13 9 -23 32 -59 61 -123 61 -132 0 -17 50 -88 67
-94 27 -11 27 3 2 27 -14 12 -35 45 -48 72 -12 28 -27 57 -32 65 -5 8 -12 22
-15 30 -19 51 -25 60 -34 60 -5 0 -10 -2 -10 -5z" />
    <path d="M931 1145 c-13 -14 -21 -28 -18 -32 7 -6 57 37 57 50 0 14 -15 7 -39
-18z" />
    <path d="M845 1055 c-17 -19 -38 -37 -47 -41 -19 -6 -25 -24 -9 -24 10 0 101
84 101 93 0 16 -17 5 -45 -28z" />
    <path d="M0 1054 l0 -25 10 6 c13 8 13 45 0 45 -5 0 -10 -12 -10 -26z" />
    <path d="M1980 1061 c0 -11 5 -23 10 -26 l10 -6 0 25 c0 14 -4 26 -10 26 -5 0
-10 -9 -10 -19z" />
    <path d="M680 970 c0 -7 3 -10 7 -7 3 4 3 10 0 14 -4 3 -7 0 -7 -7z" />
    <path d="M0 946 c0 -14 5 -26 10 -26 6 0 10 9 10 19 0 11 -4 23 -10 26 l-10 6
0 -25z" />
    <path d="M1987 963 c-11 -10 -8 -43 3 -43 6 0 10 11 10 25 0 26 -2 29 -13 18z" />
    <path d="M965 920 l-6 -10 16 0 16 0 -6 10 c-3 6 -8 10 -10 10 -2 0 -7 -4 -10
-10z" />
    <path d="M523 908 c-13 -6 -23 -15 -23 -20 0 -11 4 -10 35 4 14 6 25 15 25 20
0 10 -9 9 -37 -4z" />
    <path d="M1000 910 c0 -5 5 -10 10 -10 6 0 10 5 10 10 0 6 -4 10 -10 10 -5 0
-10 -4 -10 -10z" />
    <path d="M980 870 c0 -5 -4 -10 -9 -10 -14 0 -71 -53 -71 -66 0 -6 -9 -14 -20
-17 -11 -3 -20 -12 -20 -20 0 -8 -9 -17 -20 -20 -11 -3 -20 -12 -20 -20 0 -9
-9 -19 -20 -22 -11 -3 -20 -11 -20 -16 0 -10 -45 -59 -54 -59 -10 0 -66 -56
-66 -66 0 -6 -9 -14 -20 -17 -11 -3 -20 -12 -20 -21 0 -9 -6 -16 -14 -16 -8 0
-17 -9 -21 -19 -3 -10 -15 -21 -25 -24 -11 -3 -20 -12 -20 -21 0 -9 -7 -16
-15 -16 -8 0 -15 -4 -15 -10 0 -5 4 -10 9 -10 9 0 481 468 481 477 0 1 -4 3
-10 3 -5 0 -10 -4 -10 -10z" />
    <path d="M10 814 c0 -22 33 -114 42 -114 11 0 10 37 -2 45 -5 3 -10 14 -10 24
0 19 -29 63 -30 45z" />
    <path d="M1974 804 c-4 -10 -13 -34 -20 -53 -16 -39 -17 -51 -5 -51 10 0 45
109 37 117 -3 3 -9 -3 -12 -13z" />
    <path d="M50 670 c0 -19 31 -80 41 -80 13 0 11 13 -7 48 -17 34 -34 50 -34 32z" />
    <path d="M1934 670 c-17 -28 -34 -62 -34 -71 0 -5 4 -9 9 -9 12 0 43 68 39 82
l-4 12 -10 -14z" />
    <path d="M90 573 c0 -6 7 -18 15 -27 8 -8 15 -19 15 -25 0 -6 5 -11 10 -11 16
0 12 13 -15 45 -13 17 -24 25 -25 18z" />
    <path d="M1881 552 c-23 -33 -26 -42 -11 -42 6 0 10 7 10 15 0 8 4 15 9 15 10
0 24 30 17 37 -2 2 -13 -9 -25 -25z" />
    <path d="M140 482 l0 -23 15 -6 c24 -9 25 0 5 27 l-20 25 0 -23z" />
    <path d="M1837 476 l-17 -26 15 0 c17 0 29 22 23 41 l-4 12 -17 -27z" />
    <path d="M190 410 c0 -5 5 -10 10 -10 6 0 10 5 10 10 0 6 -4 10 -10 10 -5 0
-10 -4 -10 -10z" />
    <path d="M1790 410 c0 -5 5 -10 10 -10 6 0 10 5 10 10 0 6 -4 10 -10 10 -5 0
-10 -4 -10 -10z" />
    <path d="M220 370 c0 -5 5 -10 10 -10 6 0 10 -5 10 -10 0 -14 70 -90 83 -90 5
0 17 -10 27 -22 10 -13 21 -20 25 -16 4 3 -28 40 -71 82 -42 42 -79 76 -81 76
-1 0 -3 -4 -3 -10z" />
    <path d="M1692 303 c-39 -42 -69 -79 -66 -82 4 -3 9 0 11 7 3 6 10 12 16 12 6
0 37 27 69 61 54 56 69 80 51 78 -5 0 -41 -35 -81 -76z" />
    <path d="M400 200 c0 -5 5 -10 10 -10 6 0 10 5 10 10 0 6 -4 10 -10 10 -5 0
-10 -4 -10 -10z" />
    <path d="M1580 200 c0 -5 5 -10 10 -10 6 0 10 5 10 10 0 6 -4 10 -10 10 -5 0
-10 -4 -10 -10z" />
    <path d="M450 165 c0 -17 22 -29 41 -23 l12 4 -27 17 -26 17 0 -15z" />
    <path d="M1520 160 l-25 -20 23 0 23 0 6 15 c9 24 0 25 -27 5z" />
    <path d="M510 131 c0 -6 6 -11 14 -11 8 0 16 -4 18 -8 4 -10 112 -62 128 -62
20 0 0 19 -38 36 -31 13 -79 35 -114 52 -5 2 -8 -1 -8 -7z" />
    <path d="M1440 120 c-19 -11 -52 -26 -72 -35 -38 -16 -58 -35 -38 -35 16 0
124 52 128 62 2 4 10 8 18 8 8 0 14 5 14 10 0 13 -8 11 -50 -10z" />
    <path d="M700 51 c0 -10 109 -45 117 -37 3 3 -7 10 -23 16 -16 5 -37 15 -46
20 -22 12 -48 13 -48 1z" />
    <path d="M1245 43 l-30 -16 13 -4 c14 -5 72 18 72 29 0 12 -22 9 -55 -9z" />
    <path d="M1185 20 l-6 -10 15 0 c9 0 16 5 16 10 0 6 -4 10 -9 10 -6 0 -13 -4
-16 -10z" />
    <path d="M920 10 c0 -5 12 -10 26 -10 l25 0 -6 10 c-3 6 -15 10 -26 10 -10 0
-19 -4 -19 -10z" />
    <path d="M1035 10 l-6 -10 25 0 c14 0 26 5 26 10 0 6 -9 10 -19 10 -11 0 -23
-4 -26 -10z" />
  </g>
  <g transform="translate(0.000000,200.000000) scale(0.100000,-0.100000)" fill="#020c05" stroke="none">
    <path d="M521 1476 c-15 -18 -11 -68 6 -73 l11 -4 -1 33 -2 33 368 0 367 0 0
13 0 12 -369 0 -369 0 -11 -14z" />
    <path d="M1379 1472 c-36 -25 -469 -460 -469 -472 l0 -10 90 0 91 0 27 18 c50
32 100 92 77 92 -3 0 -23 -19 -44 -41 l-39 -42 -11 7 c-6 4 -11 2 -11 -3 l0
-11 -77 0 -78 0 228 228 227 227 87 4 88 3 -93 -92 c-50 -50 -92 -94 -92 -96
0 -2 4 -4 10 -4 13 0 200 186 200 199 l0 11 -92 0 -93 0 -26 -18z" />
    <path d="M1220 1450 c0 -5 5 -10 10 -10 6 0 10 5 10 10 0 6 -4 10 -10 10 -5 0
-10 -4 -10 -10z" />
    <path d="M1180 1410 c0 -5 5 -10 10 -10 6 0 10 5 10 10 0 6 -4 10 -10 10 -5 0
-10 -4 -10 -10z" />
    <path d="M536 1371 c3 -14 15 -38 25 -55 11 -17 19 -38 19 -47 0 -9 6 -22 14
-28 8 -7 17 -24 21 -39 7 -32 32 -68 41 -59 3 3 -1 18 -9 34 -41 76 -57 115
-51 125 l7 11 -10 -6 -11 -7 -6 23 c-3 12 -15 33 -27 47 l-20 25 7 -24z" />
    <path d="M1140 1370 c0 -5 5 -10 10 -10 6 0 10 5 10 10 0 6 -4 10 -10 10 -5 0
-10 -4 -10 -10z" />
    <path d="M1095 1330 c3 -5 10 -10 16 -10 5 0 9 5 9 10 0 6 -7 10 -16 10 l-15
0 6 -10z" />
    <path d="M1060 1296 c0 -9 5 -16 10 -16 6 0 10 4 10 9 0 6 -4 13 -10 16 l-10
6 0 -15z" />
    <path d="M1282 1190 c-44 -44 -77 -82 -72 -85 5 -3 45 30 90 75 44 44 80 82
80 85 0 16 -26 -4 -98 -75z" />
    <path d="M1020 1250 c0 -5 5 -10 10 -10 6 0 10 5 10 10 0 6 -4 10 -10 10 -5 0
-10 -4 -10 -10z" />
    <path d="M1303 1243 c4 -3 10 -3 14 0 3 4 0 7 -7 7 -7 0 -10 -3 -7 -7z" />
    <path d="M980 1210 c0 -5 5 -10 10 -10 6 0 10 5 10 10 0 6 -4 10 -10 10 -5 0
-10 -4 -10 -10z" />
    <path d="M940 1170 c0 -5 5 -10 10 -10 6 0 10 5 10 10 0 6 -4 10 -10 10 -5 0
-10 -4 -10 -10z" />
    <path d="M900 1130 c0 -5 5 -10 10 -10 6 0 10 5 10 10 0 6 -4 10 -10 10 -5 0
-10 -4 -10 -10z" />
    <path d="M670 1090 c0 -15 31 -73 35 -68 8 7 -16 78 -25 78 -6 0 -10 -5 -10
-10z" />
    <path d="M855 1090 c3 -5 10 -10 16 -10 5 0 9 5 9 10 0 6 -7 10 -16 10 l-15 0
6 -10z" />
    <path d="M820 1056 c0 -9 5 -16 10 -16 6 0 10 4 10 9 0 6 -4 13 -10 16 l-10 6
0 -15z" />
    <path d="M723 1005 c2 -5 19 -10 37 -10 18 0 35 5 37 10 l3 10 -40 0 -40 0 3
-10z" />
    <path d="M523 903 l-13 -5 0 -244 0 -244 10 0 c16 0 480 469 480 485 0 8 -7
15 -15 15 l-14 0 6 -17 6 -16 -11 7 -12 7 0 -12 c0 -6 -97 -108 -215 -226
l-215 -215 0 224 0 224 12 12 c12 12 3 15 -19 5z" />
  </g>
  <g transform="translate(0.000000,200.000000) scale(0.100000,-0.100000)" fill="#17e08a" stroke="none">
    <path d="M485 1860 c-3 -5 -2 -10 4 -10 5 0 13 5 16 10 3 6 2 10 -4 10 -5 0
-13 -4 -16 -10z" />
    <path d="M1495 1860 c3 -5 11 -10 16 -10 6 0 7 5 4 10 -3 6 -11 10 -16 10 -6
0 -7 -4 -4 -10z" />
    <path d="M320 1740 c0 -5 4 -10 9 -10 6 0 13 5 16 10 l6 10 -15 0 c-9 0 -16
-4 -16 -10z" />
    <path d="M1660 1740 c0 -5 5 -10 10 -10 6 0 10 5 10 10 0 6 -4 10 -10 10 -5 0
-10 -4 -10 -10z" />
    <path d="M250 1670 c0 -5 5 -10 10 -10 6 0 10 5 10 10 0 6 -4 10 -10 10 -5 0
-10 -4 -10 -10z" />
    <path d="M1730 1671 c0 -6 5 -13 10 -16 l10 -6 0 15 c0 9 -4 16 -10 16 -5 0
-10 -4 -10 -9z" />
    <path d="M137 1513 c-4 -3 -7 -11 -7 -17 l0 -10 12 12 c6 6 9 14 7 17 -3 3 -9
2 -12 -2z" />
    <path d="M1850 1511 c0 -5 5 -13 10 -16 6 -3 10 -2 10 4 0 5 -4 13 -10 16 -5
3 -10 2 -10 -4z" />
    <path d="M1260 1490 c0 -6 -108 -118 -240 -250 l-239 -239 -28 -3 -28 -4 18
-8 18 -9 24 13 c31 17 495 483 495 498 0 7 -4 12 -10 12 -5 0 -10 -5 -10 -10z" />
    <path d="M1394 1485 c-10 -8 -14 -15 -7 -15 19 0 43 11 43 21 0 13 -14 11 -36
-6z" />
    <path d="M1580 1489 c0 -6 -14 -24 -30 -41 -17 -17 -28 -33 -25 -37 8 -7 75
64 75 79 0 5 -4 10 -10 10 -5 0 -10 -5 -10 -11z" />
    <path d="M510 1465 l-12 -15 10 0 c12 0 26 19 19 26 -2 2 -10 -2 -17 -11z" />
    <path d="M1340 1450 c0 -5 5 -10 10 -10 6 0 10 5 10 10 0 6 -4 10 -10 10 -5 0
-10 -4 -10 -10z" />
    <path d="M510 1411 c0 -5 9 -19 20 -32 l20 -24 -11 33 c-6 17 -15 32 -20 32
-5 0 -9 -4 -9 -9z" />
    <path d="M1472 1368 c-18 -17 -30 -33 -27 -36 3 -3 19 9 37 26 40 42 31 51
-10 10z" />
    <path d="M550 1331 c0 -6 5 -13 10 -16 l10 -6 0 15 c0 9 -4 16 -10 16 -5 0
-10 -4 -10 -9z" />
    <path d="M1371 1269 c-29 -28 -49 -54 -46 -57 3 -3 29 17 57 46 28 29 49 54
46 57 -3 3 -28 -18 -57 -46z" />
    <path d="M580 1266 c0 -10 40 -76 46 -76 2 0 -2 12 -8 28 -13 29 -38 62 -38
48z" />
    <path d="M1290 1185 l-12 -15 10 0 c12 0 26 19 19 26 -2 2 -10 -2 -17 -11z" />
    <path d="M620 1171 c0 -6 5 -13 10 -16 l10 -6 0 15 c0 9 -4 16 -10 16 -5 0
-10 -4 -10 -9z" />
    <path d="M1250 1145 l-12 -15 10 0 c12 0 26 19 19 26 -2 2 -10 -2 -17 -11z" />
    <path d="M655 1108 c9 -30 35 -71 41 -65 6 6 -34 87 -42 87 -3 0 -2 -10 1 -22z" />
    <path d="M1210 1105 l-12 -15 10 0 c12 0 26 19 19 26 -2 2 -10 -2 -17 -11z" />
    <path d="M1154 1050 c-16 -16 -35 -30 -41 -30 -14 0 -18 -20 -5 -20 13 0 87
69 81 75 -3 3 -19 -8 -35 -25z" />
    <path d="M900 990 c0 -5 5 -10 10 -10 6 0 10 5 10 10 0 6 -4 10 -10 10 -5 0
-10 -4 -10 -10z" />
    <path d="M1060 990 c0 -5 4 -10 9 -10 6 0 13 5 16 10 l6 10 -15 0 c-9 0 -16
-4 -16 -10z" />
    <path d="M545 910 l-6 -10 228 -2 228 -3 -33 -34 c-18 -19 -30 -36 -27 -39 2
-3 23 13 46 35 l42 41 -7 11 -7 11 -229 0 -229 0 -6 -10z" />
    <path d="M506 891 c-4 -7 -5 -15 -2 -18 9 -9 19 4 14 18 l-4 13 -8 -13z" />
    <path d="M890 785 l-12 -15 10 0 c12 0 26 19 19 26 -2 2 -10 -2 -17 -11z" />
    <path d="M850 745 l-12 -15 10 0 c12 0 26 19 19 26 -2 2 -10 -2 -17 -11z" />
    <path d="M756 654 c-37 -36 -65 -69 -62 -72 3 -3 36 25 73 61 36 37 64 69 61
72 -3 3 -35 -24 -72 -61z" />
    <path d="M650 545 l-12 -15 10 0 c12 0 26 19 19 26 -2 2 -10 -2 -17 -11z" />
    <path d="M592 488 c-18 -17 -30 -33 -27 -36 3 -3 19 9 37 26 17 18 29 35 26
37 -2 3 -19 -9 -36 -27z" />
    <path d="M130 501 c0 -5 5 -13 10 -16 6 -3 10 -2 10 4 0 5 -4 13 -10 16 -5 3
-10 2 -10 -4z" />
    <path d="M1857 503 c-4 -3 -7 -11 -7 -17 l0 -10 12 12 c6 6 9 14 7 17 -3 3 -9
2 -12 -2z" />
    <path d="M523 426 c-22 -10 -31 -26 -15 -26 12 0 48 28 42 32 -3 2 -15 -1 -27
-6z" />
    <path d="M250 330 c0 -5 5 -10 10 -10 6 0 10 5 10 10 0 6 -4 10 -10 10 -5 0
-10 -4 -10 -10z" />
    <path d="M1730 330 c0 -5 5 -10 10 -10 6 0 10 5 10 10 0 6 -4 10 -10 10 -5 0
-10 -4 -10 -10z" />
    <path d="M320 260 c0 -5 7 -10 16 -10 l15 0 -6 10 c-3 6 -10 10 -16 10 -5 0
-9 -4 -9 -10z" />
    <path d="M1660 260 c0 -5 5 -10 10 -10 6 0 10 5 10 10 0 6 -4 10 -10 10 -5 0
-10 -4 -10 -10z" />
    <path d="M485 140 c3 -5 11 -10 16 -10 6 0 7 5 4 10 -3 6 -11 10 -16 10 -6 0
-7 -4 -4 -10z" />
  </g>
  <g transform="translate(0.000000,200.000000) scale(0.100000,-0.100000)" fill="#17b46f" stroke="none">
    <path d="M522 1475 c-22 -25 -28 -45 -14 -45 4 0 12 10 17 23 l10 22 373 3
373 2 -6 10 -6 10 -363 0 -362 0 -22 -25z" />
    <path d="M1393 1480 c-18 -11 -137 -124 -264 -251 l-231 -231 11 -11 11 -11 0
15 c0 16 443 461 477 478 l22 11 91 0 91 0 -6 10 -6 10 -82 0 -82 0 -32 -20z" />
    <path d="M520 1401 c0 -6 5 -13 10 -16 l10 -6 0 15 c0 9 -4 16 -10 16 -5 0
-10 -4 -10 -9z" />
    <path d="M540 1352 c0 -5 7 -15 15 -22 l15 -12 0 10 c0 5 -7 15 -15 22 l-15
12 0 -10z" />
    <path d="M600 1231 c0 -6 5 -13 10 -16 l10 -6 0 15 c0 9 -4 16 -10 16 -5 0
-10 -4 -10 -9z" />
    <path d="M660 1101 c0 -5 5 -13 10 -16 6 -3 10 -2 10 4 0 5 -4 13 -10 16 -5 3
-10 2 -10 -4z" />
    <path d="M691 1044 l1 -19 5 13 c3 7 2 16 -1 19 -3 4 -6 -2 -5 -13z" />
    <path d="M1113 1020 c-13 -5 -23 -14 -23 -20 l0 -10 25 16 c14 9 25 18 25 20
0 5 0 5 -27 -6z" />
    <path d="M525 900 l-6 -10 15 6 c18 7 21 14 7 14 -6 0 -13 -4 -16 -10z" />
    <path d="M1000 899 c0 -5 5 -7 10 -4 6 3 10 8 10 11 0 2 -4 4 -10 4 -5 0 -10
-5 -10 -11z" />
    <path d="M500 646 l0 -235 10 -6 10 -6 0 240 0 241 -10 0 -10 0 0 -234z" />
  </g>
  <g transform="translate(0.000000,200.000000) scale(0.100000,-0.100000)" fill="#05371b" stroke="none">
    <path d="M540 1488 c0 -4 164 -9 365 -10 201 -2 365 0 365 4 0 4 -164 9 -365
10 -201 2 -365 0 -365 -4z" />
    <path d="M1403 1485 c-13 -5 -23 -13 -23 -18 0 -4 9 -3 21 3 l20 11 85 -3 c46
-2 84 0 84 4 0 11 -163 14 -187 3z" />
    <path d="M1225 1449 c-11 -17 1 -21 15 -4 l12 15 -10 0 c-6 0 -14 -5 -17 -11z" />
    <path d="M520 1411 c0 -5 5 -13 10 -16 6 -3 10 -2 10 4 0 5 -4 13 -10 16 -5 3
-10 2 -10 -4z" />
    <path d="M1185 1409 c-11 -17 1 -21 15 -4 l12 15 -10 0 c-6 0 -14 -5 -17 -11z" />
    <path d="M1145 1369 c-11 -17 1 -21 15 -4 l12 15 -10 0 c-6 0 -14 -5 -17 -11z" />
    <path d="M548 1344 c5 -11 15 -31 23 -46 7 -16 14 -26 16 -24 7 6 -24 73 -37
81 l-11 7 9 -18z" />
    <path d="M1105 1329 c-11 -17 1 -21 15 -4 l12 15 -10 0 c-6 0 -14 -5 -17 -11z" />
    <path d="M1065 1289 c-11 -17 1 -21 15 -4 l12 15 -10 0 c-6 0 -14 -5 -17 -11z" />
    <path d="M1025 1249 c-11 -17 1 -21 15 -4 l12 15 -10 0 c-6 0 -14 -5 -17 -11z" />
    <path d="M600 1241 c0 -5 5 -13 10 -16 6 -3 10 -2 10 4 0 5 -4 13 -10 16 -5 3
-10 2 -10 -4z" />
    <path d="M985 1209 c-11 -17 1 -21 15 -4 l12 15 -10 0 c-6 0 -14 -5 -17 -11z" />
    <path d="M630 1170 c0 -5 9 -24 20 -42 23 -39 26 -31 6 17 -15 34 -26 45 -26
25z" />
    <path d="M945 1169 c-11 -17 1 -21 15 -4 l12 15 -10 0 c-6 0 -14 -5 -17 -11z" />
    <path d="M905 1129 c-11 -17 1 -21 15 -4 l12 15 -10 0 c-6 0 -14 -5 -17 -11z" />
    <path d="M865 1089 c-11 -17 1 -21 15 -4 l12 15 -10 0 c-6 0 -14 -5 -17 -11z" />
    <path d="M670 1081 c0 -5 5 -13 10 -16 6 -3 10 -2 10 4 0 5 -4 13 -10 16 -5 3
-10 2 -10 -4z" />
    <path d="M825 1049 c-11 -17 1 -21 15 -4 l12 15 -10 0 c-6 0 -14 -5 -17 -11z" />
    <path d="M710 1010 c0 -5 7 -10 16 -10 l15 0 -6 10 c-3 6 -10 10 -16 10 -5 0
-9 -4 -9 -10z" />
    <path d="M508 645 c1 -129 6 -235 10 -235 4 0 6 106 4 235 -1 129 -6 235 -10
235 -4 0 -6 -106 -4 -235z" />
  </g>
  <g transform="translate(0.000000,200.000000) scale(0.100000,-0.100000)" fill="#27eb9a" stroke="none">
    <path d="M880 1990 c0 -5 11 -10 24 -10 14 0 28 5 31 10 l6 10 -30 0 c-17 0
-31 -4 -31 -10z" />
    <path d="M1065 1990 c3 -5 17 -10 31 -10 13 0 24 5 24 10 0 6 -14 10 -31 10
l-30 0 6 -10z" />
    <path d="M785 1980 c-3 -5 -2 -10 4 -10 5 0 13 5 16 10 3 6 2 10 -4 10 -5 0
-13 -4 -16 -10z" />
    <path d="M1195 1980 c3 -5 11 -10 16 -10 6 0 7 5 4 10 -3 6 -11 10 -16 10 -6
0 -7 -4 -4 -10z" />
    <path d="M718 1967 c-16 -6 -28 -14 -28 -19 0 -11 5 -10 45 6 57 24 40 36 -17
13z" />
    <path d="M1256 1961 c5 -5 19 -12 32 -16 l22 -6 0 9 c0 9 -32 22 -54 22 l-10
0 10 -9z" />
    <path d="M593 1923 c-14 -5 -18 -23 -5 -23 5 0 17 7 28 15 l19 14 -15 0 c-8 0
-21 -3 -27 -6z" />
    <path d="M1384 1915 c22 -17 36 -19 36 -6 0 10 -24 21 -43 21 -7 0 -3 -7 7
-15z" />
    <path d="M518 1886 c-10 -7 -18 -16 -18 -20 0 -12 18 -6 41 14 l24 19 -15 0
c-8 0 -23 -6 -32 -13z" />
    <path d="M1459 1880 c23 -20 41 -26 41 -14 0 11 -34 33 -50 33 l-15 0 24 -19z" />
    <path d="M387 1799 c-32 -22 -57 -44 -57 -50 0 -16 11 -10 60 31 26 22 53 40
59 40 6 0 11 5 11 10 0 17 -15 11 -73 -31z" />
    <path d="M1540 1830 c0 -5 5 -10 11 -10 6 0 30 -16 53 -35 44 -36 56 -42 56
-26 0 9 -100 81 -113 81 -4 0 -7 -4 -7 -10z" />
    <path d="M1740 1665 c0 -4 18 -29 40 -55 22 -26 40 -53 40 -59 0 -6 5 -11 10
-11 6 0 10 3 10 8 0 9 -29 53 -44 67 -6 6 -16 19 -22 30 -10 19 -34 33 -34 20z" />
    <path d="M223 1640 c-3 -11 -9 -20 -13 -20 -8 0 -50 -62 -50 -74 0 -3 5 -6 10
-6 6 0 10 5 10 11 0 6 16 30 35 53 19 24 35 46 35 50 0 3 -5 6 -11 6 -6 0 -13
-9 -16 -20z" />
    <path d="M112 1480 c-6 -11 -12 -25 -12 -32 l1 -13 19 24 c11 13 20 27 20 32
0 16 -15 10 -28 -11z" />
    <path d="M1860 1491 c0 -5 9 -19 20 -32 l19 -24 0 15 c0 16 -22 50 -33 50 -3
0 -6 -4 -6 -9z" />
    <path d="M76 1404 c-11 -28 -6 -39 9 -20 8 11 15 23 15 28 0 14 -18 9 -24 -8z" />
    <path d="M1900 1412 c0 -5 7 -17 15 -28 15 -19 20 -8 9 20 -6 17 -24 22 -24 8z" />
    <path d="M31 1274 c-17 -47 -5 -57 14 -11 17 42 18 47 7 47 -4 0 -14 -16 -21
-36z" />
    <path d="M1940 1305 c0 -15 31 -77 36 -72 8 7 -18 77 -28 77 -4 0 -8 -2 -8 -5z" />
    <path d="M17 1213 c-4 -3 -7 -11 -7 -17 l0 -10 12 12 c6 6 9 14 7 17 -3 3 -9
2 -12 -2z" />
    <path d="M1970 1211 c0 -5 5 -13 10 -16 6 -3 10 -2 10 4 0 5 -4 13 -10 16 -5
3 -10 2 -10 -4z" />
    <path d="M0 1089 l0 -30 10 6 c13 8 13 55 0 55 -5 0 -10 -14 -10 -31z" />
    <path d="M1980 1096 c0 -14 5 -28 10 -31 l10 -6 0 30 c0 17 -4 31 -10 31 -5 0
-10 -11 -10 -24z" />
    <path d="M0 911 c0 -17 5 -31 10 -31 6 0 10 11 10 24 0 14 -4 28 -10 31 l-10
6 0 -30z" />
    <path d="M1987 933 c-11 -10 -8 -53 3 -53 6 0 10 14 10 30 0 31 -2 35 -13 23z" />
    <path d="M10 801 c0 -5 5 -13 10 -16 6 -3 10 -2 10 4 0 5 -4 13 -10 16 -5 3
-10 2 -10 -4z" />
    <path d="M1977 803 c-4 -3 -7 -11 -7 -17 l0 -10 12 12 c6 6 9 14 7 17 -3 3 -9
2 -12 -2z" />
    <path d="M20 763 c0 -16 25 -73 32 -73 11 0 10 5 -6 45 -14 32 -26 45 -26 28z" />
    <path d="M1955 737 c-17 -42 -18 -47 -7 -47 10 0 36 70 28 77 -3 3 -13 -10
-21 -30z" />
    <path d="M70 623 c0 -19 11 -43 21 -43 13 0 11 14 -6 36 -8 10 -15 14 -15 7z" />
    <path d="M1910 609 c-13 -24 -4 -41 10 -19 10 16 13 40 5 40 -2 0 -9 -9 -15
-21z" />
    <path d="M101 550 c0 -16 22 -50 33 -50 12 0 6 18 -14 41 l-19 24 0 -15z" />
    <path d="M1874 535 c-20 -30 -10 -47 11 -19 14 18 20 44 10 44 -2 0 -12 -11
-21 -25z" />
    <path d="M160 454 c0 -13 42 -74 51 -74 5 0 9 -6 9 -14 0 -16 18 -31 27 -22 3
3 -11 25 -31 50 -20 24 -36 49 -36 55 0 6 -4 11 -10 11 -5 0 -10 -3 -10 -6z" />
    <path d="M1820 449 c0 -6 -16 -30 -35 -53 -36 -44 -42 -56 -26 -56 9 0 81 100
81 113 0 4 -4 7 -10 7 -5 0 -10 -5 -10 -11z" />
    <path d="M330 251 c0 -11 108 -91 122 -91 4 0 8 5 8 10 0 6 -5 10 -11 10 -6 0
-33 18 -59 40 -49 41 -60 47 -60 31z" />
    <path d="M1605 215 c-22 -19 -46 -34 -52 -35 -14 0 -19 -20 -6 -20 13 0 113
72 113 81 0 16 -14 9 -55 -26z" />
    <path d="M1473 130 c-35 -21 -41 -30 -20 -30 15 0 76 49 62 50 -5 0 -25 -9
-42 -20z" />
    <path d="M500 134 c0 -11 34 -33 50 -33 l15 0 -24 19 c-23 20 -41 26 -41 14z" />
    <path d="M580 91 c0 -10 24 -21 43 -21 7 0 3 7 -7 15 -22 17 -36 19 -36 6z" />
    <path d="M1384 85 c-10 -8 -14 -15 -7 -15 19 0 43 11 43 21 0 13 -14 11 -36
-6z" />
    <path d="M690 52 c0 -10 70 -36 77 -28 3 3 -10 13 -30 21 -42 17 -47 18 -47 7z" />
    <path d="M1271 49 c-13 -5 -22 -12 -19 -15 8 -8 58 7 58 17 0 11 -8 11 -39 -2z" />
    <path d="M785 20 c3 -5 11 -10 16 -10 6 0 7 5 4 10 -3 6 -11 10 -16 10 -6 0
-7 -4 -4 -10z" />
    <path d="M1195 20 c-3 -5 -2 -10 4 -10 5 0 13 5 16 10 3 6 2 10 -4 10 -5 0
-13 -4 -16 -10z" />
    <path d="M880 10 c0 -5 14 -10 31 -10 l30 0 -6 10 c-3 5 -17 10 -31 10 -13 0
-24 -4 -24 -10z" />
    <path d="M1065 10 l-6 -10 30 0 c17 0 31 5 31 10 0 6 -11 10 -24 10 -14 0 -28
-4 -31 -10z" />
  </g>
  <g transform="translate(0.000000,200.000000) scale(0.100000,-0.100000)" fill="#4fecac" stroke="none">
    <path d="M850 1990 c0 -5 9 -10 20 -10 11 0 20 5 20 10 0 6 -9 10 -20 10 -11
0 -20 -4 -20 -10z" />
    <path d="M908 1993 c6 -2 18 -2 25 0 6 3 1 5 -13 5 -14 0 -19 -2 -12 -5z" />
    <path d="M1068 1993 c6 -2 18 -2 25 0 6 3 1 5 -13 5 -14 0 -19 -2 -12 -5z" />
    <path d="M1110 1990 c0 -5 9 -10 20 -10 11 0 20 5 20 10 0 6 -9 10 -20 10 -11
0 -20 -4 -20 -10z" />
    <path d="M708 1968 c-16 -5 -28 -14 -28 -19 0 -12 5 -12 45 5 56 24 41 36 -17
14z" />
    <path d="M1270 1960 c0 -5 7 -10 15 -10 8 0 15 5 15 10 0 6 -7 10 -15 10 -8 0
-15 -4 -15 -10z" />
    <path d="M640 1940 l-15 -10 18 0 c9 0 17 5 17 10 0 12 -1 12 -20 0z" />
    <path d="M1340 1940 c0 -6 7 -10 15 -10 8 0 15 2 15 4 0 2 -7 6 -15 10 -8 3
-15 1 -15 -4z" />
    <path d="M545 1899 c-27 -15 -65 -35 -82 -45 -18 -9 -33 -20 -33 -25 0 -13 16
-11 28 4 6 7 45 30 87 51 41 21 75 39 75 42 0 10 -28 0 -75 -27z" />
    <path d="M1380 1926 c0 -3 34 -21 75 -42 42 -21 81 -44 87 -51 12 -15 28 -17
28 -4 0 5 -15 16 -32 25 -18 9 -58 30 -88 46 -52 29 -70 35 -70 26z" />
    <path d="M386 1799 c-11 -10 -15 -19 -10 -19 12 1 44 25 44 34 0 11 -15 5 -34
-15z" />
    <path d="M1580 1814 c0 -9 33 -33 44 -34 6 0 0 9 -12 20 -22 21 -32 25 -32 14z" />
    <path d="M315 1739 c-11 -17 1 -21 15 -4 l12 15 -10 0 c-6 0 -14 -5 -17 -11z" />
    <path d="M1670 1735 c7 -9 15 -13 17 -11 7 7 -7 26 -19 26 l-10 0 12 -15z" />
    <path d="M255 1679 c-11 -17 1 -21 15 -4 l12 15 -10 0 c-6 0 -14 -5 -17 -11z" />
    <path d="M1730 1675 c7 -9 15 -13 17 -11 7 7 -7 26 -19 26 l-10 0 12 -15z" />
    <path d="M197 1610 c-18 -22 -21 -30 -9 -30 10 1 45 50 35 50 -5 0 -16 -9 -26
-20z" />
    <path d="M1787 1605 c16 -22 33 -32 33 -20 0 9 -34 45 -43 45 -4 0 0 -11 10
-25z" />
    <path d="M146 1538 c-9 -18 -30 -58 -47 -88 -16 -30 -28 -59 -26 -64 2 -6 21
25 42 67 22 43 45 83 52 89 15 12 17 28 4 28 -5 0 -16 -15 -25 -32z" />
    <path d="M1820 1561 c0 -5 6 -13 13 -19 7 -6 30 -46 52 -89 21 -42 40 -73 42
-67 2 5 -10 34 -26 64 -17 30 -38 70 -47 88 -15 30 -34 43 -34 23z" />
    <path d="M56 1355 c-3 -8 -1 -15 4 -15 6 0 10 7 10 15 0 8 -2 15 -4 15 -2 0
-6 -7 -10 -15z" />
    <path d="M1930 1355 c0 -8 4 -15 10 -15 5 0 7 7 4 15 -4 8 -8 15 -10 15 -2 0
-4 -7 -4 -15z" />
    <path d="M1940 1315 c0 -15 31 -77 36 -72 8 8 -16 77 -27 77 -5 0 -9 -2 -9 -5z" />
    <path d="M26 1278 c-3 -13 -6 -27 -6 -33 1 -15 30 27 30 42 0 22 -17 15 -24
-9z" />
    <path d="M0 1130 c0 -11 5 -20 10 -20 6 0 10 9 10 20 0 11 -4 20 -10 20 -5 0
-10 -9 -10 -20z" />
    <path d="M1980 1135 c0 -8 5 -15 10 -15 6 0 10 7 10 15 0 8 -4 15 -10 15 -5 0
-10 -7 -10 -15z" />
    <path d="M1992 1085 l0 -30 5 18 c2 9 2 23 0 30 -3 6 -5 -1 -5 -18z" />
    <path d="M2 1080 c0 -14 2 -19 5 -12 2 6 2 18 0 25 -3 6 -5 1 -5 -13z" />
    <path d="M1 898 l-1 -48 10 0 c11 0 11 21 0 65 l-8 30 -1 -47z" />
    <path d="M1987 901 c-4 -24 -5 -46 -2 -49 11 -11 16 8 13 49 l-3 44 -8 -44z" />
    <path d="M24 740 c3 -14 6 -28 6 -32 0 -5 5 -8 10 -8 15 0 12 24 -6 46 l-15
19 5 -25z" />
    <path d="M1955 727 c-18 -42 -18 -47 -6 -47 11 0 35 69 27 77 -3 3 -13 -10
-21 -30z" />
    <path d="M56 645 c4 -8 8 -15 10 -15 2 0 4 7 4 15 0 8 -4 15 -10 15 -5 0 -7
-7 -4 -15z" />
    <path d="M1930 645 c0 -8 2 -15 4 -15 2 0 6 7 10 15 3 8 1 15 -4 15 -6 0 -10
-7 -10 -15z" />
    <path d="M70 612 c0 -4 13 -32 30 -62 16 -30 37 -70 46 -87 9 -18 20 -33 25
-33 13 0 11 16 -4 28 -7 6 -30 45 -51 87 -35 70 -46 86 -46 67z" />
    <path d="M1885 547 c-22 -43 -45 -83 -52 -89 -15 -12 -17 -28 -4 -28 5 0 16
15 25 33 9 17 30 57 47 87 16 30 28 59 26 64 -2 6 -21 -25 -42 -67z" />
    <path d="M180 415 c0 -9 34 -45 43 -45 10 0 -25 49 -35 50 -5 0 -8 -2 -8 -5z" />
    <path d="M1792 400 c-18 -30 -14 -36 8 -12 21 22 25 32 12 32 -4 0 -13 -9 -20
-20z" />
    <path d="M250 332 c0 -12 19 -26 26 -19 2 2 -2 10 -11 17 l-15 12 0 -10z" />
    <path d="M1725 320 l-18 -20 15 0 c9 0 19 7 22 16 10 25 1 27 -19 4z" />
    <path d="M310 272 c0 -12 19 -26 26 -19 2 2 -2 10 -11 17 l-15 12 0 -10z" />
    <path d="M1670 265 l-12 -15 10 0 c12 0 26 19 19 26 -2 2 -10 -2 -17 -11z" />
    <path d="M389 199 c12 -12 25 -18 28 -15 4 3 -2 13 -13 21 -29 22 -41 18 -15
-6z" />
    <path d="M1596 205 c-11 -8 -17 -18 -13 -21 3 -3 16 3 28 15 26 24 14 28 -15
6z" />
    <path d="M430 171 c0 -5 15 -16 33 -25 17 -9 57 -30 87 -47 30 -16 59 -28 64
-26 6 2 -25 21 -67 42 -43 22 -83 45 -89 52 -12 15 -28 17 -28 4z" />
    <path d="M1542 167 c-6 -7 -46 -30 -89 -52 -42 -21 -73 -40 -67 -42 5 -2 34
10 64 26 30 17 70 38 88 47 17 9 32 20 32 25 0 13 -16 11 -28 -4z" />
    <path d="M630 66 c0 -2 7 -6 15 -10 8 -3 15 -1 15 4 0 6 -7 10 -15 10 -8 0
-15 -2 -15 -4z" />
    <path d="M1340 60 c0 -5 4 -10 9 -10 6 0 13 5 16 10 l6 10 -15 0 c-9 0 -16 -4
-16 -10z" />
    <path d="M680 51 c0 -11 69 -35 77 -27 3 3 -10 13 -30 21 -42 18 -47 18 -47 6z" />
    <path d="M1288 53 c-19 -5 -25 -23 -9 -23 17 0 41 12 41 21 0 9 -4 10 -32 2z" />
    <path d="M850 10 c0 -5 9 -10 20 -10 11 0 20 5 20 10 0 6 -9 10 -20 10 -11 0
-20 -4 -20 -10z" />
    <path d="M1110 10 c0 -5 9 -10 20 -10 11 0 20 5 20 10 0 6 -9 10 -20 10 -11 0
-20 -4 -20 -10z" />
    <path d="M908 3 c6 -2 18 -2 25 0 6 3 1 5 -13 5 -14 0 -19 -2 -12 -5z" />
    <path d="M1068 3 c6 -2 18 -2 25 0 6 3 1 5 -13 5 -14 0 -19 -2 -12 -5z" />
  </g>
  <g transform="translate(0.000000,200.000000) scale(0.100000,-0.100000)" fill="#dbfdf1" stroke="none">
    <path d="M820 1990 c0 -5 9 -10 20 -10 11 0 20 5 20 10 0 6 -9 10 -20 10 -11
0 -20 -4 -20 -10z" />
    <path d="M1140 1990 c0 -5 9 -10 20 -10 11 0 20 5 20 10 0 6 -9 10 -20 10 -11
0 -20 -4 -20 -10z" />
    <path d="M698 1967 c-16 -6 -28 -14 -28 -19 0 -11 2 -10 44 7 57 24 42 35 -16
12z" />
    <path d="M1250 1970 c0 -5 9 -10 19 -10 11 0 23 -4 26 -10 7 -12 35 -13 35 -2
0 4 -15 13 -33 20 -41 15 -47 15 -47 2z" />
    <path d="M576 1915 c-11 -8 -15 -15 -10 -15 6 0 19 7 30 15 10 8 15 14 9 14
-5 0 -19 -6 -29 -14z" />
    <path d="M1404 1915 c11 -8 24 -15 30 -15 5 0 1 7 -10 15 -10 8 -23 14 -29 14
-5 0 -1 -6 9 -14z" />
    <path d="M514 1885 c-10 -8 -14 -15 -8 -15 5 0 19 7 30 15 10 8 14 15 8 15 -5
0 -19 -7 -30 -15z" />
    <path d="M1464 1885 c11 -8 25 -15 30 -15 6 0 2 7 -8 15 -11 8 -25 15 -30 15
-6 0 -2 -7 8 -15z" />
    <path d="M418 1825 c-64 -47 -71 -64 -10 -23 28 18 53 39 56 46 3 6 4 12 3 12
-1 0 -23 -16 -49 -35z" />
    <path d="M1536 1848 c3 -7 29 -28 57 -47 29 -19 46 -26 38 -17 -21 25 -102 79
-95 64z" />
    <path d="M321 1749 c-13 -11 -21 -22 -18 -25 3 -3 16 3 28 15 29 27 21 35 -10
10z" />
    <path d="M1650 1763 c0 -9 36 -43 45 -43 3 0 5 3 5 8 -1 10 -50 45 -50 35z" />
    <path d="M247 1675 c-10 -14 -14 -25 -10 -25 9 0 43 36 43 45 0 12 -17 2 -33
-20z" />
    <path d="M1720 1695 c0 -9 34 -45 43 -45 10 0 -25 49 -35 50 -5 0 -8 -2 -8 -5z" />
    <path d="M203 1617 c-11 -12 -30 -37 -42 -54 l-22 -33 15 6 c8 3 18 14 21 24
3 10 17 30 31 45 14 15 23 29 21 31 -2 2 -13 -6 -24 -19z" />
    <path d="M1770 1631 c0 -6 4 -11 8 -11 4 0 19 -18 32 -40 14 -21 31 -42 38
-44 15 -6 -38 73 -62 93 l-16 13 0 -11z" />
    <path d="M110 1480 c-6 -12 -9 -24 -7 -27 3 -2 11 5 17 17 6 12 9 24 7 27 -3
2 -11 -5 -17 -17z" />
    <path d="M1870 1494 c0 -5 7 -19 15 -30 8 -10 15 -14 15 -8 0 5 -7 19 -15 30
-8 10 -15 14 -15 8z" />
    <path d="M81 1419 c-7 -12 -10 -23 -8 -26 3 -3 11 5 17 17 15 28 8 35 -9 9z" />
    <path d="M1900 1434 c0 -6 7 -19 15 -30 8 -10 14 -14 14 -9 0 6 -6 19 -14 29
-8 11 -15 15 -15 10z" />
    <path d="M31 1294 c-7 -19 -11 -38 -8 -40 5 -6 37 53 37 68 0 4 -4 8 -8 8 -4
0 -14 -16 -21 -36z" />
    <path d="M1940 1326 c0 -13 32 -77 37 -73 8 8 -17 77 -28 77 -5 0 -9 -2 -9 -4z" />
    <path d="M1981 1178 l-1 -38 10 0 c12 0 12 27 0 55 l-9 20 0 -37z" />
    <path d="M7 1174 c-4 -4 -7 -16 -7 -28 l0 -20 11 11 c6 6 9 19 7 28 -1 9 -6
13 -11 9z" />
    <path d="M1987 863 c-11 -10 -8 -43 3 -43 6 0 10 11 10 25 0 26 -2 29 -13 18z" />
    <path d="M0 840 c0 -11 5 -20 10 -20 6 0 10 9 10 20 0 11 -4 20 -10 20 -5 0
-10 -9 -10 -20z" />
    <path d="M20 743 c0 -16 25 -73 32 -73 12 0 10 13 -8 48 -15 31 -24 40 -24 25z" />
    <path d="M1956 715 c-18 -43 -19 -45 -8 -45 10 0 36 70 29 77 -3 3 -13 -12
-21 -32z" />
    <path d="M71 605 c0 -5 6 -19 14 -29 8 -11 15 -15 15 -10 0 6 -7 19 -15 30 -8
10 -14 15 -14 9z" />
    <path d="M1911 592 c-17 -31 -13 -40 5 -14 9 13 14 26 11 29 -3 2 -10 -4 -16
-15z" />
    <path d="M100 544 c0 -5 7 -19 15 -30 8 -10 15 -14 15 -8 0 5 -7 19 -15 30 -8
10 -15 14 -15 8z" />
    <path d="M1880 530 c-6 -12 -9 -24 -7 -27 3 -2 11 5 17 17 6 12 9 24 7 27 -3
2 -11 -5 -17 -17z" />
    <path d="M169 427 c16 -24 36 -49 45 -56 l16 -13 0 11 c0 6 -4 11 -10 11 -5 0
-20 18 -32 40 -13 22 -29 42 -36 45 -7 2 1 -15 17 -38z" />
    <path d="M1845 462 c-5 -4 -26 -29 -45 -57 -19 -27 -26 -44 -16 -36 16 14 81
101 74 101 -2 0 -7 -4 -13 -8z" />
    <path d="M246 328 c36 -41 98 -97 103 -93 5 6 -101 114 -113 115 -5 0 -1 -10
10 -22z" />
    <path d="M1736 325 c-9 -14 -13 -25 -9 -25 12 1 46 50 35 50 -6 0 -17 -11 -26
-25z" />
    <path d="M1668 261 c-10 -10 -18 -21 -18 -25 0 -9 49 27 50 37 0 12 -14 7 -32
-12z" />
    <path d="M369 216 c21 -25 102 -79 95 -64 -3 7 -29 28 -57 47 -29 19 -46 26
-38 17z" />
    <path d="M1588 197 c-26 -18 -49 -38 -52 -45 -7 -15 74 38 93 62 8 9 12 16 10
15 -2 0 -25 -15 -51 -32z" />
    <path d="M514 115 c11 -8 25 -15 30 -15 6 0 2 7 -8 15 -11 8 -25 15 -30 15 -6
0 -2 -7 8 -15z" />
    <path d="M1464 115 c-10 -8 -14 -15 -8 -15 5 0 19 7 30 15 10 8 14 15 8 15 -5
0 -19 -7 -30 -15z" />
    <path d="M576 85 c10 -8 24 -14 29 -14 6 0 1 6 -9 14 -11 8 -24 15 -30 15 -5
0 -1 -7 10 -15z" />
    <path d="M1404 85 c-10 -8 -14 -14 -9 -14 6 0 19 6 29 14 11 8 15 15 10 15 -6
0 -19 -7 -30 -15z" />
    <path d="M670 51 c0 -11 69 -36 77 -28 3 3 -12 13 -32 21 -44 19 -45 19 -45 7z" />
    <path d="M1283 47 c-18 -6 -33 -15 -33 -19 0 -11 11 -10 49 3 17 6 31 15 31
20 0 10 -3 10 -47 -4z" />
    <path d="M820 10 c0 -5 9 -10 20 -10 11 0 20 5 20 10 0 6 -9 10 -20 10 -11 0
-20 -4 -20 -10z" />
    <path d="M1140 10 c0 -5 9 -10 20 -10 11 0 20 5 20 10 0 6 -9 10 -20 10 -11 0
-20 -4 -20 -10z" />
  </g>
  <g transform="translate(0.000000,200.000000) scale(0.100000,-0.100000)" fill="#169f61" stroke="none">
    <path d="M1024 1243 c-132 -134 -238 -243 -235 -243 4 0 116 110 251 245 135
135 240 244 235 243 -6 -1 -118 -111 -251 -245z" />
    <path d="M1365 1267 c-121 -121 -224 -228 -229 -236 -4 -9 98 90 228 219 130
129 236 236 236 237 0 13 -45 -28 -235 -220z" />
    <path d="M1383 1473 c4 -3 10 -3 14 0 3 4 0 7 -7 7 -7 0 -10 -3 -7 -7z" />
    <path d="M560 1315 c0 -8 4 -15 10 -15 5 0 7 7 4 15 -4 8 -8 15 -10 15 -2 0
-4 -7 -4 -15z" />
    <path d="M580 1274 c0 -13 18 -39 24 -34 2 3 -2 14 -10 24 -8 11 -14 16 -14
10z" />
    <path d="M636 1150 c10 -16 19 -28 21 -26 6 6 -20 56 -29 56 -5 0 -1 -13 8
-30z" />
    <path d="M671 1084 l1 -19 5 13 c3 7 2 16 -1 19 -3 4 -6 -2 -5 -13z" />
    <path d="M710 1011 c0 -5 7 -11 15 -15 8 -3 15 -1 15 3 0 5 -7 11 -15 15 -8 3
-15 1 -15 -3z" />
    <path d="M1080 1000 l-15 -10 18 0 c9 0 17 5 17 10 0 12 -1 12 -20 0z" />
    <path d="M990 900 c0 -5 -108 -118 -240 -250 -132 -132 -240 -243 -240 -247 0
-5 113 105 250 242 138 137 250 253 250 257 0 5 -4 8 -10 8 -5 0 -10 -4 -10
-10z" />
  </g>
  <g transform="translate(0.000000,200.000000) scale(0.100000,-0.100000)" fill="#0c5c33" stroke="none">
    <path d="M530 1478 l-12 -23 18 17 c10 10 15 20 12 24 -4 3 -12 -5 -18 -18z" />
    <path d="M1349 1443 l-14 -18 18 14 c9 7 17 15 17 17 0 8 -8 3 -21 -13z" />
    <path d="M1309 1403 l-14 -18 18 14 c9 7 17 15 17 17 0 8 -8 3 -21 -13z" />
    <path d="M1269 1363 l-14 -18 18 14 c9 7 17 15 17 17 0 8 -8 3 -21 -13z" />
    <path d="M1229 1323 l-14 -18 18 14 c9 7 17 15 17 17 0 8 -8 3 -21 -13z" />
    <path d="M565 1300 c3 -5 8 -10 11 -10 2 0 4 5 4 10 0 6 -5 10 -11 10 -5 0 -7
-4 -4 -10z" />
    <path d="M1189 1283 l-14 -18 18 14 c9 7 17 15 17 17 0 8 -8 3 -21 -13z" />
    <path d="M1149 1243 l-14 -18 18 14 c9 7 17 15 17 17 0 8 -8 3 -21 -13z" />
    <path d="M1109 1203 l-14 -18 18 14 c16 13 21 21 13 21 -2 0 -10 -8 -17 -17z" />
    <path d="M620 1180 c0 -5 5 -10 11 -10 5 0 7 5 4 10 -3 6 -8 10 -11 10 -2 0
-4 -4 -4 -10z" />
    <path d="M1069 1163 l-14 -18 18 14 c9 7 17 15 17 17 0 8 -8 3 -21 -13z" />
    <path d="M633 1153 c4 -3 10 -3 14 0 3 4 0 7 -7 7 -7 0 -10 -3 -7 -7z" />
    <path d="M1029 1123 l-14 -18 18 14 c9 7 17 15 17 17 0 8 -8 3 -21 -13z" />
    <path d="M665 1100 c3 -5 8 -10 11 -10 3 0 2 5 -1 10 -3 6 -8 10 -11 10 -3 0
-2 -4 1 -10z" />
    <path d="M989 1083 l-14 -18 18 14 c9 7 17 15 17 17 0 8 -8 3 -21 -13z" />
    <path d="M949 1043 l-14 -18 18 14 c9 7 17 15 17 17 0 8 -8 3 -21 -13z" />
    <path d="M785 1010 c-3 -5 -16 -10 -28 -10 l-21 0 12 -12 12 -12 22 22 c12 12
19 22 16 22 -4 0 -10 -4 -13 -10z" />
    <path d="M914 1008 l-7 -11 11 7 c12 7 16 16 8 16 -3 0 -8 -5 -12 -12z" />
    <path d="M950 990 l0 -10 50 0 50 0 0 10 0 10 -50 0 -50 0 0 -10z" />
    <path d="M541 905 c7 -6 460 -7 467 -1 3 3 -102 6 -233 6 -131 0 -236 -2 -234
-5z" />
    <path d="M506 885 c-3 -8 -1 -15 3 -15 5 0 11 7 15 15 3 8 1 15 -3 15 -5 0
-11 -7 -15 -15z" />
  </g>
  <g transform="translate(0.000000,200.000000) scale(0.100000,-0.100000)" fill="#094525" stroke="none">
    <path d="M1415 1490 c-3 -5 -1 -10 4 -10 6 0 11 5 11 10 0 6 -2 10 -4 10 -3 0
-8 -4 -11 -10z" />
    <path d="M503 1443 c0 -10 9 -29 20 -43 l20 -25 -8 20 c-4 11 -10 30 -12 43
-6 26 -20 30 -20 5z" />
    <path d="M1544 1448 l-7 -11 11 7 c7 4 12 9 12 12 0 8 -9 4 -16 -8z" />
    <path d="M1504 1408 l-7 -11 11 7 c7 4 12 9 12 12 0 8 -9 4 -16 -8z" />
    <path d="M1464 1368 l-7 -11 11 7 c12 7 16 16 8 16 -3 0 -8 -5 -12 -12z" />
    <path d="M540 1360 c0 -7 3 -10 7 -7 3 4 3 10 0 14 -4 3 -7 0 -7 -7z" />
    <path d="M1424 1328 l-7 -11 11 7 c12 7 16 16 8 16 -3 0 -8 -5 -12 -12z" />
    <path d="M1384 1288 l-7 -11 11 7 c12 7 16 16 8 16 -3 0 -8 -5 -12 -12z" />
    <path d="M1344 1248 l-7 -11 11 7 c7 4 12 9 12 12 0 8 -9 4 -16 -8z" />
    <path d="M590 1246 c0 -2 7 -9 15 -16 l15 -13 -6 17 c-3 9 -10 16 -15 16 -5 0
-9 -2 -9 -4z" />
    <path d="M1304 1208 l-7 -11 11 7 c12 7 16 16 8 16 -3 0 -8 -5 -12 -12z" />
    <path d="M620 1190 c0 -7 3 -10 7 -7 3 4 3 10 0 14 -4 3 -7 0 -7 -7z" />
    <path d="M1264 1168 l-7 -11 11 7 c7 4 12 9 12 12 0 8 -9 4 -16 -8z" />
    <path d="M1224 1128 l-7 -11 11 7 c7 4 12 9 12 12 0 8 -9 4 -16 -8z" />
    <path d="M1184 1088 l-7 -11 11 7 c12 7 16 16 8 16 -3 0 -8 -5 -12 -12z" />
    <path d="M1144 1048 l-7 -11 11 7 c12 7 16 16 8 16 -3 0 -8 -5 -12 -12z" />
    <path d="M696 1025 c4 -8 11 -15 16 -15 l10 0 -12 15 c-7 8 -14 15 -16 15 -2
0 -1 -7 2 -15z" />
    <path d="M1095 1009 c-11 -16 -1 -19 13 -3 l13 14 -10 0 c-5 0 -13 -5 -16 -11z" />
    <path d="M730 1000 c0 -5 5 -10 11 -10 5 0 7 5 4 10 -3 6 -8 10 -11 10 -2 0
-4 -4 -4 -10z" />
    <path d="M989 893 l-14 -18 18 14 c9 7 17 15 17 17 0 8 -8 3 -21 -13z" />
    <path d="M944 848 l-7 -11 11 7 c12 7 16 16 8 16 -3 0 -8 -5 -12 -12z" />
    <path d="M904 808 l-7 -11 11 7 c7 4 12 9 12 12 0 8 -9 4 -16 -8z" />
    <path d="M864 768 l-7 -11 11 7 c12 7 16 16 8 16 -3 0 -8 -5 -12 -12z" />
    <path d="M824 728 l-7 -11 11 7 c12 7 16 16 8 16 -3 0 -8 -5 -12 -12z" />
    <path d="M784 688 l-7 -11 11 7 c7 4 12 9 12 12 0 8 -9 4 -16 -8z" />
    <path d="M744 648 l-7 -11 11 7 c7 4 12 9 12 12 0 8 -9 4 -16 -8z" />
    <path d="M704 608 l-7 -11 11 7 c7 4 12 9 12 12 0 8 -9 4 -16 -8z" />
    <path d="M664 568 l-7 -11 11 7 c7 4 12 9 12 12 0 8 -9 4 -16 -8z" />
    <path d="M624 528 l-7 -11 11 7 c7 4 12 9 12 12 0 8 -9 4 -16 -8z" />
    <path d="M584 488 l-7 -11 11 7 c7 4 12 9 12 12 0 8 -9 4 -16 -8z" />
    <path d="M544 448 l-7 -11 11 7 c12 7 16 16 8 16 -3 0 -8 -5 -12 -12z" />
  </g>
  <g transform="translate(0.000000,200.000000) scale(0.100000,-0.100000)" fill="#84f3c6" stroke="none">
    <path d="M820 1990 c0 -6 7 -10 15 -10 8 0 15 2 15 4 0 2 -7 6 -15 10 -8 3
-15 1 -15 -4z" />
    <path d="M880 1990 c0 -5 7 -7 15 -4 8 4 15 8 15 10 0 2 -7 4 -15 4 -8 0 -15
-4 -15 -10z" />
    <path d="M1090 1996 c0 -2 7 -6 15 -10 8 -3 15 -1 15 4 0 6 -7 10 -15 10 -8 0
-15 -2 -15 -4z" />
    <path d="M1160 1990 l-15 -10 18 0 c9 0 17 5 17 10 0 12 -1 12 -20 0z" />
    <path d="M720 1962 l0 -14 13 10 c6 5 21 12 32 15 l20 5 -32 -1 -33 -1 0 -14z" />
    <path d="M1230 1973 c8 -3 23 -10 33 -15 l17 -9 0 14 0 13 -32 1 c-18 1 -26
-1 -18 -4z" />
    <path d="M620 1929 c0 -5 5 -7 10 -4 6 3 10 8 10 11 0 2 -4 4 -10 4 -5 0 -10
-5 -10 -11z" />
    <path d="M1365 1930 c3 -5 8 -10 11 -10 2 0 4 5 4 10 0 6 -5 10 -11 10 -5 0
-7 -4 -4 -10z" />
    <path d="M590 1920 l-15 -10 12 0 c6 0 15 5 18 10 8 12 4 12 -15 0z" />
    <path d="M1397 1919 c7 -7 15 -10 18 -7 3 3 -2 9 -12 12 l-18 7 12 -12z" />
    <path d="M520 1885 c-14 -8 -20 -14 -14 -15 5 0 19 7 30 15 24 18 16 19 -16 0z" />
    <path d="M1464 1886 c11 -9 24 -16 30 -16 12 0 7 5 -24 19 l-25 12 19 -15z" />
    <path d="M463 1853 c4 -3 10 -3 14 0 3 4 0 7 -7 7 -7 0 -10 -3 -7 -7z" />
    <path d="M1523 1853 c4 -3 10 -3 14 0 3 4 0 7 -7 7 -7 0 -10 -3 -7 -7z" />
    <path d="M350 1769 c0 -5 5 -7 10 -4 6 3 10 8 10 11 0 2 -4 4 -10 4 -5 0 -10
-5 -10 -11z" />
    <path d="M1635 1770 c3 -5 8 -10 11 -10 2 0 4 5 4 10 0 6 -5 10 -11 10 -5 0
-7 -4 -4 -10z" />
    <path d="M220 1635 c0 -8 2 -15 4 -15 2 0 6 7 10 15 3 8 1 15 -4 15 -6 0 -10
-7 -10 -15z" />
    <path d="M1766 1635 c4 -8 8 -15 10 -15 2 0 4 7 4 15 0 8 -4 15 -10 15 -5 0
-7 -7 -4 -15z" />
    <path d="M186 1594 l-6 -17 15 13 c17 14 19 20 6 20 -5 0 -12 -7 -15 -16z" />
    <path d="M140 1530 c0 -7 3 -10 7 -7 3 4 3 10 0 14 -4 3 -7 0 -7 -7z" />
    <path d="M1850 1530 c0 -7 3 -10 7 -7 3 4 3 10 0 14 -4 3 -7 0 -7 -7z" />
    <path d="M111 1473 l-11 -28 15 19 c8 11 15 23 15 28 0 15 -7 8 -19 -19z" />
    <path d="M1870 1494 c0 -6 7 -19 16 -30 l15 -19 -12 25 c-14 31 -19 36 -19 24z" />
    <path d="M76 1403 l-7 -18 12 12 c7 7 10 15 7 18 -3 3 -9 -2 -12 -12z" />
    <path d="M1910 1411 c0 -6 4 -13 10 -16 l10 -6 -6 15 c-7 18 -14 21 -14 7z" />
    <path d="M60 1369 c0 -5 5 -7 10 -4 6 3 10 8 10 11 0 2 -4 4 -10 4 -5 0 -10
-5 -10 -11z" />
    <path d="M1925 1370 c3 -5 8 -10 11 -10 2 0 4 5 4 10 0 6 -5 10 -11 10 -5 0
-7 -4 -4 -10z" />
    <path d="M23 1248 l-1 -33 5 20 c3 11 10 26 15 33 l10 12 -14 0 -14 0 -1 -32z" />
    <path d="M1958 1268 c5 -7 12 -22 15 -33 l5 -20 -1 33 -1 32 -14 0 -14 0 10
-12z" />
    <path d="M11 1164 l1 -19 5 13 c3 7 2 16 -1 19 -3 4 -6 -2 -5 -13z" />
    <path d="M1980 1165 c0 -8 2 -15 4 -15 2 0 6 7 10 15 3 8 1 15 -4 15 -6 0 -10
-7 -10 -15z" />
    <path d="M1980 1121 c0 -6 5 -13 10 -16 l10 -6 0 15 c0 9 -4 16 -10 16 -5 0
-10 -4 -10 -9z" />
    <path d="M0 1105 c0 -8 2 -15 4 -15 2 0 6 7 10 15 3 8 1 15 -4 15 -6 0 -10 -7
-10 -15z" />
    <path d="M0 883 l0 -28 9 14 c5 8 7 20 4 28 -8 21 -13 15 -13 -14z" />
    <path d="M1985 891 c-3 -5 -1 -12 5 -16 l10 -6 0 15 c0 18 -6 21 -15 7z" />
    <path d="M6 835 c-3 -8 -1 -15 4 -15 6 0 10 7 10 15 0 8 -2 15 -4 15 -2 0 -6
-7 -10 -15z" />
    <path d="M1980 835 c0 -8 4 -15 10 -15 5 0 7 7 4 15 -4 8 -8 15 -10 15 -2 0
-4 -7 -4 -15z" />
    <path d="M23 753 l1 -33 14 0 14 0 -10 13 c-5 6 -12 21 -15 32 l-5 20 1 -32z" />
    <path d="M1970 762 c0 -10 -5 -23 -12 -30 l-12 -12 15 0 15 0 2 30 c1 17 0 30
-3 30 -3 0 -5 -8 -5 -18z" />
    <path d="M60 630 c0 -5 5 -10 11 -10 5 0 7 5 4 10 -3 6 -8 10 -11 10 -2 0 -4
-4 -4 -10z" />
    <path d="M1925 630 c-3 -5 -1 -10 4 -10 6 0 11 5 11 10 0 6 -2 10 -4 10 -3 0
-8 -4 -11 -10z" />
    <path d="M76 597 c3 -10 9 -15 12 -12 3 3 0 11 -7 18 l-12 12 7 -18z" />
    <path d="M1915 599 c-4 -6 -5 -12 -2 -15 2 -3 7 2 10 11 7 17 1 20 -8 4z" />
    <path d="M111 530 c14 -31 19 -36 19 -24 0 6 -7 19 -16 30 l-15 19 12 -25z" />
    <path d="M1880 529 c-7 -11 -10 -23 -7 -25 2 -2 9 7 15 21 14 30 7 33 -8 4z" />
    <path d="M140 470 c0 -7 3 -10 7 -7 3 4 3 10 0 14 -4 3 -7 0 -7 -7z" />
    <path d="M1850 470 c0 -7 3 -10 7 -7 3 4 3 10 0 14 -4 3 -7 0 -7 -7z" />
    <path d="M220 365 c0 -8 4 -15 10 -15 5 0 7 7 4 15 -4 8 -8 15 -10 15 -2 0 -4
-7 -4 -15z" />
    <path d="M1765 360 c-3 -5 -1 -10 4 -10 6 0 11 5 11 10 0 6 -2 10 -4 10 -3 0
-8 -4 -11 -10z" />
    <path d="M350 230 c0 -5 5 -10 11 -10 5 0 7 5 4 10 -3 6 -8 10 -11 10 -2 0 -4
-4 -4 -10z" />
    <path d="M1635 230 c-3 -5 -1 -10 4 -10 6 0 11 5 11 10 0 6 -2 10 -4 10 -3 0
-8 -4 -11 -10z" />
    <path d="M463 143 c4 -3 10 -3 14 0 3 4 0 7 -7 7 -7 0 -10 -3 -7 -7z" />
    <path d="M1523 143 c4 -3 10 -3 14 0 3 4 0 7 -7 7 -7 0 -10 -3 -7 -7z" />
    <path d="M501 126 c2 -2 15 -9 29 -15 l25 -12 -19 15 c-11 9 -24 16 -30 16 -5
0 -7 -2 -5 -4z" />
    <path d="M1464 114 l-19 -15 25 12 c31 14 36 19 24 19 -6 0 -19 -7 -30 -16z" />
    <path d="M580 86 c0 -2 7 -7 16 -10 l15 -6 -6 10 c-6 10 -25 14 -25 6z" />
    <path d="M1395 80 l-6 -10 15 6 c18 7 21 14 7 14 -6 0 -13 -4 -16 -10z" />
    <path d="M620 70 c0 -5 5 -10 11 -10 5 0 7 5 4 10 -3 6 -8 10 -11 10 -2 0 -4
-4 -4 -10z" />
    <path d="M1360 65 l-13 -15 17 6 c9 3 16 10 16 15 0 13 -6 11 -20 -6z" />
    <path d="M720 38 l0 -14 33 -1 32 -1 -20 5 c-11 3 -26 10 -32 15 l-13 10 0
-14z" />
    <path d="M1245 34 l-30 -13 33 1 32 2 0 13 c0 7 -1 13 -2 12 -2 0 -16 -7 -33
-15z" />
    <path d="M820 10 c0 -5 7 -7 15 -4 8 4 15 8 15 10 0 2 -7 4 -15 4 -8 0 -15 -4
-15 -10z" />
    <path d="M880 10 c0 -6 7 -10 15 -10 8 0 15 2 15 4 0 2 -7 6 -15 10 -8 3 -15
1 -15 -4z" />
    <path d="M1100 10 l-15 -10 18 0 c9 0 17 5 17 10 0 12 -1 12 -20 0z" />
    <path d="M1150 16 c0 -2 7 -6 15 -10 8 -3 15 -1 15 4 0 6 -7 10 -15 10 -8 0
-15 -2 -15 -4z" />
  </g>
  <g transform="translate(0.000000,200.000000) scale(0.100000,-0.100000)" fill="#9af5d1" stroke="none">
    <path d="M815 1990 c-3 -5 -1 -10 4 -10 6 0 11 5 11 10 0 6 -2 10 -4 10 -3 0
-8 -4 -11 -10z" />
    <path d="M860 1996 c0 -2 7 -6 15 -10 8 -3 15 -1 15 4 0 6 -7 10 -15 10 -8 0
-15 -2 -15 -4z" />
    <path d="M1110 1990 c0 -5 7 -7 15 -4 8 4 15 8 15 10 0 2 -7 4 -15 4 -8 0 -15
-4 -15 -10z" />
    <path d="M1170 1990 c0 -5 5 -10 11 -10 5 0 7 5 4 10 -3 6 -8 10 -11 10 -2 0
-4 -4 -4 -10z" />
    <path d="M743 1973 c4 -3 10 -3 14 0 3 4 0 7 -7 7 -7 0 -10 -3 -7 -7z" />
    <path d="M1245 1970 c3 -5 8 -10 11 -10 2 0 4 5 4 10 0 6 -5 10 -11 10 -5 0
-7 -4 -4 -10z" />
    <path d="M665 1950 l-6 -10 16 0 16 0 -6 10 c-3 6 -8 10 -10 10 -2 0 -7 -4
-10 -10z" />
    <path d="M1315 1950 l-6 -10 16 0 16 0 -6 10 c-3 6 -8 10 -10 10 -2 0 -7 -4
-10 -10z" />
    <path d="M605 1930 l-6 -10 15 0 c9 0 16 5 16 10 0 6 -4 10 -9 10 -6 0 -13 -4
-16 -10z" />
    <path d="M1370 1930 c0 -5 7 -10 16 -10 l15 0 -6 10 c-3 6 -10 10 -16 10 -5 0
-9 -4 -9 -10z" />
    <path d="M430 1829 c0 -5 5 -7 10 -4 6 3 10 8 10 11 0 2 -4 4 -10 4 -5 0 -10
-5 -10 -11z" />
    <path d="M1555 1830 c3 -5 8 -10 11 -10 2 0 4 5 4 10 0 6 -5 10 -11 10 -5 0
-7 -4 -4 -10z" />
    <path d="M399 1803 l-14 -18 18 14 c9 7 17 15 17 17 0 8 -8 3 -21 -13z" />
    <path d="M1580 1816 c0 -2 8 -10 18 -17 l17 -14 -14 18 c-13 16 -21 21 -21 13z" />
    <path d="M334 1748 l-7 -11 11 7 c12 7 16 16 8 16 -3 0 -8 -5 -12 -12z" />
    <path d="M1655 1750 c3 -5 8 -10 11 -10 3 0 2 5 -1 10 -3 6 -8 10 -11 10 -3 0
-2 -4 1 -10z" />
    <path d="M285 1710 c-16 -17 -24 -30 -19 -30 13 0 59 48 52 55 -2 3 -17 -9
-33 -25z" />
    <path d="M1680 1734 c0 -13 48 -59 55 -52 3 2 -9 17 -25 33 -17 16 -30 24 -30
19z" />
    <path d="M244 1658 l-7 -11 11 7 c12 7 16 16 8 16 -3 0 -8 -5 -12 -12z" />
    <path d="M1745 1660 c3 -5 8 -10 11 -10 3 0 2 5 -1 10 -3 6 -8 10 -11 10 -3 0
-2 -4 1 -10z" />
    <path d="M1790 1606 c0 -2 8 -10 18 -17 l17 -14 -14 18 c-13 16 -21 21 -21 13z" />
    <path d="M160 1559 c0 -5 5 -7 10 -4 6 3 10 8 10 11 0 2 -4 4 -10 4 -5 0 -10
-5 -10 -11z" />
    <path d="M1825 1560 c3 -5 8 -10 11 -10 2 0 4 5 4 10 0 6 -5 10 -11 10 -5 0
-7 -4 -4 -10z" />
    <path d="M66 1391 c-4 -7 -5 -15 -2 -18 9 -9 19 4 14 18 l-4 13 -8 -13z" />
    <path d="M1920 1386 c0 -9 5 -16 10 -16 6 0 10 4 10 9 0 6 -4 13 -10 16 l-10
6 0 -15z" />
    <path d="M45 1331 c-3 -5 -1 -12 5 -16 l10 -6 0 15 c0 18 -6 21 -15 7z" />
    <path d="M1940 1324 l0 -15 10 6 c6 4 8 11 5 16 -9 14 -15 11 -15 -7z" />
    <path d="M20 1250 c0 -7 3 -10 7 -7 3 4 3 10 0 14 -4 3 -7 0 -7 -7z" />
    <path d="M1970 1250 c0 -7 3 -10 7 -7 3 4 3 10 0 14 -4 3 -7 0 -7 -7z" />
    <path d="M10 1180 c0 -7 3 -10 7 -7 3 4 3 10 0 14 -4 3 -7 0 -7 -7z" />
    <path d="M1980 1180 c0 -5 5 -10 11 -10 5 0 7 5 4 10 -3 6 -8 10 -11 10 -2 0
-4 -4 -4 -10z" />
    <path d="M1986 1134 c-4 -9 -4 -19 -1 -22 2 -3 7 3 11 12 4 9 4 19 1 22 -2 3
-7 -3 -11 -12z" />
    <path d="M0 1125 c0 -8 4 -15 10 -15 5 0 7 7 4 15 -4 8 -8 15 -10 15 -2 0 -4
-7 -4 -15z" />
    <path d="M1986 892 c-2 -4 -1 -14 4 -22 l9 -15 -2 23 c-1 24 -3 26 -11 14z" />
    <path d="M0 870 c0 -11 2 -20 4 -20 2 0 6 9 9 20 3 11 1 20 -4 20 -5 0 -9 -9
-9 -20z" />
    <path d="M5 820 c3 -5 8 -10 11 -10 2 0 4 5 4 10 0 6 -5 10 -11 10 -5 0 -7 -4
-4 -10z" />
    <path d="M1980 819 c0 -5 5 -7 10 -4 6 3 10 8 10 11 0 2 -4 4 -10 4 -5 0 -10
-5 -10 -11z" />
    <path d="M20 750 c0 -7 3 -10 7 -7 3 4 3 10 0 14 -4 3 -7 0 -7 -7z" />
    <path d="M1970 750 c0 -7 3 -10 7 -7 3 4 3 10 0 14 -4 3 -7 0 -7 -7z" />
    <path d="M45 681 c-3 -5 -1 -12 5 -16 l10 -6 0 15 c0 18 -6 21 -15 7z" />
    <path d="M1940 674 l0 -15 10 6 c6 4 8 11 5 16 -9 14 -15 11 -15 -7z" />
    <path d="M60 621 c0 -6 5 -13 10 -16 l10 -6 0 15 c0 9 -4 16 -10 16 -5 0 -10
-4 -10 -9z" />
    <path d="M1920 614 l0 -15 10 6 c6 3 10 10 10 16 0 5 -4 9 -10 9 -5 0 -10 -7
-10 -16z" />
    <path d="M160 440 c0 -5 5 -10 11 -10 5 0 7 5 4 10 -3 6 -8 10 -11 10 -2 0 -4
-4 -4 -10z" />
    <path d="M1825 440 c-3 -5 -1 -10 4 -10 6 0 11 5 11 10 0 6 -2 10 -4 10 -3 0
-8 -4 -11 -10z" />
    <path d="M186 405 c4 -8 11 -15 16 -15 l10 0 -12 15 c-7 8 -14 15 -16 15 -2 0
-1 -7 2 -15z" />
    <path d="M1799 403 l-14 -18 18 14 c16 13 21 21 13 21 -2 0 -10 -8 -17 -17z" />
    <path d="M1718 311 c-45 -45 -51 -67 -7 -25 26 24 56 66 47 63 -2 0 -20 -17
-40 -38z" />
    <path d="M280 298 c19 -20 37 -34 39 -32 6 6 -31 44 -54 56 l-20 11 35 -35z" />
    <path d="M335 250 c3 -5 8 -10 11 -10 3 0 2 5 -1 10 -3 6 -8 10 -11 10 -3 0
-2 -4 1 -10z" />
    <path d="M1654 248 l-7 -11 11 7 c12 7 16 16 8 16 -3 0 -8 -5 -12 -12z" />
    <path d="M390 206 c0 -2 8 -10 18 -17 l17 -14 -14 18 c-13 16 -21 21 -21 13z" />
    <path d="M1589 193 l-14 -18 18 14 c16 13 21 21 13 21 -2 0 -10 -8 -17 -17z" />
    <path d="M430 170 c0 -5 5 -10 11 -10 5 0 7 5 4 10 -3 6 -8 10 -11 10 -2 0 -4
-4 -4 -10z" />
    <path d="M1555 170 c-3 -5 -1 -10 4 -10 6 0 11 5 11 10 0 6 -2 10 -4 10 -3 0
-8 -4 -11 -10z" />
    <path d="M605 70 c3 -5 10 -10 16 -10 5 0 9 5 9 10 0 6 -7 10 -16 10 l-15 0 6
-10z" />
    <path d="M1370 70 c0 -5 4 -10 9 -10 6 0 13 5 16 10 l6 10 -15 0 c-9 0 -16 -4
-16 -10z" />
    <path d="M665 50 c4 -6 11 -8 16 -5 14 9 11 15 -7 15 l-15 0 6 -10z" />
    <path d="M1315 50 c4 -6 11 -8 16 -5 14 9 11 15 -7 15 l-15 0 6 -10z" />
    <path d="M1245 30 c-3 -5 -1 -10 4 -10 6 0 11 5 11 10 0 6 -2 10 -4 10 -3 0
-8 -4 -11 -10z" />
    <path d="M743 23 c4 -3 10 -3 14 0 3 4 0 7 -7 7 -7 0 -10 -3 -7 -7z" />
    <path d="M815 10 c3 -5 8 -10 11 -10 2 0 4 5 4 10 0 6 -5 10 -11 10 -5 0 -7
-4 -4 -10z" />
    <path d="M870 10 l-15 -10 18 0 c9 0 17 5 17 10 0 12 -1 12 -20 0z" />
    <path d="M1110 10 c0 -6 7 -10 15 -10 8 0 15 2 15 4 0 2 -7 6 -15 10 -8 3 -15
1 -15 -4z" />
    <path d="M1170 9 c0 -5 5 -7 10 -4 6 3 10 8 10 11 0 2 -4 4 -10 4 -5 0 -10 -5
-10 -11z" />
  </g>
  <g transform="translate(0.000000,200.000000) scale(0.100000,-0.100000)" fill="#c6fbe7" stroke="none">
    <path d="M810 1990 l-15 -10 12 0 c6 0 15 5 18 10 8 12 4 12 -15 0z" />
    <path d="M845 1990 c-3 -5 -2 -10 4 -10 5 0 13 5 16 10 3 6 2 10 -4 10 -5 0
-13 -4 -16 -10z" />
    <path d="M1135 1990 c3 -5 11 -10 16 -10 6 0 7 5 4 10 -3 6 -11 10 -16 10 -6
0 -7 -4 -4 -10z" />
    <path d="M1177 1989 c7 -7 15 -10 18 -7 3 3 -2 9 -12 12 l-18 7 12 -12z" />
    <path d="M711 1967 l-11 -14 15 0 c8 0 15 6 15 14 0 7 -2 13 -4 13 -2 0 -9 -6
-15 -13z" />
    <path d="M1270 1967 c0 -8 7 -14 15 -14 l15 0 -11 14 c-6 7 -13 13 -15 13 -2
0 -4 -6 -4 -13z" />
    <path d="M1320 1956 c0 -2 7 -9 15 -16 l15 -12 0 10 c0 5 -7 12 -15 16 -8 3
-15 4 -15 2z" />
    <path d="M604 1928 l-7 -11 11 7 c12 7 16 16 8 16 -3 0 -8 -5 -12 -12z" />
    <path d="M1385 1930 c3 -5 8 -10 11 -10 3 0 2 5 -1 10 -3 6 -8 10 -11 10 -3 0
-2 -4 1 -10z" />
    <path d="M574 1908 l-7 -11 11 7 c12 7 16 16 8 16 -3 0 -8 -5 -12 -12z" />
    <path d="M1415 1910 c3 -5 8 -10 11 -10 3 0 2 5 -1 10 -3 6 -8 10 -11 10 -3 0
-2 -4 1 -10z" />
    <path d="M494 1868 l-7 -11 11 7 c12 7 16 16 8 16 -3 0 -8 -5 -12 -12z" />
    <path d="M1495 1870 c3 -5 8 -10 11 -10 3 0 2 5 -1 10 -3 6 -8 10 -11 10 -3 0
-2 -4 1 -10z" />
    <path d="M340 1764 l0 -15 10 6 c6 3 10 10 10 16 0 5 -4 9 -10 9 -5 0 -10 -7
-10 -16z" />
    <path d="M1640 1771 c0 -6 5 -13 10 -16 l10 -6 0 15 c0 9 -4 16 -10 16 -5 0
-10 -4 -10 -9z" />
    <path d="M220 1650 c0 -5 4 -10 9 -10 6 0 13 5 16 10 l6 10 -15 0 c-9 0 -16
-4 -16 -10z" />
    <path d="M1755 1650 c3 -5 10 -10 16 -10 5 0 9 5 9 10 0 6 -7 10 -16 10 l-15
0 6 -10z" />
    <path d="M190 1610 c0 -5 5 -10 10 -10 6 0 10 5 10 10 0 6 -4 10 -10 10 -5 0
-10 -4 -10 -10z" />
    <path d="M124 1498 l-7 -11 11 7 c12 7 16 16 8 16 -3 0 -8 -5 -12 -12z" />
    <path d="M1865 1500 c3 -5 8 -10 11 -10 3 0 2 5 -1 10 -3 6 -8 10 -11 10 -3 0
-2 -4 1 -10z" />
    <path d="M84 1418 l-7 -11 11 7 c12 7 16 16 8 16 -3 0 -8 -5 -12 -12z" />
    <path d="M1905 1420 c3 -5 8 -10 11 -10 3 0 2 5 -1 10 -3 6 -8 10 -11 10 -3 0
-2 -4 1 -10z" />
    <path d="M64 1388 l-7 -11 11 7 c12 7 16 16 8 16 -3 0 -8 -5 -12 -12z" />
    <path d="M1925 1390 c3 -5 8 -10 11 -10 3 0 2 5 -1 10 -3 6 -8 10 -11 10 -3 0
-2 -4 1 -10z" />
    <path d="M46 1334 l-6 -17 15 13 c17 14 19 20 6 20 -5 0 -12 -7 -15 -16z" />
    <path d="M30 1285 l-12 -15 14 0 c8 0 15 7 15 15 0 8 -1 15 -2 15 -2 0 -8 -7
-15 -15z" />
    <path d="M1953 1285 c0 -8 7 -15 15 -15 l14 0 -12 15 c-7 8 -13 15 -15 15 -1
0 -2 -7 -2 -15z" />
    <path d="M10 1190 c0 -7 3 -10 7 -7 3 4 3 10 0 14 -4 3 -7 0 -7 -7z" />
    <path d="M1985 1180 c3 -5 8 -10 11 -10 3 0 2 5 -1 10 -3 6 -8 10 -11 10 -3 0
-2 -4 1 -10z" />
    <path d="M7 1153 c-4 -3 -7 -11 -7 -17 l0 -10 12 12 c6 6 9 14 7 17 -3 3 -9 2
-12 -2z" />
    <path d="M1980 1151 c0 -5 5 -13 10 -16 6 -3 10 -2 10 4 0 5 -4 13 -10 16 -5
3 -10 2 -10 -4z" />
    <path d="M0 861 c0 -5 5 -13 10 -16 5 -3 10 -2 10 4 0 5 -4 13 -10 16 -5 3
-10 2 -10 -4z" />
    <path d="M1987 863 c-4 -3 -7 -11 -7 -17 l0 -10 12 12 c6 6 9 14 7 17 -3 3 -9
2 -12 -2z" />
    <path d="M6 817 c3 -10 9 -15 12 -12 3 3 0 11 -7 18 l-12 12 7 -18z" />
    <path d="M1985 819 c-4 -6 -5 -12 -2 -15 2 -3 7 2 10 11 7 17 1 20 -8 4z" />
    <path d="M20 726 c0 -2 6 -9 13 -15 l14 -11 0 15 c0 8 -6 15 -14 15 -7 0 -13
-2 -13 -4z" />
    <path d="M1953 715 l0 -15 14 11 c7 6 13 13 13 15 0 2 -6 4 -13 4 -8 0 -14 -7
-14 -15z" />
    <path d="M65 610 c3 -5 8 -10 11 -10 3 0 2 5 -1 10 -3 6 -8 10 -11 10 -3 0 -2
-4 1 -10z" />
    <path d="M1924 608 l-7 -11 11 7 c12 7 16 16 8 16 -3 0 -8 -5 -12 -12z" />
    <path d="M85 580 c3 -5 8 -10 11 -10 3 0 2 5 -1 10 -3 6 -8 10 -11 10 -3 0 -2
-4 1 -10z" />
    <path d="M1904 578 l-7 -11 11 7 c12 7 16 16 8 16 -3 0 -8 -5 -12 -12z" />
    <path d="M125 500 c3 -5 8 -10 11 -10 3 0 2 5 -1 10 -3 6 -8 10 -11 10 -3 0
-2 -4 1 -10z" />
    <path d="M1864 498 l-7 -11 11 7 c12 7 16 16 8 16 -3 0 -8 -5 -12 -12z" />
    <path d="M190 390 c0 -5 5 -10 10 -10 6 0 10 5 10 10 0 6 -4 10 -10 10 -5 0
-10 -4 -10 -10z" />
    <path d="M220 350 c0 -5 7 -10 16 -10 l15 0 -6 10 c-3 6 -10 10 -16 10 -5 0
-9 -4 -9 -10z" />
    <path d="M1755 350 l-6 -10 15 0 c9 0 16 5 16 10 0 6 -4 10 -9 10 -6 0 -13 -4
-16 -10z" />
    <path d="M340 236 c0 -9 5 -16 10 -16 6 0 10 4 10 9 0 6 -4 13 -10 16 l-10 6
0 -15z" />
    <path d="M1646 241 c-4 -7 -5 -15 -2 -18 9 -9 19 4 14 18 l-4 13 -8 -13z" />
    <path d="M495 130 c3 -5 8 -10 11 -10 3 0 2 5 -1 10 -3 6 -8 10 -11 10 -3 0
-2 -4 1 -10z" />
    <path d="M1494 128 l-7 -11 11 7 c7 4 12 9 12 12 0 8 -9 4 -16 -8z" />
    <path d="M575 90 c3 -5 8 -10 11 -10 3 0 2 5 -1 10 -3 6 -8 10 -11 10 -3 0 -2
-4 1 -10z" />
    <path d="M1414 88 l-7 -11 11 7 c12 7 16 16 8 16 -3 0 -8 -5 -12 -12z" />
    <path d="M605 70 c3 -5 8 -10 11 -10 3 0 2 5 -1 10 -3 6 -8 10 -11 10 -3 0 -2
-4 1 -10z" />
    <path d="M1384 68 l-7 -11 11 7 c7 4 12 9 12 12 0 8 -9 4 -16 -8z" />
    <path d="M700 45 c0 -2 7 -8 15 -15 l15 -12 0 14 c0 8 -7 15 -15 15 -8 0 -15
-1 -15 -2z" />
    <path d="M1270 32 l0 -14 15 12 c8 7 15 13 15 15 0 1 -7 2 -15 2 -8 0 -15 -7
-15 -15z" />
    <path d="M800 16 c0 -2 7 -7 16 -10 l15 -6 -6 10 c-6 10 -25 14 -25 6z" />
    <path d="M845 10 c3 -5 11 -10 16 -10 6 0 7 5 4 10 -3 6 -11 10 -16 10 -6 0
-7 -4 -4 -10z" />
    <path d="M1135 10 c-3 -5 -2 -10 4 -10 5 0 13 5 16 10 3 6 2 10 -4 10 -5 0
-13 -4 -16 -10z" />
    <path d="M1175 10 l-6 -10 15 6 c18 7 21 14 7 14 -6 0 -13 -4 -16 -10z" />
  </g>
  <g transform="translate(0.000000,200.000000) scale(0.100000,-0.100000)" fill="#b1f8dd" stroke="none">
    <path d="M854 1988 l-7 -11 11 7 c12 7 16 16 8 16 -3 0 -8 -5 -12 -12z" />
    <path d="M1135 1990 c3 -5 8 -10 11 -10 3 0 2 5 -1 10 -3 6 -8 10 -11 10 -3 0
-2 -4 1 -10z" />
    <path d="M721 1964 l1 -19 5 13 c3 7 2 16 -1 19 -3 4 -6 -2 -5 -13z" />
    <path d="M1250 1970 c0 -7 3 -10 7 -7 3 4 3 10 0 14 -4 3 -7 0 -7 -7z" />
    <path d="M1271 1964 l1 -19 5 13 c3 7 2 16 -1 19 -3 4 -6 -2 -5 -13z" />
    <path d="M661 1952 c-6 -2 -11 -8 -11 -13 l0 -10 13 8 c6 4 18 8 25 9 8 2 16
5 19 8 6 5 -27 4 -46 -2z" />
    <path d="M1295 1950 c3 -5 11 -10 16 -10 6 0 7 5 4 10 -3 6 -11 10 -16 10 -6
0 -7 -4 -4 -10z" />
    <path d="M615 1930 c3 -5 8 -10 11 -10 2 0 4 5 4 10 0 6 -5 10 -11 10 -5 0 -7
-4 -4 -10z" />
    <path d="M1370 1929 c0 -5 5 -7 10 -4 6 3 10 8 10 11 0 2 -4 4 -10 4 -5 0 -10
-5 -10 -11z" />
    <path d="M438 1833 c7 -3 16 -2 19 1 4 3 -2 6 -13 5 l-19 -1 13 -5z" />
    <path d="M1548 1833 c7 -3 16 -2 19 1 4 3 -2 6 -13 5 l-19 -1 13 -5z" />
    <path d="M383 1793 c4 -3 10 -3 14 0 3 4 0 7 -7 7 -7 0 -10 -3 -7 -7z" />
    <path d="M1603 1793 c4 -3 10 -3 14 0 3 4 0 7 -7 7 -7 0 -10 -3 -7 -7z" />
    <path d="M195 1610 c3 -5 8 -10 11 -10 2 0 4 5 4 10 0 6 -5 10 -11 10 -5 0 -7
-4 -4 -10z" />
    <path d="M1790 1610 c0 -7 3 -10 7 -7 3 4 3 10 0 14 -4 3 -7 0 -7 -7z" />
    <path d="M161 1554 l1 -19 5 13 c3 7 2 16 -1 19 -3 4 -6 -2 -5 -13z" />
    <path d="M1831 1554 l1 -19 5 13 c3 7 2 16 -1 19 -3 4 -6 -2 -5 -13z" />
    <path d="M60 1380 c0 -5 5 -10 11 -10 5 0 7 5 4 10 -3 6 -8 10 -11 10 -2 0 -4
-4 -4 -10z" />
    <path d="M1925 1380 c-3 -5 -1 -10 4 -10 6 0 11 5 11 10 0 6 -2 10 -4 10 -3 0
-8 -4 -11 -10z" />
    <path d="M1937 1338 c8 -13 9 -18 12 -39 0 -5 6 -7 12 -3 l11 7 -12 7 c-6 4
-11 10 -11 14 3 19 0 26 -10 26 l-10 0 8 -12z" />
    <path d="M47 1313 c-4 -3 -7 -11 -7 -17 l0 -10 12 12 c6 6 9 14 7 17 -3 3 -9
2 -12 -2z" />
    <path d="M28 1273 c7 -3 16 -2 19 1 4 3 -2 6 -13 5 l-19 -1 13 -5z" />
    <path d="M1958 1273 c7 -3 16 -2 19 1 4 3 -2 6 -13 5 l-19 -1 13 -5z" />
    <path d="M4 1138 l-7 -11 11 7 c12 7 16 16 8 16 -3 0 -8 -5 -12 -12z" />
    <path d="M1983 1135 c0 -8 4 -12 9 -9 5 3 6 10 3 15 -9 13 -12 11 -12 -6z" />
    <path d="M5 860 c3 -5 8 -10 11 -10 3 0 2 5 -1 10 -3 6 -8 10 -11 10 -3 0 -2
-4 1 -10z" />
    <path d="M1984 858 l-7 -11 11 7 c12 7 16 16 8 16 -3 0 -8 -5 -12 -12z" />
    <path d="M28 723 c7 -3 16 -2 19 1 4 3 -2 6 -13 5 l-19 -1 13 -5z" />
    <path d="M1958 723 c7 -3 16 -2 19 1 4 3 -2 6 -13 5 l-19 -1 13 -5z" />
    <path d="M44 688 c3 -13 5 -26 5 -30 1 -5 6 -8 13 -8 l12 0 -11 11 c-6 6 -9
17 -7 24 3 7 1 16 -5 20 l-11 6 4 -23z" />
    <path d="M1949 700 c-3 -20 -4 -25 -12 -37 l-8 -13 10 0 c6 0 11 3 12 8 0 4 2
17 5 30 2 12 2 22 -1 22 -3 0 -6 -4 -6 -10z" />
    <path d="M60 619 c0 -5 5 -7 10 -4 6 3 10 8 10 11 0 2 -4 4 -10 4 -5 0 -10 -5
-10 -11z" />
    <path d="M1925 620 c3 -5 8 -10 11 -10 2 0 4 5 4 10 0 6 -5 10 -11 10 -5 0 -7
-4 -4 -10z" />
    <path d="M161 444 l1 -19 5 13 c3 7 2 16 -1 19 -3 4 -6 -2 -5 -13z" />
    <path d="M1831 444 l1 -19 5 13 c3 7 2 16 -1 19 -3 4 -6 -2 -5 -13z" />
    <path d="M195 390 c-3 -5 -1 -10 4 -10 6 0 11 5 11 10 0 6 -2 10 -4 10 -3 0
-8 -4 -11 -10z" />
    <path d="M1790 390 c0 -7 3 -10 7 -7 3 4 3 10 0 14 -4 3 -7 0 -7 -7z" />
    <path d="M246 337 c3 -10 9 -15 12 -12 3 3 0 11 -7 18 l-12 12 7 -18z" />
    <path d="M383 203 c4 -3 10 -3 14 0 3 4 0 7 -7 7 -7 0 -10 -3 -7 -7z" />
    <path d="M1603 203 c4 -3 10 -3 14 0 3 4 0 7 -7 7 -7 0 -10 -3 -7 -7z" />
    <path d="M438 163 c7 -3 16 -2 19 1 4 3 -2 6 -13 5 l-19 -1 13 -5z" />
    <path d="M1548 163 c7 -3 16 -2 19 1 4 3 -2 6 -13 5 l-19 -1 13 -5z" />
    <path d="M615 70 c-3 -5 -1 -10 4 -10 6 0 11 5 11 10 0 6 -2 10 -4 10 -3 0 -8
-4 -11 -10z" />
    <path d="M1370 70 c0 -5 5 -10 11 -10 5 0 7 5 4 10 -3 6 -8 10 -11 10 -2 0 -4
-4 -4 -10z" />
    <path d="M650 61 c0 -10 7 -13 26 -10 4 0 10 -5 14 -11 l8 -12 6 11 c4 6 2 12
-3 12 -21 3 -26 4 -38 12 l-13 8 0 -10z" />
    <path d="M1335 61 c-3 -6 -10 -9 -14 -7 -4 3 -13 1 -20 -3 l-13 -8 11 -7 11
-7 0 11 c0 6 4 9 8 6 10 -6 38 11 30 19 -3 4 -9 1 -13 -4z" />
    <path d="M721 34 l1 -19 5 13 c3 7 2 16 -1 19 -3 4 -6 -2 -5 -13z" />
    <path d="M1271 34 l1 -19 5 13 c3 7 2 16 -1 19 -3 4 -6 -2 -5 -13z" />
    <path d="M1250 30 c0 -7 3 -10 7 -7 3 4 3 10 0 14 -4 3 -7 0 -7 -7z" />
    <path d="M855 10 c3 -5 8 -10 11 -10 3 0 2 5 -1 10 -3 6 -8 10 -11 10 -3 0 -2
-4 1 -10z" />
    <path d="M1134 8 l-7 -11 11 7 c12 7 16 16 8 16 -3 0 -8 -5 -12 -12z" />
  </g>
  <g transform="translate(0.000000,200.000000) scale(0.100000,-0.100000)" fill="#eafef8" stroke="none">
    <path d="M785 1980 l-6 -10 15 6 c18 7 21 14 7 14 -6 0 -13 -4 -16 -10z" />
    <path d="M1190 1986 c0 -2 7 -7 16 -10 l15 -6 -6 10 c-6 10 -25 14 -25 6z" />
    <path d="M675 1950 c3 -5 8 -10 11 -10 3 0 2 5 -1 10 -3 6 -8 10 -11 10 -3 0
-2 -4 1 -10z" />
    <path d="M1314 1948 l-7 -11 11 7 c12 7 16 16 8 16 -3 0 -8 -5 -12 -12z" />
    <path d="M650 1940 c0 -7 3 -10 7 -7 3 4 3 10 0 14 -4 3 -7 0 -7 -7z" />
    <path d="M1340 1940 c0 -7 3 -10 7 -7 3 4 3 10 0 14 -4 3 -7 0 -7 -7z" />
    <path d="M615 1930 c3 -5 8 -10 11 -10 3 0 2 5 -1 10 -3 6 -8 10 -11 10 -3 0
-2 -4 1 -10z" />
    <path d="M1374 1928 l-7 -11 11 7 c12 7 16 16 8 16 -3 0 -8 -5 -12 -12z" />
    <path d="M345 1770 c3 -5 8 -10 11 -10 3 0 2 5 -1 10 -3 6 -8 10 -11 10 -3 0
-2 -4 1 -10z" />
    <path d="M1644 1768 l-7 -11 11 7 c7 4 12 9 12 12 0 8 -9 4 -16 -8z" />
    <path d="M285 1709 c-11 -16 -1 -19 13 -3 l13 14 -10 0 c-5 0 -13 -5 -16 -11z" />
    <path d="M1702 1706 c7 -8 15 -12 17 -11 5 6 -10 25 -20 25 l-10 0 13 -14z" />
    <path d="M225 1650 c3 -5 8 -10 11 -10 3 0 2 5 -1 10 -3 6 -8 10 -11 10 -3 0
-2 -4 1 -10z" />
    <path d="M1764 1648 l-7 -11 11 7 c7 4 12 9 12 12 0 8 -9 4 -16 -8z" />
    <path d="M195 1610 c3 -5 8 -10 11 -10 3 0 2 5 -1 10 -3 6 -8 10 -11 10 -3 0
-2 -4 1 -10z" />
    <path d="M65 1380 c3 -5 8 -10 11 -10 3 0 2 5 -1 10 -3 6 -8 10 -11 10 -3 0
-2 -4 1 -10z" />
    <path d="M1924 1378 l-7 -11 11 7 c12 7 16 16 8 16 -3 0 -8 -5 -12 -12z" />
    <path d="M53 1343 c4 -3 10 -3 14 0 3 4 0 7 -7 7 -7 0 -10 -3 -7 -7z" />
    <path d="M1933 1343 c4 -3 10 -3 14 0 3 4 0 7 -7 7 -7 0 -10 -3 -7 -7z" />
    <path d="M45 1320 c3 -5 8 -10 11 -10 3 0 2 5 -1 10 -3 6 -8 10 -11 10 -3 0
-2 -4 1 -10z" />
    <path d="M1944 1318 l-7 -11 11 7 c7 4 12 9 12 12 0 8 -9 4 -16 -8z" />
    <path d="M1954 1298 l-7 -11 11 7 c12 7 16 16 8 16 -3 0 -8 -5 -12 -12z" />
    <path d="M15 1209 c-4 -6 -5 -12 -2 -15 2 -3 7 2 10 11 7 17 1 20 -8 4z" />
    <path d="M1975 1210 c3 -5 8 -10 11 -10 3 0 2 5 -1 10 -3 6 -8 10 -11 10 -3 0
-2 -4 1 -10z" />
    <path d="M10 801 c0 -6 4 -13 10 -16 l10 -6 -6 15 c-7 18 -14 21 -14 7z" />
    <path d="M1976 793 l-7 -18 12 12 c7 7 10 15 7 18 -3 3 -9 -2 -12 -12z" />
    <path d="M44 678 l-7 -11 11 7 c12 7 16 16 8 16 -3 0 -8 -5 -12 -12z" />
    <path d="M1945 680 c3 -5 8 -10 11 -10 3 0 2 5 -1 10 -3 6 -8 10 -11 10 -3 0
-2 -4 1 -10z" />
    <path d="M53 653 c4 -3 10 -3 14 0 3 4 0 7 -7 7 -7 0 -10 -3 -7 -7z" />
    <path d="M1933 653 c4 -3 10 -3 14 0 3 4 0 7 -7 7 -7 0 -10 -3 -7 -7z" />
    <path d="M64 618 l-7 -11 11 7 c12 7 16 16 8 16 -3 0 -8 -5 -12 -12z" />
    <path d="M1925 620 c3 -5 8 -10 11 -10 3 0 2 5 -1 10 -3 6 -8 10 -11 10 -3 0
-2 -4 1 -10z" />
    <path d="M194 388 l-7 -11 11 7 c12 7 16 16 8 16 -3 0 -8 -5 -12 -12z" />
    <path d="M224 348 l-7 -11 11 7 c7 4 12 9 12 12 0 8 -9 4 -16 -8z" />
    <path d="M1765 350 c3 -5 8 -10 11 -10 3 0 2 5 -1 10 -3 6 -8 10 -11 10 -3 0
-2 -4 1 -10z" />
    <path d="M1702 294 l-13 -14 10 0 c10 0 25 19 20 25 -2 1 -10 -3 -17 -11z" />
    <path d="M344 228 l-7 -11 11 7 c7 4 12 9 12 12 0 8 -9 4 -16 -8z" />
    <path d="M1645 230 c3 -5 8 -10 11 -10 3 0 2 5 -1 10 -3 6 -8 10 -11 10 -3 0
-2 -4 1 -10z" />
    <path d="M614 68 l-7 -11 11 7 c7 4 12 9 12 12 0 8 -9 4 -16 -8z" />
    <path d="M1375 70 c3 -5 8 -10 11 -10 3 0 2 5 -1 10 -3 6 -8 10 -11 10 -3 0
-2 -4 1 -10z" />
    <path d="M650 60 c0 -7 3 -10 7 -7 3 4 3 10 0 14 -4 3 -7 0 -7 -7z" />
    <path d="M1340 60 c0 -5 5 -10 11 -10 5 0 7 5 4 10 -3 6 -8 10 -11 10 -2 0 -4
-4 -4 -10z" />
    <path d="M674 48 l-7 -11 11 7 c7 4 12 9 12 12 0 8 -9 4 -16 -8z" />
    <path d="M1315 50 c3 -5 8 -10 11 -10 3 0 2 5 -1 10 -3 6 -8 10 -11 10 -3 0
-2 -4 1 -10z" />
    <path d="M694 38 l-7 -11 11 7 c7 4 12 9 12 12 0 8 -9 4 -16 -8z" />
    <path d="M1295 40 c3 -5 8 -10 11 -10 3 0 2 5 -1 10 -3 6 -8 10 -11 10 -3 0
-2 -4 1 -10z" />
    <path d="M787 19 c7 -7 15 -10 18 -7 3 3 -2 9 -12 12 l-18 7 12 -12z" />
    <path d="M1200 20 l-15 -10 12 0 c6 0 15 5 18 10 8 12 4 12 -15 0z" />
  </g>
  <g transform="translate(0.000000,200.000000) scale(0.100000,-0.100000)" fill="#6befba" stroke="none">
    <path d="M843 1983 c4 -3 10 -3 14 0 3 4 0 7 -7 7 -7 0 -10 -3 -7 -7z" />
    <path d="M1143 1983 c4 -3 10 -3 14 0 3 4 0 7 -7 7 -7 0 -10 -3 -7 -7z" />
    <path d="M773 1973 c4 -3 10 -3 14 0 3 4 0 7 -7 7 -7 0 -10 -3 -7 -7z" />
    <path d="M1213 1973 c4 -3 10 -3 14 0 3 4 0 7 -7 7 -7 0 -10 -3 -7 -7z" />
    <path d="M1297 1949 c7 -7 15 -10 18 -7 3 3 -2 9 -12 12 l-18 7 12 -12z" />
    <path d="M344 1758 l-7 -11 11 7 c12 7 16 16 8 16 -3 0 -8 -5 -12 -12z" />
    <path d="M1645 1760 c3 -5 8 -10 11 -10 3 0 2 5 -1 10 -3 6 -8 10 -11 10 -3 0
-2 -4 1 -10z" />
    <path d="M234 1648 l-7 -11 11 7 c12 7 16 16 8 16 -3 0 -8 -5 -12 -12z" />
    <path d="M1755 1650 c3 -5 8 -10 11 -10 3 0 2 5 -1 10 -3 6 -8 10 -11 10 -3 0
-2 -4 1 -10z" />
    <path d="M46 1303 l-7 -18 12 12 c7 7 10 15 7 18 -3 3 -9 -2 -12 -12z" />
    <path d="M20 1220 c0 -7 3 -10 7 -7 3 4 3 10 0 14 -4 3 -7 0 -7 -7z" />
    <path d="M1970 1220 c0 -7 3 -10 7 -7 3 4 3 10 0 14 -4 3 -7 0 -7 -7z" />
    <path d="M10 1150 c0 -7 3 -10 7 -7 3 4 3 10 0 14 -4 3 -7 0 -7 -7z" />
    <path d="M1980 1150 c0 -7 3 -10 7 -7 3 4 3 10 0 14 -4 3 -7 0 -7 -7z" />
    <path d="M1985 1110 c3 -5 8 -10 11 -10 3 0 2 5 -1 10 -3 6 -8 10 -11 10 -3 0
-2 -4 1 -10z" />
    <path d="M1984 888 l-7 -11 11 7 c12 7 16 16 8 16 -3 0 -8 -5 -12 -12z" />
    <path d="M10 850 c0 -7 3 -10 7 -7 3 4 3 10 0 14 -4 3 -7 0 -7 -7z" />
    <path d="M1980 850 c0 -7 3 -10 7 -7 3 4 3 10 0 14 -4 3 -7 0 -7 -7z" />
    <path d="M20 780 c0 -7 3 -10 7 -7 3 4 3 10 0 14 -4 3 -7 0 -7 -7z" />
    <path d="M1970 780 c0 -7 3 -10 7 -7 3 4 3 10 0 14 -4 3 -7 0 -7 -7z" />
    <path d="M46 697 c3 -10 9 -15 12 -12 3 3 0 11 -7 18 l-12 12 7 -18z" />
    <path d="M235 350 c3 -5 8 -10 11 -10 3 0 2 5 -1 10 -3 6 -8 10 -11 10 -3 0
-2 -4 1 -10z" />
    <path d="M1754 348 l-7 -11 11 7 c12 7 16 16 8 16 -3 0 -8 -5 -12 -12z" />
    <path d="M345 240 c3 -5 8 -10 11 -10 3 0 2 5 -1 10 -3 6 -8 10 -11 10 -3 0
-2 -4 1 -10z" />
    <path d="M1644 238 l-7 -11 11 7 c7 4 12 9 12 12 0 8 -9 4 -16 -8z" />
    <path d="M773 23 c4 -3 10 -3 14 0 3 4 0 7 -7 7 -7 0 -10 -3 -7 -7z" />
    <path d="M1213 23 c4 -3 10 -3 14 0 3 4 0 7 -7 7 -7 0 -10 -3 -7 -7z" />
    <path d="M843 13 c4 -3 10 -3 14 0 3 4 0 7 -7 7 -7 0 -10 -3 -7 -7z" />
    <path d="M1143 13 c4 -3 10 -3 14 0 3 4 0 7 -7 7 -7 0 -10 -3 -7 -7z" />
  </g>
  <g transform="translate(0.000000,200.000000) scale(0.100000,-0.100000)" fill="#3ceba4" stroke="none">
    <path d="M304 1718 l-7 -11 11 7 c7 4 12 9 12 12 0 8 -9 4 -16 -8z" />
    <path d="M1685 1720 c3 -5 8 -10 11 -10 3 0 2 5 -1 10 -3 6 -8 10 -11 10 -3 0
-2 -4 1 -10z" />
    <path d="M274 1688 l-7 -11 11 7 c12 7 16 16 8 16 -3 0 -8 -5 -12 -12z" />
    <path d="M1715 1690 c3 -5 8 -10 11 -10 3 0 2 5 -1 10 -3 6 -8 10 -11 10 -3 0
-2 -4 1 -10z" />
    <path d="M1980 1120 c0 -7 3 -10 7 -7 3 4 3 10 0 14 -4 3 -7 0 -7 -7z" />
    <path d="M275 310 c3 -5 8 -10 11 -10 3 0 2 5 -1 10 -3 6 -8 10 -11 10 -3 0
-2 -4 1 -10z" />
    <path d="M305 280 c3 -5 8 -10 11 -10 3 0 2 5 -1 10 -3 6 -8 10 -11 10 -3 0
-2 -4 1 -10z" />
    <path d="M1684 278 l-7 -11 11 7 c7 4 12 9 12 12 0 8 -9 4 -16 -8z" />
  </g>
  <g transform="translate(0.000000,200.000000) scale(0.100000,-0.100000)" fill="#17cb7d" stroke="none">
    <path d="M534 1488 l-7 -11 11 7 c12 7 16 16 8 16 -3 0 -8 -5 -12 -12z" />
    <path d="M1414 1488 l-7 -11 11 7 c12 7 16 16 8 16 -3 0 -8 -5 -12 -12z" />
    <path d="M1263 1483 c4 -3 10 -3 14 0 3 4 0 7 -7 7 -7 0 -10 -3 -7 -7z" />
    <path d="M1583 1483 c4 -3 10 -3 14 0 3 4 0 7 -7 7 -7 0 -10 -3 -7 -7z" />
    <path d="M503 1453 c4 -3 10 -3 14 0 3 4 0 7 -7 7 -7 0 -10 -3 -7 -7z" />
    <path d="M500 1431 c0 -5 7 -15 17 -22 l16 -14 -12 23 c-12 23 -21 28 -21 13z" />
    <path d="M565 1300 c3 -5 8 -10 11 -10 3 0 2 5 -1 10 -3 6 -8 10 -11 10 -3 0
-2 -4 1 -10z" />
    <path d="M595 1240 c3 -5 8 -10 11 -10 3 0 2 5 -1 10 -3 6 -8 10 -11 10 -3 0
-2 -4 1 -10z" />
    <path d="M620 1180 c0 -7 3 -10 7 -7 3 4 3 10 0 14 -4 3 -7 0 -7 -7z" />
    <path d="M675 1070 c3 -5 8 -10 11 -10 3 0 2 5 -1 10 -3 6 -8 10 -11 10 -3 0
-2 -4 1 -10z" />
    <path d="M705 1010 c3 -5 8 -10 11 -10 2 0 4 5 4 10 0 6 -5 10 -11 10 -5 0 -7
-4 -4 -10z" />
    <path d="M744 988 l18 -10 8 8 9 9 -27 2 -26 1 18 -10z" />
    <path d="M910 988 c0 -10 157 -11 163 0 3 4 -33 7 -79 8 -46 0 -84 -3 -84 -8z" />
    <path d="M506 883 l-7 -18 12 12 c7 7 10 15 7 18 -3 3 -9 -2 -12 -12z" />
    <path d="M510 410 c0 -7 3 -10 7 -7 3 4 3 10 0 14 -4 3 -7 0 -7 -7z" />
  </g>
  <g transform="translate(0.000000,200.000000) scale(0.100000,-0.100000)" fill="#0f7242" stroke="none">
    <path d="M514 1458 l-7 -11 11 7 c12 7 16 16 8 16 -3 0 -8 -5 -12 -12z" />
    <path d="M685 1060 c3 -5 8 -10 11 -10 3 0 2 5 -1 10 -3 6 -8 10 -11 10 -3 0
-2 -4 1 -10z" />
    <path d="M910 999 c0 -5 11 -9 25 -9 14 0 25 2 25 4 0 2 -11 6 -25 8 -14 3
-25 1 -25 -3z" />
    <path d="M1048 993 c6 -2 18 -2 25 0 6 3 1 5 -13 5 -14 0 -19 -2 -12 -5z" />
  </g>
</svg>