<?xml version="1.0" standalone="no"?>
<!DOCTYPE svg PUBLIC "-//W3C//DTD SVG 20010904//EN"
 "http://www.w3.org/TR/2001/REC-SVG-20010904/DTD/svg10.dtd">
<svg version="1.0" xmlns="http://www.w3.org/2000/svg"
 width="200.000000pt" height="200.000000pt" viewBox="0 0 200.000000 200.000000"
 preserveAspectRatio="xMidYMid meet">

<g transform="translate(0.000000,200.000000) scale(0.100000,-0.100000)"
fill="#000000" stroke="none">
<path d="M527 1472 c-10 -10 -17 -24 -17 -30 0 -11 56 -138 82 -187 6 -11 14
-27 18 -35 100 -211 113 -230 156 -230 17 0 504 476 504 492 0 4 -164 8 -363
8 -340 0 -365 -1 -380 -18z"/>
<path d="M1389 1472 c-30 -19 -479 -466 -479 -476 0 -13 161 -6 189 8 23 12
491 471 491 482 0 2 -39 4 -87 4 -67 0 -94 -4 -114 -18z"/>
<path d="M527 897 c-16 -11 -17 -35 -15 -251 l3 -238 230 230 c127 126 239
239 249 251 l19 21 -235 0 c-171 0 -239 -3 -251 -13z"/>
</g>
</svg>
