<svg xmlns="http://www.w3.org/2000/svg" xmlns:v="https://svgstorm.com"
viewBox = "0 0 200 200"
width="200"
height="200">
<g fill="None" fill-opacity="0.0" stroke="#000000" stroke-opacity="0.00" stroke-width="0.3"><path d="
M 0.00 87.00 
C 2.78 66.64 12.38 47.93 26.00 32.00
C 27.90 29.78 29.83 27.85 32.00 26.00
C 47.99 12.34 66.65 2.79 87.00 0.00
L 0.00 0.00
L 0.00 87.00 Z"/>
</g>
<g fill="None" fill-opacity="0.0" stroke="#0DF38D" stroke-opacity="0.99" stroke-width="0.3"><path d="
M 32.00 26.00 
C 30.08 27.92 27.88 30.12 26.00 32.00
C 12.38 47.93 2.78 66.64 0.00 87.00
L 0.00 113.00
C 2.78 133.36 12.38 152.07 26.00 168.00
C 27.92 169.92 30.12 172.12 32.00 174.00
C 47.99 187.66 66.65 197.21 87.00 200.00
L 113.00 200.00
C 133.36 197.22 152.07 187.62 168.00 174.00
C 169.92 172.08 172.12 169.88 174.00 168.00
C 187.14 152.63 198.59 133.66 199.00 113.00
C 199.05 110.47 198.18 106.71 200.00 105.00
L 200.00 87.00
C 197.22 66.63 187.63 47.95 174.00 32.00
C 172.08 30.08 169.88 27.88 168.00 26.00
C 152.03 12.35 133.34 2.79 113.00 0.00
L 87.00 0.00
C 66.65 2.79 47.99 12.34 32.00 26.00
M 79.00 99.00 
C 75.62 101.12 74.04 101.45 71.00 98.00
C 66.78 93.21 62.13 79.78 59.69 74.31 C 57.26 68.83 44.90 53.96 55.08 51.08 C 65.27 48.20 79.95 52.44 91.00 51.00 C 102.05 49.56 115.71 52.08 127.00 51.00
C 111.74 67.51 95.51 83.75 79.00 99.00
M 108.00 100.00 
C 103.02 101.51 96.68 100.95 91.00 101.00
C 90.73 99.72 91.77 98.28 93.00 98.00
C 100.01 86.31 112.59 80.91 121.08 70.08 C 129.57 59.25 142.30 46.27 159.00 51.00
C 151.50 59.81 142.78 68.16 134.25 76.25 C 125.72 84.33 118.59 94.77 108.00 100.00
M 98.00 112.00 
C 84.19 128.67 66.47 143.57 51.00 159.00
C 51.62 150.92 50.17 140.89 51.00 133.00 C 51.83 125.11 48.07 114.49 54.00 110.00
C 66.60 103.49 87.11 112.80 101.00 109.00
C 100.33 110.20 99.36 111.58 98.00 112.00 Z"/>
</g>
<g fill="None" fill-opacity="0.0" stroke="#000000" stroke-opacity="0.00" stroke-width="0.3"><path d="
M 168.00 26.00 
C 170.22 27.90 172.15 29.83 174.00 32.00
C 187.63 47.95 197.22 66.63 200.00 87.00
L 200.00 0.00
L 113.00 0.00
C 133.34 2.79 152.03 12.35 168.00 26.00 Z"/>
</g>
<g fill="None" fill-opacity="0.0" stroke="#B8FAE2" stroke-opacity="0.06" stroke-width="0.3"><path d="
M 26.00 32.00 
C 27.88 30.12 30.08 27.92 32.00 26.00
C 29.83 27.85 27.90 29.78 26.00 32.00 Z"/>
</g>
<g fill="None" fill-opacity="0.0" stroke="#B8FAE2" stroke-opacity="0.06" stroke-width="0.3"><path d="
M 174.00 32.00 
C 172.15 29.83 170.22 27.90 168.00 26.00
C 169.88 27.88 172.08 30.08 174.00 32.00 Z"/>
</g>
<g fill="None" fill-opacity="0.0" stroke="#000000" stroke-opacity="1.00" stroke-width="0.3"><path d="
M 71.00 98.00 
C 73.49 100.13 76.19 100.15 79.00 99.00
C 95.51 83.75 111.74 67.51 127.00 51.00
C 115.71 52.08 102.05 49.56 91.00 51.00 C 79.95 52.44 65.27 48.20 55.08 51.08 C 44.90 53.96 57.26 68.83 59.69 74.31 C 62.13 79.78 66.78 93.21 71.00 98.00 Z"/>
</g>
<g fill="None" fill-opacity="0.0" stroke="#010201" stroke-opacity="1.00" stroke-width="0.3"><path d="
M 93.00 98.00 
C 92.48 101.09 104.20 100.64 108.00 100.00
C 118.59 94.77 125.72 84.33 134.25 76.25 C 142.78 68.16 151.50 59.81 159.00 51.00
C 142.30 46.27 129.57 59.25 121.08 70.08 C 112.59 80.91 100.01 86.31 93.00 98.00 Z"/>
</g>
<g fill="None" fill-opacity="0.0" stroke="#0F6E40" stroke-opacity="1.00" stroke-width="0.3"><path d="
M 79.00 99.00 
C 76.19 100.15 73.49 100.13 71.00 98.00
C 74.04 101.45 75.62 101.12 79.00 99.00 Z"/>
</g>
<g fill="None" fill-opacity="0.0" stroke="#0F693D" stroke-opacity="1.00" stroke-width="0.3"><path d="
M 108.00 100.00 
C 104.20 100.64 92.48 101.09 93.00 98.00
C 91.77 98.28 90.73 99.72 91.00 101.00
C 96.68 100.95 103.02 101.51 108.00 100.00 Z"/>
</g>
<g fill="None" fill-opacity="0.0" stroke="#62EEB2" stroke-opacity="0.42" stroke-width="0.3"><path d="
M 199.00 113.00 
C 199.00 113.01 200.00 113.00 200.00 113.00
L 200.00 105.00
C 198.18 106.71 199.05 110.47 199.00 113.00 Z"/>
</g>
<g fill="None" fill-opacity="0.0" stroke="#0A5C31" stroke-opacity="1.00" stroke-width="0.3"><path d="
M 54.00 110.00 
C 59.51 108.14 72.73 110.72 78.00 110.00 C 83.27 109.28 98.43 109.11 98.00 112.00
C 99.36 111.58 100.33 110.20 101.00 109.00
C 87.11 112.80 66.60 103.49 54.00 110.00 Z"/>
</g>
<g fill="None" fill-opacity="0.0" stroke="#000000" stroke-opacity="1.00" stroke-width="0.3"><path d="
M 98.00 112.00 
C 98.43 109.11 83.27 109.28 78.00 110.00 C 72.73 110.72 59.51 108.14 54.00 110.00
C 48.07 114.49 51.83 125.11 51.00 133.00 C 50.17 140.89 51.62 150.92 51.00 159.00
C 66.47 143.57 84.19 128.67 98.00 112.00 Z"/>
</g>
<g fill="None" fill-opacity="0.0" stroke="#000000" stroke-opacity="0.00" stroke-width="0.3"><path d="
M 0.00 200.00 
L 87.00 200.00
C 66.65 197.21 47.99 187.66 32.00 174.00
C 29.78 172.10 27.85 170.17 26.00 168.00
C 12.38 152.07 2.78 133.36 0.00 113.00
L 0.00 200.00 Z"/>
</g>
<g fill="None" fill-opacity="0.0" stroke="#000000" stroke-opacity="0.00" stroke-width="0.3"><path d="
M 174.00 168.00 
C 172.10 170.22 170.17 172.15 168.00 174.00
C 152.07 187.62 133.36 197.22 113.00 200.00
L 200.00 200.00
L 200.00 113.00
C 200.00 113.00 199.00 113.01 199.00 113.00
C 198.59 133.66 187.14 152.63 174.00 168.00 Z"/>
</g>
<g fill="None" fill-opacity="0.0" stroke="#B4FAE2" stroke-opacity="0.06" stroke-width="0.3"><path d="
M 32.00 174.00 
C 30.12 172.12 27.92 169.92 26.00 168.00
C 27.85 170.17 29.78 172.10 32.00 174.00 Z"/>
</g>
<g fill="None" fill-opacity="0.0" stroke="#B6FAE2" stroke-opacity="0.06" stroke-width="0.3"><path d="
M 168.00 174.00 
C 170.17 172.15 172.10 170.22 174.00 168.00
C 172.12 169.88 169.92 172.08 168.00 174.00 Z"/>
</g>
<g fill="#000000" fill-opacity="0.00" stroke="None">
<path d="
M 0.00 87.00 
C 2.78 66.64 12.38 47.93 26.00 32.00
C 27.90 29.78 29.83 27.85 32.00 26.00
C 47.99 12.34 66.65 2.79 87.00 0.00
L 0.00 0.00
L 0.00 87.00 Z"/>
</g>
<g fill="#0DF38D" fill-opacity="0.99" stroke="None">
<path d="
M 32.00 26.00 
C 30.08 27.92 27.88 30.12 26.00 32.00
C 12.38 47.93 2.78 66.64 0.00 87.00
L 0.00 113.00
C 2.78 133.36 12.38 152.07 26.00 168.00
C 27.92 169.92 30.12 172.12 32.00 174.00
C 47.99 187.66 66.65 197.21 87.00 200.00
L 113.00 200.00
C 133.36 197.22 152.07 187.62 168.00 174.00
C 169.92 172.08 172.12 169.88 174.00 168.00
C 187.14 152.63 198.59 133.66 199.00 113.00
C 199.05 110.47 198.18 106.71 200.00 105.00
L 200.00 87.00
C 197.22 66.63 187.63 47.95 174.00 32.00
C 172.08 30.08 169.88 27.88 168.00 26.00
C 152.03 12.35 133.34 2.79 113.00 0.00
L 87.00 0.00
C 66.65 2.79 47.99 12.34 32.00 26.00
M 79.00 99.00 
C 75.62 101.12 74.04 101.45 71.00 98.00
C 66.78 93.21 62.13 79.78 59.69 74.31 C 57.26 68.83 44.90 53.96 55.08 51.08 C 65.27 48.20 79.95 52.44 91.00 51.00 C 102.05 49.56 115.71 52.08 127.00 51.00
C 111.74 67.51 95.51 83.75 79.00 99.00
M 108.00 100.00 
C 103.02 101.51 96.68 100.95 91.00 101.00
C 90.73 99.72 91.77 98.28 93.00 98.00
C 100.01 86.31 112.59 80.91 121.08 70.08 C 129.57 59.25 142.30 46.27 159.00 51.00
C 151.50 59.81 142.78 68.16 134.25 76.25 C 125.72 84.33 118.59 94.77 108.00 100.00
M 98.00 112.00 
C 84.19 128.67 66.47 143.57 51.00 159.00
C 51.62 150.92 50.17 140.89 51.00 133.00 C 51.83 125.11 48.07 114.49 54.00 110.00
C 66.60 103.49 87.11 112.80 101.00 109.00
C 100.33 110.20 99.36 111.58 98.00 112.00 Z"/>
</g>
<g fill="#000000" fill-opacity="0.00" stroke="None">
<path d="
M 168.00 26.00 
C 170.22 27.90 172.15 29.83 174.00 32.00
C 187.63 47.95 197.22 66.63 200.00 87.00
L 200.00 0.00
L 113.00 0.00
C 133.34 2.79 152.03 12.35 168.00 26.00 Z"/>
</g>
<g fill="#B8FAE2" fill-opacity="0.06" stroke="None">
<path d="
M 26.00 32.00 
C 27.88 30.12 30.08 27.92 32.00 26.00
C 29.83 27.85 27.90 29.78 26.00 32.00 Z"/>
</g>
<g fill="#B8FAE2" fill-opacity="0.06" stroke="None">
<path d="
M 174.00 32.00 
C 172.15 29.83 170.22 27.90 168.00 26.00
C 169.88 27.88 172.08 30.08 174.00 32.00 Z"/>
</g>
<g fill="#000000" fill-opacity="1.00" stroke="None">
<path d="
M 71.00 98.00 
C 73.49 100.13 76.19 100.15 79.00 99.00
C 95.51 83.75 111.74 67.51 127.00 51.00
C 115.71 52.08 102.05 49.56 91.00 51.00 C 79.95 52.44 65.27 48.20 55.08 51.08 C 44.90 53.96 57.26 68.83 59.69 74.31 C 62.13 79.78 66.78 93.21 71.00 98.00 Z"/>
</g>
<g fill="#010201" fill-opacity="1.00" stroke="None">
<path d="
M 93.00 98.00 
C 92.48 101.09 104.20 100.64 108.00 100.00
C 118.59 94.77 125.72 84.33 134.25 76.25 C 142.78 68.16 151.50 59.81 159.00 51.00
C 142.30 46.27 129.57 59.25 121.08 70.08 C 112.59 80.91 100.01 86.31 93.00 98.00 Z"/>
</g>
<g fill="#0F6E40" fill-opacity="1.00" stroke="None">
<path d="
M 79.00 99.00 
C 76.19 100.15 73.49 100.13 71.00 98.00
C 74.04 101.45 75.62 101.12 79.00 99.00 Z"/>
</g>
<g fill="#0F693D" fill-opacity="1.00" stroke="None">
<path d="
M 108.00 100.00 
C 104.20 100.64 92.48 101.09 93.00 98.00
C 91.77 98.28 90.73 99.72 91.00 101.00
C 96.68 100.95 103.02 101.51 108.00 100.00 Z"/>
</g>
<g fill="#62EEB2" fill-opacity="0.42" stroke="None">
<path d="
M 199.00 113.00 
C 199.00 113.01 200.00 113.00 200.00 113.00
L 200.00 105.00
C 198.18 106.71 199.05 110.47 199.00 113.00 Z"/>
</g>
<g fill="#0A5C31" fill-opacity="1.00" stroke="None">
<path d="
M 54.00 110.00 
C 59.51 108.14 72.73 110.72 78.00 110.00 C 83.27 109.28 98.43 109.11 98.00 112.00
C 99.36 111.58 100.33 110.20 101.00 109.00
C 87.11 112.80 66.60 103.49 54.00 110.00 Z"/>
</g>
<g fill="#000000" fill-opacity="1.00" stroke="None">
<path d="
M 98.00 112.00 
C 98.43 109.11 83.27 109.28 78.00 110.00 C 72.73 110.72 59.51 108.14 54.00 110.00
C 48.07 114.49 51.83 125.11 51.00 133.00 C 50.17 140.89 51.62 150.92 51.00 159.00
C 66.47 143.57 84.19 128.67 98.00 112.00 Z"/>
</g>
<g fill="#000000" fill-opacity="0.00" stroke="None">
<path d="
M 0.00 200.00 
L 87.00 200.00
C 66.65 197.21 47.99 187.66 32.00 174.00
C 29.78 172.10 27.85 170.17 26.00 168.00
C 12.38 152.07 2.78 133.36 0.00 113.00
L 0.00 200.00 Z"/>
</g>
<g fill="#000000" fill-opacity="0.00" stroke="None">
<path d="
M 174.00 168.00 
C 172.10 170.22 170.17 172.15 168.00 174.00
C 152.07 187.62 133.36 197.22 113.00 200.00
L 200.00 200.00
L 200.00 113.00
C 200.00 113.00 199.00 113.01 199.00 113.00
C 198.59 133.66 187.14 152.63 174.00 168.00 Z"/>
</g>
<g fill="#B4FAE2" fill-opacity="0.06" stroke="None">
<path d="
M 32.00 174.00 
C 30.12 172.12 27.92 169.92 26.00 168.00
C 27.85 170.17 29.78 172.10 32.00 174.00 Z"/>
</g>
<g fill="#B6FAE2" fill-opacity="0.06" stroke="None">
<path d="
M 168.00 174.00 
C 170.17 172.15 172.10 170.22 174.00 168.00
C 172.12 169.88 169.92 172.08 168.00 174.00 Z"/>
</g>
</svg>