<svg xmlns="http://www.w3.org/2000/svg" width="200" height="200"><path fill="none" d="M0 87c2.78-20.36 12.38-39.07 26-55 1.9-2.22 3.83-4.15 6-6C47.99 12.34 66.65 2.79 87 0H0z"/><path fill="none" stroke="#0DF38D" stroke-opacity=".99" stroke-width=".3" d="m32 26-6 6C12.38 47.93 2.78 66.64 0 87v26c2.78 20.36 12.38 39.07 26 55l6 6c15.99 13.66 34.65 23.21 55 26h26c20.36-2.78 39.07-12.38 55-26l6-6c13.14-15.37 24.59-34.34 25-55 .05-2.53-.82-6.29 1-8V87c-2.78-20.37-12.37-39.05-26-55l-6-6c-15.97-13.65-34.66-23.21-55-26H87C66.65 2.79 47.99 12.34 32 26m47 73c-3.38 2.12-4.96 2.45-8-1-4.22-4.79-8.87-18.22-11.31-23.69-2.43-5.48-14.79-20.35-4.61-23.23C65.27 48.2 79.95 52.44 91 51s24.71 1.08 36 0a866 866 0 0 1-48 48m29 1c-4.98 1.51-11.32.95-17 1-.27-1.28.77-2.72 2-3 7.01-11.69 19.59-17.09 28.08-27.92S142.3 46.27 159 51c-7.5 8.81-16.22 17.16-24.75 25.25-8.53 8.08-15.66 18.52-26.25 23.75m-10 12c-13.81 16.67-31.53 31.57-47 47 .62-8.08-.83-18.11 0-26s-2.93-18.51 3-23c12.6-6.51 33.11 2.8 47-1-.67 1.2-1.64 2.58-3 3Z"/><path fill="none" d="M168 26c2.22 1.9 4.15 3.83 6 6 13.63 15.95 23.22 34.63 26 55V0h-87c20.34 2.79 39.03 12.35 55 26"/><path fill="none" stroke="#B8FAE2" stroke-opacity=".06" stroke-width=".3" d="m26 32 6-6c-2.17 1.85-4.1 3.78-6 6Zm148 0c-1.85-2.17-3.78-4.1-6-6z"/><path fill="none" stroke="#000" stroke-width=".3" d="M71 98c2.49 2.13 5.19 2.15 8 1a866 866 0 0 0 48-48c-11.29 1.08-24.95-1.44-36 0s-25.73-2.8-35.92.08c-10.18 2.88 2.18 17.75 4.61 23.23C62.13 79.78 66.78 93.21 71 98Z"/><path fill="none" stroke="#010201" stroke-width=".3" d="M93 98c-.52 3.09 11.2 2.64 15 2 10.59-5.23 17.72-15.67 26.25-23.75C142.78 68.16 151.5 59.81 159 51c-16.7-4.73-29.43 8.25-37.92 19.08S100.01 86.31 93 98Z"/><path fill="none" stroke="#0F6E40" stroke-width=".3" d="M79 99c-2.81 1.15-5.51 1.13-8-1 3.04 3.45 4.62 3.12 8 1Z"/><path fill="none" stroke="#0F693D" stroke-width=".3" d="M108 100c-3.8.64-15.52 1.09-15-2-1.23.28-2.27 1.72-2 3 5.68-.05 12.02.51 17-1Z"/><path fill="none" stroke="#62EEB2" stroke-opacity=".42" stroke-width=".3" d="M199 113c0 .01 1 0 1 0v-8c-1.82 1.71-.95 5.47-1 8Z"/><path fill="none" stroke="#0A5C31" stroke-width=".3" d="M54 110c5.51-1.86 18.73.72 24 0s20.43-.89 20 2c1.36-.42 2.33-1.8 3-3-13.89 3.8-34.4-5.51-47 1Z"/><path fill="none" stroke="#000" stroke-width=".3" d="M98 112c.43-2.89-14.73-2.72-20-2s-18.49-1.86-24 0c-5.93 4.49-2.17 15.11-3 23s.62 17.92 0 26c15.47-15.43 33.19-30.33 47-47Z"/><path fill="none" d="M0 200h87c-20.35-2.79-39.01-12.34-55-26-2.22-1.9-4.15-3.83-6-6-13.62-15.93-23.22-34.64-26-55zm174-32c-1.9 2.22-3.83 4.15-6 6-15.93 13.62-34.64 23.22-55 26h87v-87s-1 .01-1 0c-.41 20.66-11.86 39.63-25 55"/><path fill="none" stroke="#B4FAE2" stroke-opacity=".06" stroke-width=".3" d="m32 174-6-6c1.85 2.17 3.78 4.1 6 6Z"/><path fill="none" stroke="#B6FAE2" stroke-opacity=".06" stroke-width=".3" d="M168 174c2.17-1.85 4.1-3.78 6-6z"/><path fill="none" stroke="None" d="M0 87c2.78-20.36 12.38-39.07 26-55 1.9-2.22 3.83-4.15 6-6C47.99 12.34 66.65 2.79 87 0H0z"/><path fill="#0DF38D" fill-opacity=".99" stroke="None" d="m32 26-6 6C12.38 47.93 2.78 66.64 0 87v26c2.78 20.36 12.38 39.07 26 55l6 6c15.99 13.66 34.65 23.21 55 26h26c20.36-2.78 39.07-12.38 55-26l6-6c13.14-15.37 24.59-34.34 25-55 .05-2.53-.82-6.29 1-8V87c-2.78-20.37-12.37-39.05-26-55l-6-6c-15.97-13.65-34.66-23.21-55-26H87C66.65 2.79 47.99 12.34 32 26m47 73c-3.38 2.12-4.96 2.45-8-1-4.22-4.79-8.87-18.22-11.31-23.69-2.43-5.48-14.79-20.35-4.61-23.23C65.27 48.2 79.95 52.44 91 51s24.71 1.08 36 0a866 866 0 0 1-48 48m29 1c-4.98 1.51-11.32.95-17 1-.27-1.28.77-2.72 2-3 7.01-11.69 19.59-17.09 28.08-27.92S142.3 46.27 159 51c-7.5 8.81-16.22 17.16-24.75 25.25-8.53 8.08-15.66 18.52-26.25 23.75m-10 12c-13.81 16.67-31.53 31.57-47 47 .62-8.08-.83-18.11 0-26s-2.93-18.51 3-23c12.6-6.51 33.11 2.8 47-1-.67 1.2-1.64 2.58-3 3Z"/><path fill="none" stroke="None" d="M168 26c2.22 1.9 4.15 3.83 6 6 13.63 15.95 23.22 34.63 26 55V0h-87c20.34 2.79 39.03 12.35 55 26Z"/><path fill="#B8FAE2" fill-opacity=".06" stroke="None" d="m26 32 6-6c-2.17 1.85-4.1 3.78-6 6Zm148 0c-1.85-2.17-3.78-4.1-6-6z"/><path stroke="None" d="M71 98c2.49 2.13 5.19 2.15 8 1a866 866 0 0 0 48-48c-11.29 1.08-24.95-1.44-36 0s-25.73-2.8-35.92.08c-10.18 2.88 2.18 17.75 4.61 23.23C62.13 79.78 66.78 93.21 71 98Z"/><path fill="#010201" stroke="None" d="M93 98c-.52 3.09 11.2 2.64 15 2 10.59-5.23 17.72-15.67 26.25-23.75C142.78 68.16 151.5 59.81 159 51c-16.7-4.73-29.43 8.25-37.92 19.08S100.01 86.31 93 98Z"/><path fill="#0F6E40" stroke="None" d="M79 99c-2.81 1.15-5.51 1.13-8-1 3.04 3.45 4.62 3.12 8 1Z"/><path fill="#0F693D" stroke="None" d="M108 100c-3.8.64-15.52 1.09-15-2-1.23.28-2.27 1.72-2 3 5.68-.05 12.02.51 17-1Z"/><path fill="#62EEB2" fill-opacity=".42" stroke="None" d="M199 113c0 .01 1 0 1 0v-8c-1.82 1.71-.95 5.47-1 8Z"/><path fill="#0A5C31" stroke="None" d="M54 110c5.51-1.86 18.73.72 24 0s20.43-.89 20 2c1.36-.42 2.33-1.8 3-3-13.89 3.8-34.4-5.51-47 1Z"/><path stroke="None" d="M98 112c.43-2.89-14.73-2.72-20-2s-18.49-1.86-24 0c-5.93 4.49-2.17 15.11-3 23s.62 17.92 0 26c15.47-15.43 33.19-30.33 47-47Z"/><path fill="none" stroke="None" d="M0 200h87c-20.35-2.79-39.01-12.34-55-26-2.22-1.9-4.15-3.83-6-6-13.62-15.93-23.22-34.64-26-55zm174-32c-1.9 2.22-3.83 4.15-6 6-15.93 13.62-34.64 23.22-55 26h87v-87s-1 .01-1 0c-.41 20.66-11.86 39.63-25 55Z"/><path fill="#B4FAE2" fill-opacity=".06" stroke="None" d="m32 174-6-6c1.85 2.17 3.78 4.1 6 6Z"/><path fill="#B6FAE2" fill-opacity=".06" stroke="None" d="M168 174c2.17-1.85 4.1-3.78 6-6z"/></svg>