<svg xmlns="http://www.w3.org/2000/svg" width="500" height="500" viewBox="0 0 48 48"><path d="M44 24c0 8.96-5.88 16.54-14 19.08V38c0-1.71-.72-3.24-1.86-4.34 5.24-.95 7.86-4 7.86-9.66 0-2.45-.5-4.39-1.48-5.9.44-1.71.7-4.14-.52-6.1-2.36 0-4.01 1.39-4.98 2.53C27.57 14.18 25.9 14 24 14c-1.8 0-3.46.2-4.94.61C18.1 13.46 16.42 12 14 12c-1.42 2.28-.84 4.74-.3 6.12C12.62 19.63 12 21.57 12 24c0 5.66 2.62 8.71 7.86 9.66-.67.65-1.19 1.44-1.51 2.34H16c-1.44 0-2-.64-2.77-1.68s-1.6-1.74-2.59-2.03c-.53-.06-.89.37-.42.75 1.57 1.13 1.68 2.98 2.31 4.19.57 1.09 1.75 1.77 3.08 1.77H18v4.08C9.88 40.54 4 32.96 4 24 4 12.95 12.95 4 24 4s20 8.95 20 20"/></svg>