<svg xmlns="http://www.w3.org/2000/svg" width="50" height="50" fill="none"><g clip-path="url(#a)"><path fill="url(#b)" d="M50 25C50 11.193 38.807 0 25 0S0 11.193 0 25s11.193 25 25 25 25-11.193 25-25"/><path fill="url(#c)" fill-rule="evenodd" d="M22.464 4.924h4.675v3.943c4.564 1.076 7.96 5.163 7.96 10.04 0 5.7-4.635 10.32-10.353 10.32-5.717 0-10.352-4.62-10.352-10.32 0-4.916 3.45-9.03 8.07-10.066zm8.158 13.984c0 3.234-2.63 5.856-5.876 5.856-3.245 0-5.875-2.622-5.875-5.856s2.63-5.857 5.875-5.857 5.876 2.623 5.876 5.857m-1.36 16.76a6.24 6.24 0 0 1-4.402 1.816 6.24 6.24 0 0 1-4.402-1.817 6.2 6.2 0 0 1-1.823-4.387h-4.15c0 2.742 1.093 5.373 3.038 7.312a10.4 10.4 0 0 0 4.941 2.75v3.97h4.675v-3.944a10.4 10.4 0 0 0 5.057-2.776 10.32 10.32 0 0 0 3.038-7.312h-4.15a6.2 6.2 0 0 1-1.823 4.387" clip-rule="evenodd"/></g><defs><linearGradient id="b" x1="27.841" x2="27.841" y1="0" y2="50" gradientUnits="userSpaceOnUse"><stop stop-color="#fff"/><stop offset="1" stop-color="#E1D1DD"/></linearGradient><linearGradient id="c" x1="24.814" x2="24.814" y1="4.924" y2="45.312" gradientUnits="userSpaceOnUse"><stop stop-color="#0E112C"/><stop offset="1" stop-color="#461847"/></linearGradient><clipPath id="a"><path fill="#fff" d="M0 0h50v50H0z"/></clipPath></defs></svg>