<svg xmlns="http://www.w3.org/2000/svg" width="50" height="50" fill="none"><g clip-path="url(#a)"><path fill="#fff" d="M25 50c13.807 0 25-11.193 25-25S38.807 0 25 0 0 11.193 0 25s11.193 25 25 25"/><path fill="#E11F53" d="m19.98 18.316.035.096a2.302 2.302 0 0 0 4.283.18l4.19-9.456a2.304 2.304 0 0 0-4.21-1.878l-4.22 9.365a2.3 2.3 0 0 0-.078 1.693m7.036-2.05c.24-.544.697-.963 1.26-1.156l5.227-1.792a2.13 2.13 0 0 1 2.203.51l.07.07a2.134 2.134 0 0 1-.851 3.54l-5.294 1.726a2.137 2.137 0 0 1-2.615-2.898"/><path fill="#4C8BF5" d="m31.576 19.92-.096.032a2.304 2.304 0 0 0-.18 4.283l9.456 4.19a2.302 2.302 0 0 0 1.88-4.205L33.271 20a2.3 2.3 0 0 0-1.695-.079m2.107 7.102c.543.241.963.697 1.158 1.26l1.791 5.22a2.14 2.14 0 0 1-.51 2.203l-.069.069a2.137 2.137 0 0 1-3.536-.843l-1.725-5.294a2.137 2.137 0 0 1 2.89-2.615"/><path fill="#43C6AC" d="m29.927 31.578-.032-.094a2.304 2.304 0 0 0-4.279-.182l-4.19 9.456a2.304 2.304 0 0 0 2.52 3.2 2.3 2.3 0 0 0 1.685-1.32l4.222-9.365a2.3 2.3 0 0 0 .074-1.695m-7.103 2.102c-.24.545-.698.964-1.262 1.156l-5.225 1.792a2.14 2.14 0 0 1-2.218-.51l-.066-.07a2.134 2.134 0 0 1 .86-3.53l5.293-1.726a2.14 2.14 0 0 1 2.618 2.888"/><path fill="#F8B233" d="m18.316 29.99.097-.031a2.302 2.302 0 0 0 .18-4.284l-9.457-4.19a2.304 2.304 0 0 0-1.878 4.21l9.365 4.22a2.3 2.3 0 0 0 1.693.076m-2.149-7.029a2.14 2.14 0 0 1-1.148-1.26l-1.8-5.224a2.14 2.14 0 0 1 .511-2.218l.069-.07a2.14 2.14 0 0 1 3.544.85l1.725 5.295a2.137 2.137 0 0 1-2.9 2.627"/></g><defs><clipPath id="a"><path fill="#fff" d="M0 0h50v50H0z"/></clipPath></defs></svg>