<svg xmlns="http://www.w3.org/2000/svg" width="50" height="50" fill="none"><path fill="#5E12A0" d="M47.784 8.838c-.509-1.96-2.145-3.92-5.09-6.102C40.331.998 37.822 0 35.823 0c-.4 0-.764.037-1.127.11-.91.186-1.71.851-2.218 1.85-.618 1.183-.763 2.773-.363 3.735.145.296.327.665.545.998-1.927 1.184-3.018 1.516-3.163 1.553 5.017 1.701 9.198 5.251 11.816 9.874l.036-.444c.11-1.22.473-2.626.982-4.068a5.4 5.4 0 0 0 1.527.222c1.345 0 2.508-.555 3.235-1.553.728-.998 1.018-2.33.691-3.439"/><path fill="url(#a)" d="M42.55 12.537c3.308.924 4.653-1.664 4.216-3.402-.472-1.738-2-3.513-4.69-5.51s-5.416-2.81-7.162-2.44-2.254 3.069-1.818 4.104c.182.407.582.998 1.128 1.664-.691.48-1.346.85-1.891 1.183a21.56 21.56 0 0 1 8.435 6.842c.254-.999.618-1.886.945-2.663.254.037.545.111.836.222"/><path fill="url(#b)" d="M23.606 48.778c11.224 0 20.323-9.255 20.323-20.671 0-11.417-9.099-20.671-20.323-20.671S3.283 16.69 3.283 28.106s9.099 20.672 20.323 20.672"/><path fill="#A98698" d="M45.094 7.433c-2.763-2.959-5.09-3.735-7.89-4.364-2.18-.518-1.599-1.775 1.055-1.516-1.272-.444-2.472-.555-3.345-.37-1.745.37-2.254 3.07-1.817 4.105.181.407.581.998 1.127 1.664a28 28 0 0 1-2.51 1.516c.328.148.728.333 1.2.592 1.237.665 2.582 1.775 2.582 1.775-2.036-1.775-1.6-2.589 1.2-4.586.873-.628 2.472-.554 3.963.222 1.49.777 3.235 2.737 3.235 2.737l-1.672 3.254.327.11c1.055.297 1.89.223 2.545-.036.764-.481 2.763-2.108 0-5.103" opacity=".6"/><path fill="#5E12A0" d="M37.168 4.846c.728.296 1.673.814 2.836 1.59 1.382.925 2.582 1.96 3.345 2.774-1.272 1.7-2.109 4.03-2.617 5.658.254.37.545.74.8 1.109a30 30 0 0 1 1.272-3.66c.145.036.327.036.509.036.436 0 .945-.074 1.345-.407.29-.222.618-.628.581-1.368 0-.703-.545-1.59-1.672-2.662-.8-.777-1.89-1.628-2.98-2.404-3.128-2.108-5.31-2.7-6.29-1.701-.655.666-.582 1.479-.364 2.07a42 42 0 0 1-2.8 1.702c.437.148.837.333 1.273.517 1.163-.628 2.836-1.7 4.762-3.254m6.872 5.288c.109.185.145.37.145.481 0 .333-.109.444-.182.518-.145.11-.436.185-.69.185.218-.444.472-.814.727-1.184m-8.98-5.51c.109-.11.4-.184.872-.11-.363.295-.727.554-1.09.813-.037-.259 0-.518.218-.703"/><path fill="#5E12A0" d="M23.606 6.217c-11.889 0-21.523 9.8-21.523 21.892S11.718 50 23.606 50s21.523-9.8 21.523-21.891c0-12.093-9.67-21.892-21.523-21.892m0 42.563c-11.234 0-20.323-9.245-20.323-20.671S12.372 7.436 23.606 7.436s20.323 9.245 20.323 20.672c0 11.426-9.125 20.67-20.323 20.67"/><path fill="url(#c)" d="M23.606 48.778c11.224 0 20.323-9.255 20.323-20.671 0-11.417-9.099-20.671-20.323-20.671S3.283 16.69 3.283 28.106s9.099 20.672 20.323 20.672" opacity=".6"/><path fill="#A98698" d="M23.463 46.266C12.374 44.454 4.848 33.84 6.666 22.562c.8-4.992 3.272-9.245 6.762-12.314-5.09 2.995-8.87 8.21-9.889 14.57C1.758 36.096 9.284 46.709 20.336 48.52c6.18 1.036 12.143-.924 16.542-4.77a20.1 20.1 0 0 1-13.415 2.515" opacity=".6"/><path fill="url(#d)" d="M26.841 7.73c-5.126-.85-10.107.334-14.179 2.96l-.145.147c1.563-.961 3.854-1.812 3.854-1.812-5.89 3.476-7.708 7.433-7.708 7.433 2.29-4.511 9.017-7.692 14.288-7.914s8.726 1.369 12.943 4.808c4.217 3.476 6.762 10.576 6.508 16.197-.218 5.62-3.127 10.169-3.127 10.169 2-2.626 3.2-4.549 3.963-6.509.145-.591.291-1.183.364-1.812 1.818-11.24-5.672-21.853-16.76-23.665" opacity=".6"/><path fill="url(#e)" d="M42.911 27.922c0 10.835-8.653 19.636-19.305 19.636-10.653 0-19.342-8.801-19.342-19.636z"/><path fill="url(#f)" d="M41.384 27.922c0 10.576-8.217 19.23-18.542 19.636h.763c10.653 0 19.306-8.801 19.306-19.636z" opacity=".6"/><path fill="url(#g)" d="M6.99 27.922H4.265c0 10.835 8.653 19.636 19.305 19.636.473 0 .91 0 1.346-.037-9.998-.74-17.924-9.245-17.924-19.599" opacity=".7"/><path fill="url(#h)" d="M42.875 28.106c0-2.256-3.854-3.55-8.98-3.994-3.709-.296-7.453.074-11.744 1.405-3.708 1.11-7.053.924-9.488.628-5.418-.628-8.399-.702-8.399 1.96 0 3.846 7.708 8.653 19.27 6.99 5.853-.851 8.87-2.589 12.324-3.772 3.745-1.258 7.017-1.22 7.017-3.218"/><path fill="#fff" d="M29.932 18.788c1.807 0 3.272-1.49 3.272-3.328s-1.465-3.328-3.272-3.328-3.272 1.49-3.272 3.328 1.465 3.328 3.272 3.328m5.345 2.478c.763 0 1.381-.63 1.381-1.406s-.618-1.405-1.381-1.405-1.382.63-1.382 1.405c0 .776.619 1.406 1.382 1.406"/><path fill="url(#i)" d="M40.221 12.8h-.073c-.218-.036-.363-.258-.327-.517.327-1.701 1.709-3.328 1.782-3.402a.403.403 0 0 1 .581-.037.42.42 0 0 1 .037.592c-.037.037-1.31 1.553-1.6 3.032a.39.39 0 0 1-.4.333" opacity=".6"/><path fill="#fff" d="M22.265 43.525c.562 0 1.018-.464 1.018-1.036s-.456-1.035-1.018-1.035-1.018.463-1.018 1.035.456 1.036 1.018 1.036" opacity=".2"/><g opacity=".4"><path fill="url(#j)" d="M21.678 43.164c-.4-.407-.4-1.072 0-1.479.073-.074.146-.111.218-.185a.75.75 0 0 0-.363.222c-.4.407-.4 1.072 0 1.48.327.332.836.406 1.236.184-.364.148-.8.074-1.09-.222" opacity=".6"/></g><path fill="#fff" d="M22.623 42.195c.12 0 .218-.1.218-.222a.22.22 0 0 0-.218-.222.22.22 0 0 0-.218.222.22.22 0 0 0 .218.222" opacity=".3"/><path fill="#fff" d="M27.576 43.009c.562 0 1.018-.464 1.018-1.036s-.456-1.035-1.018-1.035-1.018.463-1.018 1.035.455 1.036 1.018 1.036" opacity=".2"/><g opacity=".4"><path fill="url(#k)" d="M26.989 42.648c-.4-.407-.4-1.073 0-1.48.072-.073.145-.11.218-.184a.75.75 0 0 0-.364.222c-.4.406-.4 1.072 0 1.479.328.333.837.407 1.236.185-.363.148-.8.074-1.09-.222" opacity=".6"/></g><path fill="#fff" d="M27.934 41.679c.12 0 .218-.1.218-.223a.22.22 0 0 0-.218-.221.22.22 0 0 0-.219.221.22.22 0 0 0 .219.222" opacity=".3"/><path fill="#fff" d="M24.95 45.416a.77.77 0 0 0 .763-.777.77.77 0 0 0-.764-.777.77.77 0 0 0-.763.777.77.77 0 0 0 .764.777" opacity=".2"/><g opacity=".4"><path fill="url(#l)" d="M24.513 45.124a.815.815 0 0 1 0-1.11c.037-.036.11-.073.146-.11a.66.66 0 0 0-.255.185.814.814 0 0 0 0 1.11c.255.258.618.295.945.11a.78.78 0 0 1-.836-.185" opacity=".6"/></g><path fill="#fff" d="M25.206 44.377c.08 0 .145-.066.145-.148a.147.147 0 0 0-.145-.148.147.147 0 0 0-.146.148c0 .082.065.148.146.148" opacity=".3"/><path fill="#fff" d="M29.641 44.857a.77.77 0 0 0 .764-.776.77.77 0 0 0-.764-.777.77.77 0 0 0-.763.777.77.77 0 0 0 .763.776" opacity=".2"/><g opacity=".4"><path fill="url(#m)" d="M29.205 44.566a.815.815 0 0 1 0-1.11c.036-.036.11-.073.146-.11a.65.65 0 0 0-.255.185.814.814 0 0 0 0 1.11c.255.258.618.295.945.11a.78.78 0 0 1-.836-.185" opacity=".6"/></g><path fill="#fff" d="M29.898 43.823c.08 0 .145-.066.145-.148a.147.147 0 0 0-.145-.148.147.147 0 0 0-.146.148c0 .082.066.148.146.148" opacity=".3"/><path fill="#fff" d="M17.934 43.159c.924 0 1.672-.762 1.672-1.701s-.748-1.702-1.672-1.702-1.672.762-1.672 1.702c0 .939.749 1.7 1.672 1.7" opacity=".2"/><g opacity=".4"><path fill="url(#n)" d="M16.99 42.526a1.717 1.717 0 0 1 0-2.404 1.3 1.3 0 0 1 .363-.259c-.218.074-.4.222-.582.37a1.717 1.717 0 0 0 0 2.404 1.63 1.63 0 0 0 2.036.258c-.618.26-1.345.148-1.818-.369" opacity=".6"/></g><path fill="#fff" d="M18.518 40.937c.2 0 .363-.165.363-.37a.367.367 0 0 0-.363-.37.367.367 0 0 0-.364.37c0 .205.163.37.364.37" opacity=".3"/><path fill="#fff" d="M32.885 38.978c.923 0 1.672-.761 1.672-1.7 0-.94-.749-1.702-1.672-1.702-.924 0-1.673.762-1.673 1.701s.75 1.701 1.673 1.701" opacity=".2"/><g opacity=".4"><path fill="url(#o)" d="M31.893 38.35a1.716 1.716 0 0 1 0-2.404c.11-.11.219-.184.364-.258-.218.073-.4.221-.582.37a1.716 1.716 0 0 0 0 2.403 1.63 1.63 0 0 0 2.036.259 1.61 1.61 0 0 1-1.818-.37" opacity=".6"/></g><path fill="#fff" d="M33.46 36.762a.367.367 0 0 0 .363-.37.366.366 0 0 0-.364-.37c-.2 0-.363.166-.363.37s.163.37.363.37" opacity=".3"/><defs><linearGradient id="c" x1="20.346" x2="27.065" y1="48.485" y2="7.731" gradientUnits="userSpaceOnUse"><stop stop-color="#81FFFF"/><stop offset=".62" stop-color="#fff" stop-opacity="0"/></linearGradient><linearGradient id="d" x1="37.928" x2="20.862" y1="14.068" y2="29.463" gradientUnits="userSpaceOnUse"><stop offset=".289" stop-color="#fff"/><stop offset=".78" stop-color="#fff" stop-opacity="0"/></linearGradient><linearGradient id="e" x1="4.281" x2="42.902" y1="37.728" y2="37.728" gradientUnits="userSpaceOnUse"><stop stop-color="#0002E9"/><stop offset=".995" stop-color="#FF00C7"/></linearGradient><linearGradient id="f" x1="44.73" x2="23.372" y1="29.645" y2="49.49" gradientUnits="userSpaceOnUse"><stop offset=".289" stop-color="#fff"/><stop offset=".78" stop-color="#fff" stop-opacity="0"/></linearGradient><linearGradient id="g" x1="4.281" x2="24.943" y1="37.728" y2="37.728" gradientUnits="userSpaceOnUse"><stop stop-color="#000292"/><stop offset=".995" stop-color="#7D00C7"/></linearGradient><linearGradient id="h" x1="4.306" x2="42.876" y1="29.737" y2="29.737" gradientUnits="userSpaceOnUse"><stop stop-color="#000292"/><stop offset=".995" stop-color="#BE00C7"/></linearGradient><linearGradient id="i" x1="42.243" x2="39.402" y1="8.701" y2="13.239" gradientUnits="userSpaceOnUse"><stop offset=".289" stop-color="#fff"/><stop offset=".78" stop-color="#fff" stop-opacity="0"/></linearGradient><linearGradient id="j" x1="21.232" x2="22.77" y1="42.53" y2="42.53" gradientUnits="userSpaceOnUse"><stop offset=".289" stop-color="#fff"/><stop offset=".78" stop-color="#fff" stop-opacity="0"/></linearGradient><linearGradient id="k" x1="26.539" x2="28.077" y1="42.007" y2="42.007" gradientUnits="userSpaceOnUse"><stop offset=".289" stop-color="#fff"/><stop offset=".78" stop-color="#fff" stop-opacity="0"/></linearGradient><linearGradient id="l" x1="24.166" x2="25.32" y1="44.651" y2="44.651" gradientUnits="userSpaceOnUse"><stop offset=".289" stop-color="#fff"/><stop offset=".78" stop-color="#fff" stop-opacity="0"/></linearGradient><linearGradient id="m" x1="28.857" x2="30.012" y1="44.093" y2="44.093" gradientUnits="userSpaceOnUse"><stop offset=".289" stop-color="#fff"/><stop offset=".78" stop-color="#fff" stop-opacity="0"/></linearGradient><linearGradient id="n" x1="16.264" x2="18.776" y1="41.497" y2="41.497" gradientUnits="userSpaceOnUse"><stop offset=".289" stop-color="#fff"/><stop offset=".78" stop-color="#fff" stop-opacity="0"/></linearGradient><linearGradient id="o" x1="31.182" x2="33.694" y1="37.32" y2="37.32" gradientUnits="userSpaceOnUse"><stop offset=".289" stop-color="#fff"/><stop offset=".78" stop-color="#fff" stop-opacity="0"/></linearGradient><radialGradient id="a" cx="0" cy="0" r="1" gradientTransform="matrix(16.2493 0 0 16.5275 46.103 6.805)" gradientUnits="userSpaceOnUse"><stop stop-color="#FFEAFF" stop-opacity=".6"/><stop offset=".681" stop-color="#A087C9"/><stop offset="1" stop-color="#10002F"/></radialGradient><radialGradient id="b" cx="0" cy="0" r="1" gradientTransform="matrix(45.5082 0 0 49.229 41.849 24.436)" gradientUnits="userSpaceOnUse"><stop stop-color="#FFEAFF" stop-opacity=".6"/><stop offset=".681" stop-color="#A087C9"/><stop offset="1" stop-color="#10002F"/></radialGradient></defs></svg>