<?xml version="1.0" standalone="no"?>
<!DOCTYPE svg PUBLIC "-//W3C//DTD SVG 20010904//EN"
 "http://www.w3.org/TR/2001/REC-SVG-20010904/DTD/svg10.dtd">
<svg version="1.0" xmlns="http://www.w3.org/2000/svg"
 width="800.000000pt" height="800.000000pt" viewBox="0 0 800.000000 800.000000"
 preserveAspectRatio="xMidYMid meet">

<g transform="translate(0.000000,800.000000) scale(0.100000,-0.100000)"
fill="#000000" stroke="none">
<path d="M3790 7989 c-1037 -53 -2015 -511 -2719 -1272 -732 -791 -1116 -1843
-1061 -2904 61 -1167 593 -2211 1495 -2932 762 -610 1714 -918 2682 -870 1059
52 2017 496 2737 1268 733 786 1118 1837 1065 2908 -57 1161 -592 2211 -1494
2932 -767 614 -1723 921 -2705 870z m2208 -3579 c-3 -1592 -4 -1701 -21 -1790
-112 -583 -552 -1026 -1149 -1157 -118 -25 -437 -26 -558 0 -199 42 -430 142
-575 249 -38 28 -120 101 -180 162 -172 173 -275 342 -354 583 l-38 114 -28
-33 c-25 -30 -86 -97 -243 -271 -30 -32 -61 -67 -70 -76 -28 -29 -102 -110
-207 -226 -55 -60 -104 -115 -110 -121 -5 -6 -30 -33 -55 -60 -25 -27 -88 -96
-140 -154 -52 -58 -123 -134 -156 -170 -34 -36 -73 -78 -88 -95 l-26 -30 3
1975 c3 1970 3 1975 24 2070 65 289 188 521 383 720 208 213 460 351 762 417
118 25 437 26 558 0 195 -41 406 -132 565 -242 39 -27 122 -101 186 -164 174
-175 279 -346 357 -584 l37 -113 105 113 c58 63 114 124 125 137 11 13 57 64
102 112 116 127 119 131 213 234 47 52 112 123 145 159 108 117 188 205 310
339 l120 132 3 -267 c1 -148 1 -1031 0 -1963z"/>
<path d="M3285 5895 c-308 -68 -550 -297 -633 -600 -14 -54 -16 -179 -19
-1200 -2 -627 0 -1135 4 -1129 7 11 88 99 253 279 36 39 106 115 155 170 50
55 115 127 145 159 30 33 62 67 70 76 18 19 170 188 185 205 6 6 37 40 70 75
33 36 98 108 145 160 87 96 159 175 265 290 124 133 168 185 215 255 118 175
162 378 126 585 -60 341 -314 606 -648 674 -92 19 -250 20 -333 1z"/>
<path d="M5301 4944 c-35 -38 -83 -89 -105 -114 -23 -25 -63 -70 -91 -100 -27
-30 -93 -102 -145 -159 -52 -58 -122 -134 -156 -170 -33 -36 -98 -108 -144
-160 -46 -52 -93 -104 -105 -115 -11 -12 -65 -71 -120 -131 -55 -60 -122 -134
-150 -164 -65 -71 -73 -79 -120 -132 -22 -24 -83 -91 -135 -149 -201 -222
-259 -321 -294 -509 -20 -104 -20 -175 -1 -286 70 -398 410 -685 813 -685 221
0 426 85 584 242 76 76 113 128 161 228 74 156 70 93 74 1190 2 542 2 1052 1
1134 l-3 148 -64 -68z"/>
</g>
</svg>
