<svg xmlns="http://www.w3.org/2000/svg" width="250" height="250"><path fill="#6E84F1" stroke="#6E84F1" d="M191.5 36q2.75-.25 2.5.5v127h-1v-126l-1.5-.5-25 27-.5-.5 8-8zm-91 2h12l4.5 1.5-3.5.5-1-1h-11q-1 2-5 1v-1q3.25.75 4-1Zm-8 2 2.5.5-2.5.5zm27 0 1.5.5-1.5.5zm-30 1 1.5.5-7.5 3.5q-1.5-1 1-2zm33 0 1.5.5-1.5.5zm3 1 6.5 3.5-1.5-.5-5-2zm-44 3q1.5 1-1 2l-4 2-8.5 8.5-2.5 3.5-.5-.5 2-2L76.5 48zm52 1 5.5 4.5-.5.5-3-3q-3.81-.69-2-2Zm7 5 3.5 3.5-.5.5-3.5-3.5zm4 5q5.99 5.01 8.5 13.5h-1l-3-7-5-6zm-43 4h10q.75 1.75 4 1 8.39 3.11 13.5 9.5l2 3-.5.5-2.5-2.5-3.5-4.5-9-5q-3.25.75-4-1h-9l-8 3q-1.5-1 1-2zm-37 2-.5 1.5-2.5 5.5-.5-1.5zm28 2v1zm-2 1 .5.5-7 7-3.5 8.5-.5-2.5q3.25-8.75 10.5-13.5Zm75 0 .5.5L155.5 76q-2.25.75-1.5-1.5l1.5.5zm-105 5v1zm93 1 .5 1.5h-1zm-94 1 .5 2.5-2 6v132l.5.5 10-10 .5.5L58.5 214H57V79.5zm72 3 2.5 4.5q-1 4 1 5v7q-2 1-1 5l-2.5 4.5-.5-1.5 2-3q-1-4 1-5v-7q-2-1-1-5l-2-3zm-52 7 .5 3.5h-1zm91 9 1.5.5v72h-1l-.5-71.5-11 12-.5-.5 7-7zm-40 11 .5.5-2 2-18.5 20.5-.5-.5 6-6zm27 4 .5.5-10 10-27 30-4 9v13q3.25 10.25 11 16l-.5.5-7.5-7.5-4-9v-13l4-9 5-6zm-49 20 1.5.5L79.5 159l-.5-.5 8-8zm84 41 .5 5.5-2.5 6.5-.5-1.5 2-5zm-22 1 .5 1.5h-1zm-1 3 .5 1.5-4.5 6.5-.5-.5 2-2zm-74 2 .5 2h-1.5l-5 5-.5-.5zm1 3 5.5 11.5q-1 1.5-2-1l-4-9zm68 4 .5.5-3.5 3.5-9 5q-3.25-.75-4 1h-10l-6-2-3.5-2.5 1.5.5 9 3h8q1-2 5-1l6-3zm25 0 .5 1.5-7 12-6.5 6.5-6 4q-1.5-1 1-2l8.5-6.5q6.13-6.37 9.5-15.5Zm-101 1 .5.5-6 6L69.5 202l-.5-.5 10-10zm14 8 10 11 6.5 4.5-1.5-.5-4-2-9.5-9.5-2-3zm66 15q1.5 1-1 2l-5 2v-1zm-48 1 7.5 3.5-1.5.5-5-2q-2.5-1-1-2Zm39 3 1.5.5-1.5.5zm-29 1 1.5.5-1.5.5zm26 0 1.5.5-1.5.5zm-23 1q4-1 5 1h11q.75-1.75 4-1v1l-3 1h-13q-.75-1.75-4-1z" opacity=".996"/><path fill="#4B66EE" stroke="#4B66EE" d="M116 0h6v2q-4.87-1-7.5 1L110 1.5l4.5-.5 1.5.5zm12 0q5.05-1.25 6.5 2 1-2 5-1v1l-5 1-1-1H128zm-23.5 2q1 2 2 0l1.5.5-4 1.5zm37 0 5.5.5-5.5.5zm-43 1 2.5.5L97.5 5q-1.5-1 1-2Zm50 0 2.5.5-2.5.5zm-55 1 2.5.5L94.5 6l-7 1V6zm59 0v1zm2 0 6 1 3.5 2.5-1.5.5q-1.25-3.25-7-2-2.5-1-1-2Zm-70 3 1.5.5-1.5.5zm81 0 4.5 2.5-1.5-.5q-3.75.5-3-2Zm-84 1q1.5 1-1 2-1.5-1 1-2Zm-3 1v1zm-3 1 1.5.5L62.5 18v-1l11-5zm97 0 3.5 1.5-1.5.5-2.5-1.5zm5 2v1zm2 1q2.5 1 1 2-2.5-1-1-2Zm3 1 .5 1.5h-1zm2 2 1.5.5-1.5.5zm3 1v1zm-127 1 .5 1.5q-.5 2-3.5 1.5v-1zm130 1 2.5 1.5-1.5.5q-2.5-1-1-2Zm-136 3 2.5.5-2.5.5-4 3q-1.5-1 1-2zm140 0 1.5.5-1.5.5zm4 2 4.5 4.5-.5.5-4.5-3.5zm-150 3q1.5 1-1 2l-1.5-.5zm156 2 6.5 5.5-1.5.5-4-4H204zm-162 3q1.5 1-1 2-1.5-1 1-2Zm150 1q3-.5 3.5 1.5v132l-2 2-1 11-2 3v2l-3 3-1 4-12.5 12.5-4 3h-2l-9 5q-4-1-5 1h-21l-1-1-7-1-2-2-8-3-7.5-6.5-1.5-2.5-3.5-2.5-2-3v-2h1l2 4 9.5 9.5 2.5.5-.5 1.5 10.5 3.5-.5 1.5 8 1 1 1h18l1-1h5l4.5-1.5-.5-1.5h2l3-2 4.5-1q-1.12-2.67 1.5-2 1-2.5 3.5-2-.5-2.87 2.5-4l2.5-1.5 2.5-3.5q2.63.83 1.5-2.5l2.5-5.5 1.5.5-1-2 2-.5q-.75-2.58 1-3.5v-4l1-1 .5-7.5 1.5.5v-132q.25-.75-2.5-.5l-2.5 1.5.5 1.5-3.5 2.5-1.5 2.5q-2.25-.75-1.5 1.5l-8.5 9.5-2.5 1.5-7.5 9.5q-2.25-.75-1.5 1.5l-3.5 3.5H159l-1 4-2.5 1-1-5-1.5.5-2-7.5-2-.5 1-2h-2l-2-3V54l-4-1-1-4q-3.83.75-5-2.5.83-2.62-2.5-1.5l-8.5-3.5.5-1.5-9-1-1-1h-17l-1 1h-5q-1.13 2-4.5 1 1.25 3-2.5 2l-5 3H78l-1.5 3-3.5 1q.5 2.88-2.5 4-2.25-.75-1.5 1.5-5.1 4.4-7.5 11.5l-.5-2.5 5-8 8.5-8.5q3.33 1.13 2.5-1.5l7.5-4.5h2l2-2q3.25.75 4-1 4 1 5-1h19l1 1 8 1 3 3 7 2 1.5 1.5 1.5 2.5q4-.5 4.5 2.5-.75 2.25 1.5 1.5l4 6 2.5 1.5 2 7q3.25 1.25 3.5 5.5l4-5q2.25.75 1.5-1.5L179.5 46q2.25.75 1.5-1.5l3.5-3.5h1.5v-1.5l4.5-5.5zM166 62v1zM90 182v1zm-20 22v1zm-5 5v1zM39.5 34v1zm-2 2 1.5.5-2 .5-.5 2-.5-1.5zm174 0 2.5 1.5-.5 1.5-.5-2-2-.5zm-177 3v1zm181 0L226 51.5l-1.5.5-3.5-4.5V46q-2.67 1.12-2-1.5-3.62-2.12-3.5-5.5Zm-182 2q1.5 1-1 2-1.5-1 1-2Zm-4 5 .5.5-3.5 3.5-.5-.5zM24 51q3-1 2 2-3 1-2-2Zm202.5 2 1.5 2.5h-1zm-204 3v1zm207 1 1.5 2.5q-1 1.5-2-1zm-209 1 1.5.5-1.5.5z" opacity=".996"/><path fill="#4B66EE" stroke="#4B66EE" d="M106.5 61q2.5 2 8 1l2.5 1q-1.25 3 2.5 2l4.5 2q-1.67 4.13 2.5 3l4 8 1.5-.5q-.75 3.25 1 4v14l-1.5 3.5-1.5-.5-2 6-7.5 8.5-2.5 1.5-2.5 3.5q-2.25-.75-1.5 1.5l-8.5 9.5q-2.25-.75-1.5 1.5l-3.5 3.5H99l-2.5 5-1.5-.5v2l-12 12-2.5 4.5-.5-68.5 1-1v-7l2.5-6.5 1.5.5 3.5-6.5 4.5-2 .5-2 2.5 1q-1.25-3 2.5-2l1-1h6zm-5.5 2-5 3h-2l-4 3-7 9q1 3-1 4v6l-1 1 1 64 1-2 4-3 1-2 4-3 2-4 3-2v-1l4-4q2 1 1-1l4-4h1l1-3 13-14 4-4h1l3-7 3-4V83l-4-7v-2l-2-2-3-3-9-6zm24 81v1zM17.5 62v1zm215 0v1zm-216 2q2.5 1 1 2-2.5-1-1-2Zm217 0 3.5 6.5q-1 1.5-2-1l-2-4zm-218 2 .5 2-2-.5z" opacity=".996"/><path fill="#4B66EE" stroke="#4B66EE" d="m59.5 66 .5 2.5-1 1-1 8-1 1V216l4-1 3.5-7 3.5-2.5 1.5-2.5q2.25.75 1.5-1.5l3.5-3.5H76q.25-4 3.5-6l2.5-1.5 7.5-9.5q2.25.75 1.5-1.5l3.5-3.5.5.5-.5 2.5-1.5-.5-2 4L75.5 199q-2.25-.75-1.5 1.5l-4.5 5.5-3.5 2.5-6.5 8.5q-3 .5-3.5-1.5v-138l1-1v-4zm-45 3q1.5 1-1 2-1.5-1 1-2Zm-2 3v1zm225 0v1zm-226 2 .5 1.5-1.5 2.5-.5-1.5zm227 0 .5 1.5h-1zm2 4 1.5 3.5-2 .5zm-231 2L9 81.5 8.5 83 8 81.5zm-2 4 .5 1.5H7zm235 0 .5 1.5h-1zm-236 3 .5 2.5H6zm237 0 2.5 6.5q-1 1.5-2-1l-1-3zm-238 4 .5 1.5H5zM4 94l2 .5L4.5 98zm165.5 1 .5 71.5-1 1-1 7-1.5 1.5-.5-1.5 3-8v-69q-1-1.5-2 1l-2.5 3.5-2.5 1.5q.5 4-2.5 4.5-2.25-.75-1.5 1.5l-3.5 3.5H153v1.5l-3.5 3.5q-2.62-.83-1.5 2.5L130.5 139q-2.25-.75-1.5 1.5l-7 8v2l-3 4-1 3v9q2 1 1 5h-1q.75-3.25-1-4v-11q1.75-.92 1-3.5 2.67 1.12 2-1.5 1.75-.75 1-4l3.5-4.5 2.5-1.5 7.5-9.5 2.5-1.5 2.5-3.5q2.25.75 1.5-1.5l3.5-3.5h1.5q.25-4 3.5-6 2.25.75 1.5-1.5l3.5-3.5h1.5l2-5q4.13 1.67 3-2.5zm76 1 1.5 3.5q-1 1.5-2-1zm1 5v1zm-244 2 .5 4.5H2zm245 1 .5 2.5h-1zm-246 6 .5 5.5H1zm247 0 .5 5.5 1 2.5-2-.5zM0 117h2v5H0zm248.5 4 1.5.5-1.5.5zM0 128q3.67-1.35 2 4.5-2 1 0 2-1.25 4.75 1 6-1 1.5-2-1zm248.5 0 1.5.5-1.5.5zm1 3v1zm-1 2v1zm0 2 .5 4.5q-1 2.5-2 1l1-1zm-246 8 .5 2.5H2zm245 0 .5 3.5h-1zm-1 6 .5 2.5-1.5 2.5-.5-2.5zm-243 1 2.5 5.5-2 .5zm242 6-.5 1.5-2.5 8.5-.5-2.5 2-6zm-240 1q2.06 1.44 1.5 5.5H6q-1.85-2.02-.5-5.5Zm2 7 .5 1.5H7zm234 3 .5 1.5q-1.75.92-1 3.5l-2 .5q2 1 0 2l-1.5 3.5-.5-3.5zm-233 1q2.25-.75 1.5 1.5l-.5.5q-2.5-1-1-2Zm1 3v1z" opacity=".996"/><path fill="#4B66EE" stroke="#4B66EE" d="m120.5 171 2.5 4.5v2.5q2.88-.5 4 2.5l1.5 2.5 4.5 1.5-1.5.5-3-1-6.5-6.5-2-4zm-110 2 7.5 12.5v2h-1l-5-11-2-2zm154 3q2.5 1 1 2-2.25-.75-1.5 1.5-3.22 4.97-10 5.5 1.13 2.67-1.5 2l-1 1h-15l-3.5-1.5 3.5-.5 1 1h12l5-3 4-1 5.5-5.5zm-68 2 2.5 9 2 .5q-1 2.5-2 1l-2-3q.75-3.25-1-4zm140 1v1zm-1 2 .5 1.5h-1zm-2 3 .5 1.5-2.5 3.5-.5-1.5zm-215 5 2.5 1.5 2 5h-1l-4-6zm212 1-.5 1.5-.5 1.5-.5-1.5zm-3 5 .5.5-2 2-8.5 10.5-.5-.5 2-2zm-203 2 2.5 3.5-.5.5-2.5-2.5zm4 6 2.5 1-.5 2-2.5-2.5zm4 4v1zm1 2 6.5 5.5 1 2-.5.5-7.5-7.5zm183 0 .5.5-7.5 7.5.5-1.5 4.5-5.5zm-174 8v1zm165 0 .5.5-4.5 4.5.5-1.5q-.75-2.25 1.5-1.5zm-161 3 7 6H55l-.5 2-7-6H46zm153 3 1.5.5-3.5 2.5-.5-.5zm-5 4 1.5.5-3.5 2.5-.5-2zm-138 1q2.25-.75 1.5 1.5l-.5.5q-2.5-1-1-2Zm134 1 .5 1.5-6.5 4.5h-2l-3 2q-1.5-1 1-2l5-3h2zm-131 1v1zm2 1 6.5 3.5-.5 1.5-5-3q-2.5-1-1-2Zm8 4q2.5 1 1 2-2.5-1-1-2Zm3 2 4 1 2 2h3l1.5 1.5-1.5.5-9-4zm105 0v1zm-3 1 1.5.5-2.5 1.5q-1.5-1 1-2Zm-4 2 1.5.5-1.5.5zm-2 1v1zm-84 1 7 2q1-2 2 0l2.5 1.5-3 .5-.5-2-2 1-6-2zm80 0 1.5.5-1.5.5zm-4 1 2.5.5-4.5 1.5v-1zm-63 1v1zm55 0v1zm3 0q2.63-.67 1.5 2l-3-.5zm-57 2 2.5.5-2.5.5zm46 0 3.5.5-5.5 1.5v-1zm5 0 2.5.5-2.5.5zm-46 1 3.5.5-3.5.5zm10 0 2.5.5q-1 2.5-5.5 1.5v-1zm21 0 5.5 1.5-4.5.5q-2.5-1-1-2Zm-17.5 1h5v2h-5zm11 0h5v2h-5z" opacity=".996"/><path fill="#4C67EF" stroke="#4C67EF" d="M122 0h6l.5 2h5l1.5-.5-.5 1.5q1.83-1.67 6-1l1 1h6l3 1 1.5-.5.5 1.5q1.5-2.5 3 1h5l3 2q1.5-2.5 3 1l3 1 2.5-1q-1.12 2.67 1.5 2l5 2 2 2 1.5-.5.5 1.5 1.5-.5q-.83 2.63 2.5 1.5l5 4h2.5q-1.25 3 2.5 2l3 4 3 2 1.5-.5q-1.12 3.33 1.5 2.5 1.42 4.08 6.5 4.5l-.5 1.5q2.25-.75 1.5 1.5h2q.75 4.25 4 6V46q2.67-1.12 2 1.5l3.5 4.5q2.25-.75 1.5 1.5l1 2.5q3-1.25 2 2.5l3 1.5 1 5.5 5 8V76h2v5.5l2 .5v3.5l1 1 1 6 2 3-1 3 2 2q-2 1 0 2-1 4 1 5V118q3.33-1.12 2 3l-2 .5 2 .5v5.5l-1.5.5v1q2.25-.75 1.5 1.5l-1 1 .5 1.5-1.5.5q2 1 0 2 1 4-1 5l1 2-1 1v5l-2 3v2l1 2-2 2-2 6v3l-3 5 .5 1.5-1.5-.5q-1.67 1.83-1 6-2.6 1.82-2 5.5-2.67-1.12-2 1.5l-2 2-2 6q-8 7-13.5 16.5l-5.5 4.5-1.5 2.5-4.5 2q.5 2.87-2.5 4-4-.5-4.5 2.5.83 2.63-2.5 1.5l-2.5 1-.5 2-1-1-3 3h-2l-13 8h-2l-3 2-7 1-3 2-2-1-2 2q-4-1-5 1-.75-1.75-4-1v1l1.5.5-1.5.5-2-1q-1 2-5 1l-3-1 .5 1.5-1.5 1.5-.5-2h-5l-.5 2H122q1.35-3.67-4.5-2l-2 1v-2l-3 1h-5l-1-1-10-1-3-2q-1 2-2 0l-5-2h-3l-2-2h-3l-2-2-5-1-2-2-1.5.5-1.5-2.5-8.5-3v-2h-3q1.13-2.67-1.5-2l-7-6-1 1-2.5-2.5q.75-2.25-1.5-1.5l-6-7-2.5-1.5q.67-2.62-2-1.5v-3h-1.5l-5-7q-2.62.83-1.5-2.5l-3.5-5.5q-3 .87-1.5-3.5l-9-15 1-2.5q-3.33 1.31-2-3.5l-1-1v-4L6 157l-2-.5 2-1-3-6q1-5.5-1-8 2-1 0-2 1.25-4.75-1-6l1-1V128H0v-6q3.67 1.35 2-4.5-2-1 0-2L3 98q3 1.25 2-2.5l.5-1.5-1.5-.5 2-.5-1-3.5h2v-3l3-6L9 78q2.67 1.13 2-1.5l2-5 2-2-.5-1.5q2.63.83 1.5-2.5l3-6.5 3-.5-2-1 3.5-4.5q3.33 1.12 2.5-1.5l-.5-1.5 3.5-2.5-1-1 3.5-3.5 2.5-1.5-.5-1.5q2.25.75 1.5-1.5h2q-.75-2.25 1.5-1.5v-2q2.25.75 1.5-1.5l1.5.5 1.5-1.5 2.5-3.5q3 .5 3.5-1.5-.83-2.63 2.5-1.5 1.25-3.25 5.5-3.5l-.5-1.5q3.75.75 4.5-1.5-.83-2.62 2.5-1.5l16-9q1.5 2.5 3-1h3l5-2h4l2-2q1 2 2 0l5-1 2 1V2l2 1q1.25-2.25 6-1l2 1V1l1 1h5.5zm71 33v1h2zm-2 1v1h1zm5 0-1 133h1zm-6 1q-2 2 0 3l-2 2-1-1-1 2-2 1 2 1-7 7-1-1-4 4 1 1-7 8h-1l6-6v-2l-8 8 1 1h-2q-1 2 2 1v1l-7 7v-3l-2 3-1-3-1 5 2-1q1 1-1 2-2 0-2-3-3-2 1-3-1-3-2-1v-1l-1-5-1 2h-1l1-4h-1q1 2-1 1l1-3-2 1-5-5h3l-3-2-1-3-1 2 1 1-11-7 2-1-2-2-3 1v-1q-2-4-3 0l-8-2 5-1-4-1-1-1H98l-1 1-5 1 4 1-7 2-1-2-9 4v1l4-1h1l-6 4-3-1q-3 1-1 2l2-1v1l-8 8h-1l2-2v-2l-6 7 1 2v-1l3-3v1l-2 3q-1 2-2 0l-2 2 1 3-2 5-1-3-2 4v4l-1 1 1 138v-2h2l4-4-1 2 1 1 2-2-1-1h2v-1l-1-1 3-3 2 1-1-1h2q1-3-1-2h-1l8-8-1 2 1 1 1-2 3-3-1-1q1-3 3-1l7-7-1-1h2q1-3-1-2h-1l6-6 1 1v6h2q-2 0-1 4 1 2 2 1l-1-2 1-2 1 3-1 2 1 1 2-1-1 2v2l2 3 4 2-3-3 1-1 10 10-2 1q1 2 3 0h2l3 3-1-1-3 1 7 2q1 2 2 0l7 1v1q-4 1-4-1l-4 1 4 1h4l1 1h21l1-1 7-1v-1q-4-1-4 1h-5l7-2q1-3 3 1l5-3h2q2-1 1-2l-2 1h-2l4-3 1 2 2-1 2-2v-1l-3 2h-1l3-3 2 1 3-3-1-1q1-3 3-1l3-3-1-1-2 1 4-5-1 2 1 2 1-2-1-3h2q2-1 0-2l1-2v2h1l-1-3 1-4h1l-1 2 1 2 2-7v-6q3-2-1-3l1-2V36q-3 1-4-1Zm-1 2v1zm-1 1v1zm-99 1v1h3zm34 0v1h3zm61 3-3 4h1l2-2zm-50 2v1h2zm-56 1-1 2h1zm59 0-1 2h1zM30 46v1zm150 0-2 3h1l2-2zm-42 1v1zm1 1v1h2zm-66 1-4 4h1l3-2zm101 4v1zm-27 1-1 3h1zM23 56v1zm125 1v1zm16 7-2 3q1 1 2-1zM18 65v1zm42 1-1 3h1zm101 1q-3 1-1 2l2-1zM95 176l-2 2q1 2 2 1zm-2 2-2 3q1 1 2-1zm-11 13v1zm100 5v1zm-74 1v1zm-33 1v1h1zm34 0-1 2 4 2zm-35 1-3 4h1l2-2zm39 3v1zm3 3v1h1zm-48 1v1zm-1 1v1zm-5 6-1 2h1zm-2 2-2 1v1q3 1 3-1zm33 28v1zm5 1v1zm55 0v1z"/><path fill="#4C67EF" stroke="#4C67EF" d="m98.5 38 1.5.5-1.5.5zm15 0 2.5.5-2.5.5zm-28 4v1zm44 1v1zm-27 18 3.5.5-3.5.5zm6 0 3.5.5-3.5.5zm-10 1v1zm17 0v1zm-20 1 1 2 4-2h13l3 2 1-2 5.5 3.5q-2 1 0 2l.5 1.5 1-3 3.5 3.5-.5.5-3-1q-1.5 1 1 2l2 1 1-1 2.5 2.5q.75 3.25-1 4l2 4v12l-2 3q1.75.75 1 4l-2.5 2.5q-1.25-2.25-2.5.5l1 2-4.5 4.5-.5-.5 4-4-.5-.5-4.5 3.5-2 3q2.25 1.25-.5 2.5l-1-1-3.5 3.5 2 1-6.5 7.5-.5-1.5 5-6-.5-.5-5.5 5.5-1 3.5-3 1.5 1.5.5 1.5-.5-9.5 9.5-1-1-1.5.5 2 2-10 10-4.5 5.5.5-1.5-.5-1.5-1.5.5-.5-64.5-1 70-.5-71.5 1-1 .5-4.5 1 7L83 77.5l-.5-1.5q1.25 2.25 2.5-.5l-1-3 2.5-2.5q1.5 2.5 3-1l3.5-2.5-1.5-.5-2 2-.5-.5 3.5-2.5 3 1v-1l-1.5-.5zm22.5 2-1 1 3 1h2zm-31 6-1 2h1zm-1 2-1 2h1zm43 0q-2 3 0 5h1zm1 25-2 3 1 2 1-2zm-11 15v1zm-15 16-2 3q1 1 2-1zm-3 3q-3 1-1 2l2-1zm-2 2-2 3q1 1 2-1zm-4 4-2 4q1 1 2-1zm-2 4v1zm34 0v1zm-36 1-3 4h1l3-3zm-3 4v1zm-2 1-3 4h1l3-3zm35 3-1 2h1zM62.5 64v1zm89 1v1zm-93 8 .5 1.5h-1zm-1 5v1z"/><path fill="#4C67EF" stroke="#4C67EF" d="m81.5 78 .5 1.5h-1zm51 1 .5 1.5h-1zm1 5 .5 7.5h-1zm37 8 .5 75.5-1.5 3.5-1-4-2.5 8.5.5 1.5-2-1-.5 1.5 1 2-2.5 2.5-.5-.5 2-3-.5-.5-4.5 4.5q2.25 1.25-.5 2.5l-4 2-1-2-4 2h-12q-.75-1.75-4-1-1 2-2 0l-3-1-6.5-6.5 1-3-2.5-4.5-.5 2.5 2 3q-1 1.5-2-1-2-2.5-1-8l-1-1v-9l2-4-2-1 2.5-4.5 1 3q.25-4.25 3.5-5.5l-.5-1.5 1.5.5-1-2 1.5-1.5q1.25 2.25 2.5-.5l-.5-1.5-1.5.5 5.5-5.5.5.5-4 4 .5.5 4.5-3.5 2-3q-2.25-1.25.5-2.5l1 1 3.5-3.5-1.5-.5-1.5.5 8.5-8.5.5.5-1 2q1 1.5 2-1-1.12-3.33 1.5-2.5 2.5-1 1-2l-2 1-.5-.5 9.5-9.5 2 1q2.5-1 1-2l-2.5-.5zm-.5 3-2 2 1 1v69h1zm-2 2v1zm-1 1-4 4h1l3-2zm-4 4v1zm-1 1-1 3h1zm-4 5-2 3q1 1 2-1zm-3 3q-3 1-1 2l2-1zm-2 2-2 3q1 1 2-1zm-8 9-4 5h1l4-4zm-8 9v1zm-13 47-1 1 4 3v-1zm4 4v1zm1 1v1h2zm29 0v1h1zm-26 1v1h1zm23 0v1h2zm-22.5-88v1z"/><path fill="#4C67EF" stroke="#4C67EF" d="M122.5 145q1.5 1-1 2-1.5-1 1-2Zm-5 10v1zm0 13v1zm51 4v1zm24 1v1zm-105 10 .5.5-4.5 4.5-.5-.5zm48 4v1zm17 0v1zm-13 1 8.5.5-8.5.5zm-37 2q2.5 1 1 2-2.5-1-1-2Zm64 16v1zm-2 1v1zm-30 4 2.5.5-2.5.5zm17 0 1.5.5-1.5.5z"/><path fill="#DCE1FB" stroke="#DCE1FB" d="m191.5 37 1.5.5v129h-1L191.5 38 157 75.5V77l-2.5 1-1.5-1.5-1-6-4-8-8.5-10.5-9.5-6.5 1.5.5q7.52 3.48 12.5 9.5l9 15 1 5.5h1.5L166 65.5zm-90 2 11.5.5-11.5.5zm-6 1 2.5.5-3.5 1.5h-3l-9 4q-8.3 4.7-14 12l-.5-.5 8.5-8.5 10-6zm20 0h3l8.5 3.5-1.5.5-4-2-6-1zm13 4v1zm-61 15 .5.5-2 2-2.5 4.5.5-1.5q.63-3.87 3.5-5.5Zm37 0 4.5.5-4.5.5zm-5 1 1.5.5-1.5.5zm13 0 2.5.5-2.5.5zm-16 1 1.5.5-1.5.5zm20 0q8 2.5 12.5 8.5l-.5.5-4-4-8-4zm-23 1 1.5.5-4.5 2.5-7.5 7.5-1.5 3.5-.5-1.5 6.5-8.5zm-31 5 .5 1.5-2.5 5.5-.5-2.5zm67 4q3.54 2.46 4.5 7.5h-1q-.82-4.68-4-7zm-70 4 .5 1.5h-1zm21 2v1zm-1 2 .5 2.5-1 1v76l.5.5 9-9 .5.5-9.5 9.5H78V82.5zm-21 1 .5 7.5h-1zm76 1 .5 2.5h-1zm1 6 .5 1.5h-1z"/><path fill="#DCE1FB" stroke="#DCE1FB" d="M170.5 90q2.75-.25 2.5.5v73q-2.25 1.25-1 6l-4 9-6.5 6.5-8 4v-1q7.39-2.11 11.5-7.5l5-8 1-3v-5l1-1V91q-3.25-.5-4.5 3l-.5-.5zm-36 2 .5 2.5h-1zm31 4 .5.5-7 7-33.5 36.5-.5-.5 7-7zm-32 1 .5 1.5-4.5 6.5-.5-.5 2-2zm-5 9 .5.5-6 6-12.5 13.5-.5-.5 9-9zm-19 21 .5.5-8 8q.75 2.25-1.5 1.5l-10 11-.5-.5 8-8zm14 14 1.5.5-4.5 4.5-.5-.5zm-4 6-.5 1.5-1.5 3.5-.5-1.5zm-3 6 .5 1.5h-1zm-1 4 .5 9.5h-1zm1 12 .5 1.5h-1zm75 0 .5 3.5h-1zm-96 3 1.5 1.5 1 4h-1l-1.5-4.5-37 40-.5-.5 9-9zm22 0 2.5 4.5q-1 1.5-2-1-1.71-1.54-.5-3.5Zm73 3 .5 1.5h-1zm-70 3q4.25 6.25 11.5 9.5l-1.5.5-10.5-9.5zm69 0 .5 1.5-3.5 6.5-.5-1.5zm-91 1 .5 1.5h-1zm1 3v1zm1 2q4.75 9.25 12.5 15.5l-.5.5-7.5-7.5-5-8zm85 3 .5.5-2 2-6.5 8.5-10 7q-1.5-1 1-2l4-2 10.5-10.5zm-52 1 1.5.5-1.5.5zm3 1 1.5.5-1.5.5zm13 0 2.5.5-2.5.5zm-7 1 3.5.5-3.5.5zm-28 10 8.5 5.5-1.5.5-5-3-2.5-2.5zm51 5v1zm-41 1v1zm38 0 1.5.5-8.5 3.5h-3v-1l6-1zm-36 1 8.5 2.5-2.5.5-6-2zm12 3 11.5.5-11.5.5z"/><path fill="#FEFEFE" stroke="#FEFEFE" d="m191.5 38-.5 1.5-1.5 2.5-1.5-.5zm-93 2 16.5.5-16.5.5zm-3 1 1.5.5-1.5.5zm22 0v1zm-26 1v1zm29 0 1.5.5-1.5.5zm-31 1 .5 2-5.5 1v-1zm35 0 6.5 3.5-1.5.5q-1.82-2.6-5.5-2zm62 1-.5 1.5-1.5 2.5-3.5 2.5-1.5 2.5-.5-1.5zm-104 2 .5.5-2 2q.67 2.63-2 1.5-1.12-2.67 1.5-2zm50 1 9.5 7.5 6 8-1.5-.5q-2.62.83-1.5-2.5l-3.5-3.5H140v-1.5l-3.5-3.5-3.5-1zm-56 3 1.5.5-3 1.5-.5 2-.5-1.5zm-4 4-.5 1.5-2.5 4.5-1.5-1.5zm104 1 .5.5-2 2-.5 1.5-.5-1.5zm-78 4 5.5.5-4.5.5-5.5 2q-1.31-3.33 3.5-2zm11 0h6l3 1 5 4h2.5q-.5 2.87 2.5 4 2.25-.75 1.5 1.5l2 3-.5.5-2.5-2.5-4.5-5.5-7-4-3-1h-5zm63 0 .5.5-2 2-1.5 3.5-1.5-1.5zm-106 2v1zm26 1v1zm-27 1 .5 2.5-2.5 1.5-.5-.5 2-2zm25 0 .5.5-2.5 2.5-.5-2zm58 1v1zm19 1 .5.5-3 3-.5 1.5-.5-1.5zm-18 1 1.5 4.5h-1zm-64 1 .5 1.5-3.5 3.5-.5-.5zm-23 2v1zm100 1 .5.5-2 2-1 3.5-3-.5zm-101 1 .5 1.5h-1zm19 2 .5 3.5-1.5 2.5-.5-2.5zm72 0v1zm-92 1 .5 3.5-1 1V208q2.87.5 4-2.5l1.5-2.5 1.5.5-8.5 8.5-.5-.5v-123l1-1v-10zm72 0v1zm1 2q3-.88 1.5 3.5l1 1v6h-1v-5l-1-1v-3zm20 1v1zm2 0 1.5.5-1.5.5zm-77 3 .5 1.5h-1zm57 9 .5 6.5-1.5 4.5-.5-4.5 1-1zm33.5 0 4 .5q-4.25.25-5.5 3.5l-.5-.5 2-2zm-3.5 4 1.5 1.5-10 10-4.5 5.5.5-1.5 2-4.5h1.5l3.5-3.5q-.75-2.25 1.5-1.5zm-33 8v1zm-1 2-.5 1.5-1.5 3.5-.5-2.5zm-4 5 .5.5-2 2-1.5 2.5-1.5-.5zm23 2 .5 1.5-3.5 3.5-.5-.5zm-29 5 .5.5-2.5 2.5-.5-.5zm24 0 .5 1.5-7.5 8.5.5-1.5 1.5-3.5q1.25 2.25 2.5-.5zm-28 4 .5.5-2 2-1.5 3.5q-1.25-2.25-2.5.5l-2.5 4.5-.5-1.5zm18 8 .5.5-2.5 2.5-.5-.5zm-28 3 .5.5-3 3-.5 2.5-1.5-.5-3 4v1.5h-1.5l-3.5 3.5q.75 2.25-1.5 1.5-3.25 2-3.5 6-2.88-.5-4 2.5l-1.5 2.5-3.5 2.5q.83 2.63-2.5 1.5v-1l10.5-9.5 11.5-13.5q2.25.75 1.5-1.5zm23 2 1.5.5-4.5 4.5-.5-.5zm-5 5 .5 1.5-1.5 2.5-.5-2.5zm-5 6 1.5.5-3.5 4.5.5-1.5q-.5-3 1.5-3.5Zm-3 6v1zm-2.5 3 2 .5-2 5v9l2 5q-1 2.5-2 1 1-4-1-5v-11q2-1.13 1-4.5Zm75.5 11 1.5 5.5q-2.25 1.25-1 6l-2.5 5.5-.5-1.5 2-5zm-18 1 .5 1.5h-1zm-1 6 .5 1.5h-1zm-77 2 .5.5-2.5 2.5-.5-.5zm2 0v1zm74 1 .5 1.5q-1.75.92-1 3.5l-2-.5zm-73 1 .5 1.5h-1zm20 0v1zm-27 1 .5 1.5-2.5 2.5-.5-.5zm28 1 9 10 2.5 1.5-1.5-.5-3.5-1v-1.5l-3.5-3.5q-2.25.75-1.5-1.5l-2-3zm-20 2q2.62-.83 1.5 2.5l2 4q-1 1.5-2-1l-2-5zm-13 2 1 1 1.5-.5-9.5 9.5-.5-.5q2.42-1.08 2.5-4.5 1.25 2.25 2.5-.5zm81 0 .5.5-2.5 2.5-.5-.5zm21 1v1zm-2 2 .5 3.5-2.5 2.5-.5-.5zm-25 2 1.5.5-2.5 1.5q-1.5-1 1-2Zm-58 1v1zm55 1v1zm-54 1 2.5 1.5-.5 1.5-2.5-2.5zm29 0 4 2 5.5.5-6.5.5q-.92-1.75-3.5-1zm23 0 .5 2q-2.58-.75-3.5 1h-6v-1h5zm25 2 1 1 1.5-.5-4.5 4.5-.5-.5q2.42-1.08 2.5-4.5Zm-105 2 .5 1.5-7.5 7.5-.5-.5 2.5-3.5 3.5-2.5zm31 0q1 2.5 3.5 2v1.5l3.5 3.5q3.33-1.12 2.5 1.5l.5 1.5-10.5-9.5zm69 5 .5.5-3.5 3.5-.5-2q2.5.5 3.5-2Zm-5 3 .5 1.5q-1 2.5-2 1zm-52 2 5 3h3.5q1.13 2.67-1.5 2l-6-3q-2.5-1-1-2Zm49 1q1.5 1-1 2l-6.5 2q-1.31-3.33 3.5-2zm-39 4 1.5.5-1.5.5zm30 0v1zm-26 1 3 1 16.5.5-16.5.5-3-1zm21 0 1.5.5-1.5.5z" opacity=".996"/><path fill="#FFF" stroke="#FFF" d="m191.5 39 .5 127.5h-1l-.5-3.5-.5 10.5-3.5 10.5-1.5-.5v2l-3.5 5.5-1.5-.5v2l-3.5 4.5-4.5 2-.5 2-1.5-.5-1.5 2.5-5 2H160q1.13 2.67-1.5 2l-6 2h-17l-1-1h-4q-.92-1.75-3.5-1 1.31-3.33-3.5-2l-7.5-4.5q.83-2.62-2.5-1.5l-3.5-3.5V194q-2.87.5-4-2.5.5-3-1.5-3.5-2.25.75-1.5-1.5l-2-3-1-5.5q-3.33 1.31-2-3.5l-1-2.5q-3.83-.75-5 2.5l-.5 1.5-1.5-.5-3.5 5.5-1.5-.5-3.5 5.5-1.5-.5v2l-3.5 4.5-2.5 1.5-2.5 3.5-2.5 1.5-2.5 4.5-2.5 1.5-2.5 3.5-1.5-.5v-129l1-1v-4l2-4V67l3-1.5v-3l2.5-3.5 1.5.5 3.5-6.5 1.5.5q-.75-2.25 1.5-1.5l2-3 2.5 1q-.5-2.87 2.5-4l6.5-1q-1.12-2.67 1.5-2l6-2h19l4 2h3.5q-1.25 3 2.5 2l6.5 3.5q-.75 2.25 1.5 1.5l5.5 4.5q-.75 2.25 1.5 1.5l3.5 3.5V62l3 1.5 2.5 7.5 1.5-.5 1 7.5h4v-2h3v-1.5l3.5-5.5 1.5.5 3.5-5.5 1.5.5 3.5-6.5 1.5.5 3.5-5.5 2.5-1.5 2.5-3.5 2.5-1.5 2.5-4.5 2.5-1.5zM99 59l-1 1q-5-1-4 2l-4 2q-3-1-2 2l-2 1-4 5v2l-1-1-3 8v80h3v-1l4-3 1-2q1-4 4-3 0-4 4-6 2 1 1-1l4-4h1v-1l3-4h2v-2l3-4h2l2-4q1-3 3-1l3-5q-1-3 2-2l2-3 3-2 3-5h2l3-6v-2h2l1-4V81l-1-1q1-5-2-4l-3-6q1-3-1-2-4-1-3-4h-2l-5-4-3-1zm70 30-2 5-1-1-4 6q-3-1-2 2l-3 3h-2l-3 7-1-1-4 6-1-1-3 5q-1 2-2 0l-3 6-2 1-3 4-2 1-4 6-1-1q-2 1-2 4l-3 2-4 7q1 3-2 2 1 3-1 5v11q2 0 1 5l2-1 3 8q-1 2 2 1l3 4v1l5 2q3-1 2 2 3-1 4 1h17l1-1q3 1 2-2l5-1 1-2 3-2 2-3 3-2v-2l2-4v-5l1-1V90q0-2-4-1ZM24.5 47v1z"/><path fill="#4B66EE" stroke="#4B66EE" d="m110.5 0 5.5.5L94.5 4V3l8-1 1-1h6zm23 0 13 1 1 1h4l4.5 1.5-3.5.5-6-2-13-1zm-42 4 1.5.5-1.5.5zm66 0 1.5.5-1.5.5zm-70 1 1.5.5L79.5 9V8zm74 0 9.5 3.5-1.5.5-8-3zm-84 4v1zm95 0 6 2 3.5 2.5-1.5.5-8-4zm-98 1q1.5 1-1 2l-7 3v-1zm109 4q8.45 3.55 14.5 9.5l-.5.5-2-2-11-6q-2.5-1-1-2Zm-119 1q1.5 1-1 2l-3 1-8 6-.5-.5 2.5-2.5zm-14 9 .5.5-3.5 3.5Q39.13 33.13 33 40.5L24.5 51l-.5-.5 2-2Q32.38 38.38 41.5 31zm149 0q10.91 7.59 19.5 17.5l7 9-.5.5-3.5-3.5q-5.12-8.37-12.5-14.5l-7-5-3.5-3.5zm-176 28 .5.5-2 2L14.5 67l.5-1.5 2-5zm203 0 8.5 12.5q-1 1.5-2-1l-1-3-6-8zm9 14 4.5 9.5h-1l-4-8zm-222 2 .5 1.5L9.5 78 9 76.5zm227 9v1zm-232 2 .5 1.5L5.5 89 5 87.5zm233 0 3.5 10.5h-1l-3-9zM4.5 91l.5 1.5H4zm241 0 .5 1.5h-1zm-242 3 .5 3.5-2 6v6l-1 1-.5 6.5-.5-6.5 1-1v-6l1-1v-4zm243 0 1.5 4.5v4l1 1 1 12h-1l-1-11-1-1q1.25-4.75-1-6zm3 39 .5 6.5-1 1v6l-1 1v4l-1.5 4.5-.5-3.5 2-6v-6l1-1zm-249 1L4 155.5H3l-1-8-1-1v-6l-1-1zm4 23 .5 1.5H4zm241 0 .5 1.5h-1zm-1 3 .5 2.5-3.5 8.5-.5-1.5zm-239 1 3.5 9.5H8l-3-8zm4 11v1zm231 0 .5 1.5-4.5 8.5-.5-1.5zm-230 3 4.5 8.5h-1l-4-8zm225 8-.5 1.5-2 5-6.5 8.5-.5-.5 2-2zm-220 2 8.5 12.5-.5.5-2.5-2.5-6-10zm9 14 16 18 10.5 8.5-.5.5-2-2q-10.12-6.37-17.5-15.5l-7-9zm201 0 .5.5-2 2q-6.37 10.13-15.5 17.5l-9 7-.5-.5 3.5-3.5q8.38-5.12 14.5-12.5zm-173 27 14.5 9.5-1.5-.5-11-6-2.5-2.5zm145 0 .5.5-2.5 2.5-10 6q-1.5-1 1-2l3-1zm-15 9 1.5.5-9.5 4.5v-1zm-114 1 9.5 4.5-1.5.5-7-3q-2.5-1-1-2Zm104 4v1zm-93 1 10.5 3.5-2.5.5-8-3zm90 0 1.5.5-10.5 3.5v-1zm-78 4 1.5.5-1.5.5zm66 0 1.5.5-1.5.5zm-63 1 8 1 1 1h6l1 1 6.5.5-6.5.5-1-1h-6l-1-1-8-1zm58 0 3.5.5-4.5 1.5h-4l-1 1-12 1v-1h5l1-1h5l1-1q4.75 1.25 6-1Z" opacity=".58"/><path fill="#3F5AF4" stroke="#3F5AF4" d="m99 0 11 .5L99 2zm41.5 0h10l.5 2q-3.38 1-4.5-1h-6zm-46 2 3.5.5L82 7q-1.25-3 2.5-2l5-2h4zm58 0 8 1 1 1 6.5 1q1.13 2.67-1.5 2l-4-2-10-2zm-73 5 1.5.5L60.5 17l-13 9-5 5-.5-1.5 3.5-4.5 1.5.5q-.75-2.25 1.5-1.5l5.5-3.5q-.83-2.62 2.5-1.5 1-2.5 3.5-2-1.12-2.67 1.5-2l6-2 1.5-1.5q-.83-2.62 2.5-1.5zm90 0 11.5 3q-1.13 2.67 1.5 2l4.5 2.5-.5 1.5-8-5-9-3zm18.5 8h2q-1.12 2.67 1.5 2 1.08 2.75 4.5 2l1.5 3h2q1 2.5 3.5 2l.5 2 1.5-.5 3 5-.5.5-5-5-13-9H188zM39 30q2.67-1.12 2 1.5L32.5 40l-.5-.5 3-4V34l4-1zm170.5 0 2 3 3.5 1v1.5l3.5 4.5 1.5-.5v2l3.5 4.5 1.5-.5 3 7.5 3 1.5v2l2 3q-1 1.5-2-1l-7-11-15-16zm-179 10 .5 2.5-5 5L17.5 60l.5-1.5 2-5.5q2.67 1.12 2-1.5l3-4 .5-2.5q1.25 2.25 2.5-.5zm-15 20q2.75 1.25.5 2.5L12.5 69l.5-1.5zm219 0 4 10 1.5-.5v3l3 8h-1l-2-6-7-13zm-224 9q2.75 1.25.5 2.5v2L7.5 81 7 79.5z" opacity=".098"/><path fill="#3F5AF4" stroke="#3F5AF4" d="M5 82q2.67-1.12 2 1.5L3.5 94 3 90.5l1-1zm238 0q3.33-1.31 2 3.5l1 1 1 7h-1l-1-6zM2.5 95l.5 2.5H2zm245 0 .5 2.5h-1zM.5 99q2 .5 1.5 3.5l-1 1-.5 6.5zm249 0 .5 10.5h-1v-6l-1-3zM.5 140l1.5 9.5q-1 2.5-2 1zm249 0 .5 10.5q-1 1.5-2-1zm-247 12 .5 2.5H2zm245 0 .5 2.5h-1zm-244 4L7 168q-3.33 1.31-2-3.5l-2-5zm243 0 .5 3.5-1 1-1 7.5q-2.67 1.13-2-1.5zm-239 13 9.5 19.5q-1 2.5-2 1l-3.5-9.5-1.5.5v-3l-3-7z" opacity=".098"/><path fill="#3F5AF4" stroke="#3F5AF4" d="m242.5 169 .5 1.5-3.5 10.5q-2.75-1.25-.5-2.5v-2zm-5 12-.5 1.5-2.5 7.5q-2.75-1.25-.5-2.5zm-220 9 8.5 12.5 15 17h-1l-1.5-2.5-3.5-1v-1.5l-3.5-4.5-1.5.5v-2l-3.5-4.5-1.5.5-3-7.5-3-1.5v-2l-2-3zm215 0-.5 1.5-2 5.5q-2.67-1.12-2 1.5l-3.5 6.5q-1.25-2.25-2.5.5l-2.5 4.5-.5-2.5 5-5zm-15 20-.5 1.5-2 4.5-4 1q1.33 4.12-2 3v-1.5zm-175 9 5 5 13 9H62q1 3-2 2 1.13-2.67-1.5-2-1.08-2.75-4.5-2l-1.5-3h-2q-1-2.5-3.5-2l-.5-2-1.5.5-3-4zm165 0 .5 1.5-3.5 4.5-1.5-.5q.75 2.25-1.5 1.5l-5.5 3.5q.83 2.63-2.5 1.5-1 2.5-3.5 2 1.13 2.67-1.5 2l-6 2-1.5 1.5q.83 2.63-2.5 1.5l-9 3v-1l20-9 13-9zm-144 15 8 5h2l7.5 3.5-2.5.5-7-3H69q1.13-2.67-1.5-2l-4.5-2.5zm18.5 9 16 4.5-3.5.5-1-1h-4l-1-1-6.5-1zm84.5 0q2.63-.67 1.5 2l-6.5 1-1 1-8 1v-1h3zM99 248l11 1.5-11 .5zm48.5 0q4.81-1.33 3.5 2l-11-.5 6.5-.5z" opacity=".098"/></svg>