<svg xmlns="http://www.w3.org/2000/svg" width="32" height="32"><path d="M16 22.668C7.398 22.668.668 19.734.668 16S7.398 9.332 16 9.332 31.332 12.266 31.332 16 24.602 22.668 16 22.668m0-12c-8.398 0-14 2.73-14 5.332s5.602 5.332 14 5.332S30 18.602 30 16s-5.602-5.332-14-5.332m0 0" style="stroke:none;fill-rule:nonzero;fill:#80deea;fill-opacity:1"/><path d="M10.066 29.734c-.668 0-1.199-.132-1.734-.468-3.266-1.868-2.398-9.133 1.867-16.598 2-3.469 4.469-6.402 6.867-8.27 2.602-2 4.934-2.597 6.536-1.664 1.664.934 2.265 3.266 1.863 6.532-.399 3.066-1.73 6.668-3.73 10.132-2 3.47-4.47 6.403-6.868 8.27-1.734 1.332-3.402 2.066-4.8 2.066M21.934 3.602c-1.067 0-2.47.597-4 1.796C15.668 7.2 13.332 10 11.398 13.332 7.2 20.602 6.801 26.867 9 28.132c1.133.669 3 .067 5.066-1.53 2.266-1.801 4.602-4.602 6.536-7.934 1.933-3.336 3.199-6.734 3.597-9.602.336-2.668-.066-4.53-1.199-5.199-.332-.133-.668-.265-1.066-.265m0 0" style="stroke:none;fill-rule:nonzero;fill:#80deea;fill-opacity:1"/><path d="M22 29.734c-3.332 0-8.133-4.066-11.734-10.402-4.332-7.465-5.2-14.73-1.934-16.598 3.27-1.867 9.133 2.465 13.469 9.934 2 3.465 3.332 7.066 3.734 10.133.465 3.265-.203 5.531-1.867 6.531a3.6 3.6 0 0 1-1.668.402M9 3.867c-2.2 1.266-1.8 7.531 2.398 14.801 4.204 7.266 9.403 10.73 11.602 9.465 1.133-.668 1.535-2.531 1.2-5.2-.4-2.867-1.665-6.265-3.598-9.601C16.398 6.066 11.199 2.602 9 3.867m0 0" style="stroke:none;fill-rule:nonzero;fill:#80deea;fill-opacity:1"/><path d="M18.668 16a2.669 2.669 0 0 1-5.336 0 2.669 2.669 0 0 1 5.336 0m0 0" style="stroke:none;fill-rule:nonzero;fill:#80deea;fill-opacity:1"/></svg>