<svg width="40" height="40" viewBox="0 0 40 40" fill="none" xmlns="http://www.w3.org/2000/svg">
  <path fill-rule="evenodd" clip-rule="evenodd" d="M26.5371 2.15839C28.037 1.84609 29.4591 1.97843 30.6377 2.716L30.8242 2.84003C31.7368 3.47663 32.3699 4.42105 32.7549 5.55878L31.5479 5.96698C31.2304 5.02871 30.7394 4.33343 30.0928 3.883L29.9619 3.79608C29.1377 3.28024 28.0746 3.13943 26.7969 3.40546C25.5148 3.67243 24.0561 4.34307 22.5117 5.39081C21.9913 5.74393 21.4651 6.13992 20.9346 6.57245C22.1347 7.64841 23.3315 8.89406 24.4902 10.2853C27.1298 10.6064 29.5574 11.206 31.6406 12.0217C31.6554 11.9425 31.6728 11.8638 31.6865 11.7853L32.3145 11.8957L32.9424 12.0051C32.9118 12.1798 32.8761 12.3558 32.8408 12.5334C32.9843 12.5999 33.1272 12.6649 33.2666 12.7336C36.6538 14.4041 39.0008 16.8318 39.001 19.7082C39.0009 22.5847 36.6539 25.0132 33.2666 26.6838C33.1468 26.7429 33.0233 26.7972 32.9004 26.8547C32.9758 27.2264 33.0441 27.5914 33.0986 27.9504C33.3949 29.9001 33.3858 31.6832 33.0225 33.1672C32.6581 34.6555 31.9258 35.8814 30.752 36.6271C29.5782 37.3727 28.1573 37.5152 26.6553 37.2131C25.1575 36.9116 23.5386 36.1628 21.8994 35.0666C21.2868 34.6569 20.6688 34.1948 20.0479 33.6867C19.4298 34.1995 18.8135 34.6651 18.2031 35.0793C16.5713 36.1864 14.9576 36.9465 13.4619 37.258C11.9619 37.5702 10.54 37.4372 9.36133 36.6994C8.18276 35.9616 7.44178 34.7407 7.06738 33.2551C6.69414 31.7736 6.67294 29.9899 6.95605 28.0383C7.0109 27.6603 7.07936 27.2752 7.15723 26.883C6.97122 26.7968 6.78746 26.7112 6.6084 26.6213L6.89355 26.0519L7.17969 25.4826C7.26641 25.5262 7.35573 25.5659 7.44434 25.6086C7.91274 23.7478 8.6181 21.7651 9.54785 19.7394C8.59613 17.7006 7.87281 15.7042 7.39258 13.8312C7.36107 13.8465 7.32912 13.8607 7.29785 13.8762C4.03937 15.4831 2.27456 17.5836 2.27441 19.7082C2.27443 20.4044 2.46049 21.0882 2.82324 21.756L2.26367 22.0607L1.70312 22.3644C1.25068 21.5315 1.00099 20.6401 1.00098 19.7082C1.00112 16.8317 3.34704 14.4041 6.73438 12.7336C6.85465 12.6743 6.97724 12.6174 7.10059 12.5598C7.01806 12.1531 6.94523 11.7539 6.8877 11.3625L7.51758 11.2697L8.14746 11.1779C8.18924 11.4621 8.23989 11.7512 8.2959 12.0451C10.3805 11.2217 12.8142 10.616 15.4619 10.2902C16.6053 8.90098 17.7884 7.65606 18.9746 6.57831C18.4421 6.15026 17.9145 5.75837 17.3926 5.40936C15.8413 4.37198 14.3786 3.71066 13.0947 3.45233C11.8952 3.21102 10.8866 3.32564 10.0889 3.77069L9.93262 3.86444C9.3796 4.21528 8.93709 4.73322 8.61133 5.41718L8.03613 5.14374L7.46094 4.86932C7.82241 4.11038 8.31981 3.46769 8.96387 2.98554L9.24902 2.78827C10.4227 2.04279 11.8438 1.90124 13.3457 2.20331C14.8435 2.50468 16.4623 3.2536 18.1016 4.34979C18.714 4.75936 19.3334 5.21986 19.9541 5.72772C20.5712 5.21602 21.1864 4.7506 21.7959 4.3371C23.4279 3.22986 25.0413 2.46986 26.5371 2.15839ZM8.35645 27.3937C8.30423 27.6742 8.25719 27.9502 8.21777 28.2219C7.94988 30.0687 7.98283 31.6737 8.30273 32.9435C8.62161 34.209 9.21303 35.1033 10.0371 35.6193C10.8614 36.1353 11.9244 36.276 13.2021 36.0099C14.4844 35.7429 15.9437 35.0726 17.4883 34.0246C18.0083 33.6718 18.5334 33.276 19.0635 32.8439C17.8635 31.7679 16.6664 30.5223 15.5078 29.131C12.8681 28.8097 10.4402 28.2098 8.35645 27.3937ZM31.7051 27.3703C29.6181 28.1947 27.1815 28.8006 24.5303 29.1262C23.3878 30.5145 22.2068 31.7589 21.0215 32.8361C21.5554 33.2655 22.0852 33.6571 22.6084 34.007C24.1597 35.0444 25.6224 35.7057 26.9062 35.9641C28.1857 36.2215 29.2475 36.0733 30.0684 35.5519C30.8892 35.0305 31.4747 34.1321 31.7852 32.8644C32.0966 31.5924 32.1193 29.987 31.8389 28.1418C31.8004 27.8884 31.7548 27.6313 31.7051 27.3703ZM22.709 29.3029C21.8238 29.3663 20.9198 29.4015 20.001 29.4016C19.0999 29.4016 18.2126 29.3679 17.3438 29.3068C18.2347 30.3042 19.1396 31.2073 20.041 32.006C20.933 31.2048 21.8286 30.301 22.709 29.3029ZM20.001 11.2892C18.669 11.2892 17.3727 11.3619 16.127 11.4963C15.1431 12.7239 14.1869 14.0651 13.2852 15.5051L13.2842 15.5041C12.3987 16.9185 11.6215 18.3388 10.9551 19.7355C11.6316 21.1295 12.4191 22.546 13.3154 23.9562L13.8535 24.7824C14.5977 25.8976 15.3743 26.9469 16.167 27.924C17.4005 28.0556 18.6832 28.1271 20.001 28.1271C21.3321 28.1271 22.6271 28.0534 23.8721 27.9191C24.8554 26.6918 25.8116 25.3509 26.7129 23.9113L27.2002 23.1144C27.8875 21.963 28.5009 20.8104 29.043 19.674C28.3671 18.2824 27.5803 16.8681 26.6855 15.4601C25.7795 14.0345 24.8209 12.7065 23.835 11.4914C22.6014 11.3597 21.3188 11.2893 20.001 11.2892ZM10.2803 21.2326C9.55604 22.9338 9.00239 24.5841 8.62695 26.131C10.3011 26.8055 12.2365 27.3371 14.3535 27.6808C13.8206 26.9795 13.2989 26.2472 12.792 25.4875L12.2402 24.6398C11.5199 23.5065 10.8661 22.3661 10.2803 21.2326ZM29.7275 21.1672C29.2879 22.0319 28.8117 22.9024 28.2939 23.7697L27.793 24.5871C27.1148 25.6703 26.403 26.7011 25.6719 27.675C27.8017 27.3272 29.7482 26.7928 31.4277 26.1105C31.0414 24.5499 30.4725 22.884 29.7275 21.1672ZM32.5537 13.8058C32.0856 15.6655 31.3805 17.6475 30.4512 19.673C31.4039 21.7127 32.1287 23.7095 32.6094 25.5832C32.6403 25.5682 32.6724 25.5554 32.7031 25.5402C35.9616 23.9332 37.7265 21.8329 37.7266 19.7082C37.7264 17.5836 35.9615 15.4831 32.7031 13.8762C32.654 13.8519 32.6034 13.8298 32.5537 13.8058ZM14.3223 11.7404C12.1946 12.0882 10.2503 12.6241 8.57227 13.3058C8.95826 14.8649 9.52667 16.5292 10.2705 18.2443C10.8481 17.1086 11.4935 15.9649 12.2051 14.8283L12.751 13.9767C13.2607 13.2019 13.7854 12.4553 14.3223 11.7404ZM25.6445 11.7355C26.3734 12.6948 27.0829 13.71 27.7607 14.7766C28.4799 15.9081 29.1326 17.0473 29.7178 18.1789C30.4416 16.4789 30.9946 14.8297 31.3701 13.2834C29.6964 12.6092 27.761 12.0792 25.6445 11.7355ZM19.958 7.40936C19.0659 8.21063 18.1696 9.11427 17.2891 10.1125C18.1753 10.0489 19.081 10.0158 20.001 10.0158C20.9018 10.0158 21.7886 10.0486 22.6572 10.1096C21.7658 9.11157 20.8599 8.20839 19.958 7.40936Z" fill="#49079F"/>
  <path d="M4.29883 22.417C5.40505 22.417 6.30265 23.3137 6.30273 24.4199C6.30273 25.5262 5.4051 26.4229 4.29883 26.4229C3.19274 26.4226 2.2959 25.5261 2.2959 24.4199C2.29598 23.3139 3.19279 22.4172 4.29883 22.417Z" fill="#032A49"/>
  <path d="M18.1523 19.708H17.1475C17.1928 21.2794 18.4802 22.5389 20.0625 22.5391C20.8304 22.5391 21.5273 22.2441 22.0479 21.7607L23.2617 23.0674C22.4239 23.8455 21.2977 24.3232 20.0625 24.3232C17.4949 24.3231 15.41 22.2647 15.3643 19.708H14.1025L16.1279 16.8906L18.1523 19.708Z" fill="#032A49"/>
  <path d="M20.0635 14.9229C22.6598 14.9229 24.7646 17.0267 24.7646 19.623C24.7646 19.6869 24.7614 19.7507 24.7588 19.8145H25.8975L23.873 22.6309L21.8477 19.8145H22.9746C22.9785 19.7521 22.9805 19.6884 22.9805 19.623C22.9804 18.0119 21.6746 16.7061 20.0635 16.7061C19.2361 16.7062 18.4909 17.0501 17.959 17.6045L16.6719 16.3691C17.5261 15.4788 18.7302 14.923 20.0635 14.9229Z" fill="#032A49"/>
  <path d="M32.5576 6.89941C33.6638 6.89941 34.5603 7.79625 34.5605 8.90234C34.5605 10.0086 33.6639 10.9062 32.5576 10.9062C31.4514 10.9062 30.5547 10.0086 30.5547 8.90234C30.5549 7.79631 31.4515 6.8995 32.5576 6.89941Z" fill="#032A49"/>
  <path d="M7.4707 6.17285C8.57694 6.1729 9.47363 7.07051 9.47363 8.17676C9.47345 9.28285 8.57682 10.1796 7.4707 10.1797C6.36454 10.1797 5.46795 9.28288 5.46777 8.17676C5.46777 7.07048 6.36443 6.17285 7.4707 6.17285Z" fill="#032A49"/>
</svg>
