<svg width="38" height="36" viewBox="0 0 38 36" fill="none" xmlns="http://www.w3.org/2000/svg">
<g id="Layer_1" clip-path="url(#clip0_122_18275)">
<path id="Vector" d="M1.2631 20.0603C0.855344 19.3097 0.637451 18.5223 0.637451 17.708C0.637451 12.7067 8.85876 8.6521 19.0003 8.6521C29.1419 8.6521 37.3632 12.7067 37.3632 17.708C37.3632 22.7094 29.1419 26.764 19.0003 26.764C13.8678 26.764 9.22702 25.7255 5.89364 24.0511" stroke="#49079F" stroke-width="1.27423" stroke-miterlimit="10"/>
<path id="Vector_2" d="M7.03643 3.14346C7.40596 2.36746 7.92202 1.75073 8.59099 1.32641C12.5806 -1.20802 20.4744 4.0711 26.2237 13.1181C31.9731 22.1651 33.4002 31.5549 29.4106 34.0893C25.421 36.6238 17.5271 31.3447 11.7778 22.2976C8.87769 17.7346 7.07848 13.0837 6.51782 9.26995" stroke="#49079F" stroke-width="1.27423" stroke-miterlimit="10"/>
<path id="Vector_3" d="M31.3143 9.89563C30.6708 13.5731 28.9468 17.9462 26.253 22.2493C20.5649 31.3345 12.7055 36.6671 8.69928 34.1595C4.69311 31.6518 6.05653 22.2531 11.7447 13.1666C17.4341 4.08133 25.2935 -1.25131 29.2997 1.25637C30.1624 1.79665 30.7765 2.65548 31.1512 3.76278" stroke="#49079F" stroke-width="1.27423" stroke-miterlimit="10"/>
<path id="Vector_4" d="M6.47061 8.17951C7.57689 8.17951 8.4737 7.2827 8.4737 6.17642C8.4737 5.07015 7.57689 4.17334 6.47061 4.17334C5.36434 4.17334 4.46753 5.07015 4.46753 6.17642C4.46753 7.2827 5.36434 8.17951 6.47061 8.17951Z" fill="#032A49"/>
<path id="Vector_5" d="M31.5578 8.90558C32.664 8.90558 33.5609 8.00877 33.5609 6.9025C33.5609 5.79623 32.664 4.89941 31.5578 4.89941C30.4515 4.89941 29.5547 5.79623 29.5547 6.9025C29.5547 8.00877 30.4515 8.90558 31.5578 8.90558Z" fill="#032A49"/>
<path id="Vector_6" d="M3.29923 24.4232C4.4055 24.4232 5.30231 23.5264 5.30231 22.4201C5.30231 21.3138 4.4055 20.417 3.29923 20.417C2.19295 20.417 1.29614 21.3138 1.29614 22.4201C1.29614 23.5264 2.19295 24.4232 3.29923 24.4232Z" fill="#032A49"/>
<path id="Vector_7" d="M21.6546 20.4143C20.9754 21.045 20.0644 21.4311 19.0628 21.4311C16.9591 21.4311 15.2542 19.7262 15.2542 17.6224C15.2542 17.3255 15.2886 17.0363 15.3523 16.7598" stroke="#032A49" stroke-width="1.78392" stroke-miterlimit="10"/>
<path id="Vector_8" d="M16.3154 14.9863C17.0086 14.2638 17.9834 13.814 19.0639 13.814C21.1677 13.814 22.8726 15.5189 22.8726 17.6226C22.8726 17.7896 22.8624 17.9527 22.8407 18.1145" stroke="#032A49" stroke-width="1.78392" stroke-miterlimit="10"/>
<path id="Vector_9" d="M13.1028 17.7079L15.1275 14.8906L17.1523 17.7079H13.1028Z" fill="#032A49"/>
<path id="Vector_10" d="M24.8974 17.8137L22.8726 20.631L20.8479 17.8137H24.8974Z" fill="#032A49"/>
</g>
<defs>
<clipPath id="clip0_122_18275">
<rect width="38" height="35.4159" fill="white"/>
</clipPath>
</defs>
</svg>
