<svg xmlns="http://www.w3.org/2000/svg" width="533.333" height="533.333" version="1.0" viewBox="0 0 400 400"><path d="M175.6 3c-10.8 1.4-26 4.9-38 8.8-14.3 4.6-39.5 17.3-51.5 25.9-27.9 20-47.7 43.1-62.9 73.3-8.7 17.2-13.9 32.1-17.9 50.9-2.6 11.8-2.7 14.2-2.7 38.6s.1 26.8 2.7 38.6c4 18.8 9.2 33.7 17.9 50.9 19.1 38 47.9 67.4 84.9 86.5 30.7 15.8 58.1 22.5 92.4 22.5s61.7-6.7 92.4-22.5c56.5-29.3 96.3-85.9 104.6-149.1 1.9-14.7 1.9-39.1 0-53.8-7.1-54.1-36.9-103.1-82.6-135.9-12.1-8.7-37.2-21.3-51.8-26-21.5-7-32.7-8.8-58.1-9.2-12.4-.2-25.6 0-29.4.5m32.9 77.9c19.1 3.9 36.8 12.7 52.9 26.3 22.6 18.9 35.9 42.5 41.1 72.2 9.6 56-23.7 112.8-77.5 132.1-23.9 8.5-46.8 9.6-71.5 3.4-4.4-1.1-8.3-2.4-8.7-2.7-.4-.4 4.5-.8 10.8-.9 24.9-.6 47.3-8.1 68.1-22.9 8.5-6.1 22-19.9 28.3-29 23.8-34.4 27.4-82.7 8.9-119.7-12.2-24.4-30.8-43.1-55.1-55.2-11.9-6-11.5-6.6 2.7-3.6M162.2 143c18.3 5.6 32.1 21.9 34.8 40.8 2.9 21.1-8.2 41.7-27.7 51.4-7.8 3.9-9 4.2-18.7 4.6-8.6.4-11.6.1-17.4-1.7-35.8-10.9-47.1-55.8-20.7-82.5 10-10.2 20.3-14.4 35.1-14.5 5.5-.1 10.3.6 14.6 1.9"/></svg>