<svg xmlns="http://www.w3.org/2000/svg" width="24" height="24" viewBox="0 0 24 24" fill="none">
  <mask id="mask0_29_1038" style="mask-type:luminance" maskUnits="userSpaceOnUse" x="1" y="2" width="21" height="20">
    <path d="M21.9229 2H1.92285V22H21.9229V2Z" fill="currentColor"/>
  </mask>
  <g mask="url(#mask0_29_1038)">
    <path d="M18.7747 20.7501H4.96109C3.96272 20.7501 3.36723 19.6374 3.92103 18.8068L7.62544 13.2501C7.62544 13.2501 10.7504 14.5001 12.6255 12.6251C14.5005 10.7501 16.3755 14.5001 16.3755 14.5001L19.7508 18.7193C20.4056 19.5377 19.8228 20.7501 18.7747 20.7501Z" fill="currentColor" stroke="currentColor" stroke-width="2.5"/>
    <path d="M10.1252 2.625H9.50019V3.25V9.30914L3.3416 18.4525C2.50273 19.698 3.39514 21.375 4.89673 21.375H18.9754C20.4689 21.375 21.3629 19.714 20.5404 18.4674L14.5002 9.3124V3.25V2.625H13.8752H10.1252Z" stroke="currentColor" stroke-width="1.25"/>
    <path d="M7.62524 3.25H16.3753" stroke="currentColor" stroke-width="2.5" stroke-linecap="round"/>
    <path d="M9.50024 20.75C10.5358 20.75 11.3752 19.9105 11.3752 18.875C11.3752 17.8395 10.5358 17 9.50024 17C8.46471 17 7.62524 17.8395 7.62524 18.875C7.62524 19.9105 8.46471 20.75 9.50024 20.75Z" fill="#151522"/>
    <path d="M15.1252 15.75C15.1252 16.4404 14.5655 17 13.8752 17C13.1848 17 12.6252 16.4404 12.6252 15.75C12.6252 15.0596 13.1848 14.5 13.8752 14.5C14.5655 14.5 15.1252 15.0596 15.1252 15.75Z" fill="#151522"/>
  </g>
</svg>
