<svg xmlns="http://www.w3.org/2000/svg" width="50" height="50" fill="none"><g clip-path="url(#a)"><path fill="#fff" d="M24.853 49.826c13.726 0 24.853-11.127 24.853-24.853S38.579.12 24.853.12 0 11.247 0 24.973s11.127 24.853 24.853 24.853"/><path fill="url(#b)" d="m26.417 44.722-8.312-8.605-2.953 2.86-3.888-4.036 16.569-16.02 12.213 12.626zM22.14 32.23l4.41 4.57 5.544-5.372-4.41-4.57z"/><path fill="#533E94" d="M34.1 14.859 23.317 25.294l-4.423-4.57 9.366-9.046h-8.07l-9.22 8.926 12.2 12.614 14.818-14.324zm-4.971-5.131L25.775 6.28l-3.567 3.448z" opacity=".2"/><path fill="#7800F4" d="M33.097 13.856 22.301 24.292l-4.41-4.57 9.367-9.046h-8.07l-9.22 8.913 12.2 12.626 14.818-14.324zm-4.97-5.131-3.354-3.447-3.568 3.447z"/></g><defs><linearGradient id="b" x1="25.655" x2="25.655" y1="21.004" y2="44.127" gradientUnits="userSpaceOnUse"><stop stop-color="#040000"/><stop offset="1" stop-color="#322951"/></linearGradient><clipPath id="a"><path fill="#fff" d="M0 0h50v50H0z"/></clipPath></defs></svg>