<svg xmlns="http://www.w3.org/2000/svg" width="400" height="400"><path fill="#E3FFC7" stroke="#E3FFC7" d="M181.5 1h38l1 1h8l1 1h5l1 1h4l1 1h4l1 1 7 1 4 2h3l9 3 8 4h2l15 7 20 12 18 14L352 69.5l14 18 7 11 9 17v2l3 5v2l2 3v2l2 3 3 9v3l4 12v4l2 6v5l1 1v8l1 1v38l-1 1v8q-2.25 1.25-1 6l-1 1-1 9-4 12v3l-3 9-2 3v2l-2 3v2l-7 15-2 2-8 15-11 15-25.5 26.5-18 14-11 7-17 9h-2l-5 3h-2l-3 2h-2l-3 2-9 3h-3l-12 4h-4l-6 2h-5l-1 1h-8l-1 1h-38l-1-1h-8q-1.25-2.25-6-1l-1-1-9-1-12-4h-3l-9-3-3-2h-2l-3-2h-2l-15-7-2-2-15-8-15-11L49 331.5l-14-18-7-11-9-17v-2l-3-5v-2l-2-3v-2l-2-3-3-9v-3l-4-12v-4l-2-6v-5l-1-1v-8l-1-1v-38l1-1v-8q2.25-1.25 1-6l1-1 1-9 4-12v-3l3-9 2-3v-2l2-3v-2l7-15 2-2 8-15 11-15L69.5 49l21-16 25-14h2l15-7 9-3h3l4-2h3l5-2h4l1-1h4l1-1h5l1-1h8zm5.5 1-1 1h-9l-1 1h-6l-1 1-10 1-9 3h-3l-15 5-8 4h-2L97 31 71 50 45 77l-17 25-10 20v2l-4 8-5 15-2 11-1 1v4l-1 1-1 12-1 1v9l-1 1v28l1 1v9l1 1v6l1 1v5l1 1v4l3 9v3l5 15 14 30 11 17 11 14 27 25 25 17 20 10h2l8 4 15 5 11 2 1 1h4l1 1 12 1 1 1h9l1 1h28l1-1h9l1-1h6l1-1h5l1-1h4l9-3h3l15-5 30-14 17-11 14-11 25-26 17-25 10-20v-2l4-8 5-15 2-11 1-1v-4l1-1 1-12 1-1v-9l1-1v-28l-1-1v-9l-1-1v-6l-1-1v-5l-1-1v-4l-3-9v-3l-5-15-14-30-11-17-11-14q-15-18-34-32l-17-11-20-10h-2l-8-4-15-5-11-2-1-1h-4l-1-1-12-1-1-1h-9l-1-1z" opacity=".506"/><path fill="#CAFE93" stroke="#CAFE93" d="m191.5 2 7.5.5-7.5.5zm11 0 7.5.5-7.5.5zm-24 1 2.5.5-2.5.5zm42 0 2.5.5-2.5.5zm-49 1v1zm58 0v1zm-64 1v1zm70 0v1zm-75 1v1zm80 0v1zm-85 1v1zm90 0v1zm-94 1v1zm98 0v1zm-102 1v1zm106 0v1zm-109 1v1zm112 0v1zm-124 4v1zm136 0v1zm-139 1v1zm142 0v1zm-147 2v1zm152 0v1zm-154 1v1zm156 0v1zm-161 2v1zm166 0v1zm-168 1v1zm170 0v1zm-172 1v1zm174 0v1zm-176 1v1zm178 0v1zm-180 1v1zm182 0v1zm-184 1v1zm186 0v1zm-193 4v1zm200 0v1zm-205 3v1zm210 0v1zm-213 2v1zm216 0v1zm-219 2v1zm222 0v1zm-225 2v1zm228 0v1zm-231 2v1zm234 0v1zm-238 3q1.5 1-1 2-1.5-1 1-2Zm242 0q2.5 1 1 2-2.5-1-1-2Zm-247 4q1.5 1-1 2-1.5-1 1-2Zm252 0q2.5 1 1 2-2.5-1-1-2Zm-260 7 .5.5-4.5 4.5-.5-.5zm268 0 4.5 4.5-.5.5-4.5-4.5zm-276 8 .5.5-4.5 4.5-.5-.5zm284 0 4.5 4.5-.5.5-4.5-4.5zm-294 11q1.5 1-1 2-1.5-1 1-2Zm304 0q2.5 1 1 2-2.5-1-1-2Zm-308 5q1.5 1-1 2-1.5-1 1-2Zm312 0q2.5 1 1 2-2.5-1-1-2Zm-316 5v1zm320 0v1zm-322 3v1zm324 0v1zm-326 3v1zm328 0v1zm-330 3v1zm332 0v1zm-334 3v1zm336 0v1zm-176 1q3.88.63 5.5 3.5l-2.5 1.5.5-1.5q.67-2.62-2-1.5.75 3.83-2.5 5l-4 1v-1l5.5-2q.5-2.5-2-3.5zm.5 1v1zm5.5-1 4 1q1.25-2.25 2.5.5l-.5 1.5-6-2zm8 0 1 1 1.5-.5q.75 2.25-1.5 1.5-2.5-1-1-2Zm-30 1v1zm0 2 3 1q.92-1.75 3.5-1l-1 4-2.5 1h-4l.5-1.5-1-1zm1.5 1v1zm6.5-1v1zm15 0v1zm2 0v1zm5 0 1.5 3 8 1.5-2.5 1.5-7.5-3zm-177 1v1zm175 0v1zm14.5 0h5v2.5l.5 1.5-3 1q-3.25-1.17-2.5-5Zm152.5 0v1zm-186 4 .5 2-2.5 1-.5-.5zm30.5 1 2 .5q-1 2.5-2 1zm6.5 1v1zm-197 1v1zm156 0v1zm38 0 1.5.5-1.5.5zm156 0v1zm-153 1v1zm-198 1v1zm151 0 .5 1.5h-1zm49 0 .5 1.5h-1zm152 0v1zm-353 2v1zm147 0 1.5.5-1.5.5zm58 0v1zm149 0v1zm-215 1 1 2 2-2 .5.5q.67 2.63-2 1.5v2h-1.5l.5-1.5-1-1zm73 0v1zm2 0v1zm-215 1v1zm210 0v1zm146 0v1zm-218 1v1zm74 0v1zm-213 1v1zm215 0 2.5 1.5-.5 1.5-2.5-2.5zm143 0v1zm-359 2v1zm141 0v1zm219 0v1zm-221 1 .5 2.5h-1zm81 0 .5 2.5h-1zm-222 4v1zm364 0v1zm-365 2v1zm366 0v1zm-224 2 .5 4.5h-1zm81 1 .5 3.5h-1z" opacity=".996"/><path fill="#CAFE93" stroke="#CAFE93" d="M147.5 128h8.5v5.5h1l.5-5.5 1.5 6q3-1 2 2h2.5l4 2 .5-2 2.5-1 6.5 3.5-2 1 3.5 1.5v-2l1.5 1.5-1 1 1 3v1.5h-4.5l-3.5 2.5.5 1.5-1.5.5 2 .5-.5 2q-1.13-2-4.5-1l-1-2.5 1-2.5q3 .75 4-1.5l2-3-6-1.5q1.13-2.67-1.5-2-1 2-5 1l-1-1-1.5.5-1-3.5h-2v-2q-3 1-2-2h-4.5l-3.5-2.5zm13.5 8v1zm9 1-1 2h1zm2 0q-2 2 0 3-1 2 2 1l1-2zm5 4-1 3h2zm-4 5v1zm69.5-18 1 6 .5-6 7.5 1 1.5-.5q1.13 3.33-1.5 2.5-1 2-5 1l-4.5 4.5-1.5 3.5-4.5-2.5.5-2.5 2 1 3.5-4.5zm20 0v1zm-247 1v1zm370 0v1zM128 130l5 1 1 3.5q-3.75 1.75-.5 3.5l1.5.5-4.5 1.5.5-1.5q1.25-3.75-2.5-2.5l-1.5-2.5q1.75-.92 1-3.5Zm9.5 0h5l.5 1.5q2 1 0 2l-.5 1.5q-1-2-2 0l-1.5-1.5q.83-2.62-2.5-1.5-1.5-1 1-2Zm3.5 1v1zm2 1v1zm114-2 5 1.5-2 2q2.25 1.25-.5 2.5-3-.5-3.5 1.5l-.5 1.5q-1.5-2.5-3 1l-1.5-1.5 1-1-.5-1.5q3.75.75 4.5-1.5l-1-3h2zm2 1-2 2q-1 2 2 1zm-2 4v1zm-1 1v1zm-2 1v1zm-16.5-6v1zm32 0h2.5v5l-2 .5.5 1.5q-1-2.5-3.5-2 .75-2.58-1-3.5zm-255 1v1z" opacity=".996"/><path fill="#CAFE93" stroke="#CAFE93" d="m163.5 132 2.5.5-2.5.5zm71 0v1zm152 0v1zm-236 1 1.5.5-1.5.5zm82 0v1zm-64 1v1zm-25 2q1 2 2 0l3.5.5-3.5 2.5h-2q-3-1.5 0-3Zm.5 1v1zm2 0v1zm4.5-1v1zm77 0 2.5.5q-1 2.25-4 1.5l.5 2 1.5-.5q-1.12 3.33 1.5 2.5v-2l3.5 1-.5 2-2-1-3 1-2.5-1 1 2.5q-1.5 3-7.5 1.5l-.5-.5 2.5-2.5 3.5 1v-5.5l1.5-1.5z" opacity=".996"/><path fill="#CAFE93" stroke="#CAFE93" d="M138 137q3-1 2 2-3 1-2-2Zm120 0q2.58-.75 3.5 1l1.5-.5q-1.19 2.5-5 1.5zm-129.5 1v1zm23 0v1zm114 0v1zm2 0v1zm-119 1q1.12 2 4.5 1-.5 2.88 2.5 4 2.25-.75 1.5 1.5l-.5.5-2-2h-2q-1-2.5-3.5-2zm3.5 2v1zm70.5-2v1zm12 0v1zm13 1q1 2 2 0l1.5.5-3.5 3.5h-2l-.5-.5 2-2zm22 0v1zm-87 1q2.5 1 1 2-2.5-1-1-2Zm35 0q1.5 1-1 2-1.5-1 1-2Zm53 1 2.5 1.5-1.5.5q-2.5-1-1-2Zm-154 1 3.5 1v4.5l-1 1 2 1-2.5.5-1-1-1.5.5 1-1-3-3 .5-2.5 2 3 1.5-1.5-2-2zm12 0v1zm57 0v1zm27 0 1.5.5-4.5 3.5q-1-2-2 0l-1.5-.5q.75-2.25 4.5-1.5zm-202 1v1zm114 0v1zm2 0v1zm33 0v1zm28 0 2.5 1.5-1.5-.5q-2.37-.13-1-1Zm50 0 1 1 1.5-.5-3 1.5zm38 0v1zm6.5 0q4.13-1.67 3 2.5l-2 3v2q1.75.92 1 3.5 2.58.75 3.5-1l.5 2.5-1 3-.5 2.5-.5-2q-2.58.75-3.5-1l-1 1-1-1-1.5.5q-.75-2.25 1.5-1.5 1.25 2.25 2.5-.5l-7-4 4-1.5q-.5-2.5 2-3.5zm-3 9v1h1zm5 2v1zm106.5-11v1zm-199 1 2.5 1.5-1.5-.5q-2.37-.13-1-1Zm50 0v1zm2 0v1zm-120 1 3.5.5-3 2 .5 1.5-1.5-1.5 1-1zm43 0 .5.5-2.5 2.5-1.5-.5zm60 0 .5 1.5h-1zm7 0v1zm41 0 2.5 1.5-2.5 1.5q-3-1.5 0-3Zm.5 1v1zM9.5 147v1zm152 0 .5 1.5h-1zm36 0v1zm5 0 .5 1.5h-1zm13 0 1.5.5-1.5.5zm15 0q.5 2.5 4 2l2-1v1l-4.5 1.5.5 1.5-4 1-3-1q-2.25.75-1.5-1.5l2.5-1.5 3 2-1-3 1.5.5zm8 0v1zm2 0 1.5.5-1.5.5zm151 0v1zm-185 2 1.5.5-2 .5v2q2.67-1.12 2 1.5 3 1.25 2 5.5l-4 .5 2 1-1.5.5-1-1-2 2-.5-.5.5-1.5-1.5-.5.5-1.5-3-1-2.5 1q-1.25 3 2.5 2v1l-2 1q-1-2-2 0l-1.5-1.5q.83-2.62-2.5-1.5-2.25-.75-1.5-4.5l2.5-3.5 3.5 1.5-4 1.5.5 4 4-2h7l4 2 .5-4-4-1.5zm-11.5 9v1h1zm10 0v1h1zm-9 2v1zm-21.5-10 .5 1.5h-1zm1.5 0 2 .5q-1 2.5-2 1zm4.5 0h3.5q-1.12 2.67 1.5 2v1l-5-2zm15 0v1zm21 0 2.5.5-2.5.5zm-208 1v1zm104 0 3.5 2.5-2 .5q-1.25 3 2.5 2l1.5 3 3 .5q-1.25 2.75-2.5.5l-2 1q-.92-1.75-3.5-1l-1-2.5q2-1 0-2l1-3zm1.5 6v1zm9.5-6 .5 1.5-3 1.5-.5 4-.5-3.5zm152 0 1.5.5-1.5.5zm117 0v1zm-176 1v1zm-37 2 3.5 3.5-.5.5q-1-2.5-3.5-2zm42 0q1.5 1-1 2-1.5-1 1-2Zm-214 1v1zm169 0v1zm7 0v1zm210 0v1zm-177 1-.5 1.5-1.5 2.5-2.5-.5zm2 0v1zm-34 1 2.5 2.5-.5.5-2.5-1.5zm-178 3v1zm182 0q2.5 1 1 2-2.5-1-1-2Zm206 0v1zm-282 1q1 2 2 0l2.5 2.5-.5 1.5-2-3-1 1q-2.5-1-1-2Zm97 0v1zm71 0v1z" opacity=".996"/><path fill="#CAFE93" stroke="#CAFE93" d="m283.5 161 1.5 2.5q-1 1.5-2-1zm-92 1 2.5 1.5-1.5.5q-2.5-1-1-2Zm15 0q2.5 1 1 2-2.5-1-1-2Zm-11 1 2.5.5-.5 1.5 1.5.5-1.5.5-2.5-2.5zm6 0 3.5.5-2.5 2.5-.5-.5zm85 1v1zm-281 1v1zm390 0v1zm-112 1v1zm-167 1v1zm168 1v1zm-169 1 1.5.5-2 1 2 2-1 1 .5 1.5-2.5-1.5 2-1-1.5-1.5q-1.25 2.25-2.5-.5l1.5.5zm169 1 2.5 4.5q-1 1.5-2-1l-.5-1.5-1.5 5q-2.58-.75-3.5 1-1.5-1 1-2l2.5-1.5zm-280 1v1zm392 0v1zm-284 3v1zm-.5 2q2.67-1.12 2 1.5 1.75.75 1 4l-1 2.5-2-.5zm6.5 0 2.5 1.5q-1 2.5-2 1zm167.5 0h2v6h-2zM3.5 178l.5 2.5H3zm394 0 .5 2.5h-1zm-275 1v1zm155 0 .5 2-2-.5zm-154 2q1 2 2 0l2.5 1.5q-1.25 2.75-2.5.5-4 1-2-2Zm3.5 1v1zm146.5-1q1.5 1-1 2-1.5-1 1-2Zm-156 1 .5 1.5h-1zm11 2 1.5.5-1.5.5zm141 0v1zm-147 1 6 2 2.5-1q1.67 4.13-2.5 3l-3 1-5.5-1.5 2-1-2-1zm7.5 2v1zm139.5-1 1 2 .5-2q2.67-1.12 2 1.5l.5 1.5-2-1-2.5 1zm-6 1v1zm-126 1v1zm142 0v1zm-165 1-.5 1.5-.5 1.5-.5-1.5zm148 0 .5 3 3 .5-7.5.5q-1.25-2.25-2.5.5l.5 1.5-2.5-1.5 3.5-2.5 3 1 1.5-1.5zm-126 1 4 2 2-1q2.5 1 1 2l-2-1-1 1h-6v-1l2.5-.5zm128 0v1zm21 0 .5 1.5h-1zm-283 1 .5 7.5H2zm396 0 .5 7.5h-1zm-253 2 .5 3 2 .5q-1 2.5-2 1-1.75-1.75-.5-4.5Zm-2 1v1zm109 2v1zm-101 1 .5 1.5h-1zm104 0v1zm-8 1v1zm-103 1 6 7 1.5.5-2.5.5-1-1-1.5.5.5-1.5-3 1-.5-1.5q2-1 0-2zm9 0v1zm91 1 1.5.5-1.5.5zm-89 1v1zm99 0 2.5 3.5q-1 2.25-4 1.5l-1-4zm-252 1 .5 7.5H2zm241 0v1zm2 0 .5 1.5h-1zm153 0 .5 7.5h-1zm-245 1v1zm86 0q2.5 1 1 2l-1-1-1.5.5zm8 0v1zm-86 1v1zm-6 1q1 2 2 0l3.5 1q1 3.37-1 4.5l1.5.5 2-1q.92 1.75 3.5 1l1.5 5 2-1q1.25 3.75 5.5 3-1.12-2.67 1.5-2l1.5-.5v2l3.5 3.5 2.5 1.5 1 2-1.5.5-1.5-3h-2.5l-4-2-4 2-3.5-1.5.5-1.5q-2.62.67-1.5-2h-2.5l-1.5.5 1-1-2.5-2.5-2.5-.5q2.25-1.25-.5-2.5l-3.5-1-1-2.5 1-1zm4.5 2v1zm-1 1q-2 3 1 2 1-1-1-2Zm84.5-3h7l1.5 1.5q-1.25 2.75-2.5.5-2.32-1.83-6.5-1l-.5 2q-2.5-1-1-2zm-90 1v1zm9 0v1zm4 0v1zm68 0v1zm-90 1 1.5.5-1.5.5zm94 0 1.5 2.5h-1zm6 0v1zm2 0v1z" opacity=".996"/><path fill="#CAFE93" stroke="#CAFE93" d="m164.5 208 4.5.5-4.5.5zm66 0v1zm2 0v1zm-88 1v1zm98 0v1zm11 0q2.25-.75 1.5 1.5l-.5.5q-2.5-1-1-2ZM146 210l6.5 1 2-1-.5 1.5 1 1-1 2 2 2-.5.5q-2.25.75-1.5-1.5-.75-2.25-4.5-1.5v1q3-.5 3.5 1.5l-1.5-.5q-4-1-5 1l-1-1-1.5.5v-3q2.5-1 2-3.5Zm2 2v1zm-1 1q-2 3 1 2 1-1-1-2Zm81.5-3 .5 1.5h-1zm20 0q3.33-1.12 2.5 1.5l1 2.5-2 .5 1 2h-1l-1.5-2.5-.5 1.5.5 1.5-3-1-2 1-1.5-.5-1.5 2.5.5-1.5 1.5-2.5 2.5-1.5 1.5-2.5zm-78 1v1zm63.5 0 6 .5-1 1 .5 1.5-7.5 2.5q2.25 1.25-.5 2.5l-5 3-4-2-5.5 3.5q.5 2 3.5 1.5 1-2 2 0l2.5 1.5q.67 2.63-2 1.5 1.13-2.67-1.5-2l-1 1-1.5-.5-1.5 2.5.5-1.5q.5-3-1.5-3.5l-3 2q-.08-3.42-2.5-4.5l2.5-1.5q2.5 1 1 2l-1.5-.5 1.5 2.5h1.5v-3h1.5l3.5-3.5V216h3q-1.25 3 2.5 2 2.45-4.45 7.5-5zm-3 4v1h1zm-58.5-2v1zm5 0v1zm45 0q2.5 1 1 2-2.79.67-1-2Zm31 0 2.5 1q1.13 2.67-1.5 2l-1.5.5zm-73 2q2.5 1 1 2-2.79.67-1-2Zm-21 1q1.5 1-1 2l-1.5-.5zm59 0 1.5.5-1.5.5zm-35 1v1zm33 0v1zm-71 1 .5.5-2 2-.5 1.5-.5-3zm40 0v1zm29 0v1zm24 0v1zm15 0v1zm2 0q2 .5 1.5 3.5h-1zm-94 1v1zm3 0v1zm-161 1 .5 2.5H3zm184 0q2.5 1 1 2-2.79.67-1-2Zm48 0 .5 1.5q-1 2.5-2 1zm162 0 .5 2.5h-1zm-232 2 4.5 1.5q-1 2.5-2 1l-.5-1.5-1 1q-2.5-1-1-2Zm-31 1q2.25 1 1.5 4l3 1.5-1.5-.5q-3-.88-1.5 3.5h-1q1.13-3.33-1.5-2.5l-1.5-.5q.75 2.25-1.5 1.5l.5 1.5-1.5 2.5-2.5-3.5q1.75-.92 1-3.5l4 1q.75-2.58-1-3.5zm7 0 1.5.5-1.5.5zm30 0 1.5.5-1.5.5zm53 0v1zm7 0 .5 1.5q-1 2.5-2 1zm26 0 1.5.5-1.5.5zm7 0 3.5 1q1 3.81-1.5 5l-1.5.5v5h-1q-.35-5.15-4-7l2-.5q-1 3 2 2l-1-4.5zm.5 2v1zm-89-1 5 1-.5 2-3-1-1.5.5.5 1.5q-.92-1.75-3.5-1l.5-2 2.5 1zm17.5 0 2.5.5-2.5.5zm11 0 2.5.5-2.5.5zm-76 1v1z" opacity=".996"/><path fill="#CAFE93" stroke="#CAFE93" d="m227.5 225 .5 1.5h-1zm-41 1 4 1 1.5-.5 1 4q-1.75 3.25-3.5-.5l-2 1v-2l-1.5-.5 1-1zm5.5 2v1zm16.5-2 1 2q1-2 2 0l3.5 2.5-1.5.5q-1-2-2 0-2.25-.75-1.5 1.5l-.5.5-2.5-2.5zm8 0v1zm-34 1v1zm89 1-.5 1.5 1 1q.67 2.63-2 1.5l-1-2.5zm-267 1v1zm180 0v1zm212 0v1zm-220 1v1zm2 0v1zm2 0v1zm38 0 1.5.5-1.5.5zm4 0 1.5.5-1.5.5zm-38 1-.5 1.5 1.5 1.5 1.5.5-1.5.5-2.5-2.5zm32 0 .5 2.5h-1zm-81 2 .5 1.5-1.5 4.5-.5-3.5zm77 1v1zm58 0q2.5 1 1 2-2.79.67-1-2Zm-265 1v1zm390 0v1zm-204 1h1.5v3h5v2.5h-1l-.5-1.5q-1 2-2 0l-4.5-2.5zm.5 1v1zm15.5-1 1.5 2.5-7.5 4.5.5-1.5V239h5zm58 0 1.5 2.5q-1 1.5-2-1zm3 1v1zm-262 3v1zm121.5 0q2.67-1.12 2 1.5l1 1v5.5h-3zm6.5 0 1.5 6q2.67-1.12 2 1.5-1 2.5-2 1 2.25-1.25-.5-2.5l-2.5-1.5zm131 0 .5 6-3-.5 2-2zm129 0v1zm-195 2v1zm-192 3v1zm386 0v1zm-261 2 2.5 1.5-1.5 3.5-1.5-3.5zm129 0-.5 1.5 1 1-1.5 1.5-.5-2.5zm2 0v1zm-124 1v1zm127 0 .5 2.5h-1zm2 0v1zm-260 1v1zm384 0v1zm-255 1h3.5v4l-3-.5 1-1-2-2zm133 0 .5 2 2 .5q-1.75.92-1 3.5l-3-1.5zm-128 2v1zm115 0v1zm3 0h1.5q-1.12 2.67 1.5 2v-2q2 .5 1.5 3.5l-1.5-.5-1 1-1.5-.5 1-1-2-2zm-251 1v1zm135 0v1zm110 0v1zm137 0v1zm-256 1 2.5 1.5-3 .5zm11 0v1zm113 0 .5 1.5h-1zm-119 1 1.5.5-1.5.5zm-130 1v1zm138 0q2.5 1 1 2l-3 1q-2.5-1-1-2l2.5 1zm103 0 3 4 1.5-.5q.75 2.25-1.5 1.5-1.25-2.25-2.5.5l1.5 1.5 1.5-.5-1.5 2.5-2-3-1.5.5 3-3-1-1-.5-1.5-1.5.5zm139 0v1zm-135 1v1zm-105 2 .5 2-2-.5zm-6 1 .5 1.5h-1zm3 0v1zm5 0q2.5 1 1 2-2.5-1-1-2Zm95 0v1zm-101 2q2.5 1 1 2-2.79.67-1-2Zm5 0v1zm96 0v1zm-93 1q2.25-.75 1.5 1.5l-.5.5q-2.5-1-1-2Zm90 0 2.5 1.5-2.5 2.5-1.5-1.5zm.5 2v1zm-90.5 1 .5 1.5h-1zm2 0 3.5 1-.5 2-3.5-2.5zm85 0-.5 1.5-.5 1.5-.5-1.5zm6 0v1zm-95 1v1zm-138 1v1zm228 0 1.5.5-1.5.5zm3 0 .5 1.5h-1zm2 0q3 1.5 0 3zm139 0v1zM144 269l3 1.5v1.5h-3zm7.5 0q5.25-1.25 6.5 1.5l-.5 1.5-.5-2-3 .5 2 1-3 .5q1.12-2.67-1.5-2zm87 0v1zm15.5 1q3-1 2 2-3 1-2-2Zm-238.5 1v1zm147 0 4.5 2.5-1.5-.5-1.5.5 4 4-.5.5-4.5-1-1.5 3 .5-1.5 1-3.5h-3v-1.5zm75 0v1zm5 0 1.5.5-1.5.5zm143 0v1zm-150 1 .5 1.5q-2 1 0 2l-1.5 1.5-3 1q-2.5-1-1-2l1 1 3.5-3.5zm4 1 .5 2.5-2 2 .5.5 1.5.5-1.5.5-2.5-1.5q1.75-.92 1-3.5zm-222 3v1zm366 0v1zm-214 1q2.5 1 1 2-2.5-1-1-2Zm-151 1v1zm211 0v1zm153 0v1zm-216 1v1zm2.5 1 2.5 1h3l1.5 1.5q-1.12 3.33 1.5 2.5 2.5 1 1 2l-3.5-2.5-.5-2.5-4 3q-2.5-1.19-1.5-5Zm60.5 0q2.25-.75 1.5 1.5l1 2.5-2.5 1-4-3-1.5.5 1.5-1.5q3.25.75 4-1Zm.5 1q-2 3 1 2 1-1-1-2Zm7.5-1q2.25-.75 1.5 1.5l-.5.5q-2.5-1-1-2Zm-77.5 1q4.5-1.75 3 3.5l-1.5 3.5-1.5-1.5zm-139.5 2v1zm360 0v1zm-144 1 2 1 1.5-.5v3.5h-7l1.5-3zm-215 1v1zm358 0v1zM163 286h4v2h-4z" opacity=".996"/><path fill="#CAFE93" stroke="#CAFE93" d="m174.5 286 .5 1.5h-1zm47 0v1zm2.5 0q4.12-1.33 3 2-4.12 1.33-3-2Zm-201.5 1v1zm356 0v1zm-199 1q3-.5 3.5 1.5l1 5q-1 1.5-2-1 2.5-1.5-1-3 .75-2.25-1.5-1.5zm40 0v1zm-196 1v1zm194 0 .5 2.5-1.5 3.5-.5-3.5zm160 0v1zm-353 2v1zm152 0v1zm200 0v1zm-154 1 2.5 1.5-.5 3.5-1-4-.5 4.5 1 2.5h-4v-3.5l-.5-1.5 2 1 .5-1.5q-2.25-1.25.5-2.5Zm-197 1v1zm150.5 0q2.67-1.12 2 1.5h1l.5-1.5.5 2.5q-2.5 1-2 3.5l-2-.5q2-1 0-2zm2 3v1zm197.5-3v1zm-189 1 .5 2h4v1.5l2 2-.5.5-5 1v-1l3.5-.5-5-4zm24 2 2.5.5-1.5 1.5q-2.5-1-1-2Zm-16 3v1zm10 0v1zm-175 1v1zm173 0 2.5 1 .5 2q1-2 2 0l1.5.5-3.5 1.5-3.5-2.5 1-1zm4.5 3v1zm164.5-3v1zm-194 1v1zm43.5 0 3 .5-2 .5-.5 2zm-35 1h9v3q-2.58.75-3.5-1H186zm7 1v1zm3-1q2.67-1.12 2 1.5l.5 1.5-2.5-1zm21.5 0v1zm-17 1 .5 1.5h-1zm10 0 1.5.5-1.5.5zm-8 1v1zm-170 1v1zm336 0v1zm-334 3v1zm332 0v1zm-330 3v1zm328 0v1zm-326 3v1zm324 0v1zm-322 3v1zm320 0v1zm-317 4q2.5 1 1 2-2.5-1-1-2Zm314 0q1.5 1-1 2-1.5-1 1-2Zm-310 5q2.5 1 1 2-2.5-1-1-2Zm306 0q1.5 1-1 2-1.5-1 1-2Zm-299 8 4.5 4.5-.5.5-4.5-4.5zm292 0 .5.5-4.5 4.5-.5-.5zm-284 8 4.5 4.5-.5.5-4.5-4.5zm276 0 .5.5-4.5 4.5-.5-.5zm-265 10q2.5 1 1 2-2.5-1-1-2Zm254 0q1.5 1-1 2-1.5-1 1-2Zm-249 4q2.5 1 1 2-2.5-1-1-2Zm244 0q1.5 1-1 2-1.5-1 1-2Zm-239 4v1zm234 0v1zm-231 2v1zm228 0v1zm-225 2v1zm222 0v1zm-219 2v1zm216 0v1zm-213 2v1zm210 0v1zm-205 3v1zm200 0v1zm-193 4v1zm186 0v1zm-184 1v1zm182 0v1zm-180 1v1zm178 0v1zm-176 1v1zm174 0v1zm-172 1v1zm170 0v1zm-168 1v1zm166 0v1zm-161 2v1zm156 0v1zm-154 1v1zm152 0v1zm-147 2v1zm142 0v1zm-139 1v1zm136 0v1zm-124 4v1zm112 0v1zm-109 1v1zm106 0v1zm-102 1v1zm98 0v1zm-94 1v1zm90 0v1zm-85 1v1zm80 0v1zm-75 1v1zm70 0v1zm-64 1v1zm58 0v1zm-51 1 2.5.5-2.5.5zm42 0 2.5.5-2.5.5zm-29 1 7.5.5-7.5.5zm11 0 7.5.5-7.5.5z" opacity=".996"/><path fill="#CAFF93" stroke="#CAFF93" d="m199.5 2 3 1h17l1 1h8q1.25 2.25 6 1l1 1h4l1 1h4l1 1 7 1 21 7 30 15 15 10L342 61.5l18 21 10 15 15 30 7 21v3l2 5v4l1 1v4l1 1q-1.25 4.75 1 6v8l1 1v17l1 3-1 1v17l-1 1v8q-2.25 1.25-1 6l-1 1v4l-1 1v4l-1 1-1 7-7 21-15 30-10 15-20.5 23.5-21 18-15 10-30 15-21 7h-3l-5 2h-4l-1 1h-4l-1 1q-4.75-1.25-6 1h-8l-1 1h-17l-3 1-1-1h-17l-1-1h-8q-1.25-2.25-6-1l-1-1h-4l-1-1h-4l-1-1-7-1-21-7-30-15-15-10L59 339.5l-18-21-10-15-15-30-7-21v-3l-2-5v-4l-1-1v-4l-1-1q1.25-4.75-1-6v-8l-1-1v-17l-1-3 1-1v-17l1-1v-8q2.25-1.25 1-6l1-1v-4l1-1v-4l1-1 1-7 7-21 15-30 10-15L61.5 59l21-18 15-10 30-15 21-7h3l5-2h4l1-1h4l1-1q4.75 1.25 6-1h8l1-1h17zM193 96v2l-1 1 1 2-8 4q-3-1-2 2l-4 1q-1 2-2 0l-2 2v1h-5v2l-1-1-2 2v-2l-5 3-3 4v12l3 1q2-1 1 3h1q-1-3 2-2l1 2 1-2v2q-2 1 0 2v1l-4-2h-3q1-3-2-2l-1-6-1 6-1 1q-1 2 2 1l1 4 2-1 1 1q3 1 5-1 2-1 1 2l6 1v1l-2 2 2 2q2-2 6-1-1-3 2-5v3l2-1 2 1h1q-1 2 2 1 1 2 2 0l1 3 2-1q3-1 2 2l-2 1-4 5q-1 3 2 4l3-1 1 1-3 2h3l-3 2v-2l-2 1-3-2-5-6-2 1q-1-2-2 0l-1-2-1 2h-1l2-4-2-1v2l-1-2-1 2-3-1 2-1-1-1 1-1q-1-3-2-1h-4l1-2v-1l-3 3-4-1v-1l-2-1v2q-3 1-2-2h-1q-4-2-4-7l-2 1-2 1 3-2-5-1v2l-1-1-2 2h-3l4-2-3-1-2-2h-4l-2-3-5-1q1 3-1 4l1 3 2-1-1 2h2v1l-2 2 1 1-5 4-2-1-1 1 3 3-3-2-1 1 3 3-4 3v5h-2l-1-3q-4 1-3-2h2l-3-2-1 3 2 3-1 3 2-1 1 2-1-1-2 2h2l1 3q-2 1 0 2l-1-1-1 2 2 4q-3 1-2-1-1-3-2-1l2 4q-1 2 4 1l1 3 2-1v4l3-2v1l-2 2h2q1 2 3-1v2l2-1v3q-5 1-6-1l-3 2 2 1-2 1 6 1 1-1 1 1h1l-1 2h2q-1-3 2-4l-2-3 1-1 3 4h-2l-1 3 1 1q0-3 4-2l-1-1 2-2-1 2 2 1h-1v2l-2-1-1 2h7l1-1 3 2-2 1h2l1 4 2-1 2 1 1-2v2l-3 2 4 1 1-3v5l3 3-3-2-2 1-6-6v-2h-1q-1 4 1 6l-1 2 2-1 7 3h-4q-1 3 4 2v1l-7-1q1 2-2 4 1 4-1 6 1 4-1 3v2l-1 2-1-1-1 2-1-1h-1v-1l-2-3-4 2 1 3 3 1v2l-2-1v2l-1 1 3 2-1 1v8l-1 1 3 1q2 1 0 3l3 4-2 2-1-1-1 2h4q1-3 4-2l1-2 2 4-1 2 2 3 1 1q-3-1-2 2l5-2 3 1 1-1-1 2q2 0 2 3l3-1-1 2 4 3-2 3v1h3v2l3 1h3q2 1 0 3-1 3 2 4l4-3v3l2-1v2q2-1 1 2l2-1v2q2-1 1 2 4 2 0 4-1 2 2 1v2l3 2 1-1-1-2-2-2 1-1q2-1 1 2l3 1 4 4 1-1 2 1q1-2 6-1 2 1 1 2-2-2-5-1l-2 3h2q-1-3 2-2l-1 2 2 1v-2l6 2-1-1h3l-1-3-2 1q-3-1-1-2l2 1 1-2 3-2 1 1 2-2q-1-3 2-2v1l-2 2q-1 2 3 1 2-1 0-2l1-7 3-1q2 1 1-1h1v1h4q1-3-2-2l-2-1 3-3 4 3 2-1-1-3-1-3h2l3-1 2-2v1l-2 3h4l1 1q1-3-1-2h-1l2-2v-4h5v-1h-5l-1-1h2q4 1 3-2l-2 1h-1l4-4-1 2 1 2q-1 3 2 2l1 1-2-3v-3q3-2-1-3l2-2v2l2-1 1 1-2 1h3l1-2 2 3v-1h2l-1-2 2-6-2-1q1 4-1 7h-1q2-2 1-6 1-3 5-2v2q2 1 1-1h1q-1 2 2 1 1-2 2 0v-2h-1q-3 1-2-2l-2 1h-2l5-3 1-2-2-1 4-1v-6l1-1-2-3 1-4 1 2 1-2-3-2 2-1q2-1 1-5l-3-1-3 4-3-1q1-4-2-3v-3q-1-3-2-1v-3q2 1 1-2l-2-1-1 4-2-2-1 2-2-2h2l2-1-2-6q-3-1-5 2l3 1h-1l-2 3-2 1v2l-1-1-4 3-5 2 1 2-1 1q-1-2-2 0-5-2-4 2l-1 1-3-3-2 1q-4-1-3 2h-2l2 3v2l-1-1-2 4-3-1v2l-2-1-3 2v2h-5v2l-1-1-1 1-2-2h-5v-2l-6-4-1 1-3-2v-5q-3 1-2-1l1-2-2 1-2-1q-3-1-2 2h2l4 4v2l-1-1-3-3q-1-2-2 0v-1l-1-1-1-1-2 1q1-3 3-1 2-1 1-2-5-1-6 2v-1l-1-1-2 1 1-2h-1l-3-1q1-3 6-2l-1 2 4 1 4-2 4 2h2l2 3h1l-2-3h2l1-1-1 2 2 1q4-1 6 1h13l1-2v2q3 1 2-1v-2q0 2 3 2l1 2q0-2 4-1l-1-1 6-4 4 2 4-3 2 1 2-1-4-3 1-1 2 2 4-3h2v-3h-6v2h-2q-2 2-4 2l-1 3q-4 1-3-2l4-1v-2l2 1-1-1h2l1-1-1-2 3-1-1-1 2-1 1-1 1 1q-1-3 2-2 1-2 2 0 2-1 0-2h2q2 1 1-2l2 1-4 3-2 2q-2-2-3 1h2l1 2 5-2-1-1v-1l3 2 1-2 3 2q3-1 0-3-4 1-3-1h-2q2-2 1-5l3-1q2 1 1-1h3l-1 2 2-1 1 2v-4q2-1 0-2l3-3v2h7v-1h-1q-3 1-2-1h2l2-1q1-4 3 0l-3 1 2 1q1-2 2 0h1l-2-5q3-2 1-3h2v-1h2l2-2 2 1q3 1 3-1v-3l-2 3v-1l-1-1 2-2 2 1v-2h3v6h2q1-5-1-7h-2q1-3 3-1v-1l-1-2-2 2h-1l2-3h-1v-1l-1-3h2l-2-1 2-1-1-3h1q-1 3 2 2l-1-1 1-1-1-1 1-1-1-1 1-1v-5h-2l-1 1 2 2-3 1v-1l-1-3 2-8q-5-2-3 5l-5 4v-1l-5-6 2-1q0 3 3 4l2-4-5-1-4-5q-3 1-2-1h-1q-3 1-2-1h2l1-1 4 4-2-3h2v-6l-5 1v2l-1-1-5 3 3 1-2 1-2-2 2-5-3 1v-2q-3-1-2 2h-2l1 3q2 1 0 2h2v1l-3-2-6 1 3 1h-2v2q-1 2-2 0l-1 2q-1 2-4 2l-1 3-4-3-3 1 3 2-3 2q-4 1-4-2l-1 2-1 1 1 1-4-2-2 3q-2 1 0 2v1l-1-2-3 1v2h-2v-2l-4 5q-3-1-2 2l-7-2v-1l5 1q1-4-1-5l-1 4-4-2h-7l-4 2-1-4 4-1q-1-4 3-5v2h1l2-2-1 2 1 1 2-1-1-2h2l1-1 2 1v-1h2l6-5v2l2-1 1 1 1-2h-1q-2-1 1-2l2 1v-2l2 1v3l-1-1h-1q1 2-1 1l-3 3h1q5 1 7-1l-1-3 5 1v-1q-3 1-2-2h-2q-1-3 3-2l1-2 3-2q1-2 2 0v-1h1q-1 2 2 1l-1-1 2-1-1 4-3-1 1 3 5 2 3-5-1-1v-6l-1 4q-1 2-2 1l1-2v-12l-5-5h3q0-2-3-2l-2 2q-2-4-3-1-2-3-6-2l-1-3q-4 1-3-1h-1q-3 1-2-1l-2-3-8-1q-1-3 1-4 1-3-2-2v2l-4-2q-1 2-2 0-5-1-6 1zm-16 1v1zm15 0v1zm-15 2-2 3q2 1 0 2 2 1 3 4l3-1 1-2v-1l-2 2h-2q1-4 4-3l1-4q-3-1-3 1zm8 0v1zm34 1q-1 4 3 6-1 2 2 1l-1-1q-1-3 2-2l-1-1v-3zm1 4-1 2h1zm-59 8v1zm2 0q-3 1-1 2l2-1zm71 0v1zm6 0v1zm-79 2v1zm79 0-1 2h1zm-92 14-2 2 4 2h4q-1 3 2 2v-6zm96 0 1 6 2-2q3 1 5-1 2 1 1-2h-1zm14 0v1zm5 0v1zm-125 2q-3 1-1 2 3-1 2 2l2 1q1-2 2 0v-1q2-1 0-2v-2zm23 2v1zm-10 1v1h1zm83 1v1zm-69 1v1zm67 0v1h1zm24 0v1zm-7 2v1zm-120 1-1 2h1zm106 1v1zm14 0v1zm-19 1-1 1 4 2v-2zm-113 3-1 1q-3-1-2 3l5 4h2q1-3-1-3l1-2zm-4 1-1 2h1zm9 0v1zm3 0v1zm39 0v1h1zm69 0-1 4h2l1-1zm7 0v1h1zm2 1v1zm38 0-2 3 1 2h1zm-53 1-1 2h1zm-11 1v1h1zm-22 1v1h1zm12 0v2h-1v2l-1 1 4 1-1-2 1-2zm23 0v1zm-36 1v1zm85 0q-2 3 1 2 1-1-1-2Zm-161 1v1zm64 0v1l3 2h2v-1q-3 1-2-2zm18 0-1 2h1zm18 0v1h2zm-104 1v1zm90 0v1h1zm-24 1v1zm3 0-2 2h2zm35 0-1 2h1zm2 0v1zm3 0v1zm-109 5v1zm78 3v1zm-78 1v1zm0 2v1zm0 1 1 3 1-2zm174 0v4h1q1-5-1-4Zm-174 3-1 2h1zm174 1v1zm-173 1v1zm174 0-1 2h1zm-175 5v1zm-1 2v8h2l1-2q1-4-1-4 1-3-2-2Zm6 6-1 2h1zm160 0v1zm-156 1v1zm154 0v1h1zm3 0v1h1zm-8 3v2l3 1-1-1q1-3-2-2Zm9 2v1zm-165 1v1zm-1 1-1 2h1zm172 0-1 2h1zm-34 8v1zm-104 1v1zm102 0v1h1zm3 0v1zm2 2-3 1 1 4 3 1 1-2zm-15 4v1zm-92 1v1zm-3 1v1h1zm91 0v1zm-91 2v1zm98 0v1zm11 0q-2 1 1 2 1-3-1-2Zm-16 7-2 1v1q3 1 3-1zm-72 4v1h1zm67 2v1zm-8 1 1 3 1-2zm-87 1v1zm2 0v1h1zm120 0q-1 3 2 2 1-3-2-2Zm-131 1v1zm10 0v1zm45 0-1 2h1zm3 1v2l-1 1 6 3q2 0 1-3h-2l1-2h-1zm22 0-2 5 4 3-1-2 3-2-1 2 2 2q2-1 1-3l-3-3q-1-2-2 0zm-81 1q1 3-1 4l3 3 1-2v-2q2 1 1-2zm144 1v1zm-87 1v1zm85 0v3q3 1 2-1zm-82 1v1zm-3 1v1zm1 1v1zm3 0q-2 1 1 2h2zm20 1v1zm62 1q-2 3 1 2 1-1-1-2Zm-2 3v1zm-141 3v8h3v-5l-1-1q1-3-2-2Zm5 7-1 2 2 3 1-3zm134 1-1 3h1zm2 0v1zm-133 2v1zm135 0-2 5 3 1q-1-3 1-3l-2-1zm-134 1-1 2h1zm127 0-1 2h1zm-123 4v1h1zm3 0q-2 1 1 2 1-3-1-2Zm1 3-1 4h2q1-3-1-4Zm0 5v1zm5 0v1h1zm3 0v1zm1 1q-2 3 1 5h-2v-2l-1 2v1q2-1 1 2h5l3-1-3-2zm94 1-1 4h1zm-104 4v3h3v-1zm105 0v1zm5 1q-1 3 2 2 1-3-2-2Zm-93 7v2q-1 2 2 1 2-4-2-3Zm6 2-3 1v2q-1-2-4-1v6l2 1 1-5q3-1 2 2l3-1q1-4-1-5Zm2 0v1zm63 0v1h1zm2 1v4l2 1h-1l-2 3h7v-3h-1l-3-2 3-1v-2zm-71 6v2h4v-2zm12 0-1 2h1zm2 1v1zm0 4v1zm46 1q-3 1-1 3v1l-2-1v5h4l-1-2q-1-5 1-5zm-47 1v4l2-1 1 1 1-1v-3l-1 2h-1q1-3-2-2Zm49 0-1 4h1zm-47 4-2 2h2zm10 3v1h3zm-10 1v1zm16 0-1 1h-6l-1 2h6l1-1-1 2h3v-4zm27 0 1 3v-2h2zm-3 1v1zm-7 1v1h1zm-12 1v1zm4 0v1z"/><path fill="#CAFF93" stroke="#CAFF93" d="m199.5 97 1.5 2.5h-1l-.5-1.5-1 2-.5-1.5zm-5 1q2.5 1 1 2-2.79.67-1-2Zm9 0q1.5 1-1 2-1.5-1 1-2Zm2 1 .5 1.5h-1zm10 6v1zm-75 26v1zm-7 4v2l2-1q1.5 1-1 2l-2.5-1.5zm36 0v1zm0 2 .5 1.5h-1zm2 0 5.5 2.5-1.5.5-1.5-.5q.67 2.63-2 1.5zm82 0v1zm-103 2v1zm1 2q1.5 1-1 2-1.5-1 1-2Zm28 0v1zm4 0v1zm66 1v1zm-72 1v1zm-51 4v1zm34 0v1zm79 0q1.5 1-1 2l-1.5-.5zm-77 1v1zm3 0v1zm2 0v1zm-48 1v1zm48 1v1zm65 0v1zm46 3v1zm1 2 3.5 2.5-1 1 2 2-.5.5q-2.25.75-1.5-1.5l-3-1.5zm-80 2 3.5 1.5-.5 1.5 1.5.5-1 1 .5 1.5-2.5-1.5.5-1.5q-5.85 1.67-4.5-2zm-82 3v1zm163 0v1zm-75 1 2 1 1.5-.5-3.5 2.5v-1l1.5-.5-2-1zm-9 1 4 1 1.5 1.5-.5 1.5-4.5-1.5.5-1.5q-2.37-.13-1-1Zm-2 1v1zm87 12v1zm-13 10 .5 2-2.5 1-.5-.5zm-6 3v1zm2 0v1zm-110 12 3.5 4.5-1.5.5q-3.67-1.17-2-5Zm4 2 1.5.5-1.5.5zm.5 2 3 1.5h-3zm4.5 2q3-.5 3.5 1.5l-1.5-.5q-2.62-.67-1.5 2h4.5l1.5 1.5 1 2-.5 1.5 5.5 2q1.25 3-2.5 2l-1.5-3-5-2.5q.83-2.62-2.5-1.5l-2-1-2.5 1.5 1 1-.5 1.5h2q1.25 3.25 5.5 3.5l-2.5.5-4.5-2q-1.25 3 2.5 2v1l-4.5-1.5.5-1.5q-4 1-5-1l-1 2q-1.08-2.42-4.5-2.5l3.5-.5q1.25 2.25 2.5-.5l-1-2q2-1 0-2-.67-2.63 2-1.5-1.12 2.67 1.5 2l2 1v-2q1.25 2.25 2.5-.5l-.5-1.5zm5.5 4v1zm1 2v1zm-10.5-5v1zm-12 5v3q-2.25.75-1.5-1.5z"/><path fill="#CAFF93" stroke="#CAFF93" d="m174.5 213 1 1 1.5-.5.5 1.5 1.5-.5q-1.25 2.75-2.5.5-3.81-.69-2-2Zm49 0 1 1 1.5-.5-1.5 1.5q-2.5-1-1-2Zm-55 2v1zm51 0q1 2 2 0l1.5.5-2 .5-.5 2zm-74 1q2.5 1 1 2-2.5-1-1-2Zm3 0v1zm2 0v1zm29 0q1.5 3.5 3 1l2.5 2.5-1.5-.5-2 1q-3.62-1.12-2-4Zm66 0v1zm-28 1 1.5.5-4 1.5-.5 2q-2.5-1-1-2zm1 2v1zm-28 3v1zm23.5 0 2 .5q-1 2.5-2 1zm7.5 4q2.63-.67 1.5 2l-2 .5 3 1-3.5 1.5q-2.25-1-1.5-4zm-85 2v1zm127 0v1zm-87 1 1.5.5-1.5.5zm-40 1v1zm-1 2v1zm73 5v1zm-70 11q2.5 1 1 2-2.79.67-1-2Zm123 0v1zm-120 4v1zm115 0v1zm-109 4 2.5 3.5-.5.5-2.5-2.5zm105 0v1zm-1 2 .5 1.5q-.5 2-3.5 1.5v-1zm-100 2v1zm4 10 1.5.5-1.5.5zm81.5 2q3-1 2 2-3 1-2-2Zm-72.5 1 2.5 1.5-1.5.5q-2.5-1-1-2Zm70 0v1z"/><path fill="#0B1000" stroke="#0B1000" d="M197 102q2.58-.75 3.5 1l3-1 5.5 3.5-2.5.5-4-2h-5l-6.5 3 1.5-3 3-1 1.5.5zm13.5 4 2.5 1.5-1.5-.5q-2.38-.13-1-1Zm-23 1v1zm-3 1 1.5.5-6.5 3.5q-1.5-1 1-2zm33 1 6.5 3.5-1.5.5-3-1-2.5-2.5zm-40 2 .5 2q-2.5-.5-3.5 2l-.5-2q2.5.5 3.5-2Zm47.5 2 9.5 4 3.5 3.5 1 5-2.5 3.5h-2l-7 5-.5-.5 2.5-2.5q3.88-.62 5.5-3.5l1-7-1-2.5h-2.5l-3-2-4.5-1zm12 13v1z"/><path fill="#0B1000" stroke="#0B1000" d="M171.5 114q2.63-.67 1.5 2l-5.5 1v-1zm-6 3-.5 1.5q-2 2.5-1 8 2.5 1 2 3.5l2 .5-1.5.5-4.5-3.5-1-5zm-2.5 6-1 2h1zm62.5-2 3.5 1.5-1 2.5-4-1zm-53.5 1 4 .5q-1 2.25-4 1.5zm-2.5 9 4.5 2.5-1.5.5-3.5-2.5zm6 3h3l2.5 1-.5 3-4-2q-2.5-1-1-2Zm47 0q2.63-.67 1.5 2h-2.5l-2 2-5 2-.5-.5 2.5-2.5zm3 0v1zm-43 2 3 3h2l4.5 2-.5 2-7-4H182zm30 3 .5 2-4.5 2-.5-1.5zm-77 2q1.5 1-1 2l-1.5.5 1 1-5.5 5.5.5-1.5q-.75-2.25 1.5-1.5l2.5-2.5q-2.25-1.25.5-2.5zm3 0v1zm2 0 7.5 3-.5 2-5-2-2.5-2.5zm118 0 1.5.5-1 1 .5 1.5-5 1-2 2q-2.5-1-1-2zm3 0v1zm2 0v1zm-68 2 3.5 2.5-1.5-.5q-3.81-.69-2-2Zm9 0q1.5 1-1 2l-1.5-.5zm61.5 0q2.88-.5 4 2.5.82 4.68 4 7l-.5 1.5 1.5.5-1.5.5-1.5-1.5-1-4-3-3V145q-3 1-2-2Zm-116.5 2 1 2 2-1 4.5 2.5-2.5 1.5-3-3q-1.25 2.25-2.5-.5zm98 1q2.63-.67 1.5 2h-3v1.5l-1.5-.5-1.5-.5zm-89 4q3.33-1.12 2.5 1.5l-1.5-.5q-2.38-.12-1-1Zm80.5 0 3 .5-2.5 2.5-3 1-1-1-3 3h-2l-3 2q-1-2-2 0H224q1.13 2.67-1.5 2l-2.5 1q-1.12-2.67 1.5-2l7-4h3l4-3 1.5.5.5-1.5 1.5.5zm-111.5 1 .5 3.5-3 3q.5 3-1.5 3.5l-.5-2.5zm35 0 4 3 5.5 1-.5 3-.5-2h-3.5q-1.25-3.75-5.5-3zm11 5 2.5 1-.5 2-2.5-1zm102 1q2.5 1 1 2-2.79.67-1-2Zm-98 1 5.5 3.5-1.5.5-4.5-2.5zm41 2 .5 2h-2.5q-2.25 4-7.5 4-1.25-3 2.5-2zm58 0 1.5.5-1.5.5zm-155 2 1.5.5-3 1.5q1 3.37-1 4.5 1.75.75 1 4l2 2-.5.5-2.5-2.5-1-2q2-1 0-2l1-4zm64 0v1zm92 0 3.5 2.5q1.67 1.83 1 6l-2.5 3.5.5-1.5-1-1 2-2-1-5.5q-2.75.5-2.5-2Zm-90.5 1 6 2q1 3-2 2l-.5-2-2 1zm20.5 2v1z"/><path fill="#0B1000" stroke="#0B1000" d="m194.5 167 1 1h8l3-1v1l-5 2h-3l-3-1q-2.5-1-1-2Zm83 6 .5 1.5h-1zm-85 1q2.25-.75 1.5 1.5l-.5.5q-2.5-1-1-2Zm14 0 .5 1.5h-1zm-82 2 3.5.5-1 1 .5 1.5-3.5-2.5zm148 0 3.5.5-3.5 2.5zM129 178q2.88-.5 4 2.5v1.5q2.67-1.12 2 1.5l-.5.5-2-2-1.5-.5q2.25-1.25-.5-2.5l-1.5.5zm128.5 1 .5 3q-2.67 1.13-2-1.5zm11.5 0 2 .5-3.5 2.5v-1q2.63.67 1.5-2Zm-126.5 1v1zm-6 3 2 2 1.5-.5 1 2-1.5.5-3.5-2.5zm127 0 2.5.5-6.5 3.5.5-1.5.5-1.5q1.5 2.5 3-1Zm-121 5v1zm114 0 1.5.5-1.5.5zm-108 4 2.5 1.5-1.5.5q-2.5-1-1-2Zm102 0 1.5.5-2.5 1.5q-1.5-1 1-2Zm-97 3 1.5.5-1.5.5zm92 1v1zm-89 1q2.5 1 1 2-2.5-1-1-2Zm87 0q1.5 1-1 2-1.5-1 1-2Zm-84 2 4.5 1q1.13 2.67-1.5 2l-3.5-2.5zm80 0 1.5.5-4.5 2.5q-1.5-1 1-2z"/><path fill="#0B1000" stroke="#0B1000" d="m166.5 202 4 3 1.5-.5 2 3-.5.5-2-2-4.5-1.5.5-1.5-2 1q-1.5-1 1-2Zm66 1 .5 2-4.5 1q-1.5-1 1-2 1.5 2.5 3-1Zm2 0v1zm-8.5 4 2 .5q-1 2.5-2 1zm-50.5 2v1zm43.5 1q4.13-1.33 3 2l-2.5 1zm-40.5 1 2 1 1.5-.5 2 3-.5.5-2-2-3-1zm31 2 .5 1.5h-1zm8 0q1.5 1-1 2-1.5-1 1-2Zm-27 1v1zm-3 1 2.5 1.5q-1.25 2.75-2.5.5l-1.5-.5z"/><path fill="#0B1000" stroke="#0B1000" d="M211.5 215q3.75-1 2.5 2h-1.5l-6 4h-2l-2 2h-5l-1.5-2.5.5-.5 2 2h4l2-2 4.5-1q-1.25-3 2.5-2zm-20 3 3.5 2.5-1.5.5-2.5-1zm-41 1h4l4.5 2q1 3-2 2l-.5-2-1.5.5q.75-2.25-1.5-1.5l-5 3-1.5-.5q.75 2.25-1.5 1.5l-1.5.5zm94 0h5l4.5 2-.5 3-1-2q-1.5 2.5-3-1l-4-1-2.5 1q1.31 3.33-3.5 2v-1zm7.5 2v1zm-91.5 1 .5 1.5h-1zm2 2q2.25-.75 1.5 1.5l-.5.5q-2.5-1-1-2Zm74 0v1zm19 0 .5 1.5h-1zm-112 2 .5 2.5-5 6 .5 1.5q-2.75-1.25-.5-2.5zm22 0h2l11.5 7.5-4.5.5-5.5-4.5q.83-2.62-2.5-1.5-2.5-1-1-2Zm68 0 2.5.5q-.5 2-3.5 1.5-1.5-1 1-2Zm23 1 1.5 2.5q-1 1.5-2-1zm-26 1 .5 1.5h-1zm-2 1 .5.5-2 2-1.5 2.5q-3.75 1-2.5-2h1.5zm31 2q2.5 1 1 2-2.79.67-1-2Zm-38 2v1zm-41 2q2.5 1 1 2-2.5-1-1-2Zm37.5 0q3-1 2 2-3 1-2-2Zm43.5 0 1.5 3q-3.52 1.13-1.5-3Zm-124 1q2.06 1.44 1.5 5.5l2.5 2.5 2.5 1.5 1 4.5 4.5 1 1.5 1.5q-1.12 3.33 1.5 2.5l6 7 6.5 3.5-1 2.5q4.13-1.33 3 2h-1.5l-3.5-3.5.5-1.5h-2L139 244.5q2.25-1.25-.5-2.5l-1.5-.5zm5.5 9v1zm40.5-8v1zm32 0 .5.5-3.5 3.5-.5-2q2.5.5 3.5-2Zm-30 1 2.5 1.5-1.5.5q-2.5-1-1-2Zm75.5 1q3-1.25 2 2.5l-2.5 2.5-.5-.5q3.5-1.5 1-3zm-71.5 1v1zm3 2 5.5 3.5-1.5.5-4.5-3.5zm15 0-.5 1.5-.5 1.5-1.5-.5-.5 1.5q-2.5-1-1-2zm51 2 1.5 1.5-8.5 8.5q-2.62.83-1.5-2.5l6-4z"/><path fill="#0B1000" stroke="#0B1000" d="M199.5 245q3.33-1.12 2.5 1.5l-1.5-.5q-2.37-.13-1-1Zm48 10 1.5.5-14.5 14.5H233q-1.13-2.67 1.5-2l2-3q1.25 2.25 2.5-.5l1.5-2.5q2.25.75 1.5-1.5l3-1.5q-.5-2.88 2.5-4Zm-79 16q.92 1.75 3.5 1v3h1.5v1l-2.5-1.5q.75-2.25-1.5-1.5-2.5-1-1-2Zm63 0 .5 1.5q-1.25 2.75-2.5.5l-1.5-.5zm-5 4 .5 1.5-4.5 4.5-.5-.5 1.5-2.5 2.5-1.5zm-51 1v1zm0 2 5.5 3.5.5 1.5 1-1 3.5 3.5 4.5 6.5 2-1 2.5 1q-1 3.37 1 4.5l-2 .5q1.13-2.67-1.5-2-1-2.5-3.5-2l-1.5-3-12.5-11.5zm17.5 15v1h1zm27.5-13 .5 2.5-3 1.5v1.5l-9.5 9.5H206q1.25 3-2.5 2l-2 1v-1l4.5-2.5-1-2.5q5.5 1.25 7-2.5-.75-2.25 1.5-1.5 3-1.12 2.5-4 2.67 1.13 2-1.5zm-24 11v1zm1 6 2.5.5-2.5.5z"/><path fill="#2C3215" stroke="#2C3215" d="M199.5 101v1zm-3 1v1zm-2 1v1zm12 0v1zm-15 1v1zm17 0v1zm-19 1v1zm21 0v1zm-23 1v1zm25 0v1zm-27 1v1zm29 0v1zm-31 1v1zm33 0v1zm-35 1v1zm44 3v1zm-53 1v1zm55 0v1zm-57 1v1zm59 0v1zm-61 1v1zm63 0v1zm-65 1v1zm6 0v1zm61 0v1zm-69 1 .5.5-2.5 2.5-.5-.5zm71 0v1zm-61 1v1zm51 0v1zm12 1v1zm-76 2v1zm77 0v1zm-77 4v1zm77 1v1zm-2 3v1zm-71 1v1zm4 0v1zm65 0v1zm-67 1v1zm65 0v1zm-63 1v1zm61 0v1zm-59 1v1zm57 0v1zm-55 1v1zm53 0v1zm-51 1v1zm49 0v1zm-2 1v1zm-38 3v1zm31 0v1zm-79 1 3.5.5-3.5.5zm50 0v1zm27 0v1zm47 0 3.5.5-3.5.5zm-126 1v1zm8 0v1zm46 0v1zm23 0v1zm46 0v1zm8 0v1zm-133 1q1.5 1-1 2-1.5-1 1-2Zm12 0v1zm46 0v1zm19 0v1zm46 0v1zm12 0 2.5 2.5-.5.5-2.5-2.5zm-121 1v1zm46 0 3.5 1.5-1.5.5-2.5-1.5zm14 0 1.5.5-2.5 1.5q-1.5-1 1-2Zm47 0v1zm-105 1v1zm103 0v1zm-121 1q1.5 1-1 2-1.5-1 1-2Zm20 0v1zm47 0v1zm52 0v1zm21 1v1zm-142 2v1zm29 0 2.5 1.5-1.5.5q-2.5-1-1-2Zm85 0q1.5 1-1 2l-1.5-.5zm-96 1v1zm-19 1v1zm34 0v1zm77 0v1zm34 0v1zm-109 1v1zm73 0v1zm-71 1v1zm69 0v1zm-109 1v1zm42 0v1zm65 0v1zm42 0v1zm-44 1v1zm-106 1v1zm151 0v1zm-152 2v1zm53 0v1zm100 0v1zm-98 1v1zm2 1v1zm39 0v1zm-98 1 .5 1.5q-1 2.5-2 1zm61 0v1zm35 0v1zm61 0 1.5 2.5q-1 1.5-2-1zm-94 1v1zm31 0v1zm-29 1v1zm27 0v1zm-2 1v1zm68 1v1zm-161 2v1zm87 0v1zm9 0q2.5 1 1 2-2.5-1-1-2Zm64 0v1zm-81 1 1.5.5-1.5.5zm4 0 1.5.5-1.5.5zm-83 4v1zm163 0v1zm-160 1v1zm157 0v1zm-4 1v1zm2 1q3 1.5 0 3zm-154 1q2.5 1 1 2-2.5-1-1-2Zm3 2q2.5 1 1 2-2.5-1-1-2Zm149 0q1.5 1-1 2-1.5-1 1-2Zm-146 2q2.5 1 1 2-2.5-1-1-2Zm143 0q1.5 1-1 2-1.5-1 1-2Zm-139 3v1zm135 0v1zm-132 2v1zm129 0v1zm-126 2v1zm123 0v1zm-120 2v1zm117 0q1.5 1-1 2-1.5-1 1-2Zm-114 2v1zm111 0q1.5 1-1 2-1.5-1 1-2Zm-4 3v1zm-101 1 3.5 2.5-1.5-.5q-3.81-.69-2-2Zm99 0q1.5 1-1 2-1.5-1 1-2Zm-3 2v1zm-91 1q2.5 1 1 2-2.5-1-1-2Zm89 0q1.5 1-1 2-1.5-1 1-2Zm-86 2v1zm3 2v1zm10 0v1zm67 0v1zm-75 1v1zm73 0q1.5 1-1 2-1.5-1 1-2Zm-70 2v1zm67 0v1zm-65 1q2.5 1 1 2-2.5-1-1-2Zm63 0q1.5 1-1 2-1.5-1 1-2Zm-60 2v1zm57 0v1zm-54 2v1zm51 0v1zm-49 1v1zm47 0v1zm-44 2v1zm41 0v1zm-39 1q2.5 1 1 2-2.5-1-1-2Zm37 0q1.5 1-1 2-1.5-1 1-2Zm-34 2v1zm31 0v1zm-28 2v1zm19 0v1zm6 0v1zm-63 2v1zm7 0v1zm87 0v1zm7 0v1zm-103 1 .5.5-2.5 2.5-.5-.5zm11 0q2.5 1 1 2-2.5-1-1-2Zm34 0v1zm15 0v1zm45 0v1zm-58 1v1zm11 0q1.5 1-1 2-1.5-1 1-2Zm35 0v1zm-79 1q2.5 1 1 2-2.5-1-1-2Zm93 0v1zm-56 1 3.5.5-3.5.5zm39 0v1zm-73 1v1zm71 0v1zm-92 1v1zm113 0v1zm-114 2q1.5 1-1 2-1.5-1 1-2Zm27 0v1zm61 0v1zm28 1v1zm-86 1v1zm55 0v1zm-87 1v1zm34 0q2.5 1 1 2-2.5-1-1-2Zm55 0v1zm30 0q2.5 1 1 2-2.5-1-1-2Zm-35 1v1zm-47 1v1zm45 0v1zm-84 1v1zm123 0v1zm-81 1v1zm39 0v1zm-82 1v1zm45 0v1zm-6 1v1zm9 1v1zm29 0v1zm-26 2v1zm23 0v1zm-21 1v1zm18 1v1zm49 0v1zm-64 1v1zm13 0v1zm56 0v1zm-65 2v1zm5 0v1zm58 1v1zm-111 9 9.5 9.5-.5.5-9.5-9.5zm101 0 .5.5-11.5 11.5-.5-.5zm-17 16v1zm-64 3 10.5 10.5-.5.5-10.5-10.5zm59 2 .5.5-9.5 9.5-.5-.5zm-18 13v1zm-20 5 3.5 3.5-.5.5-3.5-3.5zm16 3v1zm-11 1v1zm9 0v1zm-5 1v1z"/><path fill="#ADD480" stroke="#ADD480" d="M198.5 101v1zm2 0 1.5.5-1.5.5zm-5 1v1zm9 0v1zm-11 1v1zm18 2v1zm-25 1v1zm27 0v1zm-29 1v1zm31 0v1zm-33 1v1zm35 0v1zm-37 1v1zm39 0v1zm-41 1v1zm43 0v1zm-45 1v1zm47 0v1zm-49 1v1zm-7 3v1zm65 0v1zm-67 1v1zm69 0v1zm-73 4v1zm77 0v1zm1 3 .5 1.5h-1zm-78 3v1zm77 1q1.5 1-1 2-1.5-1 1-2Zm-76 1q2.5 1 1 2-2.5-1-1-2Zm73 2v1zm-69 1v1zm67 0v1zm-65 1v1zm63 0v1zm-61 1v1zm59 0v1zm-2 1v1zm-50 2v1zm2 1v1zm41 0v1zm-39 1v1zm37 0v1zm-35 1v1zm33 0v1zm-81 1v1zm5 0v1zm45 0v1zm29 0v1zm45 0v1zm5 0v1zm-131 1v1zm10 0v1zm44 0v1zm25 0v1zm44 0v1zm10 0v1zm-121 1v1zm44 0v1zm21 0v1zm44 0v1zm-107 1v1zm105 0v1zm-122 1v1zm19 0v1zm57 0v1zm44 0v1zm-99 1v1zm45 0v1zm7 0v1zm45 0v1zm-95 1v1zm93 0v1zm-91 1v1zm89 0v1zm-117 2v1zm145 0v1zm-110 1v1zm75 0v1zm-111 1v1zm38 0v1zm71 0v1zm38 0q2.5 1 1 2-2.5-1-1-2Zm-107 1v1zm67 0v1zm-65 1v1zm63 0v1zm-107 1v1zm46 0v1zm59 0v1zm46 0v1zm-103 1v1zm55 0v1zm-104 1v1zm51 0v1zm51 0v1zm51 0v1zm-53 1v1zm-101 1v1zm57 0v1zm42 0v1zm56 0v1zm-96 1v1zm2 1v1zm33 0v1zm-31 1v1zm29 0v1zm-27 1v1zm25 0v1zm-23 1v1zm21 0v1zm70 0v1zm-89 1v1zm17 0v1zm-90 1v1zm75 0v1zm13 0v1zm75 0v1zm-86 1v1zm9 0v1zm-5 1 1.5.5-1.5.5zm-82 1v1zm165 0 .5 1.5h-1zm-164 4 3.5 3.5-.5.5-3.5-3.5zm163 0 .5.5-3.5 3.5-.5-.5zm-157 5v1zm151 0v1zm-148 2v1zm145 0v1zm7 0v1zm-149 2v1zm139 0v1zm-136 2q2.5 1 1 2-2.5-1-1-2Zm133 0q1.5 1-1 2-1.5-1 1-2Zm-130 2q2.5 1 1 2-2.5-1-1-2Zm127 0q1.5 1-1 2-1.5-1 1-2Zm-124 2q2.5 1 1 2-2.5-1-1-2Zm121 0q1.5 1-1 2-1.5-1 1-2Zm-118 2q2.5 1 1 2-2.5-1-1-2Zm114 1v1zm-111 1v1zm108 1v1zm-105 1q2.5 1 1 2-2.5-1-1-2Zm102 1v1zm-98 2v1zm95 0v1zm-93 1v1zm91 0v1zm-98 2v1zm12 1v1zm81 0q1.5 1-1 2-1.5-1 1-2Zm-78 2v1zm75 0v1zm-73 1q2.5 1 1 2-2.5-1-1-2Zm70 1v1zm-67 1v1zm65 0v1zm-62 2v1zm59 0v1zm-57 1v1zm55 0v1zm3 1v1zm-55 1v1zm49 0v1zm-47 1v1zm45 0q1.5 1-1 2-1.5-1 1-2Zm-42 2v1zm39 0v1zm-3 2v1zm-31 1v1zm29 0v1zm-63 2 2.5.5-2.5.5zm60 0v1zm35 0 1.5.5-1.5.5zm-98 1v1zm42 0v1zm19 0v1zm42 0v1zm-10 1v1zm-81 1v1zm33 0v1zm13 0v1zm33 0q1.5 1-1 2-1.5-1 1-2Zm-44 1v1zm-51 1v1zm19 0v1zm34 0v1zm5 0v1zm34 0v1zm19 0v1zm-90 1q2.5 1 1 2-2.5-1-1-2Zm69 0q1.5 1-1 2-1.5-1 1-2Zm-92 2v1zm26 0v1zm89 0v1zm-86 2v1zm57 0v1zm-88 1v1zm119 0v1zm-34 1v1zm-86 1v1zm37 0v1zm47 0v1zm-44 2v1zm41 0v1zm-83 1v1zm125 0v1zm-45 1v1zm-33 1v1zm31 0v1zm48 1 .5 2.5h-1zm-127 1v1zm51 0v1zm25 0v1zm-23 1v1zm21 0q1.5 1-1 2-1.5-1 1-2Zm-18 2v1zm15 0v1zm-70 1v1zm57 0q2.5 1 1 2-2.5-1-1-2Zm11 0q1.5 1-1 2-1.5-1 1-2Zm-67 2 7.5 7.5-.5.5-7.5-7.5zm60 0 3.5.5-3.5.5zm63 0v1zm-2 2 .5.5-5.5 5.5-.5-.5zm-8 8 .5.5-4.5 4.5-.5-.5zm-102 1q2.5 1 1 2-2.5-1-1-2Zm10 9 5.5 5.5-.5.5-5.5-5.5zm79 2 .5.5-9.5 9.5-.5-.5zm-72 5v1zm14 13 7.5 7.5-.5.5-7.5-7.5zm38 1 .5.5-8.5 8.5-.5-.5zm-24 12v1zm11 0v1zm-7 1v1zm2 0 2.5.5-2.5.5z"/><path fill="#050500" stroke="#050500" d="M200.5 102v1zm-4 1v1zm-7 3 1.5.5-2.5 1.5q-1.5-1 1-2Zm19 0v1zm3 1v1zm3 1 2.5 2.5-.5.5-2.5-2.5zm-2 1v1zm-3 1v1zm9 1v1zm6 2v1zm-51 2v1zm53 0v1zm-57 1v1zm59 0v1zm-62 2v1zm72 4 .5 1.5h-1zm-76 1 .5 1.5h-1zm74 3v1zm-2 1v1zm-68 1 2.5 2.5-.5.5-2.5-2.5zm68 1q1.5 1-1 2-1.5-1 1-2Zm-6 1v1zm-58 1v1zm2 1v1zm55 0v1zm-46 4v1zm30 3v1zm2 0v1zm-23 1v1zm-53 1v1zm55 0v1zm15 0v1zm55 0v1zm2 0q2.5 1 1 2-2.5-1-1-2Zm-124 1v1zm119 0 1.5.5-1.5.5zm-125 1v1zm60 0v1zm11 0v1zm-73 1 .5.5-2 2 .5 1.5-1.5-1.5zm67 0 1.5.5-1.5.5zm53 0v1zm13 0 2.5 1 1 2.5-.5.5-3-3-1.5.5zm-117 1 .5 1.5h-1zm102 0q2.5 1 1 2l-1.5-.5-.5 1.5-.5-1.5zm4 0v1zm-104 1 2.5 2.5-.5.5-2.5-2.5zm104 1v1zm-8 1 1.5.5-1.5.5zm20 0v1zm-136 1 1.5.5-3.5 1.5v-1zm27 0v1zm85 0v1zm7 0v1zm19 0v1zm-113 1v1zm89 0v1zm22 0v1zm-105 1v1zm77 0v1zm-2 1q1.5 1-1 2-1.5-1 1-2Zm-72 1v1zm109 0v1zm-42 1v1zm43 1q2.5 1 1 2-2.5-1-1-2Zm-105 1q2.5 1 1 2-2.5-1-1-2Zm3 0v1zm58 0v1zm-105 1v1zm101 0v1zm2 1v1zm-52 1q2.5 1 1 2-2.5-1-1-2Zm100 0v1zm-57 1v1zm3 0v1zm-100 1v1zm155 0q2.5 1 1 2-2.5-1-1-2Zm-94 1 3.5 2.5-.5.5-2-2q-2.38-.13-1-1Zm33 0v1zm62 2q2.5 1 1 2-2.5-1-1-2Zm-158 1v1zm70 0v1zm18 0v1zm-82 1v1zm67 0v1zm13 0v1zm-11 1v1zm-77 2v1zm162 0v1zm-160 1v1zm0 2 3.5 3.5-.5.5-3.5-3.5zm157 0 1 1 1.5-.5-1.5 2.5-1-2-1.5.5zm-152 3v1zm151 0v1zm-149 2q2.5 1 1 2-2.5-1-1-2Zm145 0q1.5 1-1 2-1.5-1 1-2Zm-142 2q2.5 1 1 2-2.5-1-1-2Zm137 0q2.5 1 1 2-2.5-1-1-2Zm-134 2v1zm133 0q1.5 1-1 2-1.5-1 1-2Zm-131 2v1zm3 1v1zm123 0v1zm-120 3v1zm117 0v1zm-115 1q2.5 1 1 2-2.5-1-1-2Zm112 1v1zm-108 2v1zm105 0v1zm-101 2q2.5 1 1 2-2.5-1-1-2Zm7 0v1zm83 0v1zm7 0v1zm-2 2v1zm-91 1v1zm89 0v1zm-87 1v1zm2 1v1zm81 0v1zm-75 3q1.5 1-1 2-1.5-1 1-2Zm67 0v1zm2 0q2.5 1 1 2-2.5-1-1-2Zm-68 2 1.5.5-1.5.5zm67 0v1zm-63 1v1zm60 0v1zm-56 1 1.5 2.5q-1 2.5-2 1 2-1 0-2zm51 0q2.5 1 1 2l-1.5.5q2.25 1.25-.5 2.5l.5-1.5-1-1 1-1zm-54 1q2.5 1 1 2-2.5-1-1-2Zm57 0v1zm-11 2q2.5 1 1 2-2.5-1-1-2Zm-38 2 1.5.5-1.5.5zm39 1v1zm-32 4v1zm24 1v1zm-4 2q1.5 1-1 2-1.5-1 1-2Zm2 0v1zm-14 1v1zm3 0v1zm-44 1v1zm50 0q2.5 1 1 2l-1-1-1.5.5zm43 0v1zm-90 1v1zm39 0v1zm48 0v1zm8 0v1zm-104 2v1zm12 0v1zm2 0v1zm77 0v1zm2 0v1zm12 0v1zm-88 2v1zm71 0v1zm21 1v1zm-92 1 1.5.5-1.5.5zm67 0q2.5 1 1 2-2.5-1-1-2Zm-64 1q2.5 1 1 2-2.5-1-1-2Zm62 1 .5.5-2.5 2.5-.5-.5zm10 0v1zm19 2v1zm-118 2v1zm82 0v1zm38 0q2.5 1 1 2-2.5-1-1-2Zm-81 1q1.5 1-1 2-1.5-1 1-2Zm41 0v1zm-39 1q1.5 1-1 2-1.5-1 1-2Zm-43 1 .5 1.5h-1zm82 0v1zm39 1v1zm-79 1v1zm82 0v1zm-74 2v1zm23 0v1zm49 0q3 1.5 0 3zm-121 1q2.5 1 1 2l-1-1-1.5.5zm52 1 2.5 2.5-.5.5-2.5-2.5zm17 0q1.5 1-1 2-1.5-1 1-2Zm52 2v1zm-118 1v1zm53 0v1zm3 0 2.5 1.5-1.5.5q-2.5-1-1-2Zm4 0v1zm3 0v1zm-59 4 2.5 1.5-1.5-.5q-2.37-.12-1-1Zm4 2v1zm99 2v1zm-95 3v1zm2 2v1zm88 0v1zm-86 2 .5 1.5h-1zm83 1v1zm-79 4v1zm75 0v1zm-72 1q1.5 1-1 2-1.5-1 1-2Zm68 0q2.5 1 1 2-2.5-1-1-2Zm-66 3v1zm65 0 .5 1.5h-1zm-62 4v1zm59 0 .5.5-2.5 2.5-.5-.5zm-55 3q2.5 1 1 2-2.5-1-1-2Zm51 0q1.5 1-1 2-1.5-1 1-2Zm-4 5v1zm-40 1v1zm36 1q2.5 1 1 2-2.5-1-1-2Zm-27 8v1zm2 2 1.5.5-1.5.5zm6 3v1zm-2 1v1zm4 0v1zm3 0v1z"/><path fill="#140803" stroke="#140803" d="m198.5 104 3 1 4.5.5-2 1q2 1 0 2v1.5h4q-1.67-4.12 2.5-3l2 3 2-1 2 2 1.5-.5-1.5 2.5h-5l-.5-1.5-1.5-3.5-1.5 2.5q2.25 1.25-.5 2.5H204q.38-2.96-.5-3h-6q-2.5-1.19-1.5-5zm17.5 7v1zm-26.5-4 2.5 1.5v1.5h4v3h-3.5l-4-3 .5 1.5-1.5 1.5h-5l-.5-1.5 3.5-2.5 2 1v-2zm.5 1v1h1zm2 2v1zm-16.5 2v1zm49 0v1zm2 4q2.25-.75 1.5 1.5h1l.5-1.5q1 2.5 3.5 2l.5 2 1-2 .5 3.5q-1.25 2.75-2.5.5l-4-3-4 3q-2.25-1-1.5-4 2.5.5 3.5-2Zm.5 1-2 3q1 1 2-1zm4 1v1zm-62.5-1q5-1 6 2l2.5-1v4h-4l-1.5-3-3.5 2.5q.75 2.25-1.5 1.5v1l2.5 1.5q-1.25 3.75 2.5 2.5.5 2.5 4 2l.5-.5-2-2q-1.12-4.17 3-2.5-1.12 2.67 1.5 2l2.5 1 .5 2h7l-.5 1.5 1 1-1.5 1.5-5-1-1.5-1.5V130h-5q1.67 4.13-2.5 3l-2.5-1-.5-3-2 1-1-1-1.5.5 1-2h-2q2.5-1.5-1-3V123q2.67 1.13 2-1.5h-2l1.5-3.5q1.5 2.5 3-1Zm1.5 1v1zm3 0v1zm-4 10v1zm6 3v1z"/><path fill="#140803" stroke="#140803" d="m229.5 123 4.5 2q1 3.81-1.5 5l-2 1-2-1v2l-4.5 1-1.5-3q-4.75.75-6.5-1.5l8-1.5q-1.67 4.13 2.5 3v-2l1 1 2.5-2.5q-3.75-1.75-.5-3.5Zm-3.5 8v1zm-36-3q3-1 2 2-3 1-2-2Zm18.5 2h5l5.5 3.5-1.5 2.5h-2l-5 4-7 3v-1q2.25.75 1.5-1.5-1.75-.75-1-4 1-1.5 2 1l-1 2.5 4-.5-2-2 .5-.5 4-1 2 1-.5-1.5-2.5-3.5-3.5-.5zm2.5 7v1h1zm-1 1v1zm-26-2h4q-1.13 2.67 1.5 2 1.5 2.5 3-1l2-1 2 3q3.75-1.25 2.5 2.5h-1q.83-2.62-2.5-1.5l1 3-9.5-4q1.13-2.67-1.5-2v2zm9 2q-1 3 2 2 1-3-2-2Zm-1 1v1z"/><path fill="#140803" stroke="#140803" d="m197.5 136 3 1 2-1v1q-2.62-.67-1.5 2l2 .5-1.5 2.5-2-4q-3.81-.69-2-2Zm-16 1v1zm-44 5 3.5 1.5-3 2-3 7v2.5l-4.5 1-3.5 3.5q1.75.75 1 4l-1 2 1 1-2 2q3.5 1.5 1 3l1 2h-2l-1.5 2.5-2.5-2.5 1-1q.75-2.25-1.5-1.5l-1.5.5 1-1q-3.5-1.5-1-3l1-2-.5-1.5 2 1-.5-1.5 1-1V161q2.67 1.13 2-1.5l1-2.5q3.33 1.31 2-3.5l1-1-.5-1.5 1.5-.5-.5-1.5 2 1-.5-1.5 1-1 3.5-4.5zm-1.5 3v1zm-2 1-1 2h1zm2 1v1zm-1 2-1 3h1zm-4 2v1zm2 0v1zm-7 10v3h1q1-4-1-3Zm-1 1v1zm-1 1v1zm1 2v1zm-2 1v1h1zm3 0-2 3h1l2-2zm-4 1v1zm0 2v1h1zm4 0q-2 3 1 2 1-1-1-2Zm-2 1v1zm2 2v1zm-1 1-1 2h1zm67.5-31v1zm15 0v1zm54 0 2 1 1.5-.5v2q2.5 1 2 3.5l2 .5-2 1 6 5q-.75 2.25 1.5 1.5l-.5 1.5 2 2 2 4q-2 1 0 2l-1 2 2 .5.5-2 1.5 2.5-1 2.5-4 1-1 2.5.5 1.5-1-1-1.5.5q2.75-1.08 2-4.5-2.67 1.13-2-1.5 2-1 0-2l1.5-1.5v2l2.5-1.5-1.5-2.5-3 2-.5-.5 2-2-1-2 2-1q-5.56.06-7-4l-2.5-5.5-1.5.5q2.5-1.5-1-3l-1-4.5-2-.5zm3.5 3v1zm0 2v1zm1 1v1h1zm1 2v1zm2 1v1zm4 5v1zm1 2v1zm3 5v1zm3 5v1zm-5 1v1h1zm3 0v1h1zm-78.5-26 2.5 1.5-1.5-.5-1.5.5.5 1.5q-3-1.5 0-3Zm-57.5 2 2.5 1 2.5-1 1.5 3 1.5-.5.5 1.5q1-2 2 0 2.25-.75 1.5 1.5l-3-1-.5 2.5-1-2-.5 3-2.5 1h-3l-1.5-1.5zm4 1-2 2 3 2 1-1-2-1zm-1 3v1zm1 1v1zm2 1v1zm107.5-6v1zm-5 1 1 2 2-2 .5.5-2 2 .5.5 2-1 1 2 .5-3q2.67-1.12 2 1.5l1 1v6q-1 2.5-2 1l-1.5-2.5H251v4h-6.5l-.5 1.5q-.5 2-3.5 1.5-3-1.5 0-3 4.81 1.67 3.5-2.5-1.25-2.75-2.5-.5l-4.5.5 2 1-5 1 3 1-6.5 2.5h-5l-1.5 1.5-.5 1.5q-1.08-2.42-4.5-2.5l2.5-.5 2 1v-2q1.25 2.25 2.5-.5-.75-2.25 1.5-1.5l2 1v-2l9-4 1.5.5q-.75-2.25 1.5-1.5l3-1-.5 1.5 1.5 1.5h5.5v-2h-2q1.13-2.67-1.5-2l-1.5.5q-.75-2.25 1.5-1.5l2.5-1zm-.5 3q-2 1 1 2 1-3-1-2Zm5 1v1zm-2 1v1zm3 0v1zm-24 6v1zm1 1v1zm-5 1v1zm3 0v1zm-75.5-10v1zm.5 2 2.5 1q1-2 2 0l9 5 1.5-.5q-2.25 1.25.5 2.5l3-1q1.25 3.25 5.5 3.5l-4 1.5-.5-3q-1.25 2.25-6 1l-2.5-1.5 2-1-2.5-.5-2.5 1q1.25-3-2.5-2v-2l-4-1q-1.75 3.25-6 4l-2.5-1 1.5-3q4.5 1 5.5-1.5zm5 2v1zm14 6v1z"/><path fill="#140803" stroke="#140803" d="M136.5 155q4.38-1.5 3.5 1.5 2 1.12 1 4.5h-5v-2.5l-1-2zm124 0v1zm0 2q3-.5 3.5 1.5 1.31 4.17-3.5 2.5l-1.5-2.5zm-116 1q5.25-1.5 3.5 3-3.81 1-5-1.5zm12.5 0q4.5-1.5 3 3l-3-1.5zm95 0h4v3h-4zm-73 5q3-1 2 2h4.5l4 2q1.25-2.25 2.5.5.83 2.63-2.5 1.5l-1 1h-8q-1 2.5-3.5 2-1.25-3 2.5-2v-3l-1.5-.5 3-1-2-.5zm5 3v1h1zm2 1v1zm5 0v1zm-7.5-4v1zm32 0 1.5.5-1.5.5zm-39 1 .5 1.5h-1zm43 0 1.5.5-2 .5.5 2 2-1v3l-1.5.5 3 .5 1 2.5-1.5.5-3-3h-2l-2 1-4-2H208l-1-2.5 1.5-.5 2 1 2-2 3 3 .5-.5-1-2zm-43 3v1zm17 0v1zm30 0v1zm-27.5 2 2.5 1h3l2.5-1v3h-8zm-2.5 3 1.5.5-3 1.5-1.5 3q-5.25 1.5-3.5-3 5.05 1.25 6.5-2Zm12 0 3 2 3-1q1.12 2 4.5 1 1.25 3-2.5 2l-1 1H208v-3h-1.5q-2.5-1-1-2Zm67 1v1zm-75 1q.75 1.75 4 1l1.5-.5-.5 2.5-1-1-3 1-1.5-1.5zm-67 1 .5 1.5q-1.5 3-3 0h2zm140 0v2l1.5.5-3.5 2.5q-1-2-2 0l-1.5-1.5h2l.5-2.5q1.5 2.5 3-1Zm-.5 2v1zm-1 1v1zm-136.5-2 2.5 2.5-.5.5-1-1-1.5.5 1-1zm7.5 0h13.5l.5 2h-2l-.5 2h-6l-4-2-1.5.5zm106 0 12 .5-2 1 2 1-1.5.5-1.5-.5-.5 1.5H248v-2q-3 1-2-2Zm18.5 0v1zm-131 4v1zm1.5 0h5v2.5l-2.5 1.5q-3-1.12-2.5-4Zm125 0h4.5l1.5 1.5-4.5 2.5q-2.25-1-1.5-4Zm-102 2 2 .5v8.5h-3v1.5l3 2-.5 1.5 3 1q2.25-1 1.5-4h5.5q1-3 6-2l1.5 3h-2.5l-7 4-7 1-1-1-1.5.5 1-2h-2l-.5-3.5-1 2q-1-2-2 0l-2-2-1.5-.5 1.5-1.5h4.5v-6.5l2-.5zm-5 10v1zm2 0v1zm85-10h2q-1 3 2 2v7h-4zm-96.5 2v2l1.5.5-1 1 .5 1.5-3.5-2.5zm-.5 2v1zm3.5-2v1zm4 0q1.5 1-1 2-1.5-1 1-2Zm98 0 2.5 1.5q-1 2.5-2 1zm4 0 1.5.5-1.5.5zm4 0q2.25-.75 1.5 1.5h2l-4.5 3.5v-2l-1.5-.5 3-1zm1.5 2v1zm-107.5 2v1zm98 1 1.5.5-1.5.5zm-103 1v1zm3 0v1zm103 0v1zm3 0v1zm-30 1q5.25-.75 6 3h4.5q1.8 4.88-4.5 3-1.55-4.25-7.5-3zm21 0q3.75-.75 4.5 1.5l-7.5 4.5-.5-2-2-.5zm.5 1v1zm2 0v1zm-4 1v1h1zm-1 1v1zm-4.5-2v1z"/><path fill="#140803" stroke="#140803" d="m240.5 196 1.5 3.5h-1l-.5-1.5q-1.5 3.5-3 1l-1.5-.5q3.42-.08 4.5-2.5Zm-68 2h4.5v2.5l-1.5-.5-1 1-1.5.5.5 1.5-2-3-1.5 2.5 2 1-2.5.5-2-3-2 2-.5-.5 2.5-2.5q4.25.75 5-2Zm50.5 0h4.5l2 2q3.25-.75 4 1 1.25-2.25 2.5.5l-1.5 1.5-6 1v-1l1.5-.5-2.5-.5-1.5.5.5-1.5-3.5-1zm6 2v1zm4 1v1zm2 0v1zm-61.5 3 1 3 1-2 4.5 3.5-2.5 1.5-5.5-4.5zm2.5 3v1zm50.5-3 1.5 2.5q-1 1.5-2-1zm-2 1 1.5 2.5q-1 2.5-5.5 1.5l-2.5 2.5.5 1.5-2 1q-.92-1.75-3.5-1 1.13 2.67-1.5 2l-.5-.5 3-3q.75-2.25-1.5-1.5l-6 5q-2.6-3.4-10-2l-3 2-7-5q-2.5 1-1 2l1.5.5-3.5.5-2-2-1.5.5 2.5-2.5q3.5.5 4-2h2.5l1.5 3h7q.75-1.75 4-1l1 1q4.75-1.25 6 1l.5-1.5-.5-1.5 5-1v2l3 1 2-2q1.5 2.5 3-1zm.5 2v1zm-6 2v1zm-36 1v1zm2 0v1zm33 0v1zm-1 2v1zm-25.5-4v1zm-7 6q2.5 1 1 2-2.5-1-1-2Z"/><path fill="#140803" stroke="#140803" d="M187.5 214q2.25-.75 1.5 1.5l-.5.5q-2.5-1-1-2Zm6 2 2 1 2-1q1 2 2 0l2 1 2.5-1 .5 2 1.5-.5.5 1.5 1.5-1.5-.5-1.5 1.5 1.5-2.5 2.5-2-1-3 3h-2l-3-2-1.5.5-1.5-2.5-1.5-.5zm1.5 1v1zm3 0v1zm-2 1v1h1zm3 0v1zm3 0v1zm2 0v1zm-6 1v1zm5 0v1zm-3 1v1h1zm11.5-4v1zm-57 4v2l4.5 1.5-1.5 1.5H151l-.5-2-2 1v-1q2.25.75 1.5-1.5l1.5.5 1-1zm2.5 3v1zm88.5-3 3 1 2.5 2.5h-2l-.5 1.5h-5l-1.5-1.5zm.5 1v1zm1 1v1zm-3 1v1h1zm-4.5 0 1.5 4-5-.5zm-.5 2v1h1zm-93.5-1 .5 1.5h-1zm15 0 3.5 2.5-5 .5zm0 4 2 1 3-1q1 2.5 3.5 2l.5 2 1.5-.5q.75 2.25-1.5 1.5l-3 1-2.5 1.5q-.83 2.62 2.5 1.5.75 1.75 4 1l3-4h4.5v1.5h2q-.75 2.25 1.5 1.5l3 3 1.5-.5-1 2.5 2.5-1h3v1l-5 1-1.5-.5.5 3.5 4-2v1l-4 2-2.5-1v2h-6v-6.5l1.5-.5q2-.5 1.5-3.5h-1l-.5 1.5-.5-1.5q2.25-1.25-.5-2.5l-.5 3h-4v2.5l-1.5-.5q-4.17-.67-6 1l-1.5-3q-3 .75-4-1.5V233q4.13 1.67 3-2.5l-2-2zm3.5 1v1h1zm2 1v1zm15 8v1zm2 1v1zm-14.5-11v1zm63 0 2 1 3-1 2 1 1.5-.5-1 1 .5 1.5-2-1 .5 1.5q-.75 2.25 1.5 1.5l1.5 3q-2.58-.75-3.5 1l-2-3-5.5-1.5 2-3zm4.5 1v1h1zm-92.5 1q2.25.75 1.5 4.5l-4 4 .5.5 2.5 1.5-1 2 2.5 1.5 2.5-1 .5-4 1 1h4.5q1.13 2.67-1.5 2-2.5 1.19-1.5 5 3-1 2 2h2.5l4.5-2q-1 3.37 1 4.5l-4 .5-1 4q-2.5.5-3.5-2l-1.5.5q2-1 0-2 .75-2.25-1.5-1.5-1-2.5-3.5-2l-2.5-5-4.5-3.5v-4zm-.5 5v1zm-2 1-1 2h1zm0 3-1 2h1zm2 2v1zm6 7v1zm2 1v1zm105.5-19q3 1.13 2.5 4l2 .5-1 2 1 3-1 1 .5 1.5q-2.25-.75-1.5 1.5-1.12 3-4 2.5.5 2.88-2.5 4l-2 1-1.5-.5 1 2-2 .5v2q-2.67-1.13-2 1.5l-1.5 1.5-1.5-.5q.5 4-2.5 4.5-2-.5-1.5-3.5l1-2.5h4v-1.5q-1.17-2.83-5-3 2-1.13 1-4.5l4.5 2h2q3-.5 2.5-4.5l-2-4 1.5-1.5q1 2 2 0 2.63-.83 1.5 2.5l3.5 2.5q2.75-1.25.5-2.5l.5-1.5.5 2q2.67 1.12 2-1.5l-1-2h2V237h-3q1-3-2-2v-3.5zm.5 1v1zm1 2v1zm1 2v1zm-1 8v1zm-5 5v1zm-11 9v1zm0 2v1zm-20-25h6v2.5l1.5 1.5h5.5v2h-6l-.5-2q-1 2-2 0l-5.5-1-1 2.5q1.19 2.5 5 1.5l-.5 6-1-4-.5 4.5 1 2.5h-6v-2h4v-2h-2q1-3-2-2v-3h-2.5q-2.5-1-1-2l1.5.5q-.75-2.25 1.5-1.5l2 1v-2l1.5-.5-.5-1.5 1.5.5zm2 1v1zm-1.5 3v1zm-65 1 3.5 2.5-1.5 3.5-4.5-4.5.5-.5zm84 0 4.5 1.5-4 3-1.5 2.5-1.5-4.5zm-32 2v1z"/><path fill="#140803" stroke="#140803" d="m212.5 241 2.5 1.5-1.5-.5q-2.38-.13-1-1Zm-22 2 5 3h3l1.5 1.5h-2q.75 2.25-1.5 1.5l-1.5 3q-4.5-1.75-3 3.5-1.25 2.75-2.5.5H184v-6q2.67 1.13 2-1.5 1.25-2.75 2.5-.5l2.5-.5-2-1 3-2-2-1zm2.5 2v1zm-1 1v1zm2 0v1h1zm-1 1v1zm3 0v1h1zm12.5-4v2l1.5.5-1.5.5q-1.25-2.25-2.5.5l3 1.5v4h5v4h-5v-4h-4v-1.5l-4-3 2.5-2.5 1 1 1.5-.5-.5-1.5q1.5 2.5 3-1Zm-4.5 3v1zm-1 1v1zm2 0v1h1zm6.5-3 1.5.5-1.5.5zm4 0 .5 1.5-2.5 1.5v-1h1.5zm-4 3v1z"/><path fill="#140803" stroke="#140803" d="M200.5 252q.92 1.75 3.5 1l1 2.5-1.5 1.5h-7q-2.75-1.25-.5-2.5-.88-3 3.5-1.5zm-30.5 3h5.5l1.5 1.5q.5 3-1.5 3.5-4.5 1-5.5-1.5zm54.5 0h4.5v1.5q2.25 1.25-.5 2.5l-4 1q-2-.5-1.5-3.5zm-67 1 1 1 1-1 1 1 1.5-.5q.75 4.75-2.5 5.5l-3.5-4.5zm2.5 1v1zm5.5 4q6.42.08 8.5 4.5.75 4.25-2 5l2.5 2.5 1.5-.5q-2 1 0 2l-.5 1.5-2-2-1.5.5q1.5-4.38-1.5-3.5l-3.5-2.5q2.25-1.25-.5-2.5l-1.5.5.5 1.5-1.5-1.5 2-2-.5-.5-2 1 .5-1.5zm67 0q3-.5 3.5 1.5 1.13 3.33-1.5 2.5l-1.5 1.5q2.25 1.25-.5 2.5-2.62-.67-1.5 2h-3v1.5q2.25 1.25-.5 2.5v-2q-2.62-.83-1.5 2.5l-7 3.5q.5 2.87-2.5 4l-3.5 2.5-1.5 2.5H210v3h-2.5l-4-2-1.5.5 2.5-2.5h5.5l2-4.5V274h4.5l6 2 1-1 1.5.5-1-3 1.5.5 1.5-1.5q-1.67-1.83-1-6l3.5-3.5zm.5 4v1zm-15 15v1zm-1 1v1zm-31-9q3-1.25 2 2.5 2 1 0 2v6l1 2.5q2.5-.5 3.5 2h3l2.5 2.5-5.5.5-1 1-2.5-1-1.5-6-1.5.5.5-1.5-2-1-1.5.5q2.25-1.25-.5-2.5l-1.5.5q.75-2.25-1.5-1.5l-1.5-2.5 1.5-1.5 6.5-1zm4 14v1zm1 2v1zm1 1v1zm-1.5-16v1zm19 0v1zm-10 15v1zm12 1v1zm-13 3 4 1 1.5 1.5-2.5 2.5-1-1-3 1-1.5-1.5q-1.12-3.33 1.5-2.5z"/><path fill="#120900" stroke="#120900" d="M197.5 104v1zm2 0v1zm2 0 1.5.5-1.5.5zm-7 1q2.5 1 1 2l-3 2-.5-1.5zm10 1q4.81-1.67 3.5 2.5l-1.5-.5q-3.81-.69-2-2Zm5 0v1zm3 2 1.5.5-1.5.5zm-16 1 1 1h6.5l-1.5 3h-5l-.5-1.5q-1.75-.75-.5-2.5Zm-14 1 .5.5-2.5 2.5-2.5-.5zm7 0q2.5 1 1 2-2.79.67-1-2Zm21 1 .5 2-3-.5zm7 1 4.5.5-4.5.5zm-41 1v1zm47 0 .5 1.5h-1zm-53 3v1zm-3 1v1zm60 3 3.5 3.5-.5.5-1-1-1.5.5.5-1.5-2.5-.5zm8 0 .5 2.5h-1zm-63 1-.5 1.5q-.83 2.63 2.5 1.5l2-2 .5.5v2.5h-7q-.5-2.87 2.5-4Zm51 0 .5 3 4.5 1 1.5 1.5-1.5-.5h-3l-2.5-1zm-58 1v1zm69 2 .5 1.5h-1zm-70 1v1zm15 2q6.25-1.25 7.5 2.5l-6 .5q1.12-2.67-1.5-2zm4.5 1v1zm31.5-1 5.5.5-5 1 2 .5q1.13 2.67-1.5 2l-2.5-1zm-43 1 1 1 1.5-.5q.75 2.25-1.5 1.5-2.5-1-1-2Zm51.5 0 2.5 1 1.5-.5q-1 2.25-4 1.5zm-53.5 2v1zm59 0v1zm-41 1q3.75-.75 4.5 1.5-.75 3.25 1 4l-1.5-.5-2 1-2.5-3.5 1-1zm-11 1 2.5 1-.5 2-2.5-1zm29.5 0q3.81-1 5 1.5l-3.5 1.5zm-32.5 1 1.5.5-1.5.5zm51 0v1zm-5 1 1.5.5-5.5 2.5v-1zm-25 2 1.5.5-1.5.5zm4 0v1zm7 0 .5 1.5-2.5 3.5.5-1.5zm-18 1v1zm-2 1v1zm8 0 1.5 2.5-1.5-.5-1.5-.5zm2 0 3.5.5-3.5.5zm5 0v1zm2 0v1zm9 0 1.5.5-1.5.5zm-5 1v1zm-10 1v1zm2 0q2.25-.75 1.5 1.5h2l-.5 1.5 1.5.5-2.5.5-2-1-2.5 1q-1.25-3 2.5-2zm7 1 .5 2-2-.5zm-71 1 1.5.5-1.5.5zm4 0v1zm54 0 1.5.5-1.5.5zm70 0v1zm-122 1 2.5 1.5-1.5.5q-2.5-1-1-2Zm124 0v1zm-8 1 1.5.5q-2 1 0 2l-.5 2.5-.5-2-4-.5zm-110 2q2.5 1 1 2-2.5-1-1-2Zm104 1v1zm16 0v1zm-12 1v1zm14 1 2.5 3.5q-1 1.5-2-1zm-115 1 1 1 1.5-.5-2.5 3.5-1.5-.5 2-.5zm91 0q2.5 1 1 2-2.5-1-1-2Zm5 0v1zm-122 2v1zm13 0 3 3 1-1 2-1 1 1 1.5-.5-1 3.5 2 .5-5.5.5q-1-2-2 0-2.25-.75-1.5 1.5h-1l-1-6zm103 0q2.5 1 1 2-2.5-1-1-2Zm15 0 .5 4h4v2h4v2h-4v-1.5q-.5-2-3.5-1.5l-2.5 1zm-96 1v1zm-6 1 1.5.5-5.5 3.5v-1zm8 0v1zm69 0v1zm8 0q2.5 1 1 2-2.5-1-1-2Zm8.5 0q4-.75 6 1.5l-4 1 .5 1.5-1-1-1.5.5zm-123.5 1 .5 2-2-.5zm146 0v1zm-37 2v1zm-111 1v1zm8 0q3.75-1 2.5 2l-4-.5zm27 0 5 1 1.5-.5-1.5 1.5-5 1zm65 0-.5 1.5-.5 1.5-.5-1.5zm12.5 0 2 .5q-1 2.5-2 1zm-1.5 1v1zm-61 1 .5 1.5h-1zm98 0q1.5 1-1 2-1.5-1 1-2Zm-93 1 1 2 1.5-.5-1.5 2.5-1.5-2.5zm-54 1v1zm52 0q1.5 1-1 2l-1.5-.5zm39 0v1zm2 0v1zm2 0v1zm50.5 1 2 .5-.5 1.5 2-1 .5.5-4.5 4.5-.5-2q2.67 1.12 2-1.5zm-150.5 1 1.5.5-1.5.5zm62 0 2.5.5-2.5.5zm35 0v1zm3 0v1zm56 0v1zm-150 1v1zm60 0v1zm27 0v1zm-25 1v1zm34 0v1zm53 0v1zm-55 1v1zm-95 1v1zm50 0q3.5-.5 4 2h5l3 2 4.5.5-1.5 1.5H187q1.25 3-2.5 2l-4-3q-1 2-2 0-3 .5-3.5-1.5-.5-3 1.5-3.5Zm.5 2v2l3-1zm16.5-2 2.5 1.5-1.5-.5q-2.38-.12-1-1Zm12 0q1.5 1-1 2-1.5-1 1-2Zm15 1q4.81-1.67 3.5 2.5h-1q.83-2.62-2.5-1.5l1 3-3 1H212q-1.31-3.33 3.5-2zm55 0v1zm-3 1 .5 2.5h-1zm-151 1q2.5 1 1 2-2.5-1-1-2Zm86 1q2.75 1.25.5 2.5 1.31 4.17-3.5 2.5l-1.5-2.5 3-1.5.5 3 1.5-2.5zm-13.5 1 3 1.5-1.5 2.5-4.5-.5 1.5-1.5 1.5.5zm-67.5 2v1zm8.5 0q3.81-1 5 1.5.87 3-3.5 1.5zm126.5 0 3.5.5-1 2.5h-4v2.5l-1 2.5h-4v-4.5zm-4.5 3v2l-1 1q-1 2 2 1v-4zm15.5-3v1z"/><path fill="#120900" stroke="#120900" d="M266.5 176q1.5 1-1 2-1.5-1 1-2Zm4 0v1zm-142 1v1zm2 0q2.25-.75 1.5 1.5l.5 1.5-2.5-2.5zm11 1q.92 1.75 3.5 1 .75 3-1.5 4l-2.5-1.5zm1.5 2v1zm125.5-2v1zm-3 1q2.5 1 1 2-2.5-1-1-2Zm-130 3v1zm129 0v1zm-125 1 1.5 2.5h-1zm121 0v1zm-116 1 2 1 1.5-.5 1.5 2.5q1.25-2.25 2.5.5l-3 1 .5 1.5-2-1-1.5.5 3-2q-.5-2-3.5-1.5-2.5-1-1-2Zm105 0q1.5 1-1 2-1.5-1 1-2Zm5 0q1.5 1-1 2-1.5-1 1-2Zm-109 3v1zm103 0 1.5.5-1.5.5zm5 0v1zm-1 2 1 1 1.5-.5-1.5 1.5q-2.5-1-1-2Zm-101 1q1.5 1-1 2l-2.5-.5zm97 0 2.5 1.5-1.5-.5q-2.38-.13-1-1Zm-91 1 6.5 1v2h-2q1 3-2 2 .75-3-1.5-4-2.38-.13-1-1Zm83 0 2.5 1.5-3 .5q1 3.81-1.5 5l-2.5.5 2 1-2.5 1.5-1-1-1.5.5 2-5.5 4-1zm-84 2v1zm-2 1 2.5 2.5-.5.5-2.5-2.5zm20 0q2.25-.75 1.5 1.5l-.5.5q-2.5-1-1-2Zm68 0v1zm4 0 1.5.5-1.5.5zm-22.5 1 6 1.5-1.5 1.5H224zm18.5 2v1zm-81 2q4.5-1 5.5 1.5l-2.5.5-3-1zm14 1v1zm52 2v3l-1-1-1.5.5zm-55.5 1 3 1.5h-3zm4.5 1 .5 1.5h-1zm47 1v1zm-42 2 4.5.5-4.5 2.5zm33 0q4.5-1 5.5 1.5l-1.5-.5q-2.25-.75-1.5 1.5l-.5.5-2.5-2.5zm-21 1 .5 1.5h-1zm13 0 .5 1.5h-1zm-30 1v1zm45 0v1zm2 0v1zm-39 1v1zm24 0v1zm-21 1 4.5 3.5-3 1.5v-2.5l-2-2zm3.5 3v1zm20.5-3 .5 1.5q-1.75.92-1 3.5l-2.5 1 .5-1.5-1-1 1.5-2.5zm-1.5 2-1 2h1zm-27.5-1v1zm2 1q2.25-.75 1.5 1.5l-.5.5q-2.5-1-1-2Zm11.5 0h7.5l.5 1.5q-1.25 2.75-6.5 1.5zm18.5 0 .5 1.5h-1zm-10 3 1.5.5-1.5.5zm-14 1v1zm2 1v1zm12 1v1zm-50 2v1zm44 0v1zm-51 3q3.75-1 2.5 2-2.75.5-2.5-2Zm11 0 1.5.5-1.5.5zm79 0q1.5 1-1 2-1.5-1 1-2Zm3 0 2.5.5-2.5.5zm11 0 3.5.5-3.5.5zm-107 2 2.5 1.5-3 1.5zm111 0 1.5 3.5-2 .5zm-94 1 2.5.5-1.5 1.5q-2.5-1-1-2Zm74 0v1zm3 0v1zm-88 1q2.63-.67 1.5 2l-3-.5zm9 1 .5 3 2 .5-3 .5zm77 0v1zm-75 1v1zm-20 1v1zm6 0v1zm24 0 2.5 2.5-1.5 1.5-1.5-2.5zm58 0v1zm9 0q2.25-.75 1.5 1.5l-.5.5q-2.5-1-1-2Zm-11 1 .5 2-2-.5zm32 1v1zm-119 1v1zm120 1 .5 1.5h-1zm-22 1 1.5.5-1.5.5zm-96 1 2.5 1.5-1.5-.5q-2.37-.12-1-1Zm25 0 3.5.5-3.5.5zm50 0v1zm4 0 1 2 1-2 .5 4q-3 .75-4-1.5zm8 0 2.5.5-3 .5v2h6q1.13-2.67-1.5-2v-1l2.5 1.5-1.5 2.5q-5.25 1.25-6.5-1.5zm28 0v1zm-85 1 .5 1.5h-1zm4 0 1.5 3q-3.52 1.13-1.5-3Zm7 0q2.25-.75 1.5 1.5l-.5.5q-2.5-1-1-2Zm32 0 .5 1.5-1 2 1.5-.5h1.5v3q3-1 2 2h2v2l-7-.5q1.75-.75 1-4-1-1.5-2 1l-1.5 3.5-1-2q-1.08 2.75-4.5 2l.5-3 3 1-.5-1.5-1-2 2.5-1.5-.5 1.5q-.5 3 1.5 3.5l2.5-3.5-2-2 .5-.5h1.5zm40 0v1zm-108 1 .5 3.5-1.5-.5q-2.62.67-1.5-2zm2 0 3.5.5-3.5.5zm98 0-.5 1.5 1 2q-1 1.5-2-1zm2 0v1zm-95 1q2.25 1 1.5 4 3-.75 4 1.5l1 5h-1q1.5-4.38-1.5-3.5-1.25 2.25-2.5-.5 1-3.75-2-2.5zm12 0 4.5.5-4.5.5zm85.5 0 2 .5q-1 2.5-2 1zm-67.5 2 .5 2 2 .5-3 .5zm3 0q1 2 2 0l1.5.5-2.5 1.5q-2.5-1-1-2Zm69 0v1zm3 0v1zm-118 1v1zm10 0v1zm72 0 .5 4.5h-1zm-80 1 2.5 4.5h-1l-2-4zm43 2v1zm17 0 2.5 1.5-1.5.5q-2.5-1-1-2Zm37 0 1.5.5-2 .5-.5 4-.5-3.5zm15 0 .5 1.5q-1 2.5-2 1zm-65 1v1zm2 0v1zm6 1h3l3.5 2.5v1.5h3v2.5q-1 2.5-2 1l-2.5-3.5H196v2h-2q1 3-2 2v-4h3v-1.5zm-41 4q4.17-1.12 2.5 3-2.67 1.13-2-1.5zm82.5 0 2 .5q-1 2.5-2 1zm8.5 1 .5 1.5h-1zm-96 1q2.5 1 1 2-2.5-1-1-2Zm81 1 1 1h4.5q1.35 3.67-4.5 2-1 2-2 0l-3.5-1.5zm13 0v1zm-80 1q5.25-1.5 3.5 3h-3v-1.5zm-11 1v1zm88 1v1zm-86 1v1zm3 2 4.5 3.5-1.5-.5q-3 .5-3.5-1.5zm79 0 .5 1.5-2.5 2.5-.5-.5V263q2.75 1 2.5-2Zm-15 3 1.5.5v6.5q-3.33 1.31-2-3.5l-1-2zm-58 2 .5 1.5h-1zm68 0v1zm-59 2 .5 3q-2.67 1.13-2-1.5zm-7 1 .5 2 3 .5-2.5.5q-2.37-.87-1-3Zm63 0 .5 1.5q-.5 2-3.5 1.5v-1q3.5 1 3-2Zm-42 2q3-.5 3.5 1.5v4l-1.5 3.5-3.5-5.5v-2zm1.5 2v1zm18.5-2 1 1h5.5v2h-4q1 3-2 2v4h-2q.83-4.18-1-6.5zm.5 2v1zm-32.5-1 .5 5.5 1.5 1.5q2.62-.67 1.5 2h2.5l4.5 3.5.5 2.5 1.5-.5-1.5 2.5-4.5-5.5V282h-2.5l-5.5-4.5zm9.5 12v1zm39.5-11v1zm-52 2v1zm48 2 1.5.5-5.5 4.5.5-1.5q-.75-2.25 1.5-1.5zm-7.5 6 2 .5-3.5 4.5-1.5-.5 3-2zm-6.5 3 1.5.5-1.5.5zm-11 2 2 1 1.5-.5q-1.12 3.33 1.5 2.5.75-1.75 4-1l3.5 1.5-5 .5 1 2.5q-1 2.5-2 1l-1.5-2.5-4-1-2.5 1-.5 3-.5-4-3-1.5 4.5-.5q1.25 2.25 2.5-.5l-2-1zm2.5 2v1zm-3 1v1zm5.5 5v1z"/><path fill="#0D0301" stroke="#0D0301" d="M195.5 105v1zm-4 2q1.5 1-1 2l-1.5-.5zm18 1 .5 1.5q-1 2.5-2 1zm-25 1v1zm2 0 2.5 1.5-1.5-.5q-2.38-.13-1-1Zm5 1v1zm24 1v1zm-44 5v1zm55 1 .5 1.5q-1 2.5-2 1zm2 0v1zm3 0q1.5 1-1 2-1.5-1 1-2Zm-62 1v1zm64 0 .5 1.5h-1zm-5 1v1zm-63 2v1zm-1 5 2.5 1.5-1.5-.5q-2.37-.13-1-1Zm70 0v1zm-66 2v1zm2 1v1zm5 0v1zm-1 2v1zm51 0v1zm-1 2v1zm-41 3v1zm9 0 .5.5-2 2 .5 1.5-1.5-1.5zm8 0v1zm-15 1 1.5.5-1.5.5zm11 0 1.5.5-1.5.5zm5.5 0 2 .5q-1 2.5-2 1zm8.5 0 1.5.5-3.5 2.5-1-1-1.5.5q-.75-2.25 1.5-1.5 1.5 2.5 3-1Zm4 0 1.5.5-1.5.5zm-21 1v1zm-5 1v1zm11 0 1.5.5-1.5.5zm-3 1q2.5 1 1 2-2.79.67-1-2Zm7 0 .5 1.5h-1zm-10 1v1zm-58 4v1zm9 0 1.5 3 2 .5-1.5.5-2.5-3.5zm-11 1 .5 1.5h-1zm2 1v1zm129 0q2.5 1 1 2-2.5-1-1-2Zm-114 1 2.5 2.5-.5.5q-2.25.75-1.5-1.5zm102 0v1zm-118 1 .5 1.5h-1zm10 0q2.5 1 1 2-2.5-1-1-2Zm106 0v1zm17 0v1zm-118 1v1zm98 0 1.5.5-1.5.5zm7 0q2.5 1 1 2-2.5-1-1-2Zm10 0q2.5 1 1 2-2.5-1-1-2Zm5 0q1.5 1-1 2-1.5-1 1-2Zm-139 1v1zm2 0v1zm15 0v1zm11 0v1zm83 0v1zm11 0v1zm-92 2v1zm79 0v1zm-79 2 1.5.5-1.5.5zm77 0 2.5.5-2.5.5zm-75 2 1.5.5-1.5.5zm69 0q2.5 1 1 2-2.5-1-1-2Zm3 0 1.5.5-1.5.5zm40 0v1zm-107 1 1.5.5-1.5.5zm4 0v1zm58 0q2.5 1 1 2-2.5-1-1-2Zm-55 1v1zm51 0v1zm2 0v1zm10 0v1zm-113 1 1.5 1.5-2.5 2.5-.5-.5 2-2zm150 0v1zm-52 1 1.5.5-1.5.5zm-43 1v1zm41 0v1zm-94 1q2.5 1 1 2-2.5-1-1-2Zm150 0v1zm-94 1v1zm33 0 2.5.5-2.5.5zm7 0v1zm-36 1v1zm27 0v1zm65 0v1zm-156 1q1.5 1-1 2-1.5-1 1-2Zm54 0v1zm7 0 2.5 1.5-1.5-.5q-2.38-.12-1-1Zm26 0 1.5.5-1.5.5zm6 0v1zm-88 1v1zm51 0v1zm12 0v1zm2 0v1zm15 0v1zm68 0v1zm2 0 2.5 1.5-2.5 1.5v-1l1.5-.5-2-1zm-4 1q2.5 1 1 2l-1-1-1.5.5zm-152 1 2.5 1.5q-1 2.5-2 1l.5-1.5q-2.38-.12-1-1Zm4 0 1 1 1.5-.5-1.5 1.5q-2.5-1-1-2Zm149 2 .5 1.5-1 2h2q-1.5 3-3 0zm4 0v1zm-153 1 1 1 1.5-.5-1.5 1.5-1.5-.5-.5 1.5-.5-1.5zm151 0v1zm-147 4v1zm2 0q1 2 2 0l1.5 1.5-1.5 1.5-2.5-2.5zm2.5 1v1zm131.5-1 1.5 2.5h-1zm3 0q2.5 1 1 2-2.5-1-1-2Zm-134 4v1zm14 4v1zm102 0v1zm9 0 .5.5-2.5 2.5q-2.5-1-1-2 1.5 2.5 3-1Zm-118 1q2.5 1 1 2-2.5-1-1-2Zm10 0v1zm101 0 .5 2-2-.5zm-103 1v1zm-5 1v1zm110 0 1.5.5-1.5.5zm-109 2q2.5 1 1 2-2.5-1-1-2Zm106 0v1zm-101 1v1zm99 1v1zm-97 1v1zm2 0v1zm3 0v1zm88 0q1.5 1-1 2-1.5-1 1-2Zm2 0v1zm-91 2 .5 1.5h-1zm3 1-.5 1.5-.5 1.5-.5-1.5zm81 0 1.5 2.5h-1zm3 1v1zm-72 4v1zm53 0 2.5 1.5-1.5.5q-2.5-1-1-2Zm4 0v1zm-61 1v1zm6 0 1.5.5-4.5 1.5v-1zm55 1 1.5.5-1.5.5zm-54 1v1zm51 0v1zm3 1v1zm-15 4 1.5.5-1.5.5zm-35 1v1zm42 0v1zm2 0v1zm-40 1v1zm35 0v1zm-1 2q1.5 1-1 2-1.5-1 1-2Zm-30 2v1zm27 0v1zm-18 2v2l3-2v3q-1-2-2 0l-2-1-1.5.5zm6 0v1zm3 1 .5.5-2.5 2.5q-2.5-1-1-2 1.5 2.5 3-1Zm3 0v1zm-8 3 1.5.5-1.5.5zm-48 1v1zm94 0q2.5 1 1 2-2.5-1-1-2Zm4 0v1zm-100 1q2.5 1 1 2-2.5-1-1-2Zm7 1v1zm85 0v1zm2 0 1.5.5-1.5.5zm6 0v1zm-11 2 1.5.5-1.5.5zm-78 2v1zm76 0 1.5.5-1.5.5zm-70 1q2.5 1 1 2-2.5-1-1-2Zm67 0v1zm-73 1v1zm3 0 2.5 1.5-1.5-.5q-2.37-.12-1-1Zm68 0-.5 1.5-.5 1.5-.5-1.5zm4 0v1zm-66 1 .5 1.5h-1zm68 0v1zm20 0q1.5 1-1 2-1.5-1 1-2Zm0 3v1zm-115 2v1zm34 0q3 .5 2.5 4.5h-1l-.5-2.5-1.5.5 1-1zm45 0v1zm2 0v1zm33 0v1zm2 0v1zm-118 1 .5 2 2 .5-2 .5-.5 2-.5-1.5q2-1 0-2zm42 1v1zm40 0v1zm34 0v1zm2 0q2.5 1 1 2-2.5-1-1-2Zm-40 1 1.5.5-1.5.5zm-36 1v1zm75 0 1.5 2.5h-1zm-72 1q2.5 1 1 2-2.79.67-1-2Zm-43 1q2.5 1 1 2-2.5-1-1-2Zm73 0v1zm-27 1v1zm23 0 1.5.5-1.5.5zm46 1v1zm-67 1 6.5 3.5-1.5.5-3-2-1.5.5.5-1.5q-2.37-.13-1-1Zm18 0 1.5.5-1.5.5zm6 0v1zm-27.5 1 2 .5q-1 2.5-2 1zm25.5 0q1.5 1-1 2-1.5-1 1-2Zm-6 1v1zm9 0q1.5 1-1 2l-1.5-.5zm-31 1 1.5.5-1.5.5zm5 0v1zm9 0v1zm2 0v1zm2 0v1zm-54 1v1zm104 0v1zm-102 1v1zm99 1 .5 1.5h-1zm-98 3v1zm4 3v1zm88 1v1zm-2 2v1zm-76 5v1zm67 1v1zm2 0 1.5.5-1.5.5zm-67 2v1zm7 5q2.5 1 1 2-2.5-1-1-2Zm51 0v1zm2 1q1.5 1-1 2-1.5-1 1-2Zm-54 1v1zm51 0 .5 1.5h-1zm-42 6v1zm35 0q1.5 1-1 2-1.5-1 1-2Zm-27 8q3 1.5 0 3zm21 0-.5 1.5-.5 1.5-.5-1.5zm-12 2v1z"/><path fill="#C5FB8E" stroke="#C5FB8E" d="M195.5 96v1zm2 0 2 2q1-2 2 0l3 1 2-1q2.5 1 1 2l-2-1-2 1-3-2-1 1-1-1-1.5.5zm5 0v1zm5 0v1zm-12 2v1zm-3 1v1zm-15 1v1zm17 0v1zm-18 4 1 1 1.5-.5-.5 1.5 3-2 .5 1.5-5.5 3.5.5-1.5zm10 0v1zm29 0 1.5.5-1.5.5zm4 0 1.5 2.5q-1 1.5-2-1zm-36 1v1zm39 0q2.5 1 1 2-2.5-1-1-2Z"/><path fill="#C5FB8E" stroke="#C5FB8E" d="M217.5 106q2.5 1 1 2-2.5-1-1-2Zm6 2v1zm-63 4q2.5 1 1 2-2.5-1-1-2Zm3 0v1zm3 0 1 1 1-1 1 1 1.5-.5-1.5 1.5q-1-2-2 0-2.5-1-1-2Zm63 0v1zm2 0 .5 1.5h-1zm2 0 2 1q1-2 2 0l2-1-.5 1.5 1 1-.5 1.5-.5-2-2.5 1-3.5-2.5zm3.5 1v1zm-72.5 1v1zm-3 1-.5 1.5-.5 1.5-.5-1.5zm78 2q1.5 1-1 2-1.5-1 1-2Zm-79 2v1zm97 9v1zm-97 2 2.5 1.5-2.5 1.5zm79 0-.5 1.5 1 1-1.5 3.5-.5-2q-2.67-1.12-2 1.5h-1l-.5-1.5-3 2v-1l3-2 1.5.5.5-1.5 2 2 .5-.5-1-2zm-76 3 1.5 2.5q-1 1.5-2-1zm3 0 .5 2 2 .5-1.5.5q-2.37-.87-1-3Zm98 0 2.5 1.5.5 2.5q1.5-2.5 3 1 2.25-.75 1.5 1.5-2 1 0 2l-.5 1.5-2.5-3.5q2.25-1.25-.5-2.5l-2 2-.5-.5q2.25-1.25-.5-2.5l-.5 2-2-.5.5-1.5-2.5-.5zm6.5 6v1zm-137-5h4.5q1.08 2.42 4.5 2.5l-2.5 1.5-2-1-3 1-2.5-1.5zm2 2v1zm93.5-1v1zm-101 1 1 1 1.5-.5q.75 2.25-1.5 1.5-2.5-1-1-2Zm21 0v2l2-1v3l-4.5-2.5zm100 0 1.5.5-2 1 2 1-2.5 1.5.5-1.5-1-1zm8 0 2.5.5-2.5.5zm14 0v1zm-15 2 1.5.5-1.5.5zm-128 1 2.5 1 1 2.5h-3l1-1-2-2zm19 0v1zm30 0q2.5 1 1 2-2.5-1-1-2Zm46 0v1zm-42 1-.5 1.5.5 1.5 1.5-.5q.75 2.25-1.5 1.5l-1-1-1.5.5zm39 0 2.5 1.5 1 2q-1 1.5-2-1 .67-2.62-2-1.5l-1.5 3-1-1-1.5.5zm-44 1v1zm8 0v1zm-8 2v1zm8 0v1zm-72 1 .5 1.5h-1zm9 0 2.5 1.5-1.5.5-1.5-.5v1.5q2.67-1.12 2 1.5l2 2-.5.5-3-3-.5.5-.5 1.5-.5-1.5q2-1 0-2zm6 0q1.5 1-1 2l-1.5-.5zm31 0 1 1 1.5-.5-.5 1.5 3.5 1.5-1.5.5-3-1-1.5.5 1-2zm5 0 1.5.5-1.5.5zm4 0 .5 2-2 .5 2 1-1.5.5-1.5-1.5zm65 0 2.5 2.5-1.5 1.5-1.5-.5 2-1-2-.5zm3 0 1.5.5-1.5.5zm5 0v1zm3 0v1zm29 0 2.5 1.5-1.5-.5q-2.37-.13-1-1Zm4 0q1 2 2 0l1.5 1.5q1 4-1 5l.5 1.5-2.5-1-.5-2-1 2-.5-1.5 1.5-1.5 2 2 .5-.5-3-5zm2.5 1-1 2h1zm-86.5 1 .5 2 2.5 1 1-2q3 1.5 0 3l-1.5.5.5 1.5-3.5-2.5q2-1 0-2zm1.5 3v1h1zm.5-3v1z"/><path fill="#C5FB8E" stroke="#C5FB8E" d="M205.5 146v2l2-1q1.5 1-1 2l-2-1-.5 1.5q2.25 1.25-.5 2.5l-2.5-1.5-.5-1.5-2 3-.5-1.5 1-2.5 3.5 1zm-2.5 4v1h1zm35.5-4 2.5.5-4.5 1.5v-1zm34 0v1zm-147 2v1zm148 0v1zm-113 1v1z"/><path fill="#C5FB8E" stroke="#C5FB8E" d="M207.5 150q1.5 1-1 2-1.5-1 1-2Zm-85 1 .5.5-2 2 .5 1.5-1.5-1.5zm48 1v1zm3 0q1 2 2 0l2 1 1.5-.5-1.5 2.5-.5-2-2.5 1q-2.5-1-1-2Zm8 0 2.5 4.5q-1 1.5-2-1 .75-2.25-1.5-1.5-1.5-1 1-2Zm2 0v1zm35 0v1zm3 0q1 2 2 0l2.5 1.5-1.5-.5q-2.25-.75-1.5 1.5h-1zm6 0v1zm50 0v1zm8 0q3.75-1 2.5 2-2.75.5-2.5-2Zm-69 1 1.5 3-2-.5 1-1zm63 0v1zm-60 1 1.5.5-1.5.5zm-39 2v1zm39 0v1zm-3 1 1.5.5-1.5.5zm-96 1v1zm63 0v1zm97 1 2.5 2.5-.5.5-2.5-2.5zm-167 1v1zm2 0 2 1 1.5-.5-2.5 1.5q-2.5-1-1-2Zm72 0v1zm3 0 2 1 1.5-.5-.5 1.5 3-1q1.5 1-1 2-4.98-.15-5-3Zm10 0 1.5.5-1.5.5zm5 0v3q-2.25.75-1.5-1.5zm3 0 1.5.5-2 1 .5 1.5q-3-1.5 0-3Zm76 0 .5 1.5h-1zm3 0v1zm-8 1v1zm-165 1v1zm84 0 3.5.5-3.5.5zm88 0 1.5.5-2.5 1.5q-1.5-1 1-2Zm-174 1 2.5 1.5-1 2 3-1-2 2 .5 1.5-2 1-1.5-2.5 1-3zm1.5 4-1 2h1zm169.5-4v1zm4 1 .5 3.5q-2 1 0 2l-1 2 1 2q-1 1.5-2-1l-1-3 2-2zm-.5 5-1 2h1zm-87.5-4 1.5.5-1.5.5zm85 0 1.5.5-1.5.5zm-169 5v1zm-3 1 2.5 4.5h-1l-2-4zm4 2v1zm168 0 .5 2 2 .5-1.5.5-1-1-1.5.5zm-3 1v1zm-165 1 1.5.5-1.5.5zm166 2-.5 1.5q.5 3-1.5 3.5l-2.5.5 2 1-1.5.5q-1-2-2 0l-2.5-1.5q-.75-2.25 1.5-1.5v2l2.5-1.5.5-1.5q1.25 2.25 2.5-.5zm-161 1v2l1.5.5q-2 1 0 2l-1.5 1.5v-2l-1.5-.5q2-1 0-2zm157 0v1zm-154 3v1zm4 1q2.5 1 1 2l-1-1-1.5.5zm143 0 1.5 1.5-2.5 2.5-1.5-.5zm.5 1v1zm-147.5 0v1zm5 2 1.5.5-2.5 1.5q-1.5-1 1-2Zm4 1 3.5 2.5-5.5 3.5-.5-1.5 1-2-.5-1.5 2 1zm2.5 2v1zm129.5-2 3.5 1.5-2 2 .5.5 3-1 1.5 2.5-1.5.5q-1-2-2 0l-2-2q-4.37 1.5-3.5-1.5zm1.5 1v1zm-2 1v1zm-135.5 1 .5 3-2-.5zm129 1v1zm-124 1v1zm6 0v1zm125 0v1zm-121 3v1zm2 1 .5.5-2 2-.5 1.5-.5-1.5zm107 0 2.5 1.5q-2 1 0 2l-.5 1.5-1-2-2 2q-1-2-2 0l-2.5-1.5 2.5-2.5.5.5 1.5 2.5 1.5-2.5zm-3.5 3v1h1zm-102.5-1h2.5q-1.12 2.67 1.5 2l1.5-.5q-1.75.92-1 3.5l-4-1.5 2-1-2.5-1.5-1.5.5zm99 2 .5 3.5h-1zm-93 1q.25 4.25 3.5 5.5l-1.5-.5q-2.25.75-1.5-1.5-1.92-.92-.5-3.5Z"/><path fill="#C5FB8E" stroke="#C5FB8E" d="M156.5 201q1.08 2.42 4.5 2.5l-2.5 1.5q-3.63-1.13-2-4Zm3 0v1zm84 0 .5.5-2.5 2.5-1.5-.5zm1 2 .5 2q-3.65.15-5.5 3l-1-1-1 1-1-1-1.5.5 1.5-1.5 1 1 2-2q1 2 2 0zm-4.5 3v1zm7.5-2v1zm-95 1 .5 2 2 .5-1 2.5h-5v-2l4-.5q-1.75-.75-.5-2.5Zm8 0 1 1 1.5-.5-1.5 1.5q-2.5-1-1-2Zm85 1 1.5.5-1.5.5zm10 0v1zm-91 1 1.5.5-1.5.5zm3 0v1zm65 0q2.5 1 1 2l-1-1-1.5.5zm11 0v1zm-82 1v1zm86 0q3.75-1 2.5 2l-5-.5zm-78 1 2.5 1.5-1.5.5-1-1-1.5.5zm60 1 1 1 1.5-.5-1 2 .5 1.5q-1-2-2 0l-1.5.5.5 1.5-2-1-3 1v-1l1.5-.5q-2.25-1.25.5-2.5 1 2 2 0h1.5zm.5 2v1zm-4 1v1zm2 0v1zm-58.5-1q1 2 2 0l2 1q1.25-2.25 2.5.5l-.5 1.5 2-1q1.5 1-1 2l-4-1-1.5.5.5-1.5-3 1v-1l1.5-.5zm3.5 1v1zm2 0v1zm46.5 1q1.5 1-1 2-1.5-1 1-2Zm-42 1v1zm51 0v1zm-83 1 1 1 1.5-.5-2.5 2.5-.5-.5 1-1zm4 0v1zm6 0 1.5.5-2.5 1.5q-1.5-1 1-2Zm3.5 0q2.5-.5 3.5 2l3.5.5-5.5 1.5v-1l1.5-.5-2.5-.5-2 1v-1q2.63.67 1.5-2Zm72.5 0 3 1 2-1 1 1 1.5-.5-1.5 2.5-1-2-3.5 1.5 3 1-4.5 1.5-1.5-3 3-.5-2-1zm.5 3v1h1zm17.5-3v1zm-106 1q1.5 1-1 2-1.5-1 1-2Zm36 0v1zm38 0 .5 2h-2q1.13 2.67-1.5 2l-1.5.5q-1.12-3.33 1.5-2.5zm24 0v1zm10 0 1.5.5-1.5.5zm-69 1 2.5 2.5-.5 1.5 2 1 1-2 1 2q1.25-2.25 2.5.5l-5.5.5q-1.25-3.75-5.5-3-1.12-2.67 1.5-2zm.5 1v1zm-27.5 0v1zm55 0v1zm-67 1v1zm20 0 2.5 1.5-1.5-.5-2 1q-1.5-1 1-2Zm48 1 .5 1.5-2.5 1.5-1.5-.5q.67 2.63-2 1.5l-1-2.5 1.5-.5 3 1h1.5zm19 1q2.5 1 1 2-2.5-1-1-2Zm-59 1 2.5.5q-1.25 2.75-2.5.5l-2 2-1-1-1.5.5zm42 0q2.5 1 1 2-2.5-1-1-2Zm9.5 0 5 1.5-1.5 1.5-2-2-.5.5 1 2q-1 1.5-2-1zm-87.5 1q1 2 2 0l1.5.5-2 1 1 2h-1l-.5-1.5q-1.25 2.25-2.5-.5zm.5 1v1zm42.5-1 1.5.5-1.5.5zm79.5 0q2.67-1.12 2 1.5 3.75 1.75.5 3.5l.5-1.5-1.5-1.5-2 1 .5-1.5zm-76.5 1 .5 1.5h-1zm-4 1 3.5 2.5-.5 3.5-2-4-1.5.5 1 2-.5.5-2-2-1.5-.5 3-.5zm40 0v1zm-3 1 2.5 1.5-.5 1.5-.5-2-2-.5z"/><path fill="#C5FB8E" stroke="#C5FB8E" d="M137.5 228q1.5 1-1 2-1.5-1 1-2Zm84 0 2.5.5-2.5.5zm-89 2 2.5 1.5q1.13 3.33-1.5 2.5l-1.5-1.5 1-1zm132.5 0 3 1.5-1.5 2.5zm-128.5 1v1zm75.5 0h3v1.5l.5 1.5q-1-2-2 0l-1.5-1.5zm-26.5 1 2 1 2-1 2.5 1.5-3 .5-.5 2-3.5-3.5zm3.5 1v1zm21.5-1 1.5 2.5q-1 1.5-2-1zm-74 1v1zm72 0v1zm55 0v1zm-73 2 1.5.5-1.5.5zm17.5 0 3 1.5q-1.5 3-3 0zm2 1v1zm-18.5 1v1zm5 3v1zm2 0 1 1 1.5-.5-.5 2.5-1-1-1.5.5 1-1zm-62 5v1zm2 2-.5 1.5-.5 1.5-.5-1.5zm124 0 .5 2.5h-1zm-127 3 1.5 2.5h-1zm124 0v1zm4 1v1zm-122 2 1.5.5-1.5.5zm4 0 1.5 4.5h-1l-.5-2.5-1 2q-2.5-1-1-2h1.5zm110 0 5.5.5-6 1 2 1q-1 2.5-2 1l-.5-1.5q.06 5.56-4 7-4.25-.75-5 2l-.5-.5 2.5-2.5q4.75.75 5.5-2.5-.75-4.75 2.5-5.5Zm-118 1 1.5.5-1.5.5zm121 1v1z"/><path fill="#C5FB8E" stroke="#C5FB8E" d="m251.5 257 .5.5-2.5 2.5-.5-.5zm-107 1 1.5 3.5h-1zm5 0-.5 1.5q-.88 3 3.5 1.5l1.5 1.5q-2 1 0 2l-.5 2.5-1.5-3.5.5-1.5-3.5.5 2 1-1.5.5-2.5-1.5 1-2-.5-1.5zm106 0v1zm-1 3q1.5 1-1 2-1.5-1 1-2Zm-110 2v1zm104 0 2.5.5-2.5.5zm7 0v1zm-99 2v1zm91 0v1zm-5 1q1.5 1-1 2-1.5-1 1-2Zm3 0 .5 2-2-.5zm-90 1 5 3v-2q3 1.5 0 3h-2q-1-2.5-3.5-2zm92 0v1zm-95 1v1zm88 1 3.5.5-3.5.5zm6 0 1.5 2.5-1.5-.5-2 1-.5-.5zm-92 1v1zm84 0 3.5 1.5-2.5 1.5q-2.37-.87-1-3Zm-82 1v1zm80 1 .5 3-2-.5zm-68 1v1zm63 3v1zm-71 1q2.25-.75 1.5 1.5l.5 1.5-2.5-2.5zm8 0 2.5 2.5-.5.5q-1.25-2.25-2.5.5.75 3.75-1.5 4.5H165q1.13-2.67-1.5-2l.5-1.5q-.88-3 3.5-1.5l1.5-1.5zm62 1q1.4 2.6 6 2l1.5 1.5-2 1 .5 1.5q-3.75 1.25-2.5-2.5l-3.5-2.5-1.5.5zm5 0 2.5.5-2.5.5zm4 1v1zm-17 6q2.63-.83 1.5 2.5h-1zm-46 2v1zm2 0v1zm43 0v1zm-37 6v1zm30 0 1.5.5-1.5.5zm-33.5 1 5 2.5 1 2-1.5 1.5-2.5-2.5q.67-2.62-2-1.5zm32.5 1q1 2 2 0l2.5 1.5q-1 2.25-4 1.5zm-20 4v2l3-1 1 1h4.5l-.5 2-6-2-2 1q-3-1.5 0-3Zm5 0v1zm8 0 1.5.5q-2 1 0 2l-.5 1.5-.5-2-2-.5zm-3 1v1zm2 2v1zm-6 1v1zm4 0v1z"/><path fill="#CDF4A1" stroke="#CDF4A1" d="m186.5 2 4.5.5-4.5.5zm24 0 4.5.5-4.5.5zm-34 1 1.5.5-1.5.5zm47 0 1.5.5-1.5.5zm-54 1 1.5.5-1.5.5zm61 0 1.5.5-1.5.5zm-67 1 1.5.5-1.5.5zm73 0 1.5.5-1.5.5zm-78 1 1.5.5-1.5.5zm83 0 1.5.5-1.5.5zm-87 1v1zm92 0v1zm-96 1v1zm100 0v1zm-104 1v1zm108 0v1zm-111 1v1zm114 0v1zm-117 1v1zm120 0v1zm-123 1v1zm126 0v1zm-129 1v1zm132 0v1zm-135 1v1zm138 0v1zm-143 2v1zm148 0v1zm-153 2v1zm158 0v1zm-160 1v1zm162 0v1zm-176 7v1zm190 0v1zm-192 1v1zm194 0v1zm-196 1v1zm198 0v1zm-201 2v1zm204 0v1zm-206 1v1zm208 0v1zm-211 2v1zm214 0v1zm-217 2v1zm220 0v1zm-223 2v1zm226 0v1zm-229 2v1zm232 0v1zm-236 3v1zm240 0v1zm-244 3q1.5 1-1 2-1.5-1 1-2Zm248 0q2.5 1 1 2-2.5-1-1-2Zm-254 5 .5.5-3.5 3.5-.5-.5zm260 0 3.5 3.5-.5.5-3.5-3.5zm-277 17 .5.5-3.5 3.5-.5-.5zm294 0 3.5 3.5-.5.5-3.5-3.5zm-301 8q1.5 1-1 2-1.5-1 1-2Zm308 0q2.5 1 1 2-2.5-1-1-2Zm-312 5v1zm316 0v1zm-319 4v1zm322 0v1zm-324 3v1zm326 0v1zm-328 3v1zm330 0v1zm-332 3v1zm334 0v1zm-336 3v1zm165 0 .5 1.5h-1zm173 0v1zm-339 2v1zm177 0v1zm163 0v1zm-173 2h6q4.19 3.81 11 5l4 3h3l2.5 1q-1.31 3.33 3.5 2l2 2 5 2 1.5-.5 2.5 4.5 1.5-.5 1 3v5l-2 4 .5 1.5-2-1-5 2-9 6h-2l-7 4h-2l-2 2h-3l-3 2-6 1-6-3h-3l-5.5-2.5.5-1.5-3-1q-1.5 2.5-3-1l-18.5-9q1-3.37-1-4.5v-4l2-2-.5-1.5 1.5-.5-.5-1.5h2l5-3 1 1 3-3h3.5q-1.12-2.67 1.5-2 .75-1.75 4-1l6-4h2l4-3q3.25.75 4-1Zm1.5 1-10 5h-2l-17 9-4 1-5 5q-1 5 1 8l5 3 6 2 24 12h7l3-1 2-2h2l15-8h2l8-4 3-3 1-3-1-4-6-6h-2l-26-13zm-170.5 0v1zm344 0v1zm-345 2v1zm346 0v1zm-196 1v1zm-151 1v1zm348 0v1zm-355 14v1zm362 0v1zm-363 2v1zm364 0v1zm-366 5v1zm368 0v1zm-370 5v1zm372 0v1zm-244 1v1zm114.5 0q3-1 2 2-3 1-2-2Zm-243.5 2v1zm226 0v1zm148 0v1zm-227 2v1zm-148 1v1zm376 0v1z"/><path fill="#CDF4A1" stroke="#CDF4A1" d="m135.5 138 3 1h7l2-1v2l2-1-.5 1.5 1.5 2.5 4 1 2 2h2l3 3h4l1.5-.5q-.5 3 1.5 3.5l2 1q1-2 2 0l2-1 2 4 2-1 3 2v-2l2.5 2.5-.5 1.5 7 3 2 2h3l2 2h5l2-2h3l3-3 4-1 3.5-2.5-.5-1.5 2 1q1.08-2.75 4.5-2l1.5-3q.75 1.75 4 1 .92-1.75 3.5-1-1.13-2.67 1.5-2l1-1 6.5-1v-2q3 1 2-2h3.5l2.5-1 1-2.5-.5-1.5 2 1q1.5-3.5 3-1h6l3-1q1.12 2 4.5 1-1.12 2.67 1.5 2l-.5 1.5 2 2 1 4.5q3-1.25 2 2.5l1 2.5 3 1.5q-1 4 1 5-1 1.5-2-1l-3-7-4-5-1-3-3.5-3.5q-2.17-1.83-7-1l-56 27h-7l-53-26-3-1h-5l-4.5 2-2 5.5-5 7-7 14q1.75.75 1 4l3.5 3.5 37.5 24.5q.75 2.25-1.5 1.5l-6-5q-4.75.75-5.5-2.5.75-2.25-1.5-1.5-.5-2.5-4-2-1.25 2.25-2.5-.5.5-3-1.5-3.5l-4-1-4-4-4-1-2-2-1.5.5 1-1-2.5-2.5-2.5-1.5-1-4 1-1-1-1 1-3-1-3 5-3v-4q4.6-3.4 6-10l5.5-6.5zm23.5 9v1zm16 6v1zm51 0v1zm-43 4v1zM11.5 140v1zm166 0v1zm212 0v1zm-213 2v1zm-166 1v1zm212 0v1zm168 0v1zM115 144l3 1.5q-1.5 3-3 0zm159.5 0 2 1 1.5-.5-1.5 2.5-2.5-2.5zm-265 2v1zm223 0v1zm159 0v1zm-383 4v1zm198 0v1zm186 0v1z"/><path fill="#CDF4A1" stroke="#CDF4A1" d="m193.5 151 1.5.5-1.5.5zm-186 3v1zm386 0v1zm-387 4 .5 1.5H6zm388 0 .5 1.5h-1zm-196 3 2.5.5-2.5.5zm83 0 2.5 4.5q-2 1 0 2v4l-1.5 3.5-1.5-.5-3 4 .5 1.5q-1.5-2.5-3 1l-4 1-4 4h-2l-3.5 2.5q.5 3-1.5 3.5l-2-2-3 3-1.5.5 2 2-.5.5-2-1-14 8-3 3h-2l-4.5 2 1 2.5-1.5-.5q-2.25-.75-1.5 1.5l-1.5 1.5q-1-2-2 0h-2q-4.13 4.37-10.5 6.5l.5 1.5-1.5.5.5 1.5q-1.13-2-4.5-1 1.25 3-2.5 2l-1 1h-7l-10.5-5q1.13-2.67-1.5-2l-10-6q-1 2-2 0l-1.5-.5.5-1.5-5-4h-3l-3.5-3.5.5-1.5 33 21 4 2h5l37-22 3-3 5-2 31-21 3.5-3.5 1-4-3-6zm3 1v1zm-279 1 .5 1.5H5zm390 0 .5 1.5h-1zm-391 6 .5 1.5H4zm392 0 .5 1.5h-1zm-281 6v1zm169 0v1zm-281 1 .5 1.5H3zm394 0 .5 1.5h-1zm-395 10 .5 4.5H2zm396 0 .5 4.5h-1zm-269 1v1zm116 17 1.5.5-1.5.5zm-5.5 3q3-1 2 2-3 1-2-2Zm-81.5 1 .5 1.5h-1zm-156 2 .5 4.5H2zm396 0 .5 4.5h-1zm-242 6v2l7.5 2q-.5 2.88 2.5 4l3 2q1-2 2 0l4.5 2.5-.5 2.5-18-12-6-1-3 1-4.5 4.5-7 11q.75 3.25-1 4l2 6 7.5 7.5 3.5 2.5 1.5 2.5 14 13h1.5v2h2q-1.12 2.67 1.5 2l25 24h3.5q1.25 3-2.5 2l-4.5-2.5V296h-4q1.13-2.67-1.5-2l-4-6-5.5-4.5-1.5-2.5q-4.81 1.67-3.5-2.5l-5-3 1-2-5-3-3.5-4.5-2.5-1.5-3.5-4.5-2.5-1.5-1.5-2.5q-2.25.75-1.5-1.5-1.87-3.12-6-2.5-.75-5.75-6-8.5.75-3.25-1-4 1.75-.75 1-4l2-2q-2-1 0-2-1.12-3.33 1.5-2.5l9-12q1 2 2 0h6zm-8.5 2v1zm-2 2v1zm-1.5-3v1zm96 0 1 1 3-1h8l.5 2h1.5l2.5 5q3-1.25 2 2.5l5 6q-2.5 1.5 1 3l1 4q-1.75.75-1 4-5.25 2.75-6 8.5l-5 1-1.5 3-2.5 1.5-1.5 2.5-5.5 4.5q.75 2.25-1.5 1.5l-1.5 3q-2.67-1.12-2 1.5l-4 3-1.5 2.5q-3.33-1.12-2.5 1.5l-1 3 2 2-.5.5q-2.62.67-1.5-2h-3.5l-4.5 5.5v1.5l-4 1-1 4q-2.67-1.12-2 1.5l-8.5 5.5q-1-2-2 0l-4.5-.5 6.5-1.5 5-4 41.5-39.5 1.5-2.5 8.5-7.5 2-7-8-14-4.5-4.5-5-1-7 3-15 10-.5-2.5 5.5-3.5q1.5 2.5 3-1l3.5-2.5q-.75-2.25 1.5-1.5l3.5-1.5zm-52 5v1zm-185 1 .5 1.5H3zm394 0 .5 1.5h-1zm-175 1v1zm42 1 .5.5-2.5 2.5-.5-.5zm-260 5 .5 1.5H4z"/><path fill="#CDF4A1" stroke="#CDF4A1" d="m177.5 230 11 6q1.25-2.25 2.5.5-2.25 1.25.5 2.5l6 3 1.5-.5-.5 1.5 3.5-.5-.5-1.5q1 2 2 0l6.5-3.5-.5-1.5q1.5 2.5 3-1l4.5-1 1.5-3 3-1q3 1.5 0 3l-18 11h-7L177 231.5zm219 0 .5 1.5h-1zm-391 6 .5 1.5H5zm390 0 .5 1.5h-1zm-389 5 .5 1.5H6zm388 0 .5 1.5h-1zm-387 5v1zm386 0v1zm-385 4v1zm384 0v1zm-383 4v1zm130 0q1.5 1-1 2-1.5-1 1-2Zm122 0v1zm130 0v1zm-381 3v1zm380 0v1zm-245 2v1zm-134 1v1zm378 0v1zm-137 1v1zm3 1v1zm-243 1v1zm376 0v1zm-375 3v1zm374 0v1zm-373 3v1zm372 0v1zm-370 5v1zm368 0v1zm-366 5v1zm364 0v1zm-363 2v1zm362 0v1zm-355 14v1zm348 0v1zm-347 2v1zm346 0v1zm-345 2v1zm344 0v1zm-342 3v1zm170 0v1zm170 0v1zm-339 2v1zm338 0v1zm-336 3v1zm334 0v1zm-332 3v1zm330 0v1zm-328 3v1zm326 0v1zm-324 3v1zm322 0v1zm-319 4v1zm316 0v1zm-313 4q2.5 1 1 2-2.5-1-1-2Zm310 0q1.5 1-1 2-1.5-1 1-2Zm-305 6 3.5 3.5-.5.5-3.5-3.5zm300 0 .5.5-3.5 3.5-.5-.5zm-283 17 3.5 3.5-.5.5-3.5-3.5zm266 0 .5.5-3.5 3.5-.5-.5zm-258 7q2.5 1 1 2-2.5-1-1-2Zm250 0q1.5 1-1 2-1.5-1 1-2Zm-245 4v1zm240 0v1zm-236 3v1zm232 0v1zm-229 2v1zm226 0v1zm-223 2v1zm220 0v1zm-217 2v1zm214 0v1zm-211 2v1zm208 0v1zm-206 1v1zm204 0v1zm-201 2v1zm198 0v1zm-196 1v1zm194 0v1zm-192 1v1zm190 0v1zm-176 7v1zm162 0v1zm-160 1v1zm158 0v1zm-153 2v1zm148 0v1zm-143 2v1zm138 0v1zm-135 1v1zm132 0v1zm-129 1v1zm126 0v1zm-123 1v1zm120 0v1zm-117 1v1zm114 0v1zm-111 1v1zm108 0v1zm-104 1v1zm100 0v1zm-96 1v1zm92 0v1zm-88 1 1.5.5-1.5.5zm83 0 1.5.5-1.5.5zm-78 1 1.5.5-1.5.5zm73 0 1.5.5-1.5.5zm-67 1 1.5.5-1.5.5zm61 0 1.5.5-1.5.5zm-54 1 1.5.5-1.5.5zm47 0 1.5.5-1.5.5zm-37 1 4.5.5-4.5.5zm24 0 4.5.5-4.5.5z"/><path fill="#130900" stroke="#130900" d="M205.5 103v1zm-15 2v1zm19 0v1zm-21 1v1zm-2 1 .5 1.5h-1zm8 0h1.5v3l-4-.5zm19 0v1zm-9.5 1q3-.75 4 1.5l-4 .5zm11.5 0q2.5 1 1 2-2.5-1-1-2Zm3 1v1zm-39 1q1.5 1-1 2-1.5-1 1-2Zm17 1 .5 2h5.5l1-1 1 1H223l.5 2q1.25-2.25 2.5.5l-1.5 2.5-1.5.5v6.5l6 1q1.35 3.67-4.5 2l-1-1h-8l-1.5 3 3.5 1q1-2 5-1l2.5 4.5-1.5-.5q-3.25-.75-4 1l-2-3-4-2h-5q-2 .5-1.5 3.5l2.5 1.5q.92-1.75 3.5-1l1 2.5-1.5.5-2-1-3 1-1-1-1 1-3-1H193v-3.5l-1.5-1.5-4-1-3-3H177v-9h-3.5q-2.75 1.25-.5 2.5l-3 3v1.5h4v3.5l-1.5-.5q-4.81 1.67-3.5-2.5l-3-2 2-.5q-.5-2.87 2.5-4l2.5-1.5 1-2-1-2h1l.5 1.5 7-3q1.25 2.25 6 1 .75-1.75 4-1 1.12 2 4.5 1zm-6.5 17q-1 3 2 2 1-3-2-2Zm19.5-17v1zm-43 6v1zm70 1v1zm-8 2 5 3q1.25-2.25 2.5.5l-3.5 1.5-4.5-4.5zm-64 2v1zm19 6v1zm52 1v1z"/><path fill="#130900" stroke="#130900" d="M176 130h5v1.5l1.5 1.5 5 1 3 3 1.5-.5-2.5 1.5-2-2q-6 1.5-7.5-1.5.75-2.25-1.5-1.5l-1.5-.5-.5 1.5zm-7.5 1v1zm63 0v1zm-2 1v1zm-3 1v1zm-52 1v1zm41 2v1zm6 0v1zm-26 1v1zm6 0v1zm13 1v1zm-11 1q1.5 1-1 2-1.5-1 1-2Zm-67 2v1zm3 0v1zm60 0v1zm5 0v1zm56 0v1zm-58 1v1zm64 0v1zm-133 1v1zm63 0v1zm-65 1v1zm8 0q2.75-.25 2.5.5v7q-2.5 1-2 3.5-3.81-1-5 1.5.75 2.25-1.5 1.5-2.5 1-1 2l8 1 1.5-3 2.5-1 .5.5-2 2 1.5 1.5h3.5q-.37-2.96.5-3h6l3-3h2l2.5 2.5-.5.5H157v1.5q1 2.5 5.5 1.5l4-2q2 3 8 2l1.5 1.5v6l-1 3 4.5 2.5q1-2 2 0l6 3h8l2-1 1 1 1-1 1 1 1-1 3 1h8q.92-1.75 3.5-1-1.25-3 2.5-2l1-1h4.5v-4h-2v-3h-1.5l-1.5.5q-.88-3 3.5-1.5v-1l-5.5-.5q1.25-2.75 2.5-.5 3.25-.75 4 1l2-3h5l5-2 1 1 6 1 1.5-3h-5.5l-1 1-.5-2q2.5.5 3.5-2h2l1.5 3h7.5q.75-2.75 5-2l4 5 7.5-1v-2h-4q1.25-3-2.5-2l-1.5-1.5-1-3v-5l-1-1q1-2.25 4-1.5l2 8q2.67-1.12 2 1.5l5.5 6.5 1.5.5-.5 1.5 1.5.5-2 .5q-.75 2.58 1 3.5l-2 .5.5 2 1.5-.5q-2 1-1 5 2 1 0 2l-.5 1.5-1-2q-1 2-5 1-.75-1.75-4-1l-1 1H246v2q3-1 2 2h6.5q.87.04.5 3h4l.5-2 .5 2.5q-1.25 2.75-2.5.5H256q1.13 2.67-1.5 2-2.5 1-1 2l1.5.5-2 2q2.25 1.25-.5 2.5-3-1.12-2.5-4-3-1-2 2h-2.5l-3 1v-1l1.5-.5V184h-2q1-3-2-2v9.5l-1.5.5v2l-3 1q-1-2-5-1l-3-3h-3l-1.5 3h4.5l1.5 1.5-2.5.5-2.5-1-1 4.5 3 3-1 1v1.5h-2q1.13 2.67-1.5 2l-2 1-1-1h-8l-2.5 1.5.5 1.5q-2.25.75-1.5-1.5h-1q.87 3-3.5 1.5-.75-1.75-4-1-1.13 2-4.5 1l-.5-2-.5 2q-3 .75-4-1.5l-.5-1.5h-7l.5 1.5-1.5 1.5-3 1v-1l2.5-1.5-3-1.5-.5-3-1.5.5-1-2 3-1.5q1.8-4.87-4.5-3-1 3-6 2l-2.5-1.5 10.5-3.5 1.5.5 1-3q-1-2.5-5.5-1.5-1.25 3.25-7 2l-4.5-2.5v-8l-2-.5v2l-2 .5v6.5h-3.5l-2-1q-1 2-2 0l-1.5 1.5.5 1.5q-2.75-1.25-.5-2.5.75-2.25-1.5-1.5l.5-1.5-1.5-1.5-4.5-2.5V180h-6.5v-1q2.25.75 1.5-1.5l-4.5-2.5-3 1q-2.5-1-1-2 2.25.75 1.5-1.5-2-1 0-2l-1-2 1-1v-7l-1-1 3.5-3.5 4.5-1q.75-2.58-1-3.5h2l1-4zM254 157q-3 1-2 4h4v-3zm-30 9-1 2h1zm-89 9v2q1 2 5 1l3 5 2-1 1-2h6q-1-3 2-2v-2h-14q-2-2-5-1Zm9 9v1h1zm3 0q-3 1-1 2 3 1 3-1zm4 0v1zm97 0v2q2 1 0 2h2l1-2v-2zm4 0v3l3-2zm-102 1-2 2 3 2 1-1zm2 0v1zm-4 3v1h1zm2 1v1zm101 0v2q1 1 2-1zm2 2v1zm-61 17v1zm12.5-64v1z"/><path fill="#130900" stroke="#130900" d="m200.5 145 2.5.5-2.5.5zm-56 2q2.5 1 1 2-2.5-1-1-2Zm109 0 .5 1.5h-1zm2 0v1zm-125 1v1zm139 0 1 1 1.5-.5-1.5 1.5q-2.5-1-1-2Zm-113 1q2.5 1 1 2-2.5-1-1-2Zm87 0 1.5.5-2.5 1.5q-1.5-1 1-2Zm12 0v1z"/><path fill="#130900" stroke="#130900" d="M149.5 151q1 2 2 0 4.81-1.33 3.5 2l-4.5 1-1-1-1.5.5zm96 0q1 2 2 0l3.5 1q1.35 3.67-4.5 2-2.37-.87-1-3Zm-79 2v1zm67 0v1zm-89 1v1zm25 0v1zm66 0v1zm20 0v1zm17 2v1zm-100 1v1zm-9 1v1zm13 0v1zm48 0v1zm49 0v1zm-151 1 .5 1.5h-1zm38 0v1zm117 0v1zm-151 2v1zm57 0v1zm-2 1q2.5 1 1 2-2.5-1-1-2Zm-3 1 .5 2 2 .5-3 .5-.5 2-.5-3.5zm6 0v1zm2 0v1zm28 1v1zm-90 1 1.5 2.5q-1 2.5-2 1l-1-2zm.5 1v1zm150.5-1 .5 1.5q-1 2.5-2 1zm-81 1v1zm-15 1v1zm17 0v1zm7 0v1zm-11 1 3.5 2.5.5 1.5h7.5q-.5-2.87 2.5-4l8 2 1.5 1.5-7.5 1.5-3-1-4 3h-3l-4-3q-6.12 1.13-8.5-1.5zm-67 2v1zm148 1 .5 1.5h-1zm-9 6 1.5 3.5-1.5-.5q-5.85 1.67-4.5-2 3.38 1 4.5-1Zm-134 3v1zm137 0v1zm-133 1v1zm132 1v1zm-126 5v1zm119 0v1zm-116 2v1zm113 0v1zm-98 3q2.5 1 1 2-2.5-1-1-2Zm82 1v1zm3 0v1zm-92 1v1zm10.5 0q2.67-1.12 2 1.5l-2.5 1.5.5-1.5zm86.5 0q1.5 1-1 2-1.5-1 1-2Zm-7 1v1zm4 0v1zm-91 1v1zm75 1q6.3-1.87 4.5 3h-4.5l-1.5-1.5zm7 3v1zm-72 1v1zm63 2v1zm-57 3v1zm59 0v1zm-56 2v1zm13 2 1.5.5-1 1 2 2-.5.5-2.5-.5.5-1.5-1.5-.5zm25.5 0q2.67-1.12 2 1.5l-1 1 .5 1.5-1-1-1.5.5q1.75-.92 1-3.5Zm10.5 0v1zm-39 3v1zm9 1q1 2 2 0l2.5 1.5-3.5.5q-1.25 3.5-4.5 3v-1.5zm-1.5 3v1zm13.5-3 2 1 1-1 2.5 2.5-1.5-.5-2 1-3.5-1.5zm11 0q1.5 1-1 2-1.5-1 1-2Zm-60 5v1zm2 1v1zm85 0v1zm-95 2v1zm12 0v1zm37 0v1zm7 0v1zm47 0 1 1 1.5-.5-2 2 .5.5h3.5v4.5q2 1 0 2-.75 4.25 2 5l-.5 1.5 1.5.5-1 1 .5 1.5-1.5-.5q1.5 4.37-1.5 3.5l-1.5-2.5.5-1.5q-1.83-1.67-6-1-.75 1.75-4 1l-2-1-2.5 3.5q1.75.75 1 4-2 1-1 5l1.5 2.5 2-1 1.5 3h-4v1.5l-1 1v4.5q-2.67-1.12-2 1.5h-1q.5-3-1.5-3.5l-5 1-3 3-2-1-1.5 2.5q2 1.12 1 4.5l2.5-1 .5 2q-4.12-1.67-3 2.5l-2.5 1.5q-.75-1.75-4-1l-1.5-1.5-.5-1.5h-5l-1-1-2.5 2.5q1.83 2.32 1 6.5h2v-4h2v6.5l-2.5 3.5-5 1-1.5 1.5 2 1-4 1.5q1.8-4.87-4.5-3l-7.5-3-1-2.5v-6q1-1.5 2 1l1.5 2.5 1.5-3.5v-4q-.5-2-3.5-1.5-.92 1.75-3.5 1 1.25 3-2.5 2l-5 2-1-4-1 3-.5-3q-3 .75-4-1.5 2.75-.75 2-5-2.08-4.42-8.5-4.5-1.5 3.5-3 1-2.25.75-1.5-1.5 1.75-.75 1-4l-.5-.5-2 2-2-2-1.5.5q-.5-3 1.5-3.5l.5 2q3 1.25 2-2.5 2-1 1-5-1.75-.75-1-4l1-2-3.5-2.5q-.75 1.75-4 1-1.25-2.25-6-1l-2.5 1q-1.12 2.67 1.5 2 1.5 1-1 2-3 .87-1.5-3.5l-1-2q2-1 0-2l2-2q.75-3.75-1.5-4.5l-1.5.5 5-3-3-2h2l.5-1.5q1 2.5 3.5 2l.5-2 1 1h7.5l1 3.5-1 1v7q1 2.25 4 1.5l1.5 3h7l1.5-1.5V238h3v10h6q-1.12-2.67 1.5-2l1.5-.5-1 2.5 2.5-1-.5 1.5v1.5l-2 .5v5.5h5.5l1 1q.92-1.75 3.5-1-1.12-2.67 1.5-2l-.5 1.5 1.5 1.5h7l1.5-1.5-1-2.5-3-.5 2.5-.5 3 4 1.5-1.5 1-6 1.5-1.5 1 1h6.5v2h6q-.75-2.58 1-3.5v-5q-1.75-.92-1-3.5 4.25-.75 5.5 3h5l1.5-2.5-2.5-1.5q-1 2-2 0H228v-5.5l.5-.5 2 2 5 1 1.5 1.5q-.83 2.62 2.5 1.5l1.5-2.5-1-1-.5-5.5-2 1v-1l3.5-1 .5-2h7l2.5-1.5zm-99.5 6-2 2h3q1-3-1-2Zm-3 3v1zm-3 7v1zm111 0v1zm-47 14v4h5v-4zm-38 3-5 2 1 2q3-1 5 1h4q1 0 1-3-1-3-6-2Zm54 0-2 2q-1 3 2 3l4-1 2-2 3 2 1-1h4q1-4-4-2-1-2-2 0zm-65 1v1zm16 12-2 2q-1 2 2 1zm27 21v1zm51.5-66v1z"/><path fill="#130900" stroke="#130900" d="M165.5 225q1.5 1-1 2-1.5-1 1-2Zm69 0v1zm-2 1v1zm25 1v1zm-28 1v1zm29 1 .5 1.5h-1zm-98 1q2.5 1 1 2-2.79.67-1-2Zm78 0v1zm-98 2v1zm98 0v1zm-71 1q1 2 2 0h2.5v4h-7.5l-.5-1.5zm-28 1q1.5 1-1 2-1.5-1 1-2Zm39 0v1zm43 0v1zm41 1v1zm-80 1 2.5 1.5-1.5-.5q-2.37-.13-1-1Zm33.5 0 3 1.5h-3zm-2.5 2v1zm48 0v1zm-75 2 1.5.5-1.5.5zm24 0v1zm-19 1v1zm54 0 3.5 3.5v2q-.5 3-4.5 2.5l-2.5-1-1-2.5 2.5-3.5zm-93.5 1h2q-1 3 2 2l.5-2q2.5 1 1 2-2.62-.83-1.5 2.5 2.25 1.25-.5 2.5H153q1-3-2-2v-2.5zm61.5 0 .5 2-3-.5zm-75 1 1.5.5-1.5.5zm47 0 2.5.5-2.5.5zm4 0 .5 2.5-1.5 2.5-.5-1.5zm20 0v1zm6 0v1zm44 0 .5 1.5h-1zm2 0v1zm-67 1v1zm16 1v1zm4 0v1zm-69 4v1zm2 1v1zm49 2 3.5.5-3.5.5zm53 2v1zm-8 3v1zm-85 2q2.5 1 1 2-2.5-1-1-2Zm82 5v1zm-77 1v1zm74 1v1zm-69 4q2.25-.75 1.5 1.5l.5 1.5-2.5-2.5zm3 0v1zm63 1v1zm-3 3v1zm-56 2q2.5 1 1 2-2.5-1-1-2Zm48 4v1zm-4 2v1zm-3 2 .5 1.5q-1 2.5-2 1zm-16 5q1.5 1-1 2-1.5-1 1-2Zm-11 1q2.5 1 1 2-2.5-1-1-2Zm6 5v1zm10 0v1zm3 0 1.5.5-1.5.5zm-10 1v1zm4 0v1z"/></svg>