<?xml version="1.0" standalone="no"?>
<!DOCTYPE svg PUBLIC "-//W3C//DTD SVG 20010904//EN"
 "http://www.w3.org/TR/2001/REC-SVG-20010904/DTD/svg10.dtd">
<svg version="1.0" xmlns="http://www.w3.org/2000/svg"
 width="2500.000000pt" height="2500.000000pt" viewBox="0 0 2500.000000 2500.000000"
 preserveAspectRatio="xMidYMid meet">

<g transform="translate(0.000000,2500.000000) scale(0.100000,-0.100000)"
fill="#000000" stroke="none">
<path d="M11965 24989 c-2907 -121 -5656 -1247 -7843 -3212 -185 -167 -679
-657 -847 -842 -1899 -2084 -3029 -4697 -3239 -7490 -49 -647 -46 -1358 9
-2010 220 -2607 1255 -5076 2962 -7066 234 -272 364 -413 672 -719 295 -294
488 -474 753 -698 1906 -1609 4227 -2607 6693 -2876 3179 -347 6334 515 8876
2425 313 236 647 512 934 774 168 153 637 622 790 790 1796 1968 2912 4432
3199 7060 101 921 101 1829 0 2750 -287 2628 -1403 5092 -3199 7060 -153 168
-622 637 -790 790 -2078 1897 -4700 3030 -7495 3240 -454 34 -1019 43 -1475
24z m-3338 -7386 c1007 -1044 1884 -1950 1951 -2015 431 -415 967 -671 1582
-754 152 -21 498 -23 645 -5 589 74 1099 302 1538 686 48 42 936 956 1973
2031 l1886 1954 1166 0 1165 0 -69 -72 c-1547 -1611 -4959 -5137 -5033 -5202
-556 -488 -1180 -820 -1861 -991 -818 -205 -1647 -175 -2445 90 -575 190
-1078 481 -1555 900 -56 50 -1198 1226 -2538 2615 -1339 1389 -2464 2555
-2501 2593 l-65 67 1166 0 1166 0 1829 -1897z m4413 -5702 c501 -68 919 -191
1355 -400 374 -180 738 -423 1052 -704 82 -73 5068 -5232 5102 -5278 13 -19
-11 -19 -1150 -19 l-1164 1 -1845 1915 c-1015 1054 -1892 1962 -1950 2018
-208 201 -447 369 -705 496 -327 161 -642 249 -995 281 -164 14 -471 6 -620
-16 -556 -84 -1041 -309 -1462 -678 -47 -42 -942 -963 -1988 -2047 l-1903
-1970 -1166 0 -1165 0 60 63 c34 34 1141 1183 2461 2552 1320 1370 2453 2542
2519 2605 687 659 1627 1095 2569 1189 61 6 126 13 145 15 19 2 184 3 365 1
265 -3 360 -7 485 -24z"/>
</g>
</svg>
