<?xml version="1.0" standalone="no"?>
<!DOCTYPE svg PUBLIC "-//W3C//DTD SVG 20010904//EN"
 "http://www.w3.org/TR/2001/REC-SVG-20010904/DTD/svg10.dtd">
<svg version="1.0" xmlns="http://www.w3.org/2000/svg"
 width="350.000000pt" height="350.000000pt" viewBox="0 0 350.000000 350.000000"
 preserveAspectRatio="xMidYMid meet">

<g transform="translate(0.000000,350.000000) scale(0.100000,-0.100000)"
fill="#000000" stroke="none">
<path d="M1553 3489 c-599 -70 -1118 -440 -1378 -982 -199 -414 -228 -875 -85
-1310 42 -127 157 -354 232 -459 297 -412 738 -670 1243 -728 462 -52 944 95
1310 402 394 329 625 824 625 1338 0 563 -274 1093 -738 1428 -105 75 -332
190 -459 232 -235 77 -512 107 -750 79z m474 -423 c262 -56 482 -175 673 -366
198 -197 322 -431 377 -707 23 -117 23 -366 0 -478 -31 -147 -58 -225 -86
-243 -45 -30 -334 -13 -439 25 -9 4 17 -29 58 -73 76 -80 176 -220 186 -262
12 -44 -8 -77 -99 -167 -257 -253 -579 -385 -941 -385 -233 0 -415 43 -618
146 -204 104 -418 292 -418 366 0 50 107 213 211 321 25 26 38 45 30 42 -97
-30 -194 -47 -296 -52 -117 -6 -122 -5 -148 18 -19 17 -34 49 -52 114 -129
453 -26 924 278 1273 181 207 456 371 714 423 58 12 65 12 90 -7 36 -27 116
-180 150 -286 15 -48 31 -88 34 -88 4 0 10 17 14 38 18 100 130 331 169 351
28 13 35 13 113 -3z"/>
<path d="M1959 2833 c-17 -38 -42 -111 -57 -163 -21 -81 -25 -117 -26 -245 -1
-126 3 -164 23 -240 45 -177 141 -346 267 -472 169 -169 396 -273 632 -289
l88 -7 17 77 c28 128 32 122 -75 129 -354 24 -645 267 -734 612 -24 95 -24
275 0 370 10 39 36 108 57 154 21 46 39 85 39 87 0 6 -165 54 -183 54 -12 0
-28 -22 -48 -67z"/>
<path d="M1357 2861 c-43 -16 -79 -30 -82 -32 -2 -2 14 -40 36 -84 172 -353
58 -788 -264 -1007 -112 -76 -282 -138 -381 -138 -78 0 -84 -5 -74 -58 4 -26
14 -69 21 -97 l13 -50 60 4 c140 8 339 80 475 171 82 56 203 177 259 259 57
85 114 208 140 306 27 98 38 329 21 427 -23 132 -101 328 -130 327 -9 0 -51
-13 -94 -28z"/>
<path d="M2314 2718 c-70 -139 -91 -290 -60 -432 64 -284 321 -496 603 -496
l73 0 -1 43 c-1 23 -6 71 -13 107 l-11 65 -60 6 c-128 12 -231 69 -305 168
-56 74 -75 138 -74 246 0 87 4 101 48 206 5 12 -9 29 -56 64 -34 25 -75 53
-90 61 -27 14 -28 14 -54 -38z"/>
<path d="M1028 2679 c-43 -33 -78 -64 -78 -68 0 -5 9 -28 20 -53 107 -242 -47
-522 -312 -568 l-66 -12 -6 -54 c-3 -30 -9 -79 -12 -109 l-6 -55 43 0 c126 1
301 71 402 161 77 69 150 182 183 282 33 104 38 257 10 352 -24 80 -74 185
-89 185 -7 0 -47 -27 -89 -61z"/>
<path d="M2636 2498 c-14 -55 -6 -139 19 -187 36 -73 125 -137 176 -129 18 3
17 9 -17 78 -37 77 -132 228 -157 249 -12 9 -16 7 -21 -11z"/>
<path d="M772 2406 c-50 -76 -127 -234 -119 -243 10 -9 68 19 105 51 40 35 69
89 78 145 7 43 -2 111 -14 111 -4 0 -27 -29 -50 -64z"/>
<path d="M1711 2063 c-49 -168 -151 -346 -271 -471 -33 -35 -52 -61 -42 -58
200 61 444 72 625 28 l77 -19 -75 79 c-122 127 -217 287 -265 446 -12 39 -23
72 -24 72 -1 0 -12 -35 -25 -77z"/>
<path d="M1665 1419 c-168 -15 -366 -91 -505 -195 -69 -53 -176 -164 -225
-236 l-36 -53 63 -58 c87 -81 94 -84 112 -49 79 153 266 300 461 362 106 34
292 39 407 11 203 -48 366 -160 486 -334 l41 -58 73 69 c85 81 85 71 -13 190
-155 187 -421 330 -649 348 -36 3 -78 6 -95 7 -16 2 -70 0 -120 -4z"/>
<path d="M1651 1049 c-67 -12 -155 -47 -227 -90 -64 -39 -168 -145 -202 -207
l-24 -43 76 -34 c117 -55 125 -55 163 -1 81 115 249 183 389 157 111 -21 206
-80 274 -169 l25 -33 70 29 c106 45 125 54 125 65 0 17 -88 133 -127 167 -147
129 -360 192 -542 159z"/>
<path d="M1665 646 c-27 -13 -58 -32 -68 -44 -18 -20 -18 -20 67 -27 109 -9
279 2 273 18 -6 18 -65 56 -106 67 -58 16 -112 12 -166 -14z"/>
</g>
</svg>
