<svg xmlns="http://www.w3.org/2000/svg" width="1706.667" height="1706.667" version="1.0" viewBox="0 0 1280 1280"><path d="M326.8 368c-7.3.8-15.6 2.1-28.3 4.4-1.1.2-2.8.4-3.8.5-1 0-1.5.6-1.2 1.1.4.6 1.2.7 1.8.4.7-.4.9-.3.4.1-.4.5.7 2.4 2.5 4.2 4.3 4.4 3.2 5-1.4.7-2.1-1.9-3.4-3.4-3-3.4.8 0-2-2-2.9-2-.4 0-.9.9-1.2 2-.4 1.4.2 2.4 1.6 3.2 1.2.7 2.6 1.1 3 1 .5-.1.5.2.2.8-.7 1.2 2.5 4.1 3.6 3.4.4-.2.6.4.5 1.4 0 .9.6 1.7 1.4 1.7 2.5.1 4 1.5 3.3 3.1-.4 1.1 0 1.5 1.3 1.2 1.3-.2 1.9.3 1.9 1.7 0 1.1.7 2 1.5 2 2.5.1 3.9 1.5 3.3 3.2-.5 1.2-.2 1.5.9 1.1.8-.4 2.1-.2 2.9.4 1.1.8 1 .9-.3.4-1.5-.5-1.6-.3-.5 1.4.6 1.1 1.8 1.8 2.5 1.5s1.1-.1.8.3c-.7 1.2 6.3 8.4 7.5 7.7.5-.4.8-.1.7.7-.2.7.2 1.2.8 1.1.7-.1 1.1.5 1 1.5 0 .9.4 1.6 1.1 1.5.6-.2 1.4.5 1.7 1.5.3.9 1.6 2.3 2.8 3.1 1.3.7 2 1 1.6.6-.4-.5-.3-1.4.2-2.1.8-.9-.2-2.4-3.6-5.8-2.6-2.5-4.6-4.8-4.3-5 .4-.5 11.9 10.2 11.9 11 0 .3-.7.4-1.6.2-3.1-.5-2.3 3.2 1.3 6.7 2 1.9 4 3.2 4.5 2.9.4-.3.8-.2.7.3-.4 2.2.3 3.3 1.9 3 .9-.1 1.8-.7 2-1.2.4-1.6-2.7-4.7-4-3.9-.6.4-.8.3-.4-.4.3-.6-.6-2-2-3.1-1.5-1.2-2.4-2.5-2-2.9s1.4.1 2.1 1.2c.8 1 1.9 1.5 2.6 1 .7-.4 1-.3.5.4-.3.5-.3 1.2.1 1.4.5.2 3.3 3 6.3 6.2 3.1 3.2 4.5 5.3 3.3 4.7-1.9-1-2.3-.9-2.3.4 0 .9-.5 1.3-1.1 1-.6-.4-.5.2.3 1.4.8 1.4 2 1.9 3.6 1.6 2-.3 2.2-.2 1.1 1.1-1.9 2.3.5 4.4 2.6 2.3 1.4-1.3 1.3-1.7-.5-3.7-1.2-1.2-1.7-2.2-1.2-2.2.4 0 4.6 3.8 9.2 8.4 4.6 4.7 8.8 8.2 9.3 7.9.6-.3.7-.2.4.4-.9 1.4 3.2 5.5 4.5 4.7.6-.4.8-.3.5.3-.8 1.3 9.7 11.6 10.8 10.6.4-.5.6-.1.3.8-.6 1.5 2.8 4.6 4.5 4.1q.75-.15.3.6c-.3.5 1.4 2.7 3.7 4.9 2.3 2.3 4.9 4.9 5.8 5.9 3.6 4.3 20.9 20.4 21.9 20.4h1.5c.3 0 1.3.7 2.3 1.6.9.8 4.9 3.6 8.7 6.1 20.1 13 41.1 36 51.3 55.9 2.3 4.6 8.1 10.6 9.4 9.8.5-.3.7-.1.6.5-.3 1.2 11.9 14.1 13.3 14.1.5 0 .9.7.9 1.5 0 .9.6 1.5 1.3 1.3s1.4.1 1.5.7c.2.5 1.6 2.4 3.3 4.1 1.6 1.7 2.6 3.4 2.2 3.9-.5.4-.3.5.3.2s2.4.7 3.9 2.3 3.3 2.7 3.8 2.3c.6-.3.7-.2.4.4-.3.5 2.5 4 6.3 7.8s6.6 7.3 6.3 7.8c-.3.6-.1.7.5.3.6-.3 1.7 0 2.5.8s1.8 1.2 2.3.8.2.2-.6 1.2c-.8 1.1-1 1.7-.4 1.3.6-.3 2.8 1 4.7 3.1 2 2 4.2 4.3 4.9 4.9.7.7 5.3 5.3 10.2 10.3 4.9 4.9 9.3 8.7 9.9 8.3.5-.3.8 0 .5.7-.2.8.4 2.2 1.4 3.2s1.8 2.4 1.8 3c0 .7-.7.2-1.6-1-.8-1.2-2-2-2.5-1.7-.5.4-.9.1-.9-.5 0-1.6-13.3-14.5-14.5-14.1-.5.1-.7-.1-.3-.5.5-.4-.1-1.4-1.2-2.1-1.1-.8-1.8-1.9-1.5-2.4.4-.5.2-.9-.2-.9-1.4 0-8.3-6.6-8.3-7.9 0-.6-.5-1.1-1-1.1-.6 0-5.8-4.7-11.6-10.5-5.7-5.8-10.9-10.3-11.4-10-.6.4-1 .3-.9-.2.4-2.1-.3-3.2-2.1-3.8-1.1-.3-2-1.3-2-2.1 0-1.3-1.2-1.9-3.3-1.5-.5.1-.6-.3-.2-.8.3-.6-.6-2-2-3.3-1.4-1.2-2.5-2.8-2.5-3.5s-.7-1.3-1.5-1.3-1.9-.9-2.5-2-1.7-2-2.4-2c-.8 0-1.6-.9-1.9-2.1s-1-1.8-1.6-1.4c-.6.3-1.6-.6-2.1-2-.7-1.8-1.5-2.5-2.5-2.1-1.1.4-1.5-.2-1.5-1.9 0-1.5-.6-2.5-1.5-2.5-1.3 0-1.2.5.3 3.7.9 2.1 2.9 5 4.4 6.4 1.5 1.5 2.4 2.9 2.1 3.3-.3.3 0 .6.8.6s2.7 1.4 4.2 3c1.6 1.7 3.3 2.7 3.8 2.4s.9-.2.8.3c-.3 2 1.5 5.4 2.6 4.9.7-.2 1.8.6 2.5 2 .8 1.3 1.9 2.4 2.7 2.4.7 0 1.3.9 1.3 2s.6 2 1.4 2c.7 0 2.9 1.7 4.7 3.8 1.9 2.1 4.5 4.6 5.9 5.5 1.3.9 2.1 1.7 1.7 1.7s3.1 3.8 7.9 8.5c4.8 4.6 9.1 8.2 9.5 7.9.5-.3.7.1.4.8s.8 2.2 2.5 3.3c1.6 1.1 3 2.3 3 2.6s3.8 4.5 8.4 9.2c4.7 4.7 8.2 8.8 7.9 9.1-.4.3-.1.6.6.6s1.9.7 2.8 1.5c1.1 1.1 1.9 1.3 2.8.5 1.4-1.2 4.5-.3 4.5 1.2 0 .6-.6.5-1.5-.2-1.9-1.6-3.4-.5-2.8 2 .3 1.2.8 1.9 1 1.6.7-.7 11.3 9.8 11.3 11.3 0 .7.4 1 .9.7.4-.3 1.6.3 2.6 1.4s2.2 1.7 2.6 1.4c.5-.3.9.7.9 2.3q0 2.85.9 1.5c.7-1.1.9-1 1.5.3.3.9 1.1 1.3 1.7.9.8-.4.9-.3.5.4-.7 1.1 4.3 7.4 8.8 11.1 1 .9 2.6 2.4 3.5 3.3 1.6 1.8 5.1 2.5 5.1 1 0-.4-2.4-3.1-5.2-5.9-2.9-2.8-7.8-7.7-10.8-10.7-2.9-3.1-6-5.6-6.8-5.6-.7 0-1.1-.4-.8-.8.3-.5-1-2.4-2.9-4.2-1.9-1.9-3.5-3.8-3.5-4.2 0-.5 6.6 5.7 14.8 13.7 8.1 8 15 14.5 15.3 14.5 1.8 0 6.4-26.5 8-45.5C637.5 595 617.2 528.3 576 475c-15.8-20.4-43.7-46.3-65.5-60.7-34.5-22.9-73.8-38-115.1-44.3-15.9-2.4-53.8-3.5-68.6-2m-22.2 15.9c-.5.8 4.2 5.9 5 5.3.2-.1 1.2.2 2.2.7 1.3.8 1.3 1 .2 1.1-.8 0 0 1.5 2.3 3.8 2 2.1 3.7 4.2 3.7 4.6 0 .5-3.6-2.7-7.9-7-5.2-5.2-7.5-8.1-6.8-8.6 1.6-1 1.9-1 1.3.1m18.3 19.3c4.2 4.5 3.9 5.9-.4 1.7-3.1-3.1-4.3-4.9-3.1-4.9.3 0 1.9 1.5 3.5 3.2m13.2 8.5c1.3 1.6 1.2 1.7-.3.4-1-.7-1.8-1.5-1.8-1.7 0-.8.8-.3 2.1 1.3m211.3 212.9c.3.8.2 1.2-.4.9s-1-1-1-1.6c0-1.4.7-1.1 1.4.7M591 673c0 .5-.2 1-.4 1-.3 0-.8-.5-1.1-1-.3-.6-.1-1 .4-1 .6 0 1.1.4 1.1 1"/><path d="M348.5 433c-.4.6-1.1.7-1.7.4-.6-.4-.5.2.1 1.5 1 1.7 1.6 1.9 3.1 1.1 1.1-.6 1.7-1.6 1.4-2.5-.7-1.7-2-1.9-2.9-.5m11.4 10.2c-.6 2.6-.5 3.8.4 3.8.5 0 .8.2.5.5-.9.9 10.4 11.5 11.5 10.8.6-.3.7-.1.3.5s1 2.7 3 4.6c3.1 2.9 4 3.3 5.3 2.4 1.3-1 1.4-1 .4.2-1.9 2.1-1.6 3.3.6 2.7 1.5-.3 1.8-.1 1.4 1.1-.4 1-.2 1.3.5.8.8-.4 1-.2.6.8-.3.9.3 1.9 1.6 2.6 1.8 1 2.1.9 1.5-.1-.5-.8-.4-1 .3-.5.7.4 1.2 1.5 1.2 2.6 0 1 .7 2.1 1.6 2.4.8.3 1.2.2.9-.3s0-1.3.6-1.7c1.4-.8-12-14.5-13.5-13.7-.6.3-.8.3-.4-.2.4-.4.2-1.3-.5-2s-4.4-4.6-8.3-8.7c-6.5-6.9-9.3-9.4-9.5-8.6m32.5 35.5c.1 1 3.2 4.8 7 8.5 6.5 6.5 8.5 8.1 7 5.6-.4-.7-.3-.8.5-.4.6.4.9 1.1.6 1.6s-.1 1.1.5 1.5.8 1.1.5 1.6c-.4.5.1.9.9.9.9 0 1.6.5 1.6 1.1s.9.9 2 .6 1.8-.1 1.5.3.9 1.3 2.5 1.9l3.1 1-2.1-2.9c-1.2-1.6-2.4-2.9-2.8-2.7-.4.1-3.2-2.4-6.1-5.5-3-3.2-5.8-5.5-6.4-5.1-.5.3-.7.1-.4-.4.7-1.1-7.5-9.3-9.1-9.3-.5 0-.9.8-.8 1.7m5.1 3.3c.3.5.2 1-.4 1-.5 0-1.3-.5-1.6-1-.3-.6-.2-1 .4-1 .5 0 1.3.4 1.6 1m2.9 3.6c.3.8.2 1.2-.4.9s-1-1-1-1.6c0-1.4.7-1.1 1.4.7m287.8 65.1c-21.9 60-21.5 121.6 1.3 182.8 6.8 18.5 20.5 44 31.5 59 2.8 3.8 5.9 8.1 6.8 9.4s6.2 7.6 11.8 14c10.8 12.4 21.7 23 32.9 32 3.9 3.1 7.2 5.9 7.5 6.2 1.3 1.5 13.1 9.6 21.4 14.8 26.8 16.7 56.1 29 85.9 36.1 36.2 8.6 82.4 9.2 120.1 1.5 12-2.4 31.3-7.9 32.8-9.4.8-.7-19.8-22.1-21.3-22.1-.5 0-.9-.7-.9-1.5s-.4-1.5-.8-1.5c-.5 0-4.2-3.4-8.3-7.5-20.3-20.7-70.7-70.8-71.8-71.4-.7-.5-1.2-1.2-1.2-1.7s-1.2-1-2.7-1c-1.5-.1-3.4-.4-4.2-.6-.8-.3-5.5-1.3-10.4-2.3-50.4-9.7-95.1-47.4-113.1-95.2-3.4-8.9-7.2-24.3-8.6-34l-1-7.8-12.6-12.7c-7-7-13.1-12.4-13.6-12.1-.6.3-.7.2-.4-.4.4-.7-70.1-72.4-78.7-80.1-.2-.1-1.3 2.4-2.4 5.5M953 811c0 .5-.2 1-.4 1-.3 0-.8-.5-1.1-1-.3-.6-.1-1 .4-1 .6 0 1.1.4 1.1 1m13 16.5c0 .2-.9.3-1.9.2-1.1 0-1.8-.5-1.5-.9.4-.6 3.4 0 3.4.7"/></svg>