<svg xmlns="http://www.w3.org/2000/svg" width="174" height="174" style="shape-rendering:geometricPrecision;text-rendering:geometricPrecision;image-rendering:optimizeQuality;fill-rule:evenodd;clip-rule:evenodd"><path fill="#171626" d="M73.5-.5h18q-13.098 10.822-29 18-1.195.686-1 2-2.48.24-4 2-2.29-.11-3 2-2.48.24-4 2-2.29-.11-3 2-3.38.936-5 4h-2q-2.466.32-4.5-1a11.4 11.4 0 0 1-1.5 3.5l-12 7q-2.5 1-5 0-1.456-2.222-4-2.5 21.668-32.332 60-39" style="opacity:.968"/><path fill="#f3f4f4" d="M66.5 18.5h5a41.6 41.6 0 0 1 1 8q-1.936-.356-3 1t-3 1q-2.855.444-5 2-2.29-.11-3 2a17.34 17.34 0 0 0-7 3.5q-5.267 4.27-10.5 8.5-5.901-1.375-6-7 1.063-1.32 2.5-2 3.373-.87 5-4 1.62-3.064 5-4 2.29.11 3-2 1.52-1.76 4-2 2.29.11 3-2 5.032-.285 9-3" style="opacity:1"/><path fill="#96969d" d="M66.5 18.5q-3.968 2.715-9 3 1.52-1.76 4-2 2.313-1.2 5-1" style="opacity:1"/><path fill="#97979f" d="M57.5 21.5q-.71 2.11-3 2 .71-2.11 3-2" style="opacity:1"/><path fill="#1a1928" d="M91.5-.5h8q38.333 6.668 60 39-.09.814-1 1a88 88 0 0 0-9.5-6A84.7 84.7 0 0 0 138.5 45q.208 1.951 2 2.5-1.65 1.657-2 4-1.863 2.834 0 6v1q-1.345-1.647-2.5 0-.738-1.573.5-3a6.8 6.8 0 0 0-3-1.5q1.908-3.067-1-5.5-2.434 1.485-3-2a43.3 43.3 0 0 0-9-2q.804-4.747-2.5-8-5.414-1.615-11.5 0a24.1 24.1 0 0 0-3-8 54 54 0 0 1 8 2 107.4 107.4 0 0 1 15 9 38.5 38.5 0 0 0 5 5.5q1.873 1.11 3-.5 1.619-3.064 5-4 4.782-4.825-2-5.5a14.7 14.7 0 0 1-3-3.5q1.449-3.937 3 0a26.6 26.6 0 0 0 2-3.5 944 944 0 0 1-43-25q-2-1-4 0a27143 27143 0 0 1-24 13q5.625-.504 10.5-1.5 1.951.208 2.5 2a5.73 5.73 0 0 0-1 3q-1.67 2.17-.5 5a10.5 10.5 0 0 1 2.5 3q.165.925 1 1.5 2.96.743 6 .5 2.092 1.722-.5 3-1.6-2.675-4.5-1.5a26 26 0 0 1 5 3.5q-1.16 1.816-2.5 0a11.5 11.5 0 0 1-4.5 3.5q.34 1.703 1 3.5a4.45 4.45 0 0 0 1.5-2q2.274 3.827 2.5-1a8.4 8.4 0 0 1 4 .5q-2.21 1.064-2 3.5-3.352-.442-6 1-1.5.5-2 2-.925.165-1.5 1a18.4 18.4 0 0 0-.5 6q-2.463 2.371-6 2 .401 2.398-1 4 .356-1.936-1-3l-1-4q-.18-1.63-2-2-1.374.064-2 1-8.876 4.873-15 13a57 57 0 0 0-15-9q-2.132-8.577-11-6.5-1.374.417-2 1.5h-1q-.255-1.983 1-3.5a16.2 16.2 0 0 0-3.5-1.5 177 177 0 0 0-13.5 8 41.6 41.6 0 0 1 7-14q2.544.278 4 2.5 2.5 1 5 0l12-7a11.4 11.4 0 0 0 1.5-3.5q2.034 1.32 4.5 1l-3 4q-1.437.68-2.5 2 .099 5.625 6 7 5.233-4.23 10.5-8.5a17.34 17.34 0 0 1 7-3.5q2.29.11 3-2 3.297.57 5-2 1.936.356 3-1h4a23.8 23.8 0 0 0-1-9q-3.204-1.94-6 0-2.687-.2-5 1-.195-1.314 1-2 15.902-7.178 29-18" style="opacity:1"/><path fill="#f2f2f3" d="m101.5 17.5 6 1a5.73 5.73 0 0 1 3 1 113.4 113.4 0 0 1 18 9q.71 2.11 3 2a25.1 25.1 0 0 0 7.5 7q.724 1.422.5 3-3.381.936-5 4l-8-5a107.4 107.4 0 0 0-15-9q-3.176-3.231-8-3h-1q-1.332-3.832-1-8z" style="opacity:1"/><path fill="#9c9ba0" d="M91.5 16.5q2.11.71 2 3-2.11-.71-2-3" style="opacity:1"/><path fill="#a8a8b1" d="M84.5 15.5q-1.5 2.5-4 4a5.73 5.73 0 0 1 1-3 5.73 5.73 0 0 1 3-1" style="opacity:1"/><path fill="#f2f1f3" d="M84.5 15.5a21.5 21.5 0 0 1 7 1q-.11 2.29 2 3 2.51 6.115-4 9a21.5 21.5 0 0 1-7-1 10.5 10.5 0 0 0-2.5-3q-1.17-2.83.5-5 2.5-1.5 4-4" style="opacity:1"/><path fill="#91919a" d="M66.5 18.5q2.796-1.94 6 0a23.8 23.8 0 0 1 1 9h-4q1.064-1.356 3-1a41.6 41.6 0 0 0-1-8z" style="opacity:1"/><path fill="#181627" d="M134.5 31.5a5.73 5.73 0 0 0-3-1q-.71-2.11-3-2-1.812-3.817-6-4v-4a73 73 0 0 1-12-1 5.73 5.73 0 0 0-3-1q-.951-2.17-3.5-2-1.605.042-2.5 1v2q-.984 1.683-1 4 .128 2.75 2 4h1v1a24.1 24.1 0 0 1 3 8q6.086-1.615 11.5 0 3.304 3.253 2.5 8a43.3 43.3 0 0 1 9 2q.566 3.485 3 2 2.908 2.433 1 5.5 1.686.375 3 1.5-1.238 1.427-.5 3 1.155-1.647 2.5 0v1a62.7 62.7 0 0 1-11.5 6 18.1 18.1 0 0 0-5.5-4.5l1-1a4.93 4.93 0 0 0-3-.5q-2.5-1.5-4-4v-1q-.774-10.253-12-11v-5h-5q-.29 4.463 3 7.5l-2 1q2.818 2.99 1 6.5-1.329-1.238-1-3a13.2 13.2 0 0 1-5-2q.257-1.487-1-2-.5-3.5-4-4-.21-2.436 2-3.5a8.4 8.4 0 0 0-4-.5q-.226 4.827-2.5 1a4.45 4.45 0 0 1-1.5 2 23.6 23.6 0 0 1-1-3.5 11.5 11.5 0 0 0 4.5-3.5q1.34 1.816 2.5 0a26 26 0 0 0-5-3.5q2.9-1.175 4.5 1.5 2.592-1.278.5-3v-1q6.51-2.885 4-9 .11-2.29-2-3a21.5 21.5 0 0 0-7-1 5.73 5.73 0 0 0-3 1q-.549-1.792-2.5-2-4.875.996-10.5 1.5a27143 27143 0 0 0 24-13q2-1 4 0a944 944 0 0 0 43 25 26.6 26.6 0 0 1-2 3.5q-1.551-3.937-3 0" style="opacity:1"/><path fill="#3b3b46" d="M110.5 19.5q5.949.993 12 1v4q4.188.183 6 4a113.4 113.4 0 0 0-18-9" style="opacity:1"/><path fill="#4a4753" d="M101.5 17.5q.895-.958 2.5-1 2.549-.17 3.5 2z" style="opacity:1"/><path fill="#a6a6b2" d="M50.5 25.5q-.71 2.11-3 2 .71-2.11 3-2" style="opacity:1"/><path fill="#7c7a83" d="M101.5 19.5q-.332 4.168 1 8-1.872-1.25-2-4 .016-2.317 1-4" style="opacity:1"/><path fill="#96969c" d="M103.5 28.5v-1q4.824-.231 8 3a54 54 0 0 0-8-2" style="opacity:1"/><path fill="#9c9ba5" d="M82.5 27.5a21.5 21.5 0 0 0 7 1v1a18.4 18.4 0 0 1-6-.5q-.835-.575-1-1.5" style="opacity:1"/><path fill="#6d6d75" d="M66.5 28.5q-1.703 2.57-5 2 2.145-1.556 5-2" style="opacity:1"/><path fill="#5c5a65" d="M128.5 28.5q2.29-.11 3 2-2.29.11-3-2" style="opacity:1"/><path fill="#66666c" d="M61.5 30.5q-.71 2.11-3 2 .71-2.11 3-2" style="opacity:1"/><path fill="#bebdc3" d="M40.5 31.5h2q-1.627 3.13-5 4z" style="opacity:1"/><path fill="#393941" d="M131.5 30.5a5.73 5.73 0 0 1 3 1q1.185 1.94 3 3.5 6.782.675 2 5.5a4.93 4.93 0 0 0-.5-3 25.1 25.1 0 0 1-7.5-7" style="opacity:1"/><path fill="#93929a" d="m126.5 39.5 8 5q-1.127 1.61-3 .5a38.5 38.5 0 0 1-5-5.5" style="opacity:1"/><path fill="#5e5d69" d="M83.5 43.5q2.648-1.442 6-1 3.5.5 4 4-4.1-3.965-10-3" style="opacity:1"/><path fill="#f2f1f4" d="M83.5 43.5q5.9-.965 10 3 1.257.513 1 2 0 5.512-5 8-7.477.54-9-7 .519-2.024 1-4 .5-1.5 2-2" style="opacity:1"/><path fill="#73737e" d="M148.5 47.5a18.4 18.4 0 0 0-6 .5 19.6 19.6 0 0 1-4 3.5q.35-2.343 2-4 4.158-1.9 8 0" style="opacity:1"/><path fill="#eeeef0" d="M36.5 54.5v2a31.4 31.4 0 0 0-5 4.5q-3.644 1.055-7-.5.11-2.29-2-3a25 25 0 0 1 1-8q.626-1.083 2-1.5 8.868-2.077 11 6.5" style="opacity:1"/><path fill="#2a2a33" d="M115.5 54.5v1q-4.78-4.143-11-6h-1a4.93 4.93 0 0 1 .5-3q5.536 1.15 10.5 5.5-1.6 1.738 1 2.5" style="opacity:1"/><path fill="#eaebed" d="M148.5 47.5q4.361 2.722 4 8l-1 2a6.54 6.54 0 0 0-3 3q-3.661 1.884-7 0a6.54 6.54 0 0 0-3-3q-1.863-3.166 0-6a19.6 19.6 0 0 0 4-3.5 18.4 18.4 0 0 1 6-.5" style="opacity:1"/><path fill="#171626" d="M159.5 38.5q10.533 16.1 14 35v26a100.2 100.2 0 0 1-9 26q-4.964-3.989-11-6.5 2-1.5 0-3 3.587-1.964 0-3 1.984-1.224 2-3.5 1 0 1-1a56 56 0 0 1 4-1 77 77 0 0 0 1.5-11 4.46 4.46 0 0 0 1.5-2 21 21 0 0 1-2.5-1l-.5-10q-.32-7.032 2-13.5a9.5 9.5 0 0 1-2.5-1.5q.297-6.695-5.5-9.5 2.01-3.223-2-3.5.361-5.278-4-8-3.842-1.9-8 0-1.792-.549-2-2.5A84.7 84.7 0 0 1 149 33.5a88 88 0 0 1 9.5 6q.91-.186 1-1" style="opacity:.966"/><path fill="#8a8a92" d="M66.5 50.5q.626-.936 2-1 1.82.37 2 2-1.812-1.1-4-1" style="opacity:1"/><path fill="#171526" d="M22.5 49.5q-2.866.111-3.5 3l-1-1q-.24 5.323 1.5 10.5a11 11 0 0 1-1 2.5q-1.258.513-1 2h-4q-.816 5.4-3 10.5v13q3.993 11.577 0 22 1.011 5.584 4.5 1.5 1.588.195 2.5 1.5-5.11 1.882-9 5.5a5.73 5.73 0 0 0-3-1q-3.96-9.869-6-20v-26a77.9 77.9 0 0 1 7-21 177 177 0 0 1 13.5-8q1.837.543 3.5 1.5-1.255 1.517-1 3.5" style="opacity:.974"/><path fill="#a5a4ae" d="M81.5 45.5q-.481 1.976-1 4 1.523 7.54 9 7-2.682 1.685-6 .5-2.355-2.096-4-4.5a18.4 18.4 0 0 1 .5-6q.575-.835 1.5-1" style="opacity:1"/><path fill="#f3f3f4" d="M66.5 50.5q2.188-.1 4 1l1 4q.1 2.188-1 4-9.17 5.17-13 15-1.94 2.013-2.5 5a64.3 64.3 0 0 0 0 16q.636 3.788 3.5 6-.713 4.22 3 6l3 2q2.766 4.78 8 6l-1 6q-1.356 1.064-1 3-7.521-1.503-13-7a71 71 0 0 1-8-12 103 103 0 0 1-3-11q-.58-12.18 2-24l2-6q1 0 1-1 6.124-8.127 15-13" style="opacity:1"/><path fill="#7d7b84" d="M22.5 49.5h1a25 25 0 0 0-1 8q-1.9-3.842 0-8" style="opacity:1"/><path fill="#9898a1" d="M103.5 49.5h1a47 47 0 0 1-2 9q-.936-.626-1-2 1.01-3.526 2-7" style="opacity:1"/><path fill="#171527" d="M36.5 54.5a57 57 0 0 1 15 9q0 1-1 1-1.542-.639-4 0a32.9 32.9 0 0 1-4 8.5q.715 10.493 0 21.5a143 143 0 0 0 5 15 29.8 29.8 0 0 0-8.5 3q-2.65-2.496 1.5-3.5-3.66-4.683-5.5-10.5.245-10.464.5-21h-3a122 122 0 0 1-1 22 3.65 3.65 0 0 0-1.5 1q-1-12 0-24 1.06-2.37 2.5-4.5-4.386-4.799 1.5-6.5.925 1.424-.5 2.5a32 32 0 0 1 3 7.5 32.5 32.5 0 0 1 2.5-6q.323-4.955.5-9.5-2.334-1.08-3-3.5z" style="opacity:1"/><path fill="#181726" d="M115.5 54.5q-2.6-.762-1-2.5-4.964-4.35-10.5-5.5a4.93 4.93 0 0 0-.5 3q-.99 3.474-2 7 .064 1.374 1 2 9.654 5.656 14 16 2.483 8.769 2 18 .257 1.487-1 2-4.803-5.434-1-11.5l-5.5-5.5a52 52 0 0 1-13.5 7q.257-1.487-1-2-3.44-3.23-8-5-2.324-1.83-5 0a8.4 8.4 0 0 1-4-.5 45.8 45.8 0 0 0-11-6.5q-4.105-6.331 2-11 1.487.258 2-1 1.401-1.602 1-4 3.537.371 6-2 1.645 2.404 4 4.5 3.318 1.185 6-.5 5-2.488 5-8a13.2 13.2 0 0 0 5 2q-.329 1.762 1 3 1.818-3.51-1-6.5l2-1q-3.29-3.037-3-7.5h5v5q11.226.747 12 11" style="opacity:1"/><path fill="#696970" d="M71.5 55.5q1.356 1.064 1 3-.513 1.258-2 1 1.1-1.812 1-4" style="opacity:1"/><path fill="#696973" d="M138.5 57.5a6.54 6.54 0 0 1 3 3 5.73 5.73 0 0 1-3-1z" style="opacity:1"/><path fill="#5c5c62" d="M151.5 57.5q0 3-3 3a6.54 6.54 0 0 1 3-3" style="opacity:1"/><path fill="#f4f4f5" d="M104.5 49.5q6.22 1.857 11 6 1.5 2.5 4 4a407 407 0 0 1 3 6q-.11 2.29 2 3a23.9 23.9 0 0 0 2.5 9 145 145 0 0 1 .5 17v2q-2.136 3.021-2 7a65.2 65.2 0 0 1-11 16 104 104 0 0 1-8.5 5 3.94 3.94 0 0 1-2-1 54 54 0 0 0-2.5-6.5q6.155-4.401 11-10.5a22 22 0 0 1 4-6.5 13 13 0 0 0 1-5.5q1.257-.513 1-2 1.72-6.22.5-13-.56-2.987-2.5-5-4.346-10.344-14-16a47 47 0 0 0 2-9" style="opacity:1"/><path fill="#7d7c85" d="M18.5 64.5q1.488-.257 2 1-1.917.423-3 2v-1q-.258-1.487 1-2" style="opacity:1"/><path fill="#f5f6f7" d="M20.5 65.5q3.546 1.585 6 4.5-3.245 13.35-1 26.5.025 3.097 1 6-.04 2.549-2 4-.512 1.257-2 1-2.217.393-4-1-.741-2.289-2-4a19.2 19.2 0 0 0-1-6q.002-12.025 1-24-.427-2.872 1-5 1.083-1.577 3-2" style="opacity:1"/><path fill="#a5a4ac" d="M122.5 65.5q2.11.71 2 3-2.11-.71-2-3" style="opacity:1"/><path fill="#191727" d="M152.5 55.5q4.01.276 2 3.5 5.797 2.805 5.5 9.5a9.5 9.5 0 0 0 2.5 1.5q-2.32 6.468-2 13.5l.5 10q1.38.645 2.5 1a4.46 4.46 0 0 1-1.5 2 77 77 0 0 1-1.5 11 56 56 0 0 0-4 1 19.2 19.2 0 0 0 1-6 25 25 0 0 0 1-8q.996-3.97 1-8.5.142-7.618-2-14.5a5.73 5.73 0 0 0-1-3v-3q-5.371-.543-9 3-1.718 3.68 1 7a181 181 0 0 1-1 24 20.2 20.2 0 0 1-1 5q.37 1.82 2 2 3.014 2.347 7 3-.016 2.276-2 3.5 3.587 1.036 0 3 2 1.5 0 3 6.036 2.511 11 6.5a37.8 37.8 0 0 1-5 9q-.353-.895-1.5-1a234 234 0 0 1-13.5 6 66 66 0 0 1-3-10 31 31 0 0 0 2-2q3.765.67 6-2l2-3q.97-1.161 1-3 .24-2.782-2-4l-3-2q-1.161-.97-3-1-2.782-.24-4 2-4.526 3.173-2 8v2q-1.98-2.162-5-2a151 151 0 0 1-3-8.5 80.4 80.4 0 0 0 16-5l-1.5-1.5q-2.187 1.87-4.5 0-5.049 3.925-9-1.5a8.4 8.4 0 0 0-4-.5q.257-1.487-1-2a52 52 0 0 0 1-7v-2q1.729-8.728.5-18-1.057-4.463-3.5-8 .11-2.29-2-3a407 407 0 0 0-3-6 4.93 4.93 0 0 1 3 .5l-1 1a18.1 18.1 0 0 1 5.5 4.5 62.7 62.7 0 0 0 11.5-6q1.337.915 3 1 3.339 1.884 7 0 3 0 3-3z" style="opacity:1"/><path fill="#f6f5f7" d="M156.5 68.5q.915 1.337 1 3 .965 11.475 1 23a25 25 0 0 1-1 8q-1.65 2.666-2.5 6-2.846-2.274-6.5-2-1.63-.18-2-2 .82-2.452 1-5 1.152-1.144 1.5-3 1.232-10.77-.5-21a52 52 0 0 0-1-7 73 73 0 0 0 6.5-2q1.516.834 2.5 2" style="opacity:1"/><path fill="#aeaeb6" d="M156.5 68.5q-.984-1.166-2.5-2a73 73 0 0 1-6.5 2q3.629-3.543 9-3z" style="opacity:1"/><path fill="#a6a5ac" d="M124.5 68.5q2.443 3.537 3.5 8 1.229 9.272-.5 18a145 145 0 0 0-.5-17 23.9 23.9 0 0 1-2.5-9" style="opacity:1"/><path fill="#181726" d="M79.5 79.5q-2.787 6.04-2 13v3q-7.166 1.743-13 5.5-3.75-1.75-5.5-5.5a82 82 0 0 0-.5-11 50 50 0 0 1 3-10.5q-2.205-3.46 1-5.5a264 264 0 0 1 17 11" style="opacity:1"/><path fill="#89898e" d="M147.5 68.5a52 52 0 0 1 1 7q-2.718-3.32-1-7" style="opacity:1"/><path fill="#201f2d" d="M70.5 59.5q-6.105 4.669-2 11a45.8 45.8 0 0 1 11 6.5 8.4 8.4 0 0 0 4 .5v1l-4 1a264 264 0 0 0-17-11q-3.205 2.04-1 5.5a50 50 0 0 0-3 10.5q.615 5.406.5 11 1.75 3.75 5.5 5.5 5.834-3.757 13-5.5v-3q3.457 2.235 7 4.5 6.13-.667 11.5-4.5.747-4.975.5-10 1.257.513 1 2 .39 5.61-1 11-6.647 1.197-12 5-2.963-4.233-8-3.5a27.2 27.2 0 0 1-9.5 5.5 15.7 15.7 0 0 1-2.5 4q1.936 1.54 0 3l-3-2a608 608 0 0 0-3-6q-5.415-13.3-1-27 3.83-9.83 13-15" style="opacity:1"/><path fill="#a5a3ab" d="M88.5 77.5a20.7 20.7 0 0 0-5 1v-1q2.676-1.83 5 0" style="opacity:1"/><path fill="#f2f2f3" d="M88.5 77.5q4.56 1.77 8 5a50.4 50.4 0 0 1-.5 10q-5.37 3.833-11.5 4.5-3.543-2.265-7-4.5-.787-6.96 2-13l4-1a20.7 20.7 0 0 1 5-1" style="opacity:1"/><path fill="#86848d" d="M157.5 71.5q2.142 6.882 2 14.5-.004 4.53-1 8.5a285 285 0 0 0-1-23" style="opacity:1"/><path fill="#acacb1" d="M48.5 70.5a91.7 91.7 0 0 0-2 24h-1q-.25-9.015.5-18 .85-3.334 2.5-6" style="opacity:1"/><path fill="#99999f" d="M57.5 74.5q-4.415 13.7 1 27-2.864-2.212-3.5-6a64.3 64.3 0 0 1 0-16q.56-2.987 2.5-5" style="opacity:1"/><path fill="#8d8c92" d="M116.5 74.5q1.94 2.013 2.5 5 1.22 6.78-.5 13 .483-9.231-2-18" style="opacity:1"/><path fill="#7a7981" d="M148.5 75.5q1.732 10.23.5 21-.348 1.856-1.5 3a181 181 0 0 0 1-24" style="opacity:1"/><path fill="#76767e" d="M20.5 65.5q5.65-.694 7 4.5a123 123 0 0 0-2 26.5q-2.245-13.15 1-26.5-2.454-2.915-6-4.5" style="opacity:1"/><path fill="#171626" d="M117.5 94.5q.1 2.85-1 5.5a22 22 0 0 0-4 6.5q-1.953-1.286-4-1.5.686.621 1 1.5-3.825 5.42-10 8a18.2 18.2 0 0 0-4 5 44 44 0 0 0-2-3h-4q-2.43-2.607-6-1.5-5.815 4.257-8.5 9.5-1-2-2 0l-1.5-3 1-6q-5.234-1.22-8-6 1.936-1.46 0-3a15.7 15.7 0 0 0 2.5-4 27.2 27.2 0 0 0 9.5-5.5q5.037-.733 8 3.5 5.353-3.803 12-5a34.3 34.3 0 0 0 1-11 52 52 0 0 0 13.5-7l5.5 5.5q-3.803 6.066 1 11.5" style="opacity:1"/><path fill="#63636c" d="M45.5 94.5h1a103 103 0 0 0 3 11q-3.735-4.689-4-11" style="opacity:1"/><path fill="#85848d" d="M127.5 96.5a52 52 0 0 1-1 7h-1q-.136-3.979 2-7" style="opacity:1"/><path fill="#bababd" d="M58.5 101.5a608 608 0 0 1 3 6q-3.713-1.78-3-6" style="opacity:1"/><path fill="#98979d" d="M157.5 102.5a19.2 19.2 0 0 1-1 6q0 1-1 1-3.986-.653-7-3 3.654-.274 6.5 2 .85-3.334 2.5-6" style="opacity:1"/><path fill="#242330" d="M125.5 103.5h1q1.257.513 1 2-2.003 5.694-2.5 12-3.283 1.42-7 0-1.224 1.984-3.5 2a65.2 65.2 0 0 0 11-16" style="opacity:1"/><path fill="#191828" d="M112.5 106.5q-4.845 6.099-11 10.5a54 54 0 0 1 2.5 6.5 3.94 3.94 0 0 0 2 1 104 104 0 0 0 8.5-5q2.276-.016 3.5-2 3.717 1.42 7 0 .497-6.306 2.5-12a8.4 8.4 0 0 1 4 .5q3.951 5.426 9 1.5 2.313 1.87 4.5 0l1.5 1.5a80.4 80.4 0 0 1-16 5 151 151 0 0 0 3 8.5q3.02-.162 5 2l3 2q.513 1.257 2 1a31 31 0 0 1-2 2 66 66 0 0 0 3 10 234 234 0 0 0 13.5-6q1.147.105 1.5 1-.5 1.5-2 2a3406 3406 0 0 0-24 13l-1-.5a30 30 0 0 0 7-6q-2.32-.5-4 1.5a4.46 4.46 0 0 1-1.5-2q-1.224 1.984-3.5 2a40.7 40.7 0 0 0 9-9.5 25.7 25.7 0 0 0-6.5-5.5q-9.721 8.726-21.5 14a103 103 0 0 1-11 3q-.426 2.872 1 5v6q1.936.356 3-1 1.936.356 3-1 3.597.361 6-2 2.688.201 5-1a31 31 0 0 0 2 2 178.7 178.7 0 0 1-27 15 111.6 111.6 0 0 1-21-12v-5q1.442-2.647 1-6a52 52 0 0 0-7-1q-1 0-1-1-2.99-2.495-7-3.5-2-1 0-2a9.5 9.5 0 0 1-2.5-1.5q-2.121 1.37-4.5 0a120 120 0 0 1-10.5-8q-8.496 2.087-4.5 9-1.983-.255-3.5 1-1.57-4.498-6.5-4.5a22.4 22.4 0 0 0-6-5.5q-3.679 2.84-8 4a68.7 68.7 0 0 1-7-14 5.73 5.73 0 0 1 3 1 213 213 0 0 1 11.5 7q3.235-1.328 2.5-5 1.258.513 1 2 .71 2.11 3 2 2.834 1.863 6 0 3.618-.29 3-4 1.258-.513 1-2 5.772-4.54 12.5-5a7.3 7.3 0 0 1 2 3q3.061-1.384 6.5-1 5.479 5.497 13 7-.356-1.936 1-3l1.5 3q1-2 2 0 2.685-5.243 8.5-9.5 3.57-1.107 6 1.5-2.872-.426-5 1-3.5.5-4 4-.979 1.423-1 3.5-.29 3.012 2 4.5 7.57 4.854 12.5-3 1.016-3.147-.5-6v-4a44 44 0 0 1 2 3 18.2 18.2 0 0 1 4-5q6.175-2.58 10-8a3.65 3.65 0 0 0-1-1.5q2.047.214 4 1.5" style="opacity:1"/><path fill="#8b8b94" d="M147.5 113.5a21.4 21.4 0 0 0-7 1q1.218-2.24 4-2 1.839.03 3 1" style="opacity:1"/><path fill="#f0eff2" d="M35.5 116.5q1.401 1.602 1 4 .258 1.487-1 2a302 302 0 0 0-3 4q-3.166 1.863-6 0-.71-2.11-3-2 .258-1.487-1-2 1.569-13.996 13-6" style="opacity:1"/><path fill="#f8f9f9" d="m147.5 113.5 3 2a21.4 21.4 0 0 1 1 7l-2 3a21.4 21.4 0 0 1-7 1q-1-3-4-4-.32-4.427 2-8a21.4 21.4 0 0 1 7-1" style="opacity:1"/><path fill="#191827" d="M22.5 49.5q-1.9 4.158 0 8-.11 2.29 2 3 3.356 1.555 7 .5a31.4 31.4 0 0 1 5-4.5q.666 2.42 3 3.5-.177 4.545-.5 9.5a32.5 32.5 0 0 0-2.5 6 32 32 0 0 0-3-7.5q1.425-1.076.5-2.5-5.886 1.701-1.5 6.5a29.5 29.5 0 0 0-2.5 4.5q-1 12 0 24a3.65 3.65 0 0 1 1.5-1 122 122 0 0 0 1-22h3q-.255 10.536-.5 21 1.84 5.817 5.5 10.5-4.15 1.004-1.5 3.5a29.8 29.8 0 0 1 8.5-3 143 143 0 0 1-5-15q.715-11.007 0-21.5a32.9 32.9 0 0 0 4-8.5q2.458-.639 4 0l-2 6q-1.65 2.666-2.5 6-.75 8.985-.5 18 .265 6.311 4 11a71 71 0 0 0 8 12q-3.439-.384-6.5 1a7.3 7.3 0 0 0-2-3q-6.728.46-12.5 5 .401-2.398-1-4-.015-2.276-2-3.5-7.068-2.165-11.5 3.5-1.184 3.318.5 6 .735 3.672-2.5 5a213 213 0 0 0-11.5-7q3.89-3.618 9-5.5-.912-1.305-2.5-1.5-3.489 4.084-4.5-1.5 3.993-10.423 0-22V77q2.184-5.1 3-10.5h4v1q-1.427 2.128-1 5-2.3 6.594-2 14 .003 5.275 1 10 .975 2.903 1 6-.701 4.32 2.5 7 2.19-.462 3.5-2 1.488.257 2-1h3q.402-2.398-1-4a19.2 19.2 0 0 1-1-6q-.435-13.363 2-26.5-1.35-5.194-7-4.5-.512-1.257-2-1 .635-1.147 1-2.5-1.74-5.177-1.5-10.5l1 1q.634-2.889 3.5-3" style="opacity:1"/><path fill="#8d8d95" d="M16.5 102.5q1.259 1.711 2 4 1.783 1.393 4 1-1.31 1.538-3.5 2-3.201-2.68-2.5-7" style="opacity:1"/><path fill="#91919b" d="M26.5 102.5q1.402 1.602 1 4h-3q1.96-1.451 2-4" style="opacity:1"/><path fill="#808086" d="M16.5 72.5a289 289 0 0 0-1 24q-.997-4.725-1-10-.3-7.406 2-14" style="opacity:1"/><path fill="#5c5b64" d="M22.5 57.5q2.11.71 2 3-2.11-.71-2-3" style="opacity:1"/><path fill="#3f3e4b" d="M84.5 117.5q2.128-1.426 5-1h4v4q-3.745-3.556-9-3" style="opacity:1"/><path fill="#a5a5ac" d="M84.5 117.5q-1.5 2.5-4 4 .5-3.5 4-4" style="opacity:1"/><path fill="#eeeff1" d="M84.5 117.5q5.255-.556 9 3 1.516 2.853.5 6-4.93 7.854-12.5 3a25 25 0 0 1-1-8q2.5-1.5 4-4" style="opacity:1"/><path fill="#8a8a91" d="M140.5 114.5q-2.32 3.573-2 8-2.526-4.827 2-8" style="opacity:1"/><path fill="#86848e" d="M35.5 116.5q-11.431-7.996-13 6-1.684-2.682-.5-6 4.432-5.665 11.5-3.5 1.985 1.224 2 3.5" style="opacity:1"/><path fill="#86868d" d="M150.5 115.5q2.24 1.218 2 4-.03 1.839-1 3a21.4 21.4 0 0 0-1-7" style="opacity:1"/><path fill="#bdbdc3" d="M138.5 122.5q3 1 4 4h-1l-3-2z" style="opacity:1"/><path fill="#a5a4ad" d="M23.5 124.5q2.29-.11 3 2-2.29.11-3-2" style="opacity:1"/><path fill="#5c5c65" d="M35.5 122.5q.618 3.71-3 4a302 302 0 0 1 3-4" style="opacity:1"/><path fill="#676672" d="M149.5 125.5q-2.235 2.67-6 2-1.487.257-2-1h1a21.4 21.4 0 0 0 7-1" style="opacity:1"/><path fill="#5d5d69" d="M80.5 121.5a25 25 0 0 0 1 8q-2.29-1.488-2-4.5.021-2.077 1-3.5" style="opacity:1"/><path fill="#f2f3f4" d="M51.5 137.5q5.726 5.863 14 7 0 1 1 1 2.571 1.857 6 2v5a71 71 0 0 0-2 4 18.1 18.1 0 0 0-8-2q-2.514-3.501-7-3-.71-2.11-3-2a65.4 65.4 0 0 1-16-11q-3.996-6.913 4.5-9a120 120 0 0 0 10.5 8" style="opacity:1"/><path fill="#f1f1f2" d="M130.5 144.5a18.5 18.5 0 0 0-6 4q-3.478.738-6 3-2.855.444-5 2-3.429.143-6 2-1.064 1.356-3 1-2.1-.9-3-3v-6q5.748-.573 10-4 11.779-5.274 21.5-14a25.7 25.7 0 0 1 6.5 5.5 40.7 40.7 0 0 1-9 9.5" style="opacity:1"/><path fill="#171626" d="M36.5 138.5a65.4 65.4 0 0 0 16 11q.71 2.11 3 2 3.015 2.347 7 3 3.654 2.057 8 3 1.823 2.926 5 4.5a186 186 0 0 1 16 9.5 44 44 0 0 0-3 2h-15q-39.114-6.81-61-40 4.321-1.16 8-4a22.4 22.4 0 0 1 6 5.5q4.93.002 6.5 4.5 1.517-1.255 3.5-1" style="opacity:.966"/><path fill="#484754" d="M51.5 137.5q2.379 1.37 4.5 0a9.5 9.5 0 0 0 2.5 1.5q-2 1 0 2 4.01 1.005 7 3.5-8.274-1.137-14-7" style="opacity:1"/><path fill="#7a7a84" d="M66.5 145.5a52 52 0 0 1 7 1q.442 3.353-1 6v-5q-3.429-.143-6-2" style="opacity:1"/><path fill="#ebeced" d="M89.5 145.5q9.822 6.464 0 13.5-6.52 1.615-9.5-4.5-1.17-2.83.5-5a19.6 19.6 0 0 0 4-3.5 12.9 12.9 0 0 1 5-.5" style="opacity:1"/><path fill="#908e97" d="M111.5 143.5q-4.252 3.427-10 4v4q-1.426-2.128-1-5 5.585-1.195 11-3" style="opacity:1"/><path fill="#a0a0a8" d="M89.5 145.5a12.9 12.9 0 0 0-5 .5 19.6 19.6 0 0 1-4 3.5q2.35-7.124 9-4" style="opacity:1"/><path fill="#939199" d="M52.5 149.5q2.29-.11 3 2-2.29.11-3-2" style="opacity:1"/><path fill="#a8a6b0" d="M55.5 151.5q4.486-.501 7 3-3.985-.653-7-3" style="opacity:1"/><path fill="#5a5766" d="M118.5 151.5v1q-2.312 1.201-5 1 2.145-1.556 5-2" style="opacity:1"/><path fill="#7f7f84" d="M113.5 153.5q-2.403 2.361-6 2 2.571-1.857 6-2" style="opacity:1"/><path fill="#171626" d="M157.5 136.5q-20.778 30.906-58 36-1.762.329-3-1a961 961 0 0 1 33-19.5l2-2q-2.985.207-6 1.5-3.455-.564-1-3a18.5 18.5 0 0 1 6-4q2.276-.016 3.5-2a4.46 4.46 0 0 0 1.5 2q1.68-2 4-1.5a30 30 0 0 1-7 6l1 .5a3406 3406 0 0 1 24-13" style="opacity:.942"/><path fill="#84838d" d="M72.5 152.5v5h-2q-4.346-.943-8-3 4.22.072 8 2a71 71 0 0 1 2-4" style="opacity:1"/><path fill="#73727e" d="M101.5 153.5q.9 2.1 3 3-1.064 1.356-3 1z" style="opacity:1"/><path fill="#232233" d="M124.5 148.5q-2.455 2.436 1 3 3.015-1.293 6-1.5l-2 2a961 961 0 0 0-33 19.5q1.238 1.329 3 1v1h-11a44 44 0 0 1 3-2 186 186 0 0 0-16-9.5q-3.177-1.574-5-4.5h2a111.6 111.6 0 0 0 21 12 178.7 178.7 0 0 0 27-15 31 31 0 0 1-2-2v-1q2.522-2.262 6-3" style="opacity:1"/></svg>