<svg xmlns="http://www.w3.org/2000/svg" width="50" height="50" fill="none"><g clip-path="url(#a)"><path fill="url(#b)" d="m46.354 32.031-.065-.054a4.2 4.2 0 0 0-.598-1.244l-.56-.668a5 5 0 0 0-.126-.604l-.766-1.528-.44-2.711.495-2.711.692-1.311v-.038q.107-.362.155-.736l.534-.613a4.1 4.1 0 0 0 .646-1.343l.059-.045a4.27 4.27 0 0 0 1.488-2.516 4.25 4.25 0 0 0-.484-2.878 4.3 4.3 0 0 0-2.232-1.898 4.33 4.33 0 0 0-2.937-.032h-.02a4.2 4.2 0 0 0-1.577-.17l-.74.129a5 5 0 0 0-.786-.283l-1.481-.09-.035-.026-2.587-.986-2.153-1.815-.919-1.442-.042-.051a5 5 0 0 0-.465-.43l-.278-.816v-.033a4.3 4.3 0 0 0-.783-1.172l-.02-.106a4.56 4.56 0 0 0-1.547-2.716 4.616 4.616 0 0 0-5.906-.054 4.56 4.56 0 0 0-1.599 2.687l-.03.14c-.32.33-.585.71-.785 1.122l-.323.88q-.23.181-.44.389l-1.028 1.545-2.15 1.728-2.496.886-.058.032-.033.023-1.412.058h-.046q-.403.098-.782.263l-.718-.138h-.016a4.2 4.2 0 0 0-1.552.138 4.33 4.33 0 0 0-2.94-.026 4.3 4.3 0 0 0-2.27 1.856 4.25 4.25 0 0 0 .907 5.416l.025.02c.123.498.335.97.628 1.394l.481.571q.04.395.146.778l.647 1.304v.048l.433 2.67-.488 2.668-.812 1.542-.026.065q-.083.275-.13.558l-.588.672-.022.029a4.2 4.2 0 0 0-.611 1.198l-.104.086a4.56 4.56 0 0 0-1.606 2.695 4.54 4.54 0 0 0 .518 3.088 4.6 4.6 0 0 0 2.398 2.032 4.63 4.63 0 0 0 3.152.02l.065-.026c.468.119.953.16 1.435.122l.857-.148q.315.13.647.209l1.733.11 2.625 1.001 2.111 1.777.058.035.796 1.243.026.032q.28.296.608.536l.261.752c.215.473.518.902.893 1.263v.048a4.17 4.17 0 0 0 1.428 2.567A4.22 4.22 0 0 0 25.464 50h.042a4.22 4.22 0 0 0 2.766-.963 4.17 4.17 0 0 0 1.46-2.525v-.087a4.2 4.2 0 0 0 .886-1.224l.281-.76q.308-.225.575-.495l.873-1.305 2.18-1.753 2.609-.929 1.616-.067h.068q.32-.077.627-.196l.802.154h.036q.222.023.446.023.492-.003.97-.113l.052.02a4.8 4.8 0 0 0 1.697.32 4.57 4.57 0 0 0 2.243-.625 4.53 4.53 0 0 0 1.637-1.648 4.434 4.434 0 0 0-.976-5.795m-1.556 4.323a5.6 5.6 0 0 1-2.935 2.516l-.647-.241a11.7 11.7 0 0 0 3.85-6.518l.524.444a5.5 5.5 0 0 1-.792 3.8M32.021 42.2a6 6 0 0 1-.36.151l.308-.825.598-.064-.43.642zm-1.397 1.857a6 6 0 0 1-.517.321l.194-1.04q.336-.081.646-.17zm-1.148 2.075a6.21 6.21 0 0 1-7.989-.042l-.168-1.012c1.31.544 2.716.82 4.135.81h.12c1.4.021 2.791-.236 4.09-.758zm-4.018-.71a10 10 0 0 1-4.236-.909l-.194-1.156c1.53.33 3.09.49 4.656.482a21 21 0 0 0 4.3-.418l-.213 1.143c-1.356.601-2.83.894-4.313.858m-5.413-2.325q.322.1.666.183l.178 1.056a6 6 0 0 1-.534-.346zm-1.173-1.067-.44-.69.62.077.295.844a6 6 0 0 1-.42-.183zM6.178 36.004a5.5 5.5 0 0 1-.711-3.854l.546-.447c.22 1.29.67 2.529 1.332 3.659a11.2 11.2 0 0 0 2.383 2.952l-.682.237a5.6 5.6 0 0 1-2.868-2.547m1.406-13.863c0-.138.033-.282.055-.43l.547.642q-.126.27-.243.537l-.349-.697zM6.7 20a5 5 0 0 1-.026-.61l.782.664q-.099.316-.178.643zm-.427-6.158a5.7 5.7 0 0 1 3.262-2.669l.925.344a11.36 11.36 0 0 0-4.203 7.124l-.747-.642a5.64 5.64 0 0 1 .763-4.157m1.827 1.06a9.9 9.9 0 0 1 2.91-3.183l1.066.395a22.2 22.2 0 0 0-4.526 7.632l-.86-.732a9.8 9.8 0 0 1 1.41-4.121zm4.672-3.494c-.159.147-.324.32-.482.472l-.97-.36q.273-.157.562-.286zm1.47-.473.822-.032-.369.482-.85-.16q.2-.156.394-.286zm23.057.219q.198.136.397.302l-.88.15q-.187-.26-.371-.507l.844.052zm2.389.343q.293.145.569.322l-1.006.353q-.242-.26-.485-.498zm5.577 2.711a5.63 5.63 0 0 1 .685 4.202l-.776.642a11.36 11.36 0 0 0-4.06-7.227l.97-.321a5.7 5.7 0 0 1 3.181 2.695zm-1.18 6.874q-.069-.306-.159-.642l.806-.642q-.004.3-.043.6zm-.343 1.388-.026.144-.352.665a23 23 0 0 0-.227-.536l.566-.643q.022.187.04.37m-9.297 16.88q.139-.28.284-.565l1.038.196-.252.321zm-1.478 1.423c-.242.032-.495.061-.75.087l.323-.874.97.074-.456.684zm-12.344.154-.184-1.092v-.067c3.275-.1 6.967-.064 10.226.103v.058l-.204 1.082a72.5 72.5 0 0 1-9.841-.084zm9.7.73-.22 1.169c-3.026.62-6.15.597-9.166-.064l-.198-1.186c1.704.132 3.596.2 5.461.2a63 63 0 0 0 4.113-.12zM17.986 40.63l-.463-.723c.324-.022.647-.042.993-.058l.323.9c-.288-.039-.569-.074-.837-.116zm-2.484-1.51-.258-.344 1.015-.173h.052q.148.303.288.597zm-1.761-26.396a73 73 0 0 0-4.85 8.152l-.883-.749a21.8 21.8 0 0 1 4.624-7.811zm.617.23 1.067.396a120 120 0 0 1-5.173 8.672l-.86-.729a71 71 0 0 1 4.956-8.338zm2.383-2.132q-.21.422-.437.86l-.902-.173c.175-.228.343-.446.511-.642zm16.942-.302-.663.042q-.025-.074-.045-.141l-.308-.887.424.061zm1.94.517c.164.215.323.443.507.681l-.934.16c-.149-.32-.291-.6-.43-.892zm6.34 10.635-.886.726a128 128 0 0 1-5.018-8.81l1.086-.39a71 71 0 0 1 4.802 8.474zm-4.18-8.692 1.131-.398a21.8 21.8 0 0 1 4.468 7.93l-.934.743a73 73 0 0 0-4.682-8.274zm5.172 10.982v.078l-.368.722q-.256-.38-.52-.784l.6-.687q.153.34.282.671zm.437 5.548-.786-.672c.055-.109.11-.225.162-.32l.676.802c-.026.055-.026.122-.059.19zm.56.401.206.247-.223-.189c0-.02.003-.039.01-.068zM37.665 37.3a74 74 0 0 0 4.526-7.642l.902.79a22 22 0 0 1-4.306 7.282zm-4.888 1.972q.139-.428.294-.86.604.12 1.19.26-.178.351-.346.693zm-1.669-.106c.078-.353.162-.707.252-1.053q.67.1 1.33.224c-.108.302-.211.607-.324.91a69 69 0 0 0-1.264-.075zm-12.419-.058c-.093-.321-.194-.62-.3-.931q.678-.11 1.367-.196.126.533.233 1.073zm-1.564.096q-.165-.354-.343-.719.602-.131 1.225-.238.15.444.288.884c-.42.028-.799.051-1.177.087zm-1.054-2.152q.672-.22 1.354-.404c.107.276.21.552.324.825q-.67.121-1.32.264zm-6.664-8.113.999-.82.045-.038a130 130 0 0 1 4.747 8.332l-.065.02-1.232.433a72 72 0 0 1-4.494-7.927m3.941 8.107-1.177.411a22 22 0 0 1-4.167-7.388l.95-.777a73 73 0 0 0 4.394 7.754M30.307 9.303l.204 1.207c0 .052.02.1.029.151-3.11.09-6.573.055-9.67-.096l.029-.144.226-1.199a73 73 0 0 1 9.195.08zm-9.079-.643.23-1.224c2.827-.53 5.73-.509 8.549.065l.206 1.233a74 74 0 0 0-8.972-.067zm12.7 2.307c.159.343.324.697.505 1.056-.3.065-.602.122-.909.18a30 30 0 0 1-.388-1.188zm6.58 11.907q-.413.355-.812.725a42.8 42.8 0 0 1-5.418-9.459q.536-.151 1.07-.321a121 121 0 0 0 5.16 9.055m1.681 2.57q-.214.302-.433.62c-.268-.29-.534-.592-.795-.897q.299-.336.604-.659.306.486.618.938zm-6.77 11.033c-.46-.164-.921-.322-1.387-.46a43.2 43.2 0 0 1 5.293-8.881q.517.5 1.063.964a131 131 0 0 0-4.975 8.38zm-15.535-25.5q-.145.683-.324 1.358a33 33 0 0 1-.844-.142c.156-.42.298-.841.434-1.262zm18.704 14.132q.342-.361.695-.71.436.56.885 1.092c-.19.222-.374.45-.562.678-.356-.35-.695-.7-1.038-1.063zm-.201-.225a29.2 29.2 0 0 1-5.92-10.278q.513-.11 1.022-.238a43.6 43.6 0 0 0 5.61 9.797c-.25.228-.482.472-.718.716zm-.611.662a29.8 29.8 0 0 0-5.914 9.906 30.4 30.4 0 0 0-12.564-.154 29.8 29.8 0 0 0-5.82-10.09 30.1 30.1 0 0 0 6.312-10.58c3.879.822 7.883.872 11.782.148a30.1 30.1 0 0 0 6.198 10.767zm-5.403-11.242a27 27 0 0 1-.427-1.462q.46-.06.912-.135c.162.453.324.91.518 1.362-.34.093-.676.17-1.01.244zm-.889.173c-3.834.707-7.77.658-11.584-.144q.246-.742.456-1.504a44 44 0 0 0 10.695.122c.126.524.268 1.032.427 1.533zm-11.022-2.01c.126-.476.236-.964.34-1.44 3.152.158 6.69.193 9.854.1.094.488.198.964.324 1.458-3.498.386-7.03.346-10.518-.119m-.99.244a29 29 0 0 1-.442 1.432 27 27 0 0 1-.97-.247q.282-.666.53-1.333zm-.542 1.715a29.2 29.2 0 0 1-6.037 10.111 25 25 0 0 0-.692-.726 44 44 0 0 0 5.743-9.636c.31.087.64.17.97.25zm-6.253 10.336q-.504.54-1.038 1.057-.273-.348-.546-.68.455-.53.908-1.087.343.343.676.71m.601.668a29.5 29.5 0 0 1 5.716 9.932q-.776.164-1.542.366a43.6 43.6 0 0 0-5.267-9.19q.563-.549 1.093-1.11zm5.998 10.777q.145.498.28.992-.732.096-1.441.215-.154-.428-.323-.864.737-.193 1.484-.346zm.294-.055a29.6 29.6 0 0 1 11.995.148 27 27 0 0 0-.304.992 44.3 44.3 0 0 0-11.403-.128q-.137-.51-.288-1.015zm12.286.212c.482.113.97.238 1.442.376-.116.28-.23.559-.323.838a38 38 0 0 0-1.404-.244q.127-.492.288-.973zm.291-.845a29.5 29.5 0 0 1 5.82-9.751q.518.567 1.067 1.104a43.7 43.7 0 0 0-5.387 9.042 23 23 0 0 0-1.497-.398zm7.714-9.083q.27-.334.54-.643.429.483.867.964l-.404.604zm1.727.687.77.915q-.105.213-.208.431l-.889-.755-.042-.038c.136-.187.259-.373.382-.553zm-.896-2.248a19 19 0 0 1-.834-1.038q.39-.36.792-.707.343.54.68 1.05c-.201.229-.415.457-.625.695zm-6.547-11.011a40 40 0 0 1-.495-1.285 52 52 0 0 0 .97-.193q.282.575.582 1.166-.52.16-1.044.312zm-1.432-1.513-.873.128q-.17-.687-.304-1.384l.766-.029c.14.424.278.848.424 1.285zm-1.258-1.722c0-.09-.039-.18-.052-.27l-.165-.982.518.05.407 1.173zm-11.432-.376q-.026.13-.055.26l-.68-.038.424-1.153.492-.039zm-1.53.03v.019c0 .038-.026.077-.035.112l-.647-.051.601-.903.398-.045zm-.19.59a36 36 0 0 1-.405 1.163 39 39 0 0 1-.876-.193q.269-.529.517-1.034zm-1.459 1.32q.456.108.922.206c-.159.42-.324.838-.508 1.26-.34-.104-.676-.216-1.009-.322zm-.74 1.401q.515.18 1.035.34a43 43 0 0 1-5.545 9.315 28 28 0 0 0-.792-.726 123 123 0 0 0 5.308-8.926zm-5.46 9.177q.393.348.772.71-.422.525-.857 1.03a33 33 0 0 0-.618-.693q.349-.51.702-1.047m-.926 1.374c.198.216.392.434.586.643q-.402.456-.815.896c-.142-.215-.281-.418-.417-.62.213-.302.43-.6.646-.919m1.116 1.285c.178.216.349.434.52.643-.323.321-.672.62-1.025.918l-.384-.604q.447-.463.889-.963zm-.863 1.883-.133.112-.821.675-.194-.447.795-.912zm.84.456q.56-.482 1.093-.964a43 43 0 0 1 5.173 9.03q-.718.198-1.426.433a125 125 0 0 0-4.84-8.506zm9.24 10.188a43.5 43.5 0 0 1 10.993.126q-.135.536-.252 1.079a124 124 0 0 0-10.514-.106 16 16 0 0 0-.226-1.105zm13.299-.299c.103-.27.21-.536.323-.806q.663.2 1.316.428l-.352.652c-.424-.1-.85-.193-1.287-.28zm2.085-.221.058.02 1.1.41c-.097.135-.194.273-.292.405l-1.186-.228c.103-.206.22-.411.32-.613zm.427-.797c1.465-2.698 3.21-5.63 4.875-8.203l1.016.864a72 72 0 0 1-4.63 7.811zm6.877-9.414-.666-.793.349-.505.472.941q-.072.174-.155.35zm.482.292.349.697-.434-.514zm-1.371-3.88q-.311-.481-.628-.964l.847-.693c.15.32.292.642.424.938zm-5.93-10.32h-.016q-.283-.549-.55-1.083l1.006-.173q.304.423.614.883zm-3.466-4.359-.255-.742.491.77zm-1.293-.135-.19-1.086.232.074.359 1.035c-.136-.007-.275-.02-.414-.03zm-.294-1.767-.078-.452.168.478zm-9.27-.282.194-1.034a10.83 10.83 0 0 1 7.938.048l.174 1.047a22.9 22.9 0 0 0-8.306-.061m-1.083.912-.197 1.047-.385.029.375-1.015zm.065-.68.126-.322-.062.321zm-1.753 1.862.45-.678-.24.643zm-2.712 3.177c-.178.343-.366.697-.557 1.05l-1.034-.385q.314-.443.617-.851zm-6.02 10.25q-.329.48-.647.963l-.624-.745a33 33 0 0 1 .443-.928zM9.22 23.58q-.27.4-.536.78l-.362-.728q.145-.357.323-.742zm-.397 1.96c.113.167.226.32.323.507l-.045.048-.647.739q-.078-.18-.145-.353zm-.76 1.76-.424.485.353-.662zm.517 1.156-.811.662q-.024-.101-.042-.196l.698-.803c.042.112.097.225.149.337zM7.206 29.58l-.197.164.184-.212q.009.024.013.048m.272.935a22.6 22.6 0 0 0 4.051 7.185l-.996.347A10.65 10.65 0 0 1 6.68 31.17zm5.373 7.667 1.019-.36.236.344-1.074.186zm-.598.305-.52.087.462-.16zm2.163-.877 1.019-.356c.058-.023.12-.039.178-.058q.164.317.323.642l-1.222.212zm4.491 2.207 1.216-.048.02.106.17 1.018q-.551-.049-1.07-.11zm12.024.157c0-.032.016-.064.023-.096q.6.031 1.183.07l-.359.955c-.323.032-.685.06-1.044.086zm5.442-.883.724.138-.857.036c.045-.048.087-.107.133-.164zm.76-1.04.97.366-.172.154-1.04-.2zm1.648.613.369.138-.427-.084zm4.85-7.78.773.643a10.7 10.7 0 0 1-4 6.777l-.97-.36a22.6 22.6 0 0 0 4.204-7.05zm-.491-5.139-.272-.536.21-.399.107.669zm-.181-3.392a51 51 0 0 0-.379-.819l.864-.706q.103.395.174.77zm.426-7.13a9.8 9.8 0 0 1 1.333 4.175l-.89.726a22.3 22.3 0 0 0-4.364-7.744l1.099-.386a9.9 9.9 0 0 1 2.829 3.229zm-4.714-2.891-1.073.391c-.18-.266-.359-.53-.537-.783l1.016-.174q.3.27.601.579zm-3.66-1.8-.5-.028-.35-.546.298.112zm-5.544-6.327.12.723a11.8 11.8 0 0 0-7.637-.048l.132-.713a5.58 5.58 0 0 1 3.657-1.23h.064a5.6 5.6 0 0 1 3.664 1.268M17.31 9.82l-.323.478-.02.036-.475.019.54-.437zm-2.868 1.885q-.268.368-.54.755l-1.041-.385q.297-.3.598-.556zM7.921 20.43l.837.713q-.207.416-.394.816l-.647-.758q.087-.366.204-.761zm.258 3.964.204.408-.278.53-.045-.273zm5.665 14.615.799-.113.138.196-.914-.058zm2.483.877.647.041.268.418-.679-.257zm3.165 1.58.948.09.187 1.13a10 10 0 0 1-.795-.244zM30.43 42.75l.207-1.112.921-.07-.352.963c-.262.074-.52.151-.792.219zm3.37-2.271.261-.389.62-.026-.225.18zm10.42-18.8c0-.042-.017-.087-.026-.132l.236-.273zm1.186-2.104-.184.215v-.392l.553-.453a3.4 3.4 0 0 1-.385.63zm1.75-6.402a3.85 3.85 0 0 1-.702 4.818 6.67 6.67 0 0 0-.822-3.951 6.73 6.73 0 0 0-2.954-2.768 3.92 3.92 0 0 1 2.565.176 3.9 3.9 0 0 1 1.896 1.725zm-6.467-1.856q.424-.035.844.032l-.702.244a7 7 0 0 0-.372-.238zm-1.778-.08-.488.083-.143-.122zM25.81.886a3.65 3.65 0 0 1 1.964.56 3.6 3.6 0 0 1 1.35 1.525 7.24 7.24 0 0 0-6.68-.052 3.64 3.64 0 0 1 1.383-1.506A3.67 3.67 0 0 1 25.81.887m-12.545 10.08-.132.109-.443-.087zm-2.716.054q.179-.009.356 0l.213.042q-.179.1-.362.221l-.666-.247q.23-.022.46-.016m-6.104 1.754a3.94 3.94 0 0 1 1.422-1.433 4 4 0 0 1 1.95-.546c.375.002.749.055 1.11.158a6.75 6.75 0 0 0-2.994 2.7 6.7 6.7 0 0 0-.91 3.913 3.856 3.856 0 0 1-.579-4.792m1.242 5.765.53.45c0 .138-.016.27-.016.405l-.146-.174a3.4 3.4 0 0 1-.368-.68m1.231 2.303.256.302-.03.148zm-2.54 16.125a3.59 3.59 0 0 1 .164-3.9 7.1 7.1 0 0 0 .905 3.284 7.2 7.2 0 0 0 2.328 2.498 3.65 3.65 0 0 1-1.974-.451 3.6 3.6 0 0 1-1.424-1.431m15.04 5.91.165.061.155.44zm1.293 2.098-.09-.264q.184.11.381.206l.123.742a3.7 3.7 0 0 1-.427-.662zm4.785 4.725h-.038a3.92 3.92 0 0 1-2.447-.827 3.88 3.88 0 0 1-1.391-2.164 6.3 6.3 0 0 0 3.84 1.23h.075a6.2 6.2 0 0 0 3.822-1.188 3.87 3.87 0 0 1-1.414 2.154 3.9 3.9 0 0 1-2.46.8zm4.772-4.651a3.4 3.4 0 0 1-.394.642l.136-.716a5 5 0 0 0 .355-.19zm1.022-1.661.136-.363.139-.048zm15.274-6.026a3.6 3.6 0 0 1-1.445 1.4 3.65 3.65 0 0 1-1.973.418 7.2 7.2 0 0 0 2.375-2.435 7.1 7.1 0 0 0 .981-3.247 3.58 3.58 0 0 1 .049 3.87z"/></g><defs><linearGradient id="b" x1="3" x2="44.276" y1="25" y2="37.399" gradientUnits="userSpaceOnUse"><stop stop-color="#5EE6D0"/><stop offset=".515" stop-color="#BFC6FF"/><stop offset="1" stop-color="#FFBA69"/></linearGradient><clipPath id="a"><path fill="#fff" d="M0 0h50v50H0z"/></clipPath></defs></svg>