<svg width="168" height="129" viewBox="0 0 168 129" fill="none" xmlns="http://www.w3.org/2000/svg">
<g clip-path="url(#clip0_114_17124)">
<path d="M7.41562 5.28984C7.00781 5.02734 6.52031 4.875 6 4.875C4.54922 4.875 3.375 6.04922 3.375 7.5C3.375 8.95078 4.54922 10.125 6 10.125C7.45078 10.125 8.625 8.95078 8.625 7.5H9.75C9.75 9.33281 8.43516 10.8586 6.69609 11.1844C6.525 10.9945 6.27656 10.875 6 10.875C5.72344 10.875 5.475 10.9945 5.30391 11.1844C3.79219 10.9008 2.59922 9.70781 2.31563 8.19609C2.50547 8.025 2.625 7.77656 2.625 7.5C2.625 7.22344 2.50547 6.975 2.31563 6.80391C2.64141 5.06484 4.16719 3.75 6 3.75C6.83203 3.75 7.60078 4.02187 8.22422 4.48125L9.02578 3.67969C8.19609 3.01875 7.14375 2.625 6 2.625C3.57891 2.625 1.56797 4.39219 1.18828 6.70547C0.925781 6.87188 0.75 7.16484 0.75 7.5C0.75 7.83516 0.925781 8.12812 1.18828 8.29453C1.52578 10.35 3.14766 11.9742 5.20547 12.3117C5.37188 12.5766 5.66484 12.75 6 12.75C6.33516 12.75 6.62812 12.5742 6.79453 12.3117C9.10781 11.932 10.875 9.92109 10.875 7.5H12C12 10.8141 9.31406 13.5 6 13.5C2.68594 13.5 0 10.8141 0 7.5C0 4.18594 2.68594 1.5 6 1.5C7.45547 1.5 8.78672 2.01797 9.82734 2.87812L10.8516 1.85156C11.0719 1.63125 11.4281 1.63125 11.6461 1.85156C11.8641 2.07187 11.8664 2.42813 11.6461 2.64609L7.38047 6.91172C7.45781 7.09219 7.5 7.28906 7.5 7.49766C7.5 8.325 6.82734 8.99766 6 8.99766C5.17266 8.99766 4.5 8.325 4.5 7.49766C4.5 6.67031 5.17266 5.99766 6 5.99766C6.20859 5.99766 6.40547 6.03984 6.58594 6.11719L7.41562 5.2875V5.28984Z" fill="white" fill-opacity="0.4"/>
</g>
<path d="M20.9325 12V2.54545H24.478C25.2043 2.54545 25.8137 2.68087 26.3061 2.9517C26.8016 3.22254 27.1755 3.59493 27.4279 4.06889C27.6834 4.53977 27.8111 5.07528 27.8111 5.67543C27.8111 6.28172 27.6834 6.82031 27.4279 7.29119C27.1725 7.76207 26.7955 8.13293 26.2969 8.40376C25.7983 8.67152 25.1843 8.8054 24.4549 8.8054H22.1051V7.39737H24.2241C24.6488 7.39737 24.9966 7.32351 25.2674 7.17578C25.5382 7.02805 25.7383 6.82493 25.8675 6.56641C25.9999 6.30788 26.0661 6.01089 26.0661 5.67543C26.0661 5.33996 25.9999 5.04451 25.8675 4.78906C25.7383 4.53362 25.5367 4.33511 25.2628 4.19354C24.992 4.04889 24.6426 3.97656 24.2148 3.97656H22.6452V12H20.9325ZM34.0044 9.01776V4.90909H35.6756V12H34.0552V10.7397H33.9813C33.8213 11.1367 33.5581 11.4614 33.1919 11.7138C32.8287 11.9661 32.3809 12.0923 31.8485 12.0923C31.3838 12.0923 30.9729 11.9892 30.6159 11.783C30.262 11.5737 29.985 11.2706 29.7849 10.8736C29.5849 10.4735 29.4849 9.99029 29.4849 9.42401V4.90909H31.156V9.16548C31.156 9.61482 31.2791 9.97183 31.5254 10.2365C31.7716 10.5012 32.0947 10.6335 32.4948 10.6335C32.741 10.6335 32.9795 10.5735 33.2104 10.4535C33.4412 10.3335 33.6305 10.1549 33.7782 9.91797C33.929 9.67791 34.0044 9.37784 34.0044 9.01776ZM37.7279 12V2.54545H39.3991V6.08168H39.4683C39.5545 5.90933 39.6761 5.72621 39.833 5.53232C39.99 5.33535 40.2024 5.16761 40.4701 5.02912C40.7379 4.88755 41.0795 4.81676 41.495 4.81676C42.0428 4.81676 42.5368 4.95679 42.9769 5.23686C43.42 5.51385 43.7709 5.92472 44.0294 6.46946C44.291 7.01113 44.4218 7.6759 44.4218 8.46378C44.4218 9.24242 44.2941 9.90412 44.0386 10.4489C43.7832 10.9936 43.4354 11.4091 42.9953 11.6953C42.5552 11.9815 42.0566 12.1246 41.4996 12.1246C41.0933 12.1246 40.7563 12.0569 40.4886 11.9215C40.2208 11.7861 40.0054 11.623 39.8423 11.4322C39.6822 11.2383 39.5576 11.0552 39.4683 10.8828H39.3714V12H37.7279ZM39.3668 8.45455C39.3668 8.91312 39.4314 9.31475 39.5607 9.65945C39.693 10.0041 39.8823 10.2734 40.1285 10.4673C40.3778 10.6581 40.6794 10.7536 41.0333 10.7536C41.4026 10.7536 41.7119 10.6551 41.9612 10.4581C42.2105 10.258 42.3983 9.98568 42.5244 9.64098C42.6537 9.29321 42.7183 8.89773 42.7183 8.45455C42.7183 8.01444 42.6552 7.62358 42.5291 7.28196C42.4029 6.94034 42.2151 6.67259 41.9658 6.47869C41.7166 6.2848 41.4057 6.18785 41.0333 6.18785C40.6763 6.18785 40.3732 6.28172 40.1239 6.46946C39.8746 6.6572 39.6853 6.92034 39.556 7.25888C39.4299 7.59742 39.3668 7.99598 39.3668 8.45455ZM47.7737 2.54545V12H46.1025V2.54545H47.7737ZM49.7522 12V4.90909H51.4233V12H49.7522ZM50.5924 3.9027C50.3277 3.9027 50.1 3.81499 49.9091 3.63956C49.7183 3.46106 49.6229 3.24716 49.6229 2.99787C49.6229 2.7455 49.7183 2.5316 49.9091 2.35618C50.1 2.17767 50.3277 2.08842 50.5924 2.08842C50.8601 2.08842 51.0879 2.17767 51.2756 2.35618C51.4664 2.5316 51.5618 2.7455 51.5618 2.99787C51.5618 3.24716 51.4664 3.46106 51.2756 3.63956C51.0879 3.81499 50.8601 3.9027 50.5924 3.9027ZM56.4949 12.1385C55.787 12.1385 55.1792 11.9831 54.6714 11.6722C54.1666 11.3614 53.7773 10.9321 53.5034 10.3842C53.2326 9.83333 53.0971 9.19934 53.0971 8.48224C53.0971 7.76207 53.2356 7.12654 53.5126 6.57564C53.7896 6.02166 54.1805 5.59079 54.6852 5.28303C55.193 4.97218 55.7932 4.81676 56.4856 4.81676C57.0612 4.81676 57.5705 4.92294 58.0137 5.1353C58.4599 5.34458 58.8154 5.64157 59.0801 6.02628C59.3448 6.40791 59.4956 6.85417 59.5325 7.36506H57.9352C57.8706 7.02344 57.7167 6.73875 57.4736 6.51101C57.2335 6.28018 56.9119 6.16477 56.5087 6.16477C56.1671 6.16477 55.867 6.2571 55.6085 6.44176C55.35 6.62334 55.1484 6.88494 55.0037 7.22656C54.8622 7.56818 54.7914 7.97751 54.7914 8.45455C54.7914 8.93774 54.8622 9.35322 55.0037 9.70099C55.1453 10.0457 55.3438 10.3119 55.5993 10.4996C55.8578 10.6843 56.1609 10.7766 56.5087 10.7766C56.7549 10.7766 56.975 10.7305 57.1689 10.6381C57.3658 10.5427 57.5305 10.4058 57.6628 10.2273C57.7952 10.0488 57.886 9.83179 57.9352 9.57635H59.5325C59.4925 10.078 59.3448 10.5227 59.0893 10.9105C58.8339 11.2952 58.4861 11.5968 58.046 11.8153C57.6059 12.0308 57.0889 12.1385 56.4949 12.1385ZM64.7232 12V2.54545H68.2687C68.995 2.54545 69.6044 2.67164 70.0968 2.92401C70.5923 3.17637 70.9662 3.5303 71.2186 3.98579C71.4741 4.43821 71.6018 4.96603 71.6018 5.56925C71.6018 6.17554 71.4725 6.70182 71.214 7.14808C70.9586 7.59126 70.5815 7.93442 70.083 8.17756C69.5844 8.41761 68.9719 8.53764 68.2456 8.53764H65.7204V7.11577H68.0148C68.4395 7.11577 68.7873 7.05729 69.0581 6.94034C69.3289 6.82031 69.529 6.64642 69.6582 6.41868C69.7906 6.18785 69.8568 5.90471 69.8568 5.56925C69.8568 5.23378 69.7906 4.94756 69.6582 4.71058C69.5259 4.47053 69.3243 4.28894 69.0535 4.16584C68.7827 4.03965 68.4333 3.97656 68.0055 3.97656H66.4359V12H64.7232ZM69.6075 7.71591L71.948 12H70.0368L67.7378 7.71591H69.6075ZM73.4383 12V2.54545H76.9838C77.7101 2.54545 78.3195 2.68087 78.8119 2.9517C79.3074 3.22254 79.6813 3.59493 79.9337 4.06889C80.1891 4.53977 80.3169 5.07528 80.3169 5.67543C80.3169 6.28172 80.1891 6.82031 79.9337 7.29119C79.6783 7.76207 79.3012 8.13293 78.8027 8.40376C78.3041 8.67152 77.6901 8.8054 76.9607 8.8054H74.6109V7.39737H76.7299C77.1546 7.39737 77.5024 7.32351 77.7732 7.17578C78.044 7.02805 78.2441 6.82493 78.3733 6.56641C78.5057 6.30788 78.5718 6.01089 78.5718 5.67543C78.5718 5.33996 78.5057 5.04451 78.3733 4.78906C78.2441 4.53362 78.0425 4.33511 77.7686 4.19354C77.4977 4.04889 77.1484 3.97656 76.7206 3.97656H75.151V12H73.4383ZM90.1572 5.73544H88.4306C88.3814 5.4523 88.2906 5.20147 88.1583 4.98295C88.0259 4.76136 87.8613 4.57363 87.6643 4.41974C87.4673 4.26586 87.2427 4.15045 86.9903 4.07351C86.741 3.99349 86.4717 3.95348 86.1824 3.95348C85.6685 3.95348 85.213 4.08274 84.8159 4.34126C84.4189 4.59671 84.1081 4.97218 83.8834 5.46768C83.6587 5.96011 83.5464 6.56179 83.5464 7.27273C83.5464 7.99598 83.6587 8.60535 83.8834 9.10085C84.1112 9.59328 84.422 9.96567 84.8159 10.218C85.213 10.4673 85.6669 10.592 86.1778 10.592C86.4609 10.592 86.7256 10.555 86.9718 10.4812C87.2211 10.4042 87.4443 10.2919 87.6412 10.1442C87.8413 9.99645 88.009 9.81487 88.1444 9.59943C88.2829 9.384 88.3783 9.13778 88.4306 8.8608L90.1572 8.87003C90.0926 9.31937 89.9525 9.741 89.7371 10.1349C89.5247 10.5289 89.2462 10.8767 88.9015 11.1783C88.5568 11.4768 88.1537 11.7107 87.692 11.88C87.2304 12.0462 86.7179 12.1293 86.1547 12.1293C85.3238 12.1293 84.582 11.9369 83.9296 11.5522C83.2771 11.1675 82.7631 10.612 82.3877 9.88565C82.0122 9.15933 81.8245 8.28835 81.8245 7.27273C81.8245 6.25402 82.0137 5.38305 82.3923 4.6598C82.7708 3.93348 83.2863 3.37796 83.9388 2.99325C84.5913 2.60855 85.3299 2.41619 86.1547 2.41619C86.681 2.41619 87.1703 2.49006 87.6228 2.63778C88.0752 2.78551 88.4783 3.00249 88.8323 3.28871C89.1862 3.57185 89.477 3.91963 89.7048 4.33203C89.9356 4.74136 90.0864 5.20916 90.1572 5.73544ZM101.001 6.78338L99.4774 6.94957C99.4343 6.79569 99.3589 6.65104 99.2512 6.51562C99.1465 6.38021 99.0049 6.27095 98.8264 6.18785C98.6479 6.10476 98.4294 6.06321 98.1709 6.06321C97.8231 6.06321 97.5308 6.13861 97.2938 6.28942C97.0599 6.44022 96.9445 6.63565 96.9475 6.87571C96.9445 7.08191 97.0199 7.24964 97.1737 7.37891C97.3307 7.50817 97.5892 7.61435 97.9493 7.69744L99.1588 7.95597C99.8298 8.10062 100.328 8.3299 100.655 8.64382C100.984 8.95774 101.15 9.36861 101.153 9.87642C101.15 10.3227 101.019 10.7166 100.761 11.0582C100.505 11.3968 100.15 11.6615 99.6943 11.8523C99.2388 12.0431 98.7156 12.1385 98.1247 12.1385C97.2568 12.1385 96.5582 11.9569 96.0289 11.5938C95.4995 11.2275 95.184 10.7182 95.0825 10.0657L96.7121 9.90874C96.786 10.2288 96.9429 10.4704 97.183 10.6335C97.423 10.7966 97.7354 10.8782 98.1201 10.8782C98.5171 10.8782 98.8357 10.7966 99.0757 10.6335C99.3189 10.4704 99.4404 10.2688 99.4404 10.0288C99.4404 9.82564 99.362 9.65791 99.205 9.52557C99.0511 9.39323 98.8111 9.29167 98.4848 9.22088L97.2753 8.96697C96.5951 8.8254 96.0919 8.58688 95.7657 8.25142C95.4395 7.91288 95.2779 7.48509 95.281 6.96804C95.2779 6.53101 95.3964 6.15246 95.6365 5.83239C95.8796 5.50923 96.2166 5.25994 96.6475 5.08452C97.0814 4.90601 97.5815 4.81676 98.1478 4.81676C98.9788 4.81676 99.6328 4.99373 100.11 5.34766C100.59 5.70159 100.887 6.18016 101.001 6.78338ZM105.884 12.1385C105.176 12.1385 104.569 11.9831 104.061 11.6722C103.556 11.3614 103.167 10.9321 102.893 10.3842C102.622 9.83333 102.486 9.19934 102.486 8.48224C102.486 7.76207 102.625 7.12654 102.902 6.57564C103.179 6.02166 103.57 5.59079 104.075 5.28303C104.582 4.97218 105.183 4.81676 105.875 4.81676C106.45 4.81676 106.96 4.92294 107.403 5.1353C107.849 5.34458 108.205 5.64157 108.469 6.02628C108.734 6.40791 108.885 6.85417 108.922 7.36506H107.325C107.26 7.02344 107.106 6.73875 106.863 6.51101C106.623 6.28018 106.301 6.16477 105.898 6.16477C105.556 6.16477 105.256 6.2571 104.998 6.44176C104.739 6.62334 104.538 6.88494 104.393 7.22656C104.252 7.56818 104.181 7.97751 104.181 8.45455C104.181 8.93774 104.252 9.35322 104.393 9.70099C104.535 10.0457 104.733 10.3119 104.989 10.4996C105.247 10.6843 105.55 10.7766 105.898 10.7766C106.144 10.7766 106.364 10.7305 106.558 10.6381C106.755 10.5427 106.92 10.4058 107.052 10.2273C107.185 10.0488 107.275 9.83179 107.325 9.57635H108.922C108.882 10.078 108.734 10.5227 108.479 10.9105C108.223 11.2952 107.875 11.5968 107.435 11.8153C106.995 12.0308 106.478 12.1385 105.884 12.1385ZM112.595 12.1431C112.145 12.1431 111.741 12.0631 111.38 11.9031C111.023 11.7399 110.74 11.4999 110.531 11.1829C110.325 10.8659 110.222 10.475 110.222 10.0103C110.222 9.6102 110.296 9.27936 110.443 9.01776C110.591 8.75616 110.793 8.54688 111.048 8.38991C111.303 8.23295 111.591 8.11446 111.911 8.03445C112.234 7.95135 112.568 7.89134 112.913 7.8544C113.329 7.81132 113.666 7.77285 113.924 7.73899C114.183 7.70206 114.37 7.64666 114.487 7.5728C114.607 7.49586 114.667 7.37737 114.667 7.21733V7.18963C114.667 6.84186 114.564 6.57256 114.358 6.38175C114.152 6.19093 113.855 6.09553 113.467 6.09553C113.058 6.09553 112.733 6.18478 112.493 6.36328C112.256 6.54178 112.096 6.7526 112.013 6.99574L110.453 6.77415C110.576 6.34328 110.779 5.98319 111.062 5.69389C111.345 5.40151 111.691 5.183 112.101 5.03835C112.51 4.89062 112.962 4.81676 113.458 4.81676C113.799 4.81676 114.14 4.85677 114.478 4.93679C114.817 5.01681 115.126 5.14915 115.406 5.33381C115.686 5.51539 115.911 5.76314 116.08 6.07706C116.252 6.39098 116.339 6.78338 116.339 7.25426V12H114.732V11.0259H114.677C114.575 11.2229 114.432 11.4076 114.247 11.5799C114.066 11.7492 113.836 11.8861 113.559 11.9908C113.286 12.0923 112.964 12.1431 112.595 12.1431ZM113.029 10.9151C113.364 10.9151 113.655 10.849 113.901 10.7166C114.147 10.5812 114.337 10.4027 114.469 10.1811C114.604 9.95952 114.672 9.71792 114.672 9.45632V8.62074C114.62 8.66383 114.53 8.70384 114.404 8.74077C114.281 8.7777 114.143 8.81001 113.989 8.83771C113.835 8.86541 113.683 8.89003 113.532 8.91158C113.381 8.93312 113.25 8.95159 113.139 8.96697C112.89 9.00083 112.667 9.05623 112.47 9.13317C112.273 9.21011 112.118 9.31783 112.004 9.45632C111.89 9.59174 111.833 9.76716 111.833 9.9826C111.833 10.2904 111.945 10.5227 112.17 10.6797C112.395 10.8366 112.681 10.9151 113.029 10.9151ZM119.95 7.84517V12H118.279V4.90909H119.876V6.11399H119.959C120.122 5.71697 120.383 5.40151 120.74 5.16761C121.1 4.93371 121.544 4.81676 122.074 4.81676C122.563 4.81676 122.989 4.9214 123.352 5.13068C123.719 5.33996 124.002 5.64311 124.202 6.04013C124.405 6.43714 124.505 6.9188 124.502 7.48508V12H122.831V7.74361C122.831 7.26965 122.708 6.89879 122.461 6.63104C122.218 6.36328 121.881 6.2294 121.45 6.2294C121.158 6.2294 120.898 6.29403 120.67 6.4233C120.446 6.54948 120.269 6.7326 120.139 6.97266C120.013 7.21271 119.95 7.50355 119.95 7.84517ZM128.132 7.84517V12H126.461V4.90909H128.058V6.11399H128.141C128.304 5.71697 128.564 5.40151 128.921 5.16761C129.281 4.93371 129.726 4.81676 130.256 4.81676C130.745 4.81676 131.171 4.9214 131.534 5.13068C131.901 5.33996 132.184 5.64311 132.384 6.04013C132.587 6.43714 132.687 6.9188 132.684 7.48508V12H131.013V7.74361C131.013 7.26965 130.89 6.89879 130.643 6.63104C130.4 6.36328 130.063 6.2294 129.632 6.2294C129.34 6.2294 129.08 6.29403 128.852 6.4233C128.627 6.54948 128.451 6.7326 128.321 6.97266C128.195 7.21271 128.132 7.50355 128.132 7.84517ZM137.782 12.1385C137.071 12.1385 136.457 11.9908 135.94 11.6953C135.426 11.3968 135.03 10.9751 134.753 10.4304C134.476 9.88258 134.338 9.23781 134.338 8.49609C134.338 7.76669 134.476 7.12654 134.753 6.57564C135.034 6.02166 135.424 5.59079 135.926 5.28303C136.428 4.97218 137.017 4.81676 137.694 4.81676C138.131 4.81676 138.544 4.88755 138.931 5.02912C139.322 5.16761 139.667 5.38305 139.965 5.67543C140.267 5.9678 140.504 6.3402 140.676 6.79261C140.849 7.24195 140.935 7.77746 140.935 8.39915V8.91158H135.123V7.78516H139.333C139.33 7.46508 139.261 7.1804 139.125 6.93111C138.99 6.67874 138.801 6.48023 138.557 6.33558C138.317 6.19093 138.037 6.11861 137.717 6.11861C137.376 6.11861 137.076 6.2017 136.817 6.3679C136.559 6.53101 136.357 6.74645 136.212 7.0142C136.071 7.27888 135.998 7.56972 135.995 7.88672V8.87003C135.995 9.28243 136.071 9.63636 136.222 9.93182C136.372 10.2242 136.583 10.4489 136.854 10.6058C137.125 10.7597 137.442 10.8366 137.805 10.8366C138.048 10.8366 138.268 10.8028 138.465 10.7351C138.662 10.6643 138.833 10.5612 138.978 10.4258C139.122 10.2904 139.231 10.1226 139.305 9.92259L140.866 10.098C140.767 10.5104 140.579 10.8705 140.302 11.1783C140.029 11.483 139.678 11.7199 139.25 11.8892C138.822 12.0554 138.333 12.1385 137.782 12.1385ZM142.609 12V4.90909H144.229V6.09091H144.303C144.432 5.68158 144.654 5.36612 144.968 5.14453C145.285 4.91986 145.646 4.80753 146.053 4.80753C146.145 4.80753 146.248 4.81214 146.362 4.82138C146.479 4.82753 146.576 4.8383 146.653 4.85369V6.39098C146.582 6.36636 146.47 6.34482 146.316 6.32635C146.165 6.30481 146.019 6.29403 145.877 6.29403C145.573 6.29403 145.299 6.3602 145.055 6.49254C144.815 6.6218 144.626 6.80185 144.488 7.03267C144.349 7.26349 144.28 7.52971 144.28 7.83132V12H142.609Z" fill="white" fill-opacity="0.6"/>
<path d="M160 13.3334C159.633 13.3334 159.32 13.2029 159.058 12.9417C158.797 12.6806 158.667 12.3667 158.667 12.0001C158.667 11.6334 158.797 11.3195 159.058 11.0584C159.32 10.7973 159.633 10.6667 160 10.6667C160.367 10.6667 160.681 10.7973 160.942 11.0584C161.203 11.3195 161.333 11.6334 161.333 12.0001C161.333 12.3667 161.203 12.6806 160.942 12.9417C160.681 13.2029 160.367 13.3334 160 13.3334ZM160 9.33342C159.633 9.33342 159.32 9.20286 159.058 8.94175C158.797 8.68064 158.667 8.36675 158.667 8.00008C158.667 7.63341 158.797 7.31953 159.058 7.05841C159.32 6.7973 159.633 6.66675 160 6.66675C160.367 6.66675 160.681 6.7973 160.942 7.05841C161.203 7.31953 161.333 7.63341 161.333 8.00008C161.333 8.36675 161.203 8.68064 160.942 8.94175C160.681 9.20286 160.367 9.33342 160 9.33342ZM160 5.33341C159.633 5.33341 159.32 5.20286 159.058 4.94175C158.797 4.68064 158.667 4.36675 158.667 4.00008C158.667 3.63341 158.797 3.31953 159.058 3.05841C159.32 2.7973 159.633 2.66675 160 2.66675C160.367 2.66675 160.681 2.7973 160.942 3.05841C161.203 3.31953 161.333 3.63341 161.333 4.00008C161.333 4.36675 161.203 4.68064 160.942 4.94175C160.681 5.20286 160.367 5.33341 160 5.33341Z" fill="white" fill-opacity="0.6"/>
<mask id="path-4-inside-1_114_17124" fill="white">
<path d="M0 28H168V129H0V28Z"/>
</mask>
<path d="M0 29H168V27H0V29Z" fill="white" fill-opacity="0.1" mask="url(#path-4-inside-1_114_17124)"/>
<path d="M2.45117 37.7988H1.00098V37.1006H3.31055V43.292H4.77051V44H0.839844V43.292H2.45117V37.7988ZM9.42871 44L9.40918 43.3408C9.14225 43.6045 8.87044 43.7949 8.59375 43.9121C8.32031 44.0293 8.03223 44.0879 7.72949 44.0879C7.44954 44.0879 7.21029 44.0521 7.01172 43.9805C6.81315 43.9089 6.64876 43.8112 6.51855 43.6875C6.3916 43.5605 6.2972 43.4124 6.23535 43.2432C6.17676 43.0739 6.14746 42.89 6.14746 42.6914C6.14746 42.1999 6.32975 41.8158 6.69434 41.5391C7.06217 41.2591 7.60417 41.1191 8.32031 41.1191H9.33594V40.6895C9.33594 40.3997 9.24316 40.1686 9.05762 39.9961C8.87207 39.8203 8.58887 39.7324 8.20801 39.7324C7.93132 39.7324 7.65788 39.7633 7.3877 39.8252C7.12077 39.887 6.84408 39.9749 6.55762 40.0889V39.3223C6.66504 39.2832 6.78385 39.2458 6.91406 39.21C7.04753 39.1709 7.1875 39.1367 7.33398 39.1074C7.48047 39.0781 7.63346 39.0553 7.79297 39.0391C7.95247 39.0195 8.11361 39.0098 8.27637 39.0098C8.57259 39.0098 8.83952 39.0423 9.07715 39.1074C9.31478 39.1725 9.51497 39.2718 9.67773 39.4053C9.84375 39.5387 9.9707 39.7064 10.0586 39.9082C10.1465 40.11 10.1904 40.3477 10.1904 40.6211V44H9.42871ZM9.33594 41.7686H8.25684C8.04525 41.7686 7.86296 41.7897 7.70996 41.832C7.55697 41.8743 7.43164 41.9346 7.33398 42.0127C7.23633 42.0908 7.16309 42.1852 7.11426 42.2959C7.06868 42.4033 7.0459 42.5254 7.0459 42.6621C7.0459 42.7565 7.06055 42.8477 7.08984 42.9355C7.11914 43.0202 7.16634 43.0967 7.23145 43.165C7.29655 43.2301 7.38118 43.2822 7.48535 43.3213C7.58952 43.3604 7.71647 43.3799 7.86621 43.3799C8.06152 43.3799 8.28451 43.3213 8.53516 43.2041C8.78906 43.0837 9.05599 42.8949 9.33594 42.6377V41.7686ZM15.6592 42.6621C15.6592 42.8346 15.6299 42.9893 15.5713 43.126C15.5127 43.2627 15.4329 43.3848 15.332 43.4922C15.2311 43.5964 15.1139 43.6859 14.9805 43.7607C14.847 43.8356 14.7038 43.8975 14.5508 43.9463C14.401 43.9951 14.2464 44.0309 14.0869 44.0537C13.9274 44.0765 13.7712 44.0879 13.6182 44.0879C13.2861 44.0879 12.9801 44.0732 12.7002 44.0439C12.4235 44.0146 12.1517 43.9674 11.8848 43.9023V43.1211C12.1712 43.2025 12.4561 43.2643 12.7393 43.3066C13.0225 43.349 13.304 43.3701 13.584 43.3701C13.9909 43.3701 14.292 43.3148 14.4873 43.2041C14.6826 43.0934 14.7803 42.9355 14.7803 42.7305C14.7803 42.6426 14.764 42.5645 14.7314 42.4961C14.7021 42.4245 14.6468 42.3577 14.5654 42.2959C14.484 42.2308 14.3571 42.1641 14.1846 42.0957C14.0153 42.0273 13.7826 41.9492 13.4863 41.8613C13.265 41.7962 13.0599 41.723 12.8711 41.6416C12.6855 41.557 12.5244 41.4577 12.3877 41.3438C12.251 41.2298 12.1436 41.0964 12.0654 40.9434C11.9873 40.7904 11.9482 40.6097 11.9482 40.4014C11.9482 40.2646 11.9792 40.1149 12.041 39.9521C12.1061 39.7894 12.2152 39.638 12.3682 39.498C12.5212 39.3581 12.7279 39.2425 12.9883 39.1514C13.2487 39.057 13.5742 39.0098 13.9648 39.0098C14.1569 39.0098 14.3701 39.0212 14.6045 39.0439C14.8389 39.0635 15.083 39.0993 15.3369 39.1514V39.9082C15.07 39.8431 14.8161 39.7959 14.5752 39.7666C14.3376 39.734 14.1309 39.7178 13.9551 39.7178C13.7435 39.7178 13.5645 39.734 13.418 39.7666C13.2747 39.7992 13.1576 39.8447 13.0664 39.9033C12.9785 39.9587 12.915 40.0254 12.876 40.1035C12.8369 40.1784 12.8174 40.2598 12.8174 40.3477C12.8174 40.4355 12.8337 40.5153 12.8662 40.5869C12.902 40.6585 12.9655 40.7285 13.0566 40.7969C13.151 40.862 13.2812 40.9287 13.4473 40.9971C13.6133 41.0622 13.8298 41.1338 14.0967 41.2119C14.3864 41.2965 14.6305 41.3861 14.8291 41.4805C15.0277 41.5716 15.1888 41.6742 15.3125 41.7881C15.4362 41.902 15.5241 42.0306 15.5762 42.1738C15.6315 42.3171 15.6592 42.4798 15.6592 42.6621ZM21.2256 43.9316C21.0335 43.9805 20.835 44.0146 20.6299 44.0342C20.4248 44.057 20.2165 44.0684 20.0049 44.0684C19.3896 44.0684 18.9307 43.93 18.6279 43.6533C18.3252 43.3734 18.1738 42.9453 18.1738 42.3691V39.8105H16.8018V39.0977H18.1738V37.75L19.0234 37.5303V39.0977H21.2256V39.8105H19.0234V42.3008C19.0234 42.6523 19.1162 42.916 19.3018 43.0918C19.4906 43.2643 19.7673 43.3506 20.1318 43.3506C20.2881 43.3506 20.459 43.3392 20.6445 43.3164C20.8301 43.2904 21.0238 43.2513 21.2256 43.1992V43.9316ZM32.2119 44H31.4502L31.4209 43.209C31.2744 43.3783 31.1344 43.5199 31.001 43.6338C30.8708 43.7445 30.7406 43.834 30.6104 43.9023C30.4801 43.9707 30.3483 44.0179 30.2148 44.0439C30.0846 44.0732 29.9463 44.0879 29.7998 44.0879C29.2952 44.0879 28.9144 43.9398 28.6572 43.6436C28.4001 43.3473 28.2715 42.8997 28.2715 42.3008V39.0977H29.1211V42.2324C29.1211 42.9844 29.4043 43.3604 29.9707 43.3604C30.0749 43.3604 30.1758 43.3457 30.2734 43.3164C30.3743 43.2839 30.4785 43.2301 30.5859 43.1553C30.6966 43.0771 30.8138 42.973 30.9375 42.8428C31.0645 42.7126 31.2061 42.5482 31.3623 42.3496V39.0977H32.2119V44ZM37.959 41.4609C37.959 41.8971 37.8971 42.278 37.7734 42.6035C37.653 42.929 37.4854 43.1992 37.2705 43.4141C37.0557 43.6289 36.8018 43.79 36.5088 43.8975C36.2158 44.0049 35.8984 44.0586 35.5566 44.0586C35.4004 44.0586 35.2441 44.0505 35.0879 44.0342C34.9349 44.0179 34.7786 43.9902 34.6191 43.9512V46.002H33.7695V39.0977H34.5264L34.5801 39.918C34.8242 39.5827 35.0846 39.3483 35.3613 39.2148C35.638 39.0781 35.9375 39.0098 36.2598 39.0098C36.5397 39.0098 36.7855 39.0684 36.9971 39.1855C37.2087 39.3027 37.3861 39.4688 37.5293 39.6836C37.6725 39.8952 37.7799 40.1523 37.8516 40.4551C37.9232 40.7546 37.959 41.0898 37.959 41.4609ZM37.0898 41.5C37.0898 41.2428 37.0703 41.0068 37.0312 40.792C36.9954 40.5771 36.9368 40.3932 36.8555 40.2402C36.7741 40.0872 36.6699 39.9684 36.543 39.8838C36.416 39.7959 36.2646 39.752 36.0889 39.752C35.9814 39.752 35.8724 39.7699 35.7617 39.8057C35.651 39.8382 35.5355 39.8952 35.415 39.9766C35.2979 40.0547 35.1725 40.1605 35.0391 40.2939C34.9089 40.4242 34.7689 40.5869 34.6191 40.7822V43.1602C34.7754 43.2253 34.9398 43.2773 35.1123 43.3164C35.2848 43.3522 35.4541 43.3701 35.6201 43.3701C36.0791 43.3701 36.4388 43.2155 36.6992 42.9062C36.9596 42.5938 37.0898 42.125 37.0898 41.5ZM39.0186 41.6514C39.0186 41.2347 39.0755 40.8652 39.1895 40.543C39.3034 40.2174 39.4645 39.944 39.6729 39.7227C39.8844 39.498 40.1367 39.3288 40.4297 39.2148C40.7259 39.0977 41.0547 39.0391 41.416 39.0391C41.5723 39.0391 41.7253 39.0488 41.875 39.0684C42.028 39.0879 42.1777 39.1188 42.3242 39.1611V37.1006H43.1787V44H42.417L42.3877 43.0723C42.1501 43.4173 41.8929 43.6729 41.6162 43.8389C41.3395 44.0049 41.04 44.0879 40.7178 44.0879C40.4378 44.0879 40.1904 44.0293 39.9756 43.9121C39.764 43.7949 39.5866 43.6305 39.4434 43.4189C39.3034 43.2041 39.1976 42.9469 39.126 42.6475C39.0544 42.348 39.0186 42.016 39.0186 41.6514ZM39.8877 41.5977C39.8877 42.1901 39.974 42.6328 40.1465 42.9258C40.3223 43.2155 40.5697 43.3604 40.8887 43.3604C41.1035 43.3604 41.3298 43.2643 41.5674 43.0723C41.8083 42.8802 42.0605 42.5954 42.3242 42.2178V39.9424C42.1842 39.8773 42.0296 39.8285 41.8604 39.7959C41.6911 39.7601 41.5234 39.7422 41.3574 39.7422C40.8952 39.7422 40.5339 39.8919 40.2734 40.1914C40.0163 40.4909 39.8877 40.9596 39.8877 41.5977ZM47.915 44L47.8955 43.3408C47.6286 43.6045 47.3568 43.7949 47.0801 43.9121C46.8066 44.0293 46.5186 44.0879 46.2158 44.0879C45.9359 44.0879 45.6966 44.0521 45.498 43.9805C45.2995 43.9089 45.1351 43.8112 45.0049 43.6875C44.8779 43.5605 44.7835 43.4124 44.7217 43.2432C44.6631 43.0739 44.6338 42.89 44.6338 42.6914C44.6338 42.1999 44.8161 41.8158 45.1807 41.5391C45.5485 41.2591 46.0905 41.1191 46.8066 41.1191H47.8223V40.6895C47.8223 40.3997 47.7295 40.1686 47.5439 39.9961C47.3584 39.8203 47.0752 39.7324 46.6943 39.7324C46.4176 39.7324 46.1442 39.7633 45.874 39.8252C45.6071 39.887 45.3304 39.9749 45.0439 40.0889V39.3223C45.1514 39.2832 45.2702 39.2458 45.4004 39.21C45.5339 39.1709 45.6738 39.1367 45.8203 39.1074C45.9668 39.0781 46.1198 39.0553 46.2793 39.0391C46.4388 39.0195 46.5999 39.0098 46.7627 39.0098C47.0589 39.0098 47.3258 39.0423 47.5635 39.1074C47.8011 39.1725 48.0013 39.2718 48.1641 39.4053C48.3301 39.5387 48.457 39.7064 48.5449 39.9082C48.6328 40.11 48.6768 40.3477 48.6768 40.6211V44H47.915ZM47.8223 41.7686H46.7432C46.5316 41.7686 46.3493 41.7897 46.1963 41.832C46.0433 41.8743 45.918 41.9346 45.8203 42.0127C45.7227 42.0908 45.6494 42.1852 45.6006 42.2959C45.555 42.4033 45.5322 42.5254 45.5322 42.6621C45.5322 42.7565 45.5469 42.8477 45.5762 42.9355C45.6055 43.0202 45.6527 43.0967 45.7178 43.165C45.7829 43.2301 45.8675 43.2822 45.9717 43.3213C46.0758 43.3604 46.2028 43.3799 46.3525 43.3799C46.5479 43.3799 46.7708 43.3213 47.0215 43.2041C47.2754 43.0837 47.5423 42.8949 47.8223 42.6377V41.7686ZM54.2139 43.9316C54.0218 43.9805 53.8232 44.0146 53.6182 44.0342C53.4131 44.057 53.2048 44.0684 52.9932 44.0684C52.3779 44.0684 51.9189 43.93 51.6162 43.6533C51.3135 43.3734 51.1621 42.9453 51.1621 42.3691V39.8105H49.79V39.0977H51.1621V37.75L52.0117 37.5303V39.0977H54.2139V39.8105H52.0117V42.3008C52.0117 42.6523 52.1045 42.916 52.29 43.0918C52.4788 43.2643 52.7555 43.3506 53.1201 43.3506C53.2764 43.3506 53.4473 43.3392 53.6328 43.3164C53.8184 43.2904 54.012 43.2513 54.2139 43.1992V43.9316ZM59.9023 41.29C59.9023 41.4105 59.9007 41.5114 59.8975 41.5928C59.8942 41.6742 59.8893 41.7507 59.8828 41.8223H56.4404C56.4404 42.3236 56.5804 42.7093 56.8604 42.9795C57.1403 43.2464 57.5439 43.3799 58.0713 43.3799C58.2145 43.3799 58.3577 43.375 58.501 43.3652C58.6442 43.3522 58.7826 43.3359 58.916 43.3164C59.0495 43.2969 59.1764 43.2757 59.2969 43.2529C59.4206 43.2269 59.5345 43.1992 59.6387 43.1699V43.8682C59.4076 43.9333 59.1455 43.9854 58.8525 44.0244C58.5628 44.0667 58.2617 44.0879 57.9492 44.0879C57.5293 44.0879 57.168 44.0309 56.8652 43.917C56.5625 43.8031 56.3135 43.6387 56.1182 43.4238C55.9261 43.2057 55.7829 42.9404 55.6885 42.6279C55.5973 42.3122 55.5518 41.9557 55.5518 41.5586C55.5518 41.2135 55.6006 40.888 55.6982 40.582C55.7992 40.2728 55.944 40.0026 56.1328 39.7715C56.3249 39.5371 56.5592 39.3516 56.8359 39.2148C57.1126 39.0781 57.4268 39.0098 57.7783 39.0098C58.1201 39.0098 58.4229 39.0635 58.6865 39.1709C58.9502 39.2783 59.1715 39.4313 59.3506 39.6299C59.5329 39.8252 59.6696 40.0645 59.7607 40.3477C59.8551 40.6276 59.9023 40.9417 59.9023 41.29ZM59.0186 41.168C59.0283 40.9499 59.0072 40.7513 58.9551 40.5723C58.903 40.39 58.8216 40.2337 58.7109 40.1035C58.6035 39.9733 58.4684 39.8724 58.3057 39.8008C58.1429 39.7259 57.9541 39.6885 57.7393 39.6885C57.5537 39.6885 57.3844 39.7243 57.2314 39.7959C57.0785 39.8675 56.9466 39.9684 56.8359 40.0986C56.7253 40.2288 56.6357 40.3851 56.5674 40.5674C56.499 40.7497 56.4567 40.9499 56.4404 41.168H59.0186ZM63.2275 39.0098C63.3285 39.0098 63.4245 39.0309 63.5156 39.0732C63.6068 39.1123 63.6865 39.166 63.7549 39.2344C63.8232 39.3027 63.877 39.3825 63.916 39.4736C63.9583 39.5648 63.9795 39.6608 63.9795 39.7617C63.9795 39.8659 63.9583 39.9635 63.916 40.0547C63.877 40.1426 63.8232 40.2207 63.7549 40.2891C63.6865 40.3574 63.6068 40.4111 63.5156 40.4502C63.4245 40.4893 63.3285 40.5088 63.2275 40.5088C63.1234 40.5088 63.0257 40.4893 62.9346 40.4502C62.8467 40.4111 62.7686 40.3574 62.7002 40.2891C62.6318 40.2207 62.5781 40.1426 62.5391 40.0547C62.5 39.9635 62.4805 39.8659 62.4805 39.7617C62.4805 39.6608 62.5 39.5648 62.5391 39.4736C62.5781 39.3825 62.6318 39.3027 62.7002 39.2344C62.7686 39.166 62.8467 39.1123 62.9346 39.0732C63.0257 39.0309 63.1234 39.0098 63.2275 39.0098ZM63.2275 42.5889C63.3285 42.5889 63.4245 42.61 63.5156 42.6523C63.6068 42.6914 63.6865 42.7451 63.7549 42.8135C63.8232 42.8818 63.877 42.9616 63.916 43.0527C63.9583 43.1439 63.9795 43.2399 63.9795 43.3408C63.9795 43.445 63.9583 43.5426 63.916 43.6338C63.877 43.7217 63.8232 43.7998 63.7549 43.8682C63.6865 43.9365 63.6068 43.9902 63.5156 44.0293C63.4245 44.0684 63.3285 44.0879 63.2275 44.0879C63.1234 44.0879 63.0257 44.0684 62.9346 44.0293C62.8467 43.9902 62.7686 43.9365 62.7002 43.8682C62.6318 43.7998 62.5781 43.7217 62.5391 43.6338C62.5 43.5426 62.4805 43.445 62.4805 43.3408C62.4805 43.2399 62.5 43.1439 62.5391 43.0527C62.5781 42.9616 62.6318 42.8818 62.7002 42.8135C62.7686 42.7451 62.8467 42.6914 62.9346 42.6523C63.0257 42.61 63.1234 42.5889 63.2275 42.5889Z" fill="white" fill-opacity="0.4"/>
<rect x="105" y="36" width="63" height="12" rx="4" fill="white" fill-opacity="0.1"/>
<path d="M114.8 43.0615C114.8 43.3415 114.743 43.6051 114.629 43.8525C114.515 44.0967 114.344 44.3115 114.116 44.4971C113.888 44.6794 113.602 44.8242 113.257 44.9316C112.912 45.0358 112.51 45.0879 112.051 45.0879C111.797 45.0879 111.569 45.0798 111.367 45.0635C111.165 45.0472 110.977 45.026 110.801 45V44.2383C111.003 44.2741 111.216 44.3018 111.44 44.3213C111.665 44.3408 111.895 44.3506 112.129 44.3506C112.448 44.3506 112.72 44.3229 112.944 44.2676C113.172 44.209 113.358 44.126 113.501 44.0186C113.644 43.9111 113.748 43.7809 113.813 43.6279C113.879 43.4749 113.911 43.3024 113.911 43.1104C113.911 42.9346 113.872 42.7816 113.794 42.6514C113.716 42.5212 113.605 42.4121 113.462 42.3242C113.322 42.2363 113.153 42.1712 112.954 42.1289C112.759 42.0833 112.544 42.0605 112.31 42.0605H111.582V41.3623H112.319C112.511 41.3623 112.686 41.3379 112.842 41.2891C113.001 41.237 113.136 41.1637 113.247 41.0693C113.361 40.9749 113.447 40.8594 113.506 40.7227C113.568 40.5827 113.599 40.4248 113.599 40.249C113.599 39.9072 113.494 39.6582 113.286 39.502C113.078 39.3457 112.772 39.2676 112.368 39.2676C112.153 39.2676 111.932 39.2887 111.704 39.3311C111.476 39.3734 111.232 39.4368 110.972 39.5215V38.7793C111.082 38.7402 111.2 38.7061 111.323 38.6768C111.45 38.6442 111.576 38.6182 111.699 38.5986C111.826 38.5758 111.951 38.5596 112.075 38.5498C112.199 38.5368 112.318 38.5303 112.432 38.5303C112.77 38.5303 113.068 38.5677 113.325 38.6426C113.582 38.7142 113.797 38.8184 113.97 38.9551C114.142 39.0918 114.272 39.2578 114.36 39.4531C114.448 39.6484 114.492 39.8682 114.492 40.1123C114.492 40.4769 114.398 40.7829 114.209 41.0303C114.023 41.2777 113.768 41.4746 113.442 41.6211C113.608 41.6471 113.771 41.6992 113.931 41.7773C114.093 41.8555 114.238 41.9564 114.365 42.0801C114.495 42.2005 114.6 42.3438 114.678 42.5098C114.759 42.6758 114.8 42.8597 114.8 43.0615ZM120.086 39.4092L117.41 45H116.438L119.217 39.4092H115.769V38.6182H120.086V39.4092ZM129.871 45V41.4795C129.871 41.3265 129.865 41.2012 129.852 41.1035C129.842 41.0059 129.824 40.9294 129.798 40.874C129.775 40.8154 129.745 40.7747 129.705 40.752C129.67 40.7292 129.624 40.7178 129.569 40.7178C129.504 40.7178 129.443 40.7373 129.388 40.7764C129.333 40.8154 129.273 40.8789 129.207 40.9668C129.146 41.0547 129.076 41.1719 128.997 41.3184C128.923 41.4616 128.833 41.639 128.729 41.8506V45H127.953V41.5723C127.953 41.3932 127.946 41.2484 127.933 41.1377C127.923 41.027 127.905 40.9408 127.879 40.8789C127.857 40.8171 127.826 40.7747 127.787 40.752C127.747 40.7292 127.7 40.7178 127.645 40.7178C127.586 40.7178 127.531 40.734 127.479 40.7666C127.427 40.7992 127.368 40.8577 127.303 40.9424C127.241 41.027 127.171 41.1426 127.093 41.2891C127.015 41.4355 126.922 41.6227 126.815 41.8506V45H126.034V40.0977H126.683L126.722 41.0303C126.807 40.8447 126.888 40.6868 126.966 40.5566C127.048 40.4264 127.131 40.3223 127.215 40.2441C127.3 40.1628 127.389 40.1042 127.484 40.0684C127.581 40.0293 127.689 40.0098 127.806 40.0098C128.07 40.0098 128.27 40.096 128.407 40.2686C128.543 40.4411 128.612 40.708 128.612 41.0693C128.69 40.9001 128.766 40.7503 128.841 40.6201C128.916 40.4867 128.996 40.376 129.08 40.2881C129.168 40.1969 129.264 40.1286 129.369 40.083C129.473 40.0342 129.593 40.0098 129.73 40.0098C130.345 40.0098 130.653 40.4834 130.653 41.4307V45H129.871ZM133.243 40.8008H131.793V40.0977H134.103V44.292H135.563V45H131.632V44.292H133.243V40.8008ZM133.541 38.042C133.636 38.042 133.724 38.0599 133.805 38.0957C133.886 38.1283 133.956 38.1755 134.015 38.2373C134.077 38.2992 134.124 38.3708 134.156 38.4521C134.192 38.5303 134.21 38.6165 134.21 38.7109C134.21 38.8021 134.192 38.8883 134.156 38.9697C134.124 39.0511 134.077 39.1227 134.015 39.1846C133.956 39.2464 133.886 39.2952 133.805 39.3311C133.724 39.3636 133.636 39.3799 133.541 39.3799C133.447 39.3799 133.359 39.3636 133.278 39.3311C133.196 39.2952 133.125 39.2464 133.063 39.1846C133.004 39.1227 132.957 39.0511 132.921 38.9697C132.889 38.8883 132.872 38.8021 132.872 38.7109C132.872 38.6165 132.889 38.5303 132.921 38.4521C132.957 38.3708 133.004 38.2992 133.063 38.2373C133.125 38.1755 133.196 38.1283 133.278 38.0957C133.359 38.0599 133.447 38.042 133.541 38.042ZM136.771 40.0977H137.528L137.562 40.8887C137.706 40.7194 137.844 40.5794 137.978 40.4688C138.111 40.3548 138.241 40.2637 138.368 40.1953C138.498 40.127 138.63 40.0798 138.764 40.0537C138.897 40.0244 139.035 40.0098 139.179 40.0098C139.683 40.0098 140.064 40.1595 140.321 40.459C140.582 40.7552 140.712 41.2028 140.712 41.8018V45H139.862V41.8701C139.862 41.486 139.791 41.2028 139.647 41.0205C139.504 40.835 139.291 40.7422 139.008 40.7422C138.904 40.7422 138.801 40.7585 138.7 40.791C138.603 40.8203 138.5 40.874 138.393 40.9521C138.285 41.027 138.168 41.1296 138.041 41.2598C137.917 41.39 137.777 41.5527 137.621 41.748V45H136.771V40.0977ZM150.317 45L150.297 44.3408C150.031 44.6045 149.759 44.7949 149.482 44.9121C149.209 45.0293 148.921 45.0879 148.618 45.0879C148.338 45.0879 148.099 45.0521 147.9 44.9805C147.701 44.9089 147.537 44.8112 147.407 44.6875C147.28 44.5605 147.185 44.4124 147.124 44.2432C147.065 44.0739 147.036 43.89 147.036 43.6914C147.036 43.1999 147.218 42.8158 147.583 42.5391C147.95 42.2591 148.492 42.1191 149.209 42.1191H150.224V41.6895C150.224 41.3997 150.131 41.1686 149.946 40.9961C149.76 40.8203 149.477 40.7324 149.096 40.7324C148.82 40.7324 148.546 40.7633 148.276 40.8252C148.009 40.887 147.732 40.9749 147.446 41.0889V40.3223C147.553 40.2832 147.672 40.2458 147.802 40.21C147.936 40.1709 148.076 40.1367 148.222 40.1074C148.369 40.0781 148.522 40.0553 148.681 40.0391C148.841 40.0195 149.002 40.0098 149.165 40.0098C149.461 40.0098 149.728 40.0423 149.965 40.1074C150.203 40.1725 150.403 40.2718 150.566 40.4053C150.732 40.5387 150.859 40.7064 150.947 40.9082C151.035 41.11 151.079 41.3477 151.079 41.6211V45H150.317ZM150.224 42.7686H149.145C148.934 42.7686 148.751 42.7897 148.598 42.832C148.445 42.8743 148.32 42.9346 148.222 43.0127C148.125 43.0908 148.051 43.1852 148.003 43.2959C147.957 43.4033 147.934 43.5254 147.934 43.6621C147.934 43.7565 147.949 43.8477 147.978 43.9355C148.007 44.0202 148.055 44.0967 148.12 44.165C148.185 44.2301 148.269 44.2822 148.374 44.3213C148.478 44.3604 148.605 44.3799 148.754 44.3799C148.95 44.3799 149.173 44.3213 149.423 44.2041C149.677 44.0837 149.944 43.8949 150.224 43.6377V42.7686ZM155.896 40.791C155.987 40.9049 156.057 41.0384 156.106 41.1914C156.158 41.3411 156.184 41.5039 156.184 41.6797C156.184 41.9336 156.137 42.1663 156.042 42.3779C155.951 42.5863 155.821 42.7653 155.652 42.915C155.482 43.0648 155.279 43.182 155.041 43.2666C154.807 43.348 154.548 43.3887 154.265 43.3887C154.06 43.3887 153.868 43.3675 153.689 43.3252C153.51 43.2796 153.368 43.2243 153.264 43.1592C153.202 43.2503 153.15 43.3366 153.108 43.418C153.065 43.4993 153.044 43.5905 153.044 43.6914C153.044 43.8151 153.103 43.9176 153.22 43.999C153.341 44.0804 153.498 44.1243 153.694 44.1309L154.983 44.1797C155.227 44.1862 155.452 44.2171 155.657 44.2725C155.865 44.3278 156.042 44.4076 156.189 44.5117C156.339 44.6159 156.454 44.7445 156.536 44.8975C156.62 45.0505 156.662 45.2279 156.662 45.4297C156.662 45.6478 156.615 45.8545 156.521 46.0498C156.426 46.2451 156.28 46.416 156.081 46.5625C155.886 46.7122 155.637 46.8311 155.334 46.9189C155.032 47.0068 154.672 47.0508 154.255 47.0508C153.858 47.0508 153.52 47.0182 153.24 46.9531C152.963 46.8913 152.735 46.8034 152.556 46.6895C152.377 46.5788 152.247 46.4453 152.165 46.2891C152.084 46.1361 152.043 45.9668 152.043 45.7812C152.043 45.5436 152.099 45.3353 152.209 45.1562C152.32 44.9772 152.491 44.8047 152.722 44.6387C152.637 44.5996 152.564 44.5508 152.502 44.4922C152.44 44.4336 152.39 44.3701 152.351 44.3018C152.312 44.2301 152.283 44.1553 152.263 44.0771C152.244 43.999 152.234 43.9225 152.234 43.8477C152.234 43.6361 152.283 43.4424 152.38 43.2666C152.481 43.0908 152.6 42.9248 152.737 42.7686C152.675 42.6937 152.62 42.6204 152.571 42.5488C152.525 42.4772 152.484 42.4007 152.449 42.3193C152.416 42.2347 152.39 42.1452 152.371 42.0508C152.354 41.9531 152.346 41.8424 152.346 41.7188C152.346 41.4648 152.392 41.2337 152.483 41.0254C152.577 40.8138 152.707 40.6331 152.873 40.4834C153.043 40.3337 153.245 40.2181 153.479 40.1367C153.717 40.0521 153.979 40.0098 154.265 40.0098C154.385 40.0098 154.501 40.0179 154.612 40.0342C154.722 40.0505 154.82 40.0716 154.905 40.0977H156.682V40.791H155.896ZM152.947 45.708C152.947 45.9391 153.067 46.1068 153.308 46.2109C153.549 46.3184 153.884 46.3721 154.314 46.3721C154.584 46.3721 154.81 46.3477 154.993 46.2988C155.178 46.25 155.326 46.1849 155.437 46.1035C155.551 46.0254 155.632 45.9342 155.681 45.8301C155.73 45.7292 155.754 45.625 155.754 45.5176C155.754 45.319 155.673 45.1725 155.51 45.0781C155.347 44.9837 155.098 44.9284 154.763 44.9121L153.484 44.8682C153.376 44.9398 153.287 45.0098 153.215 45.0781C153.147 45.1465 153.093 45.2148 153.054 45.2832C153.015 45.3548 152.987 45.4248 152.971 45.4932C152.955 45.5648 152.947 45.6364 152.947 45.708ZM153.205 41.6992C153.205 41.8555 153.232 41.9987 153.284 42.1289C153.336 42.2591 153.409 42.3698 153.503 42.4609C153.598 42.5521 153.708 42.6237 153.835 42.6758C153.966 42.7246 154.109 42.749 154.265 42.749C154.434 42.749 154.584 42.7214 154.714 42.666C154.848 42.6074 154.958 42.5293 155.046 42.4316C155.137 42.334 155.206 42.2217 155.251 42.0947C155.3 41.9678 155.325 41.8359 155.325 41.6992C155.325 41.543 155.299 41.3997 155.246 41.2695C155.194 41.1393 155.121 41.0286 155.027 40.9375C154.932 40.8464 154.82 40.7764 154.69 40.7275C154.563 40.6755 154.421 40.6494 154.265 40.6494C154.096 40.6494 153.944 40.6787 153.811 40.7373C153.681 40.7959 153.57 40.874 153.479 40.9717C153.391 41.0661 153.323 41.1768 153.274 41.3037C153.228 41.4307 153.205 41.5625 153.205 41.6992ZM161.831 42.5098C161.831 42.8906 161.778 43.2406 161.67 43.5596C161.563 43.8753 161.408 44.1471 161.206 44.375C161.004 44.5996 160.759 44.7754 160.469 44.9023C160.179 45.026 159.85 45.0879 159.483 45.0879C159.131 45.0879 158.815 45.0342 158.535 44.9268C158.259 44.8161 158.023 44.6549 157.827 44.4434C157.635 44.2318 157.487 43.9697 157.383 43.6572C157.282 43.3447 157.232 42.985 157.232 42.5781C157.232 42.1973 157.285 41.8506 157.393 41.5381C157.5 41.2223 157.655 40.9521 157.857 40.7275C158.058 40.4997 158.304 40.3239 158.594 40.2002C158.884 40.0732 159.212 40.0098 159.58 40.0098C159.932 40.0098 160.246 40.0651 160.523 40.1758C160.803 40.2832 161.039 40.4427 161.231 40.6543C161.426 40.8626 161.574 41.123 161.675 41.4355C161.779 41.748 161.831 42.1061 161.831 42.5098ZM160.962 42.5488C160.962 42.2461 160.928 41.9824 160.86 41.7578C160.794 41.5299 160.7 41.3411 160.576 41.1914C160.453 41.0384 160.301 40.9245 160.122 40.8496C159.946 40.7715 159.75 40.7324 159.531 40.7324C159.278 40.7324 159.059 40.7829 158.877 40.8838C158.698 40.9814 158.55 41.1133 158.433 41.2793C158.319 41.4453 158.234 41.639 158.179 41.8604C158.127 42.0785 158.101 42.3079 158.101 42.5488C158.101 42.8516 158.133 43.1169 158.198 43.3447C158.267 43.5726 158.363 43.763 158.487 43.916C158.61 44.0658 158.76 44.1797 158.936 44.2578C159.112 44.3327 159.31 44.3701 159.531 44.3701C159.785 44.3701 160.002 44.3213 160.181 44.2236C160.363 44.1227 160.511 43.9893 160.625 43.8232C160.742 43.6572 160.827 43.4652 160.879 43.2471C160.934 43.0257 160.962 42.793 160.962 42.5488Z" fill="white" fill-opacity="0.4"/>
<rect y="56" width="168" height="23" rx="4" fill="url(#paint0_linear_114_17124)" fill-opacity="0.05"/>
<g clip-path="url(#clip1_114_17124)">
<path d="M12.3333 63.8333C12.3333 63.2812 12.7812 62.8333 13.3333 62.8333H14.6667C15.2188 62.8333 15.6667 63.2812 15.6667 63.8333V65.1666C15.6667 65.7187 15.2188 66.1666 14.6667 66.1666H14.5V66.9999H17.6667C18.3104 66.9999 18.8333 67.5228 18.8333 68.1666V68.8333H19C19.5521 68.8333 20 69.2812 20 69.8333V71.1666C20 71.7187 19.5521 72.1666 19 72.1666H17.6667C17.1146 72.1666 16.6667 71.7187 16.6667 71.1666V69.8333C16.6667 69.2812 17.1146 68.8333 17.6667 68.8333H17.8333V68.1666C17.8333 68.0749 17.7583 67.9999 17.6667 67.9999H14.5V68.8333H14.6667C15.2188 68.8333 15.6667 69.2812 15.6667 69.8333V71.1666C15.6667 71.7187 15.2188 72.1666 14.6667 72.1666H13.3333C12.7812 72.1666 12.3333 71.7187 12.3333 71.1666V69.8333C12.3333 69.2812 12.7812 68.8333 13.3333 68.8333H13.5V67.9999H10.3333C10.2417 67.9999 10.1667 68.0749 10.1667 68.1666V68.8333H10.3333C10.8854 68.8333 11.3333 69.2812 11.3333 69.8333V71.1666C11.3333 71.7187 10.8854 72.1666 10.3333 72.1666H9C8.44792 72.1666 8 71.7187 8 71.1666V69.8333C8 69.2812 8.44792 68.8333 9 68.8333H9.16667V68.1666C9.16667 67.5228 9.68958 66.9999 10.3333 66.9999H13.5V66.1666H13.3333C12.7812 66.1666 12.3333 65.7187 12.3333 65.1666V63.8333Z" fill="white" fill-opacity="0.4"/>
</g>
<path d="M28.8984 71V64.6182H32.7412V65.6338H30.1191V67.2207H32.6191V68.2119H30.1191V69.9844H32.7412V71H28.8984ZM37.1113 71L35.4023 67.1914L35.0508 66.3711V69.0176V71H33.957V64.6182H35.4316L37.1748 68.4512L37.4824 69.1982V66.3809V64.6182H38.5762V71H37.1113ZM44.2354 67.7285C44.2354 68.2233 44.1735 68.6725 44.0498 69.0762C43.9294 69.4798 43.7389 69.8249 43.4785 70.1113C43.2214 70.3945 42.891 70.6143 42.4873 70.7705C42.0837 70.9235 41.6003 71 41.0371 71H39.416V64.6182H41.3057C41.7939 64.6182 42.2204 64.68 42.585 64.8037C42.9528 64.9242 43.2588 65.1113 43.5029 65.3652C43.7471 65.6191 43.9294 65.9414 44.0498 66.332C44.1735 66.7227 44.2354 67.1882 44.2354 67.7285ZM42.9463 67.8066C42.9463 67.4616 42.9186 67.154 42.8633 66.8838C42.8079 66.6136 42.7135 66.3857 42.5801 66.2002C42.4499 66.0114 42.2741 65.8682 42.0527 65.7705C41.8314 65.6729 41.5563 65.624 41.2275 65.624H40.6172V69.9941H41.1445C41.7337 69.9941 42.1813 69.8184 42.4873 69.4668C42.7933 69.1152 42.9463 68.5618 42.9463 67.8066ZM49.582 66.6494C49.582 66.9814 49.5267 67.2891 49.416 67.5723C49.3053 67.8522 49.141 68.0947 48.9229 68.2998C48.7048 68.5049 48.4329 68.6644 48.1074 68.7783C47.7819 68.8923 47.4043 68.9492 46.9746 68.9492H46.3643V71H45.1533V64.6182H47.0234C47.4368 64.6182 47.8014 64.6637 48.1172 64.7549C48.4362 64.8428 48.7031 64.973 48.918 65.1455C49.1361 65.318 49.3005 65.5312 49.4111 65.7852C49.5251 66.0358 49.582 66.3239 49.582 66.6494ZM48.3223 66.7324C48.3223 66.5632 48.2946 66.4102 48.2393 66.2734C48.1872 66.1335 48.1058 66.0146 47.9951 65.917C47.8877 65.8193 47.751 65.7445 47.585 65.6924C47.4189 65.6403 47.222 65.6143 46.9941 65.6143H46.3643V67.9531H47.0332C47.2415 67.9531 47.4255 67.9255 47.585 67.8701C47.7445 67.8115 47.8779 67.7285 47.9854 67.6211C48.096 67.5137 48.179 67.3851 48.2344 67.2354C48.293 67.0856 48.3223 66.918 48.3223 66.7324ZM55.3096 67.7822C55.3096 68.3617 55.2412 68.8613 55.1045 69.2812C54.971 69.7012 54.7855 70.0462 54.5479 70.3164C54.3135 70.5866 54.0368 70.7868 53.7178 70.917C53.402 71.0472 53.0635 71.1123 52.7021 71.1123C51.8623 71.1123 51.2308 70.834 50.8076 70.2773C50.3844 69.7174 50.1729 68.9053 50.1729 67.8408C50.1729 67.2614 50.2396 66.7617 50.373 66.3418C50.5098 65.9219 50.6953 65.5768 50.9297 65.3066C51.1673 65.0365 51.444 64.8363 51.7598 64.7061C52.0788 64.5758 52.4189 64.5107 52.7803 64.5107C53.6201 64.5107 54.2516 64.7891 54.6748 65.3457C55.098 65.9023 55.3096 66.7145 55.3096 67.7822ZM54.04 67.8408C54.04 67.0856 53.9391 66.5225 53.7373 66.1514C53.5355 65.7803 53.2035 65.5947 52.7412 65.5947C52.5101 65.5947 52.3132 65.6436 52.1504 65.7412C51.9876 65.8356 51.8525 65.9756 51.7451 66.1611C51.641 66.3467 51.5645 66.5762 51.5156 66.8496C51.4668 67.1198 51.4424 67.4307 51.4424 67.7822C51.4424 68.5374 51.5433 69.1006 51.7451 69.4717C51.9502 69.8428 52.2822 70.0283 52.7412 70.0283C52.9723 70.0283 53.1693 69.9811 53.332 69.8867C53.498 69.7891 53.6331 69.6475 53.7373 69.4619C53.8415 69.2764 53.918 69.0485 53.9668 68.7783C54.0156 68.5049 54.04 68.1924 54.04 67.8408ZM56.2227 65.5996V64.6182H60.2559V65.5996H58.8496V70.0088H60.2559V71H56.2227V70.0088H57.6289V65.5996H56.2227ZM64.6016 71L62.8926 67.1914L62.541 66.3711V69.0176V71H61.4473V64.6182H62.9219L64.665 68.4512L64.9727 69.1982V66.3809V64.6182H66.0664V71H64.6016ZM69.8506 65.6191V71H68.6201V65.6191H66.8721V64.6182H71.5986V65.6191H69.8506ZM76.9648 69.0713C76.9648 69.4196 76.8997 69.7223 76.7695 69.9795C76.6426 70.2367 76.4635 70.4499 76.2324 70.6191C76.0013 70.7852 75.7262 70.9089 75.4072 70.9902C75.0882 71.0716 74.7399 71.1123 74.3623 71.1123C74.027 71.1123 73.7031 71.0928 73.3906 71.0537C73.0781 71.0146 72.7689 70.9495 72.4629 70.8584V69.6719C72.6126 69.724 72.7689 69.7728 72.9316 69.8184C73.0944 69.8639 73.2572 69.9046 73.4199 69.9404C73.5859 69.973 73.7503 69.999 73.9131 70.0186C74.0758 70.0381 74.2337 70.0479 74.3867 70.0479C74.6146 70.0479 74.8083 70.0283 74.9678 69.9893C75.1273 69.9502 75.2575 69.8965 75.3584 69.8281C75.4593 69.7598 75.5326 69.6784 75.5781 69.584C75.6237 69.4896 75.6465 69.3854 75.6465 69.2715C75.6465 69.1152 75.6009 68.985 75.5098 68.8809C75.4219 68.7734 75.3047 68.679 75.1582 68.5977C75.0117 68.5163 74.8441 68.443 74.6553 68.3779C74.4697 68.3128 74.2793 68.2428 74.084 68.168C73.8919 68.0931 73.7015 68.0085 73.5127 67.9141C73.3271 67.8197 73.1611 67.7025 73.0146 67.5625C72.8682 67.4225 72.7493 67.2565 72.6582 67.0645C72.5703 66.8691 72.5264 66.6348 72.5264 66.3613C72.5264 66.1107 72.5719 65.873 72.6631 65.6484C72.7542 65.4238 72.8975 65.2285 73.0928 65.0625C73.2881 64.8932 73.5387 64.7598 73.8447 64.6621C74.1507 64.5612 74.5202 64.5107 74.9531 64.5107C75.0801 64.5107 75.2119 64.5173 75.3486 64.5303C75.4886 64.54 75.6253 64.5547 75.7588 64.5742C75.8955 64.5905 76.0257 64.6117 76.1494 64.6377C76.2764 64.6605 76.3919 64.6849 76.4961 64.7109V65.8096C76.3919 65.7705 76.278 65.7347 76.1543 65.7021C76.0306 65.6696 75.902 65.6419 75.7686 65.6191C75.6383 65.5931 75.5065 65.5736 75.373 65.5605C75.2396 65.5475 75.1126 65.541 74.9922 65.541C74.7806 65.541 74.6016 65.5589 74.4551 65.5947C74.3086 65.6273 74.1882 65.6745 74.0938 65.7363C73.9993 65.7949 73.931 65.8682 73.8887 65.9561C73.8464 66.0439 73.8252 66.1416 73.8252 66.249C73.8252 66.3825 73.8691 66.498 73.957 66.5957C74.0482 66.6901 74.167 66.7764 74.3135 66.8545C74.4632 66.9294 74.6309 67.001 74.8164 67.0693C75.0052 67.1344 75.1973 67.2061 75.3926 67.2842C75.5911 67.359 75.7832 67.4453 75.9688 67.543C76.1576 67.6406 76.3252 67.7594 76.4717 67.8994C76.6214 68.0394 76.7402 68.2054 76.8281 68.3975C76.9193 68.5863 76.9648 68.8109 76.9648 69.0713Z" fill="white" fill-opacity="0.6"/>
<path d="M152.414 68.2383C152.414 68.5355 152.353 68.8005 152.231 69.0332C152.11 69.2624 151.94 69.4557 151.721 69.6133C151.503 69.7708 151.245 69.8908 150.948 69.9731C150.651 70.0555 150.328 70.0967 149.981 70.0967C149.598 70.0967 149.259 70.0537 148.966 69.9678C148.676 69.8818 148.432 69.7619 148.235 69.6079C148.038 69.4539 147.89 69.2713 147.79 69.0601C147.689 68.8488 147.639 68.616 147.639 68.3618C147.639 67.9321 147.759 67.5615 147.999 67.25C148.239 66.9385 148.61 66.6556 149.111 66.4014C148.653 66.1686 148.318 65.9108 148.106 65.6279C147.895 65.3415 147.79 65.0138 147.79 64.645C147.79 64.4194 147.836 64.201 147.929 63.9897C148.022 63.7785 148.162 63.5905 148.348 63.4258C148.538 63.2611 148.774 63.1304 149.057 63.0337C149.34 62.9334 149.673 62.8833 150.056 62.8833C150.418 62.8833 150.735 62.9227 151.007 63.0015C151.283 63.0767 151.514 63.1859 151.7 63.3291C151.886 63.4723 152.026 63.646 152.119 63.8501C152.212 64.0542 152.258 64.2816 152.258 64.5322C152.258 64.9404 152.144 65.2878 151.915 65.5742C151.689 65.8607 151.367 66.1113 150.948 66.3262C151.155 66.43 151.349 66.5446 151.528 66.6699C151.707 66.7952 151.863 66.9349 151.995 67.0889C152.128 67.2428 152.23 67.4147 152.301 67.6045C152.376 67.7943 152.414 68.0055 152.414 68.2383ZM151.302 64.6074C151.302 64.2887 151.189 64.0524 150.964 63.8984C150.742 63.7409 150.429 63.6621 150.024 63.6621C149.623 63.6621 149.31 63.7391 149.084 63.8931C148.862 64.047 148.751 64.278 148.751 64.5859C148.751 64.7256 148.778 64.8545 148.832 64.9727C148.885 65.0908 148.968 65.2018 149.079 65.3057C149.193 65.4095 149.335 65.5116 149.503 65.6118C149.671 65.7121 149.872 65.8141 150.104 65.918C150.509 65.7282 150.81 65.5312 151.007 65.3271C151.204 65.1195 151.302 64.8796 151.302 64.6074ZM151.399 68.3081C151.399 68.1756 151.377 68.0467 151.334 67.9214C151.292 67.7961 151.215 67.6725 151.104 67.5508C150.993 67.429 150.844 67.3073 150.658 67.1855C150.472 67.0638 150.235 66.9385 149.949 66.8096C149.705 66.9277 149.499 67.0459 149.331 67.1641C149.166 67.2786 149.032 67.3968 148.928 67.5186C148.828 67.6367 148.756 67.7603 148.713 67.8892C148.67 68.0181 148.649 68.1541 148.649 68.2974C148.649 68.4585 148.683 68.6017 148.751 68.7271C148.823 68.8488 148.919 68.9526 149.041 69.0386C149.163 69.1245 149.308 69.189 149.476 69.2319C149.644 69.2749 149.827 69.2964 150.024 69.2964C150.214 69.2964 150.393 69.2767 150.561 69.2373C150.729 69.1979 150.874 69.1388 150.996 69.0601C151.121 68.9777 151.22 68.8757 151.292 68.7539C151.363 68.6286 151.399 68.48 151.399 68.3081ZM158.811 68.4478H157.613V70H156.657V68.4478H153.279V67.626L156.271 62.98H157.613V67.626H158.811V68.4478ZM156.657 63.8823L154.213 67.626H156.657V63.8823Z" fill="white" fill-opacity="0.6"/>
<rect y="81" width="168" height="23" rx="4" fill="url(#paint1_linear_114_17124)" fill-opacity="0.05"/>
<path d="M8.75 87.25H19.25C19.6648 87.25 20 87.5852 20 88V88.75C20 89.1648 19.6648 89.5 19.25 89.5H8.75C8.33516 89.5 8 89.1648 8 88.75V88C8 87.5852 8.33516 87.25 8.75 87.25ZM8.75 90.25H19.25V96.25C19.25 97.0773 18.5773 97.75 17.75 97.75H10.25C9.42266 97.75 8.75 97.0773 8.75 96.25V90.25ZM11.75 92.125C11.75 92.3313 11.9188 92.5 12.125 92.5H15.875C16.0813 92.5 16.25 92.3313 16.25 92.125C16.25 91.9187 16.0813 91.75 15.875 91.75H12.125C11.9188 91.75 11.75 91.9187 11.75 92.125Z" fill="white" fill-opacity="0.4"/>
<path d="M28.7324 90.5996V89.6182H32.7656V90.5996H31.3594V95.0088H32.7656V96H28.7324V95.0088H30.1387V90.5996H28.7324ZM37.1113 96L35.4023 92.1914L35.0508 91.3711V94.0176V96H33.957V89.6182H35.4316L37.1748 93.4512L37.4824 94.1982V91.3809V89.6182H38.5762V96H37.1113ZM44.2354 92.7285C44.2354 93.2233 44.1735 93.6725 44.0498 94.0762C43.9294 94.4798 43.7389 94.8249 43.4785 95.1113C43.2214 95.3945 42.891 95.6143 42.4873 95.7705C42.0837 95.9235 41.6003 96 41.0371 96H39.416V89.6182H41.3057C41.7939 89.6182 42.2204 89.68 42.585 89.8037C42.9528 89.9242 43.2588 90.1113 43.5029 90.3652C43.7471 90.6191 43.9294 90.9414 44.0498 91.332C44.1735 91.7227 44.2354 92.1882 44.2354 92.7285ZM42.9463 92.8066C42.9463 92.4616 42.9186 92.154 42.8633 91.8838C42.8079 91.6136 42.7135 91.3857 42.5801 91.2002C42.4499 91.0114 42.2741 90.8682 42.0527 90.7705C41.8314 90.6729 41.5563 90.624 41.2275 90.624H40.6172V94.9941H41.1445C41.7337 94.9941 42.1813 94.8184 42.4873 94.4668C42.7933 94.1152 42.9463 93.5618 42.9463 92.8066ZM45.3926 96V89.6182H49.2354V90.6338H46.6133V92.2207H49.1133V93.2119H46.6133V94.9844H49.2354V96H45.3926ZM53.9229 96L52.6924 93.6514L51.4814 96H50.0312L51.8721 92.7285L50.1533 89.6182H51.5645L52.7217 91.8398L53.8398 89.6182H55.251L53.542 92.7285L55.4512 96H53.9229ZM59.6406 96L59.2891 94.7402H57.0625L56.7012 96H55.5098L57.3994 89.6182H59.0791L60.9688 96H59.6406ZM58.1904 90.79L57.3506 93.7588H59.0205L58.1904 90.79ZM64.3525 90.6191V96H63.1221V90.6191H61.374V89.6182H66.1006V90.6191H64.3525ZM67.2188 90.5996V89.6182H71.252V90.5996H69.8457V95.0088H71.252V96H67.2188V95.0088H68.625V90.5996H67.2188ZM77.3018 92.7822C77.3018 93.3617 77.2334 93.8613 77.0967 94.2812C76.9632 94.7012 76.7777 95.0462 76.54 95.3164C76.3057 95.5866 76.029 95.7868 75.71 95.917C75.3942 96.0472 75.0557 96.1123 74.6943 96.1123C73.8545 96.1123 73.223 95.834 72.7998 95.2773C72.3766 94.7174 72.165 93.9053 72.165 92.8408C72.165 92.2614 72.2318 91.7617 72.3652 91.3418C72.502 90.9219 72.6875 90.5768 72.9219 90.3066C73.1595 90.0365 73.4362 89.8363 73.752 89.7061C74.071 89.5758 74.4111 89.5107 74.7725 89.5107C75.6123 89.5107 76.2438 89.7891 76.667 90.3457C77.0902 90.9023 77.3018 91.7145 77.3018 92.7822ZM76.0322 92.8408C76.0322 92.0856 75.9313 91.5225 75.7295 91.1514C75.5277 90.7803 75.1956 90.5947 74.7334 90.5947C74.5023 90.5947 74.3053 90.6436 74.1426 90.7412C73.9798 90.8356 73.8447 90.9756 73.7373 91.1611C73.6331 91.3467 73.5566 91.5762 73.5078 91.8496C73.459 92.1198 73.4346 92.4307 73.4346 92.7822C73.4346 93.5374 73.5355 94.1006 73.7373 94.4717C73.9424 94.8428 74.2744 95.0283 74.7334 95.0283C74.9645 95.0283 75.1615 94.9811 75.3242 94.8867C75.4902 94.7891 75.6253 94.6475 75.7295 94.4619C75.8337 94.2764 75.9102 94.0485 75.959 93.7783C76.0078 93.5049 76.0322 93.1924 76.0322 92.8408ZM81.0957 96L79.3867 92.1914L79.0352 91.3711V94.0176V96H77.9414V89.6182H79.416L81.1592 93.4512L81.4668 94.1982V91.3809V89.6182H82.5605V96H81.0957Z" fill="white" fill-opacity="0.6"/>
<path d="M152.5 92.7764C152.5 93.0986 152.441 93.4012 152.323 93.6841C152.208 93.967 152.043 94.214 151.829 94.4253C151.614 94.633 151.354 94.7977 151.05 94.9194C150.749 95.0376 150.414 95.0967 150.045 95.0967C149.659 95.0967 149.317 95.0358 149.02 94.9141C148.722 94.7887 148.473 94.599 148.273 94.3447C148.072 94.0869 147.92 93.7629 147.816 93.3726C147.713 92.9823 147.661 92.5203 147.661 91.9868C147.661 91.6287 147.684 91.2814 147.73 90.9448C147.777 90.6082 147.854 90.2913 147.961 89.9941C148.069 89.6969 148.212 89.4248 148.391 89.1777C148.57 88.9307 148.792 88.7194 149.057 88.5439C149.326 88.3649 149.641 88.2271 150.002 88.1304C150.364 88.0301 150.783 87.98 151.259 87.98H151.952V88.7964H151.2C150.781 88.7964 150.418 88.8465 150.11 88.9468C149.802 89.047 149.544 89.1885 149.336 89.3711C149.129 89.5537 148.969 89.7739 148.858 90.0317C148.747 90.2896 148.678 90.5778 148.649 90.8965L148.627 91.1167C148.853 90.9842 149.113 90.8786 149.406 90.7998C149.703 90.7174 150.024 90.6763 150.368 90.6763C150.722 90.6763 151.032 90.7282 151.297 90.832C151.565 90.9359 151.787 91.0809 151.963 91.2671C152.142 91.4497 152.276 91.6699 152.366 91.9277C152.455 92.1855 152.5 92.4684 152.5 92.7764ZM151.522 92.8354C151.522 92.6206 151.496 92.4272 151.442 92.2554C151.392 92.0799 151.311 91.9331 151.2 91.8149C151.089 91.6932 150.948 91.6001 150.776 91.5356C150.608 91.4676 150.405 91.4336 150.169 91.4336C150.033 91.4336 149.895 91.4461 149.755 91.4712C149.616 91.4963 149.478 91.5321 149.342 91.5786C149.209 91.6216 149.082 91.6717 148.96 91.729C148.839 91.7863 148.728 91.8472 148.627 91.9116C148.627 92.3735 148.66 92.7603 148.724 93.0718C148.789 93.3797 148.883 93.6268 149.009 93.813C149.138 93.9992 149.295 94.1317 149.481 94.2104C149.668 94.2892 149.882 94.3286 150.126 94.3286C150.33 94.3286 150.516 94.2964 150.685 94.2319C150.856 94.1639 151.003 94.0654 151.125 93.9365C151.25 93.8076 151.347 93.6519 151.415 93.4692C151.487 93.283 151.522 93.0718 151.522 92.8354ZM158.424 88.8501L155.481 95H154.412L157.468 88.8501H153.676V87.98H158.424V88.8501Z" fill="white" fill-opacity="0.6"/>
<rect y="106" width="168" height="23" rx="4" fill="url(#paint2_linear_114_17124)" fill-opacity="0.05"/>
<path d="M13 112.5L15.0577 115.442L18 117.5L15.0577 119.558L13 122.5L10.9423 119.558L8 117.5L10.9423 115.442L13 112.5Z" fill="white" fill-opacity="0.4"/>
<path d="M30.7783 118.3V117.309H33.0488V120.712C32.7559 120.849 32.4499 120.95 32.1309 121.015C31.8118 121.08 31.4652 121.112 31.0908 121.112C30.6481 121.112 30.2493 121.044 29.8945 120.907C29.543 120.771 29.2435 120.567 28.9961 120.297C28.7487 120.027 28.5583 119.691 28.4248 119.291C28.2946 118.891 28.2295 118.427 28.2295 117.899C28.2295 117.369 28.2979 116.894 28.4346 116.474C28.5745 116.054 28.7764 115.699 29.04 115.409C29.307 115.116 29.6325 114.893 30.0166 114.74C30.404 114.587 30.8451 114.511 31.3398 114.511C31.6328 114.511 31.9176 114.537 32.1943 114.589C32.4743 114.638 32.7526 114.704 33.0293 114.789V115.976C32.7884 115.862 32.5215 115.769 32.2285 115.697C31.9388 115.622 31.6458 115.585 31.3496 115.585C31.0501 115.585 30.7848 115.637 30.5537 115.741C30.3258 115.845 30.1338 115.993 29.9775 116.186C29.8245 116.378 29.7074 116.614 29.626 116.894C29.5479 117.174 29.5088 117.489 29.5088 117.841C29.5088 118.179 29.5397 118.485 29.6016 118.759C29.6634 119.029 29.7627 119.26 29.8994 119.452C30.0394 119.641 30.2184 119.786 30.4365 119.887C30.6546 119.988 30.9199 120.038 31.2324 120.038C31.3073 120.038 31.3724 120.036 31.4277 120.033C31.4831 120.027 31.5352 120.019 31.584 120.009C31.6328 119.999 31.6784 119.988 31.7207 119.975C31.7663 119.962 31.8135 119.947 31.8623 119.931V118.3H30.7783ZM37.3457 121L36.4473 118.949C36.3626 118.754 36.2438 118.607 36.0908 118.51C35.9411 118.409 35.7637 118.358 35.5586 118.358H35.3291V121H34.1279V114.618H35.9883C36.3398 114.618 36.6589 114.649 36.9453 114.711C37.2318 114.77 37.4759 114.869 37.6777 115.009C37.8796 115.149 38.0342 115.331 38.1416 115.556C38.2523 115.78 38.3076 116.055 38.3076 116.381C38.3076 116.615 38.2734 116.824 38.2051 117.006C38.1367 117.188 38.0407 117.346 37.917 117.479C37.7933 117.61 37.6452 117.715 37.4727 117.797C37.3034 117.878 37.1178 117.935 36.916 117.968C37.0723 118 37.2155 118.09 37.3457 118.236C37.4759 118.38 37.6061 118.588 37.7363 118.861L38.7568 121H37.3457ZM37.0479 116.498C37.0479 116.186 36.9486 115.961 36.75 115.824C36.5514 115.688 36.2536 115.619 35.8564 115.619H35.3291V117.421H35.8174C36.0029 117.421 36.1706 117.401 36.3203 117.362C36.4733 117.323 36.6035 117.265 36.7109 117.187C36.8184 117.108 36.9014 117.012 36.96 116.898C37.0186 116.781 37.0479 116.648 37.0479 116.498ZM44.084 116.649C44.084 116.981 44.0286 117.289 43.918 117.572C43.8073 117.852 43.6429 118.095 43.4248 118.3C43.2067 118.505 42.9349 118.664 42.6094 118.778C42.2839 118.892 41.9062 118.949 41.4766 118.949H40.8662V121H39.6553V114.618H41.5254C41.9388 114.618 42.3034 114.664 42.6191 114.755C42.9382 114.843 43.2051 114.973 43.4199 115.146C43.638 115.318 43.8024 115.531 43.9131 115.785C44.027 116.036 44.084 116.324 44.084 116.649ZM42.8242 116.732C42.8242 116.563 42.7965 116.41 42.7412 116.273C42.6891 116.133 42.6077 116.015 42.4971 115.917C42.3896 115.819 42.2529 115.744 42.0869 115.692C41.9209 115.64 41.724 115.614 41.4961 115.614H40.8662V117.953H41.5352C41.7435 117.953 41.9274 117.925 42.0869 117.87C42.2464 117.812 42.3799 117.729 42.4873 117.621C42.598 117.514 42.681 117.385 42.7363 117.235C42.7949 117.086 42.8242 116.918 42.8242 116.732ZM49.3965 120.751C49.1133 120.865 48.8382 120.95 48.5713 121.005C48.3076 121.06 48.0326 121.088 47.7461 121.088C47.2871 121.088 46.8802 121.021 46.5254 120.888C46.1738 120.751 45.876 120.549 45.6318 120.282C45.391 120.015 45.207 119.685 45.0801 119.291C44.9564 118.894 44.8945 118.433 44.8945 117.909C44.8945 117.372 44.9629 116.895 45.0996 116.479C45.2363 116.059 45.4316 115.705 45.6855 115.419C45.9395 115.129 46.2471 114.91 46.6084 114.76C46.973 114.607 47.3815 114.53 47.834 114.53C47.9805 114.53 48.1172 114.534 48.2441 114.54C48.3743 114.547 48.5013 114.56 48.625 114.579C48.7487 114.595 48.874 114.618 49.001 114.647C49.1279 114.677 49.2598 114.714 49.3965 114.76V115.951C49.1198 115.821 48.8561 115.728 48.6055 115.673C48.3548 115.618 48.127 115.59 47.9219 115.59C47.6191 115.59 47.3604 115.645 47.1455 115.756C46.9307 115.863 46.7533 116.016 46.6133 116.215C46.4766 116.41 46.3757 116.645 46.3105 116.918C46.2454 117.188 46.2129 117.486 46.2129 117.812C46.2129 118.157 46.2454 118.466 46.3105 118.739C46.3789 119.009 46.4831 119.239 46.623 119.428C46.763 119.617 46.9421 119.761 47.1602 119.862C47.3783 119.96 47.637 120.009 47.9365 120.009C48.0439 120.009 48.1595 119.999 48.2832 119.979C48.4102 119.957 48.5371 119.929 48.6641 119.896C48.7943 119.861 48.9212 119.82 49.0449 119.774C49.1719 119.726 49.2891 119.677 49.3965 119.628V120.751Z" fill="white" fill-opacity="0.6"/>
<path d="M152.414 120H147.79V119.162L149.605 117.357C149.902 117.064 150.144 116.81 150.33 116.595C150.516 116.38 150.661 116.185 150.765 116.009C150.869 115.83 150.939 115.662 150.975 115.504C151.01 115.347 151.028 115.177 151.028 114.994C151.028 114.822 151.005 114.659 150.958 114.505C150.912 114.348 150.84 114.21 150.744 114.092C150.647 113.974 150.522 113.881 150.368 113.812C150.214 113.744 150.029 113.71 149.814 113.71C149.517 113.71 149.247 113.777 149.003 113.909C148.76 114.042 148.536 114.214 148.332 114.425L147.816 113.807C148.081 113.528 148.386 113.304 148.729 113.136C149.077 112.967 149.48 112.883 149.938 112.883C150.25 112.883 150.532 112.93 150.787 113.023C151.044 113.116 151.266 113.25 151.453 113.426C151.639 113.601 151.782 113.816 151.882 114.07C151.986 114.325 152.038 114.611 152.038 114.93C152.038 115.198 152.002 115.447 151.931 115.676C151.859 115.905 151.75 116.135 151.603 116.364C151.46 116.589 151.277 116.824 151.055 117.067C150.837 117.311 150.577 117.578 150.276 117.868L149.003 119.108H152.414V120ZM158.403 120H153.993V119.13H155.798V114.006L154.117 114.919L153.773 114.124L156.007 112.948H156.834V119.13H158.403V120Z" fill="white" fill-opacity="0.6"/>
<defs>
<linearGradient id="paint0_linear_114_17124" x1="0" y1="67.5" x2="168" y2="67.5" gradientUnits="userSpaceOnUse">
<stop stop-color="white" stop-opacity="0"/>
<stop offset="1" stop-color="white"/>
</linearGradient>
<linearGradient id="paint1_linear_114_17124" x1="0" y1="92.5" x2="168" y2="92.5" gradientUnits="userSpaceOnUse">
<stop stop-color="white" stop-opacity="0"/>
<stop offset="1" stop-color="white"/>
</linearGradient>
<linearGradient id="paint2_linear_114_17124" x1="0" y1="117.5" x2="168" y2="117.5" gradientUnits="userSpaceOnUse">
<stop stop-color="white" stop-opacity="0"/>
<stop offset="1" stop-color="white"/>
</linearGradient>
<clipPath id="clip0_114_17124">
<rect width="12" height="12" fill="white" transform="translate(0 1.5)"/>
</clipPath>
<clipPath id="clip1_114_17124">
<rect width="12" height="10.6667" fill="white" transform="translate(8 62.1667)"/>
</clipPath>
</defs>
</svg>
