<svg width="111" height="72" viewBox="0 0 111 72" fill="none" xmlns="http://www.w3.org/2000/svg">
<mask id="mask0_114_17019" style="mask-type:luminance" maskUnits="userSpaceOnUse" x="-1" y="-12" width="112" height="89">
<path d="M110.6 -11.2573H-1V76.9998H110.6V-11.2573Z" fill="white"/>
</mask>
<g mask="url(#mask0_114_17019)">
<path d="M54.1006 11.064L16.8957 32.5443C16.1992 32.9465 16.1992 33.5985 16.8957 34.0006L54.1006 55.4809C54.7971 55.883 55.9264 55.883 56.623 55.4809L93.8279 34.0006C94.5244 33.5985 94.5244 32.9465 93.8279 32.5443L56.623 11.064C55.9264 10.6619 54.7971 10.6619 54.1006 11.064Z" stroke="white" stroke-opacity="0.3" stroke-dasharray="2.4 2.4"/>
<path d="M16.4998 33.5L94 33.5" stroke="white" stroke-opacity="0.3" stroke-dasharray="2.4 2.4"/>
<path d="M55.25 10.7498L55.25 55.25" stroke="white" stroke-opacity="0.3" stroke-dasharray="2.4 2.4"/>
<path d="M34.503 31.8751C34.503 31.5144 34.2646 31.1538 33.7881 30.8786L19.9811 22.9071C19.0281 22.3568 17.4826 22.3568 16.5294 22.9071L2.72253 30.8786C2.24593 31.1538 2.00763 31.5144 2.00765 31.8751M34.503 31.8751C34.503 32.2357 34.2646 32.5963 33.7881 32.8714L19.9811 40.8428C19.0281 41.3932 17.4826 41.3932 16.5294 40.8428L2.72253 32.8714C2.24596 32.5963 2.00766 32.2357 2.00765 31.8751M34.503 31.8751L34.5022 40.8644C34.5021 41.225 34.2638 41.5856 33.7873 41.8607L19.9803 49.8321C19.0272 50.3825 17.4818 50.3825 16.5286 49.8321L2.72171 41.8607C2.24516 41.5856 2.00688 41.225 2.00684 40.8644L2.00765 31.8751" stroke="white"/>
<path d="M71.6092 53.2982C71.6092 52.9375 71.3709 52.5769 70.8943 52.3017L57.0874 44.3302C56.1342 43.7799 54.5888 43.7799 53.6357 44.3302L39.8287 52.3017C39.3521 52.5769 39.1139 52.9375 39.1139 53.2982M71.6092 53.2982C71.6092 53.6588 71.3709 54.0194 70.8943 54.2945L57.0874 62.2659C56.1342 62.8163 54.5888 62.8163 53.6357 62.2659L39.8287 54.2945C39.3521 54.0194 39.1139 53.6588 39.1139 53.2982M71.6092 53.2982L71.6075 62.2875C71.6075 62.6481 71.3693 63.0087 70.8927 63.2838L57.0858 71.2552C56.1326 71.8056 54.5872 71.8056 53.6341 71.2552L39.8271 63.2838C39.3506 63.0087 39.1123 62.6481 39.1123 62.2875L39.1139 53.2982" stroke="white"/>
<path d="M71.6076 10.3958C71.5841 10.0541 71.3464 9.71649 70.8948 9.45572L57.0878 1.48426C56.1347 0.933956 54.5892 0.933956 53.6361 1.48426L39.8291 9.45572C39.3526 9.73084 39.1144 10.0913 39.1143 10.452M71.6076 10.3958C71.6338 10.7749 71.3962 11.159 70.8948 11.4486L57.0878 19.42C56.1347 19.9703 54.5892 19.9703 53.6361 19.42L39.8291 11.4486C39.3525 11.1734 39.1142 10.8127 39.1143 10.452M71.6076 10.3958V19.4412C71.6077 19.8018 71.3695 20.1625 70.8928 20.4378L57.0858 28.4092C56.1327 28.9595 54.5873 28.9595 53.6341 28.4092L39.8272 20.4378C39.3754 20.177 39.1379 19.8394 39.1143 19.4977V10.452" stroke="white"/>
<path d="M108.715 31.8751C108.715 31.5144 108.477 31.1538 108.001 30.8786L94.1932 22.9071C93.24 22.3568 91.6947 22.3568 90.7415 22.9071L76.9346 30.8786C76.458 31.1538 76.2197 31.5144 76.2197 31.8751M108.715 31.8751C108.715 32.2357 108.477 32.5963 108.001 32.8714L94.1932 40.8428C93.24 41.3932 91.6947 41.3932 90.7415 40.8428L76.9346 32.8714C76.458 32.5963 76.2197 32.2357 76.2197 31.8751M108.715 31.8751L108.714 40.8644C108.714 41.225 108.476 41.5856 108 41.8607L94.1927 49.8321C93.2396 50.3825 91.6942 50.3825 90.741 49.8321L76.9341 41.8607C76.4699 41.5927 76.2318 41.2436 76.2197 40.8925V31.8751" stroke="white"/>
</g>
</svg>
