<svg xmlns="http://www.w3.org/2000/svg" width="400" height="400"><path fill="#59d6f5" fill-rule="evenodd" d="M174 52.015C120.096 61.53 74.925 100.497 57.517 152.5c-8.13 24.286-9.769 53.698-4.403 79 8.693 40.987 35.919 77.904 73.231 99.299 36.107 20.703 82.711 24.877 123.155 11.029 16.961-5.807 38.336-18.623 52.162-31.275 8.532-7.808 19.208-20.96 26.314-32.418 15.282-24.639 22.894-54.078 21.751-84.115-.879-23.091-5.211-40.264-15.269-60.52-21.206-42.709-62.554-73.567-109.277-81.555-14.882-2.544-36.541-2.514-51.181.07m22.497-.372c-.548.169-6.397.741-12.997 1.271s-14.025 1.495-16.5 2.146c-12.82 3.37-16 4.389-16 5.129 0 .446-.873.811-1.941.811s-2.219.45-2.559 1-1.478 1-2.529 1-4.568 1.35-7.815 3-6.41 3-7.03 3c-.619 0-1.126.46-1.126 1.021 0 .562-1.238 1.555-2.75 2.207s-4.327 2.329-6.254 3.728-4.222 2.994-5.101 3.544C107.287 83.638 95 94.426 95 96.09c0 .501-.705.91-1.567.91-1.111 0-1.383.581-.935 1.994.472 1.486.259 1.85-.835 1.43-.973-.373-3.353 1.8-7.065 6.453-3.079 3.859-5.598 7.468-5.598 8.02s-.618 1.363-1.373 1.803-2.668 3.207-4.25 6.148c-7.897 14.68-10.376 19.808-10.376 21.461-.001.995-.451 1.531-1.001 1.191-.583-.361-1 .656-1 2.441 0 1.682-.365 3.059-.811 3.059-1.554 0-4.345 11.63-3.748 15.621.357 2.383.266 3.157-.236 2.008-1.568-3.594-3.082 5.325-3.712 21.871-1.024 26.871 1.724 46.221 8.653 60.938 1.02 2.166 1.854 4.372 1.854 4.903s1.35 3.823 3 7.315 3 6.798 3 7.347c0 .548.472.997 1.048.997s1.611 1.238 2.298 2.75c1.997 4.395 5.089 9.237 5.904 9.244.412.003.75.48.75 1.059 0 1.482 9.691 13.407 16.116 19.831C102.401 312.17 113.541 321 115.447 321c.854 0 1.553.581 1.553 1.292 0 .71 2.555 2.623 5.679 4.25 14.265 7.431 19.083 9.74 23.296 11.164 2.489.841 4.75 1.814 5.025 2.162 1.419 1.794 11.507 4.233 15.339 3.708 2.564-.351 3.424-.255 2.241.25-1.575.672-1.126 1.021 2.5 1.943 3.973 1.009 20.703 2.492 28.42 2.519 8.329.028 25.602-1.615 30.154-2.868 2.835-.781 6.05-1.42 7.146-1.42s5.302-1.387 9.346-3.082 8.704-3.437 10.354-3.873 5.315-1.974 8.145-3.419c2.83-1.444 5.643-2.626 6.25-2.626s1.105-.472 1.105-1.048 1.238-1.611 2.75-2.298c4.395-1.997 9.237-5.089 9.244-5.904.003-.413.48-.75 1.059-.75 1.482 0 13.407-9.691 19.831-16.116 6.328-6.327 16.116-18.342 16.116-19.781 0-.552.618-1.363 1.373-1.803s2.668-3.207 4.25-6.148c7.897-14.68 10.376-19.808 10.376-21.461.001-.995.451-1.531 1.001-1.191.583.361 1-.656 1-2.441 0-1.682.365-3.059.811-3.059 1.554 0 4.345-11.63 3.748-15.621-.345-2.304-.255-3.136.221-2.05 3.668 8.371 5.345-46.839 1.862-61.329-2.358-9.811-4.502-16.583-6.788-21.438-1.02-2.166-1.854-4.515-1.854-5.22s-1.35-3.939-3-7.186-3-6.41-3-7.03c0-.619-.46-1.126-1.021-1.126-.562 0-1.555-1.237-2.207-2.75s-2.441-4.39-3.978-6.394-2.794-3.93-2.794-4.279c0-.684-6.497-9.084-11.006-14.23-1.519-1.734-3.714-3.662-4.878-4.285S303 94.482 303 93.934C303 92.328 287.007 79 285.079 79c-.539 0-1.339-.618-1.779-1.373s-3.163-2.563-6.05-4.017-5.25-3.086-5.25-3.627-.612-.983-1.359-.983c-.748 0-3.889-1.35-6.981-3s-6.531-3-7.641-3-2.019-.398-2.019-.883c0-.486-1.012-1.125-2.25-1.42-1.238-.296-4.95-1.438-8.25-2.538-9.728-3.245-19.282-5.028-31-5.786-6.05-.392-11.901-.785-13.003-.875-1.101-.089-2.451-.024-3 .145m-2.06 65.354c-1.966 1.259-4.983 5.465-8.418 11.733-2.944 5.374-6.516 11.345-7.936 13.27-2.871 3.89-2.955 4.036-9.652 16.588-2.615 4.901-5.321 9.587-6.013 10.412s-2.944 4.65-5.004 8.5-5.471 9.563-7.58 12.695S146 196.349 146 196.91s-1.289 2.499-2.865 4.305c-1.576 1.807-3.186 4.311-3.577 5.565-.762 2.44-3.923 8.031-12.308 21.77-2.888 4.732-5.25 8.835-5.25 9.119s-.836 1.578-1.858 2.877c-1.557 1.98-1.725 3.2-1.04 7.535.45 2.844.948 5.264 1.108 5.377 4.988 3.527 5.097 3.542 24.859 3.542 16.308 0 20.199-.282 23.027-1.67 6.676-3.277 9.92-6.924 15.043-16.915 5.616-10.951 10.188-19.591 12.391-23.415 2.944-5.109 1.349-10-3.261-10-1.283 0-2.591-.675-2.907-1.5-.317-.825-1.428-1.5-2.469-1.5-1.731 0-1.893-.855-1.893-10 0-9.248.147-10 1.95-10 1.073 0 2.31-.562 2.75-1.25.871-1.361 9.182-5.771 10.8-5.731.55.014 2.125.905 3.5 1.981s3.239 1.966 4.143 1.978 1.902.697 2.219 1.522 1.431 1.5 2.478 1.5c1.736 0 1.911.873 2.004 10 .093 9.13-.06 10-1.764 10-1.026 0-2.125.675-2.442 1.5-.316.825-1.659 1.5-2.984 1.5-3.568 0-5.004 2.314-4.183 6.739.384 2.069 1.293 4.436 2.02 5.261 1.371 1.557 2.535 3.757 11.168 21.123 5.35 10.762 7.96 13.608 15.7 17.124 3.244 1.474 6.886 1.753 22.846 1.753 24.277 0 25.745-.662 25.781-11.628.008-2.463-.591-4.629-1.486-5.372-.825-.685-1.5-1.639-1.5-2.12s-3.178-6.066-7.061-12.411-8.047-13.657-9.252-16.252-3.427-6.334-4.939-8.311c-1.511-1.977-2.748-3.914-2.748-4.305s-1.725-3.274-3.834-6.406-5.52-8.845-7.58-12.695-4.318-7.675-5.018-8.5-3.189-5.1-5.53-9.5-4.79-8.675-5.44-9.5-2.207-3.637-3.46-6.25-2.648-4.75-3.1-4.75-1.561-1.687-2.466-3.75c-3.272-7.461-9.136-16.331-12.072-18.263-3.789-2.493-7.163-2.49-11.063.01m.842 1.52c-1.191.834-4.374 5.222-7.074 9.75-13.824 23.186-42.697 72.3-60.082 102.204-4.468 7.684-8.123 14.794-8.123 15.8 0 2.937 2.804 7.532 5.028 8.238 1.127.358 10.244.727 20.261.821 17.281.161 18.455.05 22.988-2.182 2.628-1.294 5.854-3.769 7.17-5.5 2.981-3.923 19.553-35.465 19.553-37.217 0-.708-2.715-2.936-6.034-4.952l-6.034-3.665.284-10.077.284-10.078 7.335-4.329c4.034-2.382 8.159-4.33 9.165-4.33s5.131 1.948 9.165 4.33l7.335 4.329.284 10.103.284 10.102-6.284 3.67c-3.456 2.019-6.427 3.805-6.601 3.968-.5.471 17.779 34.646 20.403 38.146 1.298 1.731 4.314 4.093 6.703 5.25 3.957 1.915 6.07 2.102 23.804 2.102 21.788 0 23.33-.41 24.473-6.498.71-3.788.655-3.897-18.582-36.502a72034 72034 0 0 1-31.503-53.5c-11.972-20.35-22.682-38.013-23.799-39.25-2.387-2.645-7.19-2.984-10.403-.733"/><path fill="#3ce2fb" fill-rule="evenodd" d="M196.497 51.643c-.548.169-6.397.741-12.997 1.271s-14.025 1.495-16.5 2.146c-12.82 3.37-16 4.389-16 5.129 0 .446-.873.811-1.941.811s-2.219.45-2.559 1-1.478 1-2.529 1-4.568 1.35-7.815 3-6.41 3-7.03 3c-.619 0-1.126.46-1.126 1.021 0 .562-1.238 1.555-2.75 2.207s-4.327 2.329-6.254 3.728-4.222 2.994-5.101 3.544C107.287 83.638 95 94.426 95 96.09c0 .501-.705.91-1.567.91-1.111 0-1.383.581-.935 1.994.472 1.486.259 1.85-.835 1.43-.973-.373-3.353 1.8-7.065 6.453-3.079 3.859-5.598 7.468-5.598 8.02s-.618 1.363-1.373 1.803-2.668 3.207-4.25 6.148c-7.897 14.68-10.376 19.808-10.376 21.461-.001.995-.451 1.531-1.001 1.191-.583-.361-1 .656-1 2.441 0 1.682-.365 3.059-.811 3.059-1.554 0-4.345 11.63-3.748 15.621.357 2.383.266 3.157-.236 2.008-1.568-3.594-3.082 5.325-3.712 21.871-1.024 26.871 1.724 46.221 8.653 60.938 1.02 2.166 1.854 4.372 1.854 4.903s1.35 3.823 3 7.315 3 6.798 3 7.347c0 .548.472.997 1.048.997s1.611 1.238 2.298 2.75c1.997 4.395 5.089 9.237 5.904 9.244.412.003.75.48.75 1.059 0 1.482 9.691 13.407 16.116 19.831C102.401 312.17 113.541 321 115.447 321c.854 0 1.553.581 1.553 1.292 0 .71 2.555 2.623 5.679 4.25 14.265 7.431 19.083 9.74 23.296 11.164 2.489.841 4.75 1.814 5.025 2.162 1.419 1.794 11.507 4.233 15.339 3.708 2.564-.351 3.424-.255 2.241.25-1.575.672-1.126 1.021 2.5 1.943 3.973 1.009 20.703 2.492 28.42 2.519 8.329.028 25.602-1.615 30.154-2.868 2.835-.781 6.05-1.42 7.146-1.42s5.302-1.387 9.346-3.082 8.704-3.437 10.354-3.873 5.315-1.974 8.145-3.419c2.83-1.444 5.643-2.626 6.25-2.626s1.105-.472 1.105-1.048 1.238-1.611 2.75-2.298c4.395-1.997 9.237-5.089 9.244-5.904.003-.413.48-.75 1.059-.75 1.482 0 13.407-9.691 19.831-16.116 6.328-6.327 16.116-18.342 16.116-19.781 0-.552.618-1.363 1.373-1.803s2.668-3.207 4.25-6.148c7.897-14.68 10.376-19.808 10.376-21.461.001-.995.451-1.531 1.001-1.191.583.361 1-.656 1-2.441 0-1.682.365-3.059.811-3.059 1.554 0 4.345-11.63 3.748-15.621-.345-2.304-.255-3.136.221-2.05 3.668 8.371 5.345-46.839 1.862-61.329-2.358-9.811-4.502-16.583-6.788-21.438-1.02-2.166-1.854-4.515-1.854-5.22s-1.35-3.939-3-7.186-3-6.41-3-7.03c0-.619-.46-1.126-1.021-1.126-.562 0-1.555-1.237-2.207-2.75s-2.441-4.39-3.978-6.394-2.794-3.93-2.794-4.279c0-.684-6.497-9.084-11.006-14.23-1.519-1.734-3.714-3.662-4.878-4.285S303 94.482 303 93.934C303 92.328 287.007 79 285.079 79c-.539 0-1.339-.618-1.779-1.373s-3.163-2.563-6.05-4.017-5.25-3.086-5.25-3.627-.612-.983-1.359-.983c-.748 0-3.889-1.35-6.981-3s-6.531-3-7.641-3-2.019-.398-2.019-.883c0-.486-1.012-1.125-2.25-1.42-1.238-.296-4.95-1.438-8.25-2.538-9.728-3.245-19.282-5.028-31-5.786-6.05-.392-11.901-.785-13.003-.875-1.101-.089-2.451-.024-3 .145m-2.06 65.354c-1.966 1.259-4.983 5.465-8.418 11.733-2.944 5.374-6.516 11.345-7.936 13.27-2.871 3.89-2.955 4.036-9.652 16.588-2.615 4.901-5.321 9.587-6.013 10.412s-2.944 4.65-5.004 8.5-5.471 9.563-7.58 12.695S146 196.349 146 196.91s-1.289 2.499-2.865 4.305c-1.576 1.807-3.186 4.311-3.577 5.565-.762 2.44-3.923 8.031-12.308 21.77-2.888 4.732-5.25 8.835-5.25 9.119s-.836 1.578-1.858 2.877c-1.557 1.98-1.725 3.2-1.04 7.535.45 2.844.948 5.264 1.108 5.377 4.988 3.527 5.097 3.542 24.859 3.542 16.308 0 20.199-.282 23.027-1.67 6.676-3.277 9.92-6.924 15.043-16.915 5.616-10.951 10.188-19.591 12.391-23.415 2.944-5.109 1.349-10-3.261-10-1.283 0-2.591-.675-2.907-1.5-.317-.825-1.428-1.5-2.469-1.5-1.731 0-1.893-.855-1.893-10 0-9.248.147-10 1.95-10 1.073 0 2.31-.562 2.75-1.25.871-1.361 9.182-5.771 10.8-5.731.55.014 2.125.905 3.5 1.981s3.239 1.966 4.143 1.978 1.902.697 2.219 1.522 1.431 1.5 2.478 1.5c1.736 0 1.911.873 2.004 10 .093 9.13-.06 10-1.764 10-1.026 0-2.125.675-2.442 1.5-.316.825-1.659 1.5-2.984 1.5-3.568 0-5.004 2.314-4.183 6.739.384 2.069 1.293 4.436 2.02 5.261 1.371 1.557 2.535 3.757 11.168 21.123 5.35 10.762 7.96 13.608 15.7 17.124 3.244 1.474 6.886 1.753 22.846 1.753 24.277 0 25.745-.662 25.781-11.628.008-2.463-.591-4.629-1.486-5.372-.825-.685-1.5-1.639-1.5-2.12s-3.178-6.066-7.061-12.411-8.047-13.657-9.252-16.252-3.427-6.334-4.939-8.311c-1.511-1.977-2.748-3.914-2.748-4.305s-1.725-3.274-3.834-6.406-5.52-8.845-7.58-12.695-4.318-7.675-5.018-8.5-3.189-5.1-5.53-9.5-4.79-8.675-5.44-9.5-2.207-3.637-3.46-6.25-2.648-4.75-3.1-4.75-1.561-1.687-2.466-3.75c-3.272-7.461-9.136-16.331-12.072-18.263-3.789-2.493-7.163-2.49-11.063.01"/></svg>