<svg xmlns="http://www.w3.org/2000/svg" width="400" height="400" viewBox="0 0 400 400" version="1.1"><path d="M 174 52.015 C 120.096 61.530, 74.925 100.497, 57.517 152.500 C 49.387 176.786, 47.748 206.198, 53.114 231.500 C 61.807 272.487, 89.033 309.404, 126.345 330.799 C 162.452 351.502, 209.056 355.676, 249.500 341.828 C 266.461 336.021, 287.836 323.205, 301.662 310.553 C 310.194 302.745, 320.870 289.593, 327.976 278.135 C 343.258 253.496, 350.870 224.057, 349.727 194.020 C 348.848 170.929, 344.516 153.756, 334.458 133.500 C 313.252 90.791, 271.904 59.933, 225.181 51.945 C 210.299 49.401, 188.640 49.431, 174 52.015 M 196.497 51.643 C 195.949 51.812, 190.100 52.384, 183.500 52.914 C 176.900 53.444, 169.475 54.409, 167 55.060 C 154.180 58.430, 151 59.449, 151 60.189 C 151 60.635, 150.127 61, 149.059 61 C 147.991 61, 146.840 61.450, 146.500 62 C 146.160 62.550, 145.022 63, 143.971 63 C 142.920 63, 139.403 64.350, 136.156 66 C 132.909 67.650, 129.746 69, 129.126 69 C 128.507 69, 128 69.460, 128 70.021 C 128 70.583, 126.762 71.576, 125.250 72.228 C 123.737 72.879, 120.923 74.557, 118.996 75.956 C 117.069 77.355, 114.774 78.950, 113.895 79.500 C 107.287 83.638, 95 94.426, 95 96.090 C 95 96.591, 94.295 97, 93.433 97 C 92.322 97, 92.050 97.581, 92.498 98.994 C 92.970 100.480, 92.757 100.844, 91.663 100.424 C 90.690 100.051, 88.310 102.224, 84.598 106.877 C 81.519 110.736, 79 114.345, 79 114.897 C 79 115.449, 78.382 116.260, 77.627 116.700 C 76.872 117.140, 74.959 119.907, 73.377 122.848 C 65.480 137.528, 63.001 142.656, 63.001 144.309 C 63 145.304, 62.550 145.840, 62 145.500 C 61.417 145.139, 61 146.156, 61 147.941 C 61 149.623, 60.635 151, 60.189 151 C 58.635 151, 55.844 162.630, 56.441 166.621 C 56.798 169.004, 56.707 169.778, 56.205 168.629 C 54.637 165.035, 53.123 173.954, 52.493 190.500 C 51.469 217.371, 54.217 236.721, 61.146 251.438 C 62.166 253.604, 63 255.810, 63 256.341 C 63 256.872, 64.350 260.164, 66 263.656 C 67.650 267.148, 69 270.454, 69 271.003 C 69 271.551, 69.472 272, 70.048 272 C 70.625 272, 71.659 273.238, 72.346 274.750 C 74.343 279.145, 77.435 283.987, 78.250 283.994 C 78.662 283.997, 79 284.474, 79 285.053 C 79 286.535, 88.691 298.460, 95.116 304.884 C 102.401 312.170, 113.541 321, 115.447 321 C 116.301 321, 117 321.581, 117 322.292 C 117 323.002, 119.555 324.915, 122.679 326.542 C 136.944 333.973, 141.762 336.282, 145.975 337.706 C 148.464 338.547, 150.725 339.520, 151 339.868 C 152.419 341.662, 162.507 344.101, 166.339 343.576 C 168.903 343.225, 169.763 343.321, 168.580 343.826 C 167.005 344.498, 167.454 344.847, 171.080 345.769 C 175.053 346.778, 191.783 348.261, 199.500 348.288 C 207.829 348.316, 225.102 346.673, 229.654 345.420 C 232.489 344.639, 235.704 344, 236.800 344 C 237.896 344, 242.102 342.613, 246.146 340.918 C 250.191 339.224, 254.850 337.481, 256.500 337.045 C 258.150 336.609, 261.815 335.071, 264.645 333.626 C 267.475 332.182, 270.288 331, 270.895 331 C 271.503 331, 272 330.528, 272 329.952 C 272 329.375, 273.238 328.341, 274.750 327.654 C 279.145 325.657, 283.987 322.565, 283.994 321.750 C 283.997 321.337, 284.474 321, 285.053 321 C 286.535 321, 298.460 311.309, 304.884 304.884 C 311.212 298.557, 321 286.542, 321 285.103 C 321 284.551, 321.618 283.740, 322.373 283.300 C 323.128 282.860, 325.041 280.093, 326.623 277.152 C 334.520 262.472, 336.999 257.344, 336.999 255.691 C 337 254.696, 337.450 254.160, 338 254.500 C 338.583 254.861, 339 253.844, 339 252.059 C 339 250.377, 339.365 249, 339.811 249 C 341.365 249, 344.156 237.370, 343.559 233.379 C 343.214 231.075, 343.304 230.243, 343.780 231.329 C 347.448 239.700, 349.125 184.490, 345.642 170 C 343.284 160.189, 341.140 153.417, 338.854 148.562 C 337.834 146.396, 337 144.047, 337 143.342 C 337 142.637, 335.650 139.403, 334 136.156 C 332.350 132.909, 331 129.746, 331 129.126 C 331 128.507, 330.540 128, 329.979 128 C 329.417 128, 328.424 126.763, 327.772 125.250 C 327.121 123.737, 325.331 120.860, 323.794 118.856 C 322.257 116.852, 321 114.926, 321 114.577 C 321 113.893, 314.503 105.493, 309.994 100.347 C 308.475 98.613, 306.280 96.685, 305.116 96.062 C 303.952 95.439, 303 94.482, 303 93.934 C 303 92.328, 287.007 79, 285.079 79 C 284.540 79, 283.740 78.382, 283.300 77.627 C 282.860 76.872, 280.137 75.064, 277.250 73.610 C 274.363 72.156, 272 70.524, 272 69.983 C 272 69.442, 271.388 69, 270.641 69 C 269.893 69, 266.752 67.650, 263.660 66 C 260.568 64.350, 257.129 63, 256.019 63 C 254.909 63, 254 62.602, 254 62.117 C 254 61.631, 252.988 60.992, 251.750 60.697 C 250.512 60.401, 246.800 59.259, 243.500 58.159 C 233.772 54.914, 224.218 53.131, 212.500 52.373 C 206.450 51.981, 200.599 51.588, 199.497 51.498 C 198.396 51.409, 197.046 51.474, 196.497 51.643 M 194.437 116.997 C 192.471 118.256, 189.454 122.462, 186.019 128.730 C 183.075 134.104, 179.503 140.075, 178.083 142 C 175.212 145.890, 175.128 146.036, 168.431 158.588 C 165.816 163.489, 163.110 168.175, 162.418 169 C 161.725 169.825, 159.474 173.650, 157.414 177.500 C 155.354 181.350, 151.943 187.063, 149.834 190.195 C 147.725 193.327, 146 196.349, 146 196.910 C 146 197.471, 144.711 199.409, 143.135 201.215 C 141.559 203.022, 139.949 205.526, 139.558 206.780 C 138.796 209.220, 135.635 214.811, 127.250 228.550 C 124.362 233.282, 122 237.385, 122 237.669 C 122 237.952, 121.164 239.247, 120.142 240.546 C 118.585 242.526, 118.417 243.746, 119.102 248.081 C 119.552 250.925, 120.050 253.345, 120.210 253.458 C 125.198 256.985, 125.307 257, 145.069 257 C 161.377 257, 165.268 256.718, 168.096 255.330 C 174.772 252.053, 178.016 248.406, 183.139 238.415 C 188.755 227.464, 193.327 218.824, 195.530 215 C 198.474 209.891, 196.879 205, 192.269 205 C 190.986 205, 189.678 204.325, 189.362 203.500 C 189.045 202.675, 187.934 202, 186.893 202 C 185.162 202, 185 201.145, 185 192 C 185 182.752, 185.147 182, 186.950 182 C 188.023 182, 189.260 181.438, 189.700 180.750 C 190.571 179.389, 198.882 174.979, 200.500 175.019 C 201.050 175.033, 202.625 175.924, 204 177 C 205.375 178.076, 207.239 178.966, 208.143 178.978 C 209.047 178.990, 210.045 179.675, 210.362 180.500 C 210.678 181.325, 211.793 182, 212.840 182 C 214.576 182, 214.751 182.873, 214.844 192 C 214.937 201.130, 214.784 202, 213.080 202 C 212.054 202, 210.955 202.675, 210.638 203.500 C 210.322 204.325, 208.979 205, 207.654 205 C 204.086 205, 202.650 207.314, 203.471 211.739 C 203.855 213.808, 204.764 216.175, 205.491 217 C 206.862 218.557, 208.026 220.757, 216.659 238.123 C 222.009 248.885, 224.619 251.731, 232.359 255.247 C 235.603 256.721, 239.245 257, 255.205 257 C 279.482 257, 280.950 256.338, 280.986 245.372 C 280.994 242.909, 280.395 240.743, 279.500 240 C 278.675 239.315, 278 238.361, 278 237.880 C 278 237.398, 274.822 231.814, 270.939 225.469 C 267.055 219.125, 262.892 211.812, 261.687 209.217 C 260.482 206.623, 258.260 202.883, 256.748 200.906 C 255.237 198.929, 254 196.992, 254 196.601 C 254 196.210, 252.275 193.327, 250.166 190.195 C 248.057 187.063, 244.646 181.350, 242.586 177.500 C 240.526 173.650, 238.268 169.825, 237.568 169 C 236.868 168.175, 234.379 163.900, 232.038 159.500 C 229.696 155.100, 227.248 150.825, 226.598 150 C 225.948 149.175, 224.391 146.363, 223.138 143.750 C 221.885 141.137, 220.490 139, 220.038 139 C 219.587 139, 218.477 137.313, 217.572 135.250 C 214.300 127.789, 208.436 118.919, 205.500 116.987 C 201.711 114.494, 198.337 114.497, 194.437 116.997 M 195.279 118.517 C 194.088 119.351, 190.905 123.739, 188.205 128.267 C 174.381 151.453, 145.508 200.567, 128.123 230.471 C 123.655 238.155, 120 245.265, 120 246.271 C 120 249.208, 122.804 253.803, 125.028 254.509 C 126.155 254.867, 135.272 255.236, 145.289 255.330 C 162.570 255.491, 163.744 255.380, 168.277 253.148 C 170.905 251.854, 174.131 249.379, 175.447 247.648 C 178.428 243.725, 195 212.183, 195 210.431 C 195 209.723, 192.285 207.495, 188.966 205.479 L 182.932 201.814 183.216 191.737 L 183.500 181.659 190.835 177.330 C 194.869 174.948, 198.994 173, 200 173 C 201.006 173, 205.131 174.948, 209.165 177.330 L 216.500 181.659 216.784 191.762 L 217.068 201.864 210.784 205.534 C 207.328 207.553, 204.357 209.339, 204.183 209.502 C 203.683 209.973, 221.962 244.148, 224.586 247.648 C 225.884 249.379, 228.900 251.741, 231.289 252.898 C 235.246 254.813, 237.359 255, 255.093 255 C 276.881 255, 278.423 254.590, 279.566 248.502 C 280.276 244.714, 280.221 244.605, 260.984 212 C 255.630 202.925, 241.454 178.850, 229.481 158.500 C 217.509 138.150, 206.799 120.487, 205.682 119.250 C 203.295 116.605, 198.492 116.266, 195.279 118.517" stroke="none" fill="#59d6f5" fill-rule="evenodd"/><path d="M 196.497 51.643 C 195.949 51.812, 190.100 52.384, 183.500 52.914 C 176.900 53.444, 169.475 54.409, 167 55.060 C 154.180 58.430, 151 59.449, 151 60.189 C 151 60.635, 150.127 61, 149.059 61 C 147.991 61, 146.840 61.450, 146.500 62 C 146.160 62.550, 145.022 63, 143.971 63 C 142.920 63, 139.403 64.350, 136.156 66 C 132.909 67.650, 129.746 69, 129.126 69 C 128.507 69, 128 69.460, 128 70.021 C 128 70.583, 126.762 71.576, 125.250 72.228 C 123.737 72.879, 120.923 74.557, 118.996 75.956 C 117.069 77.355, 114.774 78.950, 113.895 79.500 C 107.287 83.638, 95 94.426, 95 96.090 C 95 96.591, 94.295 97, 93.433 97 C 92.322 97, 92.050 97.581, 92.498 98.994 C 92.970 100.480, 92.757 100.844, 91.663 100.424 C 90.690 100.051, 88.310 102.224, 84.598 106.877 C 81.519 110.736, 79 114.345, 79 114.897 C 79 115.449, 78.382 116.260, 77.627 116.700 C 76.872 117.140, 74.959 119.907, 73.377 122.848 C 65.480 137.528, 63.001 142.656, 63.001 144.309 C 63 145.304, 62.550 145.840, 62 145.500 C 61.417 145.139, 61 146.156, 61 147.941 C 61 149.623, 60.635 151, 60.189 151 C 58.635 151, 55.844 162.630, 56.441 166.621 C 56.798 169.004, 56.707 169.778, 56.205 168.629 C 54.637 165.035, 53.123 173.954, 52.493 190.500 C 51.469 217.371, 54.217 236.721, 61.146 251.438 C 62.166 253.604, 63 255.810, 63 256.341 C 63 256.872, 64.350 260.164, 66 263.656 C 67.650 267.148, 69 270.454, 69 271.003 C 69 271.551, 69.472 272, 70.048 272 C 70.625 272, 71.659 273.238, 72.346 274.750 C 74.343 279.145, 77.435 283.987, 78.250 283.994 C 78.662 283.997, 79 284.474, 79 285.053 C 79 286.535, 88.691 298.460, 95.116 304.884 C 102.401 312.170, 113.541 321, 115.447 321 C 116.301 321, 117 321.581, 117 322.292 C 117 323.002, 119.555 324.915, 122.679 326.542 C 136.944 333.973, 141.762 336.282, 145.975 337.706 C 148.464 338.547, 150.725 339.520, 151 339.868 C 152.419 341.662, 162.507 344.101, 166.339 343.576 C 168.903 343.225, 169.763 343.321, 168.580 343.826 C 167.005 344.498, 167.454 344.847, 171.080 345.769 C 175.053 346.778, 191.783 348.261, 199.500 348.288 C 207.829 348.316, 225.102 346.673, 229.654 345.420 C 232.489 344.639, 235.704 344, 236.800 344 C 237.896 344, 242.102 342.613, 246.146 340.918 C 250.191 339.224, 254.850 337.481, 256.500 337.045 C 258.150 336.609, 261.815 335.071, 264.645 333.626 C 267.475 332.182, 270.288 331, 270.895 331 C 271.503 331, 272 330.528, 272 329.952 C 272 329.375, 273.238 328.341, 274.750 327.654 C 279.145 325.657, 283.987 322.565, 283.994 321.750 C 283.997 321.337, 284.474 321, 285.053 321 C 286.535 321, 298.460 311.309, 304.884 304.884 C 311.212 298.557, 321 286.542, 321 285.103 C 321 284.551, 321.618 283.740, 322.373 283.300 C 323.128 282.860, 325.041 280.093, 326.623 277.152 C 334.520 262.472, 336.999 257.344, 336.999 255.691 C 337 254.696, 337.450 254.160, 338 254.500 C 338.583 254.861, 339 253.844, 339 252.059 C 339 250.377, 339.365 249, 339.811 249 C 341.365 249, 344.156 237.370, 343.559 233.379 C 343.214 231.075, 343.304 230.243, 343.780 231.329 C 347.448 239.700, 349.125 184.490, 345.642 170 C 343.284 160.189, 341.140 153.417, 338.854 148.562 C 337.834 146.396, 337 144.047, 337 143.342 C 337 142.637, 335.650 139.403, 334 136.156 C 332.350 132.909, 331 129.746, 331 129.126 C 331 128.507, 330.540 128, 329.979 128 C 329.417 128, 328.424 126.763, 327.772 125.250 C 327.121 123.737, 325.331 120.860, 323.794 118.856 C 322.257 116.852, 321 114.926, 321 114.577 C 321 113.893, 314.503 105.493, 309.994 100.347 C 308.475 98.613, 306.280 96.685, 305.116 96.062 C 303.952 95.439, 303 94.482, 303 93.934 C 303 92.328, 287.007 79, 285.079 79 C 284.540 79, 283.740 78.382, 283.300 77.627 C 282.860 76.872, 280.137 75.064, 277.250 73.610 C 274.363 72.156, 272 70.524, 272 69.983 C 272 69.442, 271.388 69, 270.641 69 C 269.893 69, 266.752 67.650, 263.660 66 C 260.568 64.350, 257.129 63, 256.019 63 C 254.909 63, 254 62.602, 254 62.117 C 254 61.631, 252.988 60.992, 251.750 60.697 C 250.512 60.401, 246.800 59.259, 243.500 58.159 C 233.772 54.914, 224.218 53.131, 212.500 52.373 C 206.450 51.981, 200.599 51.588, 199.497 51.498 C 198.396 51.409, 197.046 51.474, 196.497 51.643 M 194.437 116.997 C 192.471 118.256, 189.454 122.462, 186.019 128.730 C 183.075 134.104, 179.503 140.075, 178.083 142 C 175.212 145.890, 175.128 146.036, 168.431 158.588 C 165.816 163.489, 163.110 168.175, 162.418 169 C 161.725 169.825, 159.474 173.650, 157.414 177.500 C 155.354 181.350, 151.943 187.063, 149.834 190.195 C 147.725 193.327, 146 196.349, 146 196.910 C 146 197.471, 144.711 199.409, 143.135 201.215 C 141.559 203.022, 139.949 205.526, 139.558 206.780 C 138.796 209.220, 135.635 214.811, 127.250 228.550 C 124.362 233.282, 122 237.385, 122 237.669 C 122 237.952, 121.164 239.247, 120.142 240.546 C 118.585 242.526, 118.417 243.746, 119.102 248.081 C 119.552 250.925, 120.050 253.345, 120.210 253.458 C 125.198 256.985, 125.307 257, 145.069 257 C 161.377 257, 165.268 256.718, 168.096 255.330 C 174.772 252.053, 178.016 248.406, 183.139 238.415 C 188.755 227.464, 193.327 218.824, 195.530 215 C 198.474 209.891, 196.879 205, 192.269 205 C 190.986 205, 189.678 204.325, 189.362 203.500 C 189.045 202.675, 187.934 202, 186.893 202 C 185.162 202, 185 201.145, 185 192 C 185 182.752, 185.147 182, 186.950 182 C 188.023 182, 189.260 181.438, 189.700 180.750 C 190.571 179.389, 198.882 174.979, 200.500 175.019 C 201.050 175.033, 202.625 175.924, 204 177 C 205.375 178.076, 207.239 178.966, 208.143 178.978 C 209.047 178.990, 210.045 179.675, 210.362 180.500 C 210.678 181.325, 211.793 182, 212.840 182 C 214.576 182, 214.751 182.873, 214.844 192 C 214.937 201.130, 214.784 202, 213.080 202 C 212.054 202, 210.955 202.675, 210.638 203.500 C 210.322 204.325, 208.979 205, 207.654 205 C 204.086 205, 202.650 207.314, 203.471 211.739 C 203.855 213.808, 204.764 216.175, 205.491 217 C 206.862 218.557, 208.026 220.757, 216.659 238.123 C 222.009 248.885, 224.619 251.731, 232.359 255.247 C 235.603 256.721, 239.245 257, 255.205 257 C 279.482 257, 280.950 256.338, 280.986 245.372 C 280.994 242.909, 280.395 240.743, 279.500 240 C 278.675 239.315, 278 238.361, 278 237.880 C 278 237.398, 274.822 231.814, 270.939 225.469 C 267.055 219.125, 262.892 211.812, 261.687 209.217 C 260.482 206.623, 258.260 202.883, 256.748 200.906 C 255.237 198.929, 254 196.992, 254 196.601 C 254 196.210, 252.275 193.327, 250.166 190.195 C 248.057 187.063, 244.646 181.350, 242.586 177.500 C 240.526 173.650, 238.268 169.825, 237.568 169 C 236.868 168.175, 234.379 163.900, 232.038 159.500 C 229.696 155.100, 227.248 150.825, 226.598 150 C 225.948 149.175, 224.391 146.363, 223.138 143.750 C 221.885 141.137, 220.490 139, 220.038 139 C 219.587 139, 218.477 137.313, 217.572 135.250 C 214.300 127.789, 208.436 118.919, 205.500 116.987 C 201.711 114.494, 198.337 114.497, 194.437 116.997" stroke="none" fill="#3ce2fb" fill-rule="evenodd"/></svg>