<?xml version="1.0" encoding="UTF-8"?>
<!DOCTYPE svg PUBLIC "-//W3C//DTD SVG 1.1//EN" "http://www.w3.org/Graphics/SVG/1.1/DTD/svg11.dtd">
<svg xmlns="http://www.w3.org/2000/svg" version="1.1" width="174px" height="174px" style="shape-rendering:geometricPrecision; text-rendering:geometricPrecision; image-rendering:optimizeQuality; fill-rule:evenodd; clip-rule:evenodd" xmlns:xlink="http://www.w3.org/1999/xlink">
<g><path style="opacity:0.968" fill="#171626" d="M 73.5,-0.5 C 79.5,-0.5 85.5,-0.5 91.5,-0.5C 82.768,6.71498 73.1014,12.715 62.5,17.5C 61.7025,17.9569 61.3691,18.6236 61.5,19.5C 59.847,19.6596 58.5137,20.3263 57.5,21.5C 55.9731,21.427 54.9731,22.0937 54.5,23.5C 52.847,23.6596 51.5137,24.3263 50.5,25.5C 48.9731,25.427 47.9731,26.0937 47.5,27.5C 45.246,28.1237 43.5794,29.457 42.5,31.5C 41.8333,31.5 41.1667,31.5 40.5,31.5C 38.8561,31.7135 37.3561,31.3802 36,30.5C 35.6905,31.7659 35.1905,32.9326 34.5,34C 30.5,36.3333 26.5,38.6667 22.5,41C 20.8333,41.6667 19.1667,41.6667 17.5,41C 16.5291,39.5187 15.1958,38.6854 13.5,38.5C 27.9452,16.9447 47.9452,3.94467 73.5,-0.5 Z"/></g>
<g><path style="opacity:1" fill="#f3f4f4" d="M 66.5,18.5 C 68.1667,18.5 69.8333,18.5 71.5,18.5C 72.0916,21.1272 72.4249,23.7938 72.5,26.5C 71.209,26.2627 70.209,26.596 69.5,27.5C 68.791,28.404 67.791,28.7373 66.5,28.5C 64.597,28.7959 62.9303,29.4625 61.5,30.5C 59.9731,30.427 58.9731,31.0937 58.5,32.5C 55.91,33.1283 53.5766,34.295 51.5,36C 47.9888,38.847 44.4888,41.6804 41,44.5C 37.066,43.583 35.066,41.2497 35,37.5C 35.7083,36.6195 36.5416,35.9528 37.5,35.5C 39.7488,34.9202 41.4154,33.5869 42.5,31.5C 43.5794,29.457 45.246,28.1237 47.5,27.5C 49.0269,27.573 50.0269,26.9063 50.5,25.5C 51.5137,24.3263 52.847,23.6596 54.5,23.5C 56.0269,23.573 57.0269,22.9063 57.5,21.5C 60.855,21.3104 63.855,20.3104 66.5,18.5 Z"/></g>
<g><path style="opacity:1" fill="#96969d" d="M 66.5,18.5 C 63.855,20.3104 60.855,21.3104 57.5,21.5C 58.5137,20.3263 59.847,19.6596 61.5,19.5C 63.0418,18.6993 64.7085,18.366 66.5,18.5 Z"/></g>
<g><path style="opacity:1" fill="#97979f" d="M 57.5,21.5 C 57.0269,22.9063 56.0269,23.573 54.5,23.5C 54.9731,22.0937 55.9731,21.427 57.5,21.5 Z"/></g>
<g><path style="opacity:1" fill="#1a1928" d="M 91.5,-0.5 C 94.1667,-0.5 96.8333,-0.5 99.5,-0.5C 125.055,3.94467 145.055,16.9447 159.5,38.5C 159.44,39.0431 159.107,39.3764 158.5,39.5C 155.467,37.3024 152.3,35.3024 149,33.5C 145.101,37.0614 141.601,40.8948 138.5,45C 138.639,46.301 139.305,47.1344 140.5,47.5C 139.4,48.6049 138.733,49.9382 138.5,51.5C 137.258,53.3888 137.258,55.3888 138.5,57.5C 138.5,57.8333 138.5,58.1667 138.5,58.5C 137.603,57.4019 136.77,57.4019 136,58.5C 135.508,57.451 135.674,56.451 136.5,55.5C 135.624,54.7492 134.624,54.2492 133.5,54C 134.772,51.9555 134.439,50.1222 132.5,48.5C 130.877,49.4908 129.877,48.8241 129.5,46.5C 126.562,45.5109 123.562,44.8442 120.5,44.5C 121.036,41.3354 120.203,38.6688 118,36.5C 114.391,35.4234 110.557,35.4234 106.5,36.5C 105.974,33.6461 104.974,30.9794 103.5,28.5C 106.221,28.9628 108.888,29.6295 111.5,30.5C 116.762,33.1023 121.762,36.1023 126.5,39.5C 127.96,41.4628 129.627,43.2962 131.5,45C 132.749,45.7401 133.749,45.5735 134.5,44.5C 135.579,42.457 137.246,41.1237 139.5,40.5C 142.688,37.2829 142.021,35.4496 137.5,35C 136.29,33.9609 135.29,32.7942 134.5,31.5C 135.466,28.8753 136.466,28.8753 137.5,31.5C 138.262,30.3717 138.929,29.2051 139.5,28C 124.934,20.0367 110.6,11.7034 96.5,3C 95.1667,2.33333 93.8333,2.33333 92.5,3C 84.5633,7.30423 76.5633,11.6376 68.5,16C 72.2508,15.6637 75.7508,15.1637 79,14.5C 80.301,14.6387 81.1344,15.3054 81.5,16.5C 80.8902,17.391 80.5569,18.391 80.5,19.5C 79.3871,20.9464 79.2204,22.6131 80,24.5C 81.045,25.3734 81.8783,26.3734 82.5,27.5C 82.6107,28.1174 82.944,28.6174 83.5,29C 85.4727,29.4955 87.4727,29.6621 89.5,29.5C 90.895,30.6477 90.7284,31.6477 89,32.5C 87.9335,30.7174 86.4335,30.2174 84.5,31C 86.3049,31.972 87.9716,33.1387 89.5,34.5C 88.7261,35.7112 87.8928,35.7112 87,34.5C 85.786,36.0488 84.286,37.2155 82.5,38C 82.727,39.1353 83.0604,40.302 83.5,41.5C 84.1924,40.9747 84.6924,40.3081 85,39.5C 86.5158,42.0515 87.3491,41.7181 87.5,38.5C 88.8734,38.3433 90.2068,38.51 91.5,39C 90.0267,39.7096 89.3601,40.8762 89.5,42.5C 87.2646,42.2053 85.2646,42.5386 83.5,43.5C 82.5,43.8333 81.8333,44.5 81.5,45.5C 80.8826,45.6107 80.3826,45.944 80,46.5C 79.5045,48.4727 79.3379,50.4727 79.5,52.5C 77.8583,54.0808 75.8583,54.7475 73.5,54.5C 73.7678,56.099 73.4345,57.4324 72.5,58.5C 72.7373,57.209 72.404,56.209 71.5,55.5C 71.1667,54.1667 70.8333,52.8333 70.5,51.5C 70.38,50.4138 69.7133,49.7472 68.5,49.5C 67.5836,49.5427 66.9169,49.8761 66.5,50.5C 60.5831,53.7485 55.5831,58.0818 51.5,63.5C 46.9728,59.7354 41.9728,56.7354 36.5,54.5C 35.0786,48.7822 31.412,46.6155 25.5,48C 24.5842,48.2784 23.9175,48.7784 23.5,49.5C 23.1667,49.5 22.8333,49.5 22.5,49.5C 22.33,48.1779 22.6634,47.0113 23.5,46C 22.3914,45.3623 21.2247,44.8623 20,44.5C 15.3624,46.9788 10.8624,49.6455 6.5,52.5C 7.94828,47.3867 10.2816,42.72 13.5,38.5C 15.1958,38.6854 16.5291,39.5187 17.5,41C 19.1667,41.6667 20.8333,41.6667 22.5,41C 26.5,38.6667 30.5,36.3333 34.5,34C 35.1905,32.9326 35.6905,31.7659 36,30.5C 37.3561,31.3802 38.8561,31.7135 40.5,31.5C 39.5,32.8333 38.5,34.1667 37.5,35.5C 36.5416,35.9528 35.7083,36.6195 35,37.5C 35.066,41.2497 37.066,43.583 41,44.5C 44.4888,41.6804 47.9888,38.847 51.5,36C 53.5766,34.295 55.91,33.1283 58.5,32.5C 60.0269,32.573 61.0269,31.9063 61.5,30.5C 63.698,30.8799 65.3646,30.2132 66.5,28.5C 67.791,28.7373 68.791,28.404 69.5,27.5C 70.8333,27.5 72.1667,27.5 73.5,27.5C 73.7399,24.4212 73.4066,21.4212 72.5,18.5C 70.3635,17.2072 68.3635,17.2072 66.5,18.5C 64.7085,18.366 63.0418,18.6993 61.5,19.5C 61.3691,18.6236 61.7025,17.9569 62.5,17.5C 73.1014,12.715 82.768,6.71498 91.5,-0.5 Z"/></g>
<g><path style="opacity:1" fill="#f2f2f3" d="M 101.5,17.5 C 103.5,17.8333 105.5,18.1667 107.5,18.5C 108.609,18.5569 109.609,18.8902 110.5,19.5C 116.771,21.9689 122.771,24.9689 128.5,28.5C 128.973,29.9063 129.973,30.573 131.5,30.5C 133.502,33.3338 136.002,35.6671 139,37.5C 139.483,38.448 139.649,39.448 139.5,40.5C 137.246,41.1237 135.579,42.457 134.5,44.5C 131.833,42.8333 129.167,41.1667 126.5,39.5C 121.762,36.1023 116.762,33.1023 111.5,30.5C 109.383,28.3455 106.716,27.3455 103.5,27.5C 103.167,27.5 102.833,27.5 102.5,27.5C 101.612,24.9455 101.279,22.2788 101.5,19.5C 101.5,18.8333 101.5,18.1667 101.5,17.5 Z"/></g>
<g><path style="opacity:1" fill="#9c9ba0" d="M 91.5,16.5 C 92.9063,16.9731 93.573,17.9731 93.5,19.5C 92.0937,19.0269 91.427,18.0269 91.5,16.5 Z"/></g>
<g><path style="opacity:1" fill="#a8a8b1" d="M 84.5,15.5 C 83.5,17.1667 82.1667,18.5 80.5,19.5C 80.5569,18.391 80.8902,17.391 81.5,16.5C 82.391,15.8902 83.391,15.5569 84.5,15.5 Z"/></g>
<g><path style="opacity:1" fill="#f2f1f3" d="M 84.5,15.5 C 86.9029,15.448 89.2362,15.7814 91.5,16.5C 91.427,18.0269 92.0937,19.0269 93.5,19.5C 95.1735,23.5773 93.8401,26.5773 89.5,28.5C 87.0971,28.552 84.7638,28.2186 82.5,27.5C 81.8783,26.3734 81.045,25.3734 80,24.5C 79.2204,22.6131 79.3871,20.9464 80.5,19.5C 82.1667,18.5 83.5,17.1667 84.5,15.5 Z"/></g>
<g><path style="opacity:1" fill="#91919a" d="M 66.5,18.5 C 68.3635,17.2072 70.3635,17.2072 72.5,18.5C 73.4066,21.4212 73.7399,24.4212 73.5,27.5C 72.1667,27.5 70.8333,27.5 69.5,27.5C 70.209,26.596 71.209,26.2627 72.5,26.5C 72.4249,23.7938 72.0916,21.1272 71.5,18.5C 69.8333,18.5 68.1667,18.5 66.5,18.5 Z"/></g>
<g><path style="opacity:1" fill="#181627" d="M 134.5,31.5 C 133.609,30.8902 132.609,30.5569 131.5,30.5C 131.027,29.0937 130.027,28.427 128.5,28.5C 127.292,25.9558 125.292,24.6225 122.5,24.5C 122.5,23.1667 122.5,21.8333 122.5,20.5C 118.466,20.4955 114.466,20.1621 110.5,19.5C 109.609,18.8902 108.609,18.5569 107.5,18.5C 106.866,17.0532 105.699,16.3866 104,16.5C 102.93,16.528 102.097,16.8614 101.5,17.5C 101.5,18.1667 101.5,18.8333 101.5,19.5C 100.844,20.6216 100.511,21.9549 100.5,23.5C 100.585,25.3328 101.252,26.6661 102.5,27.5C 102.833,27.5 103.167,27.5 103.5,27.5C 103.5,27.8333 103.5,28.1667 103.5,28.5C 104.974,30.9794 105.974,33.6461 106.5,36.5C 110.557,35.4234 114.391,35.4234 118,36.5C 120.203,38.6688 121.036,41.3354 120.5,44.5C 123.562,44.8442 126.562,45.5109 129.5,46.5C 129.877,48.8241 130.877,49.4908 132.5,48.5C 134.439,50.1222 134.772,51.9555 133.5,54C 134.624,54.2492 135.624,54.7492 136.5,55.5C 135.674,56.451 135.508,57.451 136,58.5C 136.77,57.4019 137.603,57.4019 138.5,58.5C 138.5,58.8333 138.5,59.1667 138.5,59.5C 134.909,61.8794 131.076,63.8794 127,65.5C 125.477,63.6461 123.644,62.1461 121.5,61C 121.833,60.6667 122.167,60.3333 122.5,60C 121.552,59.5172 120.552,59.3505 119.5,59.5C 117.833,58.5 116.5,57.1667 115.5,55.5C 115.5,55.1667 115.5,54.8333 115.5,54.5C 114.984,47.6645 110.984,43.9978 103.5,43.5C 103.5,41.8333 103.5,40.1667 103.5,38.5C 101.833,38.5 100.167,38.5 98.5,38.5C 98.3069,41.4747 99.3069,43.9747 101.5,46C 100.833,46.3333 100.167,46.6667 99.5,47C 101.378,48.9928 101.712,51.1595 100.5,53.5C 99.6143,52.675 99.281,51.675 99.5,50.5C 97.6776,50.1692 96.0109,49.5025 94.5,48.5C 94.6716,47.5084 94.3382,46.8417 93.5,46.5C 93.1667,44.1667 91.8333,42.8333 89.5,42.5C 89.3601,40.8762 90.0267,39.7096 91.5,39C 90.2068,38.51 88.8734,38.3433 87.5,38.5C 87.3491,41.7181 86.5158,42.0515 85,39.5C 84.6924,40.3081 84.1924,40.9747 83.5,41.5C 83.0604,40.302 82.727,39.1353 82.5,38C 84.286,37.2155 85.786,36.0488 87,34.5C 87.8928,35.7112 88.7261,35.7112 89.5,34.5C 87.9716,33.1387 86.3049,31.972 84.5,31C 86.4335,30.2174 87.9335,30.7174 89,32.5C 90.7284,31.6477 90.895,30.6477 89.5,29.5C 89.5,29.1667 89.5,28.8333 89.5,28.5C 93.8401,26.5773 95.1735,23.5773 93.5,19.5C 93.573,17.9731 92.9063,16.9731 91.5,16.5C 89.2362,15.7814 86.9029,15.448 84.5,15.5C 83.391,15.5569 82.391,15.8902 81.5,16.5C 81.1344,15.3054 80.301,14.6387 79,14.5C 75.7508,15.1637 72.2508,15.6637 68.5,16C 76.5633,11.6376 84.5633,7.30423 92.5,3C 93.8333,2.33333 95.1667,2.33333 96.5,3C 110.6,11.7034 124.934,20.0367 139.5,28C 138.929,29.2051 138.262,30.3717 137.5,31.5C 136.466,28.8753 135.466,28.8753 134.5,31.5 Z"/></g>
<g><path style="opacity:1" fill="#3b3b46" d="M 110.5,19.5 C 114.466,20.1621 118.466,20.4955 122.5,20.5C 122.5,21.8333 122.5,23.1667 122.5,24.5C 125.292,24.6225 127.292,25.9558 128.5,28.5C 122.771,24.9689 116.771,21.9689 110.5,19.5 Z"/></g>
<g><path style="opacity:1" fill="#4a4753" d="M 101.5,17.5 C 102.097,16.8614 102.93,16.528 104,16.5C 105.699,16.3866 106.866,17.0532 107.5,18.5C 105.5,18.1667 103.5,17.8333 101.5,17.5 Z"/></g>
<g><path style="opacity:1" fill="#a6a6b2" d="M 50.5,25.5 C 50.0269,26.9063 49.0269,27.573 47.5,27.5C 47.9731,26.0937 48.9731,25.427 50.5,25.5 Z"/></g>
<g><path style="opacity:1" fill="#7c7a83" d="M 101.5,19.5 C 101.279,22.2788 101.612,24.9455 102.5,27.5C 101.252,26.6661 100.585,25.3328 100.5,23.5C 100.511,21.9549 100.844,20.6216 101.5,19.5 Z"/></g>
<g><path style="opacity:1" fill="#96969c" d="M 103.5,28.5 C 103.5,28.1667 103.5,27.8333 103.5,27.5C 106.716,27.3455 109.383,28.3455 111.5,30.5C 108.888,29.6295 106.221,28.9628 103.5,28.5 Z"/></g>
<g><path style="opacity:1" fill="#9c9ba5" d="M 82.5,27.5 C 84.7638,28.2186 87.0971,28.552 89.5,28.5C 89.5,28.8333 89.5,29.1667 89.5,29.5C 87.4727,29.6621 85.4727,29.4955 83.5,29C 82.944,28.6174 82.6107,28.1174 82.5,27.5 Z"/></g>
<g><path style="opacity:1" fill="#6d6d75" d="M 66.5,28.5 C 65.3646,30.2132 63.698,30.8799 61.5,30.5C 62.9303,29.4625 64.597,28.7959 66.5,28.5 Z"/></g>
<g><path style="opacity:1" fill="#5c5a65" d="M 128.5,28.5 C 130.027,28.427 131.027,29.0937 131.5,30.5C 129.973,30.573 128.973,29.9063 128.5,28.5 Z"/></g>
<g><path style="opacity:1" fill="#66666c" d="M 61.5,30.5 C 61.0269,31.9063 60.0269,32.573 58.5,32.5C 58.9731,31.0937 59.9731,30.427 61.5,30.5 Z"/></g>
<g><path style="opacity:1" fill="#bebdc3" d="M 40.5,31.5 C 41.1667,31.5 41.8333,31.5 42.5,31.5C 41.4154,33.5869 39.7488,34.9202 37.5,35.5C 38.5,34.1667 39.5,32.8333 40.5,31.5 Z"/></g>
<g><path style="opacity:1" fill="#393941" d="M 131.5,30.5 C 132.609,30.5569 133.609,30.8902 134.5,31.5C 135.29,32.7942 136.29,33.9609 137.5,35C 142.021,35.4496 142.688,37.2829 139.5,40.5C 139.649,39.448 139.483,38.448 139,37.5C 136.002,35.6671 133.502,33.3338 131.5,30.5 Z"/></g>
<g><path style="opacity:1" fill="#93929a" d="M 126.5,39.5 C 129.167,41.1667 131.833,42.8333 134.5,44.5C 133.749,45.5735 132.749,45.7401 131.5,45C 129.627,43.2962 127.96,41.4628 126.5,39.5 Z"/></g>
<g><path style="opacity:1" fill="#5e5d69" d="M 83.5,43.5 C 85.2646,42.5386 87.2646,42.2053 89.5,42.5C 91.8333,42.8333 93.1667,44.1667 93.5,46.5C 90.7664,43.8574 87.4331,42.8574 83.5,43.5 Z"/></g>
<g><path style="opacity:1" fill="#f2f1f4" d="M 83.5,43.5 C 87.4331,42.8574 90.7664,43.8574 93.5,46.5C 94.3382,46.8417 94.6716,47.5084 94.5,48.5C 94.4997,52.1746 92.833,54.8413 89.5,56.5C 84.5151,56.8596 81.5151,54.5263 80.5,49.5C 80.8457,48.1508 81.179,46.8175 81.5,45.5C 81.8333,44.5 82.5,43.8333 83.5,43.5 Z"/></g>
<g><path style="opacity:1" fill="#73737e" d="M 148.5,47.5 C 146.473,47.3379 144.473,47.5045 142.5,48C 141.295,49.3756 139.962,50.5423 138.5,51.5C 138.733,49.9382 139.4,48.6049 140.5,47.5C 143.272,46.2329 145.939,46.2329 148.5,47.5 Z"/></g>
<g><path style="opacity:1" fill="#eeeef0" d="M 36.5,54.5 C 36.5,55.1667 36.5,55.8333 36.5,56.5C 34.7041,57.7927 33.0375,59.2927 31.5,61C 29.0709,61.7033 26.7375,61.5366 24.5,60.5C 24.573,58.9731 23.9063,57.9731 22.5,57.5C 22.4013,54.7628 22.7347,52.0961 23.5,49.5C 23.9175,48.7784 24.5842,48.2784 25.5,48C 31.412,46.6155 35.0786,48.7822 36.5,54.5 Z"/></g>
<g><path style="opacity:1" fill="#2a2a33" d="M 115.5,54.5 C 115.5,54.8333 115.5,55.1667 115.5,55.5C 112.314,52.7381 108.647,50.7381 104.5,49.5C 104.167,49.5 103.833,49.5 103.5,49.5C 103.351,48.448 103.517,47.448 104,46.5C 107.691,47.267 111.191,49.1004 114.5,52C 113.434,53.159 113.767,53.9924 115.5,54.5 Z"/></g>
<g><path style="opacity:1" fill="#eaebed" d="M 148.5,47.5 C 151.407,49.3145 152.741,51.9812 152.5,55.5C 152.167,56.1667 151.833,56.8333 151.5,57.5C 150.167,58.1667 149.167,59.1667 148.5,60.5C 146.059,61.7563 143.726,61.7563 141.5,60.5C 140.833,59.1667 139.833,58.1667 138.5,57.5C 137.258,55.3888 137.258,53.3888 138.5,51.5C 139.962,50.5423 141.295,49.3756 142.5,48C 144.473,47.5045 146.473,47.3379 148.5,47.5 Z"/></g>
<g><path style="opacity:0.966" fill="#171626" d="M 159.5,38.5 C 166.522,49.2339 171.189,60.9005 173.5,73.5C 173.5,82.1667 173.5,90.8333 173.5,99.5C 171.702,108.56 168.702,117.227 164.5,125.5C 161.191,122.841 157.524,120.674 153.5,119C 154.833,118 154.833,117 153.5,116C 155.891,114.691 155.891,113.691 153.5,113C 154.823,112.184 155.489,111.017 155.5,109.5C 156.167,109.5 156.5,109.167 156.5,108.5C 157.806,108.121 159.139,107.788 160.5,107.5C 161.262,103.889 161.762,100.222 162,96.5C 162.692,95.9747 163.192,95.3081 163.5,94.5C 162.753,94.2635 161.92,93.9302 161,93.5C 160.833,90.1667 160.667,86.8333 160.5,83.5C 160.287,78.8122 160.954,74.3122 162.5,70C 161.584,69.6258 160.75,69.1258 160,68.5C 160.198,64.0373 158.364,60.8706 154.5,59C 155.84,56.8511 155.173,55.6845 152.5,55.5C 152.741,51.9812 151.407,49.3145 148.5,47.5C 145.939,46.2329 143.272,46.2329 140.5,47.5C 139.305,47.1344 138.639,46.301 138.5,45C 141.601,40.8948 145.101,37.0614 149,33.5C 152.3,35.3024 155.467,37.3024 158.5,39.5C 159.107,39.3764 159.44,39.0431 159.5,38.5 Z"/></g>
<g><path style="opacity:1" fill="#8a8a92" d="M 66.5,50.5 C 66.9169,49.8761 67.5836,49.5427 68.5,49.5C 69.7133,49.7472 70.38,50.4138 70.5,51.5C 69.2921,50.7659 67.9587,50.4326 66.5,50.5 Z"/></g>
<g><path style="opacity:0.974" fill="#171526" d="M 22.5,49.5 C 20.5891,49.5743 19.4224,50.5743 19,52.5C 18.6667,52.1667 18.3333,51.8333 18,51.5C 17.8406,55.0487 18.3406,58.5487 19.5,62C 19.2568,62.9021 18.9234,63.7354 18.5,64.5C 17.6618,64.8417 17.3284,65.5084 17.5,66.5C 16.1667,66.5 14.8333,66.5 13.5,66.5C 12.9556,70.1005 11.9556,73.6005 10.5,77C 10.5,81.3333 10.5,85.6667 10.5,90C 13.1617,97.7183 13.1617,105.052 10.5,112C 11.174,115.723 12.674,116.223 15,113.5C 16.0588,113.63 16.8921,114.13 17.5,115C 14.0933,116.255 11.0933,118.088 8.5,120.5C 7.60895,119.89 6.60895,119.557 5.5,119.5C 2.85998,112.921 0.859977,106.254 -0.5,99.5C -0.5,90.8333 -0.5,82.1667 -0.5,73.5C 0.82654,66.187 3.15987,59.187 6.5,52.5C 10.8624,49.6455 15.3624,46.9788 20,44.5C 21.2247,44.8623 22.3914,45.3623 23.5,46C 22.6634,47.0113 22.33,48.1779 22.5,49.5 Z"/></g>
<g><path style="opacity:1" fill="#a5a4ae" d="M 81.5,45.5 C 81.179,46.8175 80.8457,48.1508 80.5,49.5C 81.5151,54.5263 84.5151,56.8596 89.5,56.5C 87.7116,57.6225 85.7116,57.7891 83.5,57C 81.9297,55.6032 80.5964,54.1032 79.5,52.5C 79.3379,50.4727 79.5045,48.4727 80,46.5C 80.3826,45.944 80.8826,45.6107 81.5,45.5 Z"/></g>
<g><path style="opacity:1" fill="#f3f3f4" d="M 66.5,50.5 C 67.9587,50.4326 69.2921,50.7659 70.5,51.5C 70.8333,52.8333 71.1667,54.1667 71.5,55.5C 71.5674,56.9587 71.2341,58.2921 70.5,59.5C 64.387,62.9471 60.0536,67.9471 57.5,74.5C 56.207,75.842 55.3736,77.5087 55,79.5C 54.3333,84.8333 54.3333,90.1667 55,95.5C 55.4238,98.0254 56.5905,100.025 58.5,101.5C 58.0246,104.313 59.0246,106.313 61.5,107.5C 62.5,108.167 63.5,108.833 64.5,109.5C 66.3438,112.687 69.0105,114.687 72.5,115.5C 72.1667,117.5 71.8333,119.5 71.5,121.5C 70.596,122.209 70.2627,123.209 70.5,124.5C 65.4857,123.498 61.1523,121.165 57.5,117.5C 54.4152,113.754 51.7485,109.754 49.5,105.5C 48.3012,101.901 47.3012,98.2347 46.5,94.5C 46.1141,86.3806 46.7808,78.3806 48.5,70.5C 49.1667,68.5 49.8333,66.5 50.5,64.5C 51.1667,64.5 51.5,64.1667 51.5,63.5C 55.5831,58.0818 60.5831,53.7485 66.5,50.5 Z"/></g>
<g><path style="opacity:1" fill="#7d7b84" d="M 22.5,49.5 C 22.8333,49.5 23.1667,49.5 23.5,49.5C 22.7347,52.0961 22.4013,54.7628 22.5,57.5C 21.2329,54.9387 21.2329,52.272 22.5,49.5 Z"/></g>
<g><path style="opacity:1" fill="#9898a1" d="M 103.5,49.5 C 103.833,49.5 104.167,49.5 104.5,49.5C 104.127,52.5739 103.461,55.5739 102.5,58.5C 101.876,58.0831 101.543,57.4164 101.5,56.5C 102.173,54.149 102.84,51.8157 103.5,49.5 Z"/></g>
<g><path style="opacity:1" fill="#171527" d="M 36.5,54.5 C 41.9728,56.7354 46.9728,59.7354 51.5,63.5C 51.5,64.1667 51.1667,64.5 50.5,64.5C 49.4721,64.0742 48.1388,64.0742 46.5,64.5C 45.5948,67.4797 44.2615,70.313 42.5,73C 42.9775,79.9953 42.9775,87.162 42.5,94.5C 43.8986,99.621 45.5652,104.621 47.5,109.5C 44.538,110.061 41.7047,111.061 39,112.5C 37.2326,110.836 37.7326,109.669 40.5,109C 38.0605,105.878 36.2271,102.378 35,98.5C 35.1639,91.5236 35.3305,84.5236 35.5,77.5C 34.5,77.5 33.5,77.5 32.5,77.5C 32.8306,84.8635 32.4973,92.1968 31.5,99.5C 30.914,99.7093 30.414,100.043 30,100.5C 29.3333,92.5 29.3333,84.5 30,76.5C 30.7065,74.9194 31.5399,73.4194 32.5,72C 29.5756,68.801 30.0756,66.6343 34,65.5C 34.6172,66.4491 34.4506,67.2825 33.5,68C 34.8081,70.3549 35.8081,72.8549 36.5,75.5C 37.1494,73.3759 37.9827,71.3759 39,69.5C 39.2152,66.1965 39.3819,63.0299 39.5,60C 37.9443,59.2798 36.9443,58.1132 36.5,56.5C 36.5,55.8333 36.5,55.1667 36.5,54.5 Z"/></g>
<g><path style="opacity:1" fill="#181726" d="M 115.5,54.5 C 113.767,53.9924 113.434,53.159 114.5,52C 111.191,49.1004 107.691,47.267 104,46.5C 103.517,47.448 103.351,48.448 103.5,49.5C 102.84,51.8157 102.173,54.149 101.5,56.5C 101.543,57.4164 101.876,58.0831 102.5,58.5C 108.936,62.2705 113.603,67.6038 116.5,74.5C 118.155,80.3457 118.822,86.3457 118.5,92.5C 118.672,93.4916 118.338,94.1583 117.5,94.5C 114.298,90.8769 113.964,87.0436 116.5,83C 114.64,81.1396 112.806,79.3063 111,77.5C 106.839,80.497 102.339,82.8303 97.5,84.5C 97.6716,83.5084 97.3382,82.8417 96.5,82.5C 94.2063,80.347 91.5396,78.6803 88.5,77.5C 86.9504,76.2801 85.2837,76.2801 83.5,77.5C 82.1266,77.6567 80.7932,77.49 79.5,77C 76.1306,74.3159 72.4639,72.1492 68.5,70.5C 65.763,66.2791 66.4297,62.6125 70.5,59.5C 71.4916,59.6716 72.1583,59.3382 72.5,58.5C 73.4345,57.4324 73.7678,56.099 73.5,54.5C 75.8583,54.7475 77.8583,54.0808 79.5,52.5C 80.5964,54.1032 81.9297,55.6032 83.5,57C 85.7116,57.7891 87.7116,57.6225 89.5,56.5C 92.833,54.8413 94.4997,52.1746 94.5,48.5C 96.0109,49.5025 97.6776,50.1692 99.5,50.5C 99.281,51.675 99.6143,52.675 100.5,53.5C 101.712,51.1595 101.378,48.9928 99.5,47C 100.167,46.6667 100.833,46.3333 101.5,46C 99.3069,43.9747 98.3069,41.4747 98.5,38.5C 100.167,38.5 101.833,38.5 103.5,38.5C 103.5,40.1667 103.5,41.8333 103.5,43.5C 110.984,43.9978 114.984,47.6645 115.5,54.5 Z"/></g>
<g><path style="opacity:1" fill="#696970" d="M 71.5,55.5 C 72.404,56.209 72.7373,57.209 72.5,58.5C 72.1583,59.3382 71.4916,59.6716 70.5,59.5C 71.2341,58.2921 71.5674,56.9587 71.5,55.5 Z"/></g>
<g><path style="opacity:1" fill="#696973" d="M 138.5,57.5 C 139.833,58.1667 140.833,59.1667 141.5,60.5C 140.391,60.4431 139.391,60.1098 138.5,59.5C 138.5,59.1667 138.5,58.8333 138.5,58.5C 138.5,58.1667 138.5,57.8333 138.5,57.5 Z"/></g>
<g><path style="opacity:1" fill="#5c5c62" d="M 151.5,57.5 C 151.5,59.5 150.5,60.5 148.5,60.5C 149.167,59.1667 150.167,58.1667 151.5,57.5 Z"/></g>
<g><path style="opacity:1" fill="#f4f4f5" d="M 104.5,49.5 C 108.647,50.7381 112.314,52.7381 115.5,55.5C 116.5,57.1667 117.833,58.5 119.5,59.5C 120.529,61.5168 121.529,63.5168 122.5,65.5C 122.427,67.0269 123.094,68.0269 124.5,68.5C 124.737,71.6473 125.57,74.6473 127,77.5C 127.499,83.1569 127.666,88.8236 127.5,94.5C 127.5,95.1667 127.5,95.8333 127.5,96.5C 126.076,98.5145 125.41,100.848 125.5,103.5C 122.647,109.36 118.98,114.693 114.5,119.5C 111.788,121.276 108.955,122.943 106,124.5C 105.228,124.355 104.561,124.022 104,123.5C 103.305,121.278 102.472,119.111 101.5,117C 105.603,114.066 109.27,110.566 112.5,106.5C 113.443,104.118 114.777,101.951 116.5,100C 117.233,98.2341 117.567,96.4008 117.5,94.5C 118.338,94.1583 118.672,93.4916 118.5,92.5C 119.647,88.3537 119.814,84.0204 119,79.5C 118.626,77.5087 117.793,75.842 116.5,74.5C 113.603,67.6038 108.936,62.2705 102.5,58.5C 103.461,55.5739 104.127,52.5739 104.5,49.5 Z"/></g>
<g><path style="opacity:1" fill="#7d7c85" d="M 18.5,64.5 C 19.4916,64.3284 20.1583,64.6618 20.5,65.5C 19.2223,65.7822 18.2223,66.4489 17.5,67.5C 17.5,67.1667 17.5,66.8333 17.5,66.5C 17.3284,65.5084 17.6618,64.8417 18.5,64.5 Z"/></g>
<g><path style="opacity:1" fill="#f5f6f7" d="M 20.5,65.5 C 22.8637,66.5574 24.8637,68.0574 26.5,70C 24.3366,78.9009 24.0033,87.7342 25.5,96.5C 25.5172,98.5648 25.8505,100.565 26.5,102.5C 26.4729,104.199 25.8062,105.533 24.5,106.5C 24.1583,107.338 23.4916,107.672 22.5,107.5C 21.0222,107.762 19.6888,107.429 18.5,106.5C 18.0057,104.974 17.339,103.641 16.5,102.5C 16.4828,100.435 16.1495,98.4352 15.5,96.5C 15.5012,88.4827 15.8345,80.4827 16.5,72.5C 16.2155,70.5853 16.5489,68.9187 17.5,67.5C 18.2223,66.4489 19.2223,65.7822 20.5,65.5 Z"/></g>
<g><path style="opacity:1" fill="#a5a4ac" d="M 122.5,65.5 C 123.906,65.9731 124.573,66.9731 124.5,68.5C 123.094,68.0269 122.427,67.0269 122.5,65.5 Z"/></g>
<g><path style="opacity:1" fill="#191727" d="M 152.5,55.5 C 155.173,55.6845 155.84,56.8511 154.5,59C 158.364,60.8706 160.198,64.0373 160,68.5C 160.75,69.1258 161.584,69.6258 162.5,70C 160.954,74.3122 160.287,78.8122 160.5,83.5C 160.667,86.8333 160.833,90.1667 161,93.5C 161.92,93.9302 162.753,94.2635 163.5,94.5C 163.192,95.3081 162.692,95.9747 162,96.5C 161.762,100.222 161.262,103.889 160.5,107.5C 159.139,107.788 157.806,108.121 156.5,108.5C 157.15,106.565 157.483,104.565 157.5,102.5C 158.265,99.9039 158.599,97.2372 158.5,94.5C 159.164,91.8541 159.498,89.0208 159.5,86C 159.595,80.9215 158.928,76.0882 157.5,71.5C 157.443,70.391 157.11,69.391 156.5,68.5C 156.5,67.5 156.5,66.5 156.5,65.5C 152.919,65.1376 149.919,66.1376 147.5,68.5C 146.355,70.9533 146.688,73.2866 148.5,75.5C 148.698,83.5341 148.365,91.5341 147.5,99.5C 147.38,101.199 147.046,102.865 146.5,104.5C 146.747,105.713 147.414,106.38 148.5,106.5C 150.509,108.065 152.843,109.065 155.5,109.5C 155.489,111.017 154.823,112.184 153.5,113C 155.891,113.691 155.891,114.691 153.5,116C 154.833,117 154.833,118 153.5,119C 157.524,120.674 161.191,122.841 164.5,125.5C 163.226,128.76 161.56,131.76 159.5,134.5C 159.265,133.903 158.765,133.57 158,133.5C 153.496,135.672 148.996,137.672 144.5,139.5C 143.256,136.31 142.256,132.977 141.5,129.5C 142.243,128.818 142.909,128.151 143.5,127.5C 146.01,127.946 148.01,127.28 149.5,125.5C 150.167,124.5 150.833,123.5 151.5,122.5C 152.147,121.726 152.48,120.726 152.5,119.5C 152.66,117.645 151.993,116.312 150.5,115.5C 149.5,114.833 148.5,114.167 147.5,113.5C 146.726,112.853 145.726,112.52 144.5,112.5C 142.645,112.34 141.312,113.007 140.5,114.5C 137.483,116.615 136.816,119.282 138.5,122.5C 138.5,123.167 138.5,123.833 138.5,124.5C 137.18,123.058 135.514,122.392 133.5,122.5C 132.431,119.74 131.431,116.907 130.5,114C 136.066,112.873 141.399,111.206 146.5,109C 146,108.5 145.5,108 145,107.5C 143.542,108.747 142.042,108.747 140.5,107.5C 137.134,110.117 134.134,109.617 131.5,106C 130.207,105.51 128.873,105.343 127.5,105.5C 127.672,104.508 127.338,103.842 126.5,103.5C 126.993,101.194 127.326,98.861 127.5,96.5C 127.5,95.8333 127.5,95.1667 127.5,94.5C 128.653,88.6812 128.819,82.6812 128,76.5C 127.295,73.5243 126.129,70.8577 124.5,68.5C 124.573,66.9731 123.906,65.9731 122.5,65.5C 121.529,63.5168 120.529,61.5168 119.5,59.5C 120.552,59.3505 121.552,59.5172 122.5,60C 122.167,60.3333 121.833,60.6667 121.5,61C 123.644,62.1461 125.477,63.6461 127,65.5C 131.076,63.8794 134.909,61.8794 138.5,59.5C 139.391,60.1098 140.391,60.4431 141.5,60.5C 143.726,61.7563 146.059,61.7563 148.5,60.5C 150.5,60.5 151.5,59.5 151.5,57.5C 151.833,56.8333 152.167,56.1667 152.5,55.5 Z"/></g>
<g><path style="opacity:1" fill="#f6f5f7" d="M 156.5,68.5 C 157.11,69.391 157.443,70.391 157.5,71.5C 158.143,79.1499 158.477,86.8166 158.5,94.5C 158.599,97.2372 158.265,99.9039 157.5,102.5C 156.4,104.277 155.566,106.277 155,108.5C 153.103,106.984 150.936,106.317 148.5,106.5C 147.414,106.38 146.747,105.713 146.5,104.5C 147.046,102.865 147.38,101.199 147.5,99.5C 148.268,98.7375 148.768,97.7375 149,96.5C 149.821,89.3209 149.655,82.3209 148.5,75.5C 148.326,73.139 147.993,70.8056 147.5,68.5C 149.679,67.9408 151.846,67.2741 154,66.5C 155.011,67.0556 155.844,67.7222 156.5,68.5 Z"/></g>
<g><path style="opacity:1" fill="#aeaeb6" d="M 156.5,68.5 C 155.844,67.7222 155.011,67.0556 154,66.5C 151.846,67.2741 149.679,67.9408 147.5,68.5C 149.919,66.1376 152.919,65.1376 156.5,65.5C 156.5,66.5 156.5,67.5 156.5,68.5 Z"/></g>
<g><path style="opacity:1" fill="#a6a5ac" d="M 124.5,68.5 C 126.129,70.8577 127.295,73.5243 128,76.5C 128.819,82.6812 128.653,88.6812 127.5,94.5C 127.666,88.8236 127.499,83.1569 127,77.5C 125.57,74.6473 124.737,71.6473 124.5,68.5 Z"/></g>
<g><path style="opacity:1" fill="#181726" d="M 79.5,79.5 C 77.6416,83.5269 76.9749,87.8602 77.5,92.5C 77.5,93.5 77.5,94.5 77.5,95.5C 72.7224,96.6619 68.3891,98.4952 64.5,101C 62,99.8333 60.1667,98 59,95.5C 59.0768,91.7711 58.9101,88.1044 58.5,84.5C 59.1316,80.8429 60.1316,77.3429 61.5,74C 60.0309,71.6928 60.3643,69.8594 62.5,68.5C 68.375,71.9927 74.0417,75.6594 79.5,79.5 Z"/></g>
<g><path style="opacity:1" fill="#89898e" d="M 147.5,68.5 C 147.993,70.8056 148.326,73.139 148.5,75.5C 146.688,73.2866 146.355,70.9533 147.5,68.5 Z"/></g>
<g><path style="opacity:1" fill="#201f2d" d="M 70.5,59.5 C 66.4297,62.6125 65.763,66.2791 68.5,70.5C 72.4639,72.1492 76.1306,74.3159 79.5,77C 80.7932,77.49 82.1266,77.6567 83.5,77.5C 83.5,77.8333 83.5,78.1667 83.5,78.5C 82.1667,78.8333 80.8333,79.1667 79.5,79.5C 74.0417,75.6594 68.375,71.9927 62.5,68.5C 60.3643,69.8594 60.0309,71.6928 61.5,74C 60.1316,77.3429 59.1316,80.8429 58.5,84.5C 58.9101,88.1044 59.0768,91.7711 59,95.5C 60.1667,98 62,99.8333 64.5,101C 68.3891,98.4952 72.7224,96.6619 77.5,95.5C 77.5,94.5 77.5,93.5 77.5,92.5C 79.8051,93.9894 82.1384,95.4894 84.5,97C 88.5868,96.5548 92.4202,95.0548 96,92.5C 96.4983,89.1832 96.665,85.8499 96.5,82.5C 97.3382,82.8417 97.6716,83.5084 97.5,84.5C 97.7592,88.2396 97.4259,91.9062 96.5,95.5C 92.0687,96.2982 88.0687,97.9648 84.5,100.5C 82.5247,97.6777 79.858,96.5111 76.5,97C 73.7102,99.4784 70.5435,101.312 67,102.5C 66.3645,103.966 65.5312,105.3 64.5,106.5C 65.7914,107.527 65.7914,108.527 64.5,109.5C 63.5,108.833 62.5,108.167 61.5,107.5C 60.4918,105.456 59.4918,103.456 58.5,101.5C 54.8908,92.6329 54.5575,83.6329 57.5,74.5C 60.0536,67.9471 64.387,62.9471 70.5,59.5 Z"/></g>
<g><path style="opacity:1" fill="#a5a3ab" d="M 88.5,77.5 C 86.7839,77.6287 85.1172,77.962 83.5,78.5C 83.5,78.1667 83.5,77.8333 83.5,77.5C 85.2837,76.2801 86.9504,76.2801 88.5,77.5 Z"/></g>
<g><path style="opacity:1" fill="#f2f2f3" d="M 88.5,77.5 C 91.5396,78.6803 94.2063,80.347 96.5,82.5C 96.665,85.8499 96.4983,89.1832 96,92.5C 92.4202,95.0548 88.5868,96.5548 84.5,97C 82.1384,95.4894 79.8051,93.9894 77.5,92.5C 76.9749,87.8602 77.6416,83.5269 79.5,79.5C 80.8333,79.1667 82.1667,78.8333 83.5,78.5C 85.1172,77.962 86.7839,77.6287 88.5,77.5 Z"/></g>
<g><path style="opacity:1" fill="#86848d" d="M 157.5,71.5 C 158.928,76.0882 159.595,80.9215 159.5,86C 159.498,89.0208 159.164,91.8541 158.5,94.5C 158.477,86.8166 158.143,79.1499 157.5,71.5 Z"/></g>
<g><path style="opacity:1" fill="#acacb1" d="M 48.5,70.5 C 46.7808,78.3806 46.1141,86.3806 46.5,94.5C 46.1667,94.5 45.8333,94.5 45.5,94.5C 45.3338,88.4908 45.5005,82.4908 46,76.5C 46.5662,74.2774 47.3995,72.2774 48.5,70.5 Z"/></g>
<g><path style="opacity:1" fill="#99999f" d="M 57.5,74.5 C 54.5575,83.6329 54.8908,92.6329 58.5,101.5C 56.5905,100.025 55.4238,98.0254 55,95.5C 54.3333,90.1667 54.3333,84.8333 55,79.5C 55.3736,77.5087 56.207,75.842 57.5,74.5 Z"/></g>
<g><path style="opacity:1" fill="#8d8c92" d="M 116.5,74.5 C 117.793,75.842 118.626,77.5087 119,79.5C 119.814,84.0204 119.647,88.3537 118.5,92.5C 118.822,86.3457 118.155,80.3457 116.5,74.5 Z"/></g>
<g><path style="opacity:1" fill="#7a7981" d="M 148.5,75.5 C 149.655,82.3209 149.821,89.3209 149,96.5C 148.768,97.7375 148.268,98.7375 147.5,99.5C 148.365,91.5341 148.698,83.5341 148.5,75.5 Z"/></g>
<g><path style="opacity:1" fill="#76767e" d="M 20.5,65.5 C 24.2664,65.0365 26.5998,66.5365 27.5,70C 25.8769,78.7577 25.2103,87.591 25.5,96.5C 24.0033,87.7342 24.3366,78.9009 26.5,70C 24.8637,68.0574 22.8637,66.5574 20.5,65.5 Z"/></g>
<g><path style="opacity:1" fill="#171626" d="M 117.5,94.5 C 117.567,96.4008 117.233,98.2341 116.5,100C 114.777,101.951 113.443,104.118 112.5,106.5C 111.198,105.643 109.865,105.143 108.5,105C 108.957,105.414 109.291,105.914 109.5,106.5C 106.95,110.113 103.617,112.78 99.5,114.5C 97.8967,115.899 96.5634,117.565 95.5,119.5C 94.8243,118.398 94.1577,117.398 93.5,116.5C 92.1667,116.5 90.8333,116.5 89.5,116.5C 87.8805,114.762 85.8805,114.262 83.5,115C 79.6237,117.838 76.7904,121.005 75,124.5C 74.3333,123.167 73.6667,123.167 73,124.5C 72.4867,123.473 71.9867,122.473 71.5,121.5C 71.8333,119.5 72.1667,117.5 72.5,115.5C 69.0105,114.687 66.3438,112.687 64.5,109.5C 65.7914,108.527 65.7914,107.527 64.5,106.5C 65.5312,105.3 66.3645,103.966 67,102.5C 70.5435,101.312 73.7102,99.4784 76.5,97C 79.858,96.5111 82.5247,97.6777 84.5,100.5C 88.0687,97.9648 92.0687,96.2982 96.5,95.5C 97.4259,91.9062 97.7592,88.2396 97.5,84.5C 102.339,82.8303 106.839,80.497 111,77.5C 112.806,79.3063 114.64,81.1396 116.5,83C 113.964,87.0436 114.298,90.8769 117.5,94.5 Z"/></g>
<g><path style="opacity:1" fill="#63636c" d="M 45.5,94.5 C 45.8333,94.5 46.1667,94.5 46.5,94.5C 47.3012,98.2347 48.3012,101.901 49.5,105.5C 47.0103,102.374 45.677,98.7076 45.5,94.5 Z"/></g>
<g><path style="opacity:1" fill="#85848d" d="M 127.5,96.5 C 127.326,98.861 126.993,101.194 126.5,103.5C 126.167,103.5 125.833,103.5 125.5,103.5C 125.41,100.848 126.076,98.5145 127.5,96.5 Z"/></g>
<g><path style="opacity:1" fill="#bababd" d="M 58.5,101.5 C 59.4918,103.456 60.4918,105.456 61.5,107.5C 59.0246,106.313 58.0246,104.313 58.5,101.5 Z"/></g>
<g><path style="opacity:1" fill="#98979d" d="M 157.5,102.5 C 157.483,104.565 157.15,106.565 156.5,108.5C 156.5,109.167 156.167,109.5 155.5,109.5C 152.843,109.065 150.509,108.065 148.5,106.5C 150.936,106.317 153.103,106.984 155,108.5C 155.566,106.277 156.4,104.277 157.5,102.5 Z"/></g>
<g><path style="opacity:1" fill="#242330" d="M 125.5,103.5 C 125.833,103.5 126.167,103.5 126.5,103.5C 127.338,103.842 127.672,104.508 127.5,105.5C 126.165,109.296 125.331,113.296 125,117.5C 122.812,118.447 120.478,118.447 118,117.5C 117.184,118.823 116.017,119.489 114.5,119.5C 118.98,114.693 122.647,109.36 125.5,103.5 Z"/></g>
<g><path style="opacity:1" fill="#191828" d="M 112.5,106.5 C 109.27,110.566 105.603,114.066 101.5,117C 102.472,119.111 103.305,121.278 104,123.5C 104.561,124.022 105.228,124.355 106,124.5C 108.955,122.943 111.788,121.276 114.5,119.5C 116.017,119.489 117.184,118.823 118,117.5C 120.478,118.447 122.812,118.447 125,117.5C 125.331,113.296 126.165,109.296 127.5,105.5C 128.873,105.343 130.207,105.51 131.5,106C 134.134,109.617 137.134,110.117 140.5,107.5C 142.042,108.747 143.542,108.747 145,107.5C 145.5,108 146,108.5 146.5,109C 141.399,111.206 136.066,112.873 130.5,114C 131.431,116.907 132.431,119.74 133.5,122.5C 135.514,122.392 137.18,123.058 138.5,124.5C 139.5,125.167 140.5,125.833 141.5,126.5C 141.842,127.338 142.508,127.672 143.5,127.5C 142.909,128.151 142.243,128.818 141.5,129.5C 142.256,132.977 143.256,136.31 144.5,139.5C 148.996,137.672 153.496,135.672 158,133.5C 158.765,133.57 159.265,133.903 159.5,134.5C 159.167,135.5 158.5,136.167 157.5,136.5C 149.537,140.772 141.537,145.105 133.5,149.5C 133.167,149.333 132.833,149.167 132.5,149C 135.128,147.374 137.461,145.374 139.5,143C 137.953,142.667 136.62,143.167 135.5,144.5C 134.808,143.975 134.308,143.308 134,142.5C 133.184,143.823 132.017,144.489 130.5,144.5C 133.984,141.848 136.984,138.682 139.5,135C 137.635,132.802 135.469,130.968 133,129.5C 126.519,135.317 119.353,139.984 111.5,143.5C 107.89,144.703 104.223,145.703 100.5,146.5C 100.216,148.415 100.549,150.081 101.5,151.5C 101.5,152.167 101.5,152.833 101.5,153.5C 101.5,154.833 101.5,156.167 101.5,157.5C 102.791,157.737 103.791,157.404 104.5,156.5C 105.791,156.737 106.791,156.404 107.5,155.5C 109.898,155.741 111.898,155.074 113.5,153.5C 115.292,153.634 116.958,153.301 118.5,152.5C 119.091,153.151 119.757,153.818 120.5,154.5C 111.892,160.302 102.892,165.302 93.5,169.5C 86.0287,166.24 79.0287,162.24 72.5,157.5C 72.5,155.833 72.5,154.167 72.5,152.5C 73.4614,150.735 73.7947,148.735 73.5,146.5C 71.1944,146.007 68.861,145.674 66.5,145.5C 65.8333,145.5 65.5,145.167 65.5,144.5C 63.5073,142.837 61.1739,141.67 58.5,141C 57.1667,140.333 57.1667,139.667 58.5,139C 57.5838,138.626 56.7504,138.126 56,137.5C 54.5861,138.413 53.0861,138.413 51.5,137.5C 47.8656,135.035 44.3656,132.368 41,129.5C 35.3356,130.891 33.8356,133.891 36.5,138.5C 35.1779,138.33 34.0113,138.663 33,139.5C 31.9535,136.501 29.7868,135.001 26.5,135C 24.8178,132.782 22.8178,130.949 20.5,129.5C 18.0476,131.393 15.3809,132.726 12.5,133.5C 9.63943,129.112 7.3061,124.446 5.5,119.5C 6.60895,119.557 7.60895,119.89 8.5,120.5C 12.3692,122.689 16.2026,125.022 20,127.5C 22.1566,126.615 22.9899,124.948 22.5,122.5C 23.3382,122.842 23.6716,123.508 23.5,124.5C 23.9731,125.906 24.9731,126.573 26.5,126.5C 28.3888,127.742 30.3888,127.742 32.5,126.5C 34.9118,126.306 35.9118,124.973 35.5,122.5C 36.3382,122.158 36.6716,121.492 36.5,120.5C 40.3483,117.473 44.515,115.806 49,115.5C 49.9147,116.328 50.5814,117.328 51,118.5C 53.0408,117.577 55.2075,117.244 57.5,117.5C 61.1523,121.165 65.4857,123.498 70.5,124.5C 70.2627,123.209 70.596,122.209 71.5,121.5C 71.9867,122.473 72.4867,123.473 73,124.5C 73.6667,123.167 74.3333,123.167 75,124.5C 76.7904,121.005 79.6237,117.838 83.5,115C 85.8805,114.262 87.8805,114.762 89.5,116.5C 87.5853,116.216 85.9187,116.549 84.5,117.5C 82.1667,117.833 80.8333,119.167 80.5,121.5C 79.8476,122.449 79.5143,123.615 79.5,125C 79.3068,127.008 79.9735,128.508 81.5,129.5C 86.5468,132.736 90.7135,131.736 94,126.5C 94.6776,124.402 94.5109,122.402 93.5,120.5C 93.5,119.167 93.5,117.833 93.5,116.5C 94.1577,117.398 94.8243,118.398 95.5,119.5C 96.5634,117.565 97.8967,115.899 99.5,114.5C 103.617,112.78 106.95,110.113 109.5,106.5C 109.291,105.914 108.957,105.414 108.5,105C 109.865,105.143 111.198,105.643 112.5,106.5 Z"/></g>
<g><path style="opacity:1" fill="#8b8b94" d="M 147.5,113.5 C 145.097,113.448 142.764,113.781 140.5,114.5C 141.312,113.007 142.645,112.34 144.5,112.5C 145.726,112.52 146.726,112.853 147.5,113.5 Z"/></g>
<g><path style="opacity:1" fill="#f0eff2" d="M 35.5,116.5 C 36.4345,117.568 36.7678,118.901 36.5,120.5C 36.6716,121.492 36.3382,122.158 35.5,122.5C 34.5116,123.795 33.5116,125.128 32.5,126.5C 30.3888,127.742 28.3888,127.742 26.5,126.5C 26.0269,125.094 25.0269,124.427 23.5,124.5C 23.6716,123.508 23.3382,122.842 22.5,122.5C 23.5455,113.169 27.8789,111.169 35.5,116.5 Z"/></g>
<g><path style="opacity:1" fill="#f8f9f9" d="M 147.5,113.5 C 148.5,114.167 149.5,114.833 150.5,115.5C 151.219,117.764 151.552,120.097 151.5,122.5C 150.833,123.5 150.167,124.5 149.5,125.5C 147.236,126.219 144.903,126.552 142.5,126.5C 141.833,124.5 140.5,123.167 138.5,122.5C 138.287,119.549 138.954,116.882 140.5,114.5C 142.764,113.781 145.097,113.448 147.5,113.5 Z"/></g>
<g><path style="opacity:1" fill="#191827" d="M 22.5,49.5 C 21.2329,52.272 21.2329,54.9387 22.5,57.5C 22.427,59.0269 23.0937,60.0269 24.5,60.5C 26.7375,61.5366 29.0709,61.7033 31.5,61C 33.0375,59.2927 34.7041,57.7927 36.5,56.5C 36.9443,58.1132 37.9443,59.2798 39.5,60C 39.3819,63.0299 39.2152,66.1965 39,69.5C 37.9827,71.3759 37.1494,73.3759 36.5,75.5C 35.8081,72.8549 34.8081,70.3549 33.5,68C 34.4506,67.2825 34.6172,66.4491 34,65.5C 30.0756,66.6343 29.5756,68.801 32.5,72C 31.5399,73.4194 30.7065,74.9194 30,76.5C 29.3333,84.5 29.3333,92.5 30,100.5C 30.414,100.043 30.914,99.7093 31.5,99.5C 32.4973,92.1968 32.8306,84.8635 32.5,77.5C 33.5,77.5 34.5,77.5 35.5,77.5C 35.3305,84.5236 35.1639,91.5236 35,98.5C 36.2271,102.378 38.0605,105.878 40.5,109C 37.7326,109.669 37.2326,110.836 39,112.5C 41.7047,111.061 44.538,110.061 47.5,109.5C 45.5652,104.621 43.8986,99.621 42.5,94.5C 42.9775,87.162 42.9775,79.9953 42.5,73C 44.2615,70.313 45.5948,67.4797 46.5,64.5C 48.1388,64.0742 49.4721,64.0742 50.5,64.5C 49.8333,66.5 49.1667,68.5 48.5,70.5C 47.3995,72.2774 46.5662,74.2774 46,76.5C 45.5005,82.4908 45.3338,88.4908 45.5,94.5C 45.677,98.7076 47.0103,102.374 49.5,105.5C 51.7485,109.754 54.4152,113.754 57.5,117.5C 55.2075,117.244 53.0408,117.577 51,118.5C 50.5814,117.328 49.9147,116.328 49,115.5C 44.515,115.806 40.3483,117.473 36.5,120.5C 36.7678,118.901 36.4345,117.568 35.5,116.5C 35.4894,114.983 34.8228,113.816 33.5,113C 28.788,111.557 24.9547,112.723 22,116.5C 21.2109,118.712 21.3775,120.712 22.5,122.5C 22.9899,124.948 22.1566,126.615 20,127.5C 16.2026,125.022 12.3692,122.689 8.5,120.5C 11.0933,118.088 14.0933,116.255 17.5,115C 16.8921,114.13 16.0588,113.63 15,113.5C 12.674,116.223 11.174,115.723 10.5,112C 13.1617,105.052 13.1617,97.7183 10.5,90C 10.5,85.6667 10.5,81.3333 10.5,77C 11.9556,73.6005 12.9556,70.1005 13.5,66.5C 14.8333,66.5 16.1667,66.5 17.5,66.5C 17.5,66.8333 17.5,67.1667 17.5,67.5C 16.5489,68.9187 16.2155,70.5853 16.5,72.5C 14.9669,76.8962 14.3002,81.5629 14.5,86.5C 14.5016,90.0175 14.8349,93.3509 15.5,96.5C 16.1495,98.4352 16.4828,100.435 16.5,102.5C 16.0325,105.38 16.8659,107.713 19,109.5C 20.4595,109.192 21.6261,108.525 22.5,107.5C 23.4916,107.672 24.1583,107.338 24.5,106.5C 25.5,106.5 26.5,106.5 27.5,106.5C 27.7678,104.901 27.4345,103.568 26.5,102.5C 25.8505,100.565 25.5172,98.5648 25.5,96.5C 25.2103,87.591 25.8769,78.7577 27.5,70C 26.5998,66.5365 24.2664,65.0365 20.5,65.5C 20.1583,64.6618 19.4916,64.3284 18.5,64.5C 18.9234,63.7354 19.2568,62.9021 19.5,62C 18.3406,58.5487 17.8406,55.0487 18,51.5C 18.3333,51.8333 18.6667,52.1667 19,52.5C 19.4224,50.5743 20.5891,49.5743 22.5,49.5 Z"/></g>
<g><path style="opacity:1" fill="#8d8d95" d="M 16.5,102.5 C 17.339,103.641 18.0057,104.974 18.5,106.5C 19.6888,107.429 21.0222,107.762 22.5,107.5C 21.6261,108.525 20.4595,109.192 19,109.5C 16.8659,107.713 16.0325,105.38 16.5,102.5 Z"/></g>
<g><path style="opacity:1" fill="#91919b" d="M 26.5,102.5 C 27.4345,103.568 27.7678,104.901 27.5,106.5C 26.5,106.5 25.5,106.5 24.5,106.5C 25.8062,105.533 26.4729,104.199 26.5,102.5 Z"/></g>
<g><path style="opacity:1" fill="#808086" d="M 16.5,72.5 C 15.8345,80.4827 15.5012,88.4827 15.5,96.5C 14.8349,93.3509 14.5016,90.0175 14.5,86.5C 14.3002,81.5629 14.9669,76.8962 16.5,72.5 Z"/></g>
<g><path style="opacity:1" fill="#5c5b64" d="M 22.5,57.5 C 23.9063,57.9731 24.573,58.9731 24.5,60.5C 23.0937,60.0269 22.427,59.0269 22.5,57.5 Z"/></g>
<g><path style="opacity:1" fill="#3f3e4b" d="M 84.5,117.5 C 85.9187,116.549 87.5853,116.216 89.5,116.5C 90.8333,116.5 92.1667,116.5 93.5,116.5C 93.5,117.833 93.5,119.167 93.5,120.5C 91.0034,118.129 88.0034,117.129 84.5,117.5 Z"/></g>
<g><path style="opacity:1" fill="#a5a5ac" d="M 84.5,117.5 C 83.5,119.167 82.1667,120.5 80.5,121.5C 80.8333,119.167 82.1667,117.833 84.5,117.5 Z"/></g>
<g><path style="opacity:1" fill="#eeeff1" d="M 84.5,117.5 C 88.0034,117.129 91.0034,118.129 93.5,120.5C 94.5109,122.402 94.6776,124.402 94,126.5C 90.7135,131.736 86.5468,132.736 81.5,129.5C 80.7347,126.904 80.4013,124.237 80.5,121.5C 82.1667,120.5 83.5,119.167 84.5,117.5 Z"/></g>
<g><path style="opacity:1" fill="#8a8a91" d="M 140.5,114.5 C 138.954,116.882 138.287,119.549 138.5,122.5C 136.816,119.282 137.483,116.615 140.5,114.5 Z"/></g>
<g><path style="opacity:1" fill="#86848e" d="M 35.5,116.5 C 27.8789,111.169 23.5455,113.169 22.5,122.5C 21.3775,120.712 21.2109,118.712 22,116.5C 24.9547,112.723 28.788,111.557 33.5,113C 34.8228,113.816 35.4894,114.983 35.5,116.5 Z"/></g>
<g><path style="opacity:1" fill="#86868d" d="M 150.5,115.5 C 151.993,116.312 152.66,117.645 152.5,119.5C 152.48,120.726 152.147,121.726 151.5,122.5C 151.552,120.097 151.219,117.764 150.5,115.5 Z"/></g>
<g><path style="opacity:1" fill="#bdbdc3" d="M 138.5,122.5 C 140.5,123.167 141.833,124.5 142.5,126.5C 142.167,126.5 141.833,126.5 141.5,126.5C 140.5,125.833 139.5,125.167 138.5,124.5C 138.5,123.833 138.5,123.167 138.5,122.5 Z"/></g>
<g><path style="opacity:1" fill="#a5a4ad" d="M 23.5,124.5 C 25.0269,124.427 26.0269,125.094 26.5,126.5C 24.9731,126.573 23.9731,125.906 23.5,124.5 Z"/></g>
<g><path style="opacity:1" fill="#5c5c65" d="M 35.5,122.5 C 35.9118,124.973 34.9118,126.306 32.5,126.5C 33.5116,125.128 34.5116,123.795 35.5,122.5 Z"/></g>
<g><path style="opacity:1" fill="#676672" d="M 149.5,125.5 C 148.01,127.28 146.01,127.946 143.5,127.5C 142.508,127.672 141.842,127.338 141.5,126.5C 141.833,126.5 142.167,126.5 142.5,126.5C 144.903,126.552 147.236,126.219 149.5,125.5 Z"/></g>
<g><path style="opacity:1" fill="#5d5d69" d="M 80.5,121.5 C 80.4013,124.237 80.7347,126.904 81.5,129.5C 79.9735,128.508 79.3068,127.008 79.5,125C 79.5143,123.615 79.8476,122.449 80.5,121.5 Z"/></g>
<g><path style="opacity:1" fill="#f2f3f4" d="M 51.5,137.5 C 55.3172,141.409 59.9838,143.742 65.5,144.5C 65.5,145.167 65.8333,145.5 66.5,145.5C 68.2143,146.738 70.2143,147.405 72.5,147.5C 72.5,149.167 72.5,150.833 72.5,152.5C 71.8386,153.718 71.1719,155.051 70.5,156.5C 67.9795,155.215 65.3128,154.548 62.5,154.5C 60.8243,152.166 58.491,151.166 55.5,151.5C 55.0269,150.094 54.0269,149.427 52.5,149.5C 46.635,146.64 41.3016,142.973 36.5,138.5C 33.8356,133.891 35.3356,130.891 41,129.5C 44.3656,132.368 47.8656,135.035 51.5,137.5 Z"/></g>
<g><path style="opacity:1" fill="#f1f1f2" d="M 130.5,144.5 C 128.223,145.449 126.223,146.782 124.5,148.5C 122.181,148.992 120.181,149.992 118.5,151.5C 116.597,151.796 114.93,152.463 113.5,153.5C 111.214,153.595 109.214,154.262 107.5,155.5C 106.791,156.404 105.791,156.737 104.5,156.5C 103.1,155.9 102.1,154.9 101.5,153.5C 101.5,152.833 101.5,152.167 101.5,151.5C 101.5,150.167 101.5,148.833 101.5,147.5C 105.332,147.118 108.665,145.785 111.5,143.5C 119.353,139.984 126.519,135.317 133,129.5C 135.469,130.968 137.635,132.802 139.5,135C 136.984,138.682 133.984,141.848 130.5,144.5 Z"/></g>
<g><path style="opacity:0.966" fill="#171626" d="M 36.5,138.5 C 41.3016,142.973 46.635,146.64 52.5,149.5C 52.9731,150.906 53.9731,151.573 55.5,151.5C 57.5093,153.065 59.8427,154.065 62.5,154.5C 64.936,155.871 67.6027,156.871 70.5,157.5C 71.7158,159.451 73.3825,160.951 75.5,162C 81.0665,164.943 86.3998,168.11 91.5,171.5C 90.3984,172.176 89.3984,172.842 88.5,173.5C 83.5,173.5 78.5,173.5 73.5,173.5C 47.4242,168.96 27.0909,155.626 12.5,133.5C 15.3809,132.726 18.0476,131.393 20.5,129.5C 22.8178,130.949 24.8178,132.782 26.5,135C 29.7868,135.001 31.9535,136.501 33,139.5C 34.0113,138.663 35.1779,138.33 36.5,138.5 Z"/></g>
<g><path style="opacity:1" fill="#484754" d="M 51.5,137.5 C 53.0861,138.413 54.5861,138.413 56,137.5C 56.7504,138.126 57.5838,138.626 58.5,139C 57.1667,139.667 57.1667,140.333 58.5,141C 61.1739,141.67 63.5073,142.837 65.5,144.5C 59.9838,143.742 55.3172,141.409 51.5,137.5 Z"/></g>
<g><path style="opacity:1" fill="#7a7a84" d="M 66.5,145.5 C 68.861,145.674 71.1944,146.007 73.5,146.5C 73.7947,148.735 73.4614,150.735 72.5,152.5C 72.5,150.833 72.5,149.167 72.5,147.5C 70.2143,147.405 68.2143,146.738 66.5,145.5 Z"/></g>
<g><path style="opacity:1" fill="#ebeced" d="M 89.5,145.5 C 96.048,149.809 96.048,154.309 89.5,159C 85.1527,160.077 81.986,158.577 80,154.5C 79.2204,152.613 79.3871,150.946 80.5,149.5C 81.9616,148.542 83.2949,147.376 84.5,146C 86.1341,145.506 87.8008,145.34 89.5,145.5 Z"/></g>
<g><path style="opacity:1" fill="#908e97" d="M 111.5,143.5 C 108.665,145.785 105.332,147.118 101.5,147.5C 101.5,148.833 101.5,150.167 101.5,151.5C 100.549,150.081 100.216,148.415 100.5,146.5C 104.223,145.703 107.89,144.703 111.5,143.5 Z"/></g>
<g><path style="opacity:1" fill="#a0a0a8" d="M 89.5,145.5 C 87.8008,145.34 86.1341,145.506 84.5,146C 83.2949,147.376 81.9616,148.542 80.5,149.5C 82.0673,144.751 85.0673,143.417 89.5,145.5 Z"/></g>
<g><path style="opacity:1" fill="#939199" d="M 52.5,149.5 C 54.0269,149.427 55.0269,150.094 55.5,151.5C 53.9731,151.573 52.9731,150.906 52.5,149.5 Z"/></g>
<g><path style="opacity:1" fill="#a8a6b0" d="M 55.5,151.5 C 58.491,151.166 60.8243,152.166 62.5,154.5C 59.8427,154.065 57.5093,153.065 55.5,151.5 Z"/></g>
<g><path style="opacity:1" fill="#5a5766" d="M 118.5,151.5 C 118.5,151.833 118.5,152.167 118.5,152.5C 116.958,153.301 115.292,153.634 113.5,153.5C 114.93,152.463 116.597,151.796 118.5,151.5 Z"/></g>
<g><path style="opacity:1" fill="#7f7f84" d="M 113.5,153.5 C 111.898,155.074 109.898,155.741 107.5,155.5C 109.214,154.262 111.214,153.595 113.5,153.5 Z"/></g>
<g><path style="opacity:0.942" fill="#171626" d="M 157.5,136.5 C 143.648,157.104 124.315,169.104 99.5,172.5C 98.325,172.719 97.325,172.386 96.5,171.5C 107.39,164.769 118.39,158.269 129.5,152C 130.167,151.333 130.833,150.667 131.5,150C 129.51,150.138 127.51,150.638 125.5,151.5C 123.197,151.124 122.863,150.124 124.5,148.5C 126.223,146.782 128.223,145.449 130.5,144.5C 132.017,144.489 133.184,143.823 134,142.5C 134.308,143.308 134.808,143.975 135.5,144.5C 136.62,143.167 137.953,142.667 139.5,143C 137.461,145.374 135.128,147.374 132.5,149C 132.833,149.167 133.167,149.333 133.5,149.5C 141.537,145.105 149.537,140.772 157.5,136.5 Z"/></g>
<g><path style="opacity:1" fill="#84838d" d="M 72.5,152.5 C 72.5,154.167 72.5,155.833 72.5,157.5C 71.8333,157.5 71.1667,157.5 70.5,157.5C 67.6027,156.871 64.936,155.871 62.5,154.5C 65.3128,154.548 67.9795,155.215 70.5,156.5C 71.1719,155.051 71.8386,153.718 72.5,152.5 Z"/></g>
<g><path style="opacity:1" fill="#73727e" d="M 101.5,153.5 C 102.1,154.9 103.1,155.9 104.5,156.5C 103.791,157.404 102.791,157.737 101.5,157.5C 101.5,156.167 101.5,154.833 101.5,153.5 Z"/></g>
<g><path style="opacity:1" fill="#232233" d="M 124.5,148.5 C 122.863,150.124 123.197,151.124 125.5,151.5C 127.51,150.638 129.51,150.138 131.5,150C 130.833,150.667 130.167,151.333 129.5,152C 118.39,158.269 107.39,164.769 96.5,171.5C 97.325,172.386 98.325,172.719 99.5,172.5C 99.5,172.833 99.5,173.167 99.5,173.5C 95.8333,173.5 92.1667,173.5 88.5,173.5C 89.3984,172.842 90.3984,172.176 91.5,171.5C 86.3998,168.11 81.0665,164.943 75.5,162C 73.3825,160.951 71.7158,159.451 70.5,157.5C 71.1667,157.5 71.8333,157.5 72.5,157.5C 79.0287,162.24 86.0287,166.24 93.5,169.5C 102.892,165.302 111.892,160.302 120.5,154.5C 119.757,153.818 119.091,153.151 118.5,152.5C 118.5,152.167 118.5,151.833 118.5,151.5C 120.181,149.992 122.181,148.992 124.5,148.5 Z"/></g>
</svg>
