<?xml version="1.0" encoding="UTF-8"?>
<svg version="1.1" xmlns="http://www.w3.org/2000/svg" width="512" height="512">
<path d="M0 0 C1.01201477 0.00054382 2.02402954 0.00108765 3.06671143 0.00164795 C19.59887291 0.04238923 35.523992 0.95817716 51.75 4.375 C52.78125 4.58930664 53.8125 4.80361328 54.875 5.02441406 C101.93507246 15.12762337 144.01795581 38.29540549 178.75 71.375 C179.648396 72.23037354 179.648396 72.23037354 180.56494141 73.10302734 C188.90810078 81.10600112 196.55345187 89.32479841 203.43945312 98.61572266 C204.76797091 100.39912413 206.12360037 102.15909516 207.484375 103.91796875 C240.57211779 147.19554439 257.23462099 201.50434221 257.125 255.625 C257.12418427 257.14302216 257.12418427 257.14302216 257.12335205 258.69171143 C257.08261077 275.22387291 256.16682284 291.148992 252.75 307.375 C252.42854004 308.921875 252.42854004 308.921875 252.10058594 310.5 C244.18431392 347.37346499 228.11800388 382.72468894 204.75 412.375 C203.96882813 413.36757813 203.18765625 414.36015625 202.3828125 415.3828125 C189.42755877 431.47601696 175.1502392 446.7824836 158.49316406 459.08056641 C156.71515129 460.40087785 154.96246329 461.7502701 153.2109375 463.10546875 C109.93827334 496.19907622 55.61860109 512.85961682 1.5 512.75 C-0.01802216 512.74918427 -0.01802216 512.74918427 -1.56671143 512.74835205 C-18.09887291 512.70761077 -34.023992 511.79182284 -50.25 508.375 C-51.796875 508.05354004 -51.796875 508.05354004 -53.375 507.72558594 C-90.24846499 499.80931392 -125.59968894 483.74300388 -155.25 460.375 C-156.24257812 459.59382813 -157.23515625 458.81265625 -158.2578125 458.0078125 C-173.89473507 445.41987204 -189.10625809 431.41810858 -201.25 415.375 C-201.87285889 414.56675781 -201.87285889 414.56675781 -202.50830078 413.7421875 C-225.4100447 383.95238717 -241.93112749 349.48870218 -250.0625 312.75 C-250.33646606 311.52071777 -250.33646606 311.52071777 -250.6159668 310.26660156 C-254.28971864 292.50362958 -255.80583312 274.86333847 -255.6875 256.75 C-255.68445862 255.75297058 -255.68141724 254.75594116 -255.67828369 253.72869873 C-255.60464151 237.32351292 -254.6400833 221.47402572 -251.25 205.375 C-251.03569336 204.34375 -250.82138672 203.3125 -250.60058594 202.25 C-242.68431392 165.37653501 -226.61800388 130.02531106 -203.25 100.375 C-202.46882813 99.38242188 -201.68765625 98.38984375 -200.8828125 97.3671875 C-187.92755877 81.27398304 -173.6502392 65.9675164 -156.99316406 53.66943359 C-155.21515129 52.34912215 -153.46246329 50.9997299 -151.7109375 49.64453125 C-108.43827334 16.55092378 -54.11860109 -0.10961682 0 0 Z " fill="#000000" transform="translate(255.25,-0.375)"/>
<path d="M0 0 C5.26305436 2.24552696 8.9020753 6.7193386 12.22204018 11.22555542 C15.26032077 15.30611612 18.57446988 17.99455818 22.65954018 20.97555542 C25.67852592 23.47700075 27.73519818 26.44960528 30.03454018 29.60055542 C31.95485774 31.91818007 33.92021724 33.51713058 36.34704018 35.28805542 C40.4342344 38.27060256 43.06987741 41.5378694 46.03454018 45.60055542 C47.95485774 47.91818007 49.92021724 49.51713058 52.34704018 51.28805542 C56.4342344 54.27060256 59.06987741 57.5378694 62.03454018 61.60055542 C63.95485774 63.91818007 65.92021724 65.51713058 68.34704018 67.28805542 C72.4342344 70.27060256 75.06987741 73.5378694 78.03454018 77.60055542 C79.95485774 79.91818007 81.92021724 81.51713058 84.34704018 83.28805542 C88.43930042 86.27748621 91.16349974 89.56088887 94.14000893 93.63180542 C96.68763241 96.84985614 99.64256802 99.23755717 102.84704018 101.78805542 C102.26519163 105.31543813 101.0414046 106.96137233 98.52062416 109.45504761 C97.81997337 110.1554718 97.11932259 110.855896 96.39743996 111.57754517 C95.63701897 112.3224823 94.87659798 113.06741943 94.09313393 113.83493042 C93.3176873 114.6061322 92.54224068 115.37733398 91.74329567 116.17190552 C89.26399076 118.63441252 86.77446026 121.08628676 84.28454018 123.53805542 C82.60221578 125.20533451 80.92056651 126.87329511 79.2396183 128.54196167 C75.11656143 132.63193444 70.98505959 136.71322463 66.84704018 140.78805542 C62.58088514 138.74738559 60.11305494 136.2025254 56.84704018 132.78805542 C58.28781064 129.42625768 60.09454038 127.19649274 62.84704018 124.78805542 C63.50704018 124.78805542 64.16704018 124.78805542 64.84704018 124.78805542 C65.17704018 123.46805542 65.50704018 122.14805542 65.84704018 120.78805542 C66.50704018 120.78805542 67.16704018 120.78805542 67.84704018 120.78805542 C68.17704018 119.79805542 68.50704018 118.80805542 68.84704018 117.78805542 C69.50704018 117.78805542 70.16704018 117.78805542 70.84704018 117.78805542 C71.18735268 116.92180542 71.18735268 116.92180542 71.53454018 116.03805542 C73.18487496 113.20891008 75.27962594 111.80530946 77.84704018 109.78805542 C78.56891518 108.88055542 79.29079018 107.97305542 80.03454018 107.03805542 C80.63266518 106.29555542 81.23079018 105.55305542 81.84704018 104.78805542 C82.50704018 104.78805542 83.16704018 104.78805542 83.84704018 104.78805542 C81.21018505 99.62471035 77.2778469 95.91614975 73.22619057 91.86080933 C72.06474274 90.68687622 72.06474274 90.68687622 70.87983131 89.48922729 C68.32355829 86.90889338 65.75972024 84.33625138 63.19469643 81.76461792 C61.41486927 79.97582591 59.63512079 78.18695562 57.85544777 76.39801025 C54.12760814 72.65369185 50.39541625 68.91375677 46.66076088 65.17623901 C42.34139365 60.85322686 38.03536791 56.51722623 33.73512465 52.1751982 C29.59569598 47.99696219 25.44260664 43.83249376 21.28429413 39.67304611 C19.51668913 37.90122189 17.75322543 36.12525653 15.99393845 34.34517288 C13.53998127 31.86451357 11.07089318 29.39997604 8.59728432 26.93893433 C7.86831947 26.19513519 7.13935463 25.45133606 6.38829994 24.68499756 C5.37685669 23.68819977 5.37685669 23.68819977 4.34498024 22.67126465 C3.76261636 22.08688944 3.18025248 21.50251423 2.5802412 20.90043068 C0.90916709 19.58714036 0.90916709 19.58714036 -1.1489048 19.90982914 C-3.50901751 20.94408867 -4.88751857 22.13966352 -6.71578026 23.95646667 C-7.40427055 24.63360718 -8.09276085 25.31074768 -8.80211449 26.00840759 C-9.91901413 27.12970314 -9.91901413 27.12970314 -11.0584774 28.27365112 C-11.85070702 29.05741119 -12.64293663 29.84117126 -13.4591732 30.64868164 C-16.07984196 33.24591887 -18.68912773 35.85424537 -21.29749107 38.46383667 C-23.10991342 40.26916253 -24.92263607 42.07418695 -26.7356472 43.87892151 C-30.53451374 47.66432997 -34.32746145 51.45554824 -38.11658287 55.2507019 C-42.50003213 59.64080053 -46.8980512 64.01590985 -51.30330926 68.38411456 C-55.53885031 72.5853144 -59.76050442 76.80027112 -63.9768486 81.02074242 C-65.77392451 82.81611953 -67.57501094 84.60749128 -69.38008118 86.3948307 C-71.8968915 88.88962379 -74.39745817 91.39963438 -76.8944149 93.91427612 C-77.64913582 94.6557338 -78.40385674 95.39719147 -79.18144798 96.16111755 C-79.85583916 96.84671753 -80.53023033 97.5323175 -81.2250576 98.23869324 C-81.81810597 98.8310291 -82.41115435 99.42336496 -83.02217388 100.0336504 C-84.35444893 101.72145988 -84.35444893 101.72145988 -84.03439999 103.78805542 C-82.99585154 106.1445363 -81.79950317 107.51624961 -79.97781944 109.3374176 C-79.29923378 110.02301758 -78.62064812 110.70861755 -77.92149925 111.41499329 C-77.17239784 112.15645096 -76.42329643 112.89790863 -75.65149498 113.66183472 C-74.86612862 114.45085175 -74.08076225 115.23986877 -73.27159691 116.05279541 C-70.66909221 118.66341762 -68.05586738 121.26301008 -65.44202232 123.86227417 C-63.63408743 125.66969063 -61.82667013 127.47762498 -60.0197506 129.28605652 C-56.22966131 133.07605603 -52.43461965 136.8609941 -48.6353817 140.64181519 C-44.24207218 145.0139498 -39.8576652 149.39485595 -35.47805178 153.78070706 C-31.26520119 157.99925056 -27.04664993 162.21205387 -22.82539558 166.42218971 C-21.02905656 168.21467148 -19.23407379 170.00851345 -17.44045448 171.80371666 C-14.93627006 174.30827067 -12.42570683 176.80624454 -9.91321373 179.30245972 C-8.79563431 180.42375526 -8.79563431 180.42375526 -7.65547752 181.56770325 C-6.97125221 182.24484375 -6.2870269 182.92198425 -5.58206749 183.61964417 C-4.98880983 184.21084895 -4.39555218 184.80205374 -3.78431702 185.41117382 C-2.087727 187.01548253 -2.087727 187.01548253 0.84704018 187.78805542 C1.17704018 186.79805542 1.50704018 185.80805542 1.84704018 184.78805542 C2.50704018 184.78805542 3.16704018 184.78805542 3.84704018 184.78805542 C4.17704018 183.79805542 4.50704018 182.80805542 4.84704018 181.78805542 C5.50704018 181.78805542 6.16704018 181.78805542 6.84704018 181.78805542 C7.11516518 181.14868042 7.38329018 180.50930542 7.65954018 179.85055542 C8.84704018 177.78805542 8.84704018 177.78805542 11.84704018 176.78805542 C11.84704018 176.12805542 11.84704018 175.46805542 11.84704018 174.78805542 C16.14936576 170.02061356 16.14936576 170.02061356 19.84704018 168.78805542 C20.17704018 167.79805542 20.50704018 166.80805542 20.84704018 165.78805542 C22.72321715 163.94306144 24.77441627 162.41969552 26.84704018 160.78805542 C31.13942641 162.4389732 33.72643168 165.52560108 36.84704018 168.78805542 C35.45623493 171.92543696 33.83681814 174.04280823 31.40709877 176.45504761 C30.35623589 177.5056839 30.35623589 177.5056839 29.28414345 178.57754517 C28.52888374 179.3224823 27.77362404 180.06741943 26.99547768 180.83493042 C26.221446 181.6061322 25.44741432 182.37733398 24.64992714 183.17190552 C22.17862094 185.63202398 19.70044835 188.0850939 17.22204018 190.53805542 C15.54449965 192.20556436 13.86741073 193.87352774 12.19079018 195.54196167 C8.08143098 199.62927912 3.9664137 203.71083238 -0.15295982 207.78805542 C-1.27774323 206.8292015 -2.40178774 205.86948076 -3.52551842 204.90939331 C-4.15154961 204.37504166 -4.7775808 203.84069 -5.42258263 203.29014587 C-7.2867897 201.67188157 -9.0517389 199.99004232 -10.77795982 198.22555542 C-11.57073326 197.41924683 -11.57073326 197.41924683 -12.37952232 196.59664917 C-13.25737389 195.70139526 -13.25737389 195.70139526 -14.15295982 194.78805542 C-15.81825192 193.12001532 -17.4850563 191.45348431 -19.15295982 189.78805542 C-47.81962649 161.12138875 -76.48629316 132.45472209 -105.15295982 103.78805542 C-100.26783778 97.91175009 -95.01959371 92.4879284 -89.63098717 87.07321167 C-88.68076777 86.1150739 -87.73072489 85.15676105 -86.78084373 84.19828796 C-83.68722429 81.07869517 -80.5883692 77.964332 -77.48889732 74.85055542 C-76.41852435 73.77481656 -75.3481572 72.6990719 -74.27779579 71.62332153 C-69.82929368 67.153246 -65.37937678 62.68458692 -60.92573166 58.21963501 C-54.55306608 51.83067717 -48.18908924 45.43333222 -41.83670461 39.02420712 C-37.36035408 34.5092402 -32.87453806 30.00381985 -28.38148844 25.50547123 C-25.70023328 22.82055736 -23.02335099 20.13159424 -20.356493 17.43237305 C-17.85397838 14.89991639 -15.34000396 12.37944159 -12.81657028 9.86783409 C-11.44920749 8.50079907 -10.0942974 7.12134416 -8.73973656 5.74162292 C-7.92673592 4.93694077 -7.11373528 4.13225861 -6.27609825 3.30319214 C-5.57226698 2.59605072 -4.86843571 1.8889093 -4.14327621 1.16033936 C-2.15295982 -0.21194458 -2.15295982 -0.21194458 0 0 Z " fill="#0579F6" transform="translate(209.1529598236084,95.21194458007813)"/>
<path d="M0 0 C3.4912129 1.28490702 5.71687607 3.46990313 8.31536865 6.07485962 C9.17069687 6.92743851 10.02602509 7.7800174 10.90727234 8.65843201 C11.84680334 9.60504063 12.78623799 10.55174489 13.72558594 11.49853516 C14.7208075 12.49432102 15.71646998 13.48966639 16.71253967 14.48460388 C19.41299428 17.18448469 22.10723816 19.89048736 24.80041409 22.59762621 C27.61688388 25.42659877 30.43901871 28.24990833 33.26055908 31.07382202 C38.60163041 36.42110945 43.93758304 41.77347467 49.27171826 47.12768018 C55.34513503 53.22345189 61.424232 59.31354534 67.50381422 65.40316701 C80.00887648 77.9291342 92.5067829 90.46221915 105 103 C100.08449376 108.92707277 94.7764013 114.35903664 89.32275391 119.79077148 C88.35614889 120.7570939 87.38976506 121.72363761 86.42358398 122.69038391 C83.81881787 125.29543517 81.2109955 127.89740683 78.60258532 130.49880862 C75.87016662 133.22494639 73.14060801 135.95394486 70.41073608 138.68263245 C65.24929386 143.84097527 60.0853094 148.99676519 54.92039144 154.1516276 C49.0368792 160.02393537 43.15622992 165.89910663 37.27581143 171.77451217 C25.18704204 183.8528487 13.0947081 195.92761029 1 208 C-4.92707277 203.08449376 -10.35903664 197.7764013 -15.79077148 192.32275391 C-16.7570939 191.35614889 -17.72363761 190.38976506 -18.69038391 189.42358398 C-21.29543517 186.81881787 -23.89740683 184.2109955 -26.49880862 181.60258532 C-29.22494639 178.87016662 -31.95394486 176.14060801 -34.68263245 173.41073608 C-39.84097527 168.24929386 -44.99676519 163.0853094 -50.1516276 157.92039144 C-56.02393537 152.0368792 -61.89910663 146.15622992 -67.77451217 140.27581143 C-79.8528487 128.18704204 -91.92761029 116.0947081 -104 104 C-97.7623583 96.63524112 -97.7623583 96.63524112 -94.47314453 93.35961914 C-93.85295441 92.73950455 -93.23276428 92.11938995 -92.59378052 91.48048401 C-91.94666107 90.83852585 -91.29954163 90.19656769 -90.6328125 89.53515625 C-89.95322479 88.85698349 -89.27363708 88.17881073 -88.57345581 87.48008728 C-86.42632998 85.33850859 -84.27573373 83.20045471 -82.125 81.0625 C-80.65862227 79.60114411 -79.1924742 78.13955774 -77.7265625 76.67773438 C-74.15369 73.11582065 -70.57770316 69.55706135 -67 66 C-62.73384496 68.04066983 -60.26601476 70.58553002 -57 74 C-58.59085436 78.00755884 -61.41784219 80.59120618 -64.48046875 83.5 C-65.57268211 84.56207186 -66.6644664 85.62458512 -67.75585938 86.6875 C-69.47603091 88.35172098 -71.19979557 90.01173269 -72.93139648 91.6640625 C-74.60467395 93.26502175 -76.26208544 94.8810835 -77.91796875 96.5 C-78.44182663 96.99177734 -78.96568451 97.48355469 -79.50541687 97.99023438 C-81.12619462 99.53022527 -81.12619462 99.53022527 -83 102 C-82.68649021 105.39149906 -81.29981879 107.07374465 -78.93875122 109.42874146 C-78.28540802 110.08765381 -77.63206482 110.74656616 -76.95892334 111.42544556 C-76.23787415 112.13727997 -75.51682495 112.84911438 -74.77392578 113.58251953 C-74.01782013 114.34066956 -73.26171448 115.09881958 -72.48269653 115.87994385 C-69.97743269 118.38821974 -67.46157893 120.88557818 -64.9453125 123.3828125 C-63.20456727 125.12050069 -61.46441168 126.85877974 -59.724823 128.59762573 C-56.07580847 132.24203444 -52.42193359 135.88147255 -48.76416016 139.51708984 C-44.07070234 144.18226524 -39.38596473 148.85607396 -34.70439339 153.53317451 C-31.11045701 157.12295775 -27.5136977 160.70990042 -23.91588974 164.29580307 C-22.18742123 166.01856603 -20.45942576 167.74180373 -18.73190689 169.46551895 C-16.31882925 171.87173646 -13.90240049 174.27453364 -11.48486328 176.67626953 C-10.76786255 177.3921524 -10.05086182 178.10803528 -9.31213379 178.84561157 C-8.65315094 179.49888428 -7.99416809 180.15215698 -7.31521606 180.82522583 C-6.45851413 181.67746577 -6.45851413 181.67746577 -5.58450508 182.54692268 C-3.85524917 184.20739451 -3.85524917 184.20739451 -1 186 C-1 186.66 -1 187.32 -1 188 C2.76948617 186.74350461 4.2622868 184.86654676 7 182 C66 123 66 123 68.69921875 120.3359375 C71.08901891 117.98769765 71.08901891 117.98769765 73.3125 115.125 C76.43782939 111.27844075 80.21413997 108.17523745 84 105 C83.41462955 101.55469756 82.27787673 99.89889622 79.83158875 97.43717957 C79.15444824 96.74868927 78.47730774 96.06019897 77.77964783 95.35084534 C77.03211746 94.60624557 76.2845871 93.86164581 75.5144043 93.09448242 C74.73064423 92.30225281 73.94688416 91.51002319 73.13937378 90.69378662 C70.54213655 88.07311787 67.93381005 85.46383209 65.32421875 82.85546875 C63.51889289 81.04304641 61.71386847 79.23032376 59.90913391 77.41731262 C56.12372545 73.61844609 52.33250718 69.82549837 48.53735352 66.03637695 C44.14725489 61.6529277 39.77214557 57.25490863 35.40394086 52.84965056 C31.20274102 48.61410951 26.9877843 44.3924554 22.767313 40.17611122 C20.97193589 38.37903531 19.18056414 36.57794889 17.39322472 34.77287865 C14.89843163 32.25606832 12.38842104 29.75550166 9.8737793 27.25854492 C9.13232162 26.50382401 8.39086395 25.74910309 7.62693787 24.97151184 C6.94133789 24.29712067 6.25573792 23.62272949 5.54936218 22.92790222 C4.95702632 22.33485385 4.36469046 21.74180548 3.75440502 21.13078594 C2.05860277 19.78613031 2.05860277 19.78613031 -0.05002117 20.16647816 C-3.26859036 21.54226116 -5.45821261 24.09458764 -7.859375 26.56640625 C-8.683237 27.39663551 -8.683237 27.39663551 -9.52374268 28.24363708 C-11.27300464 30.00966559 -13.01153644 31.78584692 -14.75 33.5625 C-15.935505 34.76305441 -17.12169524 35.9629326 -18.30859375 37.16210938 C-21.21373293 40.10029095 -24.10929337 43.04762074 -27 46 C-31.26615504 43.95933017 -33.73398524 41.41446998 -37 38 C-35.64316555 34.96965514 -34.12129061 32.87256461 -31.77539062 30.5324707 C-31.12131226 29.8753157 -30.46723389 29.21816071 -29.79333496 28.54109192 C-29.08809692 27.8430394 -28.38285889 27.14498688 -27.65625 26.42578125 C-26.93135376 25.70134323 -26.20645752 24.97690521 -25.45959473 24.23051453 C-23.92871626 22.70265357 -22.39541164 21.17722023 -20.85986328 19.65405273 C-18.50364875 17.31612044 -16.15556025 14.97025913 -13.80859375 12.62304688 C-12.32078413 11.14015165 -10.8325184 9.65771389 -9.34375 8.17578125 C-8.63851196 7.47165604 -7.93327393 6.76753082 -7.20666504 6.04206848 C-6.55258667 5.39436996 -5.8985083 4.74667145 -5.22460938 4.0793457 C-4.64884155 3.50738968 -4.07307373 2.93543365 -3.4798584 2.34614563 C-2 1 -2 1 0 0 Z " fill="#F66107" transform="translate(303,95)"/>
<path d="M0 0 C5.11291211 5.96134294 6.37641144 12.76107824 6.328125 20.390625 C6.33991791 21.2364212 6.35171082 22.08221741 6.36386108 22.9536438 C6.39881972 25.62293434 6.40826554 28.29143762 6.4140625 30.9609375 C6.43042219 33.65162548 6.45242692 36.3419677 6.48568726 39.03250122 C6.50528004 40.69848683 6.51465614 42.36463165 6.51260376 44.0307312 C6.54845389 47.90238971 6.59138327 49.78941866 8.7890625 53.0859375 C12.29475043 53.59647458 14.17855178 53.44295565 17.25390625 51.64453125 C31.12475393 40.67480116 31.12475393 40.67480116 41.7890625 27.0859375 C41.19899414 26.82256592 40.60892578 26.55919434 40.00097656 26.2878418 C37.69333435 25.03392098 36.22178856 23.73398489 34.3984375 21.85546875 C33.77517578 21.22060547 33.15191406 20.58574219 32.50976562 19.93164062 C31.53426758 18.92520508 31.53426758 18.92520508 30.5390625 17.8984375 C25.99652927 13.27735902 21.4570134 8.76758014 16.5078125 4.578125 C13.44680172 1.9206111 10.50809985 -0.90612743 7.7890625 -3.9140625 C7.7890625 -4.2440625 7.7890625 -4.5740625 7.7890625 -4.9140625 C23.32710583 -7.00126235 23.32710583 -7.00126235 29.01464844 -3.57226562 C32.96770883 -0.28087629 36.30375563 3.52613375 39.46484375 7.57373047 C40.90620556 9.3521963 40.90620556 9.3521963 43.7890625 11.0859375 C43.7890625 11.7459375 43.7890625 12.4059375 43.7890625 13.0859375 C44.3665625 13.3540625 44.9440625 13.6221875 45.5390625 13.8984375 C47.82318298 15.10394553 49.74337781 16.51729273 51.7890625 18.0859375 C58.28734781 12.40910587 64.46319698 6.50580324 70.49682617 0.34106445 C75.59935471 -4.84219784 75.59935471 -4.84219784 78.66845703 -5.02758789 C79.41208496 -5.02235107 80.15571289 -5.01711426 80.921875 -5.01171875 C81.72753906 -5.00849609 82.53320312 -5.00527344 83.36328125 -5.00195312 C84.20503906 -4.99357422 85.04679688 -4.98519531 85.9140625 -4.9765625 C86.76355469 -4.97205078 87.61304688 -4.96753906 88.48828125 -4.96289062 C90.58857159 -4.95109124 92.6888258 -4.93315556 94.7890625 -4.9140625 C87.82370787 3.55731475 80.05465753 11.26893408 71.71484375 18.3828125 C68.24519425 21.45130577 65.02403802 24.77352905 61.7890625 28.0859375 C62.5315625 28.8078125 63.2740625 29.5296875 64.0390625 30.2734375 C66.7890625 33.0859375 66.7890625 33.0859375 68.6015625 35.4609375 C70.43446209 37.66041701 72.13367981 39.3002039 74.30078125 41.1328125 C79.35972927 45.51490342 84.06920629 50.2193308 88.7890625 54.9609375 C90.09423828 56.2603125 90.09423828 56.2603125 91.42578125 57.5859375 C92.65748047 58.81957031 92.65748047 58.81957031 93.9140625 60.078125 C94.65914062 60.82433105 95.40421875 61.57053711 96.171875 62.33935547 C97.7890625 64.0859375 97.7890625 64.0859375 97.7890625 65.0859375 C82.06920495 66.45951729 82.06920495 66.45951729 76.87109375 63.328125 C74.6620607 61.02134712 72.73156808 58.61893219 70.7890625 56.0859375 C69.50823054 54.90481102 68.19587982 53.75677013 66.8515625 52.6484375 C61.89488387 48.40271681 57.35882252 43.73997589 52.7890625 39.0859375 C48.9804743 40.38664206 46.6732786 41.85355017 43.8984375 44.75390625 C43.18816406 45.48287109 42.47789062 46.21183594 41.74609375 46.96289062 C40.65361328 48.10661133 40.65361328 48.10661133 39.5390625 49.2734375 C22.70274061 66.82522696 22.70274061 66.82522696 11.4140625 67.4609375 C5.77038255 67.30891918 1.3568872 65.416924 -2.8203125 61.625 C-5.6017307 58.54668885 -6.2109375 57.33716039 -6.2109375 53.0859375 C-6.819375 53.52164063 -7.4278125 53.95734375 -8.0546875 54.40625 C-20.12851325 62.60934926 -34.44364597 68.57944767 -49.2109375 67.0859375 C-55.11045048 65.19526911 -59.93478514 62.49871096 -63.2109375 57.0859375 C-65.19037056 51.14763831 -65.25589907 44.43710104 -62.7109375 38.7109375 C-52.96165938 28.47419547 -40.93909308 25.77168772 -27.4609375 22.8984375 C-26.28144531 22.63869141 -25.10195312 22.37894531 -23.88671875 22.11132812 C-18.34433009 20.90497019 -12.84320002 19.76938456 -7.2109375 19.0859375 C-8.82877091 13.38484066 -8.82877091 13.38484066 -12.6484375 9.1484375 C-21.03163826 5.67247621 -31.54813546 5.80059762 -40.0859375 8.7109375 C-44.5377952 10.56477078 -48.43987265 12.9874621 -52.3359375 15.81640625 C-54.2109375 17.0859375 -54.2109375 17.0859375 -57.2109375 18.0859375 C-58.21627417 16.46423371 -59.21505657 14.83846513 -60.2109375 13.2109375 C-60.7678125 12.30601562 -61.3246875 11.40109375 -61.8984375 10.46875 C-63.2109375 8.0859375 -63.2109375 8.0859375 -63.2109375 6.0859375 C-46.00522087 -7.42570844 -18.79191318 -13.19432202 0 0 Z " fill="#F7F7F7" transform="translate(124.2109375,350.9140625)"/>
<path d="M0 0 C7.25899768 6.37825823 12.35749128 14.44770688 13.33984375 24.1484375 C13.63568845 35.52613152 11.4758218 44.96767548 3.99609375 53.75390625 C-5.65209242 63.10636258 -16.99973898 66.2474209 -30.17578125 66.08203125 C-42.12189172 65.05807892 -51.30371376 59.84934729 -59.00390625 50.75390625 C-65.24740057 41.03407879 -66.06502728 31.06518082 -65.00390625 19.75390625 C-64.12757844 16.37573065 -62.86313114 13.69122335 -61.00390625 10.75390625 C-60.42640625 9.72265625 -59.84890625 8.69140625 -59.25390625 7.62890625 C-44.8818318 -10.7354111 -18.90942024 -13.84377739 0 0 Z " fill="#F8F8F8" transform="translate(279.00390625,352.24609375)"/>
<path d="M0 0 C8.02546477 7.03446608 12.54002174 17.21405782 13.9296875 27.69140625 C13.9296875 29.67140625 13.9296875 31.65140625 13.9296875 33.69140625 C-7.1903125 33.69140625 -28.3103125 33.69140625 -50.0703125 33.69140625 C-46.56162563 43.04790457 -43.51469279 46.31283869 -35.0703125 50.69140625 C-25.5792662 53.85508835 -14.42743679 52.33359031 -5.609375 48.0703125 C-4.35253906 47.38775391 -4.35253906 47.38775391 -3.0703125 46.69140625 C-2.31492187 46.28792969 -1.55953125 45.88445312 -0.78125 45.46875 C0.81209865 44.58320364 2.37599124 43.64481078 3.9296875 42.69140625 C4.96559088 43.76033843 5.98302692 44.84719113 6.9921875 45.94140625 C7.56066406 46.5446875 8.12914062 47.14796875 8.71484375 47.76953125 C9.9296875 49.69140625 9.9296875 49.69140625 9.8828125 51.70703125 C7.38950649 56.89801261 0.89626221 59.86933372 -4.19140625 61.99609375 C-18.23129366 66.79875186 -31.63979627 67.36350287 -45.2578125 61.00390625 C-54.71704994 55.95332749 -60.87180333 49.10357441 -64.0703125 38.69140625 C-65.6091604 27.68042663 -64.82544758 16.83537443 -58.3828125 7.56640625 C-51.62160927 -0.77296481 -44.54481002 -5.4002114 -34.1328125 -8.05859375 C-21.7020936 -9.07334631 -10.34956251 -7.56314184 0 0 Z " fill="#F4F4F4" transform="translate(439.0703125,352.30859375)"/>
<path d="M0 0 C5.5676242 4.42879197 9.00667466 9.27559878 10.75 16.1875 C11.13508161 20.17337358 11.10064062 24.12371609 11.04296875 28.125 C11.03872391 29.24567871 11.03447906 30.36635742 11.03010559 31.52099609 C11.01340311 35.07674874 10.97576568 38.63192059 10.9375 42.1875 C10.92244231 44.60806469 10.9087558 47.02863833 10.89648438 49.44921875 C10.86352706 55.36220065 10.81180241 61.27475208 10.75 67.1875 C6.13 67.1875 1.51 67.1875 -3.25 67.1875 C-3.26458252 65.83068115 -3.27916504 64.4738623 -3.29418945 63.07592773 C-3.3523319 58.02325603 -3.42956419 52.97102254 -3.51245117 47.91870117 C-3.54562552 45.7355055 -3.5736806 43.55222561 -3.59643555 41.36889648 C-3.63011904 38.22343183 -3.68244276 35.07873376 -3.73828125 31.93359375 C-3.74467117 30.9635289 -3.7510611 29.99346405 -3.75764465 28.9940033 C-3.90355454 22.20921219 -4.78116232 17.21381715 -9.1875 11.8125 C-12.84999054 8.9269014 -16.46277954 8.84192636 -21.09765625 8.90234375 C-28.69118561 9.90838303 -35.03788414 15.44508498 -39.84375 21.046875 C-45.35062255 29.00292282 -44.2470206 38.52565569 -44.1875 47.8125 C-44.20062699 49.69403502 -44.21687581 51.57555099 -44.23632812 53.45703125 C-44.27692056 58.03442728 -44.27513006 62.61001224 -44.25 67.1875 C-48.87 67.1875 -53.49 67.1875 -58.25 67.1875 C-58.25 44.0875 -58.25 20.9875 -58.25 -2.8125 C-53.63 -2.8125 -49.01 -2.8125 -44.25 -2.8125 C-43.92 1.1475 -43.59 5.1075 -43.25 9.1875 C-42.610625 8.32125 -41.97125 7.455 -41.3125 6.5625 C-30.47043943 -6.39883021 -14.24154161 -7.94239821 0 0 Z " fill="#F8F8F8" transform="translate(357.25,348.8125)"/>
<path d="M0 0 C6.71649054 3.75698152 9.97571991 8.1584337 12.5 15.4375 C13.66666577 24.39098147 11.41377066 30.7546543 6.75 38.25 C0.50804023 44.318572 -7.00155573 45.74998126 -15.4296875 45.6484375 C-22.06269865 45.19273444 -27.10498935 42.74880285 -31.95703125 38.21875 C-36.9856648 32.41354266 -38.23942447 25.98018411 -37.94140625 18.43359375 C-36.9203088 11.50278187 -34.01384645 6.26085687 -28.5 1.9375 C-19.68548881 -4.17579002 -9.67319095 -4.48386478 0 0 Z " fill="#030303" transform="translate(265.5,359.5625)"/>
<path d="M0 0 C0.49078043 3.44909578 0.6399523 6.56283683 0 10 C-2.16186223 12.84520949 -4.88453969 14.32060945 -8 16 C-8.97582031 16.53625 -9.95164063 17.0725 -10.95703125 17.625 C-19.84038808 22.27339804 -27.85351786 25.23508796 -38 24 C-41.1875 22.4375 -41.1875 22.4375 -43 20 C-43.6875 16.5625 -43.6875 16.5625 -43 13 C-36.25694984 5.58264482 -26.23599862 4.21792336 -16.8125 2.3125 C-15.21245117 1.97508789 -15.21245117 1.97508789 -13.58007812 1.63085938 C-8.96852743 0.68201624 -4.725086 -0.13518566 0 0 Z " fill="#060606" transform="translate(117,382)"/>
<path d="M0 0 C3.6501228 1.89191347 6.32312008 4.16322951 9 7.3125 C9.598125 7.993125 10.19625 8.67375 10.8125 9.375 C12 11.3125 12 11.3125 12 15.3125 C-3.51 15.3125 -19.02 15.3125 -35 15.3125 C-32.53920674 7.93012021 -30.11250742 4.24827944 -23.5 0.4375 C-15.96472853 -3.03254305 -7.68906928 -3.12168537 0 0 Z " fill="#040404" transform="translate(424,358.6875)"/>
<path d="M0 0 C0 3 0 3 -1.375 4.6875 C-3 6 -3 6 -5 6 C-5.26554687 6.58265625 -5.53109375 7.1653125 -5.8046875 7.765625 C-7.03302996 10.06174228 -8.40314939 11.80356018 -10.125 13.75 C-10.66382813 14.36359375 -11.20265625 14.9771875 -11.7578125 15.609375 C-12.16773438 16.06828125 -12.57765625 16.5271875 -13 17 C-12.67 16.67 -12.34 16.34 -12 16 C-9.9375 16.4375 -9.9375 16.4375 -8 17 C-7.06576355 20.01031744 -6.95550089 20.86650268 -8 24 C-8.08121094 24.77730469 -8.16242188 25.55460937 -8.24609375 26.35546875 C-9.29172221 30.02329502 -11.31795021 31.70691475 -14.0625 34.3125 C-14.98160156 35.19550781 -15.90070313 36.07851563 -16.84765625 36.98828125 C-17.55792969 37.65214844 -18.26820313 38.31601562 -19 39 C-21.015625 37.203125 -21.015625 37.203125 -23 35 C-22.75 31.75 -22.75 31.75 -22 29 C-20.68 29 -19.36 29 -18 29 C-18 28.34 -18 27.68 -18 27 C-17.34 26.67 -16.68 26.34 -16 26 C-15.67 25.01 -15.34 24.02 -15 23 C-14.34 22.67 -13.68 22.34 -13 22 C-14.76529595 20.78309467 -14.76529595 20.78309467 -17 20 C-19.8174446 20.82866018 -20.75609502 21.58536153 -22.25 24.125 C-22.4975 24.74375 -22.745 25.3625 -23 26 C-25.1875 26.3125 -25.1875 26.3125 -28 26 C-30.8125 23.6875 -30.8125 23.6875 -33 21 C-33 20.01 -33 19.02 -33 18 C-30.95880212 19.61594832 -28.95927063 21.2856382 -27 23 C-27 23.66 -27 24.32 -27 25 C-23.23051383 23.74350461 -21.7377132 21.86654676 -19 19 C-12.66666667 12.66666667 -6.33333333 6.33333333 0 0 Z " fill="#ED600D" transform="translate(329,258)"/>
<path d="M0 0 C4.44995051 2.22497525 6.60084691 4.44633995 10 8 C8.46356148 11.68069887 6.21849055 13.98775204 3.375 16.75 C2.55773437 17.54921875 1.74046875 18.3484375 0.8984375 19.171875 C0.27195313 19.77515625 -0.35453125 20.3784375 -1 21 C-2.66666667 17.66666667 -4.33333333 14.33333333 -6 11 C-8.31816544 10.77057986 -8.31816544 10.77057986 -10.4375 13.3125 C-11.7059375 14.6428125 -11.7059375 14.6428125 -13 16 C-14 17 -15 18 -16 19 C-16.66 18.67 -17.32 18.34 -18 18 C-12.06 12.06 -6.12 6.12 0 0 Z " fill="#F3620B" transform="translate(236,161)"/>
<path d="M0 0 C2.28506146 0.50938576 4.50661247 1.09894609 6.73828125 1.8046875 C6.73828125 3.1246875 6.73828125 4.4446875 6.73828125 5.8046875 C5.93390625 6.2790625 5.12953125 6.7534375 4.30078125 7.2421875 C1.48351416 8.56948668 1.48351416 8.56948668 0.92578125 11.4921875 C0.86390625 12.2553125 0.80203125 13.0184375 0.73828125 13.8046875 C-0.58171875 13.8046875 -1.90171875 13.8046875 -3.26171875 13.8046875 C-3.59171875 14.7946875 -3.92171875 15.7846875 -4.26171875 16.8046875 C-5.25171875 16.8046875 -6.24171875 16.8046875 -7.26171875 16.8046875 C-7.59171875 15.8146875 -7.92171875 14.8246875 -8.26171875 13.8046875 C-9.25171875 14.7946875 -10.24171875 15.7846875 -11.26171875 16.8046875 C-11.92171875 16.4746875 -12.58171875 16.1446875 -13.26171875 15.8046875 C-13.62797846 11.28748439 -13.62797846 11.28748439 -11.88671875 8.9921875 C-10.26171875 7.8046875 -10.26171875 7.8046875 -8.26171875 7.8046875 C-8.01421875 7.2271875 -7.76671875 6.6496875 -7.51171875 6.0546875 C-3.95811135 -0.34180582 -3.95811135 -0.34180582 0 0 Z " fill="#FB6002" transform="translate(283.26171875,118.1953125)"/>
<path d="M0 0 C5.625 -0.25 5.625 -0.25 9 2 C9.8125 5 9.8125 5 10 8 C9.34 8.66 8.68 9.32 8 10 C8.33 10.66 8.66 11.32 9 12 C7.625 13.5 7.625 13.5 6 15 C5.34 15 4.68 15 4 15 C4.33 13.68 4.66 12.36 5 11 C3.39125 10.938125 3.39125 10.938125 1.75 10.875 C-2 10 -2 10 -4.4375 7.0625 C-6 4 -6 4 -6 2 C-4.35 2 -2.7 2 -1 2 C-0.67 1.34 -0.34 0.68 0 0 Z " fill="#047AF9" transform="translate(189,272)"/>
<path d="M0 0 C5.625 -0.25 5.625 -0.25 9 2 C9.8125 5 9.8125 5 10 8 C9.34 8.66 8.68 9.32 8 10 C8.33 10.66 8.66 11.32 9 12 C7.625 13.5 7.625 13.5 6 15 C5.34 15 4.68 15 4 15 C4.33 13.68 4.66 12.36 5 11 C3.39125 10.938125 3.39125 10.938125 1.75 10.875 C-2 10 -2 10 -4.4375 7.0625 C-6 4 -6 4 -6 2 C-4.35 2 -2.7 2 -1 2 C-0.67 1.34 -0.34 0.68 0 0 Z " fill="#047AF9" transform="translate(173,256)"/>
<path d="M0 0 C5.625 -0.25 5.625 -0.25 9 2 C9.8125 5 9.8125 5 10 8 C9.34 8.66 8.68 9.32 8 10 C8.33 10.66 8.66 11.32 9 12 C7.625 13.5 7.625 13.5 6 15 C5.34 15 4.68 15 4 15 C4.33 13.68 4.66 12.36 5 11 C3.39125 10.938125 3.39125 10.938125 1.75 10.875 C-2 10 -2 10 -4.4375 7.0625 C-6 4 -6 4 -6 2 C-4.35 2 -2.7 2 -1 2 C-0.67 1.34 -0.34 0.68 0 0 Z " fill="#047AF9" transform="translate(157,240)"/>
<path d="M0 0 C5.625 -0.25 5.625 -0.25 9 2 C9.8125 5 9.8125 5 10 8 C9.34 8.66 8.68 9.32 8 10 C8.33 10.66 8.66 11.32 9 12 C7.625 13.5 7.625 13.5 6 15 C5.34 15 4.68 15 4 15 C4.33 13.68 4.66 12.36 5 11 C3.39125 10.938125 3.39125 10.938125 1.75 10.875 C-2 10 -2 10 -4.4375 7.0625 C-6 4 -6 4 -6 2 C-4.35 2 -2.7 2 -1 2 C-0.67 1.34 -0.34 0.68 0 0 Z " fill="#047AF9" transform="translate(141,224)"/>
<path d="M0 0 C0.33 1.32 0.66 2.64 1 4 C1.928125 3.2575 1.928125 3.2575 2.875 2.5 C5 1 5 1 7 1 C7.6875 2.8125 7.6875 2.8125 8 5 C6.5625 6.75 6.5625 6.75 5 8 C8.0745356 7.2236068 8.0745356 7.2236068 10 5 C10 9.68091299 9.00354129 10.62101604 6 14 C2.47975677 13.3481031 -0.14748697 12.17691784 -3 10 C-4.3125 6.8125 -4.3125 6.8125 -5 4 C-3.35 2.68 -1.7 1.36 0 0 Z " fill="#FB5F03" transform="translate(377,174)"/>
<path d="M0 0 C0.33 1.32 0.66 2.64 1 4 C1.928125 3.2575 1.928125 3.2575 2.875 2.5 C5 1 5 1 7 1 C7.6875 2.8125 7.6875 2.8125 8 5 C6.5625 6.75 6.5625 6.75 5 8 C8.0745356 7.2236068 8.0745356 7.2236068 10 5 C10 9.68091299 9.00354129 10.62101604 6 14 C2.47975677 13.3481031 -0.14748697 12.17691784 -3 10 C-4.3125 6.8125 -4.3125 6.8125 -5 4 C-3.35 2.68 -1.7 1.36 0 0 Z " fill="#FB5F03" transform="translate(361,158)"/>
<path d="M0 0 C0.33 1.32 0.66 2.64 1 4 C1.928125 3.2575 1.928125 3.2575 2.875 2.5 C5 1 5 1 7 1 C7.6875 2.8125 7.6875 2.8125 8 5 C6.5625 6.75 6.5625 6.75 5 8 C8.0745356 7.2236068 8.0745356 7.2236068 10 5 C10 9.68091299 9.00354129 10.62101604 6 14 C2.47975677 13.3481031 -0.14748697 12.17691784 -3 10 C-4.3125 6.8125 -4.3125 6.8125 -5 4 C-3.35 2.68 -1.7 1.36 0 0 Z " fill="#FB5F03" transform="translate(345,142)"/>
<path d="M0 0 C0.33 1.32 0.66 2.64 1 4 C1.928125 3.2575 1.928125 3.2575 2.875 2.5 C5 1 5 1 7 1 C7.6875 2.8125 7.6875 2.8125 8 5 C6.5625 6.75 6.5625 6.75 5 8 C8.0745356 7.2236068 8.0745356 7.2236068 10 5 C10 9.68091299 9.00354129 10.62101604 6 14 C2.47975677 13.3481031 -0.14748697 12.17691784 -3 10 C-4.3125 6.8125 -4.3125 6.8125 -5 4 C-3.35 2.68 -1.7 1.36 0 0 Z " fill="#FB5F03" transform="translate(329,126)"/>
<path d="M0 0 C0.33 1.32 0.66 2.64 1 4 C1.928125 3.2575 1.928125 3.2575 2.875 2.5 C5 1 5 1 7 1 C7.6875 2.8125 7.6875 2.8125 8 5 C6.5625 6.75 6.5625 6.75 5 8 C8.0745356 7.2236068 8.0745356 7.2236068 10 5 C10 9.68091299 9.00354129 10.62101604 6 14 C2.47406384 13.34704886 -0.22945596 12.3087867 -3 10 C-3.5 6.5 -3.5 6.5 -3 3 C-1.5 1.0625 -1.5 1.0625 0 0 Z " fill="#FB6003" transform="translate(313,110)"/>
<path d="M0 0 C0 3.50481678 -0.49237247 3.92840405 -2.75 6.4375 C-3.29269531 7.05109375 -3.83539063 7.6646875 -4.39453125 8.296875 C-6 10 -6 10 -8.4375 12.1875 C-8.953125 12.785625 -9.46875 13.38375 -10 14 C-9.86358623 16.21858253 -9.86358623 16.21858253 -9 18 C-8.01 17.01 -7.02 16.02 -6 15 C-5.67 16.32 -5.34 17.64 -5 19 C-4.01 18.67 -3.02 18.34 -2 18 C-1.67 17.34 -1.34 16.68 -1 16 C0.32 16.33 1.64 16.66 3 17 C0.36 19.64 -2.28 22.28 -5 25 C-9.44995051 22.77502475 -11.60084691 20.55366005 -15 17 C-13.67879172 14.06769807 -12.25361803 12.01335101 -9.9609375 9.765625 C-9.38085938 9.19199219 -8.80078125 8.61835937 -8.203125 8.02734375 C-7.59984375 7.44082031 -6.9965625 6.85429688 -6.375 6.25 C-5.76398438 5.64800781 -5.15296875 5.04601562 -4.5234375 4.42578125 C-3.02011376 2.94594695 -1.51065144 1.47235324 0 0 Z " fill="#E56516" transform="translate(281,116)"/>
<path d="M0 0 C0.99 0 1.98 0 3 0 C3.75 1.6875 3.75 1.6875 4 4 C2.0625 6.75 2.0625 6.75 0 9 C1.32 9.99 2.64 10.98 4 12 C2.63016497 15.16115776 2.0109362 15.9927092 -1 18 C-1.36162029 19.32594105 -1.69728039 20.65938457 -2 22 C-2.66 22.33 -3.32 22.66 -4 23 C-4.95024979 19.30458414 -4.95024979 16.69541586 -4 13 C-4.66 13 -5.32 13 -6 13 C-6.75 11.25 -6.75 11.25 -7 9 C-5.1875 6.75 -5.1875 6.75 -3 5 C-2.34 5 -1.68 5 -1 5 C-0.67 3.35 -0.34 1.7 0 0 Z " fill="#FA6104" transform="translate(389,198)"/>
<path d="M0 0 C0.33 1.32 0.66 2.64 1 4 C0.01 4.33 -0.98 4.66 -2 5 C-3.58697631 6.59913982 -3.58697631 6.59913982 -5.0625 8.5 C-7.80102916 11.90051458 -7.80102916 11.90051458 -10 13 C-10.6496875 14.175625 -10.6496875 14.175625 -11.3125 15.375 C-13 18 -13 18 -15.3125 19.375 C-17.93080199 20.95815934 -19.1194918 22.21790751 -21 24.5625 C-23.38789045 27.49477998 -25.24824727 29.00688898 -29 30 C-23.47349666 23.25919575 -17.30550441 17.1928871 -11.125 11.0625 C-10.04403726 9.98656273 -8.96330617 8.91039269 -7.8828125 7.83398438 C-5.25787359 5.21996708 -2.62981372 2.60911404 0 0 Z " fill="#001032" transform="translate(239,272)"/>
<path d="M0 0 C0.99 0.33 1.98 0.66 3 1 C2.54109375 1.37511719 2.0821875 1.75023437 1.609375 2.13671875 C-2.04675872 5.18605716 -5.07976749 8.21451341 -8 12 C-8.99 12.495 -8.99 12.495 -10 13 C-10.33 13.99 -10.66 14.98 -11 16 C-11.804375 16.268125 -12.60875 16.53625 -13.4375 16.8125 C-16.27263213 17.80991635 -16.27263213 17.80991635 -17.5 20.875 C-18.33653807 23.99516501 -18.33653807 23.99516501 -16.625 26.375 C-16.08875 26.91125 -15.5525 27.4475 -15 28 C-16.65 27.67 -18.3 27.34 -20 27 C-20 24.36 -20 21.72 -20 19 C-19.01 19 -18.02 19 -17 19 C-17 18.01 -17 17.02 -17 16 C-14.625 13.3125 -14.625 13.3125 -12 11 C-11.34 11 -10.68 11 -10 11 C-9.62875 9.8553125 -9.62875 9.8553125 -9.25 8.6875 C-7.87869328 5.73919055 -6.7648921 4.64165468 -4 3 C-3.34 3 -2.68 3 -2 3 C-2 2.34 -2 1.68 -2 1 C-1.34 0.67 -0.68 0.34 0 0 Z " fill="#000814" transform="translate(285,204)"/>
<path d="M0 0 C0 3.47289374 -0.64169543 5.80798426 -2 9 C-4.58975241 10.8378888 -5.78481903 11 -9 11 C-9.66 14.3 -10.32 17.6 -11 21 C-11.99 20.67 -12.98 20.34 -14 20 C-14 19.34 -14 18.68 -14 18 C-15.65 18.66 -17.3 19.32 -19 20 C-13.17371096 12.84198775 -6.5617015 6.47408234 0 0 Z " fill="#011231" transform="translate(151,170)"/>
<path d="M0 0 C0 3 0 3 -1.375 4.6875 C-3 6 -3 6 -5 6 C-5.33 6.99 -5.66 7.98 -6 9 C-5.34 9.33 -4.68 9.66 -4 10 C-4 9.34 -4 8.68 -4 8 C-3.34 8 -2.68 8 -2 8 C-1.34 6.68 -0.68 5.36 0 4 C1.32 4.66 2.64 5.32 4 6 C3.01 6.33 2.02 6.66 1 7 C0.26676204 9.01508358 0.26676204 9.01508358 0 11 C-0.66 11 -1.32 11 -2 11 C-2 11.66 -2 12.32 -2 13 C-3.258125 12.938125 -4.51625 12.87625 -5.8125 12.8125 C-9.16958979 12.76367078 -9.16958979 12.76367078 -12 14.5 C-12.33 14.995 -12.66 15.49 -13 16 C-13.66 15.67 -14.32 15.34 -15 15 C-10 10 -5 5 0 0 Z " fill="#ED630D" transform="translate(361,226)"/>
<path d="M0 0 C4.52615993 3.67832017 8.39424999 7.41086363 12 12 C9.03 11.505 9.03 11.505 6 11 C6 11.66 6 12.32 6 13 C6.66 13 7.32 13 8 13 C8 13.66 8 14.32 8 15 C6.68 14.67 5.36 14.34 4 14 C4 13.01 4 12.02 4 11 C3.34 11 2.68 11 2 11 C0.19769832 7.17010894 -0.19622241 4.21878192 0 0 Z " fill="#04020A" transform="translate(242,147)"/>
<path d="M0 0 C4.31730413 0.47409648 6.33647461 3.03396703 9.25 6.0625 C10.14203125 6.98160156 11.0340625 7.90070313 11.953125 8.84765625 C12.62859375 9.55792969 13.3040625 10.26820312 14 11 C12 12 12 12 8.875 11.0625 C7.451875 10.5365625 7.451875 10.5365625 6 10 C5.01 11.32 4.02 12.64 3 14 C3 12.68 3 11.36 3 10 C2.34 10 1.68 10 1 10 C1 9.34 1 8.68 1 8 C1.66 8 2.32 8 3 8 C3 6.68 3 5.36 3 4 C1.02 4 -0.96 4 -3 4 C-2.01 2.68 -1.02 1.36 0 0 Z " fill="#190702" transform="translate(302,114)"/>
<path d="M0 0 C0.66 0.33 1.32 0.66 2 1 C-0.46488778 3.53531315 -2.84675199 5.88595497 -5.6875 8 C-8.28406193 10.24567518 -8.81543722 11.84116591 -10 15 C-12.5595359 18.07144308 -14.18952318 19.11088874 -18 20 C-18.66 20.99 -19.32 21.98 -20 23 C-20.99 22.67 -21.98 22.34 -23 22 C-22.01 21.67 -21.02 21.34 -20 21 C-19.67 20.34 -19.34 19.68 -19 19 C-18 17 -18 17 -15 16 C-15 15.34 -15 14.68 -15 14 C-10.69767442 9.23255814 -10.69767442 9.23255814 -7 8 C-6.67 7.01 -6.34 6.02 -6 5 C-4.12382302 3.15500602 -2.07262391 1.6316401 0 0 Z " fill="#0F66C1" transform="translate(236,256)"/>
<path d="M0 0 C0.99 0 1.98 0 3 0 C2.63298988 3.30309104 1.86892198 4.12483621 -0.625 6.5 C-1.800625 7.7375 -1.800625 7.7375 -3 9 C-2.85528333 13.05206662 -0.23043155 15.07507965 2.5625 17.75 C3.38878906 18.54921875 4.21507812 19.3484375 5.06640625 20.171875 C5.70449219 20.77515625 6.34257812 21.3784375 7 22 C4 24 4 24 2 24 C2 22.68 2 21.36 2 20 C0.50657915 18.46689113 0.50657915 18.46689113 -1.4375 17.1875 C-4.56078582 14.72539364 -4.94121727 14.2429686 -5.9375 10.125 C-5.958125 9.09375 -5.97875 8.0625 -6 7 C-5.01 6.34 -4.02 5.68 -3 5 C-2.505 4.13375 -2.01 3.2675 -1.5 2.375 C-1.005 1.59125 -0.51 0.8075 0 0 Z " fill="#E56619" transform="translate(223,188)"/>
<path d="M0 0 C4.52615993 3.67832017 8.39424999 7.41086363 12 12 C8.7 11.67 5.4 11.34 2 11 C0.19769832 7.17010894 -0.19622241 4.21878192 0 0 Z " fill="#06010B" transform="translate(274,179)"/>
<path d="M0 0 C4.52615993 3.67832017 8.39424999 7.41086363 12 12 C8.7 11.67 5.4 11.34 2 11 C0.19769832 7.17010894 -0.19622241 4.21878192 0 0 Z " fill="#06010B" transform="translate(258,163)"/>
<path d="M0 0 C4.52615993 3.67832017 8.39424999 7.41086363 12 12 C8.7 11.67 5.4 11.34 2 11 C0.19769832 7.17010894 -0.19622241 4.21878192 0 0 Z " fill="#06010B" transform="translate(226,131)"/>
<path d="M0 0 C0.99 0.33 1.98 0.66 3 1 C2.09515208 2.15518918 1.1755794 3.29885406 0.25 4.4375 C-0.26046875 5.07558594 -0.7709375 5.71367187 -1.296875 6.37109375 C-3.23600972 8.2257249 -4.32776398 8.81937172 -7 9 C-9.51185394 6.8386373 -11.50981219 4.98037561 -13 2 C-10.36 1.67 -7.72 1.34 -5 1 C-5 2.32 -5 3.64 -5 5 C-4.34 5 -3.68 5 -3 5 C-3 4.34 -3 3.68 -3 3 C-1.5 1.375 -1.5 1.375 0 0 Z " fill="#200A02" transform="translate(309,274)"/>
<path d="M0 0 C3.79832675 0.54261811 5.69272487 1.95110073 8 5 C8.625 7.875 8.625 7.875 8 11 C6.32367573 13.42796644 4.55385637 15.49463053 2 17 C-0.203125 16.66015625 -0.203125 16.66015625 -2 16 C-1.04882866 14.8274869 -0.08882991 13.66212985 0.875 12.5 C1.40867187 11.8503125 1.94234375 11.200625 2.4921875 10.53125 C3.23855469 9.77328125 3.23855469 9.77328125 4 9 C4.66 9 5.32 9 6 9 C4.16172132 5.84866512 2.24027294 2.88035092 0 0 Z " fill="#0D72DF" transform="translate(287,191)"/>
<path d="M0 0 C0.66 0 1.32 0 2 0 C1.44295272 3.23087421 0.66812465 5.02361137 -2 7 C-3.32 7 -4.64 7 -6 7 C-6 7.66 -6 8.32 -6 9 C-7.98 9 -9.96 9 -12 9 C-10.02 6.36 -8.04 3.72 -6 1 C-3.525 1.99 -3.525 1.99 -1 3 C-0.67 2.01 -0.34 1.02 0 0 Z " fill="#01081B" transform="translate(252,263)"/>
<path d="M0 0 C0 3.47289374 -0.64169543 5.80798426 -2 9 C-4.58975241 10.8378888 -5.78481903 11 -9 11 C-9.33 12.32 -9.66 13.64 -10 15 C-11.65 15.33 -13.3 15.66 -15 16 C-10.30233025 10.33870569 -5.25276628 5.14771096 0 0 Z " fill="#011231" transform="translate(167,154)"/>
<path d="M0 0 C0 3.47289374 -0.64169543 5.80798426 -2 9 C-4.58975241 10.8378888 -5.78481903 11 -9 11 C-9.33 12.32 -9.66 13.64 -10 15 C-11.65 15.33 -13.3 15.66 -15 16 C-10.30233025 10.33870569 -5.25276628 5.14771096 0 0 Z " fill="#011231" transform="translate(183,138)"/>
<path d="M0 0 C0 3.47289374 -0.64169543 5.80798426 -2 9 C-4.58975241 10.8378888 -5.78481903 11 -9 11 C-9.33 12.32 -9.66 13.64 -10 15 C-11.65 15.33 -13.3 15.66 -15 16 C-10.30233025 10.33870569 -5.25276628 5.14771096 0 0 Z " fill="#011231" transform="translate(199,122)"/>
<path d="M0 0 C2.31 0 4.62 0 7 0 C3.0580583 4.88049925 -1.11950075 9.0580583 -6 13 C-6.33 12.01 -6.66 11.02 -7 10 C-6.21625 9.278125 -5.4325 8.55625 -4.625 7.8125 C-2.15587562 5.16700959 -1.06739722 3.39626389 0 0 Z " fill="#E9630D" transform="translate(330,269)"/>
<path d="M0 0 C2.31 0 4.62 0 7 0 C3.0580583 4.88049925 -1.11950075 9.0580583 -6 13 C-6.33 12.01 -6.66 11.02 -7 10 C-6.21625 9.278125 -5.4325 8.55625 -4.625 7.8125 C-2.15587562 5.16700959 -1.06739722 3.39626389 0 0 Z " fill="#E9630D" transform="translate(346,253)"/>
<path d="M0 0 C2.31 0 4.62 0 7 0 C3.0580583 4.88049925 -1.11950075 9.0580583 -6 13 C-6.33 12.01 -6.66 11.02 -7 10 C-6.21625 9.278125 -5.4325 8.55625 -4.625 7.8125 C-2.15587562 5.16700959 -1.06739722 3.39626389 0 0 Z " fill="#E9630D" transform="translate(362,237)"/>
<path d="M0 0 C4.52615993 3.67832017 8.39424999 7.41086363 12 12 C11.21625 11.835 10.4325 11.67 9.625 11.5 C7.11791961 10.9376293 7.11791961 10.9376293 5 11 C4.01 10.67 3.02 10.34 2 10 C2 9.34 2 8.68 2 8 C1.67 7.01 1.34 6.02 1 5 C0 2 0 2 0 0 Z " fill="#020D1F" transform="translate(210,115)"/>
<path d="M0 0 C2 3 2 3 2 5 C1.34 5 0.68 5 0 5 C0.33 6.32 0.66 7.64 1 9 C-1.97 8.505 -1.97 8.505 -5 8 C-5.33 9.32 -5.66 10.64 -6 12 C-6.99 11.01 -7.98 10.02 -9 9 C-6.03 6.03 -3.06 3.06 0 0 Z " fill="#0A74E6" transform="translate(133,169)"/>
<path d="M0 0 C2 3 2 3 2 5 C1.34 5 0.68 5 0 5 C0.33 6.32 0.66 7.64 1 9 C-1.97 8.505 -1.97 8.505 -5 8 C-5.33 9.32 -5.66 10.64 -6 12 C-6.99 11.01 -7.98 10.02 -9 9 C-6.03 6.03 -3.06 3.06 0 0 Z " fill="#0A74E6" transform="translate(149,153)"/>
<path d="M0 0 C2 3 2 3 2 5 C1.34 5 0.68 5 0 5 C0.33 6.32 0.66 7.64 1 9 C-1.97 8.505 -1.97 8.505 -5 8 C-5.33 9.32 -5.66 10.64 -6 12 C-6.99 11.01 -7.98 10.02 -9 9 C-6.03 6.03 -3.06 3.06 0 0 Z " fill="#0A74E6" transform="translate(165,137)"/>
<path d="M0 0 C1.5 1.3125 1.5 1.3125 3 3 C3 3.99 3 4.98 3 6 C3.61875 6.20625 4.2375 6.4125 4.875 6.625 C7.84653645 8.54775888 8.13024659 10.66594527 9 14 C4.82556637 10.49925018 0.6854506 7.02049157 -3 3 C-3 2.34 -3 1.68 -3 1 C-2.01 0.67 -1.02 0.34 0 0 Z " fill="#0E76EC" transform="translate(222,121)"/>
<path d="M0 0 C2 3 2 3 2 5 C1.34 5 0.68 5 0 5 C0.33 6.32 0.66 7.64 1 9 C-1.97 8.505 -1.97 8.505 -5 8 C-5.33 9.32 -5.66 10.64 -6 12 C-6.99 11.01 -7.98 10.02 -9 9 C-6.03 6.03 -3.06 3.06 0 0 Z " fill="#0A74E6" transform="translate(181,121)"/>
<path d="M0 0 C2 3 2 3 2 5 C1.34 5 0.68 5 0 5 C0.33 6.32 0.66 7.64 1 9 C-1.97 8.505 -1.97 8.505 -5 8 C-5.33 9.32 -5.66 10.64 -6 12 C-6.99 11.01 -7.98 10.02 -9 9 C-6.03 6.03 -3.06 3.06 0 0 Z " fill="#0A74E6" transform="translate(197,105)"/>
<path d="M0 0 C3.81684226 1.55500981 6.19195732 4.03595495 9 7 C7.25 10.875 7.25 10.875 5 12 C4.74476563 11.16855469 4.74476563 11.16855469 4.484375 10.3203125 C3.09174014 5.74877023 3.09174014 5.74877023 -0.1875 2.5 C-0.785625 2.335 -1.38375 2.17 -2 2 C-1.34 1.34 -0.68 0.68 0 0 Z " fill="#0D77E1" transform="translate(237,257)"/>
<path d="M0 0 C4.75 0.75 4.75 0.75 7 3 C7.886875 3.78375 8.77375 4.5675 9.6875 5.375 C10.450625 6.24125 11.21375 7.1075 12 8 C11.64453125 10.1640625 11.64453125 10.1640625 11 12 C9.16364422 10.19047409 7.33083792 8.37759362 5.5 6.5625 C4.97535156 6.04623047 4.45070313 5.52996094 3.91015625 4.99804688 C2.58775448 3.68423213 1.29164432 2.34406495 0 1 C0 0.67 0 0.34 0 0 Z " fill="#310D00" transform="translate(284,264)"/>
<path d="M0 0 C4.75 0.75 4.75 0.75 7 3 C7.886875 3.78375 8.77375 4.5675 9.6875 5.375 C10.450625 6.24125 11.21375 7.1075 12 8 C11.64453125 10.1640625 11.64453125 10.1640625 11 12 C9.16364422 10.19047409 7.33083792 8.37759362 5.5 6.5625 C4.97535156 6.04623047 4.45070313 5.52996094 3.91015625 4.99804688 C2.58775448 3.68423213 1.29164432 2.34406495 0 1 C0 0.67 0 0.34 0 0 Z " fill="#310D00" transform="translate(268,248)"/>
<path d="M0 0 C4.75 0.75 4.75 0.75 7 3 C7.886875 3.78375 8.77375 4.5675 9.6875 5.375 C10.450625 6.24125 11.21375 7.1075 12 8 C11.64453125 10.1640625 11.64453125 10.1640625 11 12 C9.16364422 10.19047409 7.33083792 8.37759362 5.5 6.5625 C4.97535156 6.04623047 4.45070312 5.52996094 3.91015625 4.99804688 C2.58775448 3.68423213 1.29164432 2.34406495 0 1 C0 0.67 0 0.34 0 0 Z " fill="#310D00" transform="translate(236,216)"/>
<path d="M0 0 C3.39192363 0.59283621 5.2107757 1.76743189 7.75 4.0625 C8.67039063 4.88427734 8.67039063 4.88427734 9.609375 5.72265625 C10.29773438 6.35494141 10.29773438 6.35494141 11 7 C10.67 7.66 10.34 8.32 10 9 C8.68 8.67 7.36 8.34 6 8 C6 7.01 6 6.02 6 5 C3.03 4.67 0.06 4.34 -3 4 C-2.01 2.68 -1.02 1.36 0 0 Z " fill="#0E6DD3" transform="translate(207,95)"/>
<path d="M0 0 C1.32 0.33 2.64 0.66 4 1 C-0.625 5.875 -0.625 5.875 -4 7 C-4 7.66 -4 8.32 -4 9 C-5.95927063 10.7143618 -7.95880212 12.38405168 -10 14 C-9.875 11.8125 -9.875 11.8125 -9 9 C-7.05651499 7.26776336 -5.05279996 5.60118397 -3 4 C-1.1873495 1.83779383 -1.1873495 1.83779383 0 0 Z " fill="#000E27" transform="translate(225,263)"/>
<path d="M0 0 C0.99 0 1.98 0 3 0 C2.42703238 3.59696337 1.10347171 5.25322795 -1.5 7.75 C-2.44359375 8.67039063 -2.44359375 8.67039063 -3.40625 9.609375 C-5 11 -5 11 -6 11 C-6.36458333 6.50347222 -6.36458333 6.50347222 -4.6875 4.1875 C-3 3 -3 3 0 3 C0 2.01 0 1.02 0 0 Z " fill="#F0630F" transform="translate(290,121)"/>
<path d="M0 0 C0.99 0.33 1.98 0.66 3 1 C-0.66666667 4.66666667 -4.33333333 8.33333333 -8 12 C-8.33 11.01 -8.66 10.02 -9 9 C-7.63671875 6.9921875 -7.63671875 6.9921875 -5.6875 4.875 C-5.05199219 4.17117187 -4.41648437 3.46734375 -3.76171875 2.7421875 C-2 1 -2 1 0 0 Z " fill="#260600" transform="translate(273,121)"/>
<path d="M0 0 C0 0.66 0 1.32 0 2 C0.66 2 1.32 2 2 2 C4.04169485 4.90548882 5 6.40142046 5 10 C4.54109375 9.48308594 4.0821875 8.96617188 3.609375 8.43359375 C2.99578125 7.77488281 2.3821875 7.11617188 1.75 6.4375 C1.14671875 5.77621094 0.5434375 5.11492187 -0.078125 4.43359375 C-1.87589199 2.7642292 -1.87589199 2.7642292 -4.046875 3.16015625 C-6.25722314 4.04082991 -6.25722314 4.04082991 -9 6 C-9 4.35 -9 2.7 -9 1 C-2.25 0 -2.25 0 0 0 Z " fill="#0F74E6" transform="translate(212,112)"/>
<path d="M0 0 C1 4 1 4 0 6 C0.99 6.33 1.98 6.66 3 7 C3 7.66 3 8.32 3 9 C-6 9 -6 9 -8 8 C-5.36 5.36 -2.72 2.72 0 0 Z " fill="#1E0404" transform="translate(407,199)"/>
<path d="M0 0 C0.99 0.33 1.98 0.66 3 1 C-0.63 4.63 -4.26 8.26 -8 12 C-8.33 11.01 -8.66 10.02 -9 9 C-7.890625 7.17578125 -7.890625 7.17578125 -6.25 5.3125 C-5.71890625 4.68988281 -5.1878125 4.06726563 -4.640625 3.42578125 C-3 2 -3 2 0 2 C0 1.34 0 0.68 0 0 Z " fill="#280700" transform="translate(225,169)"/>
<path d="M0 0 C0.33 1.32 0.66 2.64 1 4 C0.01 4.33 -0.98 4.66 -2 5 C-3.48182994 6.57033897 -3.48182994 6.57033897 -4.875 8.4375 C-7.31438661 11.41355166 -9.18269609 12.9895372 -13 14 C-8.88380164 9.08064098 -4.59589638 4.47352044 0 0 Z " fill="#001032" transform="translate(303,208)"/>
<path d="M0 0 C0.28125 2.29296875 0.28125 2.29296875 0 5 C-1.96875 6.80078125 -1.96875 6.80078125 -4.5 8.3125 C-5.3353125 8.82425781 -6.170625 9.33601562 -7.03125 9.86328125 C-7.6809375 10.23839844 -8.330625 10.61351562 -9 11 C-9.66 10.67 -10.32 10.34 -11 10 C-9.35718838 8.33035479 -7.71067239 6.6643536 -6.0625 5 C-5.14597656 4.071875 -4.22945312 3.14375 -3.28515625 2.1875 C-1 0 -1 0 0 0 Z " fill="#2A0D01" transform="translate(238,179)"/>
<path d="M0 0 C0.99 0.33 1.98 0.66 3 1 C2.01 1.495 2.01 1.495 1 2 C0.59270772 4.32156597 0.25561323 6.6568787 0 9 C-0.99 9.33 -1.98 9.66 -3 10 C-3 9.01 -3 8.02 -3 7 C-4.32 7.33 -5.64 7.66 -7 8 C-6.02133662 6.85373678 -5.04205413 5.70800212 -4.0625 4.5625 C-3.51722656 3.92441406 -2.97195312 3.28632812 -2.41015625 2.62890625 C-1.63204305 1.73008851 -0.84063472 0.84063472 0 0 Z " fill="#021028" transform="translate(207,114)"/>
<path d="M0 0 C0.33 0.66 0.66 1.32 1 2 C-0.175625 2.309375 -0.175625 2.309375 -1.375 2.625 C-4.25030455 3.81290675 -4.25030455 3.81290675 -5.5 6.875 C-6.33653807 9.99516501 -6.33653807 9.99516501 -4.625 12.375 C-4.08875 12.91125 -3.5525 13.4475 -3 14 C-4.65 13.67 -6.3 13.34 -8 13 C-8 10.36 -8 7.72 -8 5 C-7.01 5 -6.02 5 -5 5 C-5 4.01 -5 3.02 -5 2 C-3.35 1.34 -1.7 0.68 0 0 Z " fill="#001844" transform="translate(273,218)"/>
<path d="M0 0 C0.99 0.33 1.98 0.66 3 1 C-0.3 4.3 -3.6 7.6 -7 11 C-7.33 10.01 -7.66 9.02 -8 8 C-6.85546875 6.2109375 -6.85546875 6.2109375 -5.1875 4.375 C-4.64480469 3.76398438 -4.10210937 3.15296875 -3.54296875 2.5234375 C-2 1 -2 1 0 0 Z " fill="#280700" transform="translate(289,105)"/>
<path d="M0 0 C2.3125 -0.3125 2.3125 -0.3125 5 0 C6.6875 2.4375 6.6875 2.4375 8 5 C8.66 5.33 9.32 5.66 10 6 C9.67 7.32 9.34 8.64 9 10 C7.49702124 8.52386015 5.99768715 7.04400843 4.5 5.5625 C3.6646875 4.73878906 2.829375 3.91507812 1.96875 3.06640625 C0 1 0 1 0 0 Z " fill="#00143D" transform="translate(190,265)"/>
<path d="M0 0 C2.3125 -0.3125 2.3125 -0.3125 5 0 C6.6875 2.4375 6.6875 2.4375 8 5 C8.66 5.33 9.32 5.66 10 6 C9.67 7.32 9.34 8.64 9 10 C7.49702124 8.52386015 5.99768715 7.04400843 4.5 5.5625 C3.6646875 4.73878906 2.829375 3.91507813 1.96875 3.06640625 C0 1 0 1 0 0 Z " fill="#00143D" transform="translate(174,249)"/>
<path d="M0 0 C2.3125 -0.3125 2.3125 -0.3125 5 0 C6.6875 2.4375 6.6875 2.4375 8 5 C8.66 5.33 9.32 5.66 10 6 C9.67 7.32 9.34 8.64 9 10 C7.49702124 8.52386015 5.99768715 7.04400843 4.5 5.5625 C3.6646875 4.73878906 2.829375 3.91507813 1.96875 3.06640625 C0 1 0 1 0 0 Z " fill="#00143D" transform="translate(158,233)"/>
<path d="M0 0 C2.3125 -0.3125 2.3125 -0.3125 5 0 C6.6875 2.4375 6.6875 2.4375 8 5 C8.66 5.33 9.32 5.66 10 6 C9.67 7.32 9.34 8.64 9 10 C7.49702124 8.52386015 5.99768715 7.04400843 4.5 5.5625 C3.6646875 4.73878906 2.829375 3.91507813 1.96875 3.06640625 C0 1 0 1 0 0 Z " fill="#00143D" transform="translate(142,217)"/>
<path d="M0 0 C1.98 0 3.96 0 6 0 C6.33 1.98 6.66 3.96 7 6 C7.99 6 8.98 6 10 6 C9.67 7.32 9.34 8.64 9 10 C7.49702124 8.52386015 5.99768715 7.04400843 4.5 5.5625 C3.6646875 4.73878906 2.829375 3.91507813 1.96875 3.06640625 C0 1 0 1 0 0 Z " fill="#001639" transform="translate(126,201)"/>
<path d="M0 0 C4.29238623 1.65091778 6.8793915 4.73754566 10 8 C9.67 8.99 9.34 9.98 9 11 C8.38125 10.21625 7.7625 9.4325 7.125 8.625 C5.10141339 6.03162353 5.10141339 6.03162353 3 4 C0.52733235 4.34444881 0.52733235 4.34444881 -2 5 C-2.99 5 -3.98 5 -5 5 C-3.35 3.35 -1.7 1.7 0 0 Z " fill="#D06725" transform="translate(236,161)"/>
<path d="M0 0 C0.99 0.33 1.98 0.66 3 1 C0.03 3.97 -2.94 6.94 -6 10 C-6.33 8.68 -6.66 7.36 -7 6 C-5.6875 4.25 -5.6875 4.25 -4 3 C-3.34 3 -2.68 3 -2 3 C-2 2.34 -2 1.68 -2 1 C-1.34 0.67 -0.68 0.34 0 0 Z " fill="#390C00" transform="translate(319,265)"/>
<path d="M0 0 C0.99 0.33 1.98 0.66 3 1 C0.03 3.97 -2.94 6.94 -6 10 C-6.33 8.68 -6.66 7.36 -7 6 C-5.6875 4.25 -5.6875 4.25 -4 3 C-3.34 3 -2.68 3 -2 3 C-2 2.34 -2 1.68 -2 1 C-1.34 0.67 -0.68 0.34 0 0 Z " fill="#390C00" transform="translate(335,249)"/>
<path d="M0 0 C0.99 0.33 1.98 0.66 3 1 C0.03 3.97 -2.94 6.94 -6 10 C-6.33 8.68 -6.66 7.36 -7 6 C-5.6875 4.25 -5.6875 4.25 -4 3 C-3.34 3 -2.68 3 -2 3 C-2 2.34 -2 1.68 -2 1 C-1.34 0.67 -0.68 0.34 0 0 Z " fill="#390C00" transform="translate(351,233)"/>
<path d="M0 0 C0 3.86695678 -1.41909971 6.5088452 -3 10 C-4.98 10 -6.96 10 -9 10 C-8.06409496 8.8944811 -7.12620142 7.79064547 -6.1875 6.6875 C-5.66542969 6.07261719 -5.14335937 5.45773438 -4.60546875 4.82421875 C-3.12827531 3.14575321 -1.59960869 1.56117966 0 0 Z " fill="#010D2A" transform="translate(289,222)"/>
<path d="M0 0 C0.99 0.33 1.98 0.66 3 1 C0.03 3.97 -2.94 6.94 -6 10 C-6.33 8.68 -6.66 7.36 -7 6 C-5.6875 4.25 -5.6875 4.25 -4 3 C-3.34 3 -2.68 3 -2 3 C-2 2.34 -2 1.68 -2 1 C-1.34 0.67 -0.68 0.34 0 0 Z " fill="#390C00" transform="translate(367,217)"/>
<path d="M0 0 C1.12894876 0.93274109 2.25300876 1.87140122 3.375 2.8125 C4.00148437 3.33457031 4.62796875 3.85664063 5.2734375 4.39453125 C7 6 7 6 9 9 C8.236875 8.814375 7.47375 8.62875 6.6875 8.4375 C3.91032625 7.77180827 3.91032625 7.77180827 1 9 C1.020625 8.071875 1.04125 7.14375 1.0625 6.1875 C1.15769604 2.97713989 1.15769604 2.97713989 0 0 Z " fill="#1E0303" transform="translate(199,199)"/>
<path d="M0 0 C2.97 0.495 2.97 0.495 6 1 C6 2.32 6 3.64 6 5 C7.32 5.33 8.64 5.66 10 6 C9.67 7.32 9.34 8.64 9 10 C7.49702124 8.52386015 5.99768715 7.04400843 4.5 5.5625 C3.6646875 4.73878906 2.829375 3.91507813 1.96875 3.06640625 C0 1 0 1 0 0 Z " fill="#360E00" transform="translate(254,234)"/>
<path d="M0 0 C0.71484375 1.765625 0.71484375 1.765625 1 4 C-0.43359375 5.921875 -0.43359375 5.921875 -2.4375 7.75 C-3.09621094 8.36359375 -3.75492187 8.9771875 -4.43359375 9.609375 C-5.20896484 10.29773438 -5.20896484 10.29773438 -6 11 C-6.66 10.01 -7.32 9.02 -8 8 C-6.37660195 6.29115995 -4.70680947 4.62553283 -3 3 C-2.34 3 -1.68 3 -1 3 C-0.67 2.01 -0.34 1.02 0 0 Z " fill="#EA620D" transform="translate(395,207)"/>
<path d="M0 0 C2.68243901 0.38320557 4.09801411 1.07152381 6.3125 2.6875 C8 5 8 5 7.75 8.25 C7.5025 9.1575 7.255 10.065 7 11 C5.68 10.67 4.36 10.34 3 10 C3.99 9.67 4.98 9.34 6 9 C4.16172132 5.84866512 2.24027294 2.88035092 0 0 Z " fill="#146CD3" transform="translate(287,191)"/>
<path d="M0 0 C0.99 0.33 1.98 0.66 3 1 C0.36 3.64 -2.28 6.28 -5 9 C-5.66 8.01 -6.32 7.02 -7 6 C-5.90716423 4.96704564 -4.80029421 3.94892165 -3.6875 2.9375 C-3.07261719 2.36902344 -2.45773438 1.80054688 -1.82421875 1.21484375 C-0.92123047 0.61349609 -0.92123047 0.61349609 0 0 Z " fill="#270600" transform="translate(209,185)"/>
<path d="M0 0 C0.66 0 1.32 0 2 0 C2.20496094 0.55429688 2.40992188 1.10859375 2.62109375 1.6796875 C2.89050781 2.40414062 3.15992188 3.12859375 3.4375 3.875 C3.70433594 4.59429687 3.97117188 5.31359375 4.24609375 6.0546875 C4.97916854 8.03648845 4.97916854 8.03648845 6 10 C4.68 9.67 3.36 9.34 2 9 C2 8.34 2 7.68 2 7 C1.01 6.67 0.02 6.34 -1 6 C-1.042721 4.33388095 -1.04063832 2.66617115 -1 1 C-0.67 0.67 -0.34 0.34 0 0 Z " fill="#06010A" transform="translate(208,115)"/>
<path d="M0 0 C0.33 0 0.66 0 1 0 C1 1.98 1 3.96 1 6 C2.4540625 6.185625 2.4540625 6.185625 3.9375 6.375 C5.4534375 6.684375 5.4534375 6.684375 7 7 C7.33 7.66 7.66 8.32 8 9 C4.7 9 1.4 9 -2 9 C-1.34 6.03 -0.68 3.06 0 0 Z " fill="#000615" transform="translate(264,225)"/>
<path d="M0 0 C1.1055189 0.93590504 2.20935453 1.87379858 3.3125 2.8125 C3.92738281 3.33457031 4.54226563 3.85664063 5.17578125 4.39453125 C6.85424679 5.87172469 8.43882034 7.40039131 10 9 C9.01 9.33 8.02 9.66 7 10 C7 9.34 7 8.68 7 8 C5.5459375 7.5978125 5.5459375 7.5978125 4.0625 7.1875 C3.051875 6.795625 2.04125 6.40375 1 6 C0 3 0 3 0 0 Z " fill="#350C02" transform="translate(266,133)"/>
<path d="M0 0 C3.875 1.75 3.875 1.75 5 4 C4.01 4 3.02 4 2 4 C2 4.99 2 5.98 2 7 C1.01 6.67 0.02 6.34 -1 6 C-1 5.34 -1 4.68 -1 4 C-2.32 4.33 -3.64 4.66 -5 5 C-3.35 3.35 -1.7 1.7 0 0 Z " fill="#E06316" transform="translate(303,95)"/>
<path d="M0 0 C0 3.10551666 -0.5393715 4.35261084 -2 7 C-1.34 7 -0.68 7 0 7 C0.33 8.65 0.66 10.3 1 12 C-0.98 10.35 -2.96 8.7 -5 7 C-3.70700306 4.11562221 -2.34058637 2.12780579 0 0 Z " fill="#166ED0" transform="translate(271,221)"/>
<path d="M0 0 C0.33 0.66 0.66 1.32 1 2 C3.01669827 3.13350534 3.01669827 3.13350534 5 4 C5 5.65 5 7.3 5 9 C2.69 7.02 0.38 5.04 -2 3 C-1.34 2.01 -0.68 1.02 0 0 Z " fill="#E06616" transform="translate(201,196)"/>
<path d="M0 0 C2.9375 0.75 2.9375 0.75 6 2 C6.875 4.125 6.875 4.125 7 6 C7.99 6 8.98 6 10 6 C10.33 7.65 10.66 9.3 11 11 C6.86378916 7.6189962 3.18683431 4.33409466 0 0 Z " fill="#1F0201" transform="translate(387,177)"/>
<path d="M0 0 C2.9375 0.75 2.9375 0.75 6 2 C6.875 4.125 6.875 4.125 7 6 C7.99 6 8.98 6 10 6 C10.33 7.65 10.66 9.3 11 11 C6.86378916 7.6189962 3.18683431 4.33409466 0 0 Z " fill="#1F0201" transform="translate(371,161)"/>
<path d="M0 0 C2.9375 0.75 2.9375 0.75 6 2 C6.875 4.125 6.875 4.125 7 6 C7.99 6 8.98 6 10 6 C10.33 7.65 10.66 9.3 11 11 C6.86378916 7.6189962 3.18683431 4.33409466 0 0 Z " fill="#1F0201" transform="translate(355,145)"/>
<path d="M0 0 C0.99 0 1.98 0 3 0 C2.38722388 2.96175123 1.74627478 4.38058783 0 7 C-1.65 5.35 -3.3 3.7 -5 2 C-4.34 1.67 -3.68 1.34 -3 1 C-2.01 1.33 -1.02 1.66 0 2 C0 1.34 0 0.68 0 0 Z " fill="#00102F" transform="translate(259,138)"/>
<path d="M0 0 C2.9375 0.75 2.9375 0.75 6 2 C6.875 4.125 6.875 4.125 7 6 C7.99 6 8.98 6 10 6 C10.33 7.65 10.66 9.3 11 11 C6.86378916 7.6189962 3.18683431 4.33409466 0 0 Z " fill="#1F0201" transform="translate(339,129)"/>
<path d="M0 0 C2.9375 0.75 2.9375 0.75 6 2 C6.875 4.125 6.875 4.125 7 6 C7.99 6 8.98 6 10 6 C10.33 7.65 10.66 9.3 11 11 C6.86378916 7.6189962 3.18683431 4.33409466 0 0 Z " fill="#1F0201" transform="translate(323,113)"/>
<path d="M0 0 C2.9375 0.75 2.9375 0.75 6 2 C6.875 4.125 6.875 4.125 7 6 C7.99 6 8.98 6 10 6 C10.33 7.65 10.66 9.3 11 11 C6.86378916 7.6189962 3.18683431 4.33409466 0 0 Z " fill="#1F0201" transform="translate(307,97)"/>
<path d="M0 0 C0.66 1.32 1.32 2.64 2 4 C0.68 4.33 -0.64 4.66 -2 5 C-1.67 5.99 -1.34 6.98 -1 8 C-2.98 8 -4.96 8 -7 8 C-6.02133662 6.85373678 -5.04205413 5.70800212 -4.0625 4.5625 C-3.51722656 3.92441406 -2.97195313 3.28632813 -2.41015625 2.62890625 C-1.63204305 1.73008851 -0.84063472 0.84063472 0 0 Z " fill="#200501" transform="translate(326,280)"/>
<path d="M0 0 C0.66 0 1.32 0 2 0 C2.66 1.65 3.32 3.3 4 5 C2.68 5.99 1.36 6.98 0 8 C0 7.01 0 6.02 0 5 C-0.66 5 -1.32 5 -2 5 C-1.34 3.35 -0.68 1.7 0 0 Z " fill="#0A78EA" transform="translate(236,267)"/>
<path d="M0 0 C0.66 1.32 1.32 2.64 2 4 C0.68 4.33 -0.64 4.66 -2 5 C-1.67 5.99 -1.34 6.98 -1 8 C-2.98 8 -4.96 8 -7 8 C-6.02133662 6.85373678 -5.04205413 5.70800212 -4.0625 4.5625 C-3.51722656 3.92441406 -2.97195313 3.28632813 -2.41015625 2.62890625 C-1.63204305 1.73008851 -0.84063472 0.84063472 0 0 Z " fill="#200501" transform="translate(342,264)"/>
<path d="M0 0 C0.66 1.32 1.32 2.64 2 4 C0.68 4.33 -0.64 4.66 -2 5 C-1.67 5.99 -1.34 6.98 -1 8 C-2.98 8 -4.96 8 -7 8 C-6.02133662 6.85373678 -5.04205413 5.70800212 -4.0625 4.5625 C-3.51722656 3.92441406 -2.97195313 3.28632813 -2.41015625 2.62890625 C-1.63204305 1.73008851 -0.84063472 0.84063472 0 0 Z " fill="#200501" transform="translate(358,248)"/>
<path d="M0 0 C0.66 1.32 1.32 2.64 2 4 C0.68 4.33 -0.64 4.66 -2 5 C-1.67 5.99 -1.34 6.98 -1 8 C-2.98 8 -4.96 8 -7 8 C-6.02133662 6.85373678 -5.04205413 5.70800212 -4.0625 4.5625 C-3.51722656 3.92441406 -2.97195313 3.28632813 -2.41015625 2.62890625 C-1.63204305 1.73008851 -0.84063472 0.84063472 0 0 Z " fill="#200501" transform="translate(374,232)"/>
<path d="M0 0 C0.66 1.32 1.32 2.64 2 4 C0.68 4.33 -0.64 4.66 -2 5 C-1.67 5.99 -1.34 6.98 -1 8 C-2.98 8 -4.96 8 -7 8 C-6.02133662 6.85373678 -5.04205413 5.70800212 -4.0625 4.5625 C-3.51722656 3.92441406 -2.97195313 3.28632813 -2.41015625 2.62890625 C-1.63204305 1.73008851 -0.84063472 0.84063472 0 0 Z " fill="#200501" transform="translate(390,216)"/>
<path d="M0 0 C0.33 0.99 0.66 1.98 1 3 C-0.2065625 4.11375 -0.2065625 4.11375 -1.4375 5.25 C-3.76988591 7.75304829 -4.63534394 8.7180955 -5 12 C-6.65 11.67 -8.3 11.34 -10 11 C-9.278125 10.29875 -8.55625 9.5975 -7.8125 8.875 C-5.00176187 6.07229255 -2.50483774 3.07737208 0 0 Z " fill="#DC6018" transform="translate(388,198)"/>
<path d="M0 0 C2.71675995 0.36712972 4.61063713 0.72744599 6.875 2.3125 C7.431875 3.1478125 7.431875 3.1478125 8 4 C7.5703125 6.10546875 7.5703125 6.10546875 7 8 C5.83035398 6.8572081 4.66435444 5.71068285 3.5 4.5625 C2.8503125 3.92441406 2.200625 3.28632813 1.53125 2.62890625 C0 1 0 1 0 0 Z " fill="#340D00" transform="translate(224,204)"/>
<path d="M0 0 C1.24546405 2.49092811 0.7767578 3.41080733 0 6 C-0.928125 6.12375 -0.928125 6.12375 -1.875 6.25 C-4.18437567 6.81258459 -4.18437567 6.81258459 -5.25 9.0625 C-5.4975 9.701875 -5.745 10.34125 -6 11 C-6.71484375 9.234375 -6.71484375 9.234375 -7 7 C-5.56640625 5.078125 -5.56640625 5.078125 -3.5625 3.25 C-2.90378906 2.63640625 -2.24507812 2.0228125 -1.56640625 1.390625 C-1.04949219 0.93171875 -0.53257812 0.4728125 0 0 Z " fill="#001B3E" transform="translate(131,190)"/>
<path d="M0 0 C0.66 0.33 1.32 0.66 2 1 C2 1.66 2 2.32 2 3 C0.02 3.33 -1.96 3.66 -4 4 C-4 4.99 -4 5.98 -4 7 C-4.99 7 -5.98 7 -7 7 C-7 6.01 -7 5.02 -7 4 C-1.7265625 0.77734375 -1.7265625 0.77734375 0 0 Z " fill="#06020A" transform="translate(236,185)"/>
<path d="M0 0 C1.0326802 2.78823655 1.04509293 3.8677274 0.0625 6.75 C-0.288125 7.4925 -0.63875 8.235 -1 9 C-2.32 7.68 -3.64 6.36 -5 5 C-3.35 3.35 -1.7 1.7 0 0 Z " fill="#0E6DD3" transform="translate(109,193)"/>
<path d="M0 0 C1.14926266 0.95421808 2.29430541 1.91352045 3.4375 2.875 C4.07558594 3.40867188 4.71367187 3.94234375 5.37109375 4.4921875 C7 6 7 6 8 8 C5.64828869 7.40138258 3.3140622 6.73075648 1 6 C0.33333333 4.66666667 -0.33333333 3.33333333 -1 2 C-0.67 1.34 -0.34 0.68 0 0 Z " fill="#2F0E02" transform="translate(372,182)"/>
<path d="M0 0 C2.64 0.66 5.28 1.32 8 2 C8 3.98 8 5.96 8 8 C6.85073734 7.04578192 5.70569459 6.08647955 4.5625 5.125 C3.92441406 4.59132812 3.28632813 4.05765625 2.62890625 3.5078125 C1 2 1 2 0 0 Z " fill="#0F75EC" transform="translate(271,175)"/>
<path d="M0 0 C1.14926266 0.95421808 2.29430541 1.91352045 3.4375 2.875 C4.07558594 3.40867188 4.71367187 3.94234375 5.37109375 4.4921875 C7 6 7 6 8 8 C5.64828869 7.40138258 3.3140622 6.73075648 1 6 C0.33333333 4.66666667 -0.33333333 3.33333333 -1 2 C-0.67 1.34 -0.34 0.68 0 0 Z " fill="#2F0E02" transform="translate(356,166)"/>
<path d="M0 0 C2.64 0.66 5.28 1.32 8 2 C8 3.98 8 5.96 8 8 C6.85073734 7.04578192 5.70569459 6.08647955 4.5625 5.125 C3.92441406 4.59132812 3.28632813 4.05765625 2.62890625 3.5078125 C1 2 1 2 0 0 Z " fill="#0F75EC" transform="translate(255,159)"/>
<path d="M0 0 C1.14926266 0.95421808 2.29430541 1.91352045 3.4375 2.875 C4.07558594 3.40867188 4.71367187 3.94234375 5.37109375 4.4921875 C7 6 7 6 8 8 C5.64828869 7.40138258 3.3140622 6.73075648 1 6 C0.33333333 4.66666667 -0.33333333 3.33333333 -1 2 C-0.67 1.34 -0.34 0.68 0 0 Z " fill="#2F0E02" transform="translate(340,150)"/>
<path d="M0 0 C1.14926266 0.95421808 2.29430541 1.91352045 3.4375 2.875 C4.07558594 3.40867188 4.71367187 3.94234375 5.37109375 4.4921875 C7 6 7 6 8 8 C5.64828869 7.40138258 3.3140622 6.73075648 1 6 C0.33333333 4.66666667 -0.33333333 3.33333333 -1 2 C-0.67 1.34 -0.34 0.68 0 0 Z " fill="#2F0E02" transform="translate(324,134)"/>
<path d="M0 0 C0.33 0.66 0.66 1.32 1 2 C1.66 2.33 2.32 2.66 3 3 C2.4225 3.061875 1.845 3.12375 1.25 3.1875 C-1.25280694 3.86989878 -1.25280694 3.86989878 -3 6.5 C-5 9 -5 9 -7.25 9.8125 C-7.8275 9.874375 -8.405 9.93625 -9 10 C-8.67 9.34 -8.34 8.68 -8 8 C-7.34 8 -6.68 8 -6 8 C-5.67 7.01 -5.34 6.02 -5 5 C-4.34 5 -3.68 5 -3 5 C-2.690625 4.360625 -2.38125 3.72125 -2.0625 3.0625 C-1 1 -1 1 0 0 Z " fill="#105DB7" transform="translate(283,208)"/>
<path d="M0 0 C0.99 0.33 1.98 0.66 3 1 C2.27683594 1.61488281 2.27683594 1.61488281 1.5390625 2.2421875 C0.90742188 2.78101563 0.27578125 3.31984375 -0.375 3.875 C-1.00148438 4.40867188 -1.62796875 4.94234375 -2.2734375 5.4921875 C-3.55836651 6.61432007 -4.79371975 7.79371975 -6 9 C-5.67 7.35 -5.34 5.7 -5 4 C-4.01 3.67 -3.02 3.34 -2 3 C-2 2.34 -2 1.68 -2 1 C-1.34 0.67 -0.68 0.34 0 0 Z " fill="#001230" transform="translate(285,204)"/>
<path d="M0 0 C1.24546405 2.49092811 0.7767578 3.41080733 0 6 C0.66 6 1.32 6 2 6 C1.67 7.32 1.34 8.64 1 10 C-1.0625 8.25 -1.0625 8.25 -3 6 C-2.82246387 2.98188578 -2.16264785 2.16264785 0 0 Z " fill="#420E00" transform="translate(222,194)"/>
<path d="M0 0 C4.75 0.75 4.75 0.75 7 3 C6.67 3.99 6.34 4.98 6 6 C6.66 6 7.32 6 8 6 C7.67 6.66 7.34 7.32 7 8 C4.35247996 5.42215154 2.05567935 3.08351902 0 0 Z " fill="#021638" transform="translate(300,185)"/>
<path d="M0 0 C2.31 1.98 4.62 3.96 7 6 C5.33333333 6 3.66666667 6 2 6 C0.66216607 6.31478446 -0.67203709 6.64587656 -2 7 C-1.67 6.01 -1.34 5.02 -1 4 C-0.34 4 0.32 4 1 4 C0.67 2.68 0.34 1.36 0 0 Z " fill="#E06010" transform="translate(384,175)"/>
<path d="M0 0 C4.75 0.75 4.75 0.75 7 3 C6.67 3.99 6.34 4.98 6 6 C6.66 6 7.32 6 8 6 C7.67 6.66 7.34 7.32 7 8 C4.35247996 5.42215154 2.05567935 3.08351902 0 0 Z " fill="#021638" transform="translate(284,169)"/>
<path d="M0 0 C2.31 1.98 4.62 3.96 7 6 C5.33333333 6 3.66666667 6 2 6 C0.66216607 6.31478446 -0.67203709 6.64587656 -2 7 C-1.67 6.01 -1.34 5.02 -1 4 C-0.34 4 0.32 4 1 4 C0.67 2.68 0.34 1.36 0 0 Z " fill="#E06010" transform="translate(368,159)"/>
<path d="M0 0 C4.75 0.75 4.75 0.75 7 3 C6.67 3.99 6.34 4.98 6 6 C6.66 6 7.32 6 8 6 C7.67 6.66 7.34 7.32 7 8 C4.35247996 5.42215154 2.05567935 3.08351902 0 0 Z " fill="#021638" transform="translate(268,153)"/>
<path d="M0 0 C2.31 1.98 4.62 3.96 7 6 C5.33333333 6 3.66666667 6 2 6 C0.66216607 6.31478446 -0.67203709 6.64587656 -2 7 C-1.67 6.01 -1.34 5.02 -1 4 C-0.34 4 0.32 4 1 4 C0.67 2.68 0.34 1.36 0 0 Z " fill="#E06010" transform="translate(352,143)"/>
<path d="M0 0 C2.31 1.98 4.62 3.96 7 6 C5.33333333 6 3.66666667 6 2 6 C0.66216607 6.31478446 -0.67203709 6.64587656 -2 7 C-1.67 6.01 -1.34 5.02 -1 4 C-0.34 4 0.32 4 1 4 C0.67 2.68 0.34 1.36 0 0 Z " fill="#E06010" transform="translate(336,127)"/>
<path d="M0 0 C4.75 0.75 4.75 0.75 7 3 C6.67 3.99 6.34 4.98 6 6 C6.66 6 7.32 6 8 6 C7.67 6.66 7.34 7.32 7 8 C4.35247996 5.42215154 2.05567935 3.08351902 0 0 Z " fill="#021638" transform="translate(236,121)"/>
<path d="M0 0 C2.31 1.98 4.62 3.96 7 6 C5.33333333 6 3.66666667 6 2 6 C0.66216607 6.31478446 -0.67203709 6.64587656 -2 7 C-1.67 6.01 -1.34 5.02 -1 4 C-0.34 4 0.32 4 1 4 C0.67 2.68 0.34 1.36 0 0 Z " fill="#E06010" transform="translate(320,111)"/>
<path d="M0 0 C4.75 0.75 4.75 0.75 7 3 C6.67 3.99 6.34 4.98 6 6 C6.66 6 7.32 6 8 6 C7.67 6.66 7.34 7.32 7 8 C4.35247996 5.42215154 2.05567935 3.08351902 0 0 Z " fill="#021638" transform="translate(220,105)"/>
<path d="M0 0 C1.98 1.65 3.96 3.3 6 5 C3.32916926 6.33541537 0.92701445 6 -2 6 C-1.49396008 3.83125748 -1.00016187 2.00032373 0 0 Z " fill="#200100" transform="translate(256,256)"/>
<path d="M0 0 C0 1.98 0 3.96 0 6 C-0.99 5.67 -1.98 5.34 -3 5 C-3 4.34 -3 3.68 -3 3 C-4.65 3.66 -6.3 4.32 -8 5 C-5.72541886 1.64228499 -4.30291326 0 0 0 Z " fill="#010B20" transform="translate(140,185)"/>
<path d="M0 0 C2.64 1.98 5.28 3.96 8 6 C7.67 6.66 7.34 7.32 7 8 C5.68 7.67 4.36 7.34 3 7 C3 6.01 3 5.02 3 4 C1.35 4 -0.3 4 -2 4 C-1.34 3.67 -0.68 3.34 0 3 C0 2.01 0 1.02 0 0 Z " fill="#0D6CD1" transform="translate(290,176)"/>
<path d="M0 0 C2.64 1.98 5.28 3.96 8 6 C7.67 6.66 7.34 7.32 7 8 C5.68 7.67 4.36 7.34 3 7 C3 6.01 3 5.02 3 4 C1.35 4 -0.3 4 -2 4 C-1.34 3.67 -0.68 3.34 0 3 C0 2.01 0 1.02 0 0 Z " fill="#0D6CD1" transform="translate(274,160)"/>
<path d="M0 0 C2.64 1.98 5.28 3.96 8 6 C7.67 6.66 7.34 7.32 7 8 C5.68 7.67 4.36 7.34 3 7 C3 6.01 3 5.02 3 4 C1.35 4 -0.3 4 -2 4 C-1.34 3.67 -0.68 3.34 0 3 C0 2.01 0 1.02 0 0 Z " fill="#0D6CD1" transform="translate(258,144)"/>
<path d="M0 0 C2.64 1.98 5.28 3.96 8 6 C7.67 6.66 7.34 7.32 7 8 C5.68 7.67 4.36 7.34 3 7 C3 6.01 3 5.02 3 4 C1.35 4 -0.3 4 -2 4 C-1.34 3.67 -0.68 3.34 0 3 C0 2.01 0 1.02 0 0 Z " fill="#0D6CD1" transform="translate(242,128)"/>
<path d="M0 0 C2.64 1.98 5.28 3.96 8 6 C7.67 6.66 7.34 7.32 7 8 C5.68 7.67 4.36 7.34 3 7 C3 6.01 3 5.02 3 4 C1.35 4 -0.3 4 -2 4 C-1.34 3.67 -0.68 3.34 0 3 C0 2.01 0 1.02 0 0 Z " fill="#0D6CD1" transform="translate(226,112)"/>
<path d="M0 0 C1.14926266 0.95421808 2.29430541 1.91352045 3.4375 2.875 C4.07558594 3.40867187 4.71367187 3.94234375 5.37109375 4.4921875 C7 6 7 6 8 8 C6.68 8.33 5.36 8.66 4 9 C4 8.01 4 7.02 4 6 C3.01 5.67 2.02 5.34 1 5 C0.67 3.35 0.34 1.7 0 0 Z " fill="#00112B" transform="translate(200,295)"/>
<path d="M0 0 C1.14926266 0.95421808 2.29430541 1.91352045 3.4375 2.875 C4.07558594 3.40867187 4.71367187 3.94234375 5.37109375 4.4921875 C7 6 7 6 8 8 C6.68 8.33 5.36 8.66 4 9 C4 8.01 4 7.02 4 6 C3.01 5.67 2.02 5.34 1 5 C0.67 3.35 0.34 1.7 0 0 Z " fill="#00112C" transform="translate(184,279)"/>
<path d="M0 0 C0.99 0 1.98 0 3 0 C3 0.66 3 1.32 3 2 C1 4 1 4 -2 5 C-2 5.66 -2 6.32 -2 7 C-2.66 7 -3.32 7 -4 7 C-4 5.68 -4 4.36 -4 3 C-3.01 3 -2.02 3 -1 3 C-0.67 2.01 -0.34 1.02 0 0 Z " fill="#010312" transform="translate(308,272)"/>
<path d="M0 0 C1.14926266 0.95421808 2.29430541 1.91352045 3.4375 2.875 C4.07558594 3.40867187 4.71367187 3.94234375 5.37109375 4.4921875 C7 6 7 6 8 8 C6.68 8.33 5.36 8.66 4 9 C4 8.01 4 7.02 4 6 C3.01 5.67 2.02 5.34 1 5 C0.67 3.35 0.34 1.7 0 0 Z " fill="#00112C" transform="translate(168,263)"/>
<path d="M0 0 C1.14926266 0.95421808 2.29430541 1.91352045 3.4375 2.875 C4.07558594 3.40867188 4.71367187 3.94234375 5.37109375 4.4921875 C7 6 7 6 8 8 C6.68 8.33 5.36 8.66 4 9 C4 8.01 4 7.02 4 6 C3.01 5.67 2.02 5.34 1 5 C0.67 3.35 0.34 1.7 0 0 Z " fill="#00112C" transform="translate(152,247)"/>
<path d="M0 0 C1.14926266 0.95421808 2.29430541 1.91352045 3.4375 2.875 C4.07558594 3.40867188 4.71367187 3.94234375 5.37109375 4.4921875 C7 6 7 6 8 8 C6.68 8.33 5.36 8.66 4 9 C4 8.01 4 7.02 4 6 C3.01 5.67 2.02 5.34 1 5 C0.67 3.35 0.34 1.7 0 0 Z " fill="#00112C" transform="translate(136,231)"/>
<path d="M0 0 C1.14926266 0.95421808 2.29430541 1.91352045 3.4375 2.875 C4.07558594 3.40867188 4.71367188 3.94234375 5.37109375 4.4921875 C7 6 7 6 8 8 C6.68 8.33 5.36 8.66 4 9 C4 8.01 4 7.02 4 6 C3.01 5.67 2.02 5.34 1 5 C0.67 3.35 0.34 1.7 0 0 Z " fill="#00112C" transform="translate(120,215)"/>
<path d="M0 0 C1.98 1.65 3.96 3.3 6 5 C5.01 5.66 4.02 6.32 3 7 C2.01 6.67 1.02 6.34 0 6 C0 4.02 0 2.04 0 0 Z " fill="#021127" transform="translate(274,179)"/>
<path d="M0 0 C1.98 1.65 3.96 3.3 6 5 C5.01 5.66 4.02 6.32 3 7 C2.01 6.67 1.02 6.34 0 6 C0 4.02 0 2.04 0 0 Z " fill="#021127" transform="translate(258,163)"/>
<path d="M0 0 C1.98 1.65 3.96 3.3 6 5 C5.01 5.66 4.02 6.32 3 7 C2.01 6.67 1.02 6.34 0 6 C0 4.02 0 2.04 0 0 Z " fill="#021127" transform="translate(242,147)"/>
<path d="M0 0 C1.98 1.65 3.96 3.3 6 5 C5.01 5.66 4.02 6.32 3 7 C2.01 6.67 1.02 6.34 0 6 C0 4.02 0 2.04 0 0 Z " fill="#021127" transform="translate(226,131)"/>
<path d="M0 0 C1.14926266 0.95421808 2.29430541 1.91352045 3.4375 2.875 C4.07558594 3.40867187 4.71367187 3.94234375 5.37109375 4.4921875 C7 6 7 6 8 8 C6.35 7.67 4.7 7.34 3 7 C3 6.01 3 5.02 3 4 C1.68 4 0.36 4 -1 4 C-0.67 2.68 -0.34 1.36 0 0 Z " fill="#340F01" transform="translate(308,118)"/>
<path d="M0 0 C0 3 0 3 -2.3125 5.5625 C-5 8 -5 8 -8 10 C-6.34908222 5.70761377 -3.26245434 3.1206085 0 0 Z " fill="#EDEDED" transform="translate(189,357)"/>
<path d="M0 0 C1.14926266 0.95421808 2.29430541 1.91352045 3.4375 2.875 C4.07558594 3.40867188 4.71367187 3.94234375 5.37109375 4.4921875 C7 6 7 6 8 8 C7.01 8.33 6.02 8.66 5 9 C1.9083091 6.47043472 1.09068668 3.77545388 0 0 Z " fill="#D95D10" transform="translate(392,183)"/>
<path d="M0 0 C1.14926266 0.95421808 2.29430541 1.91352045 3.4375 2.875 C4.07558594 3.40867188 4.71367187 3.94234375 5.37109375 4.4921875 C7 6 7 6 8 8 C7.01 8.33 6.02 8.66 5 9 C1.9083091 6.47043472 1.09068668 3.77545388 0 0 Z " fill="#D95D10" transform="translate(376,167)"/>
<path d="M0 0 C1.14926266 0.95421808 2.29430541 1.91352045 3.4375 2.875 C4.07558594 3.40867188 4.71367187 3.94234375 5.37109375 4.4921875 C7 6 7 6 8 8 C7.01 8.33 6.02 8.66 5 9 C1.9083091 6.47043472 1.09068668 3.77545388 0 0 Z " fill="#D95D10" transform="translate(360,151)"/>
<path d="M0 0 C1.14926266 0.95421808 2.29430541 1.91352045 3.4375 2.875 C4.07558594 3.40867188 4.71367187 3.94234375 5.37109375 4.4921875 C7 6 7 6 8 8 C7.01 8.33 6.02 8.66 5 9 C1.9083091 6.47043472 1.09068668 3.77545388 0 0 Z " fill="#D95D10" transform="translate(344,135)"/>
<path d="M0 0 C1.14926266 0.95421808 2.29430541 1.91352045 3.4375 2.875 C4.07558594 3.40867187 4.71367187 3.94234375 5.37109375 4.4921875 C7 6 7 6 8 8 C7.01 8.33 6.02 8.66 5 9 C1.9083091 6.47043472 1.09068668 3.77545388 0 0 Z " fill="#D95D10" transform="translate(328,119)"/>
<path d="M0 0 C1.14926266 0.95421808 2.29430541 1.91352045 3.4375 2.875 C4.07558594 3.40867187 4.71367187 3.94234375 5.37109375 4.4921875 C7 6 7 6 8 8 C7.01 8.33 6.02 8.66 5 9 C1.9083091 6.47043472 1.09068668 3.77545388 0 0 Z " fill="#D95D10" transform="translate(312,103)"/>
<path d="M0 0 C0.66 1.32 1.32 2.64 2 4 C1.401875 4.103125 0.80375 4.20625 0.1875 4.3125 C-2.28243264 5.08876455 -3.32251235 6.07088921 -5 8 C-5.66 7.67 -6.32 7.34 -7 7 C-4.69 4.69 -2.38 2.38 0 0 Z " fill="#270600" transform="translate(318,288)"/>
<path d="M0 0 C0.99 0 1.98 0 3 0 C1.95125002 2.62187494 1.35068687 3.79371361 -1.125 5.25 C-1.74375 5.4975 -2.3625 5.745 -3 6 C-2.42655063 3.13275314 -2.1385485 2.1385485 0 0 Z " fill="#000A20" transform="translate(225,286)"/>
<path d="M0 0 C2.97 0.495 2.97 0.495 6 1 C6.33 2.98 6.66 4.96 7 7 C3.00003714 5.66667905 2.16217663 3.5042173 0 0 Z " fill="#086ACD" transform="translate(188,282)"/>
<path d="M0 0 C0.99 0 1.98 0 3 0 C3 0.66 3 1.32 3 2 C4.32 2.33 5.64 2.66 7 3 C5.68 3.99 4.36 4.98 3 6 C1.5 4.6875 1.5 4.6875 0 3 C0 2.01 0 1.02 0 0 Z " fill="#0A77E6" transform="translate(227,275)"/>
<path d="M0 0 C0.66 1.32 1.32 2.64 2 4 C1.401875 4.103125 0.80375 4.20625 0.1875 4.3125 C-2.28243264 5.08876455 -3.32251235 6.07088921 -5 8 C-5.66 7.67 -6.32 7.34 -7 7 C-4.69 4.69 -2.38 2.38 0 0 Z " fill="#270600" transform="translate(334,272)"/>
<path d="M0 0 C2.97 0.495 2.97 0.495 6 1 C6.33 2.98 6.66 4.96 7 7 C3.00003714 5.66667905 2.16217663 3.5042173 0 0 Z " fill="#086ACD" transform="translate(172,266)"/>
<path d="M0 0 C0.66 1.32 1.32 2.64 2 4 C1.401875 4.103125 0.80375 4.20625 0.1875 4.3125 C-2.28243264 5.08876455 -3.32251235 6.07088921 -5 8 C-5.66 7.67 -6.32 7.34 -7 7 C-4.69 4.69 -2.38 2.38 0 0 Z " fill="#270600" transform="translate(350,256)"/>
<path d="M0 0 C0.99 0.33 1.98 0.66 3 1 C1.35 2.65 -0.3 4.3 -2 6 C-2.12375 5.360625 -2.2475 4.72125 -2.375 4.0625 C-2.684375 3.0415625 -2.684375 3.0415625 -3 2 C-3.66 1.67 -4.32 1.34 -5 1 C-4.01 1 -3.02 1 -2 1 C-1.67 1.33 -1.34 1.66 -1 2 C-0.67 1.34 -0.34 0.68 0 0 Z " fill="#210903" transform="translate(325,258)"/>
<path d="M0 0 C2.97 0.495 2.97 0.495 6 1 C6.33 2.98 6.66 4.96 7 7 C3.00003714 5.66667905 2.16217663 3.5042173 0 0 Z " fill="#086ACD" transform="translate(156,250)"/>
<path d="M0 0 C0.66 1.32 1.32 2.64 2 4 C1.401875 4.103125 0.80375 4.20625 0.1875 4.3125 C-2.28243264 5.08876455 -3.32251235 6.07088921 -5 8 C-5.66 7.67 -6.32 7.34 -7 7 C-4.69 4.69 -2.38 2.38 0 0 Z " fill="#270600" transform="translate(366,240)"/>
<path d="M0 0 C0.99 0.33 1.98 0.66 3 1 C1.35 2.65 -0.3 4.3 -2 6 C-2.12375 5.360625 -2.2475 4.72125 -2.375 4.0625 C-2.684375 3.0415625 -2.684375 3.0415625 -3 2 C-3.66 1.67 -4.32 1.34 -5 1 C-4.01 1 -3.02 1 -2 1 C-1.67 1.33 -1.34 1.66 -1 2 C-0.67 1.34 -0.34 0.68 0 0 Z " fill="#210903" transform="translate(341,242)"/>
<path d="M0 0 C0.33 0.66 0.66 1.32 1 2 C0.0625 4.125 0.0625 4.125 -1 6 C-2.65 6 -4.3 6 -6 6 C-6.33 4.68 -6.66 3.36 -7 2 C-6.401875 2.226875 -5.80375 2.45375 -5.1875 2.6875 C-4.465625 2.790625 -3.74375 2.89375 -3 3 C-1.22809091 1.64555699 -1.22809091 1.64555699 0 0 Z " fill="#001235" transform="translate(279,232)"/>
<path d="M0 0 C2.97 0.495 2.97 0.495 6 1 C6.33 2.98 6.66 4.96 7 7 C3.00003714 5.66667905 2.16217663 3.5042173 0 0 Z " fill="#086ACD" transform="translate(140,234)"/>
<path d="M0 0 C0.66 1.32 1.32 2.64 2 4 C1.401875 4.103125 0.80375 4.20625 0.1875 4.3125 C-2.28243264 5.08876455 -3.32251235 6.07088921 -5 8 C-5.66 7.67 -6.32 7.34 -7 7 C-4.69 4.69 -2.38 2.38 0 0 Z " fill="#270600" transform="translate(382,224)"/>
<path d="M0 0 C0.99 0.33 1.98 0.66 3 1 C1.35 2.65 -0.3 4.3 -2 6 C-2.12375 5.360625 -2.2475 4.72125 -2.375 4.0625 C-2.684375 3.0415625 -2.684375 3.0415625 -3 2 C-3.66 1.67 -4.32 1.34 -5 1 C-4.01 1 -3.02 1 -2 1 C-1.67 1.33 -1.34 1.66 -1 2 C-0.67 1.34 -0.34 0.68 0 0 Z " fill="#210903" transform="translate(357,226)"/>
<path d="M0 0 C2.97 0.495 2.97 0.495 6 1 C6.33 2.98 6.66 4.96 7 7 C3.00003714 5.66667905 2.16217663 3.5042173 0 0 Z " fill="#086ACD" transform="translate(124,218)"/>
<path d="M0 0 C0.99 0 1.98 0 3 0 C3 0.66 3 1.32 3 2 C4.32 2.33 5.64 2.66 7 3 C5.68 3.99 4.36 4.98 3 6 C1.5 4.6875 1.5 4.6875 0 3 C0 2.01 0 1.02 0 0 Z " fill="#0A77E6" transform="translate(291,211)"/>
<path d="M0 0 C0.66 1.32 1.32 2.64 2 4 C1.401875 4.103125 0.80375 4.20625 0.1875 4.3125 C-2.28243264 5.08876455 -3.32251235 6.07088921 -5 8 C-5.66 7.67 -6.32 7.34 -7 7 C-4.69 4.69 -2.38 2.38 0 0 Z " fill="#270600" transform="translate(398,208)"/>
<path d="M0 0 C0.99 0.33 1.98 0.66 3 1 C1.35 2.65 -0.3 4.3 -2 6 C-2.12375 5.360625 -2.2475 4.72125 -2.375 4.0625 C-2.684375 3.0415625 -2.684375 3.0415625 -3 2 C-3.66 1.67 -4.32 1.34 -5 1 C-4.01 1 -3.02 1 -2 1 C-1.67 1.33 -1.34 1.66 -1 2 C-0.67 1.34 -0.34 0.68 0 0 Z " fill="#210903" transform="translate(373,210)"/>
<path d="M0 0 C0.99 0.99 1.98 1.98 3 3 C0.69 4.98 -1.62 6.96 -4 9 C-4 8.01 -4 7.02 -4 6 C-3.34 6 -2.68 6 -2 6 C-1.67 5.01 -1.34 4.02 -1 3 C-0.67 2.01 -0.34 1.02 0 0 Z " fill="#DB6217" transform="translate(405,196)"/>
<path d="M0 0 C1.32 0 2.64 0 4 0 C4 0.66 4 1.32 4 2 C4.99 2.33 5.98 2.66 7 3 C5.68 3.99 4.36 4.98 3 6 C3 5.01 3 4.02 3 3 C2.01 2.67 1.02 2.34 0 2 C0 1.34 0 0.68 0 0 Z " fill="#170602" transform="translate(195,193)"/>
<path d="M0 0 C0.66 0 1.32 0 2 0 C1.67 0.99 1.34 1.98 1 3 C2.32 3.66 3.64 4.32 5 5 C3.68 5.99 2.36 6.98 1 8 C0.01 6.02 -0.98 4.04 -2 2 C-1.34 1.34 -0.68 0.68 0 0 Z " fill="#1272E9" transform="translate(122,190)"/>
<path d="M0 0 C1.32 0 2.64 0 4 0 C4 0.66 4 1.32 4 2 C5.32 2.33 6.64 2.66 8 3 C7.67 4.32 7.34 5.64 7 7 C5.83040013 6.02433888 4.66438823 5.044375 3.5 4.0625 C2.8503125 3.51722656 2.200625 2.97195312 1.53125 2.41015625 C1.0259375 1.94480469 0.520625 1.47945312 0 1 C0 0.67 0 0.34 0 0 Z " fill="#2D0500" transform="translate(236,160)"/>
<path d="M0 0 C1.32 0.99 2.64 1.98 4 3 C4.66 2.67 5.32 2.34 6 2 C6.33 2.99 6.66 3.98 7 5 C6.01 5.66 5.02 6.32 4 7 C2.35 5.02 0.7 3.04 -1 1 C-0.67 0.67 -0.34 0.34 0 0 Z " fill="#0F0F0F" transform="translate(153,346)"/>
<path d="M0 0 C2.97 0 5.94 0 9 0 C7.515 1.98 7.515 1.98 6 4 C4.125 3.6875 4.125 3.6875 2 3 C1.34 2.01 0.68 1.02 0 0 Z " fill="#00183D" transform="translate(204,279)"/>
<path d="M0 0 C1.32 0.66 2.64 1.32 4 2 C3.01 2.99 2.02 3.98 1 5 C-0.32 4.34 -1.64 3.68 -3 3 C-2.01 2.01 -1.02 1.02 0 0 Z " fill="#1171D8" transform="translate(275,231)"/>
<path d="M0 0 C1.65 1.65 3.3 3.3 5 5 C4.34 5 3.68 5 3 5 C3 5.66 3 6.32 3 7 C2.01 6.67 1.02 6.34 0 6 C0 4.02 0 2.04 0 0 Z " fill="#010D21" transform="translate(113,208)"/>
<path d="M0 0 C1.14926266 0.95421808 2.29430541 1.91352045 3.4375 2.875 C4.07558594 3.40867188 4.71367187 3.94234375 5.37109375 4.4921875 C7 6 7 6 8 8 C6.68 7.67 5.36 7.34 4 7 C4 6.34 4 5.68 4 5 C3.01 5 2.02 5 1 5 C0.67 3.35 0.34 1.7 0 0 Z " fill="#1473DC" transform="translate(124,200)"/>
<path d="M0 0 C1.98 1.65 3.96 3.3 6 5 C3 6 3 6 0.8125 5.0625 C0.214375 4.711875 -0.38375 4.36125 -1 4 C-0.67 2.68 -0.34 1.36 0 0 Z " fill="#01142F" transform="translate(280,185)"/>
<path d="M0 0 C1.98 1.65 3.96 3.3 6 5 C3 6 3 6 0.8125 5.0625 C0.214375 4.711875 -0.38375 4.36125 -1 4 C-0.67 2.68 -0.34 1.36 0 0 Z " fill="#01142F" transform="translate(264,169)"/>
<path d="M0 0 C1.32 0.33 2.64 0.66 4 1 C3.64950425 4.24208567 3.43778819 5.61527704 0.9375 7.8125 C0.298125 8.204375 -0.34125 8.59625 -1 9 C-1.66 8.67 -2.32 8.34 -3 8 C-2.319375 7.4225 -1.63875 6.845 -0.9375 6.25 C0.0215625 5.13625 0.0215625 5.13625 1 4 C0.86358623 1.78141747 0.86358623 1.78141747 0 0 Z " fill="#441001" transform="translate(244,167)"/>
<path d="M0 0 C1.98 1.65 3.96 3.3 6 5 C3 6 3 6 0.8125 5.0625 C0.214375 4.711875 -0.38375 4.36125 -1 4 C-0.67 2.68 -0.34 1.36 0 0 Z " fill="#01142F" transform="translate(248,153)"/>
<path d="M0 0 C1.98 1.65 3.96 3.3 6 5 C3 6 3 6 0.8125 5.0625 C0.214375 4.711875 -0.38375 4.36125 -1 4 C-0.67 2.68 -0.34 1.36 0 0 Z " fill="#01142F" transform="translate(232,137)"/>
<path d="M0 0 C0.33 0.66 0.66 1.32 1 2 C-1.47812494 5.45167403 -2.79606135 7.23163306 -7 8 C-6.02133662 6.85373678 -5.04205413 5.70800212 -4.0625 4.5625 C-3.51722656 3.92441406 -2.97195313 3.28632812 -2.41015625 2.62890625 C-1.63204305 1.73008851 -0.84063472 0.84063472 0 0 Z " fill="#380F00" transform="translate(298,118)"/>
<path d="M0 0 C0.66 1.32 1.32 2.64 2 4 C1.4225 4.12375 0.845 4.2475 0.25 4.375 C-2.37005387 5.02543497 -2.37005387 5.02543497 -6 7 C-4.02 4.69 -2.04 2.38 0 0 Z " fill="#250500" transform="translate(310,296)"/>
<path d="M0 0 C0.928125 0.2784375 0.928125 0.2784375 1.875 0.5625 C4.04160178 1.23686176 4.04160178 1.23686176 6 0 C6.66 0.66 7.32 1.32 8 2 C6.68 2.99 5.36 3.98 4 5 C2.68 3.35 1.36 1.7 0 0 Z " fill="#1171CD" transform="translate(204,298)"/>
<path d="M0 0 C2.97 0.495 2.97 0.495 6 1 C4.68 2.32 3.36 3.64 2 5 C1.34 4.34 0.68 3.68 0 3 C0 2.01 0 1.02 0 0 Z " fill="#0978E4" transform="translate(222,282)"/>
<path d="M0 0 C2.5 1.8125 2.5 1.8125 5 4 C5 4.99 5 5.98 5 7 C4.01 7.33 3.02 7.66 2 8 C2 6.35 2 4.7 2 3 C1.34 3 0.68 3 0 3 C0 2.01 0 1.02 0 0 Z " fill="#001649" transform="translate(288,193)"/>
<path d="M0 0 C1.98 0.495 1.98 0.495 4 1 C3.01 2.32 2.02 3.64 1 5 C1.33 5.66 1.66 6.32 2 7 C1.01 7 0.02 7 -1 7 C-0.67 4.69 -0.34 2.38 0 0 Z " fill="#001126" transform="translate(104,194)"/>
<path d="M0 0 C0.66 0.99 1.32 1.98 2 3 C1.01 3.66 0.02 4.32 -1 5 C-1.33 5.99 -1.66 6.98 -2 8 C-2.99 7.01 -3.98 6.02 -5 5 C-3.35 3.35 -1.7 1.7 0 0 Z " fill="#0A6BD7" transform="translate(129,173)"/>
<path d="M0 0 C0.66 0.99 1.32 1.98 2 3 C1.01 3.66 0.02 4.32 -1 5 C-1.33 5.99 -1.66 6.98 -2 8 C-2.99 7.01 -3.98 6.02 -5 5 C-3.35 3.35 -1.7 1.7 0 0 Z " fill="#0A6BD7" transform="translate(145,157)"/>
<path d="M0 0 C0.66 0.99 1.32 1.98 2 3 C1.01 3.66 0.02 4.32 -1 5 C-1.33 5.99 -1.66 6.98 -2 8 C-2.99 7.01 -3.98 6.02 -5 5 C-3.35 3.35 -1.7 1.7 0 0 Z " fill="#0A6BD7" transform="translate(161,141)"/>
<path d="M0 0 C1.32 0.33 2.64 0.66 4 1 C0.535 3.97 0.535 3.97 -3 7 C-3 6.01 -3 5.02 -3 4 C-2.34 4 -1.68 4 -1 4 C-0.67 2.68 -0.34 1.36 0 0 Z " fill="#EA601D" transform="translate(280,132)"/>
<path d="M0 0 C0.66 0.99 1.32 1.98 2 3 C1.01 3.66 0.02 4.32 -1 5 C-1.33 5.99 -1.66 6.98 -2 8 C-2.99 7.01 -3.98 6.02 -5 5 C-3.35 3.35 -1.7 1.7 0 0 Z " fill="#0A6BD7" transform="translate(177,125)"/>
<path d="M0 0 C0.66 0.99 1.32 1.98 2 3 C1.01 3.66 0.02 4.32 -1 5 C-1.33 5.99 -1.66 6.98 -2 8 C-2.99 7.01 -3.98 6.02 -5 5 C-3.35 3.35 -1.7 1.7 0 0 Z " fill="#0A6BD7" transform="translate(193,109)"/>
<path d="M0 0 C0.99 0.33 1.98 0.66 3 1 C3.33 1.99 3.66 2.98 4 4 C1.69 4 -0.62 4 -3 4 C-2.01 2.68 -1.02 1.36 0 0 Z " fill="#070507" transform="translate(308,300)"/>
<path d="M0 0 C1.32 0.33 2.64 0.66 4 1 C4 1.99 4 2.98 4 4 C3.01 4.66 2.02 5.32 1 6 C0.67 4.02 0.34 2.04 0 0 Z " fill="#0A79E0" transform="translate(218,286)"/>
<path d="M0 0 C1.32 0.33 2.64 0.66 4 1 C2.25 4.875 2.25 4.875 0 6 C0 4.02 0 2.04 0 0 Z " fill="#176EDB" transform="translate(242,263)"/>
<path d="M0 0 C2.97 0.495 2.97 0.495 6 1 C4.68 2.32 3.36 3.64 2 5 C1.34 4.34 0.68 3.68 0 3 C0 2.01 0 1.02 0 0 Z " fill="#0A78E2" transform="translate(286,218)"/>
<path d="M0 0 C1.98 1.65 3.96 3.3 6 5 C3 7 3 7 1 7 C0.67 4.69 0.34 2.38 0 0 Z " fill="#011733" transform="translate(210,115)"/>
</svg>
