<svg xmlns="http://www.w3.org/2000/svg" width="50" height="50" fill="none"><g fill-rule="evenodd" clip-path="url(#a)" clip-rule="evenodd"><path fill="#171717" d="M25 .048C38.78.048 49.952 11.219 49.952 25c0 13.78-11.171 24.952-24.952 24.952C11.22 49.952.048 38.781.048 25 .048 11.22 11.219.048 25 .048"/><path fill="#000" d="M24.952 10.605c7.95 0 14.395 6.445 14.395 14.395s-6.445 14.395-14.395 14.395S10.557 32.95 10.557 25s6.445-14.395 14.395-14.395"/><path fill="#fff" d="M25.392 4.316c-.198-.183-.3-.186-.318-.186-.017 0-.12.003-.318.186-.203.187-.446.51-.708 1.009-.523.995-1.024 2.499-1.455 4.44-.486 2.181-.869 4.849-1.11 7.834a92 92 0 0 1 3.59 1.84 91 91 0 0 1 3.593-1.84c-.242-2.985-.625-5.653-1.11-7.835-.432-1.94-.932-3.444-1.455-4.44-.262-.498-.506-.82-.71-1.008m-1.34 15.683a90 90 0 0 0-2.648-1.352 90 90 0 0 0-.152 2.968 100 100 0 0 1 2.8-1.616m-3.512-2.848c.7-8.188 2.467-13.998 4.534-13.998 2.068 0 3.834 5.81 4.535 13.997 7.445-3.486 13.362-4.863 14.396-3.073S40.888 20.299 34.144 25c6.744 4.7 10.895 9.134 9.861 10.923-1.034 1.79-6.95.413-14.396-3.073-.701 8.187-2.467 13.996-4.535 13.996s-3.833-5.81-4.535-13.997c-7.445 3.487-13.363 4.864-14.396 3.074S9.26 29.701 16.004 25C9.26 20.3 5.11 15.866 6.143 14.077c1.033-1.79 6.95-.413 14.397 3.074m-3.675 7.257c-2.467-1.702-4.587-3.368-6.235-4.879C9.164 18.185 8.11 17 7.51 16.05c-.3-.475-.459-.847-.52-1.117-.058-.262-.01-.352-.002-.367.009-.014.063-.101.32-.181.264-.083.666-.132 1.229-.11 1.124.045 2.677.364 4.575.96 2.134.672 4.637 1.674 7.345 2.957a91 91 0 0 0-.201 4.028 91 91 0 0 0-3.391 2.19m0 1.184c-2.467 1.702-4.587 3.368-6.235 4.879C9.164 31.814 8.11 33 7.51 33.95c-.3.476-.459.848-.52 1.118-.058.262-.01.352-.002.367.008.014.062.101.32.181.264.083.666.132 1.229.11 1.124-.045 2.677-.364 4.575-.96 2.134-.672 4.637-1.674 7.345-2.957a91 91 0 0 1-.201-4.028 91 91 0 0 1-3.391-2.19m3.365 1.024A90 90 0 0 1 17.734 25q1.2-.807 2.496-1.616a99 99 0 0 0 0 3.232m.988.609a98 98 0 0 1 0-4.45 98 98 0 0 1 3.856-2.224 98 98 0 0 1 3.856 2.225 98 98 0 0 1 0 4.448 98 98 0 0 1-3.856 2.225 98 98 0 0 1-3.856-2.224m.034 1.16a90 90 0 0 0 .152 2.967q1.3-.636 2.647-1.351a100 100 0 0 1-2.8-1.616m3.822 2.176a91 91 0 0 1-3.592 1.84c.242 2.985.625 5.653 1.11 7.835.432 1.94.933 3.444 1.456 4.44.262.498.505.82.709 1.008.198.183.3.186.317.186s.12-.003.318-.186c.203-.187.447-.51.709-1.009.523-.995 1.023-2.499 1.455-4.44.485-2.181.868-4.849 1.11-7.834a91 91 0 0 1-3.592-1.84m4.617 1.248c2.709 1.283 5.211 2.285 7.345 2.956 1.897.597 3.451.916 4.575.96.563.023.965-.026 1.229-.109.257-.08.311-.167.32-.181.008-.015.056-.105-.003-.367-.06-.27-.218-.642-.52-1.118-.6-.95-1.653-2.136-3.119-3.48-1.648-1.51-3.768-3.176-6.235-4.878a91 91 0 0 1-3.39 2.188 91 91 0 0 1-.202 4.029m3.592-7.4c2.467-1.703 4.587-3.369 6.235-4.88 1.466-1.344 2.519-2.529 3.12-3.48.3-.475.459-.847.52-1.117.058-.262.01-.352.002-.367-.009-.014-.063-.101-.32-.181-.264-.083-.666-.132-1.229-.11-1.124.045-2.678.364-4.575.96-2.134.672-4.636 1.674-7.345 2.957.095 1.294.163 2.641.202 4.029a91 91 0 0 1 3.39 2.188m-3.364-1.024A90 90 0 0 1 32.414 25q-1.201.807-2.495 1.615a99 99 0 0 0 0-3.23m-1.022-1.77a89 89 0 0 0-.152-2.968A90 90 0 0 0 26.095 20a99 99 0 0 1 2.8 1.616m-.152 9.738A90 90 0 0 1 26.095 30a99 99 0 0 0 2.8-1.616 89 89 0 0 1-.152 2.968" opacity=".67"/><path fill="#fff" d="M11.11 18.882a1.537 1.537 0 1 1 0 3.073 1.537 1.537 0 0 1 0-3.073m24.417-5.263a1.537 1.537 0 1 1 0 3.074 1.537 1.537 0 0 1 0-3.074M21.979 37.743a1.537 1.537 0 1 1 0 3.073 1.537 1.537 0 0 1 0-3.073m3.01-15.357a2.602 2.602 0 1 1 0 5.205 2.602 2.602 0 0 1 0-5.205"/></g><defs><clipPath id="a"><path fill="#fff" d="M0 0h50v50H0z"/></clipPath></defs></svg>