<svg xmlns="http://www.w3.org/2000/svg" width="50" height="50" fill="none"><g clip-path="url(#a)"><path fill="#ED6C53" d="M24.945 49.93c13.7 0 24.804-11.17 24.804-24.95S38.644.03 24.945.03.142 11.2.142 24.98s11.105 24.95 24.803 24.95"/><path fill="#F3725A" d="M24.945 49.93c13.7 0 24.804-11.17 24.804-24.95S38.644.03 24.945.03.142 11.2.142 24.98s11.105 24.95 24.803 24.95"/><path fill="url(#b)" d="M24.945 49.93c13.7 0 24.804-11.17 24.804-24.95S38.644.03 24.945.03.142 11.2.142 24.98s11.105 24.95 24.803 24.95"/><path fill="url(#c)" d="M24.905 47.933c12.624 0 22.858-10.295 22.858-22.994S37.53 1.946 24.905 1.946 2.047 12.24 2.047 24.939c0 12.7 10.234 22.994 22.858 22.994"/><path fill="#fff" fill-rule="evenodd" d="M21.236 38.99c1.777 0 3.81-.452 5.871-1.298q.098-.04.193-.083l.175-.08.025-.011.004-.002a19 19 0 0 0 2.683-.89c5.818-2.404 8.277-6.243 8.633-9.067.428-3.456-1.757-6.76-4.504-9.24-1.307-1.53-2.927-2.87-4.536-3.903-2.038-1.314-4.126-2.214-5.962-2.629-1.83-.413-3.437-.35-4.49.3-1.013.623-1.758 1.806-2.272 3.576-.75.876-1.303 2.201-1.68 4-.381 1.818-.585 4.132-.625 6.982-.04 2.982.163 5.422.613 7.304.45 1.879 1.149 3.22 2.115 3.983.884.697 2.19 1.059 3.757 1.059m7.25-4.1c1.908-.79 3.457-1.734 4.692-2.748-1.205 1.598-3.136 3.203-5.99 4.463-.636.152-1.249.258-1.83.317a9.6 9.6 0 0 1-1.71.029c-1.036-.083-1.888-.364-2.486-.833l-.07-.058c.47.084.98.13 1.522.13 1.778 0 3.81-.454 5.873-1.3m6.281-6.389a4 4 0 0 1-.058.377q-.035.18-.084.369c-1.256 1.706-3.343 3.437-6.505 4.748-1.623.671-3.196 1.07-4.584 1.195-1.368.123-2.546-.02-3.416-.42-.926-1.8-1.377-4.863-1.315-9.177.04-2.72.233-4.934.58-6.659.339-1.688.824-2.895 1.447-3.656 1.947.142 4.506 1.102 7.042 2.74 1.842 1.187 3.697 2.785 5.025 4.6 1.33 1.817 2.123 3.84 1.868 5.883m-6.365-11.293c-2.24-1.442-4.54-2.389-6.502-2.738a3.3 3.3 0 0 1 .746-.197q.357-.054.774-.055c2.048 0 4.868 1.023 7.551 2.752a20.5 20.5 0 0 1 2.679 2.048c1.694 1.997 2.794 4.33 2.505 6.682-.059.473-.184.98-.388 1.505-.142-1.922-1.026-3.767-2.283-5.41-1.391-1.82-3.246-3.403-5.082-4.587m-10.47-1.08a2.7 2.7 0 0 1 .53-.427q.235-.145.52-.241.299-.1.653-.149c-.556.925-.975 2.176-1.268 3.77-.32 1.74-.492 3.895-.528 6.5-.047 3.184.19 5.75.71 7.68q-.643-1.114-1.006-2.986-.491-2.54-.439-6.427c.045-3.314.32-5.877.828-7.72m3.787-3.655c1.46 0 3.323.524 5.25 1.46a13 13 0 0 0-2.469-.596c-1.398-.184-2.614-.043-3.463.487a3.6 3.6 0 0 0-.628.497c-.725-.009-1.38.09-1.932.305.382-.829.846-1.394 1.373-1.718.455-.286 1.08-.435 1.87-.435m-2.47 22.912.047.03.128.075q.487.856 1.143 1.377c.655.518 1.542.847 2.594.985-.945.165-1.826.215-2.605.151-1.032-.083-1.88-.364-2.474-.83-.804-.637-1.417-1.826-1.817-3.591q-.599-2.643-.54-6.933c.04-2.796.242-5.053.608-6.797a49 49 0 0 0-.195 3.983c-.045 2.982.16 5.422.61 7.304.451 1.879 1.152 3.22 2.119 3.982l.002.002q.14.106.29.204zm17.862-9.563a7.5 7.5 0 0 0-.186-2.748c.736 1.4 1.11 2.883.922 4.371-.26 2.083-1.867 4.868-5.538 7.05 1.758-1.589 2.775-3.308 3.207-4.836.951-1.334 1.449-2.672 1.595-3.837" clip-rule="evenodd"/></g><defs><linearGradient id="b" x1="2.364" x2="49.697" y1="31.965" y2="20.912" gradientUnits="userSpaceOnUse"><stop stop-color="#FF6C2E"/><stop offset="1" stop-color="#F3725A" stop-opacity="0"/></linearGradient><linearGradient id="c" x1="40.144" x2="1.883" y1="12.165" y2="41.009" gradientUnits="userSpaceOnUse"><stop stop-color="#FFA756"/><stop offset="1" stop-color="#F8765E" stop-opacity="0"/></linearGradient><clipPath id="a"><path fill="#fff" d="M0 0h50v50H0z"/></clipPath></defs></svg>