<svg xmlns="http://www.w3.org/2000/svg" width="50" height="50" fill="none"><g clip-path="url(#a)"><mask id="b" width="50" height="50" x="0" y="0" maskUnits="userSpaceOnUse" style="mask-type:luminance"><path fill="#fff" d="M50 0H0v50h50z"/></mask><g mask="url(#b)"><path fill="url(#c)" d="M25 50c13.807 0 25-11.193 25-25S38.807 0 25 0 0 11.193 0 25s11.193 25 25 25"/><path fill="#fff" fill-rule="evenodd" d="M25 7.031c4.962 0 9.454 2.012 12.706 5.264a17.92 17.92 0 0 1 5.262 12.53v.351a17.9 17.9 0 0 1-5.263 12.53A17.9 17.9 0 0 1 25 42.969a17.9 17.9 0 0 1-12.706-5.264A17.92 17.92 0 0 1 7.031 25c0-4.962 2.012-9.454 5.263-12.705A17.9 17.9 0 0 1 25 7.03m10.328 10.33c.68 0 1.342.09 1.971.256a10.26 10.26 0 0 0-7.166-2.905 10.26 10.26 0 0 0-7.277 3.013A10.26 10.26 0 0 0 19.843 25c0 2.841 1.151 5.415 3.013 7.276a10.26 10.26 0 0 0 7.277 3.014c2.786 0 5.314-1.108 7.166-2.906a7.7 7.7 0 0 1-1.97.257c-2.11 0-4.02-.855-5.403-2.238A7.62 7.62 0 0 1 27.688 25c0-2.11.855-4.021 2.238-5.404a7.6 7.6 0 0 1 5.402-2.237m3.602 4.038a5.08 5.08 0 0 0-3.603-1.491c-1.407 0-2.68.57-3.603 1.492A5.08 5.08 0 0 0 30.233 25c0 1.408.57 2.681 1.491 3.604a5.08 5.08 0 0 0 3.603 1.492 5.08 5.08 0 0 0 3.603-1.492A5.08 5.08 0 0 0 40.422 25v-.065a5.08 5.08 0 0 0-1.492-3.537m-8.798-9.234c1.6 0 3.131.293 4.545.828A15.36 15.36 0 0 0 25 9.578a15.38 15.38 0 0 0-10.906 4.517A15.38 15.38 0 0 0 9.577 25c0 4.26 1.726 8.115 4.517 10.906A15.38 15.38 0 0 0 25 40.422a15.36 15.36 0 0 0 9.677-3.413 12.8 12.8 0 0 1-4.545.828 12.8 12.8 0 0 1-9.077-3.76A12.8 12.8 0 0 1 17.295 25a12.8 12.8 0 0 1 3.76-9.077 12.8 12.8 0 0 1 9.077-3.76" clip-rule="evenodd"/></g></g><defs><linearGradient id="c" x1="-.392" x2="48.791" y1="49.098" y2="2.421" gradientUnits="userSpaceOnUse"><stop stop-color="#04BF77"/><stop offset=".612" stop-color="#04D082"/><stop offset="1" stop-color="#04D484"/></linearGradient><clipPath id="a"><path fill="#fff" d="M0 0h50v50H0z"/></clipPath></defs></svg>