<svg xmlns="http://www.w3.org/2000/svg" width="50" height="50" fill="none"><path fill="url(#a)" d="M6.984 8.178c.306-.385.63-.756.956-1.127.014-.018.047-.022.062-.04.029-.037.076-.059.105-.096l.03-.036c.226-.21.467-.437.745-.636.982-.746 2.002-1.312 3.077-1.685 3.45-1.211 7.288-.465 10.299 2.377 4.204 3.94 3.827 10.289.471 14.508-4.24 6.29-11.527 15.064-1.437 22.925 1.814 1.414 3.16 2.58 8.874 4.23-3.737.689-7.203.475-11.06-.51-2.729-1.54-7.018-4.838-8.478-9.291-2.206-6.754 3.884-16.85 6.827-20.739 4.04-5.381-2.498-11.207-7.311-4.703-2.516 3.39-6.918 12.98-5.388 20.095.894 4.034 2.086 6.975 6.813 11.015a22 22 0 0 1-2.553-1.76C-1.966 32.474-.692 16.656 6.984 8.177"/><path fill="url(#b)" d="M42.183 41.822c-.307.385-.632.756-.956 1.127-.015.018-.048.022-.062.04-.03.037-.077.059-.106.096l-.03.036c-.226.21-.467.437-.745.636-.982.746-2.002 1.312-3.077 1.685-3.449 1.211-7.288.465-10.299-2.377-4.203-3.94-3.827-10.288-.471-14.508 4.24-6.29 11.528-15.064 1.438-22.925-1.815-1.414-3.16-2.58-8.875-4.23 3.737-.689 7.203-.475 11.06.51 2.729 1.54 7.018 4.838 8.478 9.292 2.206 6.753-3.884 16.85-6.826 20.738-4.041 5.381 2.497 11.207 7.31 4.703 2.516-3.39 6.918-12.98 5.388-20.095-.894-4.034-2.086-6.975-6.813-11.015a22 22 0 0 1 2.553 1.76c10.983 10.23 9.708 26.048 2.032 34.527"/><defs><linearGradient id="a" x1="1" x2="50.352" y1="24.324" y2="24.324" gradientUnits="userSpaceOnUse"><stop stop-color="#0082FA"/><stop offset="1" stop-color="#00F2FE"/></linearGradient><linearGradient id="b" x1="-1.186" x2="48.166" y1="25.676" y2="25.676" gradientUnits="userSpaceOnUse"><stop stop-color="#0082FA"/><stop offset="1" stop-color="#00F2FE"/></linearGradient></defs></svg>