<svg xmlns="http://www.w3.org/2000/svg" width="50" height="50" fill="none"><g clip-path="url(#a)"><path fill="url(#b)" d="M7.868 43.207c10.055 9.462 25.877 8.98 35.339-1.075s8.98-25.877-1.075-35.339-25.877-8.98-35.339 1.075-8.98 25.877 1.075 35.339"/><path fill="#fff" fill-rule="evenodd" d="M11.199 7.407s8.115 4.713 10.764 10.078a11.4 11.4 0 0 1 3.006-.409c1.051 0 2.082.15 3.06.424 2.642-5.372 10.772-10.093 10.772-10.093.288 3.062.02 10.412-3.189 16.559a33 33 0 0 0-.543-.901c1.066-2.204 1.378-3.625 1.404-6.334-.615 2.46-.974 3.844-2.1 5.29-.691-.976-1.495-1.93-2.738-3.27v-.035c.414-2.508 1.048-4.018 2.371-6.76-2.586 3.033-3.822 5.494-3.785 7.686l-.02-.02c.016 1.242.44 2.399 1.258 3.524l.156-1.18.706.432a12 12 0 0 0-.258-.696c-.089-.226-.172-.435-.242-.668l.028.023-.007-.023c1.014.842 1.926 1.804 3.458 3.509l-.02.036-.02-.02q.11.594.111 1.205c0 .655-.099 1.477-.284 2.403.29.169.577.4.763.761-.393.007-.664.04-.963.143l-.032.132c1.063 1.027 1.546 1.756 2.24 3.12-1.092-.909-1.782-1.47-2.561-1.935l-.108.362c.598 1.058.714 1.838.44 3.183-.514-.445-.885-.758-1.214-.931a36 36 0 0 1-.788 1.901c-.19.184-.343.383-.494.58-.404.528-.795 1.04-1.86 1.19.057 1.458-.265 2.097-.608 2.777-.172.34-.349.69-.486 1.16q-.405.474-.826.877c-1.735.869-1.825.826-3.445.058l-.203-.096c-1.817.859-1.948.905-3.489.137a12 12 0 0 1-1.078-1.151 7 7 0 0 0-.431-.985c-.343-.68-.665-1.319-.608-2.777-1.065-.15-1.456-.662-1.86-1.19a7 7 0 0 0-.317-.394 36 36 0 0 1-.863-2.063c-.332.172-.704.487-1.223.936-.275-1.35-.158-2.13.446-3.193l-.107-.356c-.782.465-1.473 1.027-2.568 1.938.695-1.366 1.178-2.095 2.246-3.125l-.03-.124c-.303-.105-.575-.139-.972-.145.188-.364.477-.595.77-.764-.19-.937-.29-1.768-.29-2.43q0-.605.11-1.195c1.545-1.72 2.461-2.688 3.48-3.534-.07.233-.153.443-.242.668-.082.208-.17.43-.258.696l.706-.432.156 1.18c2.259-3.107 1.516-6.45-2.526-11.19 1.323 2.742 1.957 4.253 2.37 6.76l.001.035c-1.243 1.34-2.047 2.294-2.739 3.27-1.125-1.446-1.484-2.83-2.099-5.29.026 2.71.338 4.13 1.404 6.334a32 32 0 0 0-.543.9c-3.208-6.146-3.477-13.496-3.19-16.558M22.115 30.31l-.921-1.726-2.586-.46c.113 1.827 1.338 2.53 3.507 2.186m6.984-1.726-.92 1.726c2.169.345 3.393-.36 3.506-2.187zm-5.786 8.995c-.401.276-.65.654-.65 1.07 0 .843 1.012 1.525 2.26 1.525s2.258-.682 2.258-1.524c0-.439-.275-.834-.714-1.113-.446.174-1.014.279-1.634.279a4.7 4.7 0 0 1-1.52-.237" clip-rule="evenodd"/></g><defs><linearGradient id="b" x1="6.793" x2="43.207" y1="7.868" y2="42.132" gradientUnits="userSpaceOnUse"><stop stop-color="#032963"/><stop offset=".605" stop-color="#040D21"/></linearGradient><clipPath id="a"><path fill="#fff" d="M0 0h50v50H0z"/></clipPath></defs></svg>