<svg width="250" height="250" version="1.1" xmlns="http://www.w3.org/2000/svg"><path fill="rgb(0,0,0)" stroke="rgb(0,0,0)" stroke-width="1" opacity="0" d="M 0 0 L 98.5 0 L 99 2 L 94.5 2 L 93.5 3 L 89.5 3 L 88.5 4 L 82 5 Q 83.25 8 79.5 7 L 78.5 8 L 75.5 8 L 71.5 10 L 69 10 L 67.5 13 L 60 15 Q 61.13 17.67 58.5 17 Q 57.42 19.75 54 19 L 52.5 22 L 50.5 22 Q 49.5 24.5 47 24 L 46.5 26 L 45 25.5 L 41.5 31 L 39 30 L 39 33 L 37.5 33 L 35 34 L 31.5 41 L 30 40.5 L 26.5 46 L 25 45.5 L 22 53 Q 19.33 51.88 20 54.5 L 16.5 61 L 15 60.5 L 15 62.5 L 11.5 70 L 10 69.5 L 7 82 Q 3.67 80.69 5 85.5 L 3 90.5 L 3 94.5 L 2 95.5 L 1.5 100 L 0 98.5 L 0 0 Z "></path><path fill="rgb(0,0,0)" stroke="rgb(0,0,0)" stroke-width="1" opacity="0" d="M 151 0 L 250 0 L 250 98.5 Q 249 101 248 99.5 L 248 95.5 L 247 94.5 L 247 90.5 L 246 89.5 L 245 82 Q 242 83.25 243 79.5 L 239.5 69 L 238 69.5 L 234.5 60 L 233 60.5 L 231 54.5 L 229.5 53 Q 227.25 53.75 228 51.5 L 224.5 45 Q 223.25 47.25 222 44.5 L 219.5 39 Q 218.25 41.25 217 38.5 L 215 34 L 210 31.5 L 209.5 30 L 208 30.5 L 204.5 25 L 203 25.5 Q 203.75 23.25 201.5 24 L 196 20.5 Q 196.83 17.88 193.5 19 Q 192.5 16.5 190 17 Q 191.13 14.33 188.5 15 L 187 15.5 L 185.5 13 L 181 12 Q 182.25 9 178.5 10 L 171.5 7 L 168 7 Q 169.25 4 165.5 5 L 160.5 3 L 151 2 L 151 0 Z "></path><path fill="rgb(0,0,0)" stroke="rgb(0,0,0)" stroke-width="1" opacity="0" d="M 1.5 150 L 5 168 Q 8 166.75 7 170.5 L 10.5 181 L 12 180.5 L 15.5 190 L 17 189.5 L 19 195.5 L 20.5 197 Q 22.75 196.25 22 198.5 L 25.5 205 Q 26.75 202.75 28 205.5 L 30.5 211 Q 31.75 208.75 33 211.5 L 35 216 L 40 218.5 L 40.5 220 L 42 219.5 L 45.5 225 L 47 224.5 Q 46.25 226.75 48.5 226 L 54 229.5 Q 53.17 232.13 56.5 231 Q 57.5 233.5 60 233 Q 58.88 235.67 61.5 235 L 63 234.5 L 64.5 237 L 69 238 Q 67.75 241 71.5 240 L 78.5 243 L 82 243 Q 80.75 246 84.5 245 L 89.5 247 L 99 248 L 98.5 250 L 0 250 L 0 151.5 L 1.5 150 Z "></path><path fill="rgb(0,0,0)" stroke="rgb(0,0,0)" stroke-width="1" opacity="0" d="M 248.5 150 L 250 151.5 L 250 250 L 151.5 250 L 151 248 L 155.5 248 L 156.5 247 L 160.5 247 L 161.5 246 L 168 245 Q 166.75 242 170.5 243 L 171.5 242 L 174.5 242 L 178.5 240 L 181 240 L 182.5 237 L 190 235 Q 188.88 232.33 191.5 233 Q 192.58 230.25 196 231 L 197.5 228 L 199.5 228 Q 200.5 225.5 203 226 L 203.5 224 L 205 224.5 L 208.5 219 L 211 220 L 211 217 L 212.5 217 L 215 216 L 218.5 209 L 220 209.5 L 223.5 204 L 225 204.5 L 228 197 Q 230.67 198.13 230 195.5 L 233.5 189 L 235 189.5 L 235 187.5 L 238.5 180 L 240 180.5 L 243 168 Q 246.33 169.31 245 164.5 L 247 159.5 L 247 155.5 L 248 154.5 L 248.5 150 Z "></path><path fill="rgb(110,132,241)" stroke="rgb(110,132,241)" stroke-width="1" opacity="0.996078431372549" d="M 191.5 36 Q 194.25 35.75 194 36.5 L 194 163.5 L 193 163.5 L 193 37.5 L 191.5 37 L 166.5 64 L 166 63.5 L 174 55.5 L 191.5 36 Z "></path><path fill="rgb(110,132,241)" stroke="rgb(110,132,241)" stroke-width="1" opacity="0.996078431372549" d="M 100.5 38 L 112.5 38 L 117 39.5 L 113.5 40 L 112.5 39 L 101.5 39 Q 100.5 41 96.5 40 L 96.5 39 Q 99.75 39.75 100.5 38 Z "></path><path fill="rgb(110,132,241)" stroke="rgb(110,132,241)" stroke-width="1" opacity="0.996078431372549" d="M 92.5 40 L 95 40.5 L 92.5 41 L 92.5 40 Z "></path><path fill="rgb(110,132,241)" stroke="rgb(110,132,241)" stroke-width="1" opacity="0.996078431372549" d="M 119.5 40 L 121 40.5 L 119.5 41 L 119.5 40 Z "></path><path fill="rgb(110,132,241)" stroke="rgb(110,132,241)" stroke-width="1" opacity="0.996078431372549" d="M 89.5 41 L 91 41.5 L 83.5 45 Q 82 44 84.5 43 L 89.5 41 Z "></path><path fill="rgb(110,132,241)" stroke="rgb(110,132,241)" stroke-width="1" opacity="0.996078431372549" d="M 122.5 41 L 124 41.5 L 122.5 42 L 122.5 41 Z "></path><path fill="rgb(110,132,241)" stroke="rgb(110,132,241)" stroke-width="1" opacity="0.996078431372549" d="M 125.5 42 L 132 45.5 L 130.5 45 L 125.5 43 L 125.5 42 Z "></path><path fill="rgb(110,132,241)" stroke="rgb(110,132,241)" stroke-width="1" opacity="0.996078431372549" d="M 81.5 45 Q 83 46 80.5 47 L 76.5 49 L 68 57.5 L 65.5 61 L 65 60.5 L 67 58.5 L 76.5 48 L 81.5 45 Z "></path><path fill="rgb(110,132,241)" stroke="rgb(110,132,241)" stroke-width="1" opacity="0.996078431372549" d="M 133.5 46 L 139 50.5 L 138.5 51 L 135.5 48 Q 131.69 47.31 133.5 46 Z "></path><path fill="rgb(110,132,241)" stroke="rgb(110,132,241)" stroke-width="1" opacity="0.996078431372549" d="M 140.5 51 L 144 54.5 L 143.5 55 L 140 51.5 L 140.5 51 Z "></path><path fill="rgb(110,132,241)" stroke="rgb(110,132,241)" stroke-width="1" opacity="0.996078431372549" d="M 144.5 56 Q 150.49 61.01 153 69.5 L 152 69.5 L 149 62.5 L 144 56.5 L 144.5 56 Z "></path><path fill="rgb(110,132,241)" stroke="rgb(110,132,241)" stroke-width="1" opacity="0.996078431372549" d="M 101.5 60 L 111.5 60 Q 112.25 61.75 115.5 61 Q 123.89 64.11 129 70.5 L 131 73.5 L 130.5 74 L 128 71.5 L 124.5 67 L 115.5 62 Q 112.25 62.75 111.5 61 L 102.5 61 L 94.5 64 Q 93 63 95.5 62 L 101.5 60 Z "></path><path fill="rgb(110,132,241)" stroke="rgb(110,132,241)" stroke-width="1" opacity="0.996078431372549" d="M 64.5 62 L 64 63.5 L 61.5 69 L 61 67.5 L 64.5 62 Z "></path><path fill="rgb(110,132,241)" stroke="rgb(110,132,241)" stroke-width="1" opacity="0.996078431372549" d="M 92.5 64 L 92.5 65 L 92.5 64 Z "></path><path fill="rgb(110,132,241)" stroke="rgb(110,132,241)" stroke-width="1" opacity="0.996078431372549" d="M 90.5 65 L 91 65.5 L 84 72.5 L 80.5 81 L 80 78.5 Q 83.25 69.75 90.5 65 Z "></path><path fill="rgb(110,132,241)" stroke="rgb(110,132,241)" stroke-width="1" opacity="0.996078431372549" d="M 165.5 65 L 166 65.5 L 155.5 76 Q 153.25 76.75 154 74.5 L 155.5 75 L 165.5 65 Z "></path><path fill="rgb(110,132,241)" stroke="rgb(110,132,241)" stroke-width="1" opacity="0.996078431372549" d="M 60.5 70 L 60.5 71 L 60.5 70 Z "></path><path fill="rgb(110,132,241)" stroke="rgb(110,132,241)" stroke-width="1" opacity="0.996078431372549" d="M 153.5 71 L 154 72.5 L 153 72.5 L 153.5 71 Z "></path><path fill="rgb(110,132,241)" stroke="rgb(110,132,241)" stroke-width="1" opacity="0.996078431372549" d="M 59.5 72 L 60 74.5 L 58 80.5 L 58 212.5 L 58.5 213 L 68.5 203 L 69 203.5 L 58.5 214 L 57 214 L 57 79.5 L 59.5 72 Z "></path><path fill="rgb(110,132,241)" stroke="rgb(110,132,241)" stroke-width="1" opacity="0.996078431372549" d="M 131.5 75 L 134 79.5 Q 133 83.5 135 84.5 L 135 91.5 Q 133 92.5 134 96.5 L 131.5 101 L 131 99.5 L 133 96.5 Q 132 92.5 134 91.5 L 134 84.5 Q 132 83.5 133 79.5 L 131 76.5 L 131.5 75 Z "></path><path fill="rgb(110,132,241)" stroke="rgb(110,132,241)" stroke-width="1" opacity="0.996078431372549" d="M 79.5 82 L 80 85.5 L 79 85.5 L 79.5 82 Z "></path><path fill="rgb(110,132,241)" stroke="rgb(110,132,241)" stroke-width="1" opacity="0.996078431372549" d="M 170.5 91 L 172 91.5 L 172 163.5 L 171 163.5 L 170.5 92 L 159.5 104 L 159 103.5 L 166 96.5 L 170.5 91 Z "></path><path fill="rgb(110,132,241)" stroke="rgb(110,132,241)" stroke-width="1" opacity="0.996078431372549" d="M 130.5 102 L 131 102.5 L 129 104.5 L 110.5 125 L 110 124.5 L 116 118.5 L 130.5 102 Z "></path><path fill="rgb(110,132,241)" stroke="rgb(110,132,241)" stroke-width="1" opacity="0.996078431372549" d="M 157.5 106 L 158 106.5 L 148 116.5 L 121 146.5 L 117 155.5 L 117 168.5 Q 120.25 178.75 128 184.5 L 127.5 185 L 120 177.5 L 116 168.5 L 116 155.5 L 120 146.5 L 125 140.5 L 157.5 106 Z "></path><path fill="rgb(110,132,241)" stroke="rgb(110,132,241)" stroke-width="1" opacity="0.996078431372549" d="M 108.5 126 L 110 126.5 L 79.5 159 L 79 158.5 L 87 150.5 L 108.5 126 Z "></path><path fill="rgb(110,132,241)" stroke="rgb(110,132,241)" stroke-width="1" opacity="0.996078431372549" d="M 192.5 167 L 193 172.5 L 190.5 179 L 190 177.5 L 192 172.5 L 192.5 167 Z "></path><path fill="rgb(110,132,241)" stroke="rgb(110,132,241)" stroke-width="1" opacity="0.996078431372549" d="M 170.5 168 L 171 169.5 L 170 169.5 L 170.5 168 Z "></path><path fill="rgb(110,132,241)" stroke="rgb(110,132,241)" stroke-width="1" opacity="0.996078431372549" d="M 169.5 171 L 170 172.5 L 165.5 179 L 165 178.5 L 167 176.5 L 169.5 171 Z "></path><path fill="rgb(110,132,241)" stroke="rgb(110,132,241)" stroke-width="1" opacity="0.996078431372549" d="M 95.5 173 L 96 175 L 94.5 175 L 89.5 180 L 89 179.5 L 95.5 173 Z "></path><path fill="rgb(110,132,241)" stroke="rgb(110,132,241)" stroke-width="1" opacity="0.996078431372549" d="M 96.5 176 L 102 187.5 Q 101 189 100 186.5 L 96 177.5 L 96.5 176 Z "></path><path fill="rgb(110,132,241)" stroke="rgb(110,132,241)" stroke-width="1" opacity="0.996078431372549" d="M 164.5 180 L 165 180.5 L 161.5 184 L 152.5 189 Q 149.25 188.25 148.5 190 L 138.5 190 L 132.5 188 L 129 185.5 L 130.5 186 L 139.5 189 L 147.5 189 Q 148.5 187 152.5 188 L 158.5 185 L 164.5 180 Z "></path><path fill="rgb(110,132,241)" stroke="rgb(110,132,241)" stroke-width="1" opacity="0.996078431372549" d="M 189.5 180 L 190 181.5 L 183 193.5 L 176.5 200 L 170.5 204 Q 169 203 171.5 202 L 180 195.5 Q 186.13 189.13 189.5 180 Z "></path><path fill="rgb(110,132,241)" stroke="rgb(110,132,241)" stroke-width="1" opacity="0.996078431372549" d="M 88.5 181 L 89 181.5 L 83 187.5 L 69.5 202 L 69 201.5 L 79 191.5 L 88.5 181 Z "></path><path fill="rgb(110,132,241)" stroke="rgb(110,132,241)" stroke-width="1" opacity="0.996078431372549" d="M 102.5 189 L 112.5 200 L 119 204.5 L 117.5 204 L 113.5 202 L 104 192.5 L 102 189.5 L 102.5 189 Z "></path><path fill="rgb(110,132,241)" stroke="rgb(110,132,241)" stroke-width="1" opacity="0.996078431372549" d="M 168.5 204 Q 170 205 167.5 206 L 162.5 208 L 162.5 207 L 168.5 204 Z "></path><path fill="rgb(110,132,241)" stroke="rgb(110,132,241)" stroke-width="1" opacity="0.996078431372549" d="M 120.5 205 L 128 208.5 L 126.5 209 L 121.5 207 Q 119 206 120.5 205 Z "></path><path fill="rgb(110,132,241)" stroke="rgb(110,132,241)" stroke-width="1" opacity="0.996078431372549" d="M 159.5 208 L 161 208.5 L 159.5 209 L 159.5 208 Z "></path><path fill="rgb(110,132,241)" stroke="rgb(110,132,241)" stroke-width="1" opacity="0.996078431372549" d="M 130.5 209 L 132 209.5 L 130.5 210 L 130.5 209 Z "></path><path fill="rgb(110,132,241)" stroke="rgb(110,132,241)" stroke-width="1" opacity="0.996078431372549" d="M 156.5 209 L 158 209.5 L 156.5 210 L 156.5 209 Z "></path><path fill="rgb(110,132,241)" stroke="rgb(110,132,241)" stroke-width="1" opacity="0.996078431372549" d="M 133.5 210 Q 137.5 209 138.5 211 L 149.5 211 Q 150.25 209.25 153.5 210 L 153.5 211 L 150.5 212 L 137.5 212 Q 136.75 210.25 133.5 211 L 133.5 210 Z "></path><path fill="rgb(75,102,238)" stroke="rgb(75,102,238)" stroke-width="1" opacity="0.996078431372549" d="M 116 0 L 122 0 L 122 2 Q 117.13 1 114.5 3 L 110 1.5 L 114.5 1 L 116 1.5 L 116 0 Z "></path><path fill="rgb(75,102,238)" stroke="rgb(75,102,238)" stroke-width="1" opacity="0.996078431372549" d="M 128 0 Q 133.05 -1.25 134.5 2 Q 135.5 0 139.5 1 L 139.5 2 L 134.5 3 L 133.5 2 L 128 2 L 128 0 Z "></path><path fill="rgb(75,102,238)" stroke="rgb(75,102,238)" stroke-width="1" opacity="0.996078431372549" d="M 104.5 2 Q 105.5 4 106.5 2 L 108 2.5 L 104 4 L 104.5 2 Z "></path><path fill="rgb(75,102,238)" stroke="rgb(75,102,238)" stroke-width="1" opacity="0.996078431372549" d="M 141.5 2 L 147 2.5 L 141.5 3 L 141.5 2 Z "></path><path fill="rgb(75,102,238)" stroke="rgb(75,102,238)" stroke-width="1" opacity="0.996078431372549" d="M 98.5 3 L 101 3.5 L 97.5 5 Q 96 4 98.5 3 Z "></path><path fill="rgb(75,102,238)" stroke="rgb(75,102,238)" stroke-width="1" opacity="0.996078431372549" d="M 148.5 3 L 151 3.5 L 148.5 4 L 148.5 3 Z "></path><path fill="rgb(75,102,238)" stroke="rgb(75,102,238)" stroke-width="1" opacity="0.996078431372549" d="M 93.5 4 L 96 4.5 L 94.5 6 L 87.5 7 L 87.5 6 L 93.5 4 Z "></path><path fill="rgb(75,102,238)" stroke="rgb(75,102,238)" stroke-width="1" opacity="0.996078431372549" d="M 152.5 4 L 152.5 5 L 152.5 4 Z "></path><path fill="rgb(75,102,238)" stroke="rgb(75,102,238)" stroke-width="1" opacity="0.996078431372549" d="M 154.5 4 L 160.5 5 L 164 7.5 L 162.5 8 Q 161.25 4.75 155.5 6 Q 153 5 154.5 4 Z "></path><path fill="rgb(75,102,238)" stroke="rgb(75,102,238)" stroke-width="1" opacity="0.996078431372549" d="M 84.5 7 L 86 7.5 L 84.5 8 L 84.5 7 Z "></path><path fill="rgb(75,102,238)" stroke="rgb(75,102,238)" stroke-width="1" opacity="0.996078431372549" d="M 165.5 7 L 170 9.5 L 168.5 9 Q 164.75 9.5 165.5 7 Z "></path><path fill="rgb(75,102,238)" stroke="rgb(75,102,238)" stroke-width="1" opacity="0.996078431372549" d="M 81.5 8 Q 83 9 80.5 10 Q 79 9 81.5 8 Z "></path><path fill="rgb(75,102,238)" stroke="rgb(75,102,238)" stroke-width="1" opacity="0.996078431372549" d="M 78.5 9 L 78.5 10 L 78.5 9 Z "></path><path fill="rgb(75,102,238)" stroke="rgb(75,102,238)" stroke-width="1" opacity="0.996078431372549" d="M 75.5 10 L 77 10.5 L 62.5 18 L 62.5 17 L 73.5 12 L 75.5 10 Z "></path><path fill="rgb(75,102,238)" stroke="rgb(75,102,238)" stroke-width="1" opacity="0.996078431372549" d="M 172.5 10 L 176 11.5 L 174.5 12 L 172 10.5 L 172.5 10 Z "></path><path fill="rgb(75,102,238)" stroke="rgb(75,102,238)" stroke-width="1" opacity="0.996078431372549" d="M 177.5 12 L 177.5 13 L 177.5 12 Z "></path><path fill="rgb(75,102,238)" stroke="rgb(75,102,238)" stroke-width="1" opacity="0.996078431372549" d="M 179.5 13 Q 182 14 180.5 15 Q 178 14 179.5 13 Z "></path><path fill="rgb(75,102,238)" stroke="rgb(75,102,238)" stroke-width="1" opacity="0.996078431372549" d="M 182.5 14 L 183 15.5 L 182 15.5 L 182.5 14 Z "></path><path fill="rgb(75,102,238)" stroke="rgb(75,102,238)" stroke-width="1" opacity="0.996078431372549" d="M 184.5 16 L 186 16.5 L 184.5 17 L 184.5 16 Z "></path><path fill="rgb(75,102,238)" stroke="rgb(75,102,238)" stroke-width="1" opacity="0.996078431372549" d="M 187.5 17 L 187.5 18 L 187.5 17 Z "></path><path fill="rgb(75,102,238)" stroke="rgb(75,102,238)" stroke-width="1" opacity="0.996078431372549" d="M 60.5 18 L 61 19.5 Q 60.5 21.5 57.5 21 L 57.5 20 L 60.5 18 Z "></path><path fill="rgb(75,102,238)" stroke="rgb(75,102,238)" stroke-width="1" opacity="0.996078431372549" d="M 190.5 19 L 193 20.5 L 191.5 21 Q 189 20 190.5 19 Z "></path><path fill="rgb(75,102,238)" stroke="rgb(75,102,238)" stroke-width="1" opacity="0.996078431372549" d="M 54.5 22 L 57 22.5 L 54.5 23 L 50.5 26 Q 49 25 51.5 24 L 54.5 22 Z "></path><path fill="rgb(75,102,238)" stroke="rgb(75,102,238)" stroke-width="1" opacity="0.996078431372549" d="M 194.5 22 L 196 22.5 L 194.5 23 L 194.5 22 Z "></path><path fill="rgb(75,102,238)" stroke="rgb(75,102,238)" stroke-width="1" opacity="0.996078431372549" d="M 198.5 24 L 203 28.5 L 202.5 29 L 198 25.5 L 198.5 24 Z "></path><path fill="rgb(75,102,238)" stroke="rgb(75,102,238)" stroke-width="1" opacity="0.996078431372549" d="M 48.5 27 Q 50 28 47.5 29 L 46 28.5 L 48.5 27 Z "></path><path fill="rgb(75,102,238)" stroke="rgb(75,102,238)" stroke-width="1" opacity="0.996078431372549" d="M 204.5 29 L 211 34.5 L 209.5 35 L 205.5 31 L 204 31 L 204.5 29 Z "></path><path fill="rgb(75,102,238)" stroke="rgb(75,102,238)" stroke-width="1" opacity="0.996078431372549" d="M 42.5 32 Q 44 33 41.5 34 Q 40 33 42.5 32 Z "></path><path fill="rgb(75,102,238)" stroke="rgb(75,102,238)" stroke-width="1" opacity="0.996078431372549" d="M 192.5 33 Q 195.5 32.5 196 34.5 L 196 166.5 L 194 168.5 L 193 179.5 L 191 182.5 L 191 184.5 L 188 187.5 L 187 191.5 L 174.5 204 L 170.5 207 L 168.5 207 L 159.5 212 Q 155.5 211 154.5 213 L 133.5 213 L 132.5 212 L 125.5 211 L 123.5 209 L 115.5 206 L 108 199.5 L 106.5 197 L 103 194.5 L 101 191.5 L 101 189.5 L 102 189.5 L 104 193.5 L 113.5 203 L 116 203.5 L 115.5 205 L 126 208.5 L 125.5 210 L 133.5 211 L 134.5 212 L 152.5 212 L 153.5 211 L 158.5 211 L 163 209.5 L 162.5 208 L 164.5 208 L 167.5 206 L 172 205 Q 170.88 202.33 173.5 203 Q 174.5 200.5 177 201 Q 176.5 198.13 179.5 197 L 182 195.5 L 184.5 192 Q 187.13 192.83 186 189.5 L 188.5 184 L 190 184.5 L 189 182.5 L 191 182 Q 190.25 179.42 192 178.5 L 192 174.5 L 193 173.5 L 193.5 166 L 195 166.5 L 195 34.5 Q 195.25 33.75 192.5 34 L 190 35.5 L 190.5 37 L 187 39.5 L 185.5 42 Q 183.25 41.25 184 43.5 L 175.5 53 L 173 54.5 L 165.5 64 Q 163.25 63.25 164 65.5 L 160.5 69 L 159 69 L 158 73 L 155.5 74 L 154.5 69 L 153 69.5 L 151 62 L 149 61.5 L 150 59.5 L 148 59.5 L 146 56.5 L 146 54 L 142 53 L 141 49 Q 137.17 49.75 136 46.5 Q 136.83 43.88 133.5 45 L 125 41.5 L 125.5 40 L 116.5 39 L 115.5 38 L 98.5 38 L 97.5 39 L 92.5 39 Q 91.37 41 88 40 Q 89.25 43 85.5 42 L 80.5 45 L 78 45 L 76.5 48 L 73 49 Q 73.5 51.88 70.5 53 Q 68.25 52.25 69 54.5 Q 63.9 58.9 61.5 66 L 61 63.5 L 66 55.5 L 74.5 47 Q 77.83 48.13 77 45.5 L 84.5 41 L 86.5 41 L 88.5 39 Q 91.75 39.75 92.5 38 Q 96.5 39 97.5 37 L 116.5 37 L 117.5 38 L 125.5 39 L 128.5 42 L 135.5 44 L 137 45.5 L 138.5 48 Q 142.5 47.5 143 50.5 Q 142.25 52.75 144.5 52 L 148.5 58 L 151 59.5 L 153 66.5 Q 156.25 67.75 156.5 72 L 160.5 67 Q 162.75 67.75 162 65.5 L 179.5 46 Q 181.75 46.75 181 44.5 L 184.5 41 L 186 41 L 186 39.5 L 190.5 34 L 192.5 33 Z M 166 62 L 166 63 L 166 62 Z M 90 182 L 90 183 L 90 182 Z M 70 204 L 70 205 L 70 204 Z M 65 209 L 65 210 L 65 209 Z "></path><path fill="rgb(75,102,238)" stroke="rgb(75,102,238)" stroke-width="1" opacity="0.996078431372549" d="M 39.5 34 L 39.5 35 L 39.5 34 Z "></path><path fill="rgb(75,102,238)" stroke="rgb(75,102,238)" stroke-width="1" opacity="0.996078431372549" d="M 37.5 36 L 39 36.5 L 37 37 L 36.5 39 L 36 37.5 L 37.5 36 Z "></path><path fill="rgb(75,102,238)" stroke="rgb(75,102,238)" stroke-width="1" opacity="0.996078431372549" d="M 211.5 36 L 214 37.5 L 213.5 39 L 213 37 L 211 36.5 L 211.5 36 Z "></path><path fill="rgb(75,102,238)" stroke="rgb(75,102,238)" stroke-width="1" opacity="0.996078431372549" d="M 34.5 39 L 34.5 40 L 34.5 39 Z "></path><path fill="rgb(75,102,238)" stroke="rgb(75,102,238)" stroke-width="1" opacity="0.996078431372549" d="M 215.5 39 L 226 51.5 L 224.5 52 L 221 47.5 L 221 46 Q 218.33 47.12 219 44.5 Q 215.38 42.38 215.5 39 Z "></path><path fill="rgb(75,102,238)" stroke="rgb(75,102,238)" stroke-width="1" opacity="0.996078431372549" d="M 33.5 41 Q 35 42 32.5 43 Q 31 42 33.5 41 Z "></path><path fill="rgb(75,102,238)" stroke="rgb(75,102,238)" stroke-width="1" opacity="0.996078431372549" d="M 29.5 46 L 30 46.5 L 26.5 50 L 26 49.5 L 29.5 46 Z "></path><path fill="rgb(75,102,238)" stroke="rgb(75,102,238)" stroke-width="1" opacity="0.996078431372549" d="M 24 51 Q 27 50 26 53 Q 23 54 24 51 Z "></path><path fill="rgb(75,102,238)" stroke="rgb(75,102,238)" stroke-width="1" opacity="0.996078431372549" d="M 226.5 53 L 228 55.5 L 227 55.5 L 226.5 53 Z "></path><path fill="rgb(75,102,238)" stroke="rgb(75,102,238)" stroke-width="1" opacity="0.996078431372549" d="M 22.5 56 L 22.5 57 L 22.5 56 Z "></path><path fill="rgb(75,102,238)" stroke="rgb(75,102,238)" stroke-width="1" opacity="0.996078431372549" d="M 229.5 57 L 231 59.5 Q 230 61 229 58.5 L 229.5 57 Z "></path><path fill="rgb(75,102,238)" stroke="rgb(75,102,238)" stroke-width="1" opacity="0.996078431372549" d="M 20.5 58 L 22 58.5 L 20.5 59 L 20.5 58 Z "></path><path fill="rgb(75,102,238)" stroke="rgb(75,102,238)" stroke-width="1" opacity="0.996078431372549" d="M 106.5 61 Q 109 63 114.5 62 L 117 63 Q 115.75 66 119.5 65 L 124 67 Q 122.33 71.13 126.5 70 L 130.5 78 L 132 77.5 Q 131.25 80.75 133 81.5 L 133 95.5 L 131.5 99 L 130 98.5 L 128 104.5 L 120.5 113 L 118 114.5 L 115.5 118 Q 113.25 117.25 114 119.5 L 105.5 129 Q 103.25 128.25 104 130.5 L 100.5 134 L 99 134 L 96.5 139 L 95 138.5 L 95 140.5 L 83 152.5 L 80.5 157 L 80 88.5 L 81 87.5 L 81 80.5 L 83.5 74 L 85 74.5 L 88.5 68 L 93 66 L 93.5 64 L 96 65 Q 94.75 62 98.5 63 L 99.5 62 L 105.5 62 L 106.5 61 Z M 101 63 L 96 66 L 94 66 L 90 69 L 83 78 Q 84 81 82 82 L 82 88 L 81 89 L 82 153 L 83 151 L 87 148 L 88 146 L 92 143 L 94 139 L 97 137 L 97 136 L 101 132 Q 103 133 102 131 L 106 127 L 107 127 L 108 124 L 121 110 L 125 106 L 126 106 L 129 99 L 132 95 L 132 83 L 128 76 L 128 74 L 126 72 L 123 69 L 114 63 L 101 63 Z M 125 144 L 125 145 L 125 144 Z "></path><path fill="rgb(75,102,238)" stroke="rgb(75,102,238)" stroke-width="1" opacity="0.996078431372549" d="M 17.5 62 L 17.5 63 L 17.5 62 Z "></path><path fill="rgb(75,102,238)" stroke="rgb(75,102,238)" stroke-width="1" opacity="0.996078431372549" d="M 232.5 62 L 232.5 63 L 232.5 62 Z "></path><path fill="rgb(75,102,238)" stroke="rgb(75,102,238)" stroke-width="1" opacity="0.996078431372549" d="M 16.5 64 Q 19 65 17.5 66 Q 15 65 16.5 64 Z "></path><path fill="rgb(75,102,238)" stroke="rgb(75,102,238)" stroke-width="1" opacity="0.996078431372549" d="M 233.5 64 L 237 70.5 Q 236 72 235 69.5 L 233 65.5 L 233.5 64 Z "></path><path fill="rgb(75,102,238)" stroke="rgb(75,102,238)" stroke-width="1" opacity="0.996078431372549" d="M 15.5 66 L 16 68 L 14 67.5 L 15.5 66 Z "></path><path fill="rgb(75,102,238)" stroke="rgb(75,102,238)" stroke-width="1" opacity="0.996078431372549" d="M 59.5 66 L 60 68.5 L 59 69.5 L 58 77.5 L 57 78.5 L 57 216 L 61 215 L 64.5 208 L 68 205.5 L 69.5 203 Q 71.75 203.75 71 201.5 L 74.5 198 L 76 198 Q 76.25 194 79.5 192 L 82 190.5 L 89.5 181 Q 91.75 181.75 91 179.5 L 94.5 176 L 95 176.5 L 94.5 179 L 93 178.5 L 91 182.5 L 75.5 199 Q 73.25 198.25 74 200.5 L 69.5 206 L 66 208.5 L 59.5 217 Q 56.5 217.5 56 215.5 L 56 77.5 L 57 76.5 L 57 72.5 L 59.5 66 Z "></path><path fill="rgb(75,102,238)" stroke="rgb(75,102,238)" stroke-width="1" opacity="0.996078431372549" d="M 14.5 69 Q 16 70 13.5 71 Q 12 70 14.5 69 Z "></path><path fill="rgb(75,102,238)" stroke="rgb(75,102,238)" stroke-width="1" opacity="0.996078431372549" d="M 12.5 72 L 12.5 73 L 12.5 72 Z "></path><path fill="rgb(75,102,238)" stroke="rgb(75,102,238)" stroke-width="1" opacity="0.996078431372549" d="M 237.5 72 L 237.5 73 L 237.5 72 Z "></path><path fill="rgb(75,102,238)" stroke="rgb(75,102,238)" stroke-width="1" opacity="0.996078431372549" d="M 11.5 74 L 12 75.5 L 10.5 78 L 10 76.5 L 11.5 74 Z "></path><path fill="rgb(75,102,238)" stroke="rgb(75,102,238)" stroke-width="1" opacity="0.996078431372549" d="M 238.5 74 L 239 75.5 L 238 75.5 L 238.5 74 Z "></path><path fill="rgb(75,102,238)" stroke="rgb(75,102,238)" stroke-width="1" opacity="0.996078431372549" d="M 240.5 78 L 242 81.5 L 240 82 L 240.5 78 Z "></path><path fill="rgb(75,102,238)" stroke="rgb(75,102,238)" stroke-width="1" opacity="0.996078431372549" d="M 9.5 80 L 9 81.5 L 8.5 83 L 8 81.5 L 9.5 80 Z "></path><path fill="rgb(75,102,238)" stroke="rgb(75,102,238)" stroke-width="1" opacity="0.996078431372549" d="M 7.5 84 L 8 85.5 L 7 85.5 L 7.5 84 Z "></path><path fill="rgb(75,102,238)" stroke="rgb(75,102,238)" stroke-width="1" opacity="0.996078431372549" d="M 242.5 84 L 243 85.5 L 242 85.5 L 242.5 84 Z "></path><path fill="rgb(75,102,238)" stroke="rgb(75,102,238)" stroke-width="1" opacity="0.996078431372549" d="M 6.5 87 L 7 89.5 L 6 89.5 L 6.5 87 Z "></path><path fill="rgb(75,102,238)" stroke="rgb(75,102,238)" stroke-width="1" opacity="0.996078431372549" d="M 243.5 87 L 246 93.5 Q 245 95 244 92.5 L 243 89.5 L 243.5 87 Z "></path><path fill="rgb(75,102,238)" stroke="rgb(75,102,238)" stroke-width="1" opacity="0.996078431372549" d="M 5.5 91 L 6 92.5 L 5 92.5 L 5.5 91 Z "></path><path fill="rgb(75,102,238)" stroke="rgb(75,102,238)" stroke-width="1" opacity="0.996078431372549" d="M 4 94 L 6 94.5 L 4.5 98 L 4 94 Z "></path><path fill="rgb(75,102,238)" stroke="rgb(75,102,238)" stroke-width="1" opacity="0.996078431372549" d="M 169.5 95 L 170 166.5 L 169 167.5 L 168 174.5 L 166.5 176 L 166 174.5 L 169 166.5 L 169 97.5 Q 168 96 167 98.5 L 164.5 102 L 162 103.5 Q 162.5 107.5 159.5 108 Q 157.25 107.25 158 109.5 L 154.5 113 L 153 113 L 153 114.5 L 149.5 118 Q 146.88 117.17 148 120.5 L 130.5 139 Q 128.25 138.25 129 140.5 L 122 148.5 L 122 150.5 L 119 154.5 L 118 157.5 L 118 166.5 Q 120 167.5 119 171.5 L 118 171.5 Q 118.75 168.25 117 167.5 L 117 156.5 Q 118.75 155.58 118 153 Q 120.67 154.12 120 151.5 Q 121.75 150.75 121 147.5 L 124.5 143 L 127 141.5 L 134.5 132 L 137 130.5 L 139.5 127 Q 141.75 127.75 141 125.5 L 144.5 122 L 146 122 Q 146.25 118 149.5 116 Q 151.75 116.75 151 114.5 L 154.5 111 L 156 111 L 158 106 Q 162.13 107.67 161 103.5 L 169.5 95 Z "></path><path fill="rgb(75,102,238)" stroke="rgb(75,102,238)" stroke-width="1" opacity="0.996078431372549" d="M 245.5 96 L 247 99.5 Q 246 101 245 98.5 L 245.5 96 Z "></path><path fill="rgb(75,102,238)" stroke="rgb(75,102,238)" stroke-width="1" opacity="0.996078431372549" d="M 246.5 101 L 246.5 102 L 246.5 101 Z "></path><path fill="rgb(75,102,238)" stroke="rgb(75,102,238)" stroke-width="1" opacity="0.996078431372549" d="M 2.5 103 L 3 107.5 L 2 107.5 L 2.5 103 Z "></path><path fill="rgb(75,102,238)" stroke="rgb(75,102,238)" stroke-width="1" opacity="0.996078431372549" d="M 247.5 104 L 248 106.5 L 247 106.5 L 247.5 104 Z "></path><path fill="rgb(75,102,238)" stroke="rgb(75,102,238)" stroke-width="1" opacity="0.996078431372549" d="M 1.5 110 L 2 115.5 L 1 115.5 L 1.5 110 Z "></path><path fill="rgb(75,102,238)" stroke="rgb(75,102,238)" stroke-width="1" opacity="0.996078431372549" d="M 248.5 110 L 249 115.5 L 250 118 L 248 117.5 L 248.5 110 Z "></path><path fill="rgb(75,102,238)" stroke="rgb(75,102,238)" stroke-width="1" opacity="0.996078431372549" d="M 0 117 L 2 117 L 2 122 L 0 122 L 0 117 Z "></path><path fill="rgb(75,102,238)" stroke="rgb(75,102,238)" stroke-width="1" opacity="0.996078431372549" d="M 248.5 121 L 250 121.5 L 248.5 122 L 248.5 121 Z "></path><path fill="rgb(75,102,238)" stroke="rgb(75,102,238)" stroke-width="1" opacity="0.996078431372549" d="M 0 128 Q 3.67 126.65 2 132.5 Q 0 133.5 2 134.5 Q 0.75 139.25 3 140.5 Q 2 142 1 139.5 L 0 128 Z "></path><path fill="rgb(75,102,238)" stroke="rgb(75,102,238)" stroke-width="1" opacity="0.996078431372549" d="M 248.5 128 L 250 128.5 L 248.5 129 L 248.5 128 Z "></path><path fill="rgb(75,102,238)" stroke="rgb(75,102,238)" stroke-width="1" opacity="0.996078431372549" d="M 249.5 131 L 249.5 132 L 249.5 131 Z "></path><path fill="rgb(75,102,238)" stroke="rgb(75,102,238)" stroke-width="1" opacity="0.996078431372549" d="M 248.5 133 L 248.5 134 L 248.5 133 Z "></path><path fill="rgb(75,102,238)" stroke="rgb(75,102,238)" stroke-width="1" opacity="0.996078431372549" d="M 248.5 135 L 249 139.5 Q 248 142 247 140.5 L 248 139.5 L 248.5 135 Z "></path><path fill="rgb(75,102,238)" stroke="rgb(75,102,238)" stroke-width="1" opacity="0.996078431372549" d="M 2.5 143 L 3 145.5 L 2 145.5 L 2.5 143 Z "></path><path fill="rgb(75,102,238)" stroke="rgb(75,102,238)" stroke-width="1" opacity="0.996078431372549" d="M 247.5 143 L 248 146.5 L 247 146.5 L 247.5 143 Z "></path><path fill="rgb(75,102,238)" stroke="rgb(75,102,238)" stroke-width="1" opacity="0.996078431372549" d="M 246.5 149 L 247 151.5 L 245.5 154 L 245 151.5 L 246.5 149 Z "></path><path fill="rgb(75,102,238)" stroke="rgb(75,102,238)" stroke-width="1" opacity="0.996078431372549" d="M 3.5 150 L 6 155.5 L 4 156 L 3.5 150 Z "></path><path fill="rgb(75,102,238)" stroke="rgb(75,102,238)" stroke-width="1" opacity="0.996078431372549" d="M 245.5 156 L 245 157.5 L 242.5 166 L 242 163.5 L 244 157.5 L 245.5 156 Z "></path><path fill="rgb(75,102,238)" stroke="rgb(75,102,238)" stroke-width="1" opacity="0.996078431372549" d="M 5.5 157 Q 7.56 158.44 7 162.5 L 6 162.5 Q 4.15 160.48 5.5 157 Z "></path><path fill="rgb(75,102,238)" stroke="rgb(75,102,238)" stroke-width="1" opacity="0.996078431372549" d="M 7.5 164 L 8 165.5 L 7 165.5 L 7.5 164 Z "></path><path fill="rgb(75,102,238)" stroke="rgb(75,102,238)" stroke-width="1" opacity="0.996078431372549" d="M 241.5 167 L 242 168.5 Q 240.25 169.42 241 172 L 239 172.5 Q 241 173.5 239 174.5 L 237.5 178 L 237 174.5 L 241.5 167 Z "></path><path fill="rgb(75,102,238)" stroke="rgb(75,102,238)" stroke-width="1" opacity="0.996078431372549" d="M 8.5 168 Q 10.75 167.25 10 169.5 L 9.5 170 Q 7 169 8.5 168 Z "></path><path fill="rgb(75,102,238)" stroke="rgb(75,102,238)" stroke-width="1" opacity="0.996078431372549" d="M 9.5 171 L 9.5 172 L 9.5 171 Z "></path><path fill="rgb(75,102,238)" stroke="rgb(75,102,238)" stroke-width="1" opacity="0.996078431372549" d="M 120.5 171 L 123 175.5 L 123 178 Q 125.88 177.5 127 180.5 L 128.5 183 L 133 184.5 L 131.5 185 L 128.5 184 L 122 177.5 L 120 173.5 L 120.5 171 Z "></path><path fill="rgb(75,102,238)" stroke="rgb(75,102,238)" stroke-width="1" opacity="0.996078431372549" d="M 10.5 173 L 18 185.5 L 18 187.5 L 17 187.5 L 12 176.5 L 10 174.5 L 10.5 173 Z "></path><path fill="rgb(75,102,238)" stroke="rgb(75,102,238)" stroke-width="1" opacity="0.996078431372549" d="M 164.5 176 Q 167 177 165.5 178 Q 163.25 177.25 164 179.5 Q 160.78 184.47 154 185 Q 155.13 187.67 152.5 187 L 151.5 188 L 136.5 188 L 133 186.5 L 136.5 186 L 137.5 187 L 149.5 187 L 154.5 184 L 158.5 183 L 164 177.5 L 164.5 176 Z "></path><path fill="rgb(75,102,238)" stroke="rgb(75,102,238)" stroke-width="1" opacity="0.996078431372549" d="M 96.5 178 L 99 187 L 101 187.5 Q 100 190 99 188.5 L 97 185.5 Q 97.75 182.25 96 181.5 L 96.5 178 Z "></path><path fill="rgb(75,102,238)" stroke="rgb(75,102,238)" stroke-width="1" opacity="0.996078431372549" d="M 236.5 179 L 236.5 180 L 236.5 179 Z "></path><path fill="rgb(75,102,238)" stroke="rgb(75,102,238)" stroke-width="1" opacity="0.996078431372549" d="M 235.5 181 L 236 182.5 L 235 182.5 L 235.5 181 Z "></path><path fill="rgb(75,102,238)" stroke="rgb(75,102,238)" stroke-width="1" opacity="0.996078431372549" d="M 233.5 184 L 234 185.5 L 231.5 189 L 231 187.5 L 233.5 184 Z "></path><path fill="rgb(75,102,238)" stroke="rgb(75,102,238)" stroke-width="1" opacity="0.996078431372549" d="M 18.5 189 L 21 190.5 L 23 195.5 L 22 195.5 L 18 189.5 L 18.5 189 Z "></path><path fill="rgb(75,102,238)" stroke="rgb(75,102,238)" stroke-width="1" opacity="0.996078431372549" d="M 230.5 190 L 230 191.5 L 229.5 193 L 229 191.5 L 230.5 190 Z "></path><path fill="rgb(75,102,238)" stroke="rgb(75,102,238)" stroke-width="1" opacity="0.996078431372549" d="M 227.5 195 L 228 195.5 L 226 197.5 L 217.5 208 L 217 207.5 L 219 205.5 L 227.5 195 Z "></path><path fill="rgb(75,102,238)" stroke="rgb(75,102,238)" stroke-width="1" opacity="0.996078431372549" d="M 24.5 197 L 27 200.5 L 26.5 201 L 24 198.5 L 24.5 197 Z "></path><path fill="rgb(75,102,238)" stroke="rgb(75,102,238)" stroke-width="1" opacity="0.996078431372549" d="M 28.5 203 L 31 204 L 30.5 206 L 28 203.5 L 28.5 203 Z "></path><path fill="rgb(75,102,238)" stroke="rgb(75,102,238)" stroke-width="1" opacity="0.996078431372549" d="M 32.5 207 L 32.5 208 L 32.5 207 Z "></path><path fill="rgb(75,102,238)" stroke="rgb(75,102,238)" stroke-width="1" opacity="0.996078431372549" d="M 33.5 209 L 40 214.5 L 41 216.5 L 40.5 217 L 33 209.5 L 33.5 209 Z "></path><path fill="rgb(75,102,238)" stroke="rgb(75,102,238)" stroke-width="1" opacity="0.996078431372549" d="M 216.5 209 L 217 209.5 L 209.5 217 L 210 215.5 L 214.5 210 L 216.5 209 Z "></path><path fill="rgb(75,102,238)" stroke="rgb(75,102,238)" stroke-width="1" opacity="0.996078431372549" d="M 42.5 217 L 42.5 218 L 42.5 217 Z "></path><path fill="rgb(75,102,238)" stroke="rgb(75,102,238)" stroke-width="1" opacity="0.996078431372549" d="M 207.5 217 L 208 217.5 L 203.5 222 L 204 220.5 Q 203.25 218.25 205.5 219 L 207.5 217 Z "></path><path fill="rgb(75,102,238)" stroke="rgb(75,102,238)" stroke-width="1" opacity="0.996078431372549" d="M 46.5 220 L 53.5 226 L 55 226 L 54.5 228 L 47.5 222 L 46 222 L 46.5 220 Z "></path><path fill="rgb(75,102,238)" stroke="rgb(75,102,238)" stroke-width="1" opacity="0.996078431372549" d="M 199.5 223 L 201 223.5 L 197.5 226 L 197 225.5 L 199.5 223 Z "></path><path fill="rgb(75,102,238)" stroke="rgb(75,102,238)" stroke-width="1" opacity="0.996078431372549" d="M 194.5 227 L 196 227.5 L 192.5 230 L 192 228 L 194.5 227 Z "></path><path fill="rgb(75,102,238)" stroke="rgb(75,102,238)" stroke-width="1" opacity="0.996078431372549" d="M 56.5 228 Q 58.75 227.25 58 229.5 L 57.5 230 Q 55 229 56.5 228 Z "></path><path fill="rgb(75,102,238)" stroke="rgb(75,102,238)" stroke-width="1" opacity="0.996078431372549" d="M 190.5 229 L 191 230.5 L 184.5 235 L 182.5 235 L 179.5 237 Q 178 236 180.5 235 L 185.5 232 L 187.5 232 L 190.5 229 Z "></path><path fill="rgb(75,102,238)" stroke="rgb(75,102,238)" stroke-width="1" opacity="0.996078431372549" d="M 59.5 230 L 59.5 231 L 59.5 230 Z "></path><path fill="rgb(75,102,238)" stroke="rgb(75,102,238)" stroke-width="1" opacity="0.996078431372549" d="M 61.5 231 L 68 234.5 L 67.5 236 L 62.5 233 Q 60 232 61.5 231 Z "></path><path fill="rgb(75,102,238)" stroke="rgb(75,102,238)" stroke-width="1" opacity="0.996078431372549" d="M 69.5 235 Q 72 236 70.5 237 Q 68 236 69.5 235 Z "></path><path fill="rgb(75,102,238)" stroke="rgb(75,102,238)" stroke-width="1" opacity="0.996078431372549" d="M 72.5 237 L 76.5 238 L 78.5 240 L 81.5 240 L 83 241.5 L 81.5 242 L 72.5 238 L 72.5 237 Z "></path><path fill="rgb(75,102,238)" stroke="rgb(75,102,238)" stroke-width="1" opacity="0.996078431372549" d="M 177.5 237 L 177.5 238 L 177.5 237 Z "></path><path fill="rgb(75,102,238)" stroke="rgb(75,102,238)" stroke-width="1" opacity="0.996078431372549" d="M 174.5 238 L 176 238.5 L 173.5 240 Q 172 239 174.5 238 Z "></path><path fill="rgb(75,102,238)" stroke="rgb(75,102,238)" stroke-width="1" opacity="0.996078431372549" d="M 170.5 240 L 172 240.5 L 170.5 241 L 170.5 240 Z "></path><path fill="rgb(75,102,238)" stroke="rgb(75,102,238)" stroke-width="1" opacity="0.996078431372549" d="M 168.5 241 L 168.5 242 L 168.5 241 Z "></path><path fill="rgb(75,102,238)" stroke="rgb(75,102,238)" stroke-width="1" opacity="0.996078431372549" d="M 84.5 242 L 91.5 244 Q 92.5 242 93.5 244 L 96 245.5 L 93 246 L 92.5 244 L 90.5 245 L 84.5 243 L 84.5 242 Z "></path><path fill="rgb(75,102,238)" stroke="rgb(75,102,238)" stroke-width="1" opacity="0.996078431372549" d="M 164.5 242 L 166 242.5 L 164.5 243 L 164.5 242 Z "></path><path fill="rgb(75,102,238)" stroke="rgb(75,102,238)" stroke-width="1" opacity="0.996078431372549" d="M 160.5 243 L 163 243.5 L 158.5 245 L 158.5 244 L 160.5 243 Z "></path><path fill="rgb(75,102,238)" stroke="rgb(75,102,238)" stroke-width="1" opacity="0.996078431372549" d="M 97.5 244 L 97.5 245 L 97.5 244 Z "></path><path fill="rgb(75,102,238)" stroke="rgb(75,102,238)" stroke-width="1" opacity="0.996078431372549" d="M 152.5 244 L 152.5 245 L 152.5 244 Z "></path><path fill="rgb(75,102,238)" stroke="rgb(75,102,238)" stroke-width="1" opacity="0.996078431372549" d="M 155.5 244 Q 158.13 243.33 157 246 L 154 245.5 L 155.5 244 Z "></path><path fill="rgb(75,102,238)" stroke="rgb(75,102,238)" stroke-width="1" opacity="0.996078431372549" d="M 98.5 246 L 101 246.5 L 98.5 247 L 98.5 246 Z "></path><path fill="rgb(75,102,238)" stroke="rgb(75,102,238)" stroke-width="1" opacity="0.996078431372549" d="M 144.5 246 L 148 246.5 L 142.5 248 L 142.5 247 L 144.5 246 Z "></path><path fill="rgb(75,102,238)" stroke="rgb(75,102,238)" stroke-width="1" opacity="0.996078431372549" d="M 149.5 246 L 152 246.5 L 149.5 247 L 149.5 246 Z "></path><path fill="rgb(75,102,238)" stroke="rgb(75,102,238)" stroke-width="1" opacity="0.996078431372549" d="M 103.5 247 L 107 247.5 L 103.5 248 L 103.5 247 Z "></path><path fill="rgb(75,102,238)" stroke="rgb(75,102,238)" stroke-width="1" opacity="0.996078431372549" d="M 113.5 247 L 116 247.5 Q 115 250 110.5 249 L 110.5 248 L 113.5 247 Z "></path><path fill="rgb(75,102,238)" stroke="rgb(75,102,238)" stroke-width="1" opacity="0.996078431372549" d="M 134.5 247 L 140 248.5 L 135.5 249 Q 133 248 134.5 247 Z "></path><path fill="rgb(75,102,238)" stroke="rgb(75,102,238)" stroke-width="1" opacity="0.996078431372549" d="M 117 248 L 122 248 L 122 250 L 117 250 L 117 248 Z "></path><path fill="rgb(75,102,238)" stroke="rgb(75,102,238)" stroke-width="1" opacity="0.996078431372549" d="M 128 248 L 133 248 L 133 250 L 128 250 L 128 248 Z "></path><path fill="rgb(76,103,239)" stroke="rgb(76,103,239)" stroke-width="1" opacity="1" d="M 122 0 L 128 0 L 128.5 2 L 133.5 2 L 135 1.5 L 134.5 3 Q 136.33 1.33 140.5 2 L 141.5 3 L 147.5 3 L 150.5 4 L 152 3.5 L 152.5 5 Q 154 2.5 155.5 6 L 160.5 6 L 163.5 8 Q 165 5.5 166.5 9 L 169.5 10 L 172 9 Q 170.88 11.67 173.5 11 L 178.5 13 L 180.5 15 L 182 14.5 L 182.5 16 L 184 15.5 Q 183.17 18.13 186.5 17 L 191.5 21 L 194 21 Q 192.75 24 196.5 23 L 199.5 27 L 202.5 29 L 204 28.5 Q 202.88 31.83 205.5 31 Q 206.92 35.08 212 35.5 L 211.5 37 Q 213.75 36.25 213 38.5 L 215 38.5 Q 215.75 42.75 219 44.5 L 219 46 Q 221.67 44.88 221 47.5 L 224.5 52 Q 226.75 51.25 226 53.5 L 227 56 Q 230 54.75 229 58.5 L 232 60 L 233 65.5 L 238 73.5 L 238 76 L 240 76 L 240 81.5 L 242 82 L 242 85.5 L 243 86.5 L 244 92.5 L 246 95.5 L 245 98.5 L 247 100.5 Q 245 101.5 247 102.5 Q 246 106.5 248 107.5 L 248 118 Q 251.33 116.88 250 121 L 248 121.5 L 250 122 L 250 127.5 L 248.5 128 L 248.5 129 Q 250.75 128.25 250 130.5 L 249 131.5 L 249.5 133 L 248 133.5 Q 250 134.5 248 135.5 Q 249 139.5 247 140.5 L 248 142.5 L 247 143.5 L 247 148.5 L 245 151.5 L 245 153.5 L 246 155.5 L 244 157.5 L 242 163.5 L 242 166.5 L 239 171.5 L 239.5 173 L 238 172.5 Q 236.33 174.33 237 178.5 Q 234.4 180.32 235 184 Q 232.33 182.88 233 185.5 L 231 187.5 L 229 193.5 Q 221 200.5 215.5 210 L 210 214.5 L 208.5 217 L 204 219 Q 204.5 221.87 201.5 223 Q 197.5 222.5 197 225.5 Q 197.83 228.13 194.5 227 L 192 228 L 191.5 230 L 190.5 229 L 187.5 232 L 185.5 232 L 172.5 240 L 170.5 240 L 167.5 242 L 160.5 243 L 157.5 245 L 155.5 244 L 153.5 246 Q 149.5 245 148.5 247 Q 147.75 245.25 144.5 246 L 144.5 247 L 146 247.5 L 144.5 248 L 142.5 247 Q 141.5 249 137.5 248 L 134.5 247 L 135 248.5 L 133.5 250 L 133 248 L 128 248 L 127.5 250 L 122 250 Q 123.35 246.33 117.5 248 L 115.5 249 L 115.5 247 L 112.5 248 L 107.5 248 L 106.5 247 L 96.5 246 L 93.5 244 Q 92.5 246 91.5 244 L 86.5 242 L 83.5 242 L 81.5 240 L 78.5 240 L 76.5 238 L 71.5 237 L 69.5 235 L 68 235.5 L 66.5 233 L 58 230 L 58 228 L 55 228 Q 56.13 225.33 53.5 226 L 46.5 220 L 45.5 221 L 43 218.5 Q 43.75 216.25 41.5 217 L 35.5 210 L 33 208.5 Q 33.67 205.88 31 207 L 31 204 L 29.5 204 L 24.5 197 Q 21.88 197.83 23 194.5 L 19.5 189 Q 16.5 189.87 18 185.5 L 9 170.5 L 10 168 Q 6.67 169.31 8 164.5 L 7 163.5 L 7 159.5 L 6 157 L 4 156.5 L 6 155.5 L 3 149.5 Q 4 144 2 141.5 Q 4 140.5 2 139.5 Q 3.25 134.75 1 133.5 L 2 132.5 L 2 128 L 0 128 L 0 122 Q 3.67 123.35 2 117.5 Q 0 116.5 2 115.5 L 3 98 Q 6 99.25 5 95.5 L 5.5 94 L 4 93.5 L 6 93 L 5 89.5 L 7 89.5 L 7 86.5 L 10 80.5 L 9 78 Q 11.67 79.13 11 76.5 L 13 71.5 L 15 69.5 L 14.5 68 Q 17.13 68.83 16 65.5 L 19 59 L 22 58.5 L 20 57.5 L 23.5 53 Q 26.83 54.12 26 51.5 L 25.5 50 L 29 47.5 L 28 46.5 L 31.5 43 L 34 41.5 L 33.5 40 Q 35.75 40.75 35 38.5 L 37 38.5 Q 36.25 36.25 38.5 37 L 38.5 35 Q 40.75 35.75 40 33.5 L 41.5 34 L 43 32.5 L 45.5 29 Q 48.5 29.5 49 27.5 Q 48.17 24.87 51.5 26 Q 52.75 22.75 57 22.5 L 56.5 21 Q 60.25 21.75 61 19.5 Q 60.17 16.88 63.5 18 L 79.5 9 Q 81 11.5 82.5 8 L 85.5 8 L 90.5 6 L 94.5 6 L 96.5 4 Q 97.5 6 98.5 4 L 103.5 3 L 105.5 4 L 105.5 2 L 107.5 3 Q 108.75 0.75 113.5 2 L 115.5 3 L 115.5 1 L 116.5 2 L 122 2 L 122 0 Z M 193 33 L 193 34 L 195 34 L 193 33 Z M 191 34 L 191 35 L 192 35 L 191 34 Z M 196 34 L 195 167 L 196 167 L 196 34 Z M 190 35 Q 188 37 190 38 L 188 40 L 187 39 L 186 41 L 184 42 L 186 43 L 179 50 L 178 49 L 174 53 L 175 54 L 168 62 L 167 62 L 173 56 L 173 54 L 165 62 L 166 63 L 164 63 Q 163 65 166 64 L 166 65 L 159 72 L 159 71 L 159 69 L 157 72 L 156 69 L 155 74 L 157 73 Q 158 74 156 75 Q 154 75 154 72 Q 151 70 155 69 Q 154 66 153 68 L 153 67 L 152 62 L 151 64 L 150 64 L 151 60 L 150 60 Q 151 62 149 61 L 150 58 L 148 59 L 143 54 L 145 54 L 146 54 L 143 52 L 142 49 L 141 51 L 142 52 L 131 45 L 133 44 L 131 42 L 128 43 L 128 42 Q 126 38 125 42 L 117 40 L 122 39 L 118 38 L 117 37 L 98 37 L 97 38 L 92 39 L 96 40 L 89 42 L 88 40 L 79 44 L 79 45 L 83 44 L 84 44 L 78 48 L 75 47 Q 72 48 74 49 L 76 48 L 76 49 L 68 57 L 67 57 L 69 55 L 69 53 L 63 60 L 64 62 L 64 61 L 67 58 L 67 59 L 65 62 Q 64 64 63 62 L 61 64 L 62 67 L 60 72 L 59 69 L 57 73 L 57 77 L 56 78 L 57 216 L 57 214 L 59 214 L 63 210 L 62 212 L 63 213 L 65 211 L 64 210 L 66 210 L 66 209 L 65 208 L 68 205 L 70 206 L 69 205 L 71 205 Q 72 202 70 203 L 69 203 L 77 195 L 76 197 L 77 198 L 78 196 L 81 193 L 80 192 Q 81 189 83 191 L 90 184 L 89 183 L 91 183 Q 92 180 90 181 L 89 181 L 95 175 L 96 176 L 96 182 L 98 182 Q 96 182 97 186 Q 98 188 99 187 L 98 185 L 99 183 L 100 186 L 99 188 L 100 189 L 102 188 L 101 190 L 101 192 L 103 195 L 107 197 L 107 197 L 104 194 L 105 193 L 115 203 L 113 204 Q 114 206 116 204 L 118 204 L 121 207 L 120 206 L 117 207 L 124 209 Q 125 211 126 209 L 133 210 L 133 211 Q 129 212 129 210 L 125 211 L 129 212 L 133 212 L 134 213 L 155 213 L 156 212 L 163 211 L 163 210 Q 159 209 159 211 L 154 211 L 161 209 Q 162 206 164 210 L 169 207 L 171 207 Q 173 206 172 205 L 170 206 L 168 206 L 172 203 L 173 205 L 175 204 L 177 202 L 177 201 L 174 203 L 173 203 L 176 200 L 178 201 L 181 198 L 180 197 Q 181 194 183 196 L 186 193 L 185 192 L 183 193 L 187 188 L 186 190 L 187 192 L 188 190 L 187 187 L 189 187 Q 191 186 189 185 L 190 183 L 190 185 L 191 185 L 190 182 L 191 178 L 192 178 L 191 180 L 192 182 L 194 175 L 194 169 Q 197 167 193 166 L 194 164 L 194 36 Q 191 37 190 35 Z M 189 37 L 189 38 L 189 37 Z M 188 38 L 188 39 L 188 38 Z M 89 39 L 89 40 L 92 40 L 89 39 Z M 123 39 L 123 40 L 126 40 L 123 39 Z M 184 42 L 181 46 L 182 46 L 184 44 L 184 42 Z M 134 44 L 134 45 L 136 45 L 134 44 Z M 78 45 L 77 47 L 78 47 L 78 45 Z M 137 45 L 136 47 L 137 47 L 137 45 Z M 30 46 L 30 47 L 30 46 Z M 180 46 L 178 49 L 179 49 L 181 47 L 180 46 Z M 138 47 L 138 48 L 138 47 Z M 139 48 L 139 49 L 141 49 L 139 48 Z M 73 49 L 69 53 L 70 53 L 73 51 L 73 49 Z M 174 53 L 174 54 L 174 53 Z M 147 54 L 146 57 L 147 57 L 147 54 Z M 23 56 L 23 57 L 23 56 Z M 148 57 L 148 58 L 148 57 Z M 164 64 L 162 67 Q 163 68 164 66 L 164 64 Z M 18 65 L 18 66 L 18 65 Z M 60 66 L 59 69 L 60 69 L 60 66 Z M 161 67 Q 158 68 160 69 L 162 68 L 161 67 Z M 95 176 L 93 178 Q 94 180 95 179 L 95 176 Z M 93 178 L 91 181 Q 92 182 93 180 L 93 178 Z M 82 191 L 82 192 L 82 191 Z M 182 196 L 182 197 L 182 196 Z M 108 197 L 108 198 L 108 197 Z M 75 198 L 75 199 L 76 199 L 75 198 Z M 109 198 L 108 200 L 112 202 L 112 202 L 109 198 Z M 74 199 L 71 203 L 72 203 L 74 201 L 74 199 Z M 113 202 L 113 203 L 113 202 Z M 116 205 L 116 206 L 117 206 L 116 205 Z M 68 206 L 68 207 L 68 206 Z M 67 207 L 67 208 L 67 207 Z M 62 213 L 61 215 L 62 215 L 62 213 Z M 60 215 L 58 216 L 58 217 Q 61 218 61 216 L 60 215 Z M 93 243 L 93 244 L 93 243 Z M 98 244 L 98 245 L 98 244 Z M 153 244 L 153 245 L 153 244 Z "></path><path fill="rgb(76,103,239)" stroke="rgb(76,103,239)" stroke-width="1" opacity="1" d="M 98.5 38 L 100 38.5 L 98.5 39 L 98.5 38 Z "></path><path fill="rgb(76,103,239)" stroke="rgb(76,103,239)" stroke-width="1" opacity="1" d="M 113.5 38 L 116 38.5 L 113.5 39 L 113.5 38 Z "></path><path fill="rgb(76,103,239)" stroke="rgb(76,103,239)" stroke-width="1" opacity="1" d="M 85.5 42 L 85.5 43 L 85.5 42 Z "></path><path fill="rgb(76,103,239)" stroke="rgb(76,103,239)" stroke-width="1" opacity="1" d="M 129.5 43 L 129.5 44 L 129.5 43 Z "></path><path fill="rgb(76,103,239)" stroke="rgb(76,103,239)" stroke-width="1" opacity="1" d="M 102.5 61 L 106 61.5 L 102.5 62 L 102.5 61 Z "></path><path fill="rgb(76,103,239)" stroke="rgb(76,103,239)" stroke-width="1" opacity="1" d="M 108.5 61 L 112 61.5 L 108.5 62 L 108.5 61 Z "></path><path fill="rgb(76,103,239)" stroke="rgb(76,103,239)" stroke-width="1" opacity="1" d="M 98.5 62 L 98.5 63 L 98.5 62 Z "></path><path fill="rgb(76,103,239)" stroke="rgb(76,103,239)" stroke-width="1" opacity="1" d="M 115.5 62 L 115.5 63 L 115.5 62 Z "></path><path fill="rgb(76,103,239)" stroke="rgb(76,103,239)" stroke-width="1" opacity="1" d="M 95.5 63 L 96.5 65 L 100.5 63 L 113.5 63 L 116.5 65 L 117.5 63 L 123 66.5 Q 121 67.5 123 68.5 L 123.5 70 L 124.5 67 L 128 70.5 L 127.5 71 L 124.5 70 Q 123 71 125.5 72 L 127.5 73 L 128.5 72 L 131 74.5 Q 131.75 77.75 130 78.5 L 132 82.5 L 132 94.5 L 130 97.5 Q 131.75 98.25 131 101.5 L 128.5 104 Q 127.25 101.75 126 104.5 L 127 106.5 L 122.5 111 L 122 110.5 L 126 106.5 L 125.5 106 L 121 109.5 L 119 112.5 Q 121.25 113.75 118.5 115 L 117.5 114 L 114 117.5 L 116 118.5 L 109.5 126 L 109 124.5 L 114 118.5 L 113.5 118 L 108 123.5 L 107 127 L 104 128.5 L 105.5 129 L 107 128.5 L 97.5 138 L 96.5 137 L 95 137.5 L 97 139.5 L 87 149.5 L 82.5 155 L 83 153.5 L 82.5 152 L 81 152.5 L 80.5 88 L 79.5 158 L 79 86.5 L 80 85.5 L 80.5 81 L 81.5 88 L 83 77.5 L 82.5 76 Q 83.75 78.25 85 75.5 L 84 72.5 L 86.5 70 Q 88 72.5 89.5 69 L 93 66.5 L 91.5 66 L 89.5 68 L 89 67.5 L 92.5 65 L 95.5 66 L 95.5 65 L 94 64.5 L 95.5 63 Z M 118 65 L 117 66 L 120 67 L 122 67 L 118 65 Z M 87 71 L 86 73 L 87 73 L 87 71 Z M 86 73 L 85 75 L 86 75 L 86 73 Z M 129 73 Q 127 76 129 78 L 130 78 L 129 73 Z M 130 98 L 128 101 L 129 103 L 130 101 L 130 98 Z M 119 113 L 119 114 L 119 113 Z M 104 129 L 102 132 Q 103 133 104 131 L 104 129 Z M 101 132 Q 98 133 100 134 L 102 133 L 101 132 Z M 99 134 L 97 137 Q 98 138 99 136 L 99 134 Z M 95 138 L 93 142 Q 94 143 95 141 L 95 138 Z M 93 142 L 93 143 L 93 142 Z M 127 142 L 127 143 L 127 142 Z M 91 143 L 88 147 L 89 147 L 92 144 L 91 143 Z M 88 147 L 88 148 L 88 147 Z M 86 148 L 83 152 L 84 152 L 87 149 L 86 148 Z M 121 151 L 120 153 L 121 153 L 121 151 Z "></path><path fill="rgb(76,103,239)" stroke="rgb(76,103,239)" stroke-width="1" opacity="1" d="M 62.5 64 L 62.5 65 L 62.5 64 Z "></path><path fill="rgb(76,103,239)" stroke="rgb(76,103,239)" stroke-width="1" opacity="1" d="M 151.5 65 L 151.5 66 L 151.5 65 Z "></path><path fill="rgb(76,103,239)" stroke="rgb(76,103,239)" stroke-width="1" opacity="1" d="M 58.5 73 L 59 74.5 L 58 74.5 L 58.5 73 Z "></path><path fill="rgb(76,103,239)" stroke="rgb(76,103,239)" stroke-width="1" opacity="1" d="M 57.5 78 L 57.5 79 L 57.5 78 Z "></path><path fill="rgb(76,103,239)" stroke="rgb(76,103,239)" stroke-width="1" opacity="1" d="M 81.5 78 L 82 79.5 L 81 79.5 L 81.5 78 Z "></path><path fill="rgb(76,103,239)" stroke="rgb(76,103,239)" stroke-width="1" opacity="1" d="M 132.5 79 L 133 80.5 L 132 80.5 L 132.5 79 Z "></path><path fill="rgb(76,103,239)" stroke="rgb(76,103,239)" stroke-width="1" opacity="1" d="M 133.5 84 L 134 91.5 L 133 91.5 L 133.5 84 Z "></path><path fill="rgb(76,103,239)" stroke="rgb(76,103,239)" stroke-width="1" opacity="1" d="M 170.5 92 L 171 167.5 L 169.5 171 L 168.5 167 L 166 175.5 L 166.5 177 L 164.5 176 L 164 177.5 L 165 179.5 L 162.5 182 L 162 181.5 L 164 178.5 L 163.5 178 L 159 182.5 Q 161.25 183.75 158.5 185 L 154.5 187 L 153.5 185 L 149.5 187 L 137.5 187 Q 136.75 185.25 133.5 186 Q 132.5 188 131.5 186 L 128.5 185 L 122 178.5 L 123 175.5 L 120.5 171 L 120 173.5 L 122 176.5 Q 121 178 120 175.5 Q 118 173 119 167.5 L 118 166.5 L 118 157.5 L 120 153.5 L 118 152.5 L 120.5 148 L 121.5 151 Q 121.75 146.75 125 145.5 L 124.5 144 L 126 144.5 L 125 142.5 L 126.5 141 Q 127.75 143.25 129 140.5 L 128.5 139 L 127 139.5 L 132.5 134 L 133 134.5 L 129 138.5 L 129.5 139 L 134 135.5 L 136 132.5 Q 133.75 131.25 136.5 130 L 137.5 131 L 141 127.5 L 139.5 127 L 138 127.5 L 146.5 119 L 147 119.5 L 146 121.5 Q 147 123 148 120.5 Q 146.88 117.17 149.5 118 Q 152 117 150.5 116 L 148.5 117 L 148 116.5 L 157.5 107 L 159.5 108 Q 162 107 160.5 106 L 158 105.5 L 170.5 92 Z M 170 95 L 168 97 L 169 98 L 169 167 L 170 167 L 170 95 Z M 168 97 L 168 98 L 168 97 Z M 167 98 L 163 102 L 164 102 L 167 100 L 167 98 Z M 163 102 L 163 103 L 163 102 Z M 162 103 L 161 106 L 162 106 L 162 103 Z M 158 108 L 156 111 Q 157 112 158 110 L 158 108 Z M 155 111 Q 152 112 154 113 L 156 112 L 155 111 Z M 153 113 L 151 116 Q 152 117 153 115 L 153 113 Z M 145 122 L 141 127 L 142 127 L 146 123 L 145 122 Z M 137 131 L 137 132 L 137 131 Z M 124 178 L 123 179 L 127 182 L 127 181 L 124 178 Z M 128 182 L 128 183 L 128 182 Z M 129 183 L 129 184 L 131 184 L 129 183 Z M 158 183 L 158 184 L 159 184 L 158 183 Z M 132 184 L 132 185 L 133 185 L 132 184 Z M 155 184 L 155 185 L 157 185 L 155 184 Z "></path><path fill="rgb(76,103,239)" stroke="rgb(76,103,239)" stroke-width="1" opacity="1" d="M 132.5 96 L 132.5 97 L 132.5 96 Z "></path><path fill="rgb(76,103,239)" stroke="rgb(76,103,239)" stroke-width="1" opacity="1" d="M 122.5 145 Q 124 146 121.5 147 Q 120 146 122.5 145 Z "></path><path fill="rgb(76,103,239)" stroke="rgb(76,103,239)" stroke-width="1" opacity="1" d="M 117.5 155 L 117.5 156 L 117.5 155 Z "></path><path fill="rgb(76,103,239)" stroke="rgb(76,103,239)" stroke-width="1" opacity="1" d="M 117.5 168 L 117.5 169 L 117.5 168 Z "></path><path fill="rgb(76,103,239)" stroke="rgb(76,103,239)" stroke-width="1" opacity="1" d="M 168.5 172 L 168.5 173 L 168.5 172 Z "></path><path fill="rgb(76,103,239)" stroke="rgb(76,103,239)" stroke-width="1" opacity="1" d="M 192.5 173 L 192.5 174 L 192.5 173 Z "></path><path fill="rgb(76,103,239)" stroke="rgb(76,103,239)" stroke-width="1" opacity="1" d="M 87.5 183 L 88 183.5 L 83.5 188 L 83 187.5 L 87.5 183 Z "></path><path fill="rgb(76,103,239)" stroke="rgb(76,103,239)" stroke-width="1" opacity="1" d="M 135.5 187 L 135.5 188 L 135.5 187 Z "></path><path fill="rgb(76,103,239)" stroke="rgb(76,103,239)" stroke-width="1" opacity="1" d="M 152.5 187 L 152.5 188 L 152.5 187 Z "></path><path fill="rgb(76,103,239)" stroke="rgb(76,103,239)" stroke-width="1" opacity="1" d="M 139.5 188 L 148 188.5 L 139.5 189 L 139.5 188 Z "></path><path fill="rgb(76,103,239)" stroke="rgb(76,103,239)" stroke-width="1" opacity="1" d="M 102.5 190 Q 105 191 103.5 192 Q 101 191 102.5 190 Z "></path><path fill="rgb(76,103,239)" stroke="rgb(76,103,239)" stroke-width="1" opacity="1" d="M 166.5 206 L 166.5 207 L 166.5 206 Z "></path><path fill="rgb(76,103,239)" stroke="rgb(76,103,239)" stroke-width="1" opacity="1" d="M 164.5 207 L 164.5 208 L 164.5 207 Z "></path><path fill="rgb(76,103,239)" stroke="rgb(76,103,239)" stroke-width="1" opacity="1" d="M 134.5 211 L 137 211.5 L 134.5 212 L 134.5 211 Z "></path><path fill="rgb(76,103,239)" stroke="rgb(76,103,239)" stroke-width="1" opacity="1" d="M 151.5 211 L 153 211.5 L 151.5 212 L 151.5 211 Z "></path><path fill="rgb(220,225,251)" stroke="rgb(220,225,251)" stroke-width="1" opacity="1" d="M 191.5 37 L 193 37.5 L 193 166.5 L 192 166.5 L 191.5 38 L 157 75.5 L 157 77 L 154.5 78 L 153 76.5 L 152 70.5 L 148 62.5 L 139.5 52 L 130 45.5 L 131.5 46 Q 139.02 49.48 144 55.5 L 153 70.5 L 154 76 L 155.5 76 L 166 65.5 L 191.5 37 Z "></path><path fill="rgb(220,225,251)" stroke="rgb(220,225,251)" stroke-width="1" opacity="1" d="M 101.5 39 L 113 39.5 L 101.5 40 L 101.5 39 Z "></path><path fill="rgb(220,225,251)" stroke="rgb(220,225,251)" stroke-width="1" opacity="1" d="M 95.5 40 L 98 40.5 L 94.5 42 L 91.5 42 L 82.5 46 Q 74.2 50.7 68.5 58 L 68 57.5 L 76.5 49 L 86.5 43 L 95.5 40 Z "></path><path fill="rgb(220,225,251)" stroke="rgb(220,225,251)" stroke-width="1" opacity="1" d="M 115.5 40 L 118.5 40 L 127 43.5 L 125.5 44 L 121.5 42 L 115.5 41 L 115.5 40 Z "></path><path fill="rgb(220,225,251)" stroke="rgb(220,225,251)" stroke-width="1" opacity="1" d="M 128.5 44 L 128.5 45 L 128.5 44 Z "></path><path fill="rgb(220,225,251)" stroke="rgb(220,225,251)" stroke-width="1" opacity="1" d="M 67.5 59 L 68 59.5 L 66 61.5 L 63.5 66 L 64 64.5 Q 64.63 60.63 67.5 59 Z "></path><path fill="rgb(220,225,251)" stroke="rgb(220,225,251)" stroke-width="1" opacity="1" d="M 104.5 59 L 109 59.5 L 104.5 60 L 104.5 59 Z "></path><path fill="rgb(220,225,251)" stroke="rgb(220,225,251)" stroke-width="1" opacity="1" d="M 99.5 60 L 101 60.5 L 99.5 61 L 99.5 60 Z "></path><path fill="rgb(220,225,251)" stroke="rgb(220,225,251)" stroke-width="1" opacity="1" d="M 112.5 60 L 115 60.5 L 112.5 61 L 112.5 60 Z "></path><path fill="rgb(220,225,251)" stroke="rgb(220,225,251)" stroke-width="1" opacity="1" d="M 96.5 61 L 98 61.5 L 96.5 62 L 96.5 61 Z "></path><path fill="rgb(220,225,251)" stroke="rgb(220,225,251)" stroke-width="1" opacity="1" d="M 116.5 61 Q 124.5 63.5 129 69.5 L 128.5 70 L 124.5 66 L 116.5 62 L 116.5 61 Z "></path><path fill="rgb(220,225,251)" stroke="rgb(220,225,251)" stroke-width="1" opacity="1" d="M 93.5 62 L 95 62.5 L 90.5 65 L 83 72.5 L 81.5 76 L 81 74.5 L 87.5 66 L 93.5 62 Z "></path><path fill="rgb(220,225,251)" stroke="rgb(220,225,251)" stroke-width="1" opacity="1" d="M 62.5 67 L 63 68.5 L 60.5 74 L 60 71.5 L 62.5 67 Z "></path><path fill="rgb(220,225,251)" stroke="rgb(220,225,251)" stroke-width="1" opacity="1" d="M 129.5 71 Q 133.04 73.46 134 78.5 L 133 78.5 Q 132.18 73.82 129 71.5 L 129.5 71 Z "></path><path fill="rgb(220,225,251)" stroke="rgb(220,225,251)" stroke-width="1" opacity="1" d="M 59.5 75 L 60 76.5 L 59 76.5 L 59.5 75 Z "></path><path fill="rgb(220,225,251)" stroke="rgb(220,225,251)" stroke-width="1" opacity="1" d="M 80.5 77 L 80.5 78 L 80.5 77 Z "></path><path fill="rgb(220,225,251)" stroke="rgb(220,225,251)" stroke-width="1" opacity="1" d="M 79.5 79 L 80 81.5 L 79 82.5 L 79 158.5 L 79.5 159 L 88.5 150 L 89 150.5 L 79.5 160 L 78 160 L 78 82.5 L 79.5 79 Z "></path><path fill="rgb(220,225,251)" stroke="rgb(220,225,251)" stroke-width="1" opacity="1" d="M 58.5 80 L 59 87.5 L 58 87.5 L 58.5 80 Z "></path><path fill="rgb(220,225,251)" stroke="rgb(220,225,251)" stroke-width="1" opacity="1" d="M 134.5 81 L 135 83.5 L 134 83.5 L 134.5 81 Z "></path><path fill="rgb(220,225,251)" stroke="rgb(220,225,251)" stroke-width="1" opacity="1" d="M 135.5 87 L 136 88.5 L 135 88.5 L 135.5 87 Z "></path><path fill="rgb(220,225,251)" stroke="rgb(220,225,251)" stroke-width="1" opacity="1" d="M 170.5 90 Q 173.25 89.75 173 90.5 L 173 163.5 Q 170.75 164.75 172 169.5 L 168 178.5 L 161.5 185 L 153.5 189 L 153.5 188 Q 160.89 185.89 165 180.5 L 170 172.5 L 171 169.5 L 171 164.5 L 172 163.5 L 172 91 Q 168.75 90.5 167.5 94 L 167 93.5 L 170.5 90 Z "></path><path fill="rgb(220,225,251)" stroke="rgb(220,225,251)" stroke-width="1" opacity="1" d="M 134.5 92 L 135 94.5 L 134 94.5 L 134.5 92 Z "></path><path fill="rgb(220,225,251)" stroke="rgb(220,225,251)" stroke-width="1" opacity="1" d="M 165.5 96 L 166 96.5 L 159 103.5 L 125.5 140 L 125 139.5 L 132 132.5 L 165.5 96 Z "></path><path fill="rgb(220,225,251)" stroke="rgb(220,225,251)" stroke-width="1" opacity="1" d="M 133.5 97 L 134 98.5 L 129.5 105 L 129 104.5 L 131 102.5 L 133.5 97 Z "></path><path fill="rgb(220,225,251)" stroke="rgb(220,225,251)" stroke-width="1" opacity="1" d="M 128.5 106 L 129 106.5 L 123 112.5 L 110.5 126 L 110 125.5 L 119 116.5 L 128.5 106 Z "></path><path fill="rgb(220,225,251)" stroke="rgb(220,225,251)" stroke-width="1" opacity="1" d="M 109.5 127 L 110 127.5 L 102 135.5 Q 102.75 137.75 100.5 137 L 90.5 148 L 90 147.5 L 98 139.5 L 109.5 127 Z "></path><path fill="rgb(220,225,251)" stroke="rgb(220,225,251)" stroke-width="1" opacity="1" d="M 123.5 141 L 125 141.5 L 120.5 146 L 120 145.5 L 123.5 141 Z "></path><path fill="rgb(220,225,251)" stroke="rgb(220,225,251)" stroke-width="1" opacity="1" d="M 119.5 147 L 119 148.5 L 117.5 152 L 117 150.5 L 119.5 147 Z "></path><path fill="rgb(220,225,251)" stroke="rgb(220,225,251)" stroke-width="1" opacity="1" d="M 116.5 153 L 117 154.5 L 116 154.5 L 116.5 153 Z "></path><path fill="rgb(220,225,251)" stroke="rgb(220,225,251)" stroke-width="1" opacity="1" d="M 115.5 157 L 116 166.5 L 115 166.5 L 115.5 157 Z "></path><path fill="rgb(220,225,251)" stroke="rgb(220,225,251)" stroke-width="1" opacity="1" d="M 116.5 169 L 117 170.5 L 116 170.5 L 116.5 169 Z "></path><path fill="rgb(220,225,251)" stroke="rgb(220,225,251)" stroke-width="1" opacity="1" d="M 191.5 169 L 192 172.5 L 191 172.5 L 191.5 169 Z "></path><path fill="rgb(220,225,251)" stroke="rgb(220,225,251)" stroke-width="1" opacity="1" d="M 95.5 172 L 97 173.5 L 98 177.5 L 97 177.5 L 95.5 173 L 58.5 213 L 58 212.5 L 67 203.5 L 95.5 172 Z "></path><path fill="rgb(220,225,251)" stroke="rgb(220,225,251)" stroke-width="1" opacity="1" d="M 117.5 172 L 120 176.5 Q 119 178 118 175.5 Q 116.29 173.96 117.5 172 Z "></path><path fill="rgb(220,225,251)" stroke="rgb(220,225,251)" stroke-width="1" opacity="1" d="M 190.5 175 L 191 176.5 L 190 176.5 L 190.5 175 Z "></path><path fill="rgb(220,225,251)" stroke="rgb(220,225,251)" stroke-width="1" opacity="1" d="M 120.5 178 Q 124.75 184.25 132 187.5 L 130.5 188 L 120 178.5 L 120.5 178 Z "></path><path fill="rgb(220,225,251)" stroke="rgb(220,225,251)" stroke-width="1" opacity="1" d="M 189.5 178 L 190 179.5 L 186.5 186 L 186 184.5 L 189.5 178 Z "></path><path fill="rgb(220,225,251)" stroke="rgb(220,225,251)" stroke-width="1" opacity="1" d="M 98.5 179 L 99 180.5 L 98 180.5 L 98.5 179 Z "></path><path fill="rgb(220,225,251)" stroke="rgb(220,225,251)" stroke-width="1" opacity="1" d="M 99.5 182 L 99.5 183 L 99.5 182 Z "></path><path fill="rgb(220,225,251)" stroke="rgb(220,225,251)" stroke-width="1" opacity="1" d="M 100.5 184 Q 105.25 193.25 113 199.5 L 112.5 200 L 105 192.5 L 100 184.5 L 100.5 184 Z "></path><path fill="rgb(220,225,251)" stroke="rgb(220,225,251)" stroke-width="1" opacity="1" d="M 185.5 187 L 186 187.5 L 184 189.5 L 177.5 198 L 167.5 205 Q 166 204 168.5 203 L 172.5 201 L 183 190.5 L 185.5 187 Z "></path><path fill="rgb(220,225,251)" stroke="rgb(220,225,251)" stroke-width="1" opacity="1" d="M 133.5 188 L 135 188.5 L 133.5 189 L 133.5 188 Z "></path><path fill="rgb(220,225,251)" stroke="rgb(220,225,251)" stroke-width="1" opacity="1" d="M 136.5 189 L 138 189.5 L 136.5 190 L 136.5 189 Z "></path><path fill="rgb(220,225,251)" stroke="rgb(220,225,251)" stroke-width="1" opacity="1" d="M 149.5 189 L 152 189.5 L 149.5 190 L 149.5 189 Z "></path><path fill="rgb(220,225,251)" stroke="rgb(220,225,251)" stroke-width="1" opacity="1" d="M 142.5 190 L 146 190.5 L 142.5 191 L 142.5 190 Z "></path><path fill="rgb(220,225,251)" stroke="rgb(220,225,251)" stroke-width="1" opacity="1" d="M 114.5 200 L 123 205.5 L 121.5 206 L 116.5 203 L 114 200.5 L 114.5 200 Z "></path><path fill="rgb(220,225,251)" stroke="rgb(220,225,251)" stroke-width="1" opacity="1" d="M 165.5 205 L 165.5 206 L 165.5 205 Z "></path><path fill="rgb(220,225,251)" stroke="rgb(220,225,251)" stroke-width="1" opacity="1" d="M 124.5 206 L 124.5 207 L 124.5 206 Z "></path><path fill="rgb(220,225,251)" stroke="rgb(220,225,251)" stroke-width="1" opacity="1" d="M 162.5 206 L 164 206.5 L 155.5 210 L 152.5 210 L 152.5 209 L 158.5 208 L 162.5 206 Z "></path><path fill="rgb(220,225,251)" stroke="rgb(220,225,251)" stroke-width="1" opacity="1" d="M 126.5 207 L 135 209.5 L 132.5 210 L 126.5 208 L 126.5 207 Z "></path><path fill="rgb(220,225,251)" stroke="rgb(220,225,251)" stroke-width="1" opacity="1" d="M 138.5 210 L 150 210.5 L 138.5 211 L 138.5 210 Z "></path><path fill="rgb(254,254,254)" stroke="rgb(254,254,254)" stroke-width="1" opacity="0.996078431372549" d="M 191.5 38 L 191 39.5 L 189.5 42 L 188 41.5 L 191.5 38 Z "></path><path fill="rgb(254,254,254)" stroke="rgb(254,254,254)" stroke-width="1" opacity="0.996078431372549" d="M 98.5 40 L 115 40.5 L 98.5 41 L 98.5 40 Z "></path><path fill="rgb(254,254,254)" stroke="rgb(254,254,254)" stroke-width="1" opacity="0.996078431372549" d="M 95.5 41 L 97 41.5 L 95.5 42 L 95.5 41 Z "></path><path fill="rgb(254,254,254)" stroke="rgb(254,254,254)" stroke-width="1" opacity="0.996078431372549" d="M 117.5 41 L 117.5 42 L 117.5 41 Z "></path><path fill="rgb(254,254,254)" stroke="rgb(254,254,254)" stroke-width="1" opacity="0.996078431372549" d="M 91.5 42 L 91.5 43 L 91.5 42 Z "></path><path fill="rgb(254,254,254)" stroke="rgb(254,254,254)" stroke-width="1" opacity="0.996078431372549" d="M 120.5 42 L 122 42.5 L 120.5 43 L 120.5 42 Z "></path><path fill="rgb(254,254,254)" stroke="rgb(254,254,254)" stroke-width="1" opacity="0.996078431372549" d="M 89.5 43 L 90 45 L 84.5 46 L 84.5 45 L 89.5 43 Z "></path><path fill="rgb(254,254,254)" stroke="rgb(254,254,254)" stroke-width="1" opacity="0.996078431372549" d="M 124.5 43 L 131 46.5 L 129.5 47 Q 127.68 44.4 124 45 L 124.5 43 Z "></path><path fill="rgb(254,254,254)" stroke="rgb(254,254,254)" stroke-width="1" opacity="0.996078431372549" d="M 186.5 44 L 186 45.5 L 184.5 48 L 181 50.5 L 179.5 53 L 179 51.5 L 186.5 44 Z "></path><path fill="rgb(254,254,254)" stroke="rgb(254,254,254)" stroke-width="1" opacity="0.996078431372549" d="M 82.5 46 L 83 46.5 L 81 48.5 Q 81.67 51.13 79 50 Q 77.88 47.33 80.5 48 L 82.5 46 Z "></path><path fill="rgb(254,254,254)" stroke="rgb(254,254,254)" stroke-width="1" opacity="0.996078431372549" d="M 132.5 47 L 142 54.5 L 148 62.5 L 146.5 62 Q 143.88 62.83 145 59.5 L 141.5 56 L 140 56 L 140 54.5 L 136.5 51 L 133 50 L 132.5 47 Z "></path><path fill="rgb(254,254,254)" stroke="rgb(254,254,254)" stroke-width="1" opacity="0.996078431372549" d="M 76.5 50 L 78 50.5 L 75 52 L 74.5 54 L 74 52.5 L 76.5 50 Z "></path><path fill="rgb(254,254,254)" stroke="rgb(254,254,254)" stroke-width="1" opacity="0.996078431372549" d="M 72.5 54 L 72 55.5 L 69.5 60 L 68 58.5 L 72.5 54 Z "></path><path fill="rgb(254,254,254)" stroke="rgb(254,254,254)" stroke-width="1" opacity="0.996078431372549" d="M 176.5 55 L 177 55.5 L 175 57.5 L 174.5 59 L 174 57.5 L 176.5 55 Z "></path><path fill="rgb(254,254,254)" stroke="rgb(254,254,254)" stroke-width="1" opacity="0.996078431372549" d="M 98.5 59 L 104 59.5 L 99.5 60 L 94 62 Q 92.69 58.67 97.5 60 L 98.5 59 Z "></path><path fill="rgb(254,254,254)" stroke="rgb(254,254,254)" stroke-width="1" opacity="0.996078431372549" d="M 109.5 59 L 115.5 59 L 118.5 60 L 123.5 64 L 126 64 Q 125.5 66.87 128.5 68 Q 130.75 67.25 130 69.5 L 132 72.5 L 131.5 73 L 129 70.5 L 124.5 65 L 117.5 61 L 114.5 60 L 109.5 60 L 109.5 59 Z "></path><path fill="rgb(254,254,254)" stroke="rgb(254,254,254)" stroke-width="1" opacity="0.996078431372549" d="M 172.5 59 L 173 59.5 L 171 61.5 L 169.5 65 L 168 63.5 L 172.5 59 Z "></path><path fill="rgb(254,254,254)" stroke="rgb(254,254,254)" stroke-width="1" opacity="0.996078431372549" d="M 66.5 61 L 66.5 62 L 66.5 61 Z "></path><path fill="rgb(254,254,254)" stroke="rgb(254,254,254)" stroke-width="1" opacity="0.996078431372549" d="M 92.5 62 L 92.5 63 L 92.5 62 Z "></path><path fill="rgb(254,254,254)" stroke="rgb(254,254,254)" stroke-width="1" opacity="0.996078431372549" d="M 65.5 63 L 66 65.5 L 63.5 67 L 63 66.5 L 65 64.5 L 65.5 63 Z "></path><path fill="rgb(254,254,254)" stroke="rgb(254,254,254)" stroke-width="1" opacity="0.996078431372549" d="M 90.5 63 L 91 63.5 L 88.5 66 L 88 64 L 90.5 63 Z "></path><path fill="rgb(254,254,254)" stroke="rgb(254,254,254)" stroke-width="1" opacity="0.996078431372549" d="M 148.5 64 L 148.5 65 L 148.5 64 Z "></path><path fill="rgb(254,254,254)" stroke="rgb(254,254,254)" stroke-width="1" opacity="0.996078431372549" d="M 167.5 65 L 168 65.5 L 165 68.5 L 164.5 70 L 164 68.5 L 167.5 65 Z "></path><path fill="rgb(254,254,254)" stroke="rgb(254,254,254)" stroke-width="1" opacity="0.996078431372549" d="M 149.5 66 L 151 70.5 L 150 70.5 L 149.5 66 Z "></path><path fill="rgb(254,254,254)" stroke="rgb(254,254,254)" stroke-width="1" opacity="0.996078431372549" d="M 85.5 67 L 86 68.5 L 82.5 72 L 82 71.5 L 85.5 67 Z "></path><path fill="rgb(254,254,254)" stroke="rgb(254,254,254)" stroke-width="1" opacity="0.996078431372549" d="M 62.5 69 L 62.5 70 L 62.5 69 Z "></path><path fill="rgb(254,254,254)" stroke="rgb(254,254,254)" stroke-width="1" opacity="0.996078431372549" d="M 162.5 70 L 163 70.5 L 161 72.5 L 160 76 L 157 75.5 L 162.5 70 Z "></path><path fill="rgb(254,254,254)" stroke="rgb(254,254,254)" stroke-width="1" opacity="0.996078431372549" d="M 61.5 71 L 62 72.5 L 61 72.5 L 61.5 71 Z "></path><path fill="rgb(254,254,254)" stroke="rgb(254,254,254)" stroke-width="1" opacity="0.996078431372549" d="M 80.5 73 L 81 76.5 L 79.5 79 L 79 76.5 L 80.5 73 Z "></path><path fill="rgb(254,254,254)" stroke="rgb(254,254,254)" stroke-width="1" opacity="0.996078431372549" d="M 152.5 73 L 152.5 74 L 152.5 73 Z "></path><path fill="rgb(254,254,254)" stroke="rgb(254,254,254)" stroke-width="1" opacity="0.996078431372549" d="M 60.5 74 L 61 77.5 L 60 78.5 L 60 208 Q 62.87 208.5 64 205.5 L 65.5 203 L 67 203.5 L 58.5 212 L 58 211.5 L 58 88.5 L 59 87.5 L 59 77.5 L 60.5 74 Z "></path><path fill="rgb(254,254,254)" stroke="rgb(254,254,254)" stroke-width="1" opacity="0.996078431372549" d="M 132.5 74 L 132.5 75 L 132.5 74 Z "></path><path fill="rgb(254,254,254)" stroke="rgb(254,254,254)" stroke-width="1" opacity="0.996078431372549" d="M 133.5 76 Q 136.5 75.12 135 79.5 L 136 80.5 L 136 86.5 L 135 86.5 L 135 81.5 L 134 80.5 L 134 77.5 L 133.5 76 Z "></path><path fill="rgb(254,254,254)" stroke="rgb(254,254,254)" stroke-width="1" opacity="0.996078431372549" d="M 153.5 77 L 153.5 78 L 153.5 77 Z "></path><path fill="rgb(254,254,254)" stroke="rgb(254,254,254)" stroke-width="1" opacity="0.996078431372549" d="M 155.5 77 L 157 77.5 L 155.5 78 L 155.5 77 Z "></path><path fill="rgb(254,254,254)" stroke="rgb(254,254,254)" stroke-width="1" opacity="0.996078431372549" d="M 78.5 80 L 79 81.5 L 78 81.5 L 78.5 80 Z "></path><path fill="rgb(254,254,254)" stroke="rgb(254,254,254)" stroke-width="1" opacity="0.996078431372549" d="M 135.5 89 L 136 95.5 L 134.5 100 L 134 95.5 L 135 94.5 L 135.5 89 Z "></path><path fill="rgb(254,254,254)" stroke="rgb(254,254,254)" stroke-width="1" opacity="0.996078431372549" d="M 169 89 L 173 89.5 Q 168.75 89.75 167.5 93 L 167 92.5 L 169 90.5 L 169 89 Z "></path><path fill="rgb(254,254,254)" stroke="rgb(254,254,254)" stroke-width="1" opacity="0.996078431372549" d="M 165.5 93 L 167 94.5 L 157 104.5 L 152.5 110 L 153 108.5 L 155 104 L 156.5 104 L 160 100.5 Q 159.25 98.25 161.5 99 L 165.5 93 Z "></path><path fill="rgb(254,254,254)" stroke="rgb(254,254,254)" stroke-width="1" opacity="0.996078431372549" d="M 132.5 101 L 132.5 102 L 132.5 101 Z "></path><path fill="rgb(254,254,254)" stroke="rgb(254,254,254)" stroke-width="1" opacity="0.996078431372549" d="M 131.5 103 L 131 104.5 L 129.5 108 L 129 105.5 L 131.5 103 Z "></path><path fill="rgb(254,254,254)" stroke="rgb(254,254,254)" stroke-width="1" opacity="0.996078431372549" d="M 127.5 108 L 128 108.5 L 126 110.5 L 124.5 113 L 123 112.5 L 127.5 108 Z "></path><path fill="rgb(254,254,254)" stroke="rgb(254,254,254)" stroke-width="1" opacity="0.996078431372549" d="M 150.5 110 L 151 111.5 L 147.5 115 L 147 114.5 L 150.5 110 Z "></path><path fill="rgb(254,254,254)" stroke="rgb(254,254,254)" stroke-width="1" opacity="0.996078431372549" d="M 121.5 115 L 122 115.5 L 119.5 118 L 119 117.5 L 121.5 115 Z "></path><path fill="rgb(254,254,254)" stroke="rgb(254,254,254)" stroke-width="1" opacity="0.996078431372549" d="M 145.5 115 L 146 116.5 L 138.5 125 L 139 123.5 L 140.5 120 Q 141.75 122.25 143 119.5 L 145.5 115 Z "></path><path fill="rgb(254,254,254)" stroke="rgb(254,254,254)" stroke-width="1" opacity="0.996078431372549" d="M 117.5 119 L 118 119.5 L 116 121.5 L 114.5 125 Q 113.25 122.75 112 125.5 L 109.5 130 L 109 128.5 L 117.5 119 Z "></path><path fill="rgb(254,254,254)" stroke="rgb(254,254,254)" stroke-width="1" opacity="0.996078431372549" d="M 135.5 127 L 136 127.5 L 133.5 130 L 133 129.5 L 135.5 127 Z "></path><path fill="rgb(254,254,254)" stroke="rgb(254,254,254)" stroke-width="1" opacity="0.996078431372549" d="M 107.5 130 L 108 130.5 L 105 133.5 L 104.5 136 L 103 135.5 L 100 139.5 L 100 141 L 98.5 141 L 95 144.5 Q 95.75 146.75 93.5 146 Q 90.25 148 90 152 Q 87.12 151.5 86 154.5 L 84.5 157 L 81 159.5 Q 81.83 162.13 78.5 161 L 78.5 160 L 89 150.5 L 100.5 137 Q 102.75 137.75 102 135.5 L 107.5 130 Z "></path><path fill="rgb(254,254,254)" stroke="rgb(254,254,254)" stroke-width="1" opacity="0.996078431372549" d="M 130.5 132 L 132 132.5 L 127.5 137 L 127 136.5 L 130.5 132 Z "></path><path fill="rgb(254,254,254)" stroke="rgb(254,254,254)" stroke-width="1" opacity="0.996078431372549" d="M 125.5 137 L 126 138.5 L 124.5 141 L 124 138.5 L 125.5 137 Z "></path><path fill="rgb(254,254,254)" stroke="rgb(254,254,254)" stroke-width="1" opacity="0.996078431372549" d="M 120.5 143 L 122 143.5 L 118.5 148 L 119 146.5 Q 118.5 143.5 120.5 143 Z "></path><path fill="rgb(254,254,254)" stroke="rgb(254,254,254)" stroke-width="1" opacity="0.996078431372549" d="M 117.5 149 L 117.5 150 L 117.5 149 Z "></path><path fill="rgb(254,254,254)" stroke="rgb(254,254,254)" stroke-width="1" opacity="0.996078431372549" d="M 115 152 L 117 152.5 L 115 157.5 L 115 166.5 L 117 171.5 Q 116 174 115 172.5 Q 116 168.5 114 167.5 L 114 156.5 Q 116 155.37 115 152 Z "></path><path fill="rgb(254,254,254)" stroke="rgb(254,254,254)" stroke-width="1" opacity="0.996078431372549" d="M 190.5 163 L 192 168.5 Q 189.75 169.75 191 174.5 L 188.5 180 L 188 178.5 L 190 173.5 L 190.5 163 Z "></path><path fill="rgb(254,254,254)" stroke="rgb(254,254,254)" stroke-width="1" opacity="0.996078431372549" d="M 172.5 164 L 173 165.5 L 172 165.5 L 172.5 164 Z "></path><path fill="rgb(254,254,254)" stroke="rgb(254,254,254)" stroke-width="1" opacity="0.996078431372549" d="M 171.5 170 L 172 171.5 L 171 171.5 L 171.5 170 Z "></path><path fill="rgb(254,254,254)" stroke="rgb(254,254,254)" stroke-width="1" opacity="0.996078431372549" d="M 94.5 172 L 95 172.5 L 92.5 175 L 92 174.5 L 94.5 172 Z "></path><path fill="rgb(254,254,254)" stroke="rgb(254,254,254)" stroke-width="1" opacity="0.996078431372549" d="M 96.5 172 L 96.5 173 L 96.5 172 Z "></path><path fill="rgb(254,254,254)" stroke="rgb(254,254,254)" stroke-width="1" opacity="0.996078431372549" d="M 170.5 173 L 171 174.5 Q 169.25 175.42 170 178 L 168 177.5 L 170.5 173 Z "></path><path fill="rgb(254,254,254)" stroke="rgb(254,254,254)" stroke-width="1" opacity="0.996078431372549" d="M 97.5 174 L 98 175.5 L 97 175.5 L 97.5 174 Z "></path><path fill="rgb(254,254,254)" stroke="rgb(254,254,254)" stroke-width="1" opacity="0.996078431372549" d="M 117.5 174 L 117.5 175 L 117.5 174 Z "></path><path fill="rgb(254,254,254)" stroke="rgb(254,254,254)" stroke-width="1" opacity="0.996078431372549" d="M 90.5 175 L 91 176.5 L 88.5 179 L 88 178.5 L 90.5 175 Z "></path><path fill="rgb(254,254,254)" stroke="rgb(254,254,254)" stroke-width="1" opacity="0.996078431372549" d="M 118.5 176 L 127.5 186 L 130 187.5 L 128.5 187 L 125 186 L 125 184.5 L 121.5 181 Q 119.25 181.75 120 179.5 L 118 176.5 L 118.5 176 Z "></path><path fill="rgb(254,254,254)" stroke="rgb(254,254,254)" stroke-width="1" opacity="0.996078431372549" d="M 98.5 178 Q 101.12 177.17 100 180.5 L 102 184.5 Q 101 186 100 183.5 L 98 178.5 L 98.5 178 Z "></path><path fill="rgb(254,254,254)" stroke="rgb(254,254,254)" stroke-width="1" opacity="0.996078431372549" d="M 85.5 180 L 86.5 181 L 88 180.5 L 78.5 190 L 78 189.5 Q 80.42 188.42 80.5 185 Q 81.75 187.25 83 184.5 L 85.5 180 Z "></path><path fill="rgb(254,254,254)" stroke="rgb(254,254,254)" stroke-width="1" opacity="0.996078431372549" d="M 166.5 180 L 167 180.5 L 164.5 183 L 164 182.5 L 166.5 180 Z "></path><path fill="rgb(254,254,254)" stroke="rgb(254,254,254)" stroke-width="1" opacity="0.996078431372549" d="M 187.5 181 L 187.5 182 L 187.5 181 Z "></path><path fill="rgb(254,254,254)" stroke="rgb(254,254,254)" stroke-width="1" opacity="0.996078431372549" d="M 185.5 183 L 186 186.5 L 183.5 189 L 183 188.5 L 185.5 183 Z "></path><path fill="rgb(254,254,254)" stroke="rgb(254,254,254)" stroke-width="1" opacity="0.996078431372549" d="M 160.5 185 L 162 185.5 L 159.5 187 Q 158 186 160.5 185 Z "></path><path fill="rgb(254,254,254)" stroke="rgb(254,254,254)" stroke-width="1" opacity="0.996078431372549" d="M 102.5 186 L 102.5 187 L 102.5 186 Z "></path><path fill="rgb(254,254,254)" stroke="rgb(254,254,254)" stroke-width="1" opacity="0.996078431372549" d="M 157.5 187 L 157.5 188 L 157.5 187 Z "></path><path fill="rgb(254,254,254)" stroke="rgb(254,254,254)" stroke-width="1" opacity="0.996078431372549" d="M 103.5 188 L 106 189.5 L 105.5 191 L 103 188.5 L 103.5 188 Z "></path><path fill="rgb(254,254,254)" stroke="rgb(254,254,254)" stroke-width="1" opacity="0.996078431372549" d="M 132.5 188 L 136.5 190 L 142 190.5 L 135.5 191 Q 134.58 189.25 132 190 L 132.5 188 Z "></path><path fill="rgb(254,254,254)" stroke="rgb(254,254,254)" stroke-width="1" opacity="0.996078431372549" d="M 155.5 188 L 156 190 Q 153.42 189.25 152.5 191 L 146.5 191 L 146.5 190 L 151.5 190 L 155.5 188 Z "></path><path fill="rgb(254,254,254)" stroke="rgb(254,254,254)" stroke-width="1" opacity="0.996078431372549" d="M 180.5 190 L 181.5 191 L 183 190.5 L 178.5 195 L 178 194.5 Q 180.42 193.42 180.5 190 Z "></path><path fill="rgb(254,254,254)" stroke="rgb(254,254,254)" stroke-width="1" opacity="0.996078431372549" d="M 75.5 192 L 76 193.5 L 68.5 201 L 68 200.5 L 70.5 197 L 74 194.5 L 75.5 192 Z "></path><path fill="rgb(254,254,254)" stroke="rgb(254,254,254)" stroke-width="1" opacity="0.996078431372549" d="M 106.5 192 Q 107.5 194.5 110 194 L 110 195.5 L 113.5 199 Q 116.83 197.88 116 200.5 L 116.5 202 L 106 192.5 L 106.5 192 Z "></path><path fill="rgb(254,254,254)" stroke="rgb(254,254,254)" stroke-width="1" opacity="0.996078431372549" d="M 175.5 197 L 176 197.5 L 172.5 201 L 172 199 Q 174.5 199.5 175.5 197 Z "></path><path fill="rgb(254,254,254)" stroke="rgb(254,254,254)" stroke-width="1" opacity="0.996078431372549" d="M 170.5 200 L 171 201.5 Q 170 204 169 202.5 L 170.5 200 Z "></path><path fill="rgb(254,254,254)" stroke="rgb(254,254,254)" stroke-width="1" opacity="0.996078431372549" d="M 118.5 202 L 123.5 205 L 127 205 Q 128.13 207.67 125.5 207 L 119.5 204 Q 117 203 118.5 202 Z "></path><path fill="rgb(254,254,254)" stroke="rgb(254,254,254)" stroke-width="1" opacity="0.996078431372549" d="M 167.5 203 Q 169 204 166.5 205 L 160 207 Q 158.69 203.67 163.5 205 L 167.5 203 Z "></path><path fill="rgb(254,254,254)" stroke="rgb(254,254,254)" stroke-width="1" opacity="0.996078431372549" d="M 128.5 207 L 130 207.5 L 128.5 208 L 128.5 207 Z "></path><path fill="rgb(254,254,254)" stroke="rgb(254,254,254)" stroke-width="1" opacity="0.996078431372549" d="M 158.5 207 L 158.5 208 L 158.5 207 Z "></path><path fill="rgb(254,254,254)" stroke="rgb(254,254,254)" stroke-width="1" opacity="0.996078431372549" d="M 132.5 208 L 135.5 209 L 152 209.5 L 135.5 210 L 132.5 209 L 132.5 208 Z "></path><path fill="rgb(254,254,254)" stroke="rgb(254,254,254)" stroke-width="1" opacity="0.996078431372549" d="M 153.5 208 L 155 208.5 L 153.5 209 L 153.5 208 Z "></path><path fill="rgb(255,255,255)" stroke="rgb(255,255,255)" stroke-width="1" opacity="1" d="M 191.5 39 L 192 166.5 L 191 166.5 L 190.5 163 L 190 173.5 L 186.5 184 L 185 183.5 L 185 185.5 L 181.5 191 L 180 190.5 L 180 192.5 L 176.5 197 L 172 199 L 171.5 201 L 170 200.5 L 168.5 203 L 163.5 205 L 160 205 Q 161.13 207.67 158.5 207 L 152.5 209 L 135.5 209 L 134.5 208 L 130.5 208 Q 129.58 206.25 127 207 Q 128.31 203.67 123.5 205 L 116 200.5 Q 116.83 197.88 113.5 199 L 110 195.5 L 110 194 Q 107.13 194.5 106 191.5 Q 106.5 188.5 104.5 188 Q 102.25 188.75 103 186.5 L 101 183.5 L 100 178 Q 96.67 179.31 98 174.5 L 97 172 Q 93.17 171.25 92 174.5 L 91.5 176 L 90 175.5 L 86.5 181 L 85 180.5 L 81.5 186 L 80 185.5 L 80 187.5 L 76.5 192 L 74 193.5 L 71.5 197 L 69 198.5 L 66.5 203 L 64 204.5 L 61.5 208 L 60 207.5 L 60 78.5 L 61 77.5 L 61 73.5 L 63 69.5 L 63 67 L 66 65.5 L 66 62.5 L 68.5 59 L 70 59.5 L 73.5 53 L 75 53.5 Q 74.25 51.25 76.5 52 L 78.5 49 L 81 50 Q 80.5 47.13 83.5 46 L 90 45 Q 88.88 42.33 91.5 43 L 97.5 41 L 116.5 41 L 120.5 43 L 124 43 Q 122.75 46 126.5 45 L 133 48.5 Q 132.25 50.75 134.5 50 L 140 54.5 Q 139.25 56.75 141.5 56 L 145 59.5 L 145 62 L 148 63.5 L 150.5 71 L 152 70.5 L 153 78 L 157 78 L 157 76 L 160 76 L 160 74.5 L 163.5 69 L 165 69.5 L 168.5 64 L 170 64.5 L 173.5 58 L 175 58.5 L 178.5 53 L 181 51.5 L 183.5 48 L 186 46.5 L 188.5 42 L 191 40.5 L 191.5 39 Z M 99 59 L 98 60 Q 93 59 94 62 L 90 64 Q 87 63 88 66 L 86 67 L 82 72 L 82 74 L 81 73 L 78 81 L 78 161 L 81 161 L 81 160 L 85 157 L 86 155 Q 87 151 90 152 Q 90 148 94 146 Q 96 147 95 145 L 99 141 L 100 141 L 100 140 L 103 136 L 105 136 L 105 134 L 108 130 L 110 130 L 112 126 Q 113 123 115 125 L 118 120 Q 117 117 120 118 L 122 115 L 125 113 L 128 108 L 130 108 L 133 102 L 133 100 L 135 100 L 136 96 L 136 81 L 135 80 Q 136 75 133 76 L 130 70 Q 131 67 129 68 Q 125 67 126 64 L 124 64 L 119 60 L 116 59 L 99 59 Z M 169 89 L 167 94 L 166 93 L 162 99 Q 159 98 160 101 L 157 104 L 155 104 L 152 111 L 151 110 L 147 116 L 146 115 L 143 120 Q 142 122 141 120 L 138 126 L 136 127 L 133 131 L 131 132 L 127 138 L 126 137 Q 124 138 124 141 L 121 143 L 117 150 Q 118 153 115 152 Q 116 155 114 157 L 114 168 Q 116 168 115 173 L 117 172 L 120 180 Q 119 182 122 181 L 125 185 L 125 186 L 130 188 Q 133 187 132 190 Q 135 189 136 191 L 153 191 L 154 190 Q 157 191 156 188 L 161 187 L 162 185 L 165 183 L 167 180 L 170 178 L 170 176 L 172 172 L 172 167 L 173 166 L 173 90 Q 173 88 169 89 Z "></path><path fill="rgb(255,255,255)" stroke="rgb(255,255,255)" stroke-width="1" opacity="1" d="M 24.5 47 L 24.5 48 L 24.5 47 Z "></path><path fill="rgb(75,102,238)" stroke="rgb(75,102,238)" stroke-width="1" opacity="0.5803921568627451" d="M 110.5 0 L 116 0.5 L 94.5 4 L 94.5 3 L 102.5 2 L 103.5 1 L 109.5 1 L 110.5 0 Z "></path><path fill="rgb(75,102,238)" stroke="rgb(75,102,238)" stroke-width="1" opacity="0.5803921568627451" d="M 133.5 0 L 146.5 1 L 147.5 2 L 151.5 2 L 156 3.5 L 152.5 4 L 146.5 2 L 133.5 1 L 133.5 0 Z "></path><path fill="rgb(75,102,238)" stroke="rgb(75,102,238)" stroke-width="1" opacity="0.5803921568627451" d="M 91.5 4 L 93 4.5 L 91.5 5 L 91.5 4 Z "></path><path fill="rgb(75,102,238)" stroke="rgb(75,102,238)" stroke-width="1" opacity="0.5803921568627451" d="M 157.5 4 L 159 4.5 L 157.5 5 L 157.5 4 Z "></path><path fill="rgb(75,102,238)" stroke="rgb(75,102,238)" stroke-width="1" opacity="0.5803921568627451" d="M 87.5 5 L 89 5.5 L 79.5 9 L 79.5 8 L 87.5 5 Z "></path><path fill="rgb(75,102,238)" stroke="rgb(75,102,238)" stroke-width="1" opacity="0.5803921568627451" d="M 161.5 5 L 171 8.5 L 169.5 9 L 161.5 6 L 161.5 5 Z "></path><path fill="rgb(75,102,238)" stroke="rgb(75,102,238)" stroke-width="1" opacity="0.5803921568627451" d="M 77.5 9 L 77.5 10 L 77.5 9 Z "></path><path fill="rgb(75,102,238)" stroke="rgb(75,102,238)" stroke-width="1" opacity="0.5803921568627451" d="M 172.5 9 L 178.5 11 L 182 13.5 L 180.5 14 L 172.5 10 L 172.5 9 Z "></path><path fill="rgb(75,102,238)" stroke="rgb(75,102,238)" stroke-width="1" opacity="0.5803921568627451" d="M 74.5 10 Q 76 11 73.5 12 L 66.5 15 L 66.5 14 L 74.5 10 Z "></path><path fill="rgb(75,102,238)" stroke="rgb(75,102,238)" stroke-width="1" opacity="0.5803921568627451" d="M 183.5 14 Q 191.95 17.55 198 23.5 L 197.5 24 L 195.5 22 L 184.5 16 Q 182 15 183.5 14 Z "></path><path fill="rgb(75,102,238)" stroke="rgb(75,102,238)" stroke-width="1" opacity="0.5803921568627451" d="M 64.5 15 Q 66 16 63.5 17 L 60.5 18 L 52.5 24 L 52 23.5 L 54.5 21 L 64.5 15 Z "></path><path fill="rgb(75,102,238)" stroke="rgb(75,102,238)" stroke-width="1" opacity="0.5803921568627451" d="M 50.5 24 L 51 24.5 L 47.5 28 Q 39.13 33.13 33 40.5 L 24.5 51 L 24 50.5 L 26 48.5 Q 32.38 38.38 41.5 31 L 50.5 24 Z "></path><path fill="rgb(75,102,238)" stroke="rgb(75,102,238)" stroke-width="1" opacity="0.5803921568627451" d="M 199.5 24 Q 210.41 31.59 219 41.5 L 226 50.5 L 225.5 51 L 222 47.5 Q 216.88 39.13 209.5 33 L 202.5 28 L 199 24.5 L 199.5 24 Z "></path><path fill="rgb(75,102,238)" stroke="rgb(75,102,238)" stroke-width="1" opacity="0.5803921568627451" d="M 23.5 52 L 24 52.5 L 22 54.5 L 14.5 67 L 15 65.5 L 17 60.5 L 23.5 52 Z "></path><path fill="rgb(75,102,238)" stroke="rgb(75,102,238)" stroke-width="1" opacity="0.5803921568627451" d="M 226.5 52 L 235 64.5 Q 234 66 233 63.5 L 232 60.5 L 226 52.5 L 226.5 52 Z "></path><path fill="rgb(75,102,238)" stroke="rgb(75,102,238)" stroke-width="1" opacity="0.5803921568627451" d="M 235.5 66 L 240 75.5 L 239 75.5 L 235 67.5 L 235.5 66 Z "></path><path fill="rgb(75,102,238)" stroke="rgb(75,102,238)" stroke-width="1" opacity="0.5803921568627451" d="M 13.5 68 L 14 69.5 L 9.5 78 L 9 76.5 L 13.5 68 Z "></path><path fill="rgb(75,102,238)" stroke="rgb(75,102,238)" stroke-width="1" opacity="0.5803921568627451" d="M 240.5 77 L 240.5 78 L 240.5 77 Z "></path><path fill="rgb(75,102,238)" stroke="rgb(75,102,238)" stroke-width="1" opacity="0.5803921568627451" d="M 8.5 79 L 9 80.5 L 5.5 89 L 5 87.5 L 8.5 79 Z "></path><path fill="rgb(75,102,238)" stroke="rgb(75,102,238)" stroke-width="1" opacity="0.5803921568627451" d="M 241.5 79 L 245 89.5 L 244 89.5 L 241 80.5 L 241.5 79 Z "></path><path fill="rgb(75,102,238)" stroke="rgb(75,102,238)" stroke-width="1" opacity="0.5803921568627451" d="M 4.5 91 L 5 92.5 L 4 92.5 L 4.5 91 Z "></path><path fill="rgb(75,102,238)" stroke="rgb(75,102,238)" stroke-width="1" opacity="0.5803921568627451" d="M 245.5 91 L 246 92.5 L 245 92.5 L 245.5 91 Z "></path><path fill="rgb(75,102,238)" stroke="rgb(75,102,238)" stroke-width="1" opacity="0.5803921568627451" d="M 3.5 94 L 4 97.5 L 2 103.5 L 2 109.5 L 1 110.5 L 0.5 117 L 0 110.5 L 1 109.5 L 1 103.5 L 2 102.5 L 2 98.5 L 3.5 94 Z "></path><path fill="rgb(75,102,238)" stroke="rgb(75,102,238)" stroke-width="1" opacity="0.5803921568627451" d="M 246.5 94 L 248 98.5 L 248 102.5 L 249 103.5 L 250 115.5 L 249 115.5 L 248 104.5 L 247 103.5 Q 248.25 98.75 246 97.5 L 246.5 94 Z "></path><path fill="rgb(75,102,238)" stroke="rgb(75,102,238)" stroke-width="1" opacity="0.5803921568627451" d="M 249.5 133 L 250 139.5 L 249 140.5 L 249 146.5 L 248 147.5 L 248 151.5 L 246.5 156 L 246 152.5 L 248 146.5 L 248 140.5 L 249 139.5 L 249.5 133 Z "></path><path fill="rgb(75,102,238)" stroke="rgb(75,102,238)" stroke-width="1" opacity="0.5803921568627451" d="M 0.5 134 L 4 155.5 L 3 155.5 L 2 147.5 L 1 146.5 L 1 140.5 L 0 139.5 L 0.5 134 Z "></path><path fill="rgb(75,102,238)" stroke="rgb(75,102,238)" stroke-width="1" opacity="0.5803921568627451" d="M 4.5 157 L 5 158.5 L 4 158.5 L 4.5 157 Z "></path><path fill="rgb(75,102,238)" stroke="rgb(75,102,238)" stroke-width="1" opacity="0.5803921568627451" d="M 245.5 157 L 246 158.5 L 245 158.5 L 245.5 157 Z "></path><path fill="rgb(75,102,238)" stroke="rgb(75,102,238)" stroke-width="1" opacity="0.5803921568627451" d="M 244.5 160 L 245 162.5 L 241.5 171 L 241 169.5 L 244.5 160 Z "></path><path fill="rgb(75,102,238)" stroke="rgb(75,102,238)" stroke-width="1" opacity="0.5803921568627451" d="M 5.5 161 L 9 170.5 L 8 170.5 L 5 162.5 L 5.5 161 Z "></path><path fill="rgb(75,102,238)" stroke="rgb(75,102,238)" stroke-width="1" opacity="0.5803921568627451" d="M 9.5 172 L 9.5 173 L 9.5 172 Z "></path><path fill="rgb(75,102,238)" stroke="rgb(75,102,238)" stroke-width="1" opacity="0.5803921568627451" d="M 240.5 172 L 241 173.5 L 236.5 182 L 236 180.5 L 240.5 172 Z "></path><path fill="rgb(75,102,238)" stroke="rgb(75,102,238)" stroke-width="1" opacity="0.5803921568627451" d="M 10.5 175 L 15 183.5 L 14 183.5 L 10 175.5 L 10.5 175 Z "></path><path fill="rgb(75,102,238)" stroke="rgb(75,102,238)" stroke-width="1" opacity="0.5803921568627451" d="M 235.5 183 L 235 184.5 L 233 189.5 L 226.5 198 L 226 197.5 L 228 195.5 L 235.5 183 Z "></path><path fill="rgb(75,102,238)" stroke="rgb(75,102,238)" stroke-width="1" opacity="0.5803921568627451" d="M 15.5 185 L 24 197.5 L 23.5 198 L 21 195.5 L 15 185.5 L 15.5 185 Z "></path><path fill="rgb(75,102,238)" stroke="rgb(75,102,238)" stroke-width="1" opacity="0.5803921568627451" d="M 24.5 199 L 40.5 217 L 51 225.5 L 50.5 226 L 48.5 224 Q 38.38 217.63 31 208.5 L 24 199.5 L 24.5 199 Z "></path><path fill="rgb(75,102,238)" stroke="rgb(75,102,238)" stroke-width="1" opacity="0.5803921568627451" d="M 225.5 199 L 226 199.5 L 224 201.5 Q 217.63 211.63 208.5 219 L 199.5 226 L 199 225.5 L 202.5 222 Q 210.88 216.88 217 209.5 L 225.5 199 Z "></path><path fill="rgb(75,102,238)" stroke="rgb(75,102,238)" stroke-width="1" opacity="0.5803921568627451" d="M 52.5 226 L 67 235.5 L 65.5 235 L 54.5 229 L 52 226.5 L 52.5 226 Z "></path><path fill="rgb(75,102,238)" stroke="rgb(75,102,238)" stroke-width="1" opacity="0.5803921568627451" d="M 197.5 226 L 198 226.5 L 195.5 229 L 185.5 235 Q 184 234 186.5 233 L 189.5 232 L 197.5 226 Z "></path><path fill="rgb(75,102,238)" stroke="rgb(75,102,238)" stroke-width="1" opacity="0.5803921568627451" d="M 182.5 235 L 184 235.5 L 174.5 240 L 174.5 239 L 182.5 235 Z "></path><path fill="rgb(75,102,238)" stroke="rgb(75,102,238)" stroke-width="1" opacity="0.5803921568627451" d="M 68.5 236 L 78 240.5 L 76.5 241 L 69.5 238 Q 67 237 68.5 236 Z "></path><path fill="rgb(75,102,238)" stroke="rgb(75,102,238)" stroke-width="1" opacity="0.5803921568627451" d="M 172.5 240 L 172.5 241 L 172.5 240 Z "></path><path fill="rgb(75,102,238)" stroke="rgb(75,102,238)" stroke-width="1" opacity="0.5803921568627451" d="M 79.5 241 L 90 244.5 L 87.5 245 L 79.5 242 L 79.5 241 Z "></path><path fill="rgb(75,102,238)" stroke="rgb(75,102,238)" stroke-width="1" opacity="0.5803921568627451" d="M 169.5 241 L 171 241.5 L 160.5 245 L 160.5 244 L 169.5 241 Z "></path><path fill="rgb(75,102,238)" stroke="rgb(75,102,238)" stroke-width="1" opacity="0.5803921568627451" d="M 91.5 245 L 93 245.5 L 91.5 246 L 91.5 245 Z "></path><path fill="rgb(75,102,238)" stroke="rgb(75,102,238)" stroke-width="1" opacity="0.5803921568627451" d="M 157.5 245 L 159 245.5 L 157.5 246 L 157.5 245 Z "></path><path fill="rgb(75,102,238)" stroke="rgb(75,102,238)" stroke-width="1" opacity="0.5803921568627451" d="M 94.5 246 L 102.5 247 L 103.5 248 L 109.5 248 L 110.5 249 L 117 249.5 L 110.5 250 L 109.5 249 L 103.5 249 L 102.5 248 L 94.5 247 L 94.5 246 Z "></path><path fill="rgb(75,102,238)" stroke="rgb(75,102,238)" stroke-width="1" opacity="0.5803921568627451" d="M 152.5 246 L 156 246.5 L 151.5 248 L 147.5 248 L 146.5 249 L 134.5 250 L 134.5 249 L 139.5 249 L 140.5 248 L 145.5 248 L 146.5 247 Q 151.25 248.25 152.5 246 Z "></path><path fill="rgb(63,90,244)" stroke="rgb(63,90,244)" stroke-width="1" opacity="0.09803921568627451" d="M 99 0 L 110 0.5 L 99 2 L 99 0 Z "></path><path fill="rgb(63,90,244)" stroke="rgb(63,90,244)" stroke-width="1" opacity="0.09803921568627451" d="M 140.5 0 L 150.5 0 L 151 2 Q 147.62 3 146.5 1 L 140.5 1 L 140.5 0 Z "></path><path fill="rgb(63,90,244)" stroke="rgb(63,90,244)" stroke-width="1" opacity="0.09803921568627451" d="M 94.5 2 L 98 2.5 L 82 7 Q 80.75 4 84.5 5 L 89.5 3 L 93.5 3 L 94.5 2 Z "></path><path fill="rgb(63,90,244)" stroke="rgb(63,90,244)" stroke-width="1" opacity="0.09803921568627451" d="M 152.5 2 L 160.5 3 L 161.5 4 L 168 5 Q 169.13 7.67 166.5 7 L 162.5 5 L 152.5 3 L 152.5 2 Z "></path><path fill="rgb(63,90,244)" stroke="rgb(63,90,244)" stroke-width="1" opacity="0.09803921568627451" d="M 79.5 7 L 81 7.5 L 60.5 17 L 47.5 26 L 42.5 31 L 42 29.5 L 45.5 25 L 47 25.5 Q 46.25 23.25 48.5 24 L 54 20.5 Q 53.17 17.88 56.5 19 Q 57.5 16.5 60 17 Q 58.88 14.33 61.5 15 L 67.5 13 L 69 11.5 Q 68.17 8.88 71.5 10 L 79.5 7 Z "></path><path fill="rgb(63,90,244)" stroke="rgb(63,90,244)" stroke-width="1" opacity="0.09803921568627451" d="M 169.5 7 L 181 10 Q 179.87 12.67 182.5 12 L 187 14.5 L 186.5 16 L 178.5 11 L 169.5 8 L 169.5 7 Z "></path><path fill="rgb(63,90,244)" stroke="rgb(63,90,244)" stroke-width="1" opacity="0.09803921568627451" d="M 188 15 L 190 15 Q 188.88 17.67 191.5 17 Q 192.58 19.75 196 19 L 197.5 22 L 199.5 22 Q 200.5 24.5 203 24 L 203.5 26 L 205 25.5 L 208 30.5 L 207.5 31 L 202.5 26 L 189.5 17 L 188 17 L 188 15 Z "></path><path fill="rgb(63,90,244)" stroke="rgb(63,90,244)" stroke-width="1" opacity="0.09803921568627451" d="M 39 30 Q 41.67 28.88 41 31.5 L 32.5 40 L 32 39.5 L 35 35.5 L 35 34 L 39 33 L 39 30 Z "></path><path fill="rgb(63,90,244)" stroke="rgb(63,90,244)" stroke-width="1" opacity="0.09803921568627451" d="M 209.5 30 L 211.5 33 L 215 34 L 215 35.5 L 218.5 40 L 220 39.5 L 220 41.5 L 223.5 46 L 225 45.5 L 228 53 L 231 54.5 L 231 56.5 L 233 59.5 Q 232 61 231 58.5 L 224 47.5 L 209 31.5 L 209.5 30 Z "></path><path fill="rgb(63,90,244)" stroke="rgb(63,90,244)" stroke-width="1" opacity="0.09803921568627451" d="M 30.5 40 L 31 42.5 L 26 47.5 L 17.5 60 L 18 58.5 L 20 53 Q 22.67 54.12 22 51.5 L 25 47.5 L 25.5 45 Q 26.75 47.25 28 44.5 L 30.5 40 Z "></path><path fill="rgb(63,90,244)" stroke="rgb(63,90,244)" stroke-width="1" opacity="0.09803921568627451" d="M 15.5 60 Q 18.25 61.25 16 62.5 L 12.5 69 L 13 67.5 L 15.5 60 Z "></path><path fill="rgb(63,90,244)" stroke="rgb(63,90,244)" stroke-width="1" opacity="0.09803921568627451" d="M 234.5 60 L 238.5 70 L 240 69.5 L 240 72.5 L 243 80.5 L 242 80.5 L 240 74.5 L 233 61.5 L 234.5 60 Z "></path><path fill="rgb(63,90,244)" stroke="rgb(63,90,244)" stroke-width="1" opacity="0.09803921568627451" d="M 10.5 69 Q 13.25 70.25 11 71.5 L 11 73.5 L 7.5 81 L 7 79.5 L 10.5 69 Z "></path><path fill="rgb(63,90,244)" stroke="rgb(63,90,244)" stroke-width="1" opacity="0.09803921568627451" d="M 5 82 Q 7.67 80.88 7 83.5 L 3.5 94 L 3 90.5 L 4 89.5 L 5 82 Z "></path><path fill="rgb(63,90,244)" stroke="rgb(63,90,244)" stroke-width="1" opacity="0.09803921568627451" d="M 243 82 Q 246.33 80.69 245 85.5 L 246 86.5 L 247 93.5 L 246 93.5 L 245 87.5 L 243 82 Z "></path><path fill="rgb(63,90,244)" stroke="rgb(63,90,244)" stroke-width="1" opacity="0.09803921568627451" d="M 2.5 95 L 3 97.5 L 2 97.5 L 2.5 95 Z "></path><path fill="rgb(63,90,244)" stroke="rgb(63,90,244)" stroke-width="1" opacity="0.09803921568627451" d="M 247.5 95 L 248 97.5 L 247 97.5 L 247.5 95 Z "></path><path fill="rgb(63,90,244)" stroke="rgb(63,90,244)" stroke-width="1" opacity="0.09803921568627451" d="M 0.5 99 Q 2.5 99.5 2 102.5 L 1 103.5 L 0.5 110 L 0.5 99 Z "></path><path fill="rgb(63,90,244)" stroke="rgb(63,90,244)" stroke-width="1" opacity="0.09803921568627451" d="M 249.5 99 L 250 109.5 L 249 109.5 L 249 103.5 L 248 100.5 L 249.5 99 Z "></path><path fill="rgb(63,90,244)" stroke="rgb(63,90,244)" stroke-width="1" opacity="0.09803921568627451" d="M 0.5 140 L 2 149.5 Q 1 152 0 150.5 L 0.5 140 Z "></path><path fill="rgb(63,90,244)" stroke="rgb(63,90,244)" stroke-width="1" opacity="0.09803921568627451" d="M 249.5 140 L 250 150.5 Q 249 152 248 149.5 L 249.5 140 Z "></path><path fill="rgb(63,90,244)" stroke="rgb(63,90,244)" stroke-width="1" opacity="0.09803921568627451" d="M 2.5 152 L 3 154.5 L 2 154.5 L 2.5 152 Z "></path><path fill="rgb(63,90,244)" stroke="rgb(63,90,244)" stroke-width="1" opacity="0.09803921568627451" d="M 247.5 152 L 248 154.5 L 247 154.5 L 247.5 152 Z "></path><path fill="rgb(63,90,244)" stroke="rgb(63,90,244)" stroke-width="1" opacity="0.09803921568627451" d="M 3.5 156 L 7 168 Q 3.67 169.31 5 164.5 L 3 159.5 L 3.5 156 Z "></path><path fill="rgb(63,90,244)" stroke="rgb(63,90,244)" stroke-width="1" opacity="0.09803921568627451" d="M 246.5 156 L 247 159.5 L 246 160.5 L 245 168 Q 242.33 169.13 243 166.5 L 246.5 156 Z "></path><path fill="rgb(63,90,244)" stroke="rgb(63,90,244)" stroke-width="1" opacity="0.09803921568627451" d="M 7.5 169 L 17 188.5 Q 16 191 15 189.5 L 11.5 180 L 10 180.5 L 10 177.5 L 7 170.5 L 7.5 169 Z "></path><path fill="rgb(63,90,244)" stroke="rgb(63,90,244)" stroke-width="1" opacity="0.09803921568627451" d="M 242.5 169 L 243 170.5 L 239.5 181 Q 236.75 179.75 239 178.5 L 239 176.5 L 242.5 169 Z "></path><path fill="rgb(63,90,244)" stroke="rgb(63,90,244)" stroke-width="1" opacity="0.09803921568627451" d="M 237.5 181 L 237 182.5 L 234.5 190 Q 231.75 188.75 234 187.5 L 237.5 181 Z "></path><path fill="rgb(63,90,244)" stroke="rgb(63,90,244)" stroke-width="1" opacity="0.09803921568627451" d="M 17.5 190 L 26 202.5 L 41 219.5 L 40 219.5 L 38.5 217 L 35 216 L 35 214.5 L 31.5 210 L 30 210.5 L 30 208.5 L 26.5 204 L 25 204.5 L 22 197 L 19 195.5 L 19 193.5 L 17 190.5 L 17.5 190 Z "></path><path fill="rgb(63,90,244)" stroke="rgb(63,90,244)" stroke-width="1" opacity="0.09803921568627451" d="M 232.5 190 L 232 191.5 L 230 197 Q 227.33 195.88 228 198.5 L 224.5 205 Q 223.25 202.75 222 205.5 L 219.5 210 L 219 207.5 L 224 202.5 L 232.5 190 Z "></path><path fill="rgb(63,90,244)" stroke="rgb(63,90,244)" stroke-width="1" opacity="0.09803921568627451" d="M 217.5 210 L 217 211.5 L 215 216 L 211 217 Q 212.33 221.12 209 220 L 209 218.5 L 217.5 210 Z "></path><path fill="rgb(63,90,244)" stroke="rgb(63,90,244)" stroke-width="1" opacity="0.09803921568627451" d="M 42.5 219 L 47.5 224 L 60.5 233 L 62 233 Q 63 236 60 235 Q 61.13 232.33 58.5 233 Q 57.42 230.25 54 231 L 52.5 228 L 50.5 228 Q 49.5 225.5 47 226 L 46.5 224 L 45 224.5 L 42 220.5 L 42.5 219 Z "></path><path fill="rgb(63,90,244)" stroke="rgb(63,90,244)" stroke-width="1" opacity="0.09803921568627451" d="M 207.5 219 L 208 220.5 L 204.5 225 L 203 224.5 Q 203.75 226.75 201.5 226 L 196 229.5 Q 196.83 232.13 193.5 231 Q 192.5 233.5 190 233 Q 191.13 235.67 188.5 235 L 182.5 237 L 181 238.5 Q 181.83 241.13 178.5 240 L 169.5 243 L 169.5 242 L 189.5 233 L 202.5 224 L 207.5 219 Z "></path><path fill="rgb(63,90,244)" stroke="rgb(63,90,244)" stroke-width="1" opacity="0.09803921568627451" d="M 63.5 234 L 71.5 239 L 73.5 239 L 81 242.5 L 78.5 243 L 71.5 240 L 69 240 Q 70.13 237.33 67.5 238 L 63 235.5 L 63.5 234 Z "></path><path fill="rgb(63,90,244)" stroke="rgb(63,90,244)" stroke-width="1" opacity="0.09803921568627451" d="M 82 243 L 98 247.5 L 94.5 248 L 93.5 247 L 89.5 247 L 88.5 246 L 82 245 L 82 243 Z "></path><path fill="rgb(63,90,244)" stroke="rgb(63,90,244)" stroke-width="1" opacity="0.09803921568627451" d="M 166.5 243 Q 169.13 242.33 168 245 L 161.5 246 L 160.5 247 L 152.5 248 L 152.5 247 L 155.5 247 L 166.5 243 Z "></path><path fill="rgb(63,90,244)" stroke="rgb(63,90,244)" stroke-width="1" opacity="0.09803921568627451" d="M 99 248 L 110 249.5 L 99 250 L 99 248 Z "></path><path fill="rgb(63,90,244)" stroke="rgb(63,90,244)" stroke-width="1" opacity="0.09803921568627451" d="M 147.5 248 Q 152.31 246.67 151 250 L 140 249.5 L 146.5 249 L 147.5 248 Z "></path></svg>