<svg xmlns="http://www.w3.org/2000/svg" width="256" height="256" fill="none"><circle cx="128" cy="128" r="128" fill="#fff"/><path fill="#000" fill-rule="evenodd" d="M120.558 127.956c34.276-.219 62.512-27.053 64.963-60.76.088-1.27-.306-2.408-1.182-3.371q-1.313-1.445-3.283-1.445h-56.427c-2.451 0-4.465 2.014-4.465 4.465v50.124c0 5.909-5.428 10.987-11.688 10.987H65.401c-1.839 0-3.415 1.051-4.115 2.758s-.35 3.546.963 4.859l56.602 56.602q1.313 1.313 3.152 1.313h52.925c1.838 0 3.414-1.05 4.114-2.758.701-1.707.351-3.545-.963-4.859l-55.551-55.551-1.051-1.05-1.313-1.314zm135.398.044c0-70.698-57.302-128-128-128C57.259 0 0 57.302 0 128s57.302 128 128 128 127.956-57.346 127.956-128" clip-rule="evenodd"/></svg>