<svg xmlns="http://www.w3.org/2000/svg" width="50" height="50" fill="none"><g fill-rule="evenodd" clip-path="url(#a)" clip-rule="evenodd"><path fill="url(#b)" d="M20.407 40.617c5.58 5.581 14.63 5.581 20.21 0 5.581-5.58 5.581-14.63 0-20.21-5.58-5.581-14.63-5.581-20.21 0-5.581 5.58-5.581 14.63 0 20.21m-3.675 3.675c7.61 7.61 19.95 7.61 27.56 0s7.61-19.95 0-27.56-19.95-7.61-27.56 0-7.61 19.95 0 27.56"/><path fill="url(#c)" d="M9.383 29.593c5.58 5.581 14.63 5.581 20.21 0 5.581-5.58 5.581-14.63 0-20.21-5.58-5.581-14.63-5.581-20.21 0-5.581 5.58-5.581 14.63 0 20.21m-3.675 3.675c7.61 7.61 19.95 7.61 27.56 0s7.61-19.95 0-27.56-19.95-7.61-27.56 0-7.61 19.95 0 27.56"/><path fill="url(#d)" d="M16.528 33.472a14.28 14.28 0 0 0 13.066-3.879 14.28 14.28 0 0 0 3.878-13.065 14.28 14.28 0 0 0-13.065 3.879 14.28 14.28 0 0 0-3.879 13.065m-4.161 4.161c-2.74-6.993-1.286-15.25 4.365-20.901s13.908-7.106 20.901-4.366c2.741 6.994 1.286 15.251-4.365 20.902-5.65 5.65-13.908 7.106-20.901 4.365"/></g><defs><linearGradient id="b" x1="11.024" x2="56.878" y1="11.024" y2="22.488" gradientUnits="userSpaceOnUse"><stop stop-color="#5084E9"/><stop offset="1" stop-color="#6F50E9"/></linearGradient><linearGradient id="c" x1="0" x2="45.854" y1="0" y2="11.463" gradientUnits="userSpaceOnUse"><stop stop-color="#E95062"/><stop offset="1" stop-color="#E950D0"/></linearGradient><linearGradient id="d" x1="11.024" x2="43.909" y1="11.024" y2="19.245" gradientUnits="userSpaceOnUse"><stop stop-color="#5084E9"/><stop offset="1" stop-color="#E95062"/></linearGradient><clipPath id="a"><path fill="#fff" d="M0 0h50v50H0z"/></clipPath></defs></svg>