<svg xmlns="http://www.w3.org/2000/svg" width="256" height="256"><defs><linearGradient id="b" x1="1.093" x2="23.12" y1="11.919" y2="11.919" gradientTransform="scale(.90833 1.10092)" gradientUnits="userSpaceOnUse"><stop offset="0" stop-color="#ff3c55"/><stop offset=".514" stop-color="#ff3d56"/><stop offset="1" stop-color="#ff8b65"/></linearGradient><linearGradient id="c" x1="1.258" x2="23.294" y1="17.49" y2="17.49" gradientTransform="scale(.80126 1.24803)" gradientUnits="userSpaceOnUse"><stop offset="0" stop-color="#ff3c55"/><stop offset=".514" stop-color="#ff3c55"/><stop offset="1" stop-color="#ff8b65"/></linearGradient><radialGradient id="a" cx="9.819" cy="14.366" r="8.166" fx="9.819" fy="14.366" gradientTransform="scale(1.01574 .9845)" gradientUnits="userSpaceOnUse"><stop offset="0" stop-color="#be4650"/><stop offset="1" stop-color="#9b375a"/></radialGradient></defs><circle cx="128" cy="128" r="128" style="fill:#333;stroke-width:4.49148"/><path d="M6.8 22.05a.92.92 0 0 1-.75-.25l-4-4a.92.92 0 0 1-.25-.75.92.92 0 0 1 .25-.75l10-9.75a.92.92 0 0 1 .75-.25.92.92 0 0 1 .75.25l4.25 4c.25 0 .25.5.25.75a.92.92 0 0 1-.25.75L7.55 21.8a.92.92 0 0 1-.75.25" style="fill:url(#a)" transform="translate(87.527 63.745)scale(4.13123)"/><path d="m19 10.65-8.25-8A7.2 7.2 0 0 0 6.25.9a6.83 6.83 0 0 0-4.75 2c-.5.25-.5.5-.5.75a.92.92 0 0 0 .25.75L12.5 15.15c.25.25.5.25.5.5a7.25 7.25 0 0 1 .5 9.5L19 19.9a5.85 5.85 0 0 0 2-4.5 6.83 6.83 0 0 0-2-4.75" style="fill:url(#b)" transform="translate(82.57 30.282)scale(4.13123)"/><path d="M8.95 17.7a6.96 6.96 0 0 1-.25-9.5l-5.5 5.25a6.64 6.64 0 0 0 0 9.5l12 12.25a.92.92 0 0 0 .75.25.92.92 0 0 0 .75-.25 6.64 6.64 0 0 0 0-9.5l-7.5-7.5c0-.25-.25-.25-.25-.5" style="fill:url(#c)" transform="translate(83.809 75.519)scale(4.13123)"/></svg>