<svg xmlns="http://www.w3.org/2000/svg" width="50" height="50" fill="none"><g clip-path="url(#a)"><path fill="#00847B" d="M25 49.183c13.356 0 24.183-10.827 24.183-24.183S38.356.817 25 .817.817 11.644.817 25 11.644 49.183 25 49.183"/><path fill="#fff" fill-rule="evenodd" d="M30.928 34.167c0 3.127-2.539 5.655-5.672 5.655-3.128 0-5.673-2.528-5.673-5.655 0-.895.206-1.74.578-2.49l-2.389-1.944-.055-.033a8.66 8.66 0 0 0-1.228 4.467c0 4.822 3.922 8.739 8.767 8.739s8.772-3.911 8.772-8.74c0-4.821-3.922-8.738-8.767-8.738H3.94l5.644 4.455v-1.372h15.673c3.127.006 5.672 2.534 5.672 5.656M19.072 15.833c0-3.127 2.54-5.655 5.673-5.655a5.656 5.656 0 0 1 5.089 8.144l2.388 1.945.056.033a8.66 8.66 0 0 0 1.228-4.467c0-4.822-3.922-8.739-8.767-8.739s-8.767 3.912-8.767 8.74c0 4.822 3.923 8.738 8.767 8.738h21.317l-5.645-4.455v1.372H24.745c-3.128-.006-5.673-2.533-5.673-5.656" clip-rule="evenodd"/></g><defs><clipPath id="a"><path fill="#fff" d="M0 0h50v50H0z"/></clipPath></defs></svg>