<svg xmlns="http://www.w3.org/2000/svg" width="173" height="173" style="shape-rendering:geometricPrecision;text-rendering:geometricPrecision;image-rendering:optimizeQuality;fill-rule:evenodd;clip-rule:evenodd"><path fill="#010c41" d="M72.5-.5h27q60 13 73 73v27q-13 60-73 73h-27q-60-13-73-73v-27q13-60 73-73" style="opacity:.978"/><path fill="#f3f4f7" d="M37.5 118.5q2.886-5.64 8.5-9 1-1 0-2-10.3 4.46-21.5 3.5-1.921-2.114-3-4.5Q9.37 60.05 46.5 30q12.837-10.111 29-10 6.019 7.285 8.5 16.5a127 127 0 0 1 8-16q1.689-2.165 4.5-2 44.315 10.065 55.5 54 1.896 17.811-3 35l-1.5 1.5q-11.234 1.19-22-1 6.378 5.372 10.5 12.5 2.133 3.795 1 8-31.55 33.636-75.5 19.5-16.25-6.254-27.5-19.5-1-2 0-4a32 32 0 0 0 3.5-6" style="opacity:1"/><path fill="#061041" d="M97.5 27.5a43.2 43.2 0 0 1 10 3q-16.722 34.632 15 56.5 9.934 4.971 21 4.5a77 77 0 0 1-1 10q-35.766-1.51-48.5-35-6.195-20.29 3.5-39" style="opacity:1"/><path fill="#181d45" d="M52.5 71.5a9.1 9.1 0 0 0-1-5q12.226-11.86 3-26.5-7.257-1.992-7 5.5-2.022-1.54-1.5-4a21.76 21.76 0 0 1 7.5-6q7.78 9.615 5.5 22-1.7 7.908-6.5 14" style="opacity:1"/><path fill="#030d41" d="M52.5 71.5q-7.08 10.552-20 12h-5v-8q-.045-1.496 1.5-2 22.386-5.262 18.5-28-.257-7.492 7-5.5 9.226 14.64-3 26.5a9.1 9.1 0 0 1 1 5" style="opacity:1"/><path fill="#061041" d="M67.5 28.5q5.586-.675 6.5 5Q86.115 71.312 54.5 95q-12.122 7.028-26 7.5a77 77 0 0 0-1-10q31.128-1.872 39.5-32 2.876-15.67-5.5-29 2.916-1.95 6-3" style="opacity:1"/><path fill="#151846" d="M129.5 47.5q2.276.015 3.5 2l7.5 13q-4.994 1.387-8.5-3-2.983-5.63-2.5-12" style="opacity:1"/><path fill="#151a45" d="M37.5 49.5q4.818 9.987-6 15l-1-1z" style="opacity:1"/><path fill="#071041" d="M137.5 71.5q2.128 1.426 5 1l1 10h-8q-27.546-8.04-25.5-37a34.4 34.4 0 0 1 4.5-10.5q3.897.189 7 3 3.717 2.907.5 6.5-4.604 20.81 15.5 27" style="opacity:1"/><path fill="#525575" d="M137.5 71.5h6a55 55 0 0 1 1 12q-4.82.465-9-1h8l-1-10q-2.872.426-5-1" style="opacity:1"/><path fill="#081142" d="M84.5 65.5q4.813 16.365 17 28.5A736 736 0 0 1 85 92.5 136 136 0 0 0 67.5 95q13.345-11.937 17-29.5" style="opacity:1"/><path fill="#474d67" d="M27.5 75.5v8h5q-2.648 1.442-6 1-.465-4.82 1-9" style="opacity:1"/><path fill="#061042" d="M75.5 101.5q33.322-3.576 53 23-3 4-7 7-16.33-23.66-45-19.5-15.988 4.998-25 19-5.555-.51-8-6 11.59-17.85 32-23.5" style="opacity:1"/><path fill="#151a44" d="M21.5 106.5q1.079 2.386 3 4.5 11.2.96 21.5-3.5 1 1 0 2-5.614 3.36-8.5 9 .258-2.987-2-5-5.82-1.942-11.5 0-2.854-2.911-2.5-7" style="opacity:1"/><path fill="#363b5d" d="M91.5 120.5a118 118 0 0 0-16 1q4.575-2.153 10-2 3.296.007 6 1" style="opacity:1"/><path fill="#061041" d="M91.5 120.5q16.187 2.063 22 17a29.8 29.8 0 0 0-8.5 3q-17.995-19.406-36.5-.5-3.62.726-7-1-2.52-.52-3-3 5.525-10.777 17-14.5a118 118 0 0 1 16-1" style="opacity:1"/><path fill="#111743" d="M80.5 139.5q5.025-.247 10 .5a12.4 12.4 0 0 1 4 2.5q-8.5 2-17 0 1.905-1.182 3-3" style="opacity:1"/></svg>